%TF.GenerationSoftware,KiCad,Pcbnew,5.1.9+dfsg1-1+deb11u1*%
%TF.CreationDate,2025-10-29T09:53:25+01:00*%
%TF.ProjectId,VERA-XE-HDMI-Expansion,56455241-2d58-4452-9d48-444d492d4578,1.1*%
%TF.SameCoordinates,Original*%
%TF.FileFunction,Legend,Bot*%
%TF.FilePolarity,Positive*%
%FSLAX46Y46*%
G04 Gerber Fmt 4.6, Leading zero omitted, Abs format (unit mm)*
G04 Created by KiCad (PCBNEW 5.1.9+dfsg1-1+deb11u1) date 2025-10-29 09:53:25*
%MOMM*%
%LPD*%
G01*
G04 APERTURE LIST*
%ADD10C,0.150000*%
%ADD11C,0.120000*%
%ADD12C,0.010000*%
G04 APERTURE END LIST*
D10*
X165683333Y-78552380D02*
X165683333Y-77885714D01*
X165683333Y-77552380D02*
X165730952Y-77600000D01*
X165683333Y-77647619D01*
X165635714Y-77600000D01*
X165683333Y-77552380D01*
X165683333Y-77647619D01*
X165207142Y-77885714D02*
X165207142Y-78552380D01*
X165207142Y-77980952D02*
X165159523Y-77933333D01*
X165064285Y-77885714D01*
X164921428Y-77885714D01*
X164826190Y-77933333D01*
X164778571Y-78028571D01*
X164778571Y-78552380D01*
X163540476Y-78552380D02*
X163540476Y-77885714D01*
X163540476Y-77980952D02*
X163492857Y-77933333D01*
X163397619Y-77885714D01*
X163254761Y-77885714D01*
X163159523Y-77933333D01*
X163111904Y-78028571D01*
X163111904Y-78552380D01*
X163111904Y-78028571D02*
X163064285Y-77933333D01*
X162969047Y-77885714D01*
X162826190Y-77885714D01*
X162730952Y-77933333D01*
X162683333Y-78028571D01*
X162683333Y-78552380D01*
X161826190Y-78504761D02*
X161921428Y-78552380D01*
X162111904Y-78552380D01*
X162207142Y-78504761D01*
X162254761Y-78409523D01*
X162254761Y-78028571D01*
X162207142Y-77933333D01*
X162111904Y-77885714D01*
X161921428Y-77885714D01*
X161826190Y-77933333D01*
X161778571Y-78028571D01*
X161778571Y-78123809D01*
X162254761Y-78219047D01*
X161350000Y-78552380D02*
X161350000Y-77885714D01*
X161350000Y-77980952D02*
X161302380Y-77933333D01*
X161207142Y-77885714D01*
X161064285Y-77885714D01*
X160969047Y-77933333D01*
X160921428Y-78028571D01*
X160921428Y-78552380D01*
X160921428Y-78028571D02*
X160873809Y-77933333D01*
X160778571Y-77885714D01*
X160635714Y-77885714D01*
X160540476Y-77933333D01*
X160492857Y-78028571D01*
X160492857Y-78552380D01*
X159873809Y-78552380D02*
X159969047Y-78504761D01*
X160016666Y-78457142D01*
X160064285Y-78361904D01*
X160064285Y-78076190D01*
X160016666Y-77980952D01*
X159969047Y-77933333D01*
X159873809Y-77885714D01*
X159730952Y-77885714D01*
X159635714Y-77933333D01*
X159588095Y-77980952D01*
X159540476Y-78076190D01*
X159540476Y-78361904D01*
X159588095Y-78457142D01*
X159635714Y-78504761D01*
X159730952Y-78552380D01*
X159873809Y-78552380D01*
X159111904Y-78552380D02*
X159111904Y-77885714D01*
X159111904Y-78076190D02*
X159064285Y-77980952D01*
X159016666Y-77933333D01*
X158921428Y-77885714D01*
X158826190Y-77885714D01*
X158492857Y-78552380D02*
X158492857Y-77885714D01*
X158492857Y-77552380D02*
X158540476Y-77600000D01*
X158492857Y-77647619D01*
X158445238Y-77600000D01*
X158492857Y-77552380D01*
X158492857Y-77647619D01*
X157588095Y-78552380D02*
X157588095Y-78028571D01*
X157635714Y-77933333D01*
X157730952Y-77885714D01*
X157921428Y-77885714D01*
X158016666Y-77933333D01*
X157588095Y-78504761D02*
X157683333Y-78552380D01*
X157921428Y-78552380D01*
X158016666Y-78504761D01*
X158064285Y-78409523D01*
X158064285Y-78314285D01*
X158016666Y-78219047D01*
X157921428Y-78171428D01*
X157683333Y-78171428D01*
X157588095Y-78123809D01*
X157111904Y-78552380D02*
X157111904Y-77885714D01*
X157111904Y-77980952D02*
X157064285Y-77933333D01*
X156969047Y-77885714D01*
X156826190Y-77885714D01*
X156730952Y-77933333D01*
X156683333Y-78028571D01*
X156683333Y-78552380D01*
X156683333Y-78028571D02*
X156635714Y-77933333D01*
X156540476Y-77885714D01*
X156397619Y-77885714D01*
X156302380Y-77933333D01*
X156254761Y-78028571D01*
X156254761Y-78552380D01*
X155064285Y-78266666D02*
X154588095Y-78266666D01*
X155159523Y-78552380D02*
X154826190Y-77552380D01*
X154492857Y-78552380D01*
X154159523Y-78457142D02*
X154111904Y-78504761D01*
X154159523Y-78552380D01*
X154207142Y-78504761D01*
X154159523Y-78457142D01*
X154159523Y-78552380D01*
X153730952Y-78504761D02*
X153588095Y-78552380D01*
X153350000Y-78552380D01*
X153254761Y-78504761D01*
X153207142Y-78457142D01*
X153159523Y-78361904D01*
X153159523Y-78266666D01*
X153207142Y-78171428D01*
X153254761Y-78123809D01*
X153350000Y-78076190D01*
X153540476Y-78028571D01*
X153635714Y-77980952D01*
X153683333Y-77933333D01*
X153730952Y-77838095D01*
X153730952Y-77742857D01*
X153683333Y-77647619D01*
X153635714Y-77600000D01*
X153540476Y-77552380D01*
X153302380Y-77552380D01*
X153159523Y-77600000D01*
X152730952Y-78457142D02*
X152683333Y-78504761D01*
X152730952Y-78552380D01*
X152778571Y-78504761D01*
X152730952Y-78457142D01*
X152730952Y-78552380D01*
X151492857Y-78171428D02*
X150730952Y-78171428D01*
X148969047Y-77600000D02*
X149064285Y-77552380D01*
X149207142Y-77552380D01*
X149350000Y-77600000D01*
X149445238Y-77695238D01*
X149492857Y-77790476D01*
X149540476Y-77980952D01*
X149540476Y-78123809D01*
X149492857Y-78314285D01*
X149445238Y-78409523D01*
X149350000Y-78504761D01*
X149207142Y-78552380D01*
X149111904Y-78552380D01*
X148969047Y-78504761D01*
X148921428Y-78457142D01*
X148921428Y-78123809D01*
X149111904Y-78123809D01*
X148492857Y-78457142D02*
X148445238Y-78504761D01*
X148492857Y-78552380D01*
X148540476Y-78504761D01*
X148492857Y-78457142D01*
X148492857Y-78552380D01*
X148016666Y-78552380D02*
X148016666Y-77552380D01*
X147778571Y-77552380D01*
X147635714Y-77600000D01*
X147540476Y-77695238D01*
X147492857Y-77790476D01*
X147445238Y-77980952D01*
X147445238Y-78123809D01*
X147492857Y-78314285D01*
X147540476Y-78409523D01*
X147635714Y-78504761D01*
X147778571Y-78552380D01*
X148016666Y-78552380D01*
X147016666Y-78457142D02*
X146969047Y-78504761D01*
X147016666Y-78552380D01*
X147064285Y-78504761D01*
X147016666Y-78457142D01*
X147016666Y-78552380D01*
X179573809Y-83753571D02*
X179907142Y-83753571D01*
X179907142Y-84277380D02*
X179907142Y-83277380D01*
X179430952Y-83277380D01*
X179050000Y-84277380D02*
X179050000Y-83610714D01*
X179050000Y-83801190D02*
X179002380Y-83705952D01*
X178954761Y-83658333D01*
X178859523Y-83610714D01*
X178764285Y-83610714D01*
X178288095Y-84277380D02*
X178383333Y-84229761D01*
X178430952Y-84182142D01*
X178478571Y-84086904D01*
X178478571Y-83801190D01*
X178430952Y-83705952D01*
X178383333Y-83658333D01*
X178288095Y-83610714D01*
X178145238Y-83610714D01*
X178050000Y-83658333D01*
X178002380Y-83705952D01*
X177954761Y-83801190D01*
X177954761Y-84086904D01*
X178002380Y-84182142D01*
X178050000Y-84229761D01*
X178145238Y-84277380D01*
X178288095Y-84277380D01*
X177526190Y-84277380D02*
X177526190Y-83610714D01*
X177526190Y-83705952D02*
X177478571Y-83658333D01*
X177383333Y-83610714D01*
X177240476Y-83610714D01*
X177145238Y-83658333D01*
X177097619Y-83753571D01*
X177097619Y-84277380D01*
X177097619Y-83753571D02*
X177050000Y-83658333D01*
X176954761Y-83610714D01*
X176811904Y-83610714D01*
X176716666Y-83658333D01*
X176669047Y-83753571D01*
X176669047Y-84277380D01*
X175573809Y-83277380D02*
X175002380Y-83277380D01*
X175288095Y-84277380D02*
X175288095Y-83277380D01*
X174669047Y-84277380D02*
X174669047Y-83277380D01*
X174240476Y-84277380D02*
X174240476Y-83753571D01*
X174288095Y-83658333D01*
X174383333Y-83610714D01*
X174526190Y-83610714D01*
X174621428Y-83658333D01*
X174669047Y-83705952D01*
X173383333Y-84229761D02*
X173478571Y-84277380D01*
X173669047Y-84277380D01*
X173764285Y-84229761D01*
X173811904Y-84134523D01*
X173811904Y-83753571D01*
X173764285Y-83658333D01*
X173669047Y-83610714D01*
X173478571Y-83610714D01*
X173383333Y-83658333D01*
X173335714Y-83753571D01*
X173335714Y-83848809D01*
X173811904Y-83944047D01*
X172002380Y-83705952D02*
X172097619Y-83658333D01*
X172145238Y-83610714D01*
X172192857Y-83515476D01*
X172192857Y-83467857D01*
X172145238Y-83372619D01*
X172097619Y-83325000D01*
X172002380Y-83277380D01*
X171811904Y-83277380D01*
X171716666Y-83325000D01*
X171669047Y-83372619D01*
X171621428Y-83467857D01*
X171621428Y-83515476D01*
X171669047Y-83610714D01*
X171716666Y-83658333D01*
X171811904Y-83705952D01*
X172002380Y-83705952D01*
X172097619Y-83753571D01*
X172145238Y-83801190D01*
X172192857Y-83896428D01*
X172192857Y-84086904D01*
X172145238Y-84182142D01*
X172097619Y-84229761D01*
X172002380Y-84277380D01*
X171811904Y-84277380D01*
X171716666Y-84229761D01*
X171669047Y-84182142D01*
X171621428Y-84086904D01*
X171621428Y-83896428D01*
X171669047Y-83801190D01*
X171716666Y-83753571D01*
X171811904Y-83705952D01*
X170859523Y-83753571D02*
X170716666Y-83801190D01*
X170669047Y-83848809D01*
X170621428Y-83944047D01*
X170621428Y-84086904D01*
X170669047Y-84182142D01*
X170716666Y-84229761D01*
X170811904Y-84277380D01*
X171192857Y-84277380D01*
X171192857Y-83277380D01*
X170859523Y-83277380D01*
X170764285Y-83325000D01*
X170716666Y-83372619D01*
X170669047Y-83467857D01*
X170669047Y-83563095D01*
X170716666Y-83658333D01*
X170764285Y-83705952D01*
X170859523Y-83753571D01*
X171192857Y-83753571D01*
X170192857Y-84277380D02*
X170192857Y-83610714D01*
X170192857Y-83277380D02*
X170240476Y-83325000D01*
X170192857Y-83372619D01*
X170145238Y-83325000D01*
X170192857Y-83277380D01*
X170192857Y-83372619D01*
X169859523Y-83610714D02*
X169478571Y-83610714D01*
X169716666Y-83277380D02*
X169716666Y-84134523D01*
X169669047Y-84229761D01*
X169573809Y-84277380D01*
X169478571Y-84277380D01*
X167859523Y-83325000D02*
X167954761Y-83277380D01*
X168097619Y-83277380D01*
X168240476Y-83325000D01*
X168335714Y-83420238D01*
X168383333Y-83515476D01*
X168430952Y-83705952D01*
X168430952Y-83848809D01*
X168383333Y-84039285D01*
X168335714Y-84134523D01*
X168240476Y-84229761D01*
X168097619Y-84277380D01*
X168002380Y-84277380D01*
X167859523Y-84229761D01*
X167811904Y-84182142D01*
X167811904Y-83848809D01*
X168002380Y-83848809D01*
X166954761Y-83610714D02*
X166954761Y-84277380D01*
X167383333Y-83610714D02*
X167383333Y-84134523D01*
X167335714Y-84229761D01*
X167240476Y-84277380D01*
X167097619Y-84277380D01*
X167002380Y-84229761D01*
X166954761Y-84182142D01*
X166573809Y-83610714D02*
X166335714Y-84277380D01*
X166097619Y-83610714D02*
X166335714Y-84277380D01*
X166430952Y-84515476D01*
X166478571Y-84563095D01*
X166573809Y-84610714D01*
X179478571Y-85879761D02*
X179573809Y-85927380D01*
X179764285Y-85927380D01*
X179859523Y-85879761D01*
X179907142Y-85832142D01*
X179954761Y-85736904D01*
X179954761Y-85451190D01*
X179907142Y-85355952D01*
X179859523Y-85308333D01*
X179764285Y-85260714D01*
X179573809Y-85260714D01*
X179478571Y-85308333D01*
X178907142Y-85927380D02*
X179002380Y-85879761D01*
X179050000Y-85832142D01*
X179097619Y-85736904D01*
X179097619Y-85451190D01*
X179050000Y-85355952D01*
X179002380Y-85308333D01*
X178907142Y-85260714D01*
X178764285Y-85260714D01*
X178669047Y-85308333D01*
X178621428Y-85355952D01*
X178573809Y-85451190D01*
X178573809Y-85736904D01*
X178621428Y-85832142D01*
X178669047Y-85879761D01*
X178764285Y-85927380D01*
X178907142Y-85927380D01*
X178145238Y-85927380D02*
X178145238Y-85260714D01*
X178145238Y-85355952D02*
X178097619Y-85308333D01*
X178002380Y-85260714D01*
X177859523Y-85260714D01*
X177764285Y-85308333D01*
X177716666Y-85403571D01*
X177716666Y-85927380D01*
X177716666Y-85403571D02*
X177669047Y-85308333D01*
X177573809Y-85260714D01*
X177430952Y-85260714D01*
X177335714Y-85308333D01*
X177288095Y-85403571D01*
X177288095Y-85927380D01*
X176811904Y-85260714D02*
X176811904Y-86260714D01*
X176811904Y-85308333D02*
X176716666Y-85260714D01*
X176526190Y-85260714D01*
X176430952Y-85308333D01*
X176383333Y-85355952D01*
X176335714Y-85451190D01*
X176335714Y-85736904D01*
X176383333Y-85832142D01*
X176430952Y-85879761D01*
X176526190Y-85927380D01*
X176716666Y-85927380D01*
X176811904Y-85879761D01*
X175478571Y-85260714D02*
X175478571Y-85927380D01*
X175907142Y-85260714D02*
X175907142Y-85784523D01*
X175859523Y-85879761D01*
X175764285Y-85927380D01*
X175621428Y-85927380D01*
X175526190Y-85879761D01*
X175478571Y-85832142D01*
X175145238Y-85260714D02*
X174764285Y-85260714D01*
X175002380Y-84927380D02*
X175002380Y-85784523D01*
X174954761Y-85879761D01*
X174859523Y-85927380D01*
X174764285Y-85927380D01*
X174050000Y-85879761D02*
X174145238Y-85927380D01*
X174335714Y-85927380D01*
X174430952Y-85879761D01*
X174478571Y-85784523D01*
X174478571Y-85403571D01*
X174430952Y-85308333D01*
X174335714Y-85260714D01*
X174145238Y-85260714D01*
X174050000Y-85308333D01*
X174002380Y-85403571D01*
X174002380Y-85498809D01*
X174478571Y-85594047D01*
X173573809Y-85927380D02*
X173573809Y-85260714D01*
X173573809Y-85451190D02*
X173526190Y-85355952D01*
X173478571Y-85308333D01*
X173383333Y-85260714D01*
X173288095Y-85260714D01*
X172907142Y-84927380D02*
X173002380Y-85117857D01*
X172526190Y-85879761D02*
X172430952Y-85927380D01*
X172240476Y-85927380D01*
X172145238Y-85879761D01*
X172097619Y-85784523D01*
X172097619Y-85736904D01*
X172145238Y-85641666D01*
X172240476Y-85594047D01*
X172383333Y-85594047D01*
X172478571Y-85546428D01*
X172526190Y-85451190D01*
X172526190Y-85403571D01*
X172478571Y-85308333D01*
X172383333Y-85260714D01*
X172240476Y-85260714D01*
X172145238Y-85308333D01*
X170907142Y-85260714D02*
X170907142Y-86260714D01*
X170907142Y-85308333D02*
X170811904Y-85260714D01*
X170621428Y-85260714D01*
X170526190Y-85308333D01*
X170478571Y-85355952D01*
X170430952Y-85451190D01*
X170430952Y-85736904D01*
X170478571Y-85832142D01*
X170526190Y-85879761D01*
X170621428Y-85927380D01*
X170811904Y-85927380D01*
X170907142Y-85879761D01*
X170002380Y-85927380D02*
X170002380Y-85260714D01*
X170002380Y-85451190D02*
X169954761Y-85355952D01*
X169907142Y-85308333D01*
X169811904Y-85260714D01*
X169716666Y-85260714D01*
X169240476Y-85927380D02*
X169335714Y-85879761D01*
X169383333Y-85832142D01*
X169430952Y-85736904D01*
X169430952Y-85451190D01*
X169383333Y-85355952D01*
X169335714Y-85308333D01*
X169240476Y-85260714D01*
X169097619Y-85260714D01*
X169002380Y-85308333D01*
X168954761Y-85355952D01*
X168907142Y-85451190D01*
X168907142Y-85736904D01*
X168954761Y-85832142D01*
X169002380Y-85879761D01*
X169097619Y-85927380D01*
X169240476Y-85927380D01*
X168478571Y-85260714D02*
X168478571Y-86117857D01*
X168526190Y-86213095D01*
X168621428Y-86260714D01*
X168669047Y-86260714D01*
X168478571Y-84927380D02*
X168526190Y-84975000D01*
X168478571Y-85022619D01*
X168430952Y-84975000D01*
X168478571Y-84927380D01*
X168478571Y-85022619D01*
X167621428Y-85879761D02*
X167716666Y-85927380D01*
X167907142Y-85927380D01*
X168002380Y-85879761D01*
X168050000Y-85784523D01*
X168050000Y-85403571D01*
X168002380Y-85308333D01*
X167907142Y-85260714D01*
X167716666Y-85260714D01*
X167621428Y-85308333D01*
X167573809Y-85403571D01*
X167573809Y-85498809D01*
X168050000Y-85594047D01*
X166716666Y-85879761D02*
X166811904Y-85927380D01*
X167002380Y-85927380D01*
X167097619Y-85879761D01*
X167145238Y-85832142D01*
X167192857Y-85736904D01*
X167192857Y-85451190D01*
X167145238Y-85355952D01*
X167097619Y-85308333D01*
X167002380Y-85260714D01*
X166811904Y-85260714D01*
X166716666Y-85308333D01*
X166430952Y-85260714D02*
X166050000Y-85260714D01*
X166288095Y-84927380D02*
X166288095Y-85784523D01*
X166240476Y-85879761D01*
X166145238Y-85927380D01*
X166050000Y-85927380D01*
D11*
%TO.C,C5*%
X131761252Y-85665000D02*
X131238748Y-85665000D01*
X131761252Y-87135000D02*
X131238748Y-87135000D01*
%TO.C,C6*%
X131761252Y-87665000D02*
X131238748Y-87665000D01*
X131761252Y-89135000D02*
X131238748Y-89135000D01*
%TO.C,C11*%
X136238748Y-87135000D02*
X136761252Y-87135000D01*
X136238748Y-85665000D02*
X136761252Y-85665000D01*
%TO.C,C12*%
X136238748Y-89135000D02*
X136761252Y-89135000D01*
X136238748Y-87665000D02*
X136761252Y-87665000D01*
%TO.C,C20*%
X143235000Y-94661252D02*
X143235000Y-94138748D01*
X141765000Y-94661252D02*
X141765000Y-94138748D01*
%TO.C,C21*%
X141235000Y-94661252D02*
X141235000Y-94138748D01*
X139765000Y-94661252D02*
X139765000Y-94138748D01*
%TO.C,C22*%
X143235000Y-90661252D02*
X143235000Y-90138748D01*
X141765000Y-90661252D02*
X141765000Y-90138748D01*
%TO.C,C23*%
X141235000Y-90661252D02*
X141235000Y-90138748D01*
X139765000Y-90661252D02*
X139765000Y-90138748D01*
%TO.C,C24*%
X131238748Y-102135000D02*
X131761252Y-102135000D01*
X131238748Y-100665000D02*
X131761252Y-100665000D01*
%TO.C,C25*%
X131238748Y-100135000D02*
X131761252Y-100135000D01*
X131238748Y-98665000D02*
X131761252Y-98665000D01*
%TO.C,C28*%
X136238748Y-102135000D02*
X136761252Y-102135000D01*
X136238748Y-100665000D02*
X136761252Y-100665000D01*
%TO.C,C29*%
X136238748Y-100135000D02*
X136761252Y-100135000D01*
X136238748Y-98665000D02*
X136761252Y-98665000D01*
%TO.C,C31*%
X139238748Y-83135000D02*
X139761252Y-83135000D01*
X139238748Y-81665000D02*
X139761252Y-81665000D01*
%TO.C,C32*%
X139238748Y-85135000D02*
X139761252Y-85135000D01*
X139238748Y-83665000D02*
X139761252Y-83665000D01*
%TO.C,C33*%
X124765000Y-97138748D02*
X124765000Y-97661252D01*
X126235000Y-97138748D02*
X126235000Y-97661252D01*
%TO.C,C34*%
X126765000Y-97138748D02*
X126765000Y-97661252D01*
X128235000Y-97138748D02*
X128235000Y-97661252D01*
%TO.C,R3*%
X175727064Y-110065000D02*
X175272936Y-110065000D01*
X175727064Y-111535000D02*
X175272936Y-111535000D01*
%TO.C,R4*%
X175527064Y-89865000D02*
X175072936Y-89865000D01*
X175527064Y-91335000D02*
X175072936Y-91335000D01*
%TO.C,R5*%
X170272936Y-111535000D02*
X170727064Y-111535000D01*
X170272936Y-110065000D02*
X170727064Y-110065000D01*
%TO.C,R6*%
X185272936Y-111535000D02*
X185727064Y-111535000D01*
X185272936Y-110065000D02*
X185727064Y-110065000D01*
%TO.C,R7*%
X139754724Y-79877500D02*
X139245276Y-79877500D01*
X139754724Y-80922500D02*
X139245276Y-80922500D01*
%TO.C,R8*%
X131245276Y-80922500D02*
X131754724Y-80922500D01*
X131245276Y-79877500D02*
X131754724Y-79877500D01*
%TO.C,R9*%
X183072936Y-94935000D02*
X183527064Y-94935000D01*
X183072936Y-93465000D02*
X183527064Y-93465000D01*
%TO.C,R10*%
X135765000Y-82172936D02*
X135765000Y-82627064D01*
X137235000Y-82172936D02*
X137235000Y-82627064D01*
%TO.C,R11*%
X189727064Y-110065000D02*
X189272936Y-110065000D01*
X189727064Y-111535000D02*
X189272936Y-111535000D01*
%TO.C,R12*%
X185272936Y-97135000D02*
X185727064Y-97135000D01*
X185272936Y-95665000D02*
X185727064Y-95665000D01*
%TO.C,R13*%
X133765000Y-82172936D02*
X133765000Y-82627064D01*
X135235000Y-82172936D02*
X135235000Y-82627064D01*
D12*
%TO.C,LOGO2*%
G36*
X164515637Y-85516870D02*
G01*
X164460671Y-85558699D01*
X164377373Y-85625531D01*
X164270791Y-85713255D01*
X164145970Y-85817758D01*
X164007959Y-85934928D01*
X163995830Y-85945298D01*
X163832432Y-86084813D01*
X163659675Y-86231853D01*
X163487911Y-86377638D01*
X163327491Y-86513392D01*
X163188766Y-86630336D01*
X163117448Y-86690168D01*
X162768600Y-86982036D01*
X162768600Y-87925145D01*
X163003526Y-88126922D01*
X163116623Y-88224298D01*
X163246103Y-88336174D01*
X163385747Y-88457135D01*
X163529332Y-88581766D01*
X163670637Y-88704653D01*
X163803440Y-88820380D01*
X163921519Y-88923532D01*
X164018654Y-89008696D01*
X164088622Y-89070455D01*
X164121150Y-89099642D01*
X164165545Y-89134866D01*
X164189732Y-89143383D01*
X164191210Y-89139902D01*
X164186319Y-89101774D01*
X164172554Y-89024100D01*
X164151684Y-88915317D01*
X164125476Y-88783866D01*
X164095701Y-88638185D01*
X164064126Y-88486714D01*
X164032522Y-88337892D01*
X164002655Y-88200159D01*
X163976296Y-88081954D01*
X163955214Y-87991715D01*
X163941176Y-87937883D01*
X163936909Y-87926610D01*
X163907419Y-87911628D01*
X163838288Y-87883795D01*
X163738066Y-87846338D01*
X163615301Y-87802482D01*
X163527291Y-87772014D01*
X163136900Y-87638507D01*
X163136900Y-87264642D01*
X163556000Y-87146852D01*
X163699200Y-87106728D01*
X163829590Y-87070420D01*
X163937482Y-87040608D01*
X164013189Y-87019974D01*
X164042431Y-87012279D01*
X164080840Y-86996019D01*
X164109763Y-86962212D01*
X164136446Y-86899241D01*
X164159928Y-86823898D01*
X164181983Y-86748967D01*
X164215686Y-86635106D01*
X164258144Y-86492061D01*
X164306462Y-86329577D01*
X164357748Y-86157398D01*
X164379590Y-86084158D01*
X164427043Y-85922982D01*
X164468360Y-85778553D01*
X164501662Y-85657788D01*
X164525068Y-85567602D01*
X164536698Y-85514914D01*
X164537225Y-85504157D01*
X164515637Y-85516870D01*
G37*
X164515637Y-85516870D02*
X164460671Y-85558699D01*
X164377373Y-85625531D01*
X164270791Y-85713255D01*
X164145970Y-85817758D01*
X164007959Y-85934928D01*
X163995830Y-85945298D01*
X163832432Y-86084813D01*
X163659675Y-86231853D01*
X163487911Y-86377638D01*
X163327491Y-86513392D01*
X163188766Y-86630336D01*
X163117448Y-86690168D01*
X162768600Y-86982036D01*
X162768600Y-87925145D01*
X163003526Y-88126922D01*
X163116623Y-88224298D01*
X163246103Y-88336174D01*
X163385747Y-88457135D01*
X163529332Y-88581766D01*
X163670637Y-88704653D01*
X163803440Y-88820380D01*
X163921519Y-88923532D01*
X164018654Y-89008696D01*
X164088622Y-89070455D01*
X164121150Y-89099642D01*
X164165545Y-89134866D01*
X164189732Y-89143383D01*
X164191210Y-89139902D01*
X164186319Y-89101774D01*
X164172554Y-89024100D01*
X164151684Y-88915317D01*
X164125476Y-88783866D01*
X164095701Y-88638185D01*
X164064126Y-88486714D01*
X164032522Y-88337892D01*
X164002655Y-88200159D01*
X163976296Y-88081954D01*
X163955214Y-87991715D01*
X163941176Y-87937883D01*
X163936909Y-87926610D01*
X163907419Y-87911628D01*
X163838288Y-87883795D01*
X163738066Y-87846338D01*
X163615301Y-87802482D01*
X163527291Y-87772014D01*
X163136900Y-87638507D01*
X163136900Y-87264642D01*
X163556000Y-87146852D01*
X163699200Y-87106728D01*
X163829590Y-87070420D01*
X163937482Y-87040608D01*
X164013189Y-87019974D01*
X164042431Y-87012279D01*
X164080840Y-86996019D01*
X164109763Y-86962212D01*
X164136446Y-86899241D01*
X164159928Y-86823898D01*
X164181983Y-86748967D01*
X164215686Y-86635106D01*
X164258144Y-86492061D01*
X164306462Y-86329577D01*
X164357748Y-86157398D01*
X164379590Y-86084158D01*
X164427043Y-85922982D01*
X164468360Y-85778553D01*
X164501662Y-85657788D01*
X164525068Y-85567602D01*
X164536698Y-85514914D01*
X164537225Y-85504157D01*
X164515637Y-85516870D01*
G36*
X160596344Y-85505961D02*
G01*
X160613810Y-85570661D01*
X160641523Y-85665683D01*
X160676903Y-85781984D01*
X160687441Y-85815879D01*
X160732733Y-85963450D01*
X160785814Y-86140405D01*
X160840882Y-86327178D01*
X160892135Y-86504205D01*
X160905391Y-86550700D01*
X160944941Y-86687377D01*
X160980928Y-86806878D01*
X161010661Y-86900631D01*
X161031446Y-86960068D01*
X161039286Y-86976728D01*
X161068447Y-86989348D01*
X161138819Y-87012963D01*
X161242611Y-87045166D01*
X161372035Y-87083547D01*
X161519300Y-87125697D01*
X161538549Y-87131104D01*
X162019300Y-87265852D01*
X162019300Y-87638465D01*
X161615776Y-87773273D01*
X161481748Y-87818321D01*
X161365720Y-87857839D01*
X161275765Y-87889033D01*
X161219953Y-87909115D01*
X161205367Y-87915190D01*
X161198519Y-87940782D01*
X161183504Y-88007578D01*
X161161989Y-88107447D01*
X161135642Y-88232263D01*
X161106131Y-88373895D01*
X161075124Y-88524216D01*
X161044288Y-88675095D01*
X161015290Y-88818405D01*
X160989799Y-88946016D01*
X160969482Y-89049800D01*
X160956006Y-89121627D01*
X160951039Y-89153370D01*
X160951184Y-89154200D01*
X160970949Y-89138201D01*
X161024887Y-89092638D01*
X161108734Y-89021163D01*
X161218227Y-88927425D01*
X161349102Y-88815077D01*
X161497094Y-88687768D01*
X161657940Y-88549150D01*
X161670576Y-88538250D01*
X162384579Y-87922300D01*
X162384591Y-87452400D01*
X162384604Y-86982500D01*
X162077966Y-86728500D01*
X161976094Y-86643593D01*
X161844226Y-86532893D01*
X161690948Y-86403651D01*
X161524848Y-86263121D01*
X161354511Y-86118555D01*
X161188523Y-85977205D01*
X161184936Y-85974145D01*
X161038621Y-85849698D01*
X160905197Y-85736985D01*
X160789416Y-85639957D01*
X160696029Y-85562569D01*
X160629790Y-85508774D01*
X160595449Y-85482525D01*
X160591709Y-85480624D01*
X160596344Y-85505961D01*
G37*
X160596344Y-85505961D02*
X160613810Y-85570661D01*
X160641523Y-85665683D01*
X160676903Y-85781984D01*
X160687441Y-85815879D01*
X160732733Y-85963450D01*
X160785814Y-86140405D01*
X160840882Y-86327178D01*
X160892135Y-86504205D01*
X160905391Y-86550700D01*
X160944941Y-86687377D01*
X160980928Y-86806878D01*
X161010661Y-86900631D01*
X161031446Y-86960068D01*
X161039286Y-86976728D01*
X161068447Y-86989348D01*
X161138819Y-87012963D01*
X161242611Y-87045166D01*
X161372035Y-87083547D01*
X161519300Y-87125697D01*
X161538549Y-87131104D01*
X162019300Y-87265852D01*
X162019300Y-87638465D01*
X161615776Y-87773273D01*
X161481748Y-87818321D01*
X161365720Y-87857839D01*
X161275765Y-87889033D01*
X161219953Y-87909115D01*
X161205367Y-87915190D01*
X161198519Y-87940782D01*
X161183504Y-88007578D01*
X161161989Y-88107447D01*
X161135642Y-88232263D01*
X161106131Y-88373895D01*
X161075124Y-88524216D01*
X161044288Y-88675095D01*
X161015290Y-88818405D01*
X160989799Y-88946016D01*
X160969482Y-89049800D01*
X160956006Y-89121627D01*
X160951039Y-89153370D01*
X160951184Y-89154200D01*
X160970949Y-89138201D01*
X161024887Y-89092638D01*
X161108734Y-89021163D01*
X161218227Y-88927425D01*
X161349102Y-88815077D01*
X161497094Y-88687768D01*
X161657940Y-88549150D01*
X161670576Y-88538250D01*
X162384579Y-87922300D01*
X162384591Y-87452400D01*
X162384604Y-86982500D01*
X162077966Y-86728500D01*
X161976094Y-86643593D01*
X161844226Y-86532893D01*
X161690948Y-86403651D01*
X161524848Y-86263121D01*
X161354511Y-86118555D01*
X161188523Y-85977205D01*
X161184936Y-85974145D01*
X161038621Y-85849698D01*
X160905197Y-85736985D01*
X160789416Y-85639957D01*
X160696029Y-85562569D01*
X160629790Y-85508774D01*
X160595449Y-85482525D01*
X160591709Y-85480624D01*
X160596344Y-85505961D01*
G36*
X186538549Y-86386244D02*
G01*
X186439305Y-86389586D01*
X186380975Y-86395359D01*
X186377262Y-86396190D01*
X186343762Y-86407205D01*
X186324939Y-86427107D01*
X186317359Y-86467792D01*
X186317593Y-86541155D01*
X186319653Y-86595909D01*
X186327100Y-86779300D01*
X187761140Y-86804700D01*
X187831520Y-86875114D01*
X187860693Y-86906435D01*
X187880765Y-86938308D01*
X187893792Y-86980874D01*
X187901834Y-87044275D01*
X187906947Y-87138654D01*
X187910981Y-87266770D01*
X187912659Y-87447740D01*
X187905213Y-87585987D01*
X187887295Y-87688990D01*
X187857553Y-87764227D01*
X187814639Y-87819179D01*
X187810605Y-87822914D01*
X187791488Y-87837275D01*
X187765455Y-87848717D01*
X187726577Y-87857714D01*
X187668923Y-87864739D01*
X187586563Y-87870264D01*
X187473566Y-87874763D01*
X187324002Y-87878708D01*
X187131940Y-87882573D01*
X187042036Y-87884200D01*
X186327100Y-87896900D01*
X186319638Y-88081050D01*
X186312175Y-88265200D01*
X187081638Y-88263016D01*
X187277263Y-88261842D01*
X187458792Y-88259577D01*
X187619345Y-88256397D01*
X187752045Y-88252481D01*
X187850013Y-88248007D01*
X187906370Y-88243153D01*
X187914765Y-88241467D01*
X188072270Y-88170970D01*
X188192043Y-88067482D01*
X188272513Y-87932538D01*
X188292965Y-87871500D01*
X188306194Y-87792949D01*
X188315409Y-87676676D01*
X188320736Y-87533933D01*
X188322299Y-87375978D01*
X188320227Y-87214066D01*
X188314644Y-87059452D01*
X188305678Y-86923391D01*
X188293454Y-86817139D01*
X188280482Y-86758333D01*
X188215324Y-86637774D01*
X188113233Y-86531941D01*
X187988057Y-86454139D01*
X187946985Y-86437880D01*
X187897170Y-86429080D01*
X187804893Y-86420497D01*
X187678491Y-86412353D01*
X187526302Y-86404870D01*
X187356664Y-86398269D01*
X187177914Y-86392771D01*
X186998390Y-86388598D01*
X186826429Y-86385972D01*
X186670370Y-86385114D01*
X186538549Y-86386244D01*
G37*
X186538549Y-86386244D02*
X186439305Y-86389586D01*
X186380975Y-86395359D01*
X186377262Y-86396190D01*
X186343762Y-86407205D01*
X186324939Y-86427107D01*
X186317359Y-86467792D01*
X186317593Y-86541155D01*
X186319653Y-86595909D01*
X186327100Y-86779300D01*
X187761140Y-86804700D01*
X187831520Y-86875114D01*
X187860693Y-86906435D01*
X187880765Y-86938308D01*
X187893792Y-86980874D01*
X187901834Y-87044275D01*
X187906947Y-87138654D01*
X187910981Y-87266770D01*
X187912659Y-87447740D01*
X187905213Y-87585987D01*
X187887295Y-87688990D01*
X187857553Y-87764227D01*
X187814639Y-87819179D01*
X187810605Y-87822914D01*
X187791488Y-87837275D01*
X187765455Y-87848717D01*
X187726577Y-87857714D01*
X187668923Y-87864739D01*
X187586563Y-87870264D01*
X187473566Y-87874763D01*
X187324002Y-87878708D01*
X187131940Y-87882573D01*
X187042036Y-87884200D01*
X186327100Y-87896900D01*
X186319638Y-88081050D01*
X186312175Y-88265200D01*
X187081638Y-88263016D01*
X187277263Y-88261842D01*
X187458792Y-88259577D01*
X187619345Y-88256397D01*
X187752045Y-88252481D01*
X187850013Y-88248007D01*
X187906370Y-88243153D01*
X187914765Y-88241467D01*
X188072270Y-88170970D01*
X188192043Y-88067482D01*
X188272513Y-87932538D01*
X188292965Y-87871500D01*
X188306194Y-87792949D01*
X188315409Y-87676676D01*
X188320736Y-87533933D01*
X188322299Y-87375978D01*
X188320227Y-87214066D01*
X188314644Y-87059452D01*
X188305678Y-86923391D01*
X188293454Y-86817139D01*
X188280482Y-86758333D01*
X188215324Y-86637774D01*
X188113233Y-86531941D01*
X187988057Y-86454139D01*
X187946985Y-86437880D01*
X187897170Y-86429080D01*
X187804893Y-86420497D01*
X187678491Y-86412353D01*
X187526302Y-86404870D01*
X187356664Y-86398269D01*
X187177914Y-86392771D01*
X186998390Y-86388598D01*
X186826429Y-86385972D01*
X186670370Y-86385114D01*
X186538549Y-86386244D01*
G36*
X184667785Y-86391408D02*
G01*
X184515817Y-86394822D01*
X184390056Y-86401220D01*
X184323632Y-86407472D01*
X184155026Y-86436203D01*
X184027066Y-86478610D01*
X183930248Y-86540260D01*
X183855069Y-86626716D01*
X183808035Y-86709416D01*
X183783149Y-86761449D01*
X183764808Y-86807356D01*
X183752013Y-86855914D01*
X183743766Y-86915899D01*
X183739069Y-86996087D01*
X183736922Y-87105254D01*
X183736328Y-87252178D01*
X183736300Y-87339895D01*
X183736300Y-87824291D01*
X183812569Y-87973423D01*
X183865585Y-88065546D01*
X183919800Y-88126940D01*
X183991902Y-88175260D01*
X184014993Y-88187527D01*
X184052936Y-88206560D01*
X184088553Y-88221496D01*
X184128369Y-88232876D01*
X184178911Y-88241242D01*
X184246705Y-88247132D01*
X184338277Y-88251090D01*
X184460154Y-88253654D01*
X184618862Y-88255366D01*
X184820926Y-88256767D01*
X184853124Y-88256969D01*
X185042606Y-88257426D01*
X185219116Y-88256466D01*
X185375195Y-88254239D01*
X185503385Y-88250894D01*
X185596230Y-88246581D01*
X185646272Y-88241448D01*
X185648016Y-88241052D01*
X185788018Y-88182029D01*
X185907435Y-88084127D01*
X185987473Y-87968425D01*
X186008053Y-87924129D01*
X186023325Y-87881175D01*
X186034080Y-87831307D01*
X186041105Y-87766269D01*
X186045188Y-87677806D01*
X186047117Y-87557660D01*
X186047680Y-87397575D01*
X186047694Y-87353948D01*
X185628600Y-87353948D01*
X185628600Y-87735707D01*
X185554354Y-87809953D01*
X185480108Y-87884200D01*
X184921008Y-87884200D01*
X184753799Y-87883121D01*
X184600608Y-87880104D01*
X184469827Y-87875475D01*
X184369851Y-87869564D01*
X184309074Y-87862695D01*
X184297971Y-87859891D01*
X184245788Y-87832143D01*
X184207474Y-87789684D01*
X184181343Y-87725621D01*
X184165710Y-87633061D01*
X184158890Y-87505111D01*
X184159195Y-87334877D01*
X184159955Y-87295528D01*
X184168100Y-86914479D01*
X184239367Y-86853239D01*
X184263637Y-86833441D01*
X184288912Y-86818448D01*
X184322175Y-86807592D01*
X184370408Y-86800207D01*
X184440595Y-86795623D01*
X184539720Y-86793172D01*
X184674765Y-86792187D01*
X184852714Y-86792000D01*
X184879522Y-86792000D01*
X185091247Y-86793348D01*
X185263787Y-86797301D01*
X185394037Y-86803719D01*
X185478891Y-86812464D01*
X185510304Y-86820200D01*
X185552583Y-86846030D01*
X185583671Y-86884271D01*
X185605190Y-86942231D01*
X185618757Y-87027217D01*
X185625993Y-87146534D01*
X185628516Y-87307489D01*
X185628600Y-87353948D01*
X186047694Y-87353948D01*
X186047700Y-87337473D01*
X186047473Y-87163912D01*
X186046227Y-87032894D01*
X186043118Y-86936165D01*
X186037300Y-86865470D01*
X186027928Y-86812551D01*
X186014158Y-86769155D01*
X185995143Y-86727025D01*
X185982695Y-86702473D01*
X185888561Y-86570425D01*
X185761136Y-86476537D01*
X185656988Y-86434597D01*
X185591027Y-86422609D01*
X185483909Y-86412235D01*
X185345258Y-86403668D01*
X185184696Y-86397107D01*
X185011848Y-86392746D01*
X184836336Y-86390781D01*
X184667785Y-86391408D01*
G37*
X184667785Y-86391408D02*
X184515817Y-86394822D01*
X184390056Y-86401220D01*
X184323632Y-86407472D01*
X184155026Y-86436203D01*
X184027066Y-86478610D01*
X183930248Y-86540260D01*
X183855069Y-86626716D01*
X183808035Y-86709416D01*
X183783149Y-86761449D01*
X183764808Y-86807356D01*
X183752013Y-86855914D01*
X183743766Y-86915899D01*
X183739069Y-86996087D01*
X183736922Y-87105254D01*
X183736328Y-87252178D01*
X183736300Y-87339895D01*
X183736300Y-87824291D01*
X183812569Y-87973423D01*
X183865585Y-88065546D01*
X183919800Y-88126940D01*
X183991902Y-88175260D01*
X184014993Y-88187527D01*
X184052936Y-88206560D01*
X184088553Y-88221496D01*
X184128369Y-88232876D01*
X184178911Y-88241242D01*
X184246705Y-88247132D01*
X184338277Y-88251090D01*
X184460154Y-88253654D01*
X184618862Y-88255366D01*
X184820926Y-88256767D01*
X184853124Y-88256969D01*
X185042606Y-88257426D01*
X185219116Y-88256466D01*
X185375195Y-88254239D01*
X185503385Y-88250894D01*
X185596230Y-88246581D01*
X185646272Y-88241448D01*
X185648016Y-88241052D01*
X185788018Y-88182029D01*
X185907435Y-88084127D01*
X185987473Y-87968425D01*
X186008053Y-87924129D01*
X186023325Y-87881175D01*
X186034080Y-87831307D01*
X186041105Y-87766269D01*
X186045188Y-87677806D01*
X186047117Y-87557660D01*
X186047680Y-87397575D01*
X186047694Y-87353948D01*
X185628600Y-87353948D01*
X185628600Y-87735707D01*
X185554354Y-87809953D01*
X185480108Y-87884200D01*
X184921008Y-87884200D01*
X184753799Y-87883121D01*
X184600608Y-87880104D01*
X184469827Y-87875475D01*
X184369851Y-87869564D01*
X184309074Y-87862695D01*
X184297971Y-87859891D01*
X184245788Y-87832143D01*
X184207474Y-87789684D01*
X184181343Y-87725621D01*
X184165710Y-87633061D01*
X184158890Y-87505111D01*
X184159195Y-87334877D01*
X184159955Y-87295528D01*
X184168100Y-86914479D01*
X184239367Y-86853239D01*
X184263637Y-86833441D01*
X184288912Y-86818448D01*
X184322175Y-86807592D01*
X184370408Y-86800207D01*
X184440595Y-86795623D01*
X184539720Y-86793172D01*
X184674765Y-86792187D01*
X184852714Y-86792000D01*
X184879522Y-86792000D01*
X185091247Y-86793348D01*
X185263787Y-86797301D01*
X185394037Y-86803719D01*
X185478891Y-86812464D01*
X185510304Y-86820200D01*
X185552583Y-86846030D01*
X185583671Y-86884271D01*
X185605190Y-86942231D01*
X185618757Y-87027217D01*
X185625993Y-87146534D01*
X185628516Y-87307489D01*
X185628600Y-87353948D01*
X186047694Y-87353948D01*
X186047700Y-87337473D01*
X186047473Y-87163912D01*
X186046227Y-87032894D01*
X186043118Y-86936165D01*
X186037300Y-86865470D01*
X186027928Y-86812551D01*
X186014158Y-86769155D01*
X185995143Y-86727025D01*
X185982695Y-86702473D01*
X185888561Y-86570425D01*
X185761136Y-86476537D01*
X185656988Y-86434597D01*
X185591027Y-86422609D01*
X185483909Y-86412235D01*
X185345258Y-86403668D01*
X185184696Y-86397107D01*
X185011848Y-86392746D01*
X184836336Y-86390781D01*
X184667785Y-86391408D01*
G36*
X182928876Y-86393854D02*
G01*
X182817386Y-86407280D01*
X182731622Y-86428240D01*
X182701448Y-86442474D01*
X182675528Y-86470515D01*
X182639359Y-86528853D01*
X182591350Y-86620721D01*
X182529913Y-86749355D01*
X182453459Y-86917989D01*
X182360400Y-87129860D01*
X182334447Y-87189748D01*
X182251321Y-87379502D01*
X182175645Y-87547391D01*
X182109744Y-87688560D01*
X182055945Y-87798157D01*
X182016574Y-87871328D01*
X181993959Y-87903219D01*
X181992019Y-87904173D01*
X181973080Y-87889408D01*
X181941123Y-87838566D01*
X181895068Y-87749432D01*
X181833833Y-87619793D01*
X181756335Y-87447436D01*
X181661493Y-87230150D01*
X181653671Y-87212028D01*
X181573697Y-87029272D01*
X181498077Y-86861478D01*
X181429726Y-86714754D01*
X181371561Y-86595209D01*
X181326499Y-86508951D01*
X181297458Y-86462090D01*
X181293451Y-86457619D01*
X181250294Y-86427089D01*
X181191028Y-86407659D01*
X181101966Y-86395779D01*
X181037808Y-86391318D01*
X180859250Y-86390834D01*
X180726032Y-86412442D01*
X180638324Y-86456098D01*
X180603539Y-86500959D01*
X180594342Y-86542316D01*
X180586948Y-86623401D01*
X180581288Y-86746382D01*
X180577291Y-86913427D01*
X180574887Y-87126703D01*
X180574007Y-87388380D01*
X180574000Y-87416563D01*
X180574000Y-88267336D01*
X180967700Y-88252500D01*
X180974443Y-87520264D01*
X180977118Y-87293218D01*
X180980620Y-87113515D01*
X180985121Y-86977701D01*
X180990794Y-86882321D01*
X180997811Y-86823923D01*
X181006344Y-86799053D01*
X181010526Y-86797808D01*
X181028252Y-86822709D01*
X181063463Y-86888026D01*
X181113193Y-86987671D01*
X181174474Y-87115557D01*
X181244341Y-87265599D01*
X181319828Y-87431710D01*
X181324062Y-87441144D01*
X181429266Y-87672040D01*
X181517485Y-87857609D01*
X181589817Y-87999994D01*
X181647357Y-88101341D01*
X181691204Y-88163796D01*
X181696674Y-88169950D01*
X181742003Y-88216871D01*
X181780406Y-88245118D01*
X181826575Y-88259429D01*
X181895203Y-88264543D01*
X181991944Y-88265200D01*
X182071796Y-88264425D01*
X182138154Y-88259072D01*
X182194780Y-88244592D01*
X182245432Y-88216439D01*
X182293872Y-88170065D01*
X182343858Y-88100924D01*
X182399152Y-88004469D01*
X182463513Y-87876153D01*
X182540702Y-87711428D01*
X182634478Y-87505747D01*
X182652116Y-87466876D01*
X182730160Y-87296809D01*
X182802749Y-87142321D01*
X182866948Y-87009367D01*
X182919823Y-86903899D01*
X182958443Y-86831871D01*
X182979872Y-86799238D01*
X182981670Y-86798010D01*
X182990976Y-86806612D01*
X182998354Y-86842038D01*
X183003979Y-86908385D01*
X183008021Y-87009753D01*
X183010655Y-87150242D01*
X183012054Y-87333950D01*
X183012400Y-87526483D01*
X183012400Y-88265200D01*
X183198667Y-88265200D01*
X183291581Y-88263039D01*
X183363567Y-88257344D01*
X183400506Y-88249289D01*
X183401867Y-88248266D01*
X183407737Y-88217589D01*
X183412380Y-88143416D01*
X183415840Y-88033033D01*
X183418163Y-87893728D01*
X183419395Y-87732788D01*
X183419582Y-87557501D01*
X183418768Y-87375154D01*
X183417000Y-87193034D01*
X183414324Y-87018429D01*
X183410784Y-86858626D01*
X183406426Y-86720912D01*
X183401297Y-86612575D01*
X183395441Y-86540902D01*
X183391035Y-86516732D01*
X183360231Y-86459408D01*
X183307078Y-86424539D01*
X183257685Y-86408546D01*
X183165027Y-86393511D01*
X183050090Y-86388939D01*
X182928876Y-86393854D01*
G37*
X182928876Y-86393854D02*
X182817386Y-86407280D01*
X182731622Y-86428240D01*
X182701448Y-86442474D01*
X182675528Y-86470515D01*
X182639359Y-86528853D01*
X182591350Y-86620721D01*
X182529913Y-86749355D01*
X182453459Y-86917989D01*
X182360400Y-87129860D01*
X182334447Y-87189748D01*
X182251321Y-87379502D01*
X182175645Y-87547391D01*
X182109744Y-87688560D01*
X182055945Y-87798157D01*
X182016574Y-87871328D01*
X181993959Y-87903219D01*
X181992019Y-87904173D01*
X181973080Y-87889408D01*
X181941123Y-87838566D01*
X181895068Y-87749432D01*
X181833833Y-87619793D01*
X181756335Y-87447436D01*
X181661493Y-87230150D01*
X181653671Y-87212028D01*
X181573697Y-87029272D01*
X181498077Y-86861478D01*
X181429726Y-86714754D01*
X181371561Y-86595209D01*
X181326499Y-86508951D01*
X181297458Y-86462090D01*
X181293451Y-86457619D01*
X181250294Y-86427089D01*
X181191028Y-86407659D01*
X181101966Y-86395779D01*
X181037808Y-86391318D01*
X180859250Y-86390834D01*
X180726032Y-86412442D01*
X180638324Y-86456098D01*
X180603539Y-86500959D01*
X180594342Y-86542316D01*
X180586948Y-86623401D01*
X180581288Y-86746382D01*
X180577291Y-86913427D01*
X180574887Y-87126703D01*
X180574007Y-87388380D01*
X180574000Y-87416563D01*
X180574000Y-88267336D01*
X180967700Y-88252500D01*
X180974443Y-87520264D01*
X180977118Y-87293218D01*
X180980620Y-87113515D01*
X180985121Y-86977701D01*
X180990794Y-86882321D01*
X180997811Y-86823923D01*
X181006344Y-86799053D01*
X181010526Y-86797808D01*
X181028252Y-86822709D01*
X181063463Y-86888026D01*
X181113193Y-86987671D01*
X181174474Y-87115557D01*
X181244341Y-87265599D01*
X181319828Y-87431710D01*
X181324062Y-87441144D01*
X181429266Y-87672040D01*
X181517485Y-87857609D01*
X181589817Y-87999994D01*
X181647357Y-88101341D01*
X181691204Y-88163796D01*
X181696674Y-88169950D01*
X181742003Y-88216871D01*
X181780406Y-88245118D01*
X181826575Y-88259429D01*
X181895203Y-88264543D01*
X181991944Y-88265200D01*
X182071796Y-88264425D01*
X182138154Y-88259072D01*
X182194780Y-88244592D01*
X182245432Y-88216439D01*
X182293872Y-88170065D01*
X182343858Y-88100924D01*
X182399152Y-88004469D01*
X182463513Y-87876153D01*
X182540702Y-87711428D01*
X182634478Y-87505747D01*
X182652116Y-87466876D01*
X182730160Y-87296809D01*
X182802749Y-87142321D01*
X182866948Y-87009367D01*
X182919823Y-86903899D01*
X182958443Y-86831871D01*
X182979872Y-86799238D01*
X182981670Y-86798010D01*
X182990976Y-86806612D01*
X182998354Y-86842038D01*
X183003979Y-86908385D01*
X183008021Y-87009753D01*
X183010655Y-87150242D01*
X183012054Y-87333950D01*
X183012400Y-87526483D01*
X183012400Y-88265200D01*
X183198667Y-88265200D01*
X183291581Y-88263039D01*
X183363567Y-88257344D01*
X183400506Y-88249289D01*
X183401867Y-88248266D01*
X183407737Y-88217589D01*
X183412380Y-88143416D01*
X183415840Y-88033033D01*
X183418163Y-87893728D01*
X183419395Y-87732788D01*
X183419582Y-87557501D01*
X183418768Y-87375154D01*
X183417000Y-87193034D01*
X183414324Y-87018429D01*
X183410784Y-86858626D01*
X183406426Y-86720912D01*
X183401297Y-86612575D01*
X183395441Y-86540902D01*
X183391035Y-86516732D01*
X183360231Y-86459408D01*
X183307078Y-86424539D01*
X183257685Y-86408546D01*
X183165027Y-86393511D01*
X183050090Y-86388939D01*
X182928876Y-86393854D01*
G36*
X179884907Y-86398047D02*
G01*
X179839314Y-86398300D01*
X179712192Y-86399574D01*
X179625320Y-86404401D01*
X179568186Y-86414288D01*
X179530281Y-86430742D01*
X179511358Y-86445326D01*
X179495537Y-86462982D01*
X179476089Y-86492129D01*
X179451162Y-86536745D01*
X179418904Y-86600809D01*
X179377463Y-86688301D01*
X179324989Y-86803200D01*
X179259629Y-86949484D01*
X179179531Y-87131133D01*
X179082845Y-87352127D01*
X178986596Y-87573050D01*
X178932452Y-87692659D01*
X178882781Y-87793541D01*
X178841982Y-87867398D01*
X178814454Y-87905934D01*
X178808145Y-87909600D01*
X178785166Y-87887722D01*
X178748810Y-87828739D01*
X178704783Y-87742628D01*
X178673801Y-87674650D01*
X178556263Y-87405120D01*
X178457041Y-87178467D01*
X178374387Y-86990894D01*
X178306556Y-86838608D01*
X178251798Y-86717814D01*
X178208368Y-86624717D01*
X178174517Y-86555523D01*
X178148498Y-86506437D01*
X178128565Y-86473664D01*
X178112970Y-86453411D01*
X178110065Y-86450375D01*
X178081647Y-86427225D01*
X178044768Y-86412096D01*
X177988860Y-86403333D01*
X177903353Y-86399285D01*
X177777678Y-86398300D01*
X177777051Y-86398300D01*
X177681474Y-86397273D01*
X177603435Y-86397292D01*
X177541167Y-86403004D01*
X177492903Y-86419057D01*
X177456876Y-86450098D01*
X177431320Y-86500775D01*
X177414468Y-86575735D01*
X177404554Y-86679626D01*
X177399809Y-86817095D01*
X177398469Y-86992791D01*
X177398765Y-87211360D01*
X177399000Y-87392782D01*
X177399000Y-88267336D01*
X177792700Y-88252500D01*
X177799443Y-87520264D01*
X177802576Y-87276961D01*
X177807030Y-87082958D01*
X177812791Y-86938588D01*
X177819844Y-86844188D01*
X177828173Y-86800093D01*
X177832180Y-86796693D01*
X177848942Y-86821241D01*
X177883404Y-86886284D01*
X177932685Y-86985870D01*
X177993907Y-87114047D01*
X178064190Y-87264865D01*
X178140656Y-87432371D01*
X178153916Y-87461754D01*
X178253518Y-87679384D01*
X178340852Y-87863167D01*
X178414364Y-88010033D01*
X178472503Y-88116912D01*
X178513715Y-88180736D01*
X178523183Y-88191675D01*
X178562285Y-88227532D01*
X178600671Y-88249332D01*
X178652101Y-88260554D01*
X178730333Y-88264675D01*
X178814005Y-88265200D01*
X178920063Y-88264353D01*
X178989142Y-88259193D01*
X179035062Y-88245788D01*
X179071642Y-88220209D01*
X179110501Y-88180867D01*
X179149291Y-88125983D01*
X179205074Y-88026764D01*
X179276344Y-87886187D01*
X179361596Y-87707228D01*
X179459326Y-87492864D01*
X179466860Y-87476017D01*
X179555259Y-87278476D01*
X179625563Y-87122704D01*
X179680214Y-87004001D01*
X179721653Y-86917673D01*
X179752321Y-86859022D01*
X179774660Y-86823352D01*
X179791110Y-86805966D01*
X179804113Y-86802167D01*
X179814878Y-86806478D01*
X179820678Y-86834502D01*
X179825925Y-86906783D01*
X179830418Y-87016781D01*
X179833957Y-87157955D01*
X179836342Y-87323763D01*
X179837374Y-87507664D01*
X179837400Y-87542799D01*
X179837400Y-88265200D01*
X180028698Y-88265200D01*
X180138278Y-88261967D01*
X180203967Y-88251535D01*
X180232302Y-88232802D01*
X180233202Y-88230782D01*
X180236147Y-88197891D01*
X180238407Y-88120440D01*
X180239942Y-88004663D01*
X180240713Y-87856794D01*
X180240682Y-87683069D01*
X180239807Y-87489722D01*
X180238755Y-87355153D01*
X180236890Y-87109111D01*
X180234900Y-86909095D01*
X180230807Y-86750366D01*
X180222632Y-86628183D01*
X180208397Y-86537806D01*
X180186123Y-86474496D01*
X180153830Y-86433513D01*
X180109541Y-86410116D01*
X180051277Y-86399566D01*
X179977059Y-86397123D01*
X179884907Y-86398047D01*
G37*
X179884907Y-86398047D02*
X179839314Y-86398300D01*
X179712192Y-86399574D01*
X179625320Y-86404401D01*
X179568186Y-86414288D01*
X179530281Y-86430742D01*
X179511358Y-86445326D01*
X179495537Y-86462982D01*
X179476089Y-86492129D01*
X179451162Y-86536745D01*
X179418904Y-86600809D01*
X179377463Y-86688301D01*
X179324989Y-86803200D01*
X179259629Y-86949484D01*
X179179531Y-87131133D01*
X179082845Y-87352127D01*
X178986596Y-87573050D01*
X178932452Y-87692659D01*
X178882781Y-87793541D01*
X178841982Y-87867398D01*
X178814454Y-87905934D01*
X178808145Y-87909600D01*
X178785166Y-87887722D01*
X178748810Y-87828739D01*
X178704783Y-87742628D01*
X178673801Y-87674650D01*
X178556263Y-87405120D01*
X178457041Y-87178467D01*
X178374387Y-86990894D01*
X178306556Y-86838608D01*
X178251798Y-86717814D01*
X178208368Y-86624717D01*
X178174517Y-86555523D01*
X178148498Y-86506437D01*
X178128565Y-86473664D01*
X178112970Y-86453411D01*
X178110065Y-86450375D01*
X178081647Y-86427225D01*
X178044768Y-86412096D01*
X177988860Y-86403333D01*
X177903353Y-86399285D01*
X177777678Y-86398300D01*
X177777051Y-86398300D01*
X177681474Y-86397273D01*
X177603435Y-86397292D01*
X177541167Y-86403004D01*
X177492903Y-86419057D01*
X177456876Y-86450098D01*
X177431320Y-86500775D01*
X177414468Y-86575735D01*
X177404554Y-86679626D01*
X177399809Y-86817095D01*
X177398469Y-86992791D01*
X177398765Y-87211360D01*
X177399000Y-87392782D01*
X177399000Y-88267336D01*
X177792700Y-88252500D01*
X177799443Y-87520264D01*
X177802576Y-87276961D01*
X177807030Y-87082958D01*
X177812791Y-86938588D01*
X177819844Y-86844188D01*
X177828173Y-86800093D01*
X177832180Y-86796693D01*
X177848942Y-86821241D01*
X177883404Y-86886284D01*
X177932685Y-86985870D01*
X177993907Y-87114047D01*
X178064190Y-87264865D01*
X178140656Y-87432371D01*
X178153916Y-87461754D01*
X178253518Y-87679384D01*
X178340852Y-87863167D01*
X178414364Y-88010033D01*
X178472503Y-88116912D01*
X178513715Y-88180736D01*
X178523183Y-88191675D01*
X178562285Y-88227532D01*
X178600671Y-88249332D01*
X178652101Y-88260554D01*
X178730333Y-88264675D01*
X178814005Y-88265200D01*
X178920063Y-88264353D01*
X178989142Y-88259193D01*
X179035062Y-88245788D01*
X179071642Y-88220209D01*
X179110501Y-88180867D01*
X179149291Y-88125983D01*
X179205074Y-88026764D01*
X179276344Y-87886187D01*
X179361596Y-87707228D01*
X179459326Y-87492864D01*
X179466860Y-87476017D01*
X179555259Y-87278476D01*
X179625563Y-87122704D01*
X179680214Y-87004001D01*
X179721653Y-86917673D01*
X179752321Y-86859022D01*
X179774660Y-86823352D01*
X179791110Y-86805966D01*
X179804113Y-86802167D01*
X179814878Y-86806478D01*
X179820678Y-86834502D01*
X179825925Y-86906783D01*
X179830418Y-87016781D01*
X179833957Y-87157955D01*
X179836342Y-87323763D01*
X179837374Y-87507664D01*
X179837400Y-87542799D01*
X179837400Y-88265200D01*
X180028698Y-88265200D01*
X180138278Y-88261967D01*
X180203967Y-88251535D01*
X180232302Y-88232802D01*
X180233202Y-88230782D01*
X180236147Y-88197891D01*
X180238407Y-88120440D01*
X180239942Y-88004663D01*
X180240713Y-87856794D01*
X180240682Y-87683069D01*
X180239807Y-87489722D01*
X180238755Y-87355153D01*
X180236890Y-87109111D01*
X180234900Y-86909095D01*
X180230807Y-86750366D01*
X180222632Y-86628183D01*
X180208397Y-86537806D01*
X180186123Y-86474496D01*
X180153830Y-86433513D01*
X180109541Y-86410116D01*
X180051277Y-86399566D01*
X179977059Y-86397123D01*
X179884907Y-86398047D01*
G36*
X175881492Y-86390648D02*
G01*
X175761364Y-86418308D01*
X175662331Y-86472983D01*
X175637050Y-86496741D01*
X175612512Y-86531903D01*
X175567712Y-86604455D01*
X175505981Y-86708457D01*
X175430652Y-86837968D01*
X175345055Y-86987046D01*
X175252522Y-87149751D01*
X175156383Y-87320142D01*
X175059971Y-87492277D01*
X174966616Y-87660215D01*
X174879649Y-87818014D01*
X174802402Y-87959735D01*
X174738207Y-88079436D01*
X174690393Y-88171175D01*
X174662294Y-88229011D01*
X174656137Y-88246150D01*
X174679460Y-88254643D01*
X174742108Y-88261185D01*
X174832613Y-88264794D01*
X174878189Y-88265200D01*
X175100578Y-88265200D01*
X175202656Y-88081050D01*
X175304733Y-87896900D01*
X175919163Y-87890100D01*
X176533594Y-87883300D01*
X176743192Y-88265200D01*
X176969496Y-88265200D01*
X177069612Y-88263276D01*
X177147051Y-88258129D01*
X177190423Y-88250688D01*
X177195800Y-88246678D01*
X177183758Y-88216590D01*
X177149820Y-88148295D01*
X177097271Y-88047707D01*
X177029396Y-87920741D01*
X176949481Y-87773309D01*
X176860809Y-87611326D01*
X176835127Y-87564780D01*
X176357600Y-87564780D01*
X176333576Y-87569578D01*
X176267000Y-87573714D01*
X176166120Y-87576909D01*
X176039183Y-87578885D01*
X175925800Y-87579400D01*
X175784154Y-87578340D01*
X175662093Y-87575404D01*
X175567850Y-87570954D01*
X175509657Y-87565356D01*
X175494588Y-87560350D01*
X175506757Y-87528574D01*
X175539174Y-87462851D01*
X175586791Y-87372214D01*
X175644560Y-87265697D01*
X175707434Y-87152333D01*
X175770366Y-87041157D01*
X175828309Y-86941203D01*
X175876214Y-86861503D01*
X175909035Y-86811092D01*
X175920538Y-86797987D01*
X175938151Y-86816779D01*
X175974785Y-86871654D01*
X176025482Y-86953912D01*
X176085283Y-87054851D01*
X176149227Y-87165772D01*
X176212357Y-87277975D01*
X176269713Y-87382758D01*
X176316335Y-87471421D01*
X176347265Y-87535264D01*
X176357600Y-87564780D01*
X176835127Y-87564780D01*
X176766666Y-87440706D01*
X176670337Y-87267361D01*
X176575106Y-87097206D01*
X176484258Y-86936155D01*
X176401078Y-86790121D01*
X176328852Y-86665019D01*
X176270863Y-86566761D01*
X176230397Y-86501262D01*
X176212000Y-86475527D01*
X176122454Y-86418680D01*
X176007070Y-86390579D01*
X175881492Y-86390648D01*
G37*
X175881492Y-86390648D02*
X175761364Y-86418308D01*
X175662331Y-86472983D01*
X175637050Y-86496741D01*
X175612512Y-86531903D01*
X175567712Y-86604455D01*
X175505981Y-86708457D01*
X175430652Y-86837968D01*
X175345055Y-86987046D01*
X175252522Y-87149751D01*
X175156383Y-87320142D01*
X175059971Y-87492277D01*
X174966616Y-87660215D01*
X174879649Y-87818014D01*
X174802402Y-87959735D01*
X174738207Y-88079436D01*
X174690393Y-88171175D01*
X174662294Y-88229011D01*
X174656137Y-88246150D01*
X174679460Y-88254643D01*
X174742108Y-88261185D01*
X174832613Y-88264794D01*
X174878189Y-88265200D01*
X175100578Y-88265200D01*
X175202656Y-88081050D01*
X175304733Y-87896900D01*
X175919163Y-87890100D01*
X176533594Y-87883300D01*
X176743192Y-88265200D01*
X176969496Y-88265200D01*
X177069612Y-88263276D01*
X177147051Y-88258129D01*
X177190423Y-88250688D01*
X177195800Y-88246678D01*
X177183758Y-88216590D01*
X177149820Y-88148295D01*
X177097271Y-88047707D01*
X177029396Y-87920741D01*
X176949481Y-87773309D01*
X176860809Y-87611326D01*
X176835127Y-87564780D01*
X176357600Y-87564780D01*
X176333576Y-87569578D01*
X176267000Y-87573714D01*
X176166120Y-87576909D01*
X176039183Y-87578885D01*
X175925800Y-87579400D01*
X175784154Y-87578340D01*
X175662093Y-87575404D01*
X175567850Y-87570954D01*
X175509657Y-87565356D01*
X175494588Y-87560350D01*
X175506757Y-87528574D01*
X175539174Y-87462851D01*
X175586791Y-87372214D01*
X175644560Y-87265697D01*
X175707434Y-87152333D01*
X175770366Y-87041157D01*
X175828309Y-86941203D01*
X175876214Y-86861503D01*
X175909035Y-86811092D01*
X175920538Y-86797987D01*
X175938151Y-86816779D01*
X175974785Y-86871654D01*
X176025482Y-86953912D01*
X176085283Y-87054851D01*
X176149227Y-87165772D01*
X176212357Y-87277975D01*
X176269713Y-87382758D01*
X176316335Y-87471421D01*
X176347265Y-87535264D01*
X176357600Y-87564780D01*
X176835127Y-87564780D01*
X176766666Y-87440706D01*
X176670337Y-87267361D01*
X176575106Y-87097206D01*
X176484258Y-86936155D01*
X176401078Y-86790121D01*
X176328852Y-86665019D01*
X176270863Y-86566761D01*
X176230397Y-86501262D01*
X176212000Y-86475527D01*
X176122454Y-86418680D01*
X176007070Y-86390579D01*
X175881492Y-86390648D01*
G36*
X172276139Y-86393585D02*
G01*
X172225605Y-86405549D01*
X172222775Y-86407141D01*
X172213689Y-86422854D01*
X172206571Y-86460082D01*
X172201295Y-86523207D01*
X172197735Y-86616609D01*
X172195767Y-86744667D01*
X172195263Y-86911763D01*
X172196099Y-87122276D01*
X172197375Y-87293118D01*
X172199084Y-87541414D01*
X172200798Y-87743640D01*
X172204329Y-87904494D01*
X172211487Y-88028673D01*
X172224085Y-88120876D01*
X172243932Y-88185800D01*
X172272842Y-88228144D01*
X172312625Y-88252604D01*
X172365092Y-88263879D01*
X172432055Y-88266667D01*
X172515326Y-88265666D01*
X172572185Y-88265200D01*
X172692964Y-88264588D01*
X172774260Y-88261193D01*
X172827389Y-88252670D01*
X172863667Y-88236676D01*
X172894408Y-88210869D01*
X172909528Y-88195350D01*
X172940976Y-88158458D01*
X172998932Y-88086577D01*
X173079137Y-87985140D01*
X173177332Y-87859582D01*
X173289259Y-87715337D01*
X173410660Y-87557838D01*
X173480421Y-87466886D01*
X173603028Y-87307635D01*
X173716741Y-87161631D01*
X173817679Y-87033723D01*
X173901963Y-86928762D01*
X173965712Y-86851600D01*
X174005047Y-86807085D01*
X174015441Y-86798019D01*
X174024753Y-86806577D01*
X174032136Y-86841877D01*
X174037764Y-86908029D01*
X174041810Y-87009141D01*
X174044447Y-87149320D01*
X174045850Y-87332675D01*
X174046200Y-87526483D01*
X174046200Y-88265200D01*
X174452600Y-88265200D01*
X174452600Y-87415495D01*
X174451864Y-87149124D01*
X174449608Y-86931366D01*
X174445762Y-86760057D01*
X174440256Y-86633031D01*
X174433021Y-86548123D01*
X174423986Y-86503166D01*
X174423062Y-86500959D01*
X174371758Y-86442571D01*
X174289712Y-86407919D01*
X174206158Y-86394846D01*
X174098935Y-86390996D01*
X173984573Y-86395445D01*
X173879604Y-86407272D01*
X173800560Y-86425553D01*
X173776327Y-86436572D01*
X173750135Y-86463305D01*
X173697241Y-86525720D01*
X173621527Y-86618936D01*
X173526878Y-86738075D01*
X173417176Y-86878258D01*
X173296305Y-87034604D01*
X173193427Y-87169021D01*
X173067730Y-87332952D01*
X172951195Y-87482956D01*
X172847484Y-87614472D01*
X172760259Y-87722940D01*
X172693182Y-87803796D01*
X172649914Y-87852480D01*
X172634627Y-87865170D01*
X172627945Y-87838873D01*
X172621604Y-87767338D01*
X172615838Y-87656125D01*
X172610881Y-87510795D01*
X172606965Y-87336909D01*
X172604346Y-87142519D01*
X172601612Y-86916955D01*
X172597991Y-86738189D01*
X172593277Y-86602227D01*
X172587263Y-86505071D01*
X172579742Y-86442725D01*
X172570507Y-86411194D01*
X172566246Y-86406288D01*
X172520002Y-86393930D01*
X172443077Y-86387727D01*
X172355209Y-86387628D01*
X172276139Y-86393585D01*
G37*
X172276139Y-86393585D02*
X172225605Y-86405549D01*
X172222775Y-86407141D01*
X172213689Y-86422854D01*
X172206571Y-86460082D01*
X172201295Y-86523207D01*
X172197735Y-86616609D01*
X172195767Y-86744667D01*
X172195263Y-86911763D01*
X172196099Y-87122276D01*
X172197375Y-87293118D01*
X172199084Y-87541414D01*
X172200798Y-87743640D01*
X172204329Y-87904494D01*
X172211487Y-88028673D01*
X172224085Y-88120876D01*
X172243932Y-88185800D01*
X172272842Y-88228144D01*
X172312625Y-88252604D01*
X172365092Y-88263879D01*
X172432055Y-88266667D01*
X172515326Y-88265666D01*
X172572185Y-88265200D01*
X172692964Y-88264588D01*
X172774260Y-88261193D01*
X172827389Y-88252670D01*
X172863667Y-88236676D01*
X172894408Y-88210869D01*
X172909528Y-88195350D01*
X172940976Y-88158458D01*
X172998932Y-88086577D01*
X173079137Y-87985140D01*
X173177332Y-87859582D01*
X173289259Y-87715337D01*
X173410660Y-87557838D01*
X173480421Y-87466886D01*
X173603028Y-87307635D01*
X173716741Y-87161631D01*
X173817679Y-87033723D01*
X173901963Y-86928762D01*
X173965712Y-86851600D01*
X174005047Y-86807085D01*
X174015441Y-86798019D01*
X174024753Y-86806577D01*
X174032136Y-86841877D01*
X174037764Y-86908029D01*
X174041810Y-87009141D01*
X174044447Y-87149320D01*
X174045850Y-87332675D01*
X174046200Y-87526483D01*
X174046200Y-88265200D01*
X174452600Y-88265200D01*
X174452600Y-87415495D01*
X174451864Y-87149124D01*
X174449608Y-86931366D01*
X174445762Y-86760057D01*
X174440256Y-86633031D01*
X174433021Y-86548123D01*
X174423986Y-86503166D01*
X174423062Y-86500959D01*
X174371758Y-86442571D01*
X174289712Y-86407919D01*
X174206158Y-86394846D01*
X174098935Y-86390996D01*
X173984573Y-86395445D01*
X173879604Y-86407272D01*
X173800560Y-86425553D01*
X173776327Y-86436572D01*
X173750135Y-86463305D01*
X173697241Y-86525720D01*
X173621527Y-86618936D01*
X173526878Y-86738075D01*
X173417176Y-86878258D01*
X173296305Y-87034604D01*
X173193427Y-87169021D01*
X173067730Y-87332952D01*
X172951195Y-87482956D01*
X172847484Y-87614472D01*
X172760259Y-87722940D01*
X172693182Y-87803796D01*
X172649914Y-87852480D01*
X172634627Y-87865170D01*
X172627945Y-87838873D01*
X172621604Y-87767338D01*
X172615838Y-87656125D01*
X172610881Y-87510795D01*
X172606965Y-87336909D01*
X172604346Y-87142519D01*
X172601612Y-86916955D01*
X172597991Y-86738189D01*
X172593277Y-86602227D01*
X172587263Y-86505071D01*
X172579742Y-86442725D01*
X172570507Y-86411194D01*
X172566246Y-86406288D01*
X172520002Y-86393930D01*
X172443077Y-86387727D01*
X172355209Y-86387628D01*
X172276139Y-86393585D01*
G36*
X171142436Y-86386384D02*
G01*
X170955023Y-86387584D01*
X170773535Y-86390531D01*
X170607646Y-86394932D01*
X170467030Y-86400495D01*
X170361362Y-86406927D01*
X170316628Y-86411354D01*
X170118804Y-86455759D01*
X169959725Y-86532805D01*
X169838863Y-86642904D01*
X169755693Y-86786473D01*
X169726774Y-86876040D01*
X169715716Y-86951229D01*
X169708542Y-87068843D01*
X169705558Y-87220633D01*
X169707068Y-87398353D01*
X169707205Y-87404861D01*
X169713051Y-87588729D01*
X169723493Y-87730763D01*
X169741194Y-87839892D01*
X169768817Y-87925046D01*
X169809026Y-87995155D01*
X169864482Y-88059147D01*
X169916846Y-88107764D01*
X169967271Y-88148793D01*
X170019489Y-88182068D01*
X170079263Y-88208388D01*
X170152354Y-88228554D01*
X170244524Y-88243365D01*
X170361535Y-88253621D01*
X170509150Y-88260123D01*
X170693129Y-88263670D01*
X170919236Y-88265062D01*
X171050893Y-88265200D01*
X171272766Y-88264952D01*
X171449085Y-88264034D01*
X171585094Y-88262180D01*
X171686036Y-88259126D01*
X171757156Y-88254605D01*
X171803698Y-88248355D01*
X171830906Y-88240109D01*
X171844024Y-88229603D01*
X171846383Y-88225022D01*
X171850046Y-88190800D01*
X171853398Y-88111993D01*
X171856332Y-87994815D01*
X171858117Y-87884200D01*
X171430000Y-87884200D01*
X170890250Y-87883825D01*
X170680581Y-87882445D01*
X170518464Y-87878516D01*
X170400708Y-87871872D01*
X170324123Y-87862342D01*
X170289449Y-87852075D01*
X170230966Y-87809100D01*
X170175541Y-87749514D01*
X170175149Y-87748987D01*
X170153282Y-87714838D01*
X170138328Y-87675153D01*
X170129003Y-87620033D01*
X170124025Y-87539580D01*
X170122112Y-87423896D01*
X170121900Y-87338099D01*
X170122638Y-87197821D01*
X170125707Y-87098434D01*
X170132389Y-87030040D01*
X170143967Y-86982741D01*
X170161724Y-86946638D01*
X170175149Y-86927212D01*
X170209114Y-86884974D01*
X170244947Y-86852625D01*
X170289642Y-86828846D01*
X170350189Y-86812320D01*
X170433580Y-86801728D01*
X170546807Y-86795752D01*
X170696862Y-86793073D01*
X170890250Y-86792374D01*
X171430000Y-86792000D01*
X171430000Y-87884200D01*
X171858117Y-87884200D01*
X171858743Y-87845483D01*
X171860523Y-87670210D01*
X171861566Y-87475211D01*
X171861800Y-87325136D01*
X171861553Y-87089751D01*
X171860660Y-86900047D01*
X171858893Y-86750910D01*
X171856027Y-86637222D01*
X171851833Y-86553867D01*
X171846086Y-86495729D01*
X171838557Y-86457692D01*
X171829020Y-86434639D01*
X171821886Y-86425514D01*
X171803294Y-86413008D01*
X171771646Y-86403380D01*
X171720951Y-86396284D01*
X171645220Y-86391377D01*
X171538464Y-86388313D01*
X171394693Y-86386747D01*
X171207917Y-86386334D01*
X171142436Y-86386384D01*
G37*
X171142436Y-86386384D02*
X170955023Y-86387584D01*
X170773535Y-86390531D01*
X170607646Y-86394932D01*
X170467030Y-86400495D01*
X170361362Y-86406927D01*
X170316628Y-86411354D01*
X170118804Y-86455759D01*
X169959725Y-86532805D01*
X169838863Y-86642904D01*
X169755693Y-86786473D01*
X169726774Y-86876040D01*
X169715716Y-86951229D01*
X169708542Y-87068843D01*
X169705558Y-87220633D01*
X169707068Y-87398353D01*
X169707205Y-87404861D01*
X169713051Y-87588729D01*
X169723493Y-87730763D01*
X169741194Y-87839892D01*
X169768817Y-87925046D01*
X169809026Y-87995155D01*
X169864482Y-88059147D01*
X169916846Y-88107764D01*
X169967271Y-88148793D01*
X170019489Y-88182068D01*
X170079263Y-88208388D01*
X170152354Y-88228554D01*
X170244524Y-88243365D01*
X170361535Y-88253621D01*
X170509150Y-88260123D01*
X170693129Y-88263670D01*
X170919236Y-88265062D01*
X171050893Y-88265200D01*
X171272766Y-88264952D01*
X171449085Y-88264034D01*
X171585094Y-88262180D01*
X171686036Y-88259126D01*
X171757156Y-88254605D01*
X171803698Y-88248355D01*
X171830906Y-88240109D01*
X171844024Y-88229603D01*
X171846383Y-88225022D01*
X171850046Y-88190800D01*
X171853398Y-88111993D01*
X171856332Y-87994815D01*
X171858117Y-87884200D01*
X171430000Y-87884200D01*
X170890250Y-87883825D01*
X170680581Y-87882445D01*
X170518464Y-87878516D01*
X170400708Y-87871872D01*
X170324123Y-87862342D01*
X170289449Y-87852075D01*
X170230966Y-87809100D01*
X170175541Y-87749514D01*
X170175149Y-87748987D01*
X170153282Y-87714838D01*
X170138328Y-87675153D01*
X170129003Y-87620033D01*
X170124025Y-87539580D01*
X170122112Y-87423896D01*
X170121900Y-87338099D01*
X170122638Y-87197821D01*
X170125707Y-87098434D01*
X170132389Y-87030040D01*
X170143967Y-86982741D01*
X170161724Y-86946638D01*
X170175149Y-86927212D01*
X170209114Y-86884974D01*
X170244947Y-86852625D01*
X170289642Y-86828846D01*
X170350189Y-86812320D01*
X170433580Y-86801728D01*
X170546807Y-86795752D01*
X170696862Y-86793073D01*
X170890250Y-86792374D01*
X171430000Y-86792000D01*
X171430000Y-87884200D01*
X171858117Y-87884200D01*
X171858743Y-87845483D01*
X171860523Y-87670210D01*
X171861566Y-87475211D01*
X171861800Y-87325136D01*
X171861553Y-87089751D01*
X171860660Y-86900047D01*
X171858893Y-86750910D01*
X171856027Y-86637222D01*
X171851833Y-86553867D01*
X171846086Y-86495729D01*
X171838557Y-86457692D01*
X171829020Y-86434639D01*
X171821886Y-86425514D01*
X171803294Y-86413008D01*
X171771646Y-86403380D01*
X171720951Y-86396284D01*
X171645220Y-86391377D01*
X171538464Y-86388313D01*
X171394693Y-86386747D01*
X171207917Y-86386334D01*
X171142436Y-86386384D01*
G36*
X167429500Y-86779300D02*
G01*
X168143200Y-86792000D01*
X168362125Y-86796029D01*
X168535857Y-86800247D01*
X168669992Y-86805839D01*
X168770127Y-86813989D01*
X168841859Y-86825884D01*
X168890784Y-86842708D01*
X168922498Y-86865648D01*
X168942599Y-86895888D01*
X168956684Y-86934615D01*
X168965624Y-86966199D01*
X168980776Y-87017452D01*
X168991280Y-87058070D01*
X168992192Y-87089285D01*
X168978567Y-87112330D01*
X168945461Y-87128434D01*
X168887929Y-87138832D01*
X168801027Y-87144754D01*
X168679810Y-87147433D01*
X168519334Y-87148100D01*
X168314653Y-87147987D01*
X168235950Y-87147988D01*
X168043922Y-87148771D01*
X167867647Y-87150795D01*
X167713731Y-87153881D01*
X167588777Y-87157851D01*
X167499391Y-87162525D01*
X167452175Y-87167724D01*
X167447164Y-87169395D01*
X167426611Y-87207395D01*
X167420196Y-87288729D01*
X167421764Y-87340456D01*
X167429500Y-87490500D01*
X168991600Y-87503934D01*
X168991459Y-87560717D01*
X168979547Y-87658239D01*
X168948971Y-87750325D01*
X168906763Y-87818978D01*
X168882539Y-87839451D01*
X168844546Y-87850535D01*
X168770289Y-87860016D01*
X168656679Y-87868077D01*
X168500629Y-87874900D01*
X168299048Y-87880669D01*
X168128000Y-87884200D01*
X167429500Y-87896900D01*
X167422038Y-88081050D01*
X167414575Y-88265200D01*
X168158638Y-88262600D01*
X168352233Y-88261273D01*
X168532807Y-88258806D01*
X168693109Y-88255392D01*
X168825887Y-88251228D01*
X168923892Y-88246508D01*
X168979872Y-88241428D01*
X168985616Y-88240333D01*
X169123917Y-88182993D01*
X169242790Y-88086558D01*
X169325073Y-87968425D01*
X169345664Y-87924100D01*
X169360942Y-87881118D01*
X169371698Y-87831216D01*
X169378719Y-87766128D01*
X169382798Y-87677593D01*
X169384721Y-87557345D01*
X169385281Y-87397122D01*
X169385300Y-87338100D01*
X169385048Y-87164370D01*
X169383737Y-87033147D01*
X169380540Y-86936138D01*
X169374625Y-86865051D01*
X169365165Y-86811593D01*
X169351329Y-86767471D01*
X169332289Y-86724393D01*
X169321800Y-86703136D01*
X169233509Y-86575761D01*
X169111814Y-86483731D01*
X168981414Y-86431282D01*
X168914406Y-86420202D01*
X168797287Y-86411496D01*
X168629899Y-86405160D01*
X168412080Y-86401187D01*
X168153400Y-86399586D01*
X167429500Y-86398300D01*
X167429500Y-86779300D01*
G37*
X167429500Y-86779300D02*
X168143200Y-86792000D01*
X168362125Y-86796029D01*
X168535857Y-86800247D01*
X168669992Y-86805839D01*
X168770127Y-86813989D01*
X168841859Y-86825884D01*
X168890784Y-86842708D01*
X168922498Y-86865648D01*
X168942599Y-86895888D01*
X168956684Y-86934615D01*
X168965624Y-86966199D01*
X168980776Y-87017452D01*
X168991280Y-87058070D01*
X168992192Y-87089285D01*
X168978567Y-87112330D01*
X168945461Y-87128434D01*
X168887929Y-87138832D01*
X168801027Y-87144754D01*
X168679810Y-87147433D01*
X168519334Y-87148100D01*
X168314653Y-87147987D01*
X168235950Y-87147988D01*
X168043922Y-87148771D01*
X167867647Y-87150795D01*
X167713731Y-87153881D01*
X167588777Y-87157851D01*
X167499391Y-87162525D01*
X167452175Y-87167724D01*
X167447164Y-87169395D01*
X167426611Y-87207395D01*
X167420196Y-87288729D01*
X167421764Y-87340456D01*
X167429500Y-87490500D01*
X168991600Y-87503934D01*
X168991459Y-87560717D01*
X168979547Y-87658239D01*
X168948971Y-87750325D01*
X168906763Y-87818978D01*
X168882539Y-87839451D01*
X168844546Y-87850535D01*
X168770289Y-87860016D01*
X168656679Y-87868077D01*
X168500629Y-87874900D01*
X168299048Y-87880669D01*
X168128000Y-87884200D01*
X167429500Y-87896900D01*
X167422038Y-88081050D01*
X167414575Y-88265200D01*
X168158638Y-88262600D01*
X168352233Y-88261273D01*
X168532807Y-88258806D01*
X168693109Y-88255392D01*
X168825887Y-88251228D01*
X168923892Y-88246508D01*
X168979872Y-88241428D01*
X168985616Y-88240333D01*
X169123917Y-88182993D01*
X169242790Y-88086558D01*
X169325073Y-87968425D01*
X169345664Y-87924100D01*
X169360942Y-87881118D01*
X169371698Y-87831216D01*
X169378719Y-87766128D01*
X169382798Y-87677593D01*
X169384721Y-87557345D01*
X169385281Y-87397122D01*
X169385300Y-87338100D01*
X169385048Y-87164370D01*
X169383737Y-87033147D01*
X169380540Y-86936138D01*
X169374625Y-86865051D01*
X169365165Y-86811593D01*
X169351329Y-86767471D01*
X169332289Y-86724393D01*
X169321800Y-86703136D01*
X169233509Y-86575761D01*
X169111814Y-86483731D01*
X168981414Y-86431282D01*
X168914406Y-86420202D01*
X168797287Y-86411496D01*
X168629899Y-86405160D01*
X168412080Y-86401187D01*
X168153400Y-86399586D01*
X167429500Y-86398300D01*
X167429500Y-86779300D01*
G36*
X166430035Y-86387999D02*
G01*
X166217823Y-86389812D01*
X165992125Y-86392222D01*
X165811264Y-86394577D01*
X165669282Y-86397331D01*
X165560218Y-86400938D01*
X165478113Y-86405851D01*
X165417008Y-86412523D01*
X165370941Y-86421408D01*
X165333955Y-86432958D01*
X165300089Y-86447628D01*
X165271466Y-86461800D01*
X165177695Y-86519553D01*
X165110357Y-86589512D01*
X165065745Y-86680299D01*
X165040151Y-86800541D01*
X165029868Y-86958861D01*
X165029200Y-87025410D01*
X165036502Y-87210216D01*
X165060605Y-87352812D01*
X165104808Y-87459960D01*
X165172408Y-87538424D01*
X165266704Y-87594965D01*
X165316376Y-87614255D01*
X165405167Y-87644780D01*
X165179312Y-87923240D01*
X165097851Y-88025802D01*
X165029420Y-88116015D01*
X164979860Y-88185864D01*
X164955011Y-88227335D01*
X164953229Y-88233450D01*
X164969482Y-88249939D01*
X165022321Y-88260091D01*
X165117431Y-88264711D01*
X165177925Y-88265200D01*
X165402849Y-88265200D01*
X165625555Y-87973100D01*
X165848260Y-87681000D01*
X166680200Y-87681000D01*
X166680200Y-87932922D01*
X166681696Y-88044727D01*
X166685716Y-88140014D01*
X166691565Y-88205569D01*
X166695618Y-88225022D01*
X166714272Y-88246066D01*
X166756921Y-88258520D01*
X166833473Y-88264229D01*
X166911518Y-88265200D01*
X167112000Y-88265200D01*
X167112000Y-87353910D01*
X167111727Y-87109090D01*
X167110783Y-86910314D01*
X167109139Y-86766600D01*
X166680200Y-86766600D01*
X166680200Y-87353501D01*
X166109556Y-87345800D01*
X165921573Y-87342851D01*
X165777883Y-87339375D01*
X165671978Y-87334832D01*
X165597352Y-87328683D01*
X165547497Y-87320388D01*
X165515906Y-87309409D01*
X165496071Y-87295207D01*
X165495803Y-87294939D01*
X165465521Y-87237931D01*
X165445889Y-87149465D01*
X165438558Y-87048081D01*
X165445175Y-86952315D01*
X165460265Y-86895376D01*
X165481753Y-86855497D01*
X165513235Y-86824681D01*
X165560891Y-86801796D01*
X165630901Y-86785710D01*
X165729444Y-86775291D01*
X165862701Y-86769407D01*
X166036852Y-86766926D01*
X166163291Y-86766600D01*
X166680200Y-86766600D01*
X167109139Y-86766600D01*
X167108981Y-86752828D01*
X167106135Y-86631878D01*
X167102059Y-86542709D01*
X167096566Y-86480567D01*
X167089471Y-86440700D01*
X167080586Y-86418352D01*
X167075073Y-86411972D01*
X167050336Y-86403031D01*
X166997698Y-86396203D01*
X166913254Y-86391386D01*
X166793098Y-86388481D01*
X166633327Y-86387385D01*
X166430035Y-86387999D01*
G37*
X166430035Y-86387999D02*
X166217823Y-86389812D01*
X165992125Y-86392222D01*
X165811264Y-86394577D01*
X165669282Y-86397331D01*
X165560218Y-86400938D01*
X165478113Y-86405851D01*
X165417008Y-86412523D01*
X165370941Y-86421408D01*
X165333955Y-86432958D01*
X165300089Y-86447628D01*
X165271466Y-86461800D01*
X165177695Y-86519553D01*
X165110357Y-86589512D01*
X165065745Y-86680299D01*
X165040151Y-86800541D01*
X165029868Y-86958861D01*
X165029200Y-87025410D01*
X165036502Y-87210216D01*
X165060605Y-87352812D01*
X165104808Y-87459960D01*
X165172408Y-87538424D01*
X165266704Y-87594965D01*
X165316376Y-87614255D01*
X165405167Y-87644780D01*
X165179312Y-87923240D01*
X165097851Y-88025802D01*
X165029420Y-88116015D01*
X164979860Y-88185864D01*
X164955011Y-88227335D01*
X164953229Y-88233450D01*
X164969482Y-88249939D01*
X165022321Y-88260091D01*
X165117431Y-88264711D01*
X165177925Y-88265200D01*
X165402849Y-88265200D01*
X165625555Y-87973100D01*
X165848260Y-87681000D01*
X166680200Y-87681000D01*
X166680200Y-87932922D01*
X166681696Y-88044727D01*
X166685716Y-88140014D01*
X166691565Y-88205569D01*
X166695618Y-88225022D01*
X166714272Y-88246066D01*
X166756921Y-88258520D01*
X166833473Y-88264229D01*
X166911518Y-88265200D01*
X167112000Y-88265200D01*
X167112000Y-87353910D01*
X167111727Y-87109090D01*
X167110783Y-86910314D01*
X167109139Y-86766600D01*
X166680200Y-86766600D01*
X166680200Y-87353501D01*
X166109556Y-87345800D01*
X165921573Y-87342851D01*
X165777883Y-87339375D01*
X165671978Y-87334832D01*
X165597352Y-87328683D01*
X165547497Y-87320388D01*
X165515906Y-87309409D01*
X165496071Y-87295207D01*
X165495803Y-87294939D01*
X165465521Y-87237931D01*
X165445889Y-87149465D01*
X165438558Y-87048081D01*
X165445175Y-86952315D01*
X165460265Y-86895376D01*
X165481753Y-86855497D01*
X165513235Y-86824681D01*
X165560891Y-86801796D01*
X165630901Y-86785710D01*
X165729444Y-86775291D01*
X165862701Y-86769407D01*
X166036852Y-86766926D01*
X166163291Y-86766600D01*
X166680200Y-86766600D01*
X167109139Y-86766600D01*
X167108981Y-86752828D01*
X167106135Y-86631878D01*
X167102059Y-86542709D01*
X167096566Y-86480567D01*
X167089471Y-86440700D01*
X167080586Y-86418352D01*
X167075073Y-86411972D01*
X167050336Y-86403031D01*
X166997698Y-86396203D01*
X166913254Y-86391386D01*
X166793098Y-86388481D01*
X166633327Y-86387385D01*
X166430035Y-86387999D01*
G36*
X159582810Y-86408228D02*
G01*
X159489281Y-86444296D01*
X159464770Y-86463630D01*
X159451663Y-86479020D01*
X159441125Y-86499736D01*
X159432876Y-86531051D01*
X159426639Y-86578238D01*
X159422133Y-86646569D01*
X159419079Y-86741317D01*
X159417199Y-86867756D01*
X159416214Y-87031158D01*
X159415843Y-87236795D01*
X159415800Y-87388900D01*
X159415800Y-88265200D01*
X159602067Y-88265200D01*
X159694981Y-88263039D01*
X159766967Y-88257344D01*
X159803906Y-88249289D01*
X159805267Y-88248266D01*
X159809605Y-88219462D01*
X159813532Y-88146394D01*
X159816901Y-88035599D01*
X159819562Y-87893613D01*
X159821369Y-87726972D01*
X159822173Y-87542213D01*
X159822200Y-87500358D01*
X159822200Y-86769383D01*
X159942850Y-86761641D01*
X160063500Y-86753900D01*
X160063500Y-86398300D01*
X159898400Y-86390298D01*
X159720134Y-86390068D01*
X159582810Y-86408228D01*
G37*
X159582810Y-86408228D02*
X159489281Y-86444296D01*
X159464770Y-86463630D01*
X159451663Y-86479020D01*
X159441125Y-86499736D01*
X159432876Y-86531051D01*
X159426639Y-86578238D01*
X159422133Y-86646569D01*
X159419079Y-86741317D01*
X159417199Y-86867756D01*
X159416214Y-87031158D01*
X159415843Y-87236795D01*
X159415800Y-87388900D01*
X159415800Y-88265200D01*
X159602067Y-88265200D01*
X159694981Y-88263039D01*
X159766967Y-88257344D01*
X159803906Y-88249289D01*
X159805267Y-88248266D01*
X159809605Y-88219462D01*
X159813532Y-88146394D01*
X159816901Y-88035599D01*
X159819562Y-87893613D01*
X159821369Y-87726972D01*
X159822173Y-87542213D01*
X159822200Y-87500358D01*
X159822200Y-86769383D01*
X159942850Y-86761641D01*
X160063500Y-86753900D01*
X160063500Y-86398300D01*
X159898400Y-86390298D01*
X159720134Y-86390068D01*
X159582810Y-86408228D01*
G36*
X157431464Y-86390191D02*
G01*
X157309553Y-86393965D01*
X157220556Y-86400072D01*
X157172393Y-86408651D01*
X157167661Y-86411198D01*
X157140857Y-86462145D01*
X157129926Y-86551929D01*
X157129800Y-86564432D01*
X157129105Y-86624609D01*
X157130744Y-86671537D01*
X157140309Y-86706857D01*
X157163390Y-86732205D01*
X157205578Y-86749221D01*
X157272462Y-86759543D01*
X157369634Y-86764810D01*
X157502683Y-86766660D01*
X157677201Y-86766731D01*
X157819579Y-86766600D01*
X158027889Y-86767067D01*
X158191525Y-86768686D01*
X158316608Y-86771785D01*
X158409256Y-86776692D01*
X158475591Y-86783733D01*
X158521731Y-86793236D01*
X158553797Y-86805528D01*
X158554553Y-86805916D01*
X158627035Y-86865360D01*
X158667525Y-86955561D01*
X158679200Y-87073053D01*
X158679200Y-87173000D01*
X158025150Y-87173039D01*
X157805716Y-87173583D01*
X157630883Y-87176012D01*
X157494456Y-87181562D01*
X157390242Y-87191468D01*
X157312045Y-87206970D01*
X157253670Y-87229302D01*
X157208925Y-87259702D01*
X157171612Y-87299406D01*
X157135539Y-87349652D01*
X157134770Y-87350800D01*
X157109180Y-87392694D01*
X157092616Y-87434600D01*
X157083557Y-87487958D01*
X157080480Y-87564214D01*
X157081861Y-87674808D01*
X157083464Y-87736386D01*
X157088398Y-87869699D01*
X157095680Y-87963045D01*
X157107099Y-88027256D01*
X157124446Y-88073162D01*
X157144306Y-88104686D01*
X157181502Y-88151517D01*
X157220557Y-88188253D01*
X157267885Y-88216098D01*
X157329896Y-88236255D01*
X157413003Y-88249927D01*
X157523618Y-88258319D01*
X157668152Y-88262633D01*
X157853018Y-88264073D01*
X157993400Y-88264045D01*
X158209413Y-88262848D01*
X158380196Y-88259901D01*
X158511300Y-88254920D01*
X158608275Y-88247624D01*
X158676670Y-88237730D01*
X158715832Y-88227300D01*
X158846776Y-88165259D01*
X158944287Y-88079199D01*
X159009400Y-87983549D01*
X159032194Y-87940692D01*
X159048997Y-87898604D01*
X159060920Y-87848531D01*
X159069074Y-87781717D01*
X159074569Y-87689408D01*
X159078517Y-87562849D01*
X159080299Y-87477800D01*
X158685306Y-87477800D01*
X158674005Y-87634031D01*
X158663572Y-87728086D01*
X158644787Y-87788811D01*
X158611135Y-87833643D01*
X158593336Y-87849931D01*
X158567545Y-87870567D01*
X158539956Y-87885798D01*
X158502902Y-87896444D01*
X158448710Y-87903326D01*
X158369712Y-87907262D01*
X158258236Y-87909073D01*
X158106614Y-87909579D01*
X158035164Y-87909600D01*
X157843541Y-87908408D01*
X157699132Y-87904697D01*
X157598405Y-87898258D01*
X157537824Y-87888883D01*
X157515880Y-87879120D01*
X157499275Y-87838099D01*
X157488285Y-87763301D01*
X157485400Y-87693700D01*
X157490204Y-87604486D01*
X157502756Y-87536065D01*
X157515880Y-87508279D01*
X157544382Y-87497324D01*
X157607685Y-87488996D01*
X157709480Y-87483107D01*
X157853457Y-87479470D01*
X158043307Y-87477897D01*
X158115833Y-87477800D01*
X158685306Y-87477800D01*
X159080299Y-87477800D01*
X159081630Y-87414300D01*
X159084034Y-87204642D01*
X159081389Y-87038293D01*
X159072302Y-86907894D01*
X159055376Y-86806085D01*
X159029218Y-86725505D01*
X158992433Y-86658797D01*
X158943625Y-86598600D01*
X158922997Y-86577260D01*
X158813710Y-86489652D01*
X158703287Y-86438207D01*
X158641473Y-86427255D01*
X158541308Y-86417383D01*
X158410710Y-86408729D01*
X158257597Y-86401432D01*
X158089889Y-86395633D01*
X157915503Y-86391470D01*
X157742358Y-86389082D01*
X157578372Y-86388609D01*
X157431464Y-86390191D01*
G37*
X157431464Y-86390191D02*
X157309553Y-86393965D01*
X157220556Y-86400072D01*
X157172393Y-86408651D01*
X157167661Y-86411198D01*
X157140857Y-86462145D01*
X157129926Y-86551929D01*
X157129800Y-86564432D01*
X157129105Y-86624609D01*
X157130744Y-86671537D01*
X157140309Y-86706857D01*
X157163390Y-86732205D01*
X157205578Y-86749221D01*
X157272462Y-86759543D01*
X157369634Y-86764810D01*
X157502683Y-86766660D01*
X157677201Y-86766731D01*
X157819579Y-86766600D01*
X158027889Y-86767067D01*
X158191525Y-86768686D01*
X158316608Y-86771785D01*
X158409256Y-86776692D01*
X158475591Y-86783733D01*
X158521731Y-86793236D01*
X158553797Y-86805528D01*
X158554553Y-86805916D01*
X158627035Y-86865360D01*
X158667525Y-86955561D01*
X158679200Y-87073053D01*
X158679200Y-87173000D01*
X158025150Y-87173039D01*
X157805716Y-87173583D01*
X157630883Y-87176012D01*
X157494456Y-87181562D01*
X157390242Y-87191468D01*
X157312045Y-87206970D01*
X157253670Y-87229302D01*
X157208925Y-87259702D01*
X157171612Y-87299406D01*
X157135539Y-87349652D01*
X157134770Y-87350800D01*
X157109180Y-87392694D01*
X157092616Y-87434600D01*
X157083557Y-87487958D01*
X157080480Y-87564214D01*
X157081861Y-87674808D01*
X157083464Y-87736386D01*
X157088398Y-87869699D01*
X157095680Y-87963045D01*
X157107099Y-88027256D01*
X157124446Y-88073162D01*
X157144306Y-88104686D01*
X157181502Y-88151517D01*
X157220557Y-88188253D01*
X157267885Y-88216098D01*
X157329896Y-88236255D01*
X157413003Y-88249927D01*
X157523618Y-88258319D01*
X157668152Y-88262633D01*
X157853018Y-88264073D01*
X157993400Y-88264045D01*
X158209413Y-88262848D01*
X158380196Y-88259901D01*
X158511300Y-88254920D01*
X158608275Y-88247624D01*
X158676670Y-88237730D01*
X158715832Y-88227300D01*
X158846776Y-88165259D01*
X158944287Y-88079199D01*
X159009400Y-87983549D01*
X159032194Y-87940692D01*
X159048997Y-87898604D01*
X159060920Y-87848531D01*
X159069074Y-87781717D01*
X159074569Y-87689408D01*
X159078517Y-87562849D01*
X159080299Y-87477800D01*
X158685306Y-87477800D01*
X158674005Y-87634031D01*
X158663572Y-87728086D01*
X158644787Y-87788811D01*
X158611135Y-87833643D01*
X158593336Y-87849931D01*
X158567545Y-87870567D01*
X158539956Y-87885798D01*
X158502902Y-87896444D01*
X158448710Y-87903326D01*
X158369712Y-87907262D01*
X158258236Y-87909073D01*
X158106614Y-87909579D01*
X158035164Y-87909600D01*
X157843541Y-87908408D01*
X157699132Y-87904697D01*
X157598405Y-87898258D01*
X157537824Y-87888883D01*
X157515880Y-87879120D01*
X157499275Y-87838099D01*
X157488285Y-87763301D01*
X157485400Y-87693700D01*
X157490204Y-87604486D01*
X157502756Y-87536065D01*
X157515880Y-87508279D01*
X157544382Y-87497324D01*
X157607685Y-87488996D01*
X157709480Y-87483107D01*
X157853457Y-87479470D01*
X158043307Y-87477897D01*
X158115833Y-87477800D01*
X158685306Y-87477800D01*
X159080299Y-87477800D01*
X159081630Y-87414300D01*
X159084034Y-87204642D01*
X159081389Y-87038293D01*
X159072302Y-86907894D01*
X159055376Y-86806085D01*
X159029218Y-86725505D01*
X158992433Y-86658797D01*
X158943625Y-86598600D01*
X158922997Y-86577260D01*
X158813710Y-86489652D01*
X158703287Y-86438207D01*
X158641473Y-86427255D01*
X158541308Y-86417383D01*
X158410710Y-86408729D01*
X158257597Y-86401432D01*
X158089889Y-86395633D01*
X157915503Y-86391470D01*
X157742358Y-86389082D01*
X157578372Y-86388609D01*
X157431464Y-86390191D01*
D11*
%TO.C,J2*%
X173340000Y-101200000D02*
X172320000Y-101200000D01*
X173340000Y-106400000D02*
X172320000Y-106400000D01*
X175880000Y-101200000D02*
X174860000Y-101200000D01*
X175880000Y-106400000D02*
X174860000Y-106400000D01*
X178420000Y-101200000D02*
X177400000Y-101200000D01*
X178420000Y-106400000D02*
X177400000Y-106400000D01*
X180960000Y-101200000D02*
X179940000Y-101200000D01*
X180960000Y-106400000D02*
X179940000Y-106400000D01*
X183500000Y-101200000D02*
X182480000Y-101200000D01*
X183500000Y-106400000D02*
X182480000Y-106400000D01*
X186040000Y-101200000D02*
X185020000Y-101200000D01*
X186040000Y-106400000D02*
X185020000Y-106400000D01*
X188580000Y-101200000D02*
X187560000Y-101200000D01*
X188580000Y-106400000D02*
X187560000Y-106400000D01*
X170800000Y-101200000D02*
X170230000Y-101200000D01*
X170800000Y-106400000D02*
X170230000Y-106400000D01*
X190670000Y-101200000D02*
X190100000Y-101200000D01*
X190670000Y-106400000D02*
X190100000Y-106400000D01*
X190100000Y-107840000D02*
X190100000Y-106400000D01*
X170230000Y-106400000D02*
X170230000Y-101200000D01*
X190670000Y-106400000D02*
X190670000Y-101200000D01*
%TO.C,C5*%
D10*
X131666666Y-85077142D02*
X131714285Y-85124761D01*
X131857142Y-85172380D01*
X131952380Y-85172380D01*
X132095238Y-85124761D01*
X132190476Y-85029523D01*
X132238095Y-84934285D01*
X132285714Y-84743809D01*
X132285714Y-84600952D01*
X132238095Y-84410476D01*
X132190476Y-84315238D01*
X132095238Y-84220000D01*
X131952380Y-84172380D01*
X131857142Y-84172380D01*
X131714285Y-84220000D01*
X131666666Y-84267619D01*
X130761904Y-84172380D02*
X131238095Y-84172380D01*
X131285714Y-84648571D01*
X131238095Y-84600952D01*
X131142857Y-84553333D01*
X130904761Y-84553333D01*
X130809523Y-84600952D01*
X130761904Y-84648571D01*
X130714285Y-84743809D01*
X130714285Y-84981904D01*
X130761904Y-85077142D01*
X130809523Y-85124761D01*
X130904761Y-85172380D01*
X131142857Y-85172380D01*
X131238095Y-85124761D01*
X131285714Y-85077142D01*
%TO.C,C6*%
X131866666Y-90257142D02*
X131914285Y-90304761D01*
X132057142Y-90352380D01*
X132152380Y-90352380D01*
X132295238Y-90304761D01*
X132390476Y-90209523D01*
X132438095Y-90114285D01*
X132485714Y-89923809D01*
X132485714Y-89780952D01*
X132438095Y-89590476D01*
X132390476Y-89495238D01*
X132295238Y-89400000D01*
X132152380Y-89352380D01*
X132057142Y-89352380D01*
X131914285Y-89400000D01*
X131866666Y-89447619D01*
X131009523Y-89352380D02*
X131200000Y-89352380D01*
X131295238Y-89400000D01*
X131342857Y-89447619D01*
X131438095Y-89590476D01*
X131485714Y-89780952D01*
X131485714Y-90161904D01*
X131438095Y-90257142D01*
X131390476Y-90304761D01*
X131295238Y-90352380D01*
X131104761Y-90352380D01*
X131009523Y-90304761D01*
X130961904Y-90257142D01*
X130914285Y-90161904D01*
X130914285Y-89923809D01*
X130961904Y-89828571D01*
X131009523Y-89780952D01*
X131104761Y-89733333D01*
X131295238Y-89733333D01*
X131390476Y-89780952D01*
X131438095Y-89828571D01*
X131485714Y-89923809D01*
%TO.C,C11*%
X136942857Y-85257142D02*
X136990476Y-85304761D01*
X137133333Y-85352380D01*
X137228571Y-85352380D01*
X137371428Y-85304761D01*
X137466666Y-85209523D01*
X137514285Y-85114285D01*
X137561904Y-84923809D01*
X137561904Y-84780952D01*
X137514285Y-84590476D01*
X137466666Y-84495238D01*
X137371428Y-84400000D01*
X137228571Y-84352380D01*
X137133333Y-84352380D01*
X136990476Y-84400000D01*
X136942857Y-84447619D01*
X135990476Y-85352380D02*
X136561904Y-85352380D01*
X136276190Y-85352380D02*
X136276190Y-84352380D01*
X136371428Y-84495238D01*
X136466666Y-84590476D01*
X136561904Y-84638095D01*
X135038095Y-85352380D02*
X135609523Y-85352380D01*
X135323809Y-85352380D02*
X135323809Y-84352380D01*
X135419047Y-84495238D01*
X135514285Y-84590476D01*
X135609523Y-84638095D01*
%TO.C,C12*%
X137142857Y-90437142D02*
X137190476Y-90484761D01*
X137333333Y-90532380D01*
X137428571Y-90532380D01*
X137571428Y-90484761D01*
X137666666Y-90389523D01*
X137714285Y-90294285D01*
X137761904Y-90103809D01*
X137761904Y-89960952D01*
X137714285Y-89770476D01*
X137666666Y-89675238D01*
X137571428Y-89580000D01*
X137428571Y-89532380D01*
X137333333Y-89532380D01*
X137190476Y-89580000D01*
X137142857Y-89627619D01*
X136190476Y-90532380D02*
X136761904Y-90532380D01*
X136476190Y-90532380D02*
X136476190Y-89532380D01*
X136571428Y-89675238D01*
X136666666Y-89770476D01*
X136761904Y-89818095D01*
X135809523Y-89627619D02*
X135761904Y-89580000D01*
X135666666Y-89532380D01*
X135428571Y-89532380D01*
X135333333Y-89580000D01*
X135285714Y-89627619D01*
X135238095Y-89722857D01*
X135238095Y-89818095D01*
X135285714Y-89960952D01*
X135857142Y-90532380D01*
X135238095Y-90532380D01*
%TO.C,C20*%
X144537142Y-93757142D02*
X144584761Y-93709523D01*
X144632380Y-93566666D01*
X144632380Y-93471428D01*
X144584761Y-93328571D01*
X144489523Y-93233333D01*
X144394285Y-93185714D01*
X144203809Y-93138095D01*
X144060952Y-93138095D01*
X143870476Y-93185714D01*
X143775238Y-93233333D01*
X143680000Y-93328571D01*
X143632380Y-93471428D01*
X143632380Y-93566666D01*
X143680000Y-93709523D01*
X143727619Y-93757142D01*
X143727619Y-94138095D02*
X143680000Y-94185714D01*
X143632380Y-94280952D01*
X143632380Y-94519047D01*
X143680000Y-94614285D01*
X143727619Y-94661904D01*
X143822857Y-94709523D01*
X143918095Y-94709523D01*
X144060952Y-94661904D01*
X144632380Y-94090476D01*
X144632380Y-94709523D01*
X143632380Y-95328571D02*
X143632380Y-95423809D01*
X143680000Y-95519047D01*
X143727619Y-95566666D01*
X143822857Y-95614285D01*
X144013333Y-95661904D01*
X144251428Y-95661904D01*
X144441904Y-95614285D01*
X144537142Y-95566666D01*
X144584761Y-95519047D01*
X144632380Y-95423809D01*
X144632380Y-95328571D01*
X144584761Y-95233333D01*
X144537142Y-95185714D01*
X144441904Y-95138095D01*
X144251428Y-95090476D01*
X144013333Y-95090476D01*
X143822857Y-95138095D01*
X143727619Y-95185714D01*
X143680000Y-95233333D01*
X143632380Y-95328571D01*
%TO.C,C21*%
X139297142Y-93747142D02*
X139344761Y-93699523D01*
X139392380Y-93556666D01*
X139392380Y-93461428D01*
X139344761Y-93318571D01*
X139249523Y-93223333D01*
X139154285Y-93175714D01*
X138963809Y-93128095D01*
X138820952Y-93128095D01*
X138630476Y-93175714D01*
X138535238Y-93223333D01*
X138440000Y-93318571D01*
X138392380Y-93461428D01*
X138392380Y-93556666D01*
X138440000Y-93699523D01*
X138487619Y-93747142D01*
X138487619Y-94128095D02*
X138440000Y-94175714D01*
X138392380Y-94270952D01*
X138392380Y-94509047D01*
X138440000Y-94604285D01*
X138487619Y-94651904D01*
X138582857Y-94699523D01*
X138678095Y-94699523D01*
X138820952Y-94651904D01*
X139392380Y-94080476D01*
X139392380Y-94699523D01*
X139392380Y-95651904D02*
X139392380Y-95080476D01*
X139392380Y-95366190D02*
X138392380Y-95366190D01*
X138535238Y-95270952D01*
X138630476Y-95175714D01*
X138678095Y-95080476D01*
%TO.C,C22*%
X144537142Y-89757142D02*
X144584761Y-89709523D01*
X144632380Y-89566666D01*
X144632380Y-89471428D01*
X144584761Y-89328571D01*
X144489523Y-89233333D01*
X144394285Y-89185714D01*
X144203809Y-89138095D01*
X144060952Y-89138095D01*
X143870476Y-89185714D01*
X143775238Y-89233333D01*
X143680000Y-89328571D01*
X143632380Y-89471428D01*
X143632380Y-89566666D01*
X143680000Y-89709523D01*
X143727619Y-89757142D01*
X143727619Y-90138095D02*
X143680000Y-90185714D01*
X143632380Y-90280952D01*
X143632380Y-90519047D01*
X143680000Y-90614285D01*
X143727619Y-90661904D01*
X143822857Y-90709523D01*
X143918095Y-90709523D01*
X144060952Y-90661904D01*
X144632380Y-90090476D01*
X144632380Y-90709523D01*
X143727619Y-91090476D02*
X143680000Y-91138095D01*
X143632380Y-91233333D01*
X143632380Y-91471428D01*
X143680000Y-91566666D01*
X143727619Y-91614285D01*
X143822857Y-91661904D01*
X143918095Y-91661904D01*
X144060952Y-91614285D01*
X144632380Y-91042857D01*
X144632380Y-91661904D01*
%TO.C,C23*%
X139367142Y-89807142D02*
X139414761Y-89759523D01*
X139462380Y-89616666D01*
X139462380Y-89521428D01*
X139414761Y-89378571D01*
X139319523Y-89283333D01*
X139224285Y-89235714D01*
X139033809Y-89188095D01*
X138890952Y-89188095D01*
X138700476Y-89235714D01*
X138605238Y-89283333D01*
X138510000Y-89378571D01*
X138462380Y-89521428D01*
X138462380Y-89616666D01*
X138510000Y-89759523D01*
X138557619Y-89807142D01*
X138557619Y-90188095D02*
X138510000Y-90235714D01*
X138462380Y-90330952D01*
X138462380Y-90569047D01*
X138510000Y-90664285D01*
X138557619Y-90711904D01*
X138652857Y-90759523D01*
X138748095Y-90759523D01*
X138890952Y-90711904D01*
X139462380Y-90140476D01*
X139462380Y-90759523D01*
X138462380Y-91092857D02*
X138462380Y-91711904D01*
X138843333Y-91378571D01*
X138843333Y-91521428D01*
X138890952Y-91616666D01*
X138938571Y-91664285D01*
X139033809Y-91711904D01*
X139271904Y-91711904D01*
X139367142Y-91664285D01*
X139414761Y-91616666D01*
X139462380Y-91521428D01*
X139462380Y-91235714D01*
X139414761Y-91140476D01*
X139367142Y-91092857D01*
%TO.C,C24*%
X128842857Y-101757142D02*
X128890476Y-101804761D01*
X129033333Y-101852380D01*
X129128571Y-101852380D01*
X129271428Y-101804761D01*
X129366666Y-101709523D01*
X129414285Y-101614285D01*
X129461904Y-101423809D01*
X129461904Y-101280952D01*
X129414285Y-101090476D01*
X129366666Y-100995238D01*
X129271428Y-100900000D01*
X129128571Y-100852380D01*
X129033333Y-100852380D01*
X128890476Y-100900000D01*
X128842857Y-100947619D01*
X128461904Y-100947619D02*
X128414285Y-100900000D01*
X128319047Y-100852380D01*
X128080952Y-100852380D01*
X127985714Y-100900000D01*
X127938095Y-100947619D01*
X127890476Y-101042857D01*
X127890476Y-101138095D01*
X127938095Y-101280952D01*
X128509523Y-101852380D01*
X127890476Y-101852380D01*
X127033333Y-101185714D02*
X127033333Y-101852380D01*
X127271428Y-100804761D02*
X127509523Y-101519047D01*
X126890476Y-101519047D01*
%TO.C,C25*%
X128942857Y-100357142D02*
X128990476Y-100404761D01*
X129133333Y-100452380D01*
X129228571Y-100452380D01*
X129371428Y-100404761D01*
X129466666Y-100309523D01*
X129514285Y-100214285D01*
X129561904Y-100023809D01*
X129561904Y-99880952D01*
X129514285Y-99690476D01*
X129466666Y-99595238D01*
X129371428Y-99500000D01*
X129228571Y-99452380D01*
X129133333Y-99452380D01*
X128990476Y-99500000D01*
X128942857Y-99547619D01*
X128561904Y-99547619D02*
X128514285Y-99500000D01*
X128419047Y-99452380D01*
X128180952Y-99452380D01*
X128085714Y-99500000D01*
X128038095Y-99547619D01*
X127990476Y-99642857D01*
X127990476Y-99738095D01*
X128038095Y-99880952D01*
X128609523Y-100452380D01*
X127990476Y-100452380D01*
X127085714Y-99452380D02*
X127561904Y-99452380D01*
X127609523Y-99928571D01*
X127561904Y-99880952D01*
X127466666Y-99833333D01*
X127228571Y-99833333D01*
X127133333Y-99880952D01*
X127085714Y-99928571D01*
X127038095Y-100023809D01*
X127038095Y-100261904D01*
X127085714Y-100357142D01*
X127133333Y-100404761D01*
X127228571Y-100452380D01*
X127466666Y-100452380D01*
X127561904Y-100404761D01*
X127609523Y-100357142D01*
%TO.C,C28*%
X140542857Y-101657142D02*
X140590476Y-101704761D01*
X140733333Y-101752380D01*
X140828571Y-101752380D01*
X140971428Y-101704761D01*
X141066666Y-101609523D01*
X141114285Y-101514285D01*
X141161904Y-101323809D01*
X141161904Y-101180952D01*
X141114285Y-100990476D01*
X141066666Y-100895238D01*
X140971428Y-100800000D01*
X140828571Y-100752380D01*
X140733333Y-100752380D01*
X140590476Y-100800000D01*
X140542857Y-100847619D01*
X140161904Y-100847619D02*
X140114285Y-100800000D01*
X140019047Y-100752380D01*
X139780952Y-100752380D01*
X139685714Y-100800000D01*
X139638095Y-100847619D01*
X139590476Y-100942857D01*
X139590476Y-101038095D01*
X139638095Y-101180952D01*
X140209523Y-101752380D01*
X139590476Y-101752380D01*
X139019047Y-101180952D02*
X139114285Y-101133333D01*
X139161904Y-101085714D01*
X139209523Y-100990476D01*
X139209523Y-100942857D01*
X139161904Y-100847619D01*
X139114285Y-100800000D01*
X139019047Y-100752380D01*
X138828571Y-100752380D01*
X138733333Y-100800000D01*
X138685714Y-100847619D01*
X138638095Y-100942857D01*
X138638095Y-100990476D01*
X138685714Y-101085714D01*
X138733333Y-101133333D01*
X138828571Y-101180952D01*
X139019047Y-101180952D01*
X139114285Y-101228571D01*
X139161904Y-101276190D01*
X139209523Y-101371428D01*
X139209523Y-101561904D01*
X139161904Y-101657142D01*
X139114285Y-101704761D01*
X139019047Y-101752380D01*
X138828571Y-101752380D01*
X138733333Y-101704761D01*
X138685714Y-101657142D01*
X138638095Y-101561904D01*
X138638095Y-101371428D01*
X138685714Y-101276190D01*
X138733333Y-101228571D01*
X138828571Y-101180952D01*
%TO.C,C29*%
X140442857Y-99957142D02*
X140490476Y-100004761D01*
X140633333Y-100052380D01*
X140728571Y-100052380D01*
X140871428Y-100004761D01*
X140966666Y-99909523D01*
X141014285Y-99814285D01*
X141061904Y-99623809D01*
X141061904Y-99480952D01*
X141014285Y-99290476D01*
X140966666Y-99195238D01*
X140871428Y-99100000D01*
X140728571Y-99052380D01*
X140633333Y-99052380D01*
X140490476Y-99100000D01*
X140442857Y-99147619D01*
X140061904Y-99147619D02*
X140014285Y-99100000D01*
X139919047Y-99052380D01*
X139680952Y-99052380D01*
X139585714Y-99100000D01*
X139538095Y-99147619D01*
X139490476Y-99242857D01*
X139490476Y-99338095D01*
X139538095Y-99480952D01*
X140109523Y-100052380D01*
X139490476Y-100052380D01*
X139014285Y-100052380D02*
X138823809Y-100052380D01*
X138728571Y-100004761D01*
X138680952Y-99957142D01*
X138585714Y-99814285D01*
X138538095Y-99623809D01*
X138538095Y-99242857D01*
X138585714Y-99147619D01*
X138633333Y-99100000D01*
X138728571Y-99052380D01*
X138919047Y-99052380D01*
X139014285Y-99100000D01*
X139061904Y-99147619D01*
X139109523Y-99242857D01*
X139109523Y-99480952D01*
X139061904Y-99576190D01*
X139014285Y-99623809D01*
X138919047Y-99671428D01*
X138728571Y-99671428D01*
X138633333Y-99623809D01*
X138585714Y-99576190D01*
X138538095Y-99480952D01*
%TO.C,C31*%
X143242857Y-82657142D02*
X143290476Y-82704761D01*
X143433333Y-82752380D01*
X143528571Y-82752380D01*
X143671428Y-82704761D01*
X143766666Y-82609523D01*
X143814285Y-82514285D01*
X143861904Y-82323809D01*
X143861904Y-82180952D01*
X143814285Y-81990476D01*
X143766666Y-81895238D01*
X143671428Y-81800000D01*
X143528571Y-81752380D01*
X143433333Y-81752380D01*
X143290476Y-81800000D01*
X143242857Y-81847619D01*
X142909523Y-81752380D02*
X142290476Y-81752380D01*
X142623809Y-82133333D01*
X142480952Y-82133333D01*
X142385714Y-82180952D01*
X142338095Y-82228571D01*
X142290476Y-82323809D01*
X142290476Y-82561904D01*
X142338095Y-82657142D01*
X142385714Y-82704761D01*
X142480952Y-82752380D01*
X142766666Y-82752380D01*
X142861904Y-82704761D01*
X142909523Y-82657142D01*
X141338095Y-82752380D02*
X141909523Y-82752380D01*
X141623809Y-82752380D02*
X141623809Y-81752380D01*
X141719047Y-81895238D01*
X141814285Y-81990476D01*
X141909523Y-82038095D01*
%TO.C,C32*%
X140142857Y-86437142D02*
X140190476Y-86484761D01*
X140333333Y-86532380D01*
X140428571Y-86532380D01*
X140571428Y-86484761D01*
X140666666Y-86389523D01*
X140714285Y-86294285D01*
X140761904Y-86103809D01*
X140761904Y-85960952D01*
X140714285Y-85770476D01*
X140666666Y-85675238D01*
X140571428Y-85580000D01*
X140428571Y-85532380D01*
X140333333Y-85532380D01*
X140190476Y-85580000D01*
X140142857Y-85627619D01*
X139809523Y-85532380D02*
X139190476Y-85532380D01*
X139523809Y-85913333D01*
X139380952Y-85913333D01*
X139285714Y-85960952D01*
X139238095Y-86008571D01*
X139190476Y-86103809D01*
X139190476Y-86341904D01*
X139238095Y-86437142D01*
X139285714Y-86484761D01*
X139380952Y-86532380D01*
X139666666Y-86532380D01*
X139761904Y-86484761D01*
X139809523Y-86437142D01*
X138809523Y-85627619D02*
X138761904Y-85580000D01*
X138666666Y-85532380D01*
X138428571Y-85532380D01*
X138333333Y-85580000D01*
X138285714Y-85627619D01*
X138238095Y-85722857D01*
X138238095Y-85818095D01*
X138285714Y-85960952D01*
X138857142Y-86532380D01*
X138238095Y-86532380D01*
%TO.C,C33*%
X125957142Y-93557142D02*
X126004761Y-93509523D01*
X126052380Y-93366666D01*
X126052380Y-93271428D01*
X126004761Y-93128571D01*
X125909523Y-93033333D01*
X125814285Y-92985714D01*
X125623809Y-92938095D01*
X125480952Y-92938095D01*
X125290476Y-92985714D01*
X125195238Y-93033333D01*
X125100000Y-93128571D01*
X125052380Y-93271428D01*
X125052380Y-93366666D01*
X125100000Y-93509523D01*
X125147619Y-93557142D01*
X125052380Y-93890476D02*
X125052380Y-94509523D01*
X125433333Y-94176190D01*
X125433333Y-94319047D01*
X125480952Y-94414285D01*
X125528571Y-94461904D01*
X125623809Y-94509523D01*
X125861904Y-94509523D01*
X125957142Y-94461904D01*
X126004761Y-94414285D01*
X126052380Y-94319047D01*
X126052380Y-94033333D01*
X126004761Y-93938095D01*
X125957142Y-93890476D01*
X125052380Y-94842857D02*
X125052380Y-95461904D01*
X125433333Y-95128571D01*
X125433333Y-95271428D01*
X125480952Y-95366666D01*
X125528571Y-95414285D01*
X125623809Y-95461904D01*
X125861904Y-95461904D01*
X125957142Y-95414285D01*
X126004761Y-95366666D01*
X126052380Y-95271428D01*
X126052380Y-94985714D01*
X126004761Y-94890476D01*
X125957142Y-94842857D01*
%TO.C,C34*%
X128057142Y-93557142D02*
X128104761Y-93509523D01*
X128152380Y-93366666D01*
X128152380Y-93271428D01*
X128104761Y-93128571D01*
X128009523Y-93033333D01*
X127914285Y-92985714D01*
X127723809Y-92938095D01*
X127580952Y-92938095D01*
X127390476Y-92985714D01*
X127295238Y-93033333D01*
X127200000Y-93128571D01*
X127152380Y-93271428D01*
X127152380Y-93366666D01*
X127200000Y-93509523D01*
X127247619Y-93557142D01*
X127152380Y-93890476D02*
X127152380Y-94509523D01*
X127533333Y-94176190D01*
X127533333Y-94319047D01*
X127580952Y-94414285D01*
X127628571Y-94461904D01*
X127723809Y-94509523D01*
X127961904Y-94509523D01*
X128057142Y-94461904D01*
X128104761Y-94414285D01*
X128152380Y-94319047D01*
X128152380Y-94033333D01*
X128104761Y-93938095D01*
X128057142Y-93890476D01*
X127485714Y-95366666D02*
X128152380Y-95366666D01*
X127104761Y-95128571D02*
X127819047Y-94890476D01*
X127819047Y-95509523D01*
%TO.C,R3*%
X178666666Y-111252380D02*
X179000000Y-110776190D01*
X179238095Y-111252380D02*
X179238095Y-110252380D01*
X178857142Y-110252380D01*
X178761904Y-110300000D01*
X178714285Y-110347619D01*
X178666666Y-110442857D01*
X178666666Y-110585714D01*
X178714285Y-110680952D01*
X178761904Y-110728571D01*
X178857142Y-110776190D01*
X179238095Y-110776190D01*
X178333333Y-110252380D02*
X177714285Y-110252380D01*
X178047619Y-110633333D01*
X177904761Y-110633333D01*
X177809523Y-110680952D01*
X177761904Y-110728571D01*
X177714285Y-110823809D01*
X177714285Y-111061904D01*
X177761904Y-111157142D01*
X177809523Y-111204761D01*
X177904761Y-111252380D01*
X178190476Y-111252380D01*
X178285714Y-111204761D01*
X178333333Y-111157142D01*
%TO.C,R4*%
X172466666Y-91102380D02*
X172800000Y-90626190D01*
X173038095Y-91102380D02*
X173038095Y-90102380D01*
X172657142Y-90102380D01*
X172561904Y-90150000D01*
X172514285Y-90197619D01*
X172466666Y-90292857D01*
X172466666Y-90435714D01*
X172514285Y-90530952D01*
X172561904Y-90578571D01*
X172657142Y-90626190D01*
X173038095Y-90626190D01*
X171609523Y-90435714D02*
X171609523Y-91102380D01*
X171847619Y-90054761D02*
X172085714Y-90769047D01*
X171466666Y-90769047D01*
%TO.C,R5*%
X167666666Y-111252380D02*
X168000000Y-110776190D01*
X168238095Y-111252380D02*
X168238095Y-110252380D01*
X167857142Y-110252380D01*
X167761904Y-110300000D01*
X167714285Y-110347619D01*
X167666666Y-110442857D01*
X167666666Y-110585714D01*
X167714285Y-110680952D01*
X167761904Y-110728571D01*
X167857142Y-110776190D01*
X168238095Y-110776190D01*
X166761904Y-110252380D02*
X167238095Y-110252380D01*
X167285714Y-110728571D01*
X167238095Y-110680952D01*
X167142857Y-110633333D01*
X166904761Y-110633333D01*
X166809523Y-110680952D01*
X166761904Y-110728571D01*
X166714285Y-110823809D01*
X166714285Y-111061904D01*
X166761904Y-111157142D01*
X166809523Y-111204761D01*
X166904761Y-111252380D01*
X167142857Y-111252380D01*
X167238095Y-111204761D01*
X167285714Y-111157142D01*
%TO.C,R6*%
X182666666Y-111252380D02*
X183000000Y-110776190D01*
X183238095Y-111252380D02*
X183238095Y-110252380D01*
X182857142Y-110252380D01*
X182761904Y-110300000D01*
X182714285Y-110347619D01*
X182666666Y-110442857D01*
X182666666Y-110585714D01*
X182714285Y-110680952D01*
X182761904Y-110728571D01*
X182857142Y-110776190D01*
X183238095Y-110776190D01*
X181809523Y-110252380D02*
X182000000Y-110252380D01*
X182095238Y-110300000D01*
X182142857Y-110347619D01*
X182238095Y-110490476D01*
X182285714Y-110680952D01*
X182285714Y-111061904D01*
X182238095Y-111157142D01*
X182190476Y-111204761D01*
X182095238Y-111252380D01*
X181904761Y-111252380D01*
X181809523Y-111204761D01*
X181761904Y-111157142D01*
X181714285Y-111061904D01*
X181714285Y-110823809D01*
X181761904Y-110728571D01*
X181809523Y-110680952D01*
X181904761Y-110633333D01*
X182095238Y-110633333D01*
X182190476Y-110680952D01*
X182238095Y-110728571D01*
X182285714Y-110823809D01*
%TO.C,R7*%
X139666666Y-79422380D02*
X140000000Y-78946190D01*
X140238095Y-79422380D02*
X140238095Y-78422380D01*
X139857142Y-78422380D01*
X139761904Y-78470000D01*
X139714285Y-78517619D01*
X139666666Y-78612857D01*
X139666666Y-78755714D01*
X139714285Y-78850952D01*
X139761904Y-78898571D01*
X139857142Y-78946190D01*
X140238095Y-78946190D01*
X139333333Y-78422380D02*
X138666666Y-78422380D01*
X139095238Y-79422380D01*
%TO.C,R8*%
X131666666Y-78852380D02*
X132000000Y-78376190D01*
X132238095Y-78852380D02*
X132238095Y-77852380D01*
X131857142Y-77852380D01*
X131761904Y-77900000D01*
X131714285Y-77947619D01*
X131666666Y-78042857D01*
X131666666Y-78185714D01*
X131714285Y-78280952D01*
X131761904Y-78328571D01*
X131857142Y-78376190D01*
X132238095Y-78376190D01*
X131095238Y-78280952D02*
X131190476Y-78233333D01*
X131238095Y-78185714D01*
X131285714Y-78090476D01*
X131285714Y-78042857D01*
X131238095Y-77947619D01*
X131190476Y-77900000D01*
X131095238Y-77852380D01*
X130904761Y-77852380D01*
X130809523Y-77900000D01*
X130761904Y-77947619D01*
X130714285Y-78042857D01*
X130714285Y-78090476D01*
X130761904Y-78185714D01*
X130809523Y-78233333D01*
X130904761Y-78280952D01*
X131095238Y-78280952D01*
X131190476Y-78328571D01*
X131238095Y-78376190D01*
X131285714Y-78471428D01*
X131285714Y-78661904D01*
X131238095Y-78757142D01*
X131190476Y-78804761D01*
X131095238Y-78852380D01*
X130904761Y-78852380D01*
X130809523Y-78804761D01*
X130761904Y-78757142D01*
X130714285Y-78661904D01*
X130714285Y-78471428D01*
X130761904Y-78376190D01*
X130809523Y-78328571D01*
X130904761Y-78280952D01*
%TO.C,R9*%
X186466666Y-94652380D02*
X186800000Y-94176190D01*
X187038095Y-94652380D02*
X187038095Y-93652380D01*
X186657142Y-93652380D01*
X186561904Y-93700000D01*
X186514285Y-93747619D01*
X186466666Y-93842857D01*
X186466666Y-93985714D01*
X186514285Y-94080952D01*
X186561904Y-94128571D01*
X186657142Y-94176190D01*
X187038095Y-94176190D01*
X185990476Y-94652380D02*
X185800000Y-94652380D01*
X185704761Y-94604761D01*
X185657142Y-94557142D01*
X185561904Y-94414285D01*
X185514285Y-94223809D01*
X185514285Y-93842857D01*
X185561904Y-93747619D01*
X185609523Y-93700000D01*
X185704761Y-93652380D01*
X185895238Y-93652380D01*
X185990476Y-93700000D01*
X186038095Y-93747619D01*
X186085714Y-93842857D01*
X186085714Y-94080952D01*
X186038095Y-94176190D01*
X185990476Y-94223809D01*
X185895238Y-94271428D01*
X185704761Y-94271428D01*
X185609523Y-94223809D01*
X185561904Y-94176190D01*
X185514285Y-94080952D01*
%TO.C,R10*%
X136952380Y-77757142D02*
X136476190Y-77423809D01*
X136952380Y-77185714D02*
X135952380Y-77185714D01*
X135952380Y-77566666D01*
X136000000Y-77661904D01*
X136047619Y-77709523D01*
X136142857Y-77757142D01*
X136285714Y-77757142D01*
X136380952Y-77709523D01*
X136428571Y-77661904D01*
X136476190Y-77566666D01*
X136476190Y-77185714D01*
X136952380Y-78709523D02*
X136952380Y-78138095D01*
X136952380Y-78423809D02*
X135952380Y-78423809D01*
X136095238Y-78328571D01*
X136190476Y-78233333D01*
X136238095Y-78138095D01*
X135952380Y-79328571D02*
X135952380Y-79423809D01*
X136000000Y-79519047D01*
X136047619Y-79566666D01*
X136142857Y-79614285D01*
X136333333Y-79661904D01*
X136571428Y-79661904D01*
X136761904Y-79614285D01*
X136857142Y-79566666D01*
X136904761Y-79519047D01*
X136952380Y-79423809D01*
X136952380Y-79328571D01*
X136904761Y-79233333D01*
X136857142Y-79185714D01*
X136761904Y-79138095D01*
X136571428Y-79090476D01*
X136333333Y-79090476D01*
X136142857Y-79138095D01*
X136047619Y-79185714D01*
X136000000Y-79233333D01*
X135952380Y-79328571D01*
%TO.C,R11*%
X194142857Y-111252380D02*
X194476190Y-110776190D01*
X194714285Y-111252380D02*
X194714285Y-110252380D01*
X194333333Y-110252380D01*
X194238095Y-110300000D01*
X194190476Y-110347619D01*
X194142857Y-110442857D01*
X194142857Y-110585714D01*
X194190476Y-110680952D01*
X194238095Y-110728571D01*
X194333333Y-110776190D01*
X194714285Y-110776190D01*
X193190476Y-111252380D02*
X193761904Y-111252380D01*
X193476190Y-111252380D02*
X193476190Y-110252380D01*
X193571428Y-110395238D01*
X193666666Y-110490476D01*
X193761904Y-110538095D01*
X192238095Y-111252380D02*
X192809523Y-111252380D01*
X192523809Y-111252380D02*
X192523809Y-110252380D01*
X192619047Y-110395238D01*
X192714285Y-110490476D01*
X192809523Y-110538095D01*
%TO.C,R12*%
X189642857Y-97002380D02*
X189976190Y-96526190D01*
X190214285Y-97002380D02*
X190214285Y-96002380D01*
X189833333Y-96002380D01*
X189738095Y-96050000D01*
X189690476Y-96097619D01*
X189642857Y-96192857D01*
X189642857Y-96335714D01*
X189690476Y-96430952D01*
X189738095Y-96478571D01*
X189833333Y-96526190D01*
X190214285Y-96526190D01*
X188690476Y-97002380D02*
X189261904Y-97002380D01*
X188976190Y-97002380D02*
X188976190Y-96002380D01*
X189071428Y-96145238D01*
X189166666Y-96240476D01*
X189261904Y-96288095D01*
X188309523Y-96097619D02*
X188261904Y-96050000D01*
X188166666Y-96002380D01*
X187928571Y-96002380D01*
X187833333Y-96050000D01*
X187785714Y-96097619D01*
X187738095Y-96192857D01*
X187738095Y-96288095D01*
X187785714Y-96430952D01*
X188357142Y-97002380D01*
X187738095Y-97002380D01*
%TO.C,R13*%
X134952380Y-77757142D02*
X134476190Y-77423809D01*
X134952380Y-77185714D02*
X133952380Y-77185714D01*
X133952380Y-77566666D01*
X134000000Y-77661904D01*
X134047619Y-77709523D01*
X134142857Y-77757142D01*
X134285714Y-77757142D01*
X134380952Y-77709523D01*
X134428571Y-77661904D01*
X134476190Y-77566666D01*
X134476190Y-77185714D01*
X134952380Y-78709523D02*
X134952380Y-78138095D01*
X134952380Y-78423809D02*
X133952380Y-78423809D01*
X134095238Y-78328571D01*
X134190476Y-78233333D01*
X134238095Y-78138095D01*
X133952380Y-79042857D02*
X133952380Y-79661904D01*
X134333333Y-79328571D01*
X134333333Y-79471428D01*
X134380952Y-79566666D01*
X134428571Y-79614285D01*
X134523809Y-79661904D01*
X134761904Y-79661904D01*
X134857142Y-79614285D01*
X134904761Y-79566666D01*
X134952380Y-79471428D01*
X134952380Y-79185714D01*
X134904761Y-79090476D01*
X134857142Y-79042857D01*
%TO.C,J2*%
X165683333Y-101052380D02*
X165683333Y-101766666D01*
X165730952Y-101909523D01*
X165826190Y-102004761D01*
X165969047Y-102052380D01*
X166064285Y-102052380D01*
X165254761Y-101147619D02*
X165207142Y-101100000D01*
X165111904Y-101052380D01*
X164873809Y-101052380D01*
X164778571Y-101100000D01*
X164730952Y-101147619D01*
X164683333Y-101242857D01*
X164683333Y-101338095D01*
X164730952Y-101480952D01*
X165302380Y-102052380D01*
X164683333Y-102052380D01*
%TD*%
M02*
