%TF.GenerationSoftware,KiCad,Pcbnew,5.1.9+dfsg1-1+deb11u1*%
%TF.CreationDate,2025-10-24T14:32:27+02:00*%
%TF.ProjectId,VERA-XE-HDMI-Expansion,56455241-2d58-4452-9d48-444d492d4578,1.1*%
%TF.SameCoordinates,Original*%
%TF.FileFunction,Legend,Bot*%
%TF.FilePolarity,Positive*%
%FSLAX46Y46*%
G04 Gerber Fmt 4.6, Leading zero omitted, Abs format (unit mm)*
G04 Created by KiCad (PCBNEW 5.1.9+dfsg1-1+deb11u1) date 2025-10-24 14:32:27*
%MOMM*%
%LPD*%
G01*
G04 APERTURE LIST*
%ADD10C,0.150000*%
%ADD11C,0.120000*%
%ADD12C,0.010000*%
G04 APERTURE END LIST*
D10*
X165683333Y-78552380D02*
X165683333Y-77885714D01*
X165683333Y-77552380D02*
X165730952Y-77600000D01*
X165683333Y-77647619D01*
X165635714Y-77600000D01*
X165683333Y-77552380D01*
X165683333Y-77647619D01*
X165207142Y-77885714D02*
X165207142Y-78552380D01*
X165207142Y-77980952D02*
X165159523Y-77933333D01*
X165064285Y-77885714D01*
X164921428Y-77885714D01*
X164826190Y-77933333D01*
X164778571Y-78028571D01*
X164778571Y-78552380D01*
X163540476Y-78552380D02*
X163540476Y-77885714D01*
X163540476Y-77980952D02*
X163492857Y-77933333D01*
X163397619Y-77885714D01*
X163254761Y-77885714D01*
X163159523Y-77933333D01*
X163111904Y-78028571D01*
X163111904Y-78552380D01*
X163111904Y-78028571D02*
X163064285Y-77933333D01*
X162969047Y-77885714D01*
X162826190Y-77885714D01*
X162730952Y-77933333D01*
X162683333Y-78028571D01*
X162683333Y-78552380D01*
X161826190Y-78504761D02*
X161921428Y-78552380D01*
X162111904Y-78552380D01*
X162207142Y-78504761D01*
X162254761Y-78409523D01*
X162254761Y-78028571D01*
X162207142Y-77933333D01*
X162111904Y-77885714D01*
X161921428Y-77885714D01*
X161826190Y-77933333D01*
X161778571Y-78028571D01*
X161778571Y-78123809D01*
X162254761Y-78219047D01*
X161350000Y-78552380D02*
X161350000Y-77885714D01*
X161350000Y-77980952D02*
X161302380Y-77933333D01*
X161207142Y-77885714D01*
X161064285Y-77885714D01*
X160969047Y-77933333D01*
X160921428Y-78028571D01*
X160921428Y-78552380D01*
X160921428Y-78028571D02*
X160873809Y-77933333D01*
X160778571Y-77885714D01*
X160635714Y-77885714D01*
X160540476Y-77933333D01*
X160492857Y-78028571D01*
X160492857Y-78552380D01*
X159873809Y-78552380D02*
X159969047Y-78504761D01*
X160016666Y-78457142D01*
X160064285Y-78361904D01*
X160064285Y-78076190D01*
X160016666Y-77980952D01*
X159969047Y-77933333D01*
X159873809Y-77885714D01*
X159730952Y-77885714D01*
X159635714Y-77933333D01*
X159588095Y-77980952D01*
X159540476Y-78076190D01*
X159540476Y-78361904D01*
X159588095Y-78457142D01*
X159635714Y-78504761D01*
X159730952Y-78552380D01*
X159873809Y-78552380D01*
X159111904Y-78552380D02*
X159111904Y-77885714D01*
X159111904Y-78076190D02*
X159064285Y-77980952D01*
X159016666Y-77933333D01*
X158921428Y-77885714D01*
X158826190Y-77885714D01*
X158492857Y-78552380D02*
X158492857Y-77885714D01*
X158492857Y-77552380D02*
X158540476Y-77600000D01*
X158492857Y-77647619D01*
X158445238Y-77600000D01*
X158492857Y-77552380D01*
X158492857Y-77647619D01*
X157588095Y-78552380D02*
X157588095Y-78028571D01*
X157635714Y-77933333D01*
X157730952Y-77885714D01*
X157921428Y-77885714D01*
X158016666Y-77933333D01*
X157588095Y-78504761D02*
X157683333Y-78552380D01*
X157921428Y-78552380D01*
X158016666Y-78504761D01*
X158064285Y-78409523D01*
X158064285Y-78314285D01*
X158016666Y-78219047D01*
X157921428Y-78171428D01*
X157683333Y-78171428D01*
X157588095Y-78123809D01*
X157111904Y-78552380D02*
X157111904Y-77885714D01*
X157111904Y-77980952D02*
X157064285Y-77933333D01*
X156969047Y-77885714D01*
X156826190Y-77885714D01*
X156730952Y-77933333D01*
X156683333Y-78028571D01*
X156683333Y-78552380D01*
X156683333Y-78028571D02*
X156635714Y-77933333D01*
X156540476Y-77885714D01*
X156397619Y-77885714D01*
X156302380Y-77933333D01*
X156254761Y-78028571D01*
X156254761Y-78552380D01*
X155064285Y-78266666D02*
X154588095Y-78266666D01*
X155159523Y-78552380D02*
X154826190Y-77552380D01*
X154492857Y-78552380D01*
X154159523Y-78457142D02*
X154111904Y-78504761D01*
X154159523Y-78552380D01*
X154207142Y-78504761D01*
X154159523Y-78457142D01*
X154159523Y-78552380D01*
X153730952Y-78504761D02*
X153588095Y-78552380D01*
X153350000Y-78552380D01*
X153254761Y-78504761D01*
X153207142Y-78457142D01*
X153159523Y-78361904D01*
X153159523Y-78266666D01*
X153207142Y-78171428D01*
X153254761Y-78123809D01*
X153350000Y-78076190D01*
X153540476Y-78028571D01*
X153635714Y-77980952D01*
X153683333Y-77933333D01*
X153730952Y-77838095D01*
X153730952Y-77742857D01*
X153683333Y-77647619D01*
X153635714Y-77600000D01*
X153540476Y-77552380D01*
X153302380Y-77552380D01*
X153159523Y-77600000D01*
X152730952Y-78457142D02*
X152683333Y-78504761D01*
X152730952Y-78552380D01*
X152778571Y-78504761D01*
X152730952Y-78457142D01*
X152730952Y-78552380D01*
X151492857Y-78171428D02*
X150730952Y-78171428D01*
X148969047Y-77600000D02*
X149064285Y-77552380D01*
X149207142Y-77552380D01*
X149350000Y-77600000D01*
X149445238Y-77695238D01*
X149492857Y-77790476D01*
X149540476Y-77980952D01*
X149540476Y-78123809D01*
X149492857Y-78314285D01*
X149445238Y-78409523D01*
X149350000Y-78504761D01*
X149207142Y-78552380D01*
X149111904Y-78552380D01*
X148969047Y-78504761D01*
X148921428Y-78457142D01*
X148921428Y-78123809D01*
X149111904Y-78123809D01*
X148492857Y-78457142D02*
X148445238Y-78504761D01*
X148492857Y-78552380D01*
X148540476Y-78504761D01*
X148492857Y-78457142D01*
X148492857Y-78552380D01*
X148016666Y-78552380D02*
X148016666Y-77552380D01*
X147778571Y-77552380D01*
X147635714Y-77600000D01*
X147540476Y-77695238D01*
X147492857Y-77790476D01*
X147445238Y-77980952D01*
X147445238Y-78123809D01*
X147492857Y-78314285D01*
X147540476Y-78409523D01*
X147635714Y-78504761D01*
X147778571Y-78552380D01*
X148016666Y-78552380D01*
X147016666Y-78457142D02*
X146969047Y-78504761D01*
X147016666Y-78552380D01*
X147064285Y-78504761D01*
X147016666Y-78457142D01*
X147016666Y-78552380D01*
X179573809Y-83753571D02*
X179907142Y-83753571D01*
X179907142Y-84277380D02*
X179907142Y-83277380D01*
X179430952Y-83277380D01*
X179050000Y-84277380D02*
X179050000Y-83610714D01*
X179050000Y-83801190D02*
X179002380Y-83705952D01*
X178954761Y-83658333D01*
X178859523Y-83610714D01*
X178764285Y-83610714D01*
X178288095Y-84277380D02*
X178383333Y-84229761D01*
X178430952Y-84182142D01*
X178478571Y-84086904D01*
X178478571Y-83801190D01*
X178430952Y-83705952D01*
X178383333Y-83658333D01*
X178288095Y-83610714D01*
X178145238Y-83610714D01*
X178050000Y-83658333D01*
X178002380Y-83705952D01*
X177954761Y-83801190D01*
X177954761Y-84086904D01*
X178002380Y-84182142D01*
X178050000Y-84229761D01*
X178145238Y-84277380D01*
X178288095Y-84277380D01*
X177526190Y-84277380D02*
X177526190Y-83610714D01*
X177526190Y-83705952D02*
X177478571Y-83658333D01*
X177383333Y-83610714D01*
X177240476Y-83610714D01*
X177145238Y-83658333D01*
X177097619Y-83753571D01*
X177097619Y-84277380D01*
X177097619Y-83753571D02*
X177050000Y-83658333D01*
X176954761Y-83610714D01*
X176811904Y-83610714D01*
X176716666Y-83658333D01*
X176669047Y-83753571D01*
X176669047Y-84277380D01*
X175573809Y-83277380D02*
X175002380Y-83277380D01*
X175288095Y-84277380D02*
X175288095Y-83277380D01*
X174669047Y-84277380D02*
X174669047Y-83277380D01*
X174240476Y-84277380D02*
X174240476Y-83753571D01*
X174288095Y-83658333D01*
X174383333Y-83610714D01*
X174526190Y-83610714D01*
X174621428Y-83658333D01*
X174669047Y-83705952D01*
X173383333Y-84229761D02*
X173478571Y-84277380D01*
X173669047Y-84277380D01*
X173764285Y-84229761D01*
X173811904Y-84134523D01*
X173811904Y-83753571D01*
X173764285Y-83658333D01*
X173669047Y-83610714D01*
X173478571Y-83610714D01*
X173383333Y-83658333D01*
X173335714Y-83753571D01*
X173335714Y-83848809D01*
X173811904Y-83944047D01*
X172002380Y-83705952D02*
X172097619Y-83658333D01*
X172145238Y-83610714D01*
X172192857Y-83515476D01*
X172192857Y-83467857D01*
X172145238Y-83372619D01*
X172097619Y-83325000D01*
X172002380Y-83277380D01*
X171811904Y-83277380D01*
X171716666Y-83325000D01*
X171669047Y-83372619D01*
X171621428Y-83467857D01*
X171621428Y-83515476D01*
X171669047Y-83610714D01*
X171716666Y-83658333D01*
X171811904Y-83705952D01*
X172002380Y-83705952D01*
X172097619Y-83753571D01*
X172145238Y-83801190D01*
X172192857Y-83896428D01*
X172192857Y-84086904D01*
X172145238Y-84182142D01*
X172097619Y-84229761D01*
X172002380Y-84277380D01*
X171811904Y-84277380D01*
X171716666Y-84229761D01*
X171669047Y-84182142D01*
X171621428Y-84086904D01*
X171621428Y-83896428D01*
X171669047Y-83801190D01*
X171716666Y-83753571D01*
X171811904Y-83705952D01*
X170859523Y-83753571D02*
X170716666Y-83801190D01*
X170669047Y-83848809D01*
X170621428Y-83944047D01*
X170621428Y-84086904D01*
X170669047Y-84182142D01*
X170716666Y-84229761D01*
X170811904Y-84277380D01*
X171192857Y-84277380D01*
X171192857Y-83277380D01*
X170859523Y-83277380D01*
X170764285Y-83325000D01*
X170716666Y-83372619D01*
X170669047Y-83467857D01*
X170669047Y-83563095D01*
X170716666Y-83658333D01*
X170764285Y-83705952D01*
X170859523Y-83753571D01*
X171192857Y-83753571D01*
X170192857Y-84277380D02*
X170192857Y-83610714D01*
X170192857Y-83277380D02*
X170240476Y-83325000D01*
X170192857Y-83372619D01*
X170145238Y-83325000D01*
X170192857Y-83277380D01*
X170192857Y-83372619D01*
X169859523Y-83610714D02*
X169478571Y-83610714D01*
X169716666Y-83277380D02*
X169716666Y-84134523D01*
X169669047Y-84229761D01*
X169573809Y-84277380D01*
X169478571Y-84277380D01*
X167859523Y-83325000D02*
X167954761Y-83277380D01*
X168097619Y-83277380D01*
X168240476Y-83325000D01*
X168335714Y-83420238D01*
X168383333Y-83515476D01*
X168430952Y-83705952D01*
X168430952Y-83848809D01*
X168383333Y-84039285D01*
X168335714Y-84134523D01*
X168240476Y-84229761D01*
X168097619Y-84277380D01*
X168002380Y-84277380D01*
X167859523Y-84229761D01*
X167811904Y-84182142D01*
X167811904Y-83848809D01*
X168002380Y-83848809D01*
X166954761Y-83610714D02*
X166954761Y-84277380D01*
X167383333Y-83610714D02*
X167383333Y-84134523D01*
X167335714Y-84229761D01*
X167240476Y-84277380D01*
X167097619Y-84277380D01*
X167002380Y-84229761D01*
X166954761Y-84182142D01*
X166573809Y-83610714D02*
X166335714Y-84277380D01*
X166097619Y-83610714D02*
X166335714Y-84277380D01*
X166430952Y-84515476D01*
X166478571Y-84563095D01*
X166573809Y-84610714D01*
X179478571Y-85879761D02*
X179573809Y-85927380D01*
X179764285Y-85927380D01*
X179859523Y-85879761D01*
X179907142Y-85832142D01*
X179954761Y-85736904D01*
X179954761Y-85451190D01*
X179907142Y-85355952D01*
X179859523Y-85308333D01*
X179764285Y-85260714D01*
X179573809Y-85260714D01*
X179478571Y-85308333D01*
X178907142Y-85927380D02*
X179002380Y-85879761D01*
X179050000Y-85832142D01*
X179097619Y-85736904D01*
X179097619Y-85451190D01*
X179050000Y-85355952D01*
X179002380Y-85308333D01*
X178907142Y-85260714D01*
X178764285Y-85260714D01*
X178669047Y-85308333D01*
X178621428Y-85355952D01*
X178573809Y-85451190D01*
X178573809Y-85736904D01*
X178621428Y-85832142D01*
X178669047Y-85879761D01*
X178764285Y-85927380D01*
X178907142Y-85927380D01*
X178145238Y-85927380D02*
X178145238Y-85260714D01*
X178145238Y-85355952D02*
X178097619Y-85308333D01*
X178002380Y-85260714D01*
X177859523Y-85260714D01*
X177764285Y-85308333D01*
X177716666Y-85403571D01*
X177716666Y-85927380D01*
X177716666Y-85403571D02*
X177669047Y-85308333D01*
X177573809Y-85260714D01*
X177430952Y-85260714D01*
X177335714Y-85308333D01*
X177288095Y-85403571D01*
X177288095Y-85927380D01*
X176811904Y-85260714D02*
X176811904Y-86260714D01*
X176811904Y-85308333D02*
X176716666Y-85260714D01*
X176526190Y-85260714D01*
X176430952Y-85308333D01*
X176383333Y-85355952D01*
X176335714Y-85451190D01*
X176335714Y-85736904D01*
X176383333Y-85832142D01*
X176430952Y-85879761D01*
X176526190Y-85927380D01*
X176716666Y-85927380D01*
X176811904Y-85879761D01*
X175478571Y-85260714D02*
X175478571Y-85927380D01*
X175907142Y-85260714D02*
X175907142Y-85784523D01*
X175859523Y-85879761D01*
X175764285Y-85927380D01*
X175621428Y-85927380D01*
X175526190Y-85879761D01*
X175478571Y-85832142D01*
X175145238Y-85260714D02*
X174764285Y-85260714D01*
X175002380Y-84927380D02*
X175002380Y-85784523D01*
X174954761Y-85879761D01*
X174859523Y-85927380D01*
X174764285Y-85927380D01*
X174050000Y-85879761D02*
X174145238Y-85927380D01*
X174335714Y-85927380D01*
X174430952Y-85879761D01*
X174478571Y-85784523D01*
X174478571Y-85403571D01*
X174430952Y-85308333D01*
X174335714Y-85260714D01*
X174145238Y-85260714D01*
X174050000Y-85308333D01*
X174002380Y-85403571D01*
X174002380Y-85498809D01*
X174478571Y-85594047D01*
X173573809Y-85927380D02*
X173573809Y-85260714D01*
X173573809Y-85451190D02*
X173526190Y-85355952D01*
X173478571Y-85308333D01*
X173383333Y-85260714D01*
X173288095Y-85260714D01*
X172907142Y-84927380D02*
X173002380Y-85117857D01*
X172526190Y-85879761D02*
X172430952Y-85927380D01*
X172240476Y-85927380D01*
X172145238Y-85879761D01*
X172097619Y-85784523D01*
X172097619Y-85736904D01*
X172145238Y-85641666D01*
X172240476Y-85594047D01*
X172383333Y-85594047D01*
X172478571Y-85546428D01*
X172526190Y-85451190D01*
X172526190Y-85403571D01*
X172478571Y-85308333D01*
X172383333Y-85260714D01*
X172240476Y-85260714D01*
X172145238Y-85308333D01*
X170907142Y-85260714D02*
X170907142Y-86260714D01*
X170907142Y-85308333D02*
X170811904Y-85260714D01*
X170621428Y-85260714D01*
X170526190Y-85308333D01*
X170478571Y-85355952D01*
X170430952Y-85451190D01*
X170430952Y-85736904D01*
X170478571Y-85832142D01*
X170526190Y-85879761D01*
X170621428Y-85927380D01*
X170811904Y-85927380D01*
X170907142Y-85879761D01*
X170002380Y-85927380D02*
X170002380Y-85260714D01*
X170002380Y-85451190D02*
X169954761Y-85355952D01*
X169907142Y-85308333D01*
X169811904Y-85260714D01*
X169716666Y-85260714D01*
X169240476Y-85927380D02*
X169335714Y-85879761D01*
X169383333Y-85832142D01*
X169430952Y-85736904D01*
X169430952Y-85451190D01*
X169383333Y-85355952D01*
X169335714Y-85308333D01*
X169240476Y-85260714D01*
X169097619Y-85260714D01*
X169002380Y-85308333D01*
X168954761Y-85355952D01*
X168907142Y-85451190D01*
X168907142Y-85736904D01*
X168954761Y-85832142D01*
X169002380Y-85879761D01*
X169097619Y-85927380D01*
X169240476Y-85927380D01*
X168478571Y-85260714D02*
X168478571Y-86117857D01*
X168526190Y-86213095D01*
X168621428Y-86260714D01*
X168669047Y-86260714D01*
X168478571Y-84927380D02*
X168526190Y-84975000D01*
X168478571Y-85022619D01*
X168430952Y-84975000D01*
X168478571Y-84927380D01*
X168478571Y-85022619D01*
X167621428Y-85879761D02*
X167716666Y-85927380D01*
X167907142Y-85927380D01*
X168002380Y-85879761D01*
X168050000Y-85784523D01*
X168050000Y-85403571D01*
X168002380Y-85308333D01*
X167907142Y-85260714D01*
X167716666Y-85260714D01*
X167621428Y-85308333D01*
X167573809Y-85403571D01*
X167573809Y-85498809D01*
X168050000Y-85594047D01*
X166716666Y-85879761D02*
X166811904Y-85927380D01*
X167002380Y-85927380D01*
X167097619Y-85879761D01*
X167145238Y-85832142D01*
X167192857Y-85736904D01*
X167192857Y-85451190D01*
X167145238Y-85355952D01*
X167097619Y-85308333D01*
X167002380Y-85260714D01*
X166811904Y-85260714D01*
X166716666Y-85308333D01*
X166430952Y-85260714D02*
X166050000Y-85260714D01*
X166288095Y-84927380D02*
X166288095Y-85784523D01*
X166240476Y-85879761D01*
X166145238Y-85927380D01*
X166050000Y-85927380D01*
D11*
%TO.C,C5*%
X131761252Y-85665000D02*
X131238748Y-85665000D01*
X131761252Y-87135000D02*
X131238748Y-87135000D01*
%TO.C,C6*%
X131761252Y-89135000D02*
X131238748Y-89135000D01*
X131761252Y-87665000D02*
X131238748Y-87665000D01*
%TO.C,C11*%
X136238748Y-87135000D02*
X136761252Y-87135000D01*
X136238748Y-85665000D02*
X136761252Y-85665000D01*
%TO.C,C12*%
X136238748Y-87665000D02*
X136761252Y-87665000D01*
X136238748Y-89135000D02*
X136761252Y-89135000D01*
%TO.C,C20*%
X141765000Y-94661252D02*
X141765000Y-94138748D01*
X143235000Y-94661252D02*
X143235000Y-94138748D01*
%TO.C,C21*%
X141235000Y-94661252D02*
X141235000Y-94138748D01*
X139765000Y-94661252D02*
X139765000Y-94138748D01*
%TO.C,C22*%
X141765000Y-90661252D02*
X141765000Y-90138748D01*
X143235000Y-90661252D02*
X143235000Y-90138748D01*
%TO.C,C23*%
X141235000Y-90661252D02*
X141235000Y-90138748D01*
X139765000Y-90661252D02*
X139765000Y-90138748D01*
%TO.C,C24*%
X131238748Y-100665000D02*
X131761252Y-100665000D01*
X131238748Y-102135000D02*
X131761252Y-102135000D01*
%TO.C,C25*%
X131238748Y-100135000D02*
X131761252Y-100135000D01*
X131238748Y-98665000D02*
X131761252Y-98665000D01*
%TO.C,C28*%
X136238748Y-102135000D02*
X136761252Y-102135000D01*
X136238748Y-100665000D02*
X136761252Y-100665000D01*
%TO.C,C29*%
X136238748Y-100135000D02*
X136761252Y-100135000D01*
X136238748Y-98665000D02*
X136761252Y-98665000D01*
%TO.C,C31*%
X139238748Y-81665000D02*
X139761252Y-81665000D01*
X139238748Y-83135000D02*
X139761252Y-83135000D01*
%TO.C,C32*%
X139238748Y-85135000D02*
X139761252Y-85135000D01*
X139238748Y-83665000D02*
X139761252Y-83665000D01*
%TO.C,C33*%
X124765000Y-97138748D02*
X124765000Y-97661252D01*
X126235000Y-97138748D02*
X126235000Y-97661252D01*
%TO.C,C34*%
X128235000Y-97138748D02*
X128235000Y-97661252D01*
X126765000Y-97138748D02*
X126765000Y-97661252D01*
%TO.C,R3*%
X175727064Y-108665000D02*
X175272936Y-108665000D01*
X175727064Y-110135000D02*
X175272936Y-110135000D01*
%TO.C,R4*%
X172727064Y-99135000D02*
X172272936Y-99135000D01*
X172727064Y-97665000D02*
X172272936Y-97665000D01*
%TO.C,R5*%
X170272936Y-110135000D02*
X170727064Y-110135000D01*
X170272936Y-108665000D02*
X170727064Y-108665000D01*
%TO.C,R6*%
X185272936Y-110135000D02*
X185727064Y-110135000D01*
X185272936Y-108665000D02*
X185727064Y-108665000D01*
%TO.C,R7*%
X139754724Y-79877500D02*
X139245276Y-79877500D01*
X139754724Y-80922500D02*
X139245276Y-80922500D01*
%TO.C,R8*%
X131245276Y-79877500D02*
X131754724Y-79877500D01*
X131245276Y-80922500D02*
X131754724Y-80922500D01*
%TO.C,R9*%
X185272936Y-97665000D02*
X185727064Y-97665000D01*
X185272936Y-99135000D02*
X185727064Y-99135000D01*
%TO.C,R10*%
X137235000Y-82172936D02*
X137235000Y-82627064D01*
X135765000Y-82172936D02*
X135765000Y-82627064D01*
%TO.C,R11*%
X189727064Y-110135000D02*
X189272936Y-110135000D01*
X189727064Y-108665000D02*
X189272936Y-108665000D01*
%TO.C,R12*%
X185272936Y-97135000D02*
X185727064Y-97135000D01*
X185272936Y-95665000D02*
X185727064Y-95665000D01*
%TO.C,R13*%
X133765000Y-82172936D02*
X133765000Y-82627064D01*
X135235000Y-82172936D02*
X135235000Y-82627064D01*
D12*
%TO.C,LOGO2*%
G36*
X163365637Y-89066870D02*
G01*
X163310671Y-89108699D01*
X163227373Y-89175531D01*
X163120791Y-89263255D01*
X162995970Y-89367758D01*
X162857959Y-89484928D01*
X162845830Y-89495298D01*
X162682432Y-89634813D01*
X162509675Y-89781853D01*
X162337911Y-89927638D01*
X162177491Y-90063392D01*
X162038766Y-90180336D01*
X161967448Y-90240168D01*
X161618600Y-90532036D01*
X161618600Y-91475145D01*
X161853526Y-91676922D01*
X161966623Y-91774298D01*
X162096103Y-91886174D01*
X162235747Y-92007135D01*
X162379332Y-92131766D01*
X162520637Y-92254653D01*
X162653440Y-92370380D01*
X162771519Y-92473532D01*
X162868654Y-92558696D01*
X162938622Y-92620455D01*
X162971150Y-92649642D01*
X163015545Y-92684866D01*
X163039732Y-92693383D01*
X163041210Y-92689902D01*
X163036319Y-92651774D01*
X163022554Y-92574100D01*
X163001684Y-92465317D01*
X162975476Y-92333866D01*
X162945701Y-92188185D01*
X162914126Y-92036714D01*
X162882522Y-91887892D01*
X162852655Y-91750159D01*
X162826296Y-91631954D01*
X162805214Y-91541715D01*
X162791176Y-91487883D01*
X162786909Y-91476610D01*
X162757419Y-91461628D01*
X162688288Y-91433795D01*
X162588066Y-91396338D01*
X162465301Y-91352482D01*
X162377291Y-91322014D01*
X161986900Y-91188507D01*
X161986900Y-90814642D01*
X162406000Y-90696852D01*
X162549200Y-90656728D01*
X162679590Y-90620420D01*
X162787482Y-90590608D01*
X162863189Y-90569974D01*
X162892431Y-90562279D01*
X162930840Y-90546019D01*
X162959763Y-90512212D01*
X162986446Y-90449241D01*
X163009928Y-90373898D01*
X163031983Y-90298967D01*
X163065686Y-90185106D01*
X163108144Y-90042061D01*
X163156462Y-89879577D01*
X163207748Y-89707398D01*
X163229590Y-89634158D01*
X163277043Y-89472982D01*
X163318360Y-89328553D01*
X163351662Y-89207788D01*
X163375068Y-89117602D01*
X163386698Y-89064914D01*
X163387225Y-89054157D01*
X163365637Y-89066870D01*
G37*
X163365637Y-89066870D02*
X163310671Y-89108699D01*
X163227373Y-89175531D01*
X163120791Y-89263255D01*
X162995970Y-89367758D01*
X162857959Y-89484928D01*
X162845830Y-89495298D01*
X162682432Y-89634813D01*
X162509675Y-89781853D01*
X162337911Y-89927638D01*
X162177491Y-90063392D01*
X162038766Y-90180336D01*
X161967448Y-90240168D01*
X161618600Y-90532036D01*
X161618600Y-91475145D01*
X161853526Y-91676922D01*
X161966623Y-91774298D01*
X162096103Y-91886174D01*
X162235747Y-92007135D01*
X162379332Y-92131766D01*
X162520637Y-92254653D01*
X162653440Y-92370380D01*
X162771519Y-92473532D01*
X162868654Y-92558696D01*
X162938622Y-92620455D01*
X162971150Y-92649642D01*
X163015545Y-92684866D01*
X163039732Y-92693383D01*
X163041210Y-92689902D01*
X163036319Y-92651774D01*
X163022554Y-92574100D01*
X163001684Y-92465317D01*
X162975476Y-92333866D01*
X162945701Y-92188185D01*
X162914126Y-92036714D01*
X162882522Y-91887892D01*
X162852655Y-91750159D01*
X162826296Y-91631954D01*
X162805214Y-91541715D01*
X162791176Y-91487883D01*
X162786909Y-91476610D01*
X162757419Y-91461628D01*
X162688288Y-91433795D01*
X162588066Y-91396338D01*
X162465301Y-91352482D01*
X162377291Y-91322014D01*
X161986900Y-91188507D01*
X161986900Y-90814642D01*
X162406000Y-90696852D01*
X162549200Y-90656728D01*
X162679590Y-90620420D01*
X162787482Y-90590608D01*
X162863189Y-90569974D01*
X162892431Y-90562279D01*
X162930840Y-90546019D01*
X162959763Y-90512212D01*
X162986446Y-90449241D01*
X163009928Y-90373898D01*
X163031983Y-90298967D01*
X163065686Y-90185106D01*
X163108144Y-90042061D01*
X163156462Y-89879577D01*
X163207748Y-89707398D01*
X163229590Y-89634158D01*
X163277043Y-89472982D01*
X163318360Y-89328553D01*
X163351662Y-89207788D01*
X163375068Y-89117602D01*
X163386698Y-89064914D01*
X163387225Y-89054157D01*
X163365637Y-89066870D01*
G36*
X159446344Y-89055961D02*
G01*
X159463810Y-89120661D01*
X159491523Y-89215683D01*
X159526903Y-89331984D01*
X159537441Y-89365879D01*
X159582733Y-89513450D01*
X159635814Y-89690405D01*
X159690882Y-89877178D01*
X159742135Y-90054205D01*
X159755391Y-90100700D01*
X159794941Y-90237377D01*
X159830928Y-90356878D01*
X159860661Y-90450631D01*
X159881446Y-90510068D01*
X159889286Y-90526728D01*
X159918447Y-90539348D01*
X159988819Y-90562963D01*
X160092611Y-90595166D01*
X160222035Y-90633547D01*
X160369300Y-90675697D01*
X160388549Y-90681104D01*
X160869300Y-90815852D01*
X160869300Y-91188465D01*
X160465776Y-91323273D01*
X160331748Y-91368321D01*
X160215720Y-91407839D01*
X160125765Y-91439033D01*
X160069953Y-91459115D01*
X160055367Y-91465190D01*
X160048519Y-91490782D01*
X160033504Y-91557578D01*
X160011989Y-91657447D01*
X159985642Y-91782263D01*
X159956131Y-91923895D01*
X159925124Y-92074216D01*
X159894288Y-92225095D01*
X159865290Y-92368405D01*
X159839799Y-92496016D01*
X159819482Y-92599800D01*
X159806006Y-92671627D01*
X159801039Y-92703370D01*
X159801184Y-92704200D01*
X159820949Y-92688201D01*
X159874887Y-92642638D01*
X159958734Y-92571163D01*
X160068227Y-92477425D01*
X160199102Y-92365077D01*
X160347094Y-92237768D01*
X160507940Y-92099150D01*
X160520576Y-92088250D01*
X161234579Y-91472300D01*
X161234591Y-91002400D01*
X161234604Y-90532500D01*
X160927966Y-90278500D01*
X160826094Y-90193593D01*
X160694226Y-90082893D01*
X160540948Y-89953651D01*
X160374848Y-89813121D01*
X160204511Y-89668555D01*
X160038523Y-89527205D01*
X160034936Y-89524145D01*
X159888621Y-89399698D01*
X159755197Y-89286985D01*
X159639416Y-89189957D01*
X159546029Y-89112569D01*
X159479790Y-89058774D01*
X159445449Y-89032525D01*
X159441709Y-89030624D01*
X159446344Y-89055961D01*
G37*
X159446344Y-89055961D02*
X159463810Y-89120661D01*
X159491523Y-89215683D01*
X159526903Y-89331984D01*
X159537441Y-89365879D01*
X159582733Y-89513450D01*
X159635814Y-89690405D01*
X159690882Y-89877178D01*
X159742135Y-90054205D01*
X159755391Y-90100700D01*
X159794941Y-90237377D01*
X159830928Y-90356878D01*
X159860661Y-90450631D01*
X159881446Y-90510068D01*
X159889286Y-90526728D01*
X159918447Y-90539348D01*
X159988819Y-90562963D01*
X160092611Y-90595166D01*
X160222035Y-90633547D01*
X160369300Y-90675697D01*
X160388549Y-90681104D01*
X160869300Y-90815852D01*
X160869300Y-91188465D01*
X160465776Y-91323273D01*
X160331748Y-91368321D01*
X160215720Y-91407839D01*
X160125765Y-91439033D01*
X160069953Y-91459115D01*
X160055367Y-91465190D01*
X160048519Y-91490782D01*
X160033504Y-91557578D01*
X160011989Y-91657447D01*
X159985642Y-91782263D01*
X159956131Y-91923895D01*
X159925124Y-92074216D01*
X159894288Y-92225095D01*
X159865290Y-92368405D01*
X159839799Y-92496016D01*
X159819482Y-92599800D01*
X159806006Y-92671627D01*
X159801039Y-92703370D01*
X159801184Y-92704200D01*
X159820949Y-92688201D01*
X159874887Y-92642638D01*
X159958734Y-92571163D01*
X160068227Y-92477425D01*
X160199102Y-92365077D01*
X160347094Y-92237768D01*
X160507940Y-92099150D01*
X160520576Y-92088250D01*
X161234579Y-91472300D01*
X161234591Y-91002400D01*
X161234604Y-90532500D01*
X160927966Y-90278500D01*
X160826094Y-90193593D01*
X160694226Y-90082893D01*
X160540948Y-89953651D01*
X160374848Y-89813121D01*
X160204511Y-89668555D01*
X160038523Y-89527205D01*
X160034936Y-89524145D01*
X159888621Y-89399698D01*
X159755197Y-89286985D01*
X159639416Y-89189957D01*
X159546029Y-89112569D01*
X159479790Y-89058774D01*
X159445449Y-89032525D01*
X159441709Y-89030624D01*
X159446344Y-89055961D01*
G36*
X185388549Y-89936244D02*
G01*
X185289305Y-89939586D01*
X185230975Y-89945359D01*
X185227262Y-89946190D01*
X185193762Y-89957205D01*
X185174939Y-89977107D01*
X185167359Y-90017792D01*
X185167593Y-90091155D01*
X185169653Y-90145909D01*
X185177100Y-90329300D01*
X186611140Y-90354700D01*
X186681520Y-90425114D01*
X186710693Y-90456435D01*
X186730765Y-90488308D01*
X186743792Y-90530874D01*
X186751834Y-90594275D01*
X186756947Y-90688654D01*
X186760981Y-90816770D01*
X186762659Y-90997740D01*
X186755213Y-91135987D01*
X186737295Y-91238990D01*
X186707553Y-91314227D01*
X186664639Y-91369179D01*
X186660605Y-91372914D01*
X186641488Y-91387275D01*
X186615455Y-91398717D01*
X186576577Y-91407714D01*
X186518923Y-91414739D01*
X186436563Y-91420264D01*
X186323566Y-91424763D01*
X186174002Y-91428708D01*
X185981940Y-91432573D01*
X185892036Y-91434200D01*
X185177100Y-91446900D01*
X185169638Y-91631050D01*
X185162175Y-91815200D01*
X185931638Y-91813016D01*
X186127263Y-91811842D01*
X186308792Y-91809577D01*
X186469345Y-91806397D01*
X186602045Y-91802481D01*
X186700013Y-91798007D01*
X186756370Y-91793153D01*
X186764765Y-91791467D01*
X186922270Y-91720970D01*
X187042043Y-91617482D01*
X187122513Y-91482538D01*
X187142965Y-91421500D01*
X187156194Y-91342949D01*
X187165409Y-91226676D01*
X187170736Y-91083933D01*
X187172299Y-90925978D01*
X187170227Y-90764066D01*
X187164644Y-90609452D01*
X187155678Y-90473391D01*
X187143454Y-90367139D01*
X187130482Y-90308333D01*
X187065324Y-90187774D01*
X186963233Y-90081941D01*
X186838057Y-90004139D01*
X186796985Y-89987880D01*
X186747170Y-89979080D01*
X186654893Y-89970497D01*
X186528491Y-89962353D01*
X186376302Y-89954870D01*
X186206664Y-89948269D01*
X186027914Y-89942771D01*
X185848390Y-89938598D01*
X185676429Y-89935972D01*
X185520370Y-89935114D01*
X185388549Y-89936244D01*
G37*
X185388549Y-89936244D02*
X185289305Y-89939586D01*
X185230975Y-89945359D01*
X185227262Y-89946190D01*
X185193762Y-89957205D01*
X185174939Y-89977107D01*
X185167359Y-90017792D01*
X185167593Y-90091155D01*
X185169653Y-90145909D01*
X185177100Y-90329300D01*
X186611140Y-90354700D01*
X186681520Y-90425114D01*
X186710693Y-90456435D01*
X186730765Y-90488308D01*
X186743792Y-90530874D01*
X186751834Y-90594275D01*
X186756947Y-90688654D01*
X186760981Y-90816770D01*
X186762659Y-90997740D01*
X186755213Y-91135987D01*
X186737295Y-91238990D01*
X186707553Y-91314227D01*
X186664639Y-91369179D01*
X186660605Y-91372914D01*
X186641488Y-91387275D01*
X186615455Y-91398717D01*
X186576577Y-91407714D01*
X186518923Y-91414739D01*
X186436563Y-91420264D01*
X186323566Y-91424763D01*
X186174002Y-91428708D01*
X185981940Y-91432573D01*
X185892036Y-91434200D01*
X185177100Y-91446900D01*
X185169638Y-91631050D01*
X185162175Y-91815200D01*
X185931638Y-91813016D01*
X186127263Y-91811842D01*
X186308792Y-91809577D01*
X186469345Y-91806397D01*
X186602045Y-91802481D01*
X186700013Y-91798007D01*
X186756370Y-91793153D01*
X186764765Y-91791467D01*
X186922270Y-91720970D01*
X187042043Y-91617482D01*
X187122513Y-91482538D01*
X187142965Y-91421500D01*
X187156194Y-91342949D01*
X187165409Y-91226676D01*
X187170736Y-91083933D01*
X187172299Y-90925978D01*
X187170227Y-90764066D01*
X187164644Y-90609452D01*
X187155678Y-90473391D01*
X187143454Y-90367139D01*
X187130482Y-90308333D01*
X187065324Y-90187774D01*
X186963233Y-90081941D01*
X186838057Y-90004139D01*
X186796985Y-89987880D01*
X186747170Y-89979080D01*
X186654893Y-89970497D01*
X186528491Y-89962353D01*
X186376302Y-89954870D01*
X186206664Y-89948269D01*
X186027914Y-89942771D01*
X185848390Y-89938598D01*
X185676429Y-89935972D01*
X185520370Y-89935114D01*
X185388549Y-89936244D01*
G36*
X183517785Y-89941408D02*
G01*
X183365817Y-89944822D01*
X183240056Y-89951220D01*
X183173632Y-89957472D01*
X183005026Y-89986203D01*
X182877066Y-90028610D01*
X182780248Y-90090260D01*
X182705069Y-90176716D01*
X182658035Y-90259416D01*
X182633149Y-90311449D01*
X182614808Y-90357356D01*
X182602013Y-90405914D01*
X182593766Y-90465899D01*
X182589069Y-90546087D01*
X182586922Y-90655254D01*
X182586328Y-90802178D01*
X182586300Y-90889895D01*
X182586300Y-91374291D01*
X182662569Y-91523423D01*
X182715585Y-91615546D01*
X182769800Y-91676940D01*
X182841902Y-91725260D01*
X182864993Y-91737527D01*
X182902936Y-91756560D01*
X182938553Y-91771496D01*
X182978369Y-91782876D01*
X183028911Y-91791242D01*
X183096705Y-91797132D01*
X183188277Y-91801090D01*
X183310154Y-91803654D01*
X183468862Y-91805366D01*
X183670926Y-91806767D01*
X183703124Y-91806969D01*
X183892606Y-91807426D01*
X184069116Y-91806466D01*
X184225195Y-91804239D01*
X184353385Y-91800894D01*
X184446230Y-91796581D01*
X184496272Y-91791448D01*
X184498016Y-91791052D01*
X184638018Y-91732029D01*
X184757435Y-91634127D01*
X184837473Y-91518425D01*
X184858053Y-91474129D01*
X184873325Y-91431175D01*
X184884080Y-91381307D01*
X184891105Y-91316269D01*
X184895188Y-91227806D01*
X184897117Y-91107660D01*
X184897680Y-90947575D01*
X184897694Y-90903948D01*
X184478600Y-90903948D01*
X184478600Y-91285707D01*
X184404354Y-91359953D01*
X184330108Y-91434200D01*
X183771008Y-91434200D01*
X183603799Y-91433121D01*
X183450608Y-91430104D01*
X183319827Y-91425475D01*
X183219851Y-91419564D01*
X183159074Y-91412695D01*
X183147971Y-91409891D01*
X183095788Y-91382143D01*
X183057474Y-91339684D01*
X183031343Y-91275621D01*
X183015710Y-91183061D01*
X183008890Y-91055111D01*
X183009195Y-90884877D01*
X183009955Y-90845528D01*
X183018100Y-90464479D01*
X183089367Y-90403239D01*
X183113637Y-90383441D01*
X183138912Y-90368448D01*
X183172175Y-90357592D01*
X183220408Y-90350207D01*
X183290595Y-90345623D01*
X183389720Y-90343172D01*
X183524765Y-90342187D01*
X183702714Y-90342000D01*
X183729522Y-90342000D01*
X183941247Y-90343348D01*
X184113787Y-90347301D01*
X184244037Y-90353719D01*
X184328891Y-90362464D01*
X184360304Y-90370200D01*
X184402583Y-90396030D01*
X184433671Y-90434271D01*
X184455190Y-90492231D01*
X184468757Y-90577217D01*
X184475993Y-90696534D01*
X184478516Y-90857489D01*
X184478600Y-90903948D01*
X184897694Y-90903948D01*
X184897700Y-90887473D01*
X184897473Y-90713912D01*
X184896227Y-90582894D01*
X184893118Y-90486165D01*
X184887300Y-90415470D01*
X184877928Y-90362551D01*
X184864158Y-90319155D01*
X184845143Y-90277025D01*
X184832695Y-90252473D01*
X184738561Y-90120425D01*
X184611136Y-90026537D01*
X184506988Y-89984597D01*
X184441027Y-89972609D01*
X184333909Y-89962235D01*
X184195258Y-89953668D01*
X184034696Y-89947107D01*
X183861848Y-89942746D01*
X183686336Y-89940781D01*
X183517785Y-89941408D01*
G37*
X183517785Y-89941408D02*
X183365817Y-89944822D01*
X183240056Y-89951220D01*
X183173632Y-89957472D01*
X183005026Y-89986203D01*
X182877066Y-90028610D01*
X182780248Y-90090260D01*
X182705069Y-90176716D01*
X182658035Y-90259416D01*
X182633149Y-90311449D01*
X182614808Y-90357356D01*
X182602013Y-90405914D01*
X182593766Y-90465899D01*
X182589069Y-90546087D01*
X182586922Y-90655254D01*
X182586328Y-90802178D01*
X182586300Y-90889895D01*
X182586300Y-91374291D01*
X182662569Y-91523423D01*
X182715585Y-91615546D01*
X182769800Y-91676940D01*
X182841902Y-91725260D01*
X182864993Y-91737527D01*
X182902936Y-91756560D01*
X182938553Y-91771496D01*
X182978369Y-91782876D01*
X183028911Y-91791242D01*
X183096705Y-91797132D01*
X183188277Y-91801090D01*
X183310154Y-91803654D01*
X183468862Y-91805366D01*
X183670926Y-91806767D01*
X183703124Y-91806969D01*
X183892606Y-91807426D01*
X184069116Y-91806466D01*
X184225195Y-91804239D01*
X184353385Y-91800894D01*
X184446230Y-91796581D01*
X184496272Y-91791448D01*
X184498016Y-91791052D01*
X184638018Y-91732029D01*
X184757435Y-91634127D01*
X184837473Y-91518425D01*
X184858053Y-91474129D01*
X184873325Y-91431175D01*
X184884080Y-91381307D01*
X184891105Y-91316269D01*
X184895188Y-91227806D01*
X184897117Y-91107660D01*
X184897680Y-90947575D01*
X184897694Y-90903948D01*
X184478600Y-90903948D01*
X184478600Y-91285707D01*
X184404354Y-91359953D01*
X184330108Y-91434200D01*
X183771008Y-91434200D01*
X183603799Y-91433121D01*
X183450608Y-91430104D01*
X183319827Y-91425475D01*
X183219851Y-91419564D01*
X183159074Y-91412695D01*
X183147971Y-91409891D01*
X183095788Y-91382143D01*
X183057474Y-91339684D01*
X183031343Y-91275621D01*
X183015710Y-91183061D01*
X183008890Y-91055111D01*
X183009195Y-90884877D01*
X183009955Y-90845528D01*
X183018100Y-90464479D01*
X183089367Y-90403239D01*
X183113637Y-90383441D01*
X183138912Y-90368448D01*
X183172175Y-90357592D01*
X183220408Y-90350207D01*
X183290595Y-90345623D01*
X183389720Y-90343172D01*
X183524765Y-90342187D01*
X183702714Y-90342000D01*
X183729522Y-90342000D01*
X183941247Y-90343348D01*
X184113787Y-90347301D01*
X184244037Y-90353719D01*
X184328891Y-90362464D01*
X184360304Y-90370200D01*
X184402583Y-90396030D01*
X184433671Y-90434271D01*
X184455190Y-90492231D01*
X184468757Y-90577217D01*
X184475993Y-90696534D01*
X184478516Y-90857489D01*
X184478600Y-90903948D01*
X184897694Y-90903948D01*
X184897700Y-90887473D01*
X184897473Y-90713912D01*
X184896227Y-90582894D01*
X184893118Y-90486165D01*
X184887300Y-90415470D01*
X184877928Y-90362551D01*
X184864158Y-90319155D01*
X184845143Y-90277025D01*
X184832695Y-90252473D01*
X184738561Y-90120425D01*
X184611136Y-90026537D01*
X184506988Y-89984597D01*
X184441027Y-89972609D01*
X184333909Y-89962235D01*
X184195258Y-89953668D01*
X184034696Y-89947107D01*
X183861848Y-89942746D01*
X183686336Y-89940781D01*
X183517785Y-89941408D01*
G36*
X181778876Y-89943854D02*
G01*
X181667386Y-89957280D01*
X181581622Y-89978240D01*
X181551448Y-89992474D01*
X181525528Y-90020515D01*
X181489359Y-90078853D01*
X181441350Y-90170721D01*
X181379913Y-90299355D01*
X181303459Y-90467989D01*
X181210400Y-90679860D01*
X181184447Y-90739748D01*
X181101321Y-90929502D01*
X181025645Y-91097391D01*
X180959744Y-91238560D01*
X180905945Y-91348157D01*
X180866574Y-91421328D01*
X180843959Y-91453219D01*
X180842019Y-91454173D01*
X180823080Y-91439408D01*
X180791123Y-91388566D01*
X180745068Y-91299432D01*
X180683833Y-91169793D01*
X180606335Y-90997436D01*
X180511493Y-90780150D01*
X180503671Y-90762028D01*
X180423697Y-90579272D01*
X180348077Y-90411478D01*
X180279726Y-90264754D01*
X180221561Y-90145209D01*
X180176499Y-90058951D01*
X180147458Y-90012090D01*
X180143451Y-90007619D01*
X180100294Y-89977089D01*
X180041028Y-89957659D01*
X179951966Y-89945779D01*
X179887808Y-89941318D01*
X179709250Y-89940834D01*
X179576032Y-89962442D01*
X179488324Y-90006098D01*
X179453539Y-90050959D01*
X179444342Y-90092316D01*
X179436948Y-90173401D01*
X179431288Y-90296382D01*
X179427291Y-90463427D01*
X179424887Y-90676703D01*
X179424007Y-90938380D01*
X179424000Y-90966563D01*
X179424000Y-91817336D01*
X179817700Y-91802500D01*
X179824443Y-91070264D01*
X179827118Y-90843218D01*
X179830620Y-90663515D01*
X179835121Y-90527701D01*
X179840794Y-90432321D01*
X179847811Y-90373923D01*
X179856344Y-90349053D01*
X179860526Y-90347808D01*
X179878252Y-90372709D01*
X179913463Y-90438026D01*
X179963193Y-90537671D01*
X180024474Y-90665557D01*
X180094341Y-90815599D01*
X180169828Y-90981710D01*
X180174062Y-90991144D01*
X180279266Y-91222040D01*
X180367485Y-91407609D01*
X180439817Y-91549994D01*
X180497357Y-91651341D01*
X180541204Y-91713796D01*
X180546674Y-91719950D01*
X180592003Y-91766871D01*
X180630406Y-91795118D01*
X180676575Y-91809429D01*
X180745203Y-91814543D01*
X180841944Y-91815200D01*
X180921796Y-91814425D01*
X180988154Y-91809072D01*
X181044780Y-91794592D01*
X181095432Y-91766439D01*
X181143872Y-91720065D01*
X181193858Y-91650924D01*
X181249152Y-91554469D01*
X181313513Y-91426153D01*
X181390702Y-91261428D01*
X181484478Y-91055747D01*
X181502116Y-91016876D01*
X181580160Y-90846809D01*
X181652749Y-90692321D01*
X181716948Y-90559367D01*
X181769823Y-90453899D01*
X181808443Y-90381871D01*
X181829872Y-90349238D01*
X181831670Y-90348010D01*
X181840976Y-90356612D01*
X181848354Y-90392038D01*
X181853979Y-90458385D01*
X181858021Y-90559753D01*
X181860655Y-90700242D01*
X181862054Y-90883950D01*
X181862400Y-91076483D01*
X181862400Y-91815200D01*
X182048667Y-91815200D01*
X182141581Y-91813039D01*
X182213567Y-91807344D01*
X182250506Y-91799289D01*
X182251867Y-91798266D01*
X182257737Y-91767589D01*
X182262380Y-91693416D01*
X182265840Y-91583033D01*
X182268163Y-91443728D01*
X182269395Y-91282788D01*
X182269582Y-91107501D01*
X182268768Y-90925154D01*
X182267000Y-90743034D01*
X182264324Y-90568429D01*
X182260784Y-90408626D01*
X182256426Y-90270912D01*
X182251297Y-90162575D01*
X182245441Y-90090902D01*
X182241035Y-90066732D01*
X182210231Y-90009408D01*
X182157078Y-89974539D01*
X182107685Y-89958546D01*
X182015027Y-89943511D01*
X181900090Y-89938939D01*
X181778876Y-89943854D01*
G37*
X181778876Y-89943854D02*
X181667386Y-89957280D01*
X181581622Y-89978240D01*
X181551448Y-89992474D01*
X181525528Y-90020515D01*
X181489359Y-90078853D01*
X181441350Y-90170721D01*
X181379913Y-90299355D01*
X181303459Y-90467989D01*
X181210400Y-90679860D01*
X181184447Y-90739748D01*
X181101321Y-90929502D01*
X181025645Y-91097391D01*
X180959744Y-91238560D01*
X180905945Y-91348157D01*
X180866574Y-91421328D01*
X180843959Y-91453219D01*
X180842019Y-91454173D01*
X180823080Y-91439408D01*
X180791123Y-91388566D01*
X180745068Y-91299432D01*
X180683833Y-91169793D01*
X180606335Y-90997436D01*
X180511493Y-90780150D01*
X180503671Y-90762028D01*
X180423697Y-90579272D01*
X180348077Y-90411478D01*
X180279726Y-90264754D01*
X180221561Y-90145209D01*
X180176499Y-90058951D01*
X180147458Y-90012090D01*
X180143451Y-90007619D01*
X180100294Y-89977089D01*
X180041028Y-89957659D01*
X179951966Y-89945779D01*
X179887808Y-89941318D01*
X179709250Y-89940834D01*
X179576032Y-89962442D01*
X179488324Y-90006098D01*
X179453539Y-90050959D01*
X179444342Y-90092316D01*
X179436948Y-90173401D01*
X179431288Y-90296382D01*
X179427291Y-90463427D01*
X179424887Y-90676703D01*
X179424007Y-90938380D01*
X179424000Y-90966563D01*
X179424000Y-91817336D01*
X179817700Y-91802500D01*
X179824443Y-91070264D01*
X179827118Y-90843218D01*
X179830620Y-90663515D01*
X179835121Y-90527701D01*
X179840794Y-90432321D01*
X179847811Y-90373923D01*
X179856344Y-90349053D01*
X179860526Y-90347808D01*
X179878252Y-90372709D01*
X179913463Y-90438026D01*
X179963193Y-90537671D01*
X180024474Y-90665557D01*
X180094341Y-90815599D01*
X180169828Y-90981710D01*
X180174062Y-90991144D01*
X180279266Y-91222040D01*
X180367485Y-91407609D01*
X180439817Y-91549994D01*
X180497357Y-91651341D01*
X180541204Y-91713796D01*
X180546674Y-91719950D01*
X180592003Y-91766871D01*
X180630406Y-91795118D01*
X180676575Y-91809429D01*
X180745203Y-91814543D01*
X180841944Y-91815200D01*
X180921796Y-91814425D01*
X180988154Y-91809072D01*
X181044780Y-91794592D01*
X181095432Y-91766439D01*
X181143872Y-91720065D01*
X181193858Y-91650924D01*
X181249152Y-91554469D01*
X181313513Y-91426153D01*
X181390702Y-91261428D01*
X181484478Y-91055747D01*
X181502116Y-91016876D01*
X181580160Y-90846809D01*
X181652749Y-90692321D01*
X181716948Y-90559367D01*
X181769823Y-90453899D01*
X181808443Y-90381871D01*
X181829872Y-90349238D01*
X181831670Y-90348010D01*
X181840976Y-90356612D01*
X181848354Y-90392038D01*
X181853979Y-90458385D01*
X181858021Y-90559753D01*
X181860655Y-90700242D01*
X181862054Y-90883950D01*
X181862400Y-91076483D01*
X181862400Y-91815200D01*
X182048667Y-91815200D01*
X182141581Y-91813039D01*
X182213567Y-91807344D01*
X182250506Y-91799289D01*
X182251867Y-91798266D01*
X182257737Y-91767589D01*
X182262380Y-91693416D01*
X182265840Y-91583033D01*
X182268163Y-91443728D01*
X182269395Y-91282788D01*
X182269582Y-91107501D01*
X182268768Y-90925154D01*
X182267000Y-90743034D01*
X182264324Y-90568429D01*
X182260784Y-90408626D01*
X182256426Y-90270912D01*
X182251297Y-90162575D01*
X182245441Y-90090902D01*
X182241035Y-90066732D01*
X182210231Y-90009408D01*
X182157078Y-89974539D01*
X182107685Y-89958546D01*
X182015027Y-89943511D01*
X181900090Y-89938939D01*
X181778876Y-89943854D01*
G36*
X178734907Y-89948047D02*
G01*
X178689314Y-89948300D01*
X178562192Y-89949574D01*
X178475320Y-89954401D01*
X178418186Y-89964288D01*
X178380281Y-89980742D01*
X178361358Y-89995326D01*
X178345537Y-90012982D01*
X178326089Y-90042129D01*
X178301162Y-90086745D01*
X178268904Y-90150809D01*
X178227463Y-90238301D01*
X178174989Y-90353200D01*
X178109629Y-90499484D01*
X178029531Y-90681133D01*
X177932845Y-90902127D01*
X177836596Y-91123050D01*
X177782452Y-91242659D01*
X177732781Y-91343541D01*
X177691982Y-91417398D01*
X177664454Y-91455934D01*
X177658145Y-91459600D01*
X177635166Y-91437722D01*
X177598810Y-91378739D01*
X177554783Y-91292628D01*
X177523801Y-91224650D01*
X177406263Y-90955120D01*
X177307041Y-90728467D01*
X177224387Y-90540894D01*
X177156556Y-90388608D01*
X177101798Y-90267814D01*
X177058368Y-90174717D01*
X177024517Y-90105523D01*
X176998498Y-90056437D01*
X176978565Y-90023664D01*
X176962970Y-90003411D01*
X176960065Y-90000375D01*
X176931647Y-89977225D01*
X176894768Y-89962096D01*
X176838860Y-89953333D01*
X176753353Y-89949285D01*
X176627678Y-89948300D01*
X176627051Y-89948300D01*
X176531474Y-89947273D01*
X176453435Y-89947292D01*
X176391167Y-89953004D01*
X176342903Y-89969057D01*
X176306876Y-90000098D01*
X176281320Y-90050775D01*
X176264468Y-90125735D01*
X176254554Y-90229626D01*
X176249809Y-90367095D01*
X176248469Y-90542791D01*
X176248765Y-90761360D01*
X176249000Y-90942782D01*
X176249000Y-91817336D01*
X176642700Y-91802500D01*
X176649443Y-91070264D01*
X176652576Y-90826961D01*
X176657030Y-90632958D01*
X176662791Y-90488588D01*
X176669844Y-90394188D01*
X176678173Y-90350093D01*
X176682180Y-90346693D01*
X176698942Y-90371241D01*
X176733404Y-90436284D01*
X176782685Y-90535870D01*
X176843907Y-90664047D01*
X176914190Y-90814865D01*
X176990656Y-90982371D01*
X177003916Y-91011754D01*
X177103518Y-91229384D01*
X177190852Y-91413167D01*
X177264364Y-91560033D01*
X177322503Y-91666912D01*
X177363715Y-91730736D01*
X177373183Y-91741675D01*
X177412285Y-91777532D01*
X177450671Y-91799332D01*
X177502101Y-91810554D01*
X177580333Y-91814675D01*
X177664005Y-91815200D01*
X177770063Y-91814353D01*
X177839142Y-91809193D01*
X177885062Y-91795788D01*
X177921642Y-91770209D01*
X177960501Y-91730867D01*
X177999291Y-91675983D01*
X178055074Y-91576764D01*
X178126344Y-91436187D01*
X178211596Y-91257228D01*
X178309326Y-91042864D01*
X178316860Y-91026017D01*
X178405259Y-90828476D01*
X178475563Y-90672704D01*
X178530214Y-90554001D01*
X178571653Y-90467673D01*
X178602321Y-90409022D01*
X178624660Y-90373352D01*
X178641110Y-90355966D01*
X178654113Y-90352167D01*
X178664878Y-90356478D01*
X178670678Y-90384502D01*
X178675925Y-90456783D01*
X178680418Y-90566781D01*
X178683957Y-90707955D01*
X178686342Y-90873763D01*
X178687374Y-91057664D01*
X178687400Y-91092799D01*
X178687400Y-91815200D01*
X178878698Y-91815200D01*
X178988278Y-91811967D01*
X179053967Y-91801535D01*
X179082302Y-91782802D01*
X179083202Y-91780782D01*
X179086147Y-91747891D01*
X179088407Y-91670440D01*
X179089942Y-91554663D01*
X179090713Y-91406794D01*
X179090682Y-91233069D01*
X179089807Y-91039722D01*
X179088755Y-90905153D01*
X179086890Y-90659111D01*
X179084900Y-90459095D01*
X179080807Y-90300366D01*
X179072632Y-90178183D01*
X179058397Y-90087806D01*
X179036123Y-90024496D01*
X179003830Y-89983513D01*
X178959541Y-89960116D01*
X178901277Y-89949566D01*
X178827059Y-89947123D01*
X178734907Y-89948047D01*
G37*
X178734907Y-89948047D02*
X178689314Y-89948300D01*
X178562192Y-89949574D01*
X178475320Y-89954401D01*
X178418186Y-89964288D01*
X178380281Y-89980742D01*
X178361358Y-89995326D01*
X178345537Y-90012982D01*
X178326089Y-90042129D01*
X178301162Y-90086745D01*
X178268904Y-90150809D01*
X178227463Y-90238301D01*
X178174989Y-90353200D01*
X178109629Y-90499484D01*
X178029531Y-90681133D01*
X177932845Y-90902127D01*
X177836596Y-91123050D01*
X177782452Y-91242659D01*
X177732781Y-91343541D01*
X177691982Y-91417398D01*
X177664454Y-91455934D01*
X177658145Y-91459600D01*
X177635166Y-91437722D01*
X177598810Y-91378739D01*
X177554783Y-91292628D01*
X177523801Y-91224650D01*
X177406263Y-90955120D01*
X177307041Y-90728467D01*
X177224387Y-90540894D01*
X177156556Y-90388608D01*
X177101798Y-90267814D01*
X177058368Y-90174717D01*
X177024517Y-90105523D01*
X176998498Y-90056437D01*
X176978565Y-90023664D01*
X176962970Y-90003411D01*
X176960065Y-90000375D01*
X176931647Y-89977225D01*
X176894768Y-89962096D01*
X176838860Y-89953333D01*
X176753353Y-89949285D01*
X176627678Y-89948300D01*
X176627051Y-89948300D01*
X176531474Y-89947273D01*
X176453435Y-89947292D01*
X176391167Y-89953004D01*
X176342903Y-89969057D01*
X176306876Y-90000098D01*
X176281320Y-90050775D01*
X176264468Y-90125735D01*
X176254554Y-90229626D01*
X176249809Y-90367095D01*
X176248469Y-90542791D01*
X176248765Y-90761360D01*
X176249000Y-90942782D01*
X176249000Y-91817336D01*
X176642700Y-91802500D01*
X176649443Y-91070264D01*
X176652576Y-90826961D01*
X176657030Y-90632958D01*
X176662791Y-90488588D01*
X176669844Y-90394188D01*
X176678173Y-90350093D01*
X176682180Y-90346693D01*
X176698942Y-90371241D01*
X176733404Y-90436284D01*
X176782685Y-90535870D01*
X176843907Y-90664047D01*
X176914190Y-90814865D01*
X176990656Y-90982371D01*
X177003916Y-91011754D01*
X177103518Y-91229384D01*
X177190852Y-91413167D01*
X177264364Y-91560033D01*
X177322503Y-91666912D01*
X177363715Y-91730736D01*
X177373183Y-91741675D01*
X177412285Y-91777532D01*
X177450671Y-91799332D01*
X177502101Y-91810554D01*
X177580333Y-91814675D01*
X177664005Y-91815200D01*
X177770063Y-91814353D01*
X177839142Y-91809193D01*
X177885062Y-91795788D01*
X177921642Y-91770209D01*
X177960501Y-91730867D01*
X177999291Y-91675983D01*
X178055074Y-91576764D01*
X178126344Y-91436187D01*
X178211596Y-91257228D01*
X178309326Y-91042864D01*
X178316860Y-91026017D01*
X178405259Y-90828476D01*
X178475563Y-90672704D01*
X178530214Y-90554001D01*
X178571653Y-90467673D01*
X178602321Y-90409022D01*
X178624660Y-90373352D01*
X178641110Y-90355966D01*
X178654113Y-90352167D01*
X178664878Y-90356478D01*
X178670678Y-90384502D01*
X178675925Y-90456783D01*
X178680418Y-90566781D01*
X178683957Y-90707955D01*
X178686342Y-90873763D01*
X178687374Y-91057664D01*
X178687400Y-91092799D01*
X178687400Y-91815200D01*
X178878698Y-91815200D01*
X178988278Y-91811967D01*
X179053967Y-91801535D01*
X179082302Y-91782802D01*
X179083202Y-91780782D01*
X179086147Y-91747891D01*
X179088407Y-91670440D01*
X179089942Y-91554663D01*
X179090713Y-91406794D01*
X179090682Y-91233069D01*
X179089807Y-91039722D01*
X179088755Y-90905153D01*
X179086890Y-90659111D01*
X179084900Y-90459095D01*
X179080807Y-90300366D01*
X179072632Y-90178183D01*
X179058397Y-90087806D01*
X179036123Y-90024496D01*
X179003830Y-89983513D01*
X178959541Y-89960116D01*
X178901277Y-89949566D01*
X178827059Y-89947123D01*
X178734907Y-89948047D01*
G36*
X174731492Y-89940648D02*
G01*
X174611364Y-89968308D01*
X174512331Y-90022983D01*
X174487050Y-90046741D01*
X174462512Y-90081903D01*
X174417712Y-90154455D01*
X174355981Y-90258457D01*
X174280652Y-90387968D01*
X174195055Y-90537046D01*
X174102522Y-90699751D01*
X174006383Y-90870142D01*
X173909971Y-91042277D01*
X173816616Y-91210215D01*
X173729649Y-91368014D01*
X173652402Y-91509735D01*
X173588207Y-91629436D01*
X173540393Y-91721175D01*
X173512294Y-91779011D01*
X173506137Y-91796150D01*
X173529460Y-91804643D01*
X173592108Y-91811185D01*
X173682613Y-91814794D01*
X173728189Y-91815200D01*
X173950578Y-91815200D01*
X174052656Y-91631050D01*
X174154733Y-91446900D01*
X174769163Y-91440100D01*
X175383594Y-91433300D01*
X175593192Y-91815200D01*
X175819496Y-91815200D01*
X175919612Y-91813276D01*
X175997051Y-91808129D01*
X176040423Y-91800688D01*
X176045800Y-91796678D01*
X176033758Y-91766590D01*
X175999820Y-91698295D01*
X175947271Y-91597707D01*
X175879396Y-91470741D01*
X175799481Y-91323309D01*
X175710809Y-91161326D01*
X175685127Y-91114780D01*
X175207600Y-91114780D01*
X175183576Y-91119578D01*
X175117000Y-91123714D01*
X175016120Y-91126909D01*
X174889183Y-91128885D01*
X174775800Y-91129400D01*
X174634154Y-91128340D01*
X174512093Y-91125404D01*
X174417850Y-91120954D01*
X174359657Y-91115356D01*
X174344588Y-91110350D01*
X174356757Y-91078574D01*
X174389174Y-91012851D01*
X174436791Y-90922214D01*
X174494560Y-90815697D01*
X174557434Y-90702333D01*
X174620366Y-90591157D01*
X174678309Y-90491203D01*
X174726214Y-90411503D01*
X174759035Y-90361092D01*
X174770538Y-90347987D01*
X174788151Y-90366779D01*
X174824785Y-90421654D01*
X174875482Y-90503912D01*
X174935283Y-90604851D01*
X174999227Y-90715772D01*
X175062357Y-90827975D01*
X175119713Y-90932758D01*
X175166335Y-91021421D01*
X175197265Y-91085264D01*
X175207600Y-91114780D01*
X175685127Y-91114780D01*
X175616666Y-90990706D01*
X175520337Y-90817361D01*
X175425106Y-90647206D01*
X175334258Y-90486155D01*
X175251078Y-90340121D01*
X175178852Y-90215019D01*
X175120863Y-90116761D01*
X175080397Y-90051262D01*
X175062000Y-90025527D01*
X174972454Y-89968680D01*
X174857070Y-89940579D01*
X174731492Y-89940648D01*
G37*
X174731492Y-89940648D02*
X174611364Y-89968308D01*
X174512331Y-90022983D01*
X174487050Y-90046741D01*
X174462512Y-90081903D01*
X174417712Y-90154455D01*
X174355981Y-90258457D01*
X174280652Y-90387968D01*
X174195055Y-90537046D01*
X174102522Y-90699751D01*
X174006383Y-90870142D01*
X173909971Y-91042277D01*
X173816616Y-91210215D01*
X173729649Y-91368014D01*
X173652402Y-91509735D01*
X173588207Y-91629436D01*
X173540393Y-91721175D01*
X173512294Y-91779011D01*
X173506137Y-91796150D01*
X173529460Y-91804643D01*
X173592108Y-91811185D01*
X173682613Y-91814794D01*
X173728189Y-91815200D01*
X173950578Y-91815200D01*
X174052656Y-91631050D01*
X174154733Y-91446900D01*
X174769163Y-91440100D01*
X175383594Y-91433300D01*
X175593192Y-91815200D01*
X175819496Y-91815200D01*
X175919612Y-91813276D01*
X175997051Y-91808129D01*
X176040423Y-91800688D01*
X176045800Y-91796678D01*
X176033758Y-91766590D01*
X175999820Y-91698295D01*
X175947271Y-91597707D01*
X175879396Y-91470741D01*
X175799481Y-91323309D01*
X175710809Y-91161326D01*
X175685127Y-91114780D01*
X175207600Y-91114780D01*
X175183576Y-91119578D01*
X175117000Y-91123714D01*
X175016120Y-91126909D01*
X174889183Y-91128885D01*
X174775800Y-91129400D01*
X174634154Y-91128340D01*
X174512093Y-91125404D01*
X174417850Y-91120954D01*
X174359657Y-91115356D01*
X174344588Y-91110350D01*
X174356757Y-91078574D01*
X174389174Y-91012851D01*
X174436791Y-90922214D01*
X174494560Y-90815697D01*
X174557434Y-90702333D01*
X174620366Y-90591157D01*
X174678309Y-90491203D01*
X174726214Y-90411503D01*
X174759035Y-90361092D01*
X174770538Y-90347987D01*
X174788151Y-90366779D01*
X174824785Y-90421654D01*
X174875482Y-90503912D01*
X174935283Y-90604851D01*
X174999227Y-90715772D01*
X175062357Y-90827975D01*
X175119713Y-90932758D01*
X175166335Y-91021421D01*
X175197265Y-91085264D01*
X175207600Y-91114780D01*
X175685127Y-91114780D01*
X175616666Y-90990706D01*
X175520337Y-90817361D01*
X175425106Y-90647206D01*
X175334258Y-90486155D01*
X175251078Y-90340121D01*
X175178852Y-90215019D01*
X175120863Y-90116761D01*
X175080397Y-90051262D01*
X175062000Y-90025527D01*
X174972454Y-89968680D01*
X174857070Y-89940579D01*
X174731492Y-89940648D01*
G36*
X171126139Y-89943585D02*
G01*
X171075605Y-89955549D01*
X171072775Y-89957141D01*
X171063689Y-89972854D01*
X171056571Y-90010082D01*
X171051295Y-90073207D01*
X171047735Y-90166609D01*
X171045767Y-90294667D01*
X171045263Y-90461763D01*
X171046099Y-90672276D01*
X171047375Y-90843118D01*
X171049084Y-91091414D01*
X171050798Y-91293640D01*
X171054329Y-91454494D01*
X171061487Y-91578673D01*
X171074085Y-91670876D01*
X171093932Y-91735800D01*
X171122842Y-91778144D01*
X171162625Y-91802604D01*
X171215092Y-91813879D01*
X171282055Y-91816667D01*
X171365326Y-91815666D01*
X171422185Y-91815200D01*
X171542964Y-91814588D01*
X171624260Y-91811193D01*
X171677389Y-91802670D01*
X171713667Y-91786676D01*
X171744408Y-91760869D01*
X171759528Y-91745350D01*
X171790976Y-91708458D01*
X171848932Y-91636577D01*
X171929137Y-91535140D01*
X172027332Y-91409582D01*
X172139259Y-91265337D01*
X172260660Y-91107838D01*
X172330421Y-91016886D01*
X172453028Y-90857635D01*
X172566741Y-90711631D01*
X172667679Y-90583723D01*
X172751963Y-90478762D01*
X172815712Y-90401600D01*
X172855047Y-90357085D01*
X172865441Y-90348019D01*
X172874753Y-90356577D01*
X172882136Y-90391877D01*
X172887764Y-90458029D01*
X172891810Y-90559141D01*
X172894447Y-90699320D01*
X172895850Y-90882675D01*
X172896200Y-91076483D01*
X172896200Y-91815200D01*
X173302600Y-91815200D01*
X173302600Y-90965495D01*
X173301864Y-90699124D01*
X173299608Y-90481366D01*
X173295762Y-90310057D01*
X173290256Y-90183031D01*
X173283021Y-90098123D01*
X173273986Y-90053166D01*
X173273062Y-90050959D01*
X173221758Y-89992571D01*
X173139712Y-89957919D01*
X173056158Y-89944846D01*
X172948935Y-89940996D01*
X172834573Y-89945445D01*
X172729604Y-89957272D01*
X172650560Y-89975553D01*
X172626327Y-89986572D01*
X172600135Y-90013305D01*
X172547241Y-90075720D01*
X172471527Y-90168936D01*
X172376878Y-90288075D01*
X172267176Y-90428258D01*
X172146305Y-90584604D01*
X172043427Y-90719021D01*
X171917730Y-90882952D01*
X171801195Y-91032956D01*
X171697484Y-91164472D01*
X171610259Y-91272940D01*
X171543182Y-91353796D01*
X171499914Y-91402480D01*
X171484627Y-91415170D01*
X171477945Y-91388873D01*
X171471604Y-91317338D01*
X171465838Y-91206125D01*
X171460881Y-91060795D01*
X171456965Y-90886909D01*
X171454346Y-90692519D01*
X171451612Y-90466955D01*
X171447991Y-90288189D01*
X171443277Y-90152227D01*
X171437263Y-90055071D01*
X171429742Y-89992725D01*
X171420507Y-89961194D01*
X171416246Y-89956288D01*
X171370002Y-89943930D01*
X171293077Y-89937727D01*
X171205209Y-89937628D01*
X171126139Y-89943585D01*
G37*
X171126139Y-89943585D02*
X171075605Y-89955549D01*
X171072775Y-89957141D01*
X171063689Y-89972854D01*
X171056571Y-90010082D01*
X171051295Y-90073207D01*
X171047735Y-90166609D01*
X171045767Y-90294667D01*
X171045263Y-90461763D01*
X171046099Y-90672276D01*
X171047375Y-90843118D01*
X171049084Y-91091414D01*
X171050798Y-91293640D01*
X171054329Y-91454494D01*
X171061487Y-91578673D01*
X171074085Y-91670876D01*
X171093932Y-91735800D01*
X171122842Y-91778144D01*
X171162625Y-91802604D01*
X171215092Y-91813879D01*
X171282055Y-91816667D01*
X171365326Y-91815666D01*
X171422185Y-91815200D01*
X171542964Y-91814588D01*
X171624260Y-91811193D01*
X171677389Y-91802670D01*
X171713667Y-91786676D01*
X171744408Y-91760869D01*
X171759528Y-91745350D01*
X171790976Y-91708458D01*
X171848932Y-91636577D01*
X171929137Y-91535140D01*
X172027332Y-91409582D01*
X172139259Y-91265337D01*
X172260660Y-91107838D01*
X172330421Y-91016886D01*
X172453028Y-90857635D01*
X172566741Y-90711631D01*
X172667679Y-90583723D01*
X172751963Y-90478762D01*
X172815712Y-90401600D01*
X172855047Y-90357085D01*
X172865441Y-90348019D01*
X172874753Y-90356577D01*
X172882136Y-90391877D01*
X172887764Y-90458029D01*
X172891810Y-90559141D01*
X172894447Y-90699320D01*
X172895850Y-90882675D01*
X172896200Y-91076483D01*
X172896200Y-91815200D01*
X173302600Y-91815200D01*
X173302600Y-90965495D01*
X173301864Y-90699124D01*
X173299608Y-90481366D01*
X173295762Y-90310057D01*
X173290256Y-90183031D01*
X173283021Y-90098123D01*
X173273986Y-90053166D01*
X173273062Y-90050959D01*
X173221758Y-89992571D01*
X173139712Y-89957919D01*
X173056158Y-89944846D01*
X172948935Y-89940996D01*
X172834573Y-89945445D01*
X172729604Y-89957272D01*
X172650560Y-89975553D01*
X172626327Y-89986572D01*
X172600135Y-90013305D01*
X172547241Y-90075720D01*
X172471527Y-90168936D01*
X172376878Y-90288075D01*
X172267176Y-90428258D01*
X172146305Y-90584604D01*
X172043427Y-90719021D01*
X171917730Y-90882952D01*
X171801195Y-91032956D01*
X171697484Y-91164472D01*
X171610259Y-91272940D01*
X171543182Y-91353796D01*
X171499914Y-91402480D01*
X171484627Y-91415170D01*
X171477945Y-91388873D01*
X171471604Y-91317338D01*
X171465838Y-91206125D01*
X171460881Y-91060795D01*
X171456965Y-90886909D01*
X171454346Y-90692519D01*
X171451612Y-90466955D01*
X171447991Y-90288189D01*
X171443277Y-90152227D01*
X171437263Y-90055071D01*
X171429742Y-89992725D01*
X171420507Y-89961194D01*
X171416246Y-89956288D01*
X171370002Y-89943930D01*
X171293077Y-89937727D01*
X171205209Y-89937628D01*
X171126139Y-89943585D01*
G36*
X169992436Y-89936384D02*
G01*
X169805023Y-89937584D01*
X169623535Y-89940531D01*
X169457646Y-89944932D01*
X169317030Y-89950495D01*
X169211362Y-89956927D01*
X169166628Y-89961354D01*
X168968804Y-90005759D01*
X168809725Y-90082805D01*
X168688863Y-90192904D01*
X168605693Y-90336473D01*
X168576774Y-90426040D01*
X168565716Y-90501229D01*
X168558542Y-90618843D01*
X168555558Y-90770633D01*
X168557068Y-90948353D01*
X168557205Y-90954861D01*
X168563051Y-91138729D01*
X168573493Y-91280763D01*
X168591194Y-91389892D01*
X168618817Y-91475046D01*
X168659026Y-91545155D01*
X168714482Y-91609147D01*
X168766846Y-91657764D01*
X168817271Y-91698793D01*
X168869489Y-91732068D01*
X168929263Y-91758388D01*
X169002354Y-91778554D01*
X169094524Y-91793365D01*
X169211535Y-91803621D01*
X169359150Y-91810123D01*
X169543129Y-91813670D01*
X169769236Y-91815062D01*
X169900893Y-91815200D01*
X170122766Y-91814952D01*
X170299085Y-91814034D01*
X170435094Y-91812180D01*
X170536036Y-91809126D01*
X170607156Y-91804605D01*
X170653698Y-91798355D01*
X170680906Y-91790109D01*
X170694024Y-91779603D01*
X170696383Y-91775022D01*
X170700046Y-91740800D01*
X170703398Y-91661993D01*
X170706332Y-91544815D01*
X170708117Y-91434200D01*
X170280000Y-91434200D01*
X169740250Y-91433825D01*
X169530581Y-91432445D01*
X169368464Y-91428516D01*
X169250708Y-91421872D01*
X169174123Y-91412342D01*
X169139449Y-91402075D01*
X169080966Y-91359100D01*
X169025541Y-91299514D01*
X169025149Y-91298987D01*
X169003282Y-91264838D01*
X168988328Y-91225153D01*
X168979003Y-91170033D01*
X168974025Y-91089580D01*
X168972112Y-90973896D01*
X168971900Y-90888099D01*
X168972638Y-90747821D01*
X168975707Y-90648434D01*
X168982389Y-90580040D01*
X168993967Y-90532741D01*
X169011724Y-90496638D01*
X169025149Y-90477212D01*
X169059114Y-90434974D01*
X169094947Y-90402625D01*
X169139642Y-90378846D01*
X169200189Y-90362320D01*
X169283580Y-90351728D01*
X169396807Y-90345752D01*
X169546862Y-90343073D01*
X169740250Y-90342374D01*
X170280000Y-90342000D01*
X170280000Y-91434200D01*
X170708117Y-91434200D01*
X170708743Y-91395483D01*
X170710523Y-91220210D01*
X170711566Y-91025211D01*
X170711800Y-90875136D01*
X170711553Y-90639751D01*
X170710660Y-90450047D01*
X170708893Y-90300910D01*
X170706027Y-90187222D01*
X170701833Y-90103867D01*
X170696086Y-90045729D01*
X170688557Y-90007692D01*
X170679020Y-89984639D01*
X170671886Y-89975514D01*
X170653294Y-89963008D01*
X170621646Y-89953380D01*
X170570951Y-89946284D01*
X170495220Y-89941377D01*
X170388464Y-89938313D01*
X170244693Y-89936747D01*
X170057917Y-89936334D01*
X169992436Y-89936384D01*
G37*
X169992436Y-89936384D02*
X169805023Y-89937584D01*
X169623535Y-89940531D01*
X169457646Y-89944932D01*
X169317030Y-89950495D01*
X169211362Y-89956927D01*
X169166628Y-89961354D01*
X168968804Y-90005759D01*
X168809725Y-90082805D01*
X168688863Y-90192904D01*
X168605693Y-90336473D01*
X168576774Y-90426040D01*
X168565716Y-90501229D01*
X168558542Y-90618843D01*
X168555558Y-90770633D01*
X168557068Y-90948353D01*
X168557205Y-90954861D01*
X168563051Y-91138729D01*
X168573493Y-91280763D01*
X168591194Y-91389892D01*
X168618817Y-91475046D01*
X168659026Y-91545155D01*
X168714482Y-91609147D01*
X168766846Y-91657764D01*
X168817271Y-91698793D01*
X168869489Y-91732068D01*
X168929263Y-91758388D01*
X169002354Y-91778554D01*
X169094524Y-91793365D01*
X169211535Y-91803621D01*
X169359150Y-91810123D01*
X169543129Y-91813670D01*
X169769236Y-91815062D01*
X169900893Y-91815200D01*
X170122766Y-91814952D01*
X170299085Y-91814034D01*
X170435094Y-91812180D01*
X170536036Y-91809126D01*
X170607156Y-91804605D01*
X170653698Y-91798355D01*
X170680906Y-91790109D01*
X170694024Y-91779603D01*
X170696383Y-91775022D01*
X170700046Y-91740800D01*
X170703398Y-91661993D01*
X170706332Y-91544815D01*
X170708117Y-91434200D01*
X170280000Y-91434200D01*
X169740250Y-91433825D01*
X169530581Y-91432445D01*
X169368464Y-91428516D01*
X169250708Y-91421872D01*
X169174123Y-91412342D01*
X169139449Y-91402075D01*
X169080966Y-91359100D01*
X169025541Y-91299514D01*
X169025149Y-91298987D01*
X169003282Y-91264838D01*
X168988328Y-91225153D01*
X168979003Y-91170033D01*
X168974025Y-91089580D01*
X168972112Y-90973896D01*
X168971900Y-90888099D01*
X168972638Y-90747821D01*
X168975707Y-90648434D01*
X168982389Y-90580040D01*
X168993967Y-90532741D01*
X169011724Y-90496638D01*
X169025149Y-90477212D01*
X169059114Y-90434974D01*
X169094947Y-90402625D01*
X169139642Y-90378846D01*
X169200189Y-90362320D01*
X169283580Y-90351728D01*
X169396807Y-90345752D01*
X169546862Y-90343073D01*
X169740250Y-90342374D01*
X170280000Y-90342000D01*
X170280000Y-91434200D01*
X170708117Y-91434200D01*
X170708743Y-91395483D01*
X170710523Y-91220210D01*
X170711566Y-91025211D01*
X170711800Y-90875136D01*
X170711553Y-90639751D01*
X170710660Y-90450047D01*
X170708893Y-90300910D01*
X170706027Y-90187222D01*
X170701833Y-90103867D01*
X170696086Y-90045729D01*
X170688557Y-90007692D01*
X170679020Y-89984639D01*
X170671886Y-89975514D01*
X170653294Y-89963008D01*
X170621646Y-89953380D01*
X170570951Y-89946284D01*
X170495220Y-89941377D01*
X170388464Y-89938313D01*
X170244693Y-89936747D01*
X170057917Y-89936334D01*
X169992436Y-89936384D01*
G36*
X166279500Y-90329300D02*
G01*
X166993200Y-90342000D01*
X167212125Y-90346029D01*
X167385857Y-90350247D01*
X167519992Y-90355839D01*
X167620127Y-90363989D01*
X167691859Y-90375884D01*
X167740784Y-90392708D01*
X167772498Y-90415648D01*
X167792599Y-90445888D01*
X167806684Y-90484615D01*
X167815624Y-90516199D01*
X167830776Y-90567452D01*
X167841280Y-90608070D01*
X167842192Y-90639285D01*
X167828567Y-90662330D01*
X167795461Y-90678434D01*
X167737929Y-90688832D01*
X167651027Y-90694754D01*
X167529810Y-90697433D01*
X167369334Y-90698100D01*
X167164653Y-90697987D01*
X167085950Y-90697988D01*
X166893922Y-90698771D01*
X166717647Y-90700795D01*
X166563731Y-90703881D01*
X166438777Y-90707851D01*
X166349391Y-90712525D01*
X166302175Y-90717724D01*
X166297164Y-90719395D01*
X166276611Y-90757395D01*
X166270196Y-90838729D01*
X166271764Y-90890456D01*
X166279500Y-91040500D01*
X167841600Y-91053934D01*
X167841459Y-91110717D01*
X167829547Y-91208239D01*
X167798971Y-91300325D01*
X167756763Y-91368978D01*
X167732539Y-91389451D01*
X167694546Y-91400535D01*
X167620289Y-91410016D01*
X167506679Y-91418077D01*
X167350629Y-91424900D01*
X167149048Y-91430669D01*
X166978000Y-91434200D01*
X166279500Y-91446900D01*
X166272038Y-91631050D01*
X166264575Y-91815200D01*
X167008638Y-91812600D01*
X167202233Y-91811273D01*
X167382807Y-91808806D01*
X167543109Y-91805392D01*
X167675887Y-91801228D01*
X167773892Y-91796508D01*
X167829872Y-91791428D01*
X167835616Y-91790333D01*
X167973917Y-91732993D01*
X168092790Y-91636558D01*
X168175073Y-91518425D01*
X168195664Y-91474100D01*
X168210942Y-91431118D01*
X168221698Y-91381216D01*
X168228719Y-91316128D01*
X168232798Y-91227593D01*
X168234721Y-91107345D01*
X168235281Y-90947122D01*
X168235300Y-90888100D01*
X168235048Y-90714370D01*
X168233737Y-90583147D01*
X168230540Y-90486138D01*
X168224625Y-90415051D01*
X168215165Y-90361593D01*
X168201329Y-90317471D01*
X168182289Y-90274393D01*
X168171800Y-90253136D01*
X168083509Y-90125761D01*
X167961814Y-90033731D01*
X167831414Y-89981282D01*
X167764406Y-89970202D01*
X167647287Y-89961496D01*
X167479899Y-89955160D01*
X167262080Y-89951187D01*
X167003400Y-89949586D01*
X166279500Y-89948300D01*
X166279500Y-90329300D01*
G37*
X166279500Y-90329300D02*
X166993200Y-90342000D01*
X167212125Y-90346029D01*
X167385857Y-90350247D01*
X167519992Y-90355839D01*
X167620127Y-90363989D01*
X167691859Y-90375884D01*
X167740784Y-90392708D01*
X167772498Y-90415648D01*
X167792599Y-90445888D01*
X167806684Y-90484615D01*
X167815624Y-90516199D01*
X167830776Y-90567452D01*
X167841280Y-90608070D01*
X167842192Y-90639285D01*
X167828567Y-90662330D01*
X167795461Y-90678434D01*
X167737929Y-90688832D01*
X167651027Y-90694754D01*
X167529810Y-90697433D01*
X167369334Y-90698100D01*
X167164653Y-90697987D01*
X167085950Y-90697988D01*
X166893922Y-90698771D01*
X166717647Y-90700795D01*
X166563731Y-90703881D01*
X166438777Y-90707851D01*
X166349391Y-90712525D01*
X166302175Y-90717724D01*
X166297164Y-90719395D01*
X166276611Y-90757395D01*
X166270196Y-90838729D01*
X166271764Y-90890456D01*
X166279500Y-91040500D01*
X167841600Y-91053934D01*
X167841459Y-91110717D01*
X167829547Y-91208239D01*
X167798971Y-91300325D01*
X167756763Y-91368978D01*
X167732539Y-91389451D01*
X167694546Y-91400535D01*
X167620289Y-91410016D01*
X167506679Y-91418077D01*
X167350629Y-91424900D01*
X167149048Y-91430669D01*
X166978000Y-91434200D01*
X166279500Y-91446900D01*
X166272038Y-91631050D01*
X166264575Y-91815200D01*
X167008638Y-91812600D01*
X167202233Y-91811273D01*
X167382807Y-91808806D01*
X167543109Y-91805392D01*
X167675887Y-91801228D01*
X167773892Y-91796508D01*
X167829872Y-91791428D01*
X167835616Y-91790333D01*
X167973917Y-91732993D01*
X168092790Y-91636558D01*
X168175073Y-91518425D01*
X168195664Y-91474100D01*
X168210942Y-91431118D01*
X168221698Y-91381216D01*
X168228719Y-91316128D01*
X168232798Y-91227593D01*
X168234721Y-91107345D01*
X168235281Y-90947122D01*
X168235300Y-90888100D01*
X168235048Y-90714370D01*
X168233737Y-90583147D01*
X168230540Y-90486138D01*
X168224625Y-90415051D01*
X168215165Y-90361593D01*
X168201329Y-90317471D01*
X168182289Y-90274393D01*
X168171800Y-90253136D01*
X168083509Y-90125761D01*
X167961814Y-90033731D01*
X167831414Y-89981282D01*
X167764406Y-89970202D01*
X167647287Y-89961496D01*
X167479899Y-89955160D01*
X167262080Y-89951187D01*
X167003400Y-89949586D01*
X166279500Y-89948300D01*
X166279500Y-90329300D01*
G36*
X165280035Y-89937999D02*
G01*
X165067823Y-89939812D01*
X164842125Y-89942222D01*
X164661264Y-89944577D01*
X164519282Y-89947331D01*
X164410218Y-89950938D01*
X164328113Y-89955851D01*
X164267008Y-89962523D01*
X164220941Y-89971408D01*
X164183955Y-89982958D01*
X164150089Y-89997628D01*
X164121466Y-90011800D01*
X164027695Y-90069553D01*
X163960357Y-90139512D01*
X163915745Y-90230299D01*
X163890151Y-90350541D01*
X163879868Y-90508861D01*
X163879200Y-90575410D01*
X163886502Y-90760216D01*
X163910605Y-90902812D01*
X163954808Y-91009960D01*
X164022408Y-91088424D01*
X164116704Y-91144965D01*
X164166376Y-91164255D01*
X164255167Y-91194780D01*
X164029312Y-91473240D01*
X163947851Y-91575802D01*
X163879420Y-91666015D01*
X163829860Y-91735864D01*
X163805011Y-91777335D01*
X163803229Y-91783450D01*
X163819482Y-91799939D01*
X163872321Y-91810091D01*
X163967431Y-91814711D01*
X164027925Y-91815200D01*
X164252849Y-91815200D01*
X164475555Y-91523100D01*
X164698260Y-91231000D01*
X165530200Y-91231000D01*
X165530200Y-91482922D01*
X165531696Y-91594727D01*
X165535716Y-91690014D01*
X165541565Y-91755569D01*
X165545618Y-91775022D01*
X165564272Y-91796066D01*
X165606921Y-91808520D01*
X165683473Y-91814229D01*
X165761518Y-91815200D01*
X165962000Y-91815200D01*
X165962000Y-90903910D01*
X165961727Y-90659090D01*
X165960783Y-90460314D01*
X165959139Y-90316600D01*
X165530200Y-90316600D01*
X165530200Y-90903501D01*
X164959556Y-90895800D01*
X164771573Y-90892851D01*
X164627883Y-90889375D01*
X164521978Y-90884832D01*
X164447352Y-90878683D01*
X164397497Y-90870388D01*
X164365906Y-90859409D01*
X164346071Y-90845207D01*
X164345803Y-90844939D01*
X164315521Y-90787931D01*
X164295889Y-90699465D01*
X164288558Y-90598081D01*
X164295175Y-90502315D01*
X164310265Y-90445376D01*
X164331753Y-90405497D01*
X164363235Y-90374681D01*
X164410891Y-90351796D01*
X164480901Y-90335710D01*
X164579444Y-90325291D01*
X164712701Y-90319407D01*
X164886852Y-90316926D01*
X165013291Y-90316600D01*
X165530200Y-90316600D01*
X165959139Y-90316600D01*
X165958981Y-90302828D01*
X165956135Y-90181878D01*
X165952059Y-90092709D01*
X165946566Y-90030567D01*
X165939471Y-89990700D01*
X165930586Y-89968352D01*
X165925073Y-89961972D01*
X165900336Y-89953031D01*
X165847698Y-89946203D01*
X165763254Y-89941386D01*
X165643098Y-89938481D01*
X165483327Y-89937385D01*
X165280035Y-89937999D01*
G37*
X165280035Y-89937999D02*
X165067823Y-89939812D01*
X164842125Y-89942222D01*
X164661264Y-89944577D01*
X164519282Y-89947331D01*
X164410218Y-89950938D01*
X164328113Y-89955851D01*
X164267008Y-89962523D01*
X164220941Y-89971408D01*
X164183955Y-89982958D01*
X164150089Y-89997628D01*
X164121466Y-90011800D01*
X164027695Y-90069553D01*
X163960357Y-90139512D01*
X163915745Y-90230299D01*
X163890151Y-90350541D01*
X163879868Y-90508861D01*
X163879200Y-90575410D01*
X163886502Y-90760216D01*
X163910605Y-90902812D01*
X163954808Y-91009960D01*
X164022408Y-91088424D01*
X164116704Y-91144965D01*
X164166376Y-91164255D01*
X164255167Y-91194780D01*
X164029312Y-91473240D01*
X163947851Y-91575802D01*
X163879420Y-91666015D01*
X163829860Y-91735864D01*
X163805011Y-91777335D01*
X163803229Y-91783450D01*
X163819482Y-91799939D01*
X163872321Y-91810091D01*
X163967431Y-91814711D01*
X164027925Y-91815200D01*
X164252849Y-91815200D01*
X164475555Y-91523100D01*
X164698260Y-91231000D01*
X165530200Y-91231000D01*
X165530200Y-91482922D01*
X165531696Y-91594727D01*
X165535716Y-91690014D01*
X165541565Y-91755569D01*
X165545618Y-91775022D01*
X165564272Y-91796066D01*
X165606921Y-91808520D01*
X165683473Y-91814229D01*
X165761518Y-91815200D01*
X165962000Y-91815200D01*
X165962000Y-90903910D01*
X165961727Y-90659090D01*
X165960783Y-90460314D01*
X165959139Y-90316600D01*
X165530200Y-90316600D01*
X165530200Y-90903501D01*
X164959556Y-90895800D01*
X164771573Y-90892851D01*
X164627883Y-90889375D01*
X164521978Y-90884832D01*
X164447352Y-90878683D01*
X164397497Y-90870388D01*
X164365906Y-90859409D01*
X164346071Y-90845207D01*
X164345803Y-90844939D01*
X164315521Y-90787931D01*
X164295889Y-90699465D01*
X164288558Y-90598081D01*
X164295175Y-90502315D01*
X164310265Y-90445376D01*
X164331753Y-90405497D01*
X164363235Y-90374681D01*
X164410891Y-90351796D01*
X164480901Y-90335710D01*
X164579444Y-90325291D01*
X164712701Y-90319407D01*
X164886852Y-90316926D01*
X165013291Y-90316600D01*
X165530200Y-90316600D01*
X165959139Y-90316600D01*
X165958981Y-90302828D01*
X165956135Y-90181878D01*
X165952059Y-90092709D01*
X165946566Y-90030567D01*
X165939471Y-89990700D01*
X165930586Y-89968352D01*
X165925073Y-89961972D01*
X165900336Y-89953031D01*
X165847698Y-89946203D01*
X165763254Y-89941386D01*
X165643098Y-89938481D01*
X165483327Y-89937385D01*
X165280035Y-89937999D01*
G36*
X158432810Y-89958228D02*
G01*
X158339281Y-89994296D01*
X158314770Y-90013630D01*
X158301663Y-90029020D01*
X158291125Y-90049736D01*
X158282876Y-90081051D01*
X158276639Y-90128238D01*
X158272133Y-90196569D01*
X158269079Y-90291317D01*
X158267199Y-90417756D01*
X158266214Y-90581158D01*
X158265843Y-90786795D01*
X158265800Y-90938900D01*
X158265800Y-91815200D01*
X158452067Y-91815200D01*
X158544981Y-91813039D01*
X158616967Y-91807344D01*
X158653906Y-91799289D01*
X158655267Y-91798266D01*
X158659605Y-91769462D01*
X158663532Y-91696394D01*
X158666901Y-91585599D01*
X158669562Y-91443613D01*
X158671369Y-91276972D01*
X158672173Y-91092213D01*
X158672200Y-91050358D01*
X158672200Y-90319383D01*
X158792850Y-90311641D01*
X158913500Y-90303900D01*
X158913500Y-89948300D01*
X158748400Y-89940298D01*
X158570134Y-89940068D01*
X158432810Y-89958228D01*
G37*
X158432810Y-89958228D02*
X158339281Y-89994296D01*
X158314770Y-90013630D01*
X158301663Y-90029020D01*
X158291125Y-90049736D01*
X158282876Y-90081051D01*
X158276639Y-90128238D01*
X158272133Y-90196569D01*
X158269079Y-90291317D01*
X158267199Y-90417756D01*
X158266214Y-90581158D01*
X158265843Y-90786795D01*
X158265800Y-90938900D01*
X158265800Y-91815200D01*
X158452067Y-91815200D01*
X158544981Y-91813039D01*
X158616967Y-91807344D01*
X158653906Y-91799289D01*
X158655267Y-91798266D01*
X158659605Y-91769462D01*
X158663532Y-91696394D01*
X158666901Y-91585599D01*
X158669562Y-91443613D01*
X158671369Y-91276972D01*
X158672173Y-91092213D01*
X158672200Y-91050358D01*
X158672200Y-90319383D01*
X158792850Y-90311641D01*
X158913500Y-90303900D01*
X158913500Y-89948300D01*
X158748400Y-89940298D01*
X158570134Y-89940068D01*
X158432810Y-89958228D01*
G36*
X156281464Y-89940191D02*
G01*
X156159553Y-89943965D01*
X156070556Y-89950072D01*
X156022393Y-89958651D01*
X156017661Y-89961198D01*
X155990857Y-90012145D01*
X155979926Y-90101929D01*
X155979800Y-90114432D01*
X155979105Y-90174609D01*
X155980744Y-90221537D01*
X155990309Y-90256857D01*
X156013390Y-90282205D01*
X156055578Y-90299221D01*
X156122462Y-90309543D01*
X156219634Y-90314810D01*
X156352683Y-90316660D01*
X156527201Y-90316731D01*
X156669579Y-90316600D01*
X156877889Y-90317067D01*
X157041525Y-90318686D01*
X157166608Y-90321785D01*
X157259256Y-90326692D01*
X157325591Y-90333733D01*
X157371731Y-90343236D01*
X157403797Y-90355528D01*
X157404553Y-90355916D01*
X157477035Y-90415360D01*
X157517525Y-90505561D01*
X157529200Y-90623053D01*
X157529200Y-90723000D01*
X156875150Y-90723039D01*
X156655716Y-90723583D01*
X156480883Y-90726012D01*
X156344456Y-90731562D01*
X156240242Y-90741468D01*
X156162045Y-90756970D01*
X156103670Y-90779302D01*
X156058925Y-90809702D01*
X156021612Y-90849406D01*
X155985539Y-90899652D01*
X155984770Y-90900800D01*
X155959180Y-90942694D01*
X155942616Y-90984600D01*
X155933557Y-91037958D01*
X155930480Y-91114214D01*
X155931861Y-91224808D01*
X155933464Y-91286386D01*
X155938398Y-91419699D01*
X155945680Y-91513045D01*
X155957099Y-91577256D01*
X155974446Y-91623162D01*
X155994306Y-91654686D01*
X156031502Y-91701517D01*
X156070557Y-91738253D01*
X156117885Y-91766098D01*
X156179896Y-91786255D01*
X156263003Y-91799927D01*
X156373618Y-91808319D01*
X156518152Y-91812633D01*
X156703018Y-91814073D01*
X156843400Y-91814045D01*
X157059413Y-91812848D01*
X157230196Y-91809901D01*
X157361300Y-91804920D01*
X157458275Y-91797624D01*
X157526670Y-91787730D01*
X157565832Y-91777300D01*
X157696776Y-91715259D01*
X157794287Y-91629199D01*
X157859400Y-91533549D01*
X157882194Y-91490692D01*
X157898997Y-91448604D01*
X157910920Y-91398531D01*
X157919074Y-91331717D01*
X157924569Y-91239408D01*
X157928517Y-91112849D01*
X157930299Y-91027800D01*
X157535306Y-91027800D01*
X157524005Y-91184031D01*
X157513572Y-91278086D01*
X157494787Y-91338811D01*
X157461135Y-91383643D01*
X157443336Y-91399931D01*
X157417545Y-91420567D01*
X157389956Y-91435798D01*
X157352902Y-91446444D01*
X157298710Y-91453326D01*
X157219712Y-91457262D01*
X157108236Y-91459073D01*
X156956614Y-91459579D01*
X156885164Y-91459600D01*
X156693541Y-91458408D01*
X156549132Y-91454697D01*
X156448405Y-91448258D01*
X156387824Y-91438883D01*
X156365880Y-91429120D01*
X156349275Y-91388099D01*
X156338285Y-91313301D01*
X156335400Y-91243700D01*
X156340204Y-91154486D01*
X156352756Y-91086065D01*
X156365880Y-91058279D01*
X156394382Y-91047324D01*
X156457685Y-91038996D01*
X156559480Y-91033107D01*
X156703457Y-91029470D01*
X156893307Y-91027897D01*
X156965833Y-91027800D01*
X157535306Y-91027800D01*
X157930299Y-91027800D01*
X157931630Y-90964300D01*
X157934034Y-90754642D01*
X157931389Y-90588293D01*
X157922302Y-90457894D01*
X157905376Y-90356085D01*
X157879218Y-90275505D01*
X157842433Y-90208797D01*
X157793625Y-90148600D01*
X157772997Y-90127260D01*
X157663710Y-90039652D01*
X157553287Y-89988207D01*
X157491473Y-89977255D01*
X157391308Y-89967383D01*
X157260710Y-89958729D01*
X157107597Y-89951432D01*
X156939889Y-89945633D01*
X156765503Y-89941470D01*
X156592358Y-89939082D01*
X156428372Y-89938609D01*
X156281464Y-89940191D01*
G37*
X156281464Y-89940191D02*
X156159553Y-89943965D01*
X156070556Y-89950072D01*
X156022393Y-89958651D01*
X156017661Y-89961198D01*
X155990857Y-90012145D01*
X155979926Y-90101929D01*
X155979800Y-90114432D01*
X155979105Y-90174609D01*
X155980744Y-90221537D01*
X155990309Y-90256857D01*
X156013390Y-90282205D01*
X156055578Y-90299221D01*
X156122462Y-90309543D01*
X156219634Y-90314810D01*
X156352683Y-90316660D01*
X156527201Y-90316731D01*
X156669579Y-90316600D01*
X156877889Y-90317067D01*
X157041525Y-90318686D01*
X157166608Y-90321785D01*
X157259256Y-90326692D01*
X157325591Y-90333733D01*
X157371731Y-90343236D01*
X157403797Y-90355528D01*
X157404553Y-90355916D01*
X157477035Y-90415360D01*
X157517525Y-90505561D01*
X157529200Y-90623053D01*
X157529200Y-90723000D01*
X156875150Y-90723039D01*
X156655716Y-90723583D01*
X156480883Y-90726012D01*
X156344456Y-90731562D01*
X156240242Y-90741468D01*
X156162045Y-90756970D01*
X156103670Y-90779302D01*
X156058925Y-90809702D01*
X156021612Y-90849406D01*
X155985539Y-90899652D01*
X155984770Y-90900800D01*
X155959180Y-90942694D01*
X155942616Y-90984600D01*
X155933557Y-91037958D01*
X155930480Y-91114214D01*
X155931861Y-91224808D01*
X155933464Y-91286386D01*
X155938398Y-91419699D01*
X155945680Y-91513045D01*
X155957099Y-91577256D01*
X155974446Y-91623162D01*
X155994306Y-91654686D01*
X156031502Y-91701517D01*
X156070557Y-91738253D01*
X156117885Y-91766098D01*
X156179896Y-91786255D01*
X156263003Y-91799927D01*
X156373618Y-91808319D01*
X156518152Y-91812633D01*
X156703018Y-91814073D01*
X156843400Y-91814045D01*
X157059413Y-91812848D01*
X157230196Y-91809901D01*
X157361300Y-91804920D01*
X157458275Y-91797624D01*
X157526670Y-91787730D01*
X157565832Y-91777300D01*
X157696776Y-91715259D01*
X157794287Y-91629199D01*
X157859400Y-91533549D01*
X157882194Y-91490692D01*
X157898997Y-91448604D01*
X157910920Y-91398531D01*
X157919074Y-91331717D01*
X157924569Y-91239408D01*
X157928517Y-91112849D01*
X157930299Y-91027800D01*
X157535306Y-91027800D01*
X157524005Y-91184031D01*
X157513572Y-91278086D01*
X157494787Y-91338811D01*
X157461135Y-91383643D01*
X157443336Y-91399931D01*
X157417545Y-91420567D01*
X157389956Y-91435798D01*
X157352902Y-91446444D01*
X157298710Y-91453326D01*
X157219712Y-91457262D01*
X157108236Y-91459073D01*
X156956614Y-91459579D01*
X156885164Y-91459600D01*
X156693541Y-91458408D01*
X156549132Y-91454697D01*
X156448405Y-91448258D01*
X156387824Y-91438883D01*
X156365880Y-91429120D01*
X156349275Y-91388099D01*
X156338285Y-91313301D01*
X156335400Y-91243700D01*
X156340204Y-91154486D01*
X156352756Y-91086065D01*
X156365880Y-91058279D01*
X156394382Y-91047324D01*
X156457685Y-91038996D01*
X156559480Y-91033107D01*
X156703457Y-91029470D01*
X156893307Y-91027897D01*
X156965833Y-91027800D01*
X157535306Y-91027800D01*
X157930299Y-91027800D01*
X157931630Y-90964300D01*
X157934034Y-90754642D01*
X157931389Y-90588293D01*
X157922302Y-90457894D01*
X157905376Y-90356085D01*
X157879218Y-90275505D01*
X157842433Y-90208797D01*
X157793625Y-90148600D01*
X157772997Y-90127260D01*
X157663710Y-90039652D01*
X157553287Y-89988207D01*
X157491473Y-89977255D01*
X157391308Y-89967383D01*
X157260710Y-89958729D01*
X157107597Y-89951432D01*
X156939889Y-89945633D01*
X156765503Y-89941470D01*
X156592358Y-89939082D01*
X156428372Y-89938609D01*
X156281464Y-89940191D01*
D11*
%TO.C,J2*%
X190670000Y-106400000D02*
X190670000Y-101200000D01*
X170230000Y-106400000D02*
X170230000Y-101200000D01*
X190100000Y-107840000D02*
X190100000Y-106400000D01*
X190670000Y-106400000D02*
X190100000Y-106400000D01*
X190670000Y-101200000D02*
X190100000Y-101200000D01*
X170800000Y-106400000D02*
X170230000Y-106400000D01*
X170800000Y-101200000D02*
X170230000Y-101200000D01*
X188580000Y-106400000D02*
X187560000Y-106400000D01*
X188580000Y-101200000D02*
X187560000Y-101200000D01*
X186040000Y-106400000D02*
X185020000Y-106400000D01*
X186040000Y-101200000D02*
X185020000Y-101200000D01*
X183500000Y-106400000D02*
X182480000Y-106400000D01*
X183500000Y-101200000D02*
X182480000Y-101200000D01*
X180960000Y-106400000D02*
X179940000Y-106400000D01*
X180960000Y-101200000D02*
X179940000Y-101200000D01*
X178420000Y-106400000D02*
X177400000Y-106400000D01*
X178420000Y-101200000D02*
X177400000Y-101200000D01*
X175880000Y-106400000D02*
X174860000Y-106400000D01*
X175880000Y-101200000D02*
X174860000Y-101200000D01*
X173340000Y-106400000D02*
X172320000Y-106400000D01*
X173340000Y-101200000D02*
X172320000Y-101200000D01*
%TO.C,C5*%
D10*
X131666666Y-85077142D02*
X131714285Y-85124761D01*
X131857142Y-85172380D01*
X131952380Y-85172380D01*
X132095238Y-85124761D01*
X132190476Y-85029523D01*
X132238095Y-84934285D01*
X132285714Y-84743809D01*
X132285714Y-84600952D01*
X132238095Y-84410476D01*
X132190476Y-84315238D01*
X132095238Y-84220000D01*
X131952380Y-84172380D01*
X131857142Y-84172380D01*
X131714285Y-84220000D01*
X131666666Y-84267619D01*
X130761904Y-84172380D02*
X131238095Y-84172380D01*
X131285714Y-84648571D01*
X131238095Y-84600952D01*
X131142857Y-84553333D01*
X130904761Y-84553333D01*
X130809523Y-84600952D01*
X130761904Y-84648571D01*
X130714285Y-84743809D01*
X130714285Y-84981904D01*
X130761904Y-85077142D01*
X130809523Y-85124761D01*
X130904761Y-85172380D01*
X131142857Y-85172380D01*
X131238095Y-85124761D01*
X131285714Y-85077142D01*
%TO.C,C6*%
X131866666Y-90257142D02*
X131914285Y-90304761D01*
X132057142Y-90352380D01*
X132152380Y-90352380D01*
X132295238Y-90304761D01*
X132390476Y-90209523D01*
X132438095Y-90114285D01*
X132485714Y-89923809D01*
X132485714Y-89780952D01*
X132438095Y-89590476D01*
X132390476Y-89495238D01*
X132295238Y-89400000D01*
X132152380Y-89352380D01*
X132057142Y-89352380D01*
X131914285Y-89400000D01*
X131866666Y-89447619D01*
X131009523Y-89352380D02*
X131200000Y-89352380D01*
X131295238Y-89400000D01*
X131342857Y-89447619D01*
X131438095Y-89590476D01*
X131485714Y-89780952D01*
X131485714Y-90161904D01*
X131438095Y-90257142D01*
X131390476Y-90304761D01*
X131295238Y-90352380D01*
X131104761Y-90352380D01*
X131009523Y-90304761D01*
X130961904Y-90257142D01*
X130914285Y-90161904D01*
X130914285Y-89923809D01*
X130961904Y-89828571D01*
X131009523Y-89780952D01*
X131104761Y-89733333D01*
X131295238Y-89733333D01*
X131390476Y-89780952D01*
X131438095Y-89828571D01*
X131485714Y-89923809D01*
%TO.C,C11*%
X136942857Y-85257142D02*
X136990476Y-85304761D01*
X137133333Y-85352380D01*
X137228571Y-85352380D01*
X137371428Y-85304761D01*
X137466666Y-85209523D01*
X137514285Y-85114285D01*
X137561904Y-84923809D01*
X137561904Y-84780952D01*
X137514285Y-84590476D01*
X137466666Y-84495238D01*
X137371428Y-84400000D01*
X137228571Y-84352380D01*
X137133333Y-84352380D01*
X136990476Y-84400000D01*
X136942857Y-84447619D01*
X135990476Y-85352380D02*
X136561904Y-85352380D01*
X136276190Y-85352380D02*
X136276190Y-84352380D01*
X136371428Y-84495238D01*
X136466666Y-84590476D01*
X136561904Y-84638095D01*
X135038095Y-85352380D02*
X135609523Y-85352380D01*
X135323809Y-85352380D02*
X135323809Y-84352380D01*
X135419047Y-84495238D01*
X135514285Y-84590476D01*
X135609523Y-84638095D01*
%TO.C,C12*%
X137142857Y-90437142D02*
X137190476Y-90484761D01*
X137333333Y-90532380D01*
X137428571Y-90532380D01*
X137571428Y-90484761D01*
X137666666Y-90389523D01*
X137714285Y-90294285D01*
X137761904Y-90103809D01*
X137761904Y-89960952D01*
X137714285Y-89770476D01*
X137666666Y-89675238D01*
X137571428Y-89580000D01*
X137428571Y-89532380D01*
X137333333Y-89532380D01*
X137190476Y-89580000D01*
X137142857Y-89627619D01*
X136190476Y-90532380D02*
X136761904Y-90532380D01*
X136476190Y-90532380D02*
X136476190Y-89532380D01*
X136571428Y-89675238D01*
X136666666Y-89770476D01*
X136761904Y-89818095D01*
X135809523Y-89627619D02*
X135761904Y-89580000D01*
X135666666Y-89532380D01*
X135428571Y-89532380D01*
X135333333Y-89580000D01*
X135285714Y-89627619D01*
X135238095Y-89722857D01*
X135238095Y-89818095D01*
X135285714Y-89960952D01*
X135857142Y-90532380D01*
X135238095Y-90532380D01*
%TO.C,C20*%
X144537142Y-93757142D02*
X144584761Y-93709523D01*
X144632380Y-93566666D01*
X144632380Y-93471428D01*
X144584761Y-93328571D01*
X144489523Y-93233333D01*
X144394285Y-93185714D01*
X144203809Y-93138095D01*
X144060952Y-93138095D01*
X143870476Y-93185714D01*
X143775238Y-93233333D01*
X143680000Y-93328571D01*
X143632380Y-93471428D01*
X143632380Y-93566666D01*
X143680000Y-93709523D01*
X143727619Y-93757142D01*
X143727619Y-94138095D02*
X143680000Y-94185714D01*
X143632380Y-94280952D01*
X143632380Y-94519047D01*
X143680000Y-94614285D01*
X143727619Y-94661904D01*
X143822857Y-94709523D01*
X143918095Y-94709523D01*
X144060952Y-94661904D01*
X144632380Y-94090476D01*
X144632380Y-94709523D01*
X143632380Y-95328571D02*
X143632380Y-95423809D01*
X143680000Y-95519047D01*
X143727619Y-95566666D01*
X143822857Y-95614285D01*
X144013333Y-95661904D01*
X144251428Y-95661904D01*
X144441904Y-95614285D01*
X144537142Y-95566666D01*
X144584761Y-95519047D01*
X144632380Y-95423809D01*
X144632380Y-95328571D01*
X144584761Y-95233333D01*
X144537142Y-95185714D01*
X144441904Y-95138095D01*
X144251428Y-95090476D01*
X144013333Y-95090476D01*
X143822857Y-95138095D01*
X143727619Y-95185714D01*
X143680000Y-95233333D01*
X143632380Y-95328571D01*
%TO.C,C21*%
X139297142Y-93747142D02*
X139344761Y-93699523D01*
X139392380Y-93556666D01*
X139392380Y-93461428D01*
X139344761Y-93318571D01*
X139249523Y-93223333D01*
X139154285Y-93175714D01*
X138963809Y-93128095D01*
X138820952Y-93128095D01*
X138630476Y-93175714D01*
X138535238Y-93223333D01*
X138440000Y-93318571D01*
X138392380Y-93461428D01*
X138392380Y-93556666D01*
X138440000Y-93699523D01*
X138487619Y-93747142D01*
X138487619Y-94128095D02*
X138440000Y-94175714D01*
X138392380Y-94270952D01*
X138392380Y-94509047D01*
X138440000Y-94604285D01*
X138487619Y-94651904D01*
X138582857Y-94699523D01*
X138678095Y-94699523D01*
X138820952Y-94651904D01*
X139392380Y-94080476D01*
X139392380Y-94699523D01*
X139392380Y-95651904D02*
X139392380Y-95080476D01*
X139392380Y-95366190D02*
X138392380Y-95366190D01*
X138535238Y-95270952D01*
X138630476Y-95175714D01*
X138678095Y-95080476D01*
%TO.C,C22*%
X144537142Y-89757142D02*
X144584761Y-89709523D01*
X144632380Y-89566666D01*
X144632380Y-89471428D01*
X144584761Y-89328571D01*
X144489523Y-89233333D01*
X144394285Y-89185714D01*
X144203809Y-89138095D01*
X144060952Y-89138095D01*
X143870476Y-89185714D01*
X143775238Y-89233333D01*
X143680000Y-89328571D01*
X143632380Y-89471428D01*
X143632380Y-89566666D01*
X143680000Y-89709523D01*
X143727619Y-89757142D01*
X143727619Y-90138095D02*
X143680000Y-90185714D01*
X143632380Y-90280952D01*
X143632380Y-90519047D01*
X143680000Y-90614285D01*
X143727619Y-90661904D01*
X143822857Y-90709523D01*
X143918095Y-90709523D01*
X144060952Y-90661904D01*
X144632380Y-90090476D01*
X144632380Y-90709523D01*
X143727619Y-91090476D02*
X143680000Y-91138095D01*
X143632380Y-91233333D01*
X143632380Y-91471428D01*
X143680000Y-91566666D01*
X143727619Y-91614285D01*
X143822857Y-91661904D01*
X143918095Y-91661904D01*
X144060952Y-91614285D01*
X144632380Y-91042857D01*
X144632380Y-91661904D01*
%TO.C,C23*%
X139367142Y-89807142D02*
X139414761Y-89759523D01*
X139462380Y-89616666D01*
X139462380Y-89521428D01*
X139414761Y-89378571D01*
X139319523Y-89283333D01*
X139224285Y-89235714D01*
X139033809Y-89188095D01*
X138890952Y-89188095D01*
X138700476Y-89235714D01*
X138605238Y-89283333D01*
X138510000Y-89378571D01*
X138462380Y-89521428D01*
X138462380Y-89616666D01*
X138510000Y-89759523D01*
X138557619Y-89807142D01*
X138557619Y-90188095D02*
X138510000Y-90235714D01*
X138462380Y-90330952D01*
X138462380Y-90569047D01*
X138510000Y-90664285D01*
X138557619Y-90711904D01*
X138652857Y-90759523D01*
X138748095Y-90759523D01*
X138890952Y-90711904D01*
X139462380Y-90140476D01*
X139462380Y-90759523D01*
X138462380Y-91092857D02*
X138462380Y-91711904D01*
X138843333Y-91378571D01*
X138843333Y-91521428D01*
X138890952Y-91616666D01*
X138938571Y-91664285D01*
X139033809Y-91711904D01*
X139271904Y-91711904D01*
X139367142Y-91664285D01*
X139414761Y-91616666D01*
X139462380Y-91521428D01*
X139462380Y-91235714D01*
X139414761Y-91140476D01*
X139367142Y-91092857D01*
%TO.C,C24*%
X128842857Y-101757142D02*
X128890476Y-101804761D01*
X129033333Y-101852380D01*
X129128571Y-101852380D01*
X129271428Y-101804761D01*
X129366666Y-101709523D01*
X129414285Y-101614285D01*
X129461904Y-101423809D01*
X129461904Y-101280952D01*
X129414285Y-101090476D01*
X129366666Y-100995238D01*
X129271428Y-100900000D01*
X129128571Y-100852380D01*
X129033333Y-100852380D01*
X128890476Y-100900000D01*
X128842857Y-100947619D01*
X128461904Y-100947619D02*
X128414285Y-100900000D01*
X128319047Y-100852380D01*
X128080952Y-100852380D01*
X127985714Y-100900000D01*
X127938095Y-100947619D01*
X127890476Y-101042857D01*
X127890476Y-101138095D01*
X127938095Y-101280952D01*
X128509523Y-101852380D01*
X127890476Y-101852380D01*
X127033333Y-101185714D02*
X127033333Y-101852380D01*
X127271428Y-100804761D02*
X127509523Y-101519047D01*
X126890476Y-101519047D01*
%TO.C,C25*%
X128942857Y-100357142D02*
X128990476Y-100404761D01*
X129133333Y-100452380D01*
X129228571Y-100452380D01*
X129371428Y-100404761D01*
X129466666Y-100309523D01*
X129514285Y-100214285D01*
X129561904Y-100023809D01*
X129561904Y-99880952D01*
X129514285Y-99690476D01*
X129466666Y-99595238D01*
X129371428Y-99500000D01*
X129228571Y-99452380D01*
X129133333Y-99452380D01*
X128990476Y-99500000D01*
X128942857Y-99547619D01*
X128561904Y-99547619D02*
X128514285Y-99500000D01*
X128419047Y-99452380D01*
X128180952Y-99452380D01*
X128085714Y-99500000D01*
X128038095Y-99547619D01*
X127990476Y-99642857D01*
X127990476Y-99738095D01*
X128038095Y-99880952D01*
X128609523Y-100452380D01*
X127990476Y-100452380D01*
X127085714Y-99452380D02*
X127561904Y-99452380D01*
X127609523Y-99928571D01*
X127561904Y-99880952D01*
X127466666Y-99833333D01*
X127228571Y-99833333D01*
X127133333Y-99880952D01*
X127085714Y-99928571D01*
X127038095Y-100023809D01*
X127038095Y-100261904D01*
X127085714Y-100357142D01*
X127133333Y-100404761D01*
X127228571Y-100452380D01*
X127466666Y-100452380D01*
X127561904Y-100404761D01*
X127609523Y-100357142D01*
%TO.C,C28*%
X140542857Y-101657142D02*
X140590476Y-101704761D01*
X140733333Y-101752380D01*
X140828571Y-101752380D01*
X140971428Y-101704761D01*
X141066666Y-101609523D01*
X141114285Y-101514285D01*
X141161904Y-101323809D01*
X141161904Y-101180952D01*
X141114285Y-100990476D01*
X141066666Y-100895238D01*
X140971428Y-100800000D01*
X140828571Y-100752380D01*
X140733333Y-100752380D01*
X140590476Y-100800000D01*
X140542857Y-100847619D01*
X140161904Y-100847619D02*
X140114285Y-100800000D01*
X140019047Y-100752380D01*
X139780952Y-100752380D01*
X139685714Y-100800000D01*
X139638095Y-100847619D01*
X139590476Y-100942857D01*
X139590476Y-101038095D01*
X139638095Y-101180952D01*
X140209523Y-101752380D01*
X139590476Y-101752380D01*
X139019047Y-101180952D02*
X139114285Y-101133333D01*
X139161904Y-101085714D01*
X139209523Y-100990476D01*
X139209523Y-100942857D01*
X139161904Y-100847619D01*
X139114285Y-100800000D01*
X139019047Y-100752380D01*
X138828571Y-100752380D01*
X138733333Y-100800000D01*
X138685714Y-100847619D01*
X138638095Y-100942857D01*
X138638095Y-100990476D01*
X138685714Y-101085714D01*
X138733333Y-101133333D01*
X138828571Y-101180952D01*
X139019047Y-101180952D01*
X139114285Y-101228571D01*
X139161904Y-101276190D01*
X139209523Y-101371428D01*
X139209523Y-101561904D01*
X139161904Y-101657142D01*
X139114285Y-101704761D01*
X139019047Y-101752380D01*
X138828571Y-101752380D01*
X138733333Y-101704761D01*
X138685714Y-101657142D01*
X138638095Y-101561904D01*
X138638095Y-101371428D01*
X138685714Y-101276190D01*
X138733333Y-101228571D01*
X138828571Y-101180952D01*
%TO.C,C29*%
X140442857Y-99957142D02*
X140490476Y-100004761D01*
X140633333Y-100052380D01*
X140728571Y-100052380D01*
X140871428Y-100004761D01*
X140966666Y-99909523D01*
X141014285Y-99814285D01*
X141061904Y-99623809D01*
X141061904Y-99480952D01*
X141014285Y-99290476D01*
X140966666Y-99195238D01*
X140871428Y-99100000D01*
X140728571Y-99052380D01*
X140633333Y-99052380D01*
X140490476Y-99100000D01*
X140442857Y-99147619D01*
X140061904Y-99147619D02*
X140014285Y-99100000D01*
X139919047Y-99052380D01*
X139680952Y-99052380D01*
X139585714Y-99100000D01*
X139538095Y-99147619D01*
X139490476Y-99242857D01*
X139490476Y-99338095D01*
X139538095Y-99480952D01*
X140109523Y-100052380D01*
X139490476Y-100052380D01*
X139014285Y-100052380D02*
X138823809Y-100052380D01*
X138728571Y-100004761D01*
X138680952Y-99957142D01*
X138585714Y-99814285D01*
X138538095Y-99623809D01*
X138538095Y-99242857D01*
X138585714Y-99147619D01*
X138633333Y-99100000D01*
X138728571Y-99052380D01*
X138919047Y-99052380D01*
X139014285Y-99100000D01*
X139061904Y-99147619D01*
X139109523Y-99242857D01*
X139109523Y-99480952D01*
X139061904Y-99576190D01*
X139014285Y-99623809D01*
X138919047Y-99671428D01*
X138728571Y-99671428D01*
X138633333Y-99623809D01*
X138585714Y-99576190D01*
X138538095Y-99480952D01*
%TO.C,C31*%
X143242857Y-82657142D02*
X143290476Y-82704761D01*
X143433333Y-82752380D01*
X143528571Y-82752380D01*
X143671428Y-82704761D01*
X143766666Y-82609523D01*
X143814285Y-82514285D01*
X143861904Y-82323809D01*
X143861904Y-82180952D01*
X143814285Y-81990476D01*
X143766666Y-81895238D01*
X143671428Y-81800000D01*
X143528571Y-81752380D01*
X143433333Y-81752380D01*
X143290476Y-81800000D01*
X143242857Y-81847619D01*
X142909523Y-81752380D02*
X142290476Y-81752380D01*
X142623809Y-82133333D01*
X142480952Y-82133333D01*
X142385714Y-82180952D01*
X142338095Y-82228571D01*
X142290476Y-82323809D01*
X142290476Y-82561904D01*
X142338095Y-82657142D01*
X142385714Y-82704761D01*
X142480952Y-82752380D01*
X142766666Y-82752380D01*
X142861904Y-82704761D01*
X142909523Y-82657142D01*
X141338095Y-82752380D02*
X141909523Y-82752380D01*
X141623809Y-82752380D02*
X141623809Y-81752380D01*
X141719047Y-81895238D01*
X141814285Y-81990476D01*
X141909523Y-82038095D01*
%TO.C,C32*%
X140142857Y-86437142D02*
X140190476Y-86484761D01*
X140333333Y-86532380D01*
X140428571Y-86532380D01*
X140571428Y-86484761D01*
X140666666Y-86389523D01*
X140714285Y-86294285D01*
X140761904Y-86103809D01*
X140761904Y-85960952D01*
X140714285Y-85770476D01*
X140666666Y-85675238D01*
X140571428Y-85580000D01*
X140428571Y-85532380D01*
X140333333Y-85532380D01*
X140190476Y-85580000D01*
X140142857Y-85627619D01*
X139809523Y-85532380D02*
X139190476Y-85532380D01*
X139523809Y-85913333D01*
X139380952Y-85913333D01*
X139285714Y-85960952D01*
X139238095Y-86008571D01*
X139190476Y-86103809D01*
X139190476Y-86341904D01*
X139238095Y-86437142D01*
X139285714Y-86484761D01*
X139380952Y-86532380D01*
X139666666Y-86532380D01*
X139761904Y-86484761D01*
X139809523Y-86437142D01*
X138809523Y-85627619D02*
X138761904Y-85580000D01*
X138666666Y-85532380D01*
X138428571Y-85532380D01*
X138333333Y-85580000D01*
X138285714Y-85627619D01*
X138238095Y-85722857D01*
X138238095Y-85818095D01*
X138285714Y-85960952D01*
X138857142Y-86532380D01*
X138238095Y-86532380D01*
%TO.C,C33*%
X125957142Y-93557142D02*
X126004761Y-93509523D01*
X126052380Y-93366666D01*
X126052380Y-93271428D01*
X126004761Y-93128571D01*
X125909523Y-93033333D01*
X125814285Y-92985714D01*
X125623809Y-92938095D01*
X125480952Y-92938095D01*
X125290476Y-92985714D01*
X125195238Y-93033333D01*
X125100000Y-93128571D01*
X125052380Y-93271428D01*
X125052380Y-93366666D01*
X125100000Y-93509523D01*
X125147619Y-93557142D01*
X125052380Y-93890476D02*
X125052380Y-94509523D01*
X125433333Y-94176190D01*
X125433333Y-94319047D01*
X125480952Y-94414285D01*
X125528571Y-94461904D01*
X125623809Y-94509523D01*
X125861904Y-94509523D01*
X125957142Y-94461904D01*
X126004761Y-94414285D01*
X126052380Y-94319047D01*
X126052380Y-94033333D01*
X126004761Y-93938095D01*
X125957142Y-93890476D01*
X125052380Y-94842857D02*
X125052380Y-95461904D01*
X125433333Y-95128571D01*
X125433333Y-95271428D01*
X125480952Y-95366666D01*
X125528571Y-95414285D01*
X125623809Y-95461904D01*
X125861904Y-95461904D01*
X125957142Y-95414285D01*
X126004761Y-95366666D01*
X126052380Y-95271428D01*
X126052380Y-94985714D01*
X126004761Y-94890476D01*
X125957142Y-94842857D01*
%TO.C,C34*%
X128057142Y-93557142D02*
X128104761Y-93509523D01*
X128152380Y-93366666D01*
X128152380Y-93271428D01*
X128104761Y-93128571D01*
X128009523Y-93033333D01*
X127914285Y-92985714D01*
X127723809Y-92938095D01*
X127580952Y-92938095D01*
X127390476Y-92985714D01*
X127295238Y-93033333D01*
X127200000Y-93128571D01*
X127152380Y-93271428D01*
X127152380Y-93366666D01*
X127200000Y-93509523D01*
X127247619Y-93557142D01*
X127152380Y-93890476D02*
X127152380Y-94509523D01*
X127533333Y-94176190D01*
X127533333Y-94319047D01*
X127580952Y-94414285D01*
X127628571Y-94461904D01*
X127723809Y-94509523D01*
X127961904Y-94509523D01*
X128057142Y-94461904D01*
X128104761Y-94414285D01*
X128152380Y-94319047D01*
X128152380Y-94033333D01*
X128104761Y-93938095D01*
X128057142Y-93890476D01*
X127485714Y-95366666D02*
X128152380Y-95366666D01*
X127104761Y-95128571D02*
X127819047Y-94890476D01*
X127819047Y-95509523D01*
%TO.C,R3*%
X178666666Y-109852380D02*
X179000000Y-109376190D01*
X179238095Y-109852380D02*
X179238095Y-108852380D01*
X178857142Y-108852380D01*
X178761904Y-108900000D01*
X178714285Y-108947619D01*
X178666666Y-109042857D01*
X178666666Y-109185714D01*
X178714285Y-109280952D01*
X178761904Y-109328571D01*
X178857142Y-109376190D01*
X179238095Y-109376190D01*
X178333333Y-108852380D02*
X177714285Y-108852380D01*
X178047619Y-109233333D01*
X177904761Y-109233333D01*
X177809523Y-109280952D01*
X177761904Y-109328571D01*
X177714285Y-109423809D01*
X177714285Y-109661904D01*
X177761904Y-109757142D01*
X177809523Y-109804761D01*
X177904761Y-109852380D01*
X178190476Y-109852380D01*
X178285714Y-109804761D01*
X178333333Y-109757142D01*
%TO.C,R4*%
X169666666Y-98902380D02*
X170000000Y-98426190D01*
X170238095Y-98902380D02*
X170238095Y-97902380D01*
X169857142Y-97902380D01*
X169761904Y-97950000D01*
X169714285Y-97997619D01*
X169666666Y-98092857D01*
X169666666Y-98235714D01*
X169714285Y-98330952D01*
X169761904Y-98378571D01*
X169857142Y-98426190D01*
X170238095Y-98426190D01*
X168809523Y-98235714D02*
X168809523Y-98902380D01*
X169047619Y-97854761D02*
X169285714Y-98569047D01*
X168666666Y-98569047D01*
%TO.C,R5*%
X167666666Y-109852380D02*
X168000000Y-109376190D01*
X168238095Y-109852380D02*
X168238095Y-108852380D01*
X167857142Y-108852380D01*
X167761904Y-108900000D01*
X167714285Y-108947619D01*
X167666666Y-109042857D01*
X167666666Y-109185714D01*
X167714285Y-109280952D01*
X167761904Y-109328571D01*
X167857142Y-109376190D01*
X168238095Y-109376190D01*
X166761904Y-108852380D02*
X167238095Y-108852380D01*
X167285714Y-109328571D01*
X167238095Y-109280952D01*
X167142857Y-109233333D01*
X166904761Y-109233333D01*
X166809523Y-109280952D01*
X166761904Y-109328571D01*
X166714285Y-109423809D01*
X166714285Y-109661904D01*
X166761904Y-109757142D01*
X166809523Y-109804761D01*
X166904761Y-109852380D01*
X167142857Y-109852380D01*
X167238095Y-109804761D01*
X167285714Y-109757142D01*
%TO.C,R6*%
X182666666Y-109852380D02*
X183000000Y-109376190D01*
X183238095Y-109852380D02*
X183238095Y-108852380D01*
X182857142Y-108852380D01*
X182761904Y-108900000D01*
X182714285Y-108947619D01*
X182666666Y-109042857D01*
X182666666Y-109185714D01*
X182714285Y-109280952D01*
X182761904Y-109328571D01*
X182857142Y-109376190D01*
X183238095Y-109376190D01*
X181809523Y-108852380D02*
X182000000Y-108852380D01*
X182095238Y-108900000D01*
X182142857Y-108947619D01*
X182238095Y-109090476D01*
X182285714Y-109280952D01*
X182285714Y-109661904D01*
X182238095Y-109757142D01*
X182190476Y-109804761D01*
X182095238Y-109852380D01*
X181904761Y-109852380D01*
X181809523Y-109804761D01*
X181761904Y-109757142D01*
X181714285Y-109661904D01*
X181714285Y-109423809D01*
X181761904Y-109328571D01*
X181809523Y-109280952D01*
X181904761Y-109233333D01*
X182095238Y-109233333D01*
X182190476Y-109280952D01*
X182238095Y-109328571D01*
X182285714Y-109423809D01*
%TO.C,R7*%
X139666666Y-79422380D02*
X140000000Y-78946190D01*
X140238095Y-79422380D02*
X140238095Y-78422380D01*
X139857142Y-78422380D01*
X139761904Y-78470000D01*
X139714285Y-78517619D01*
X139666666Y-78612857D01*
X139666666Y-78755714D01*
X139714285Y-78850952D01*
X139761904Y-78898571D01*
X139857142Y-78946190D01*
X140238095Y-78946190D01*
X139333333Y-78422380D02*
X138666666Y-78422380D01*
X139095238Y-79422380D01*
%TO.C,R8*%
X131666666Y-78852380D02*
X132000000Y-78376190D01*
X132238095Y-78852380D02*
X132238095Y-77852380D01*
X131857142Y-77852380D01*
X131761904Y-77900000D01*
X131714285Y-77947619D01*
X131666666Y-78042857D01*
X131666666Y-78185714D01*
X131714285Y-78280952D01*
X131761904Y-78328571D01*
X131857142Y-78376190D01*
X132238095Y-78376190D01*
X131095238Y-78280952D02*
X131190476Y-78233333D01*
X131238095Y-78185714D01*
X131285714Y-78090476D01*
X131285714Y-78042857D01*
X131238095Y-77947619D01*
X131190476Y-77900000D01*
X131095238Y-77852380D01*
X130904761Y-77852380D01*
X130809523Y-77900000D01*
X130761904Y-77947619D01*
X130714285Y-78042857D01*
X130714285Y-78090476D01*
X130761904Y-78185714D01*
X130809523Y-78233333D01*
X130904761Y-78280952D01*
X131095238Y-78280952D01*
X131190476Y-78328571D01*
X131238095Y-78376190D01*
X131285714Y-78471428D01*
X131285714Y-78661904D01*
X131238095Y-78757142D01*
X131190476Y-78804761D01*
X131095238Y-78852380D01*
X130904761Y-78852380D01*
X130809523Y-78804761D01*
X130761904Y-78757142D01*
X130714285Y-78661904D01*
X130714285Y-78471428D01*
X130761904Y-78376190D01*
X130809523Y-78328571D01*
X130904761Y-78280952D01*
%TO.C,R9*%
X188666666Y-98852380D02*
X189000000Y-98376190D01*
X189238095Y-98852380D02*
X189238095Y-97852380D01*
X188857142Y-97852380D01*
X188761904Y-97900000D01*
X188714285Y-97947619D01*
X188666666Y-98042857D01*
X188666666Y-98185714D01*
X188714285Y-98280952D01*
X188761904Y-98328571D01*
X188857142Y-98376190D01*
X189238095Y-98376190D01*
X188190476Y-98852380D02*
X188000000Y-98852380D01*
X187904761Y-98804761D01*
X187857142Y-98757142D01*
X187761904Y-98614285D01*
X187714285Y-98423809D01*
X187714285Y-98042857D01*
X187761904Y-97947619D01*
X187809523Y-97900000D01*
X187904761Y-97852380D01*
X188095238Y-97852380D01*
X188190476Y-97900000D01*
X188238095Y-97947619D01*
X188285714Y-98042857D01*
X188285714Y-98280952D01*
X188238095Y-98376190D01*
X188190476Y-98423809D01*
X188095238Y-98471428D01*
X187904761Y-98471428D01*
X187809523Y-98423809D01*
X187761904Y-98376190D01*
X187714285Y-98280952D01*
%TO.C,R10*%
X136952380Y-77757142D02*
X136476190Y-77423809D01*
X136952380Y-77185714D02*
X135952380Y-77185714D01*
X135952380Y-77566666D01*
X136000000Y-77661904D01*
X136047619Y-77709523D01*
X136142857Y-77757142D01*
X136285714Y-77757142D01*
X136380952Y-77709523D01*
X136428571Y-77661904D01*
X136476190Y-77566666D01*
X136476190Y-77185714D01*
X136952380Y-78709523D02*
X136952380Y-78138095D01*
X136952380Y-78423809D02*
X135952380Y-78423809D01*
X136095238Y-78328571D01*
X136190476Y-78233333D01*
X136238095Y-78138095D01*
X135952380Y-79328571D02*
X135952380Y-79423809D01*
X136000000Y-79519047D01*
X136047619Y-79566666D01*
X136142857Y-79614285D01*
X136333333Y-79661904D01*
X136571428Y-79661904D01*
X136761904Y-79614285D01*
X136857142Y-79566666D01*
X136904761Y-79519047D01*
X136952380Y-79423809D01*
X136952380Y-79328571D01*
X136904761Y-79233333D01*
X136857142Y-79185714D01*
X136761904Y-79138095D01*
X136571428Y-79090476D01*
X136333333Y-79090476D01*
X136142857Y-79138095D01*
X136047619Y-79185714D01*
X136000000Y-79233333D01*
X135952380Y-79328571D01*
%TO.C,R11*%
X194142857Y-109852380D02*
X194476190Y-109376190D01*
X194714285Y-109852380D02*
X194714285Y-108852380D01*
X194333333Y-108852380D01*
X194238095Y-108900000D01*
X194190476Y-108947619D01*
X194142857Y-109042857D01*
X194142857Y-109185714D01*
X194190476Y-109280952D01*
X194238095Y-109328571D01*
X194333333Y-109376190D01*
X194714285Y-109376190D01*
X193190476Y-109852380D02*
X193761904Y-109852380D01*
X193476190Y-109852380D02*
X193476190Y-108852380D01*
X193571428Y-108995238D01*
X193666666Y-109090476D01*
X193761904Y-109138095D01*
X192238095Y-109852380D02*
X192809523Y-109852380D01*
X192523809Y-109852380D02*
X192523809Y-108852380D01*
X192619047Y-108995238D01*
X192714285Y-109090476D01*
X192809523Y-109138095D01*
%TO.C,R12*%
X189642857Y-97002380D02*
X189976190Y-96526190D01*
X190214285Y-97002380D02*
X190214285Y-96002380D01*
X189833333Y-96002380D01*
X189738095Y-96050000D01*
X189690476Y-96097619D01*
X189642857Y-96192857D01*
X189642857Y-96335714D01*
X189690476Y-96430952D01*
X189738095Y-96478571D01*
X189833333Y-96526190D01*
X190214285Y-96526190D01*
X188690476Y-97002380D02*
X189261904Y-97002380D01*
X188976190Y-97002380D02*
X188976190Y-96002380D01*
X189071428Y-96145238D01*
X189166666Y-96240476D01*
X189261904Y-96288095D01*
X188309523Y-96097619D02*
X188261904Y-96050000D01*
X188166666Y-96002380D01*
X187928571Y-96002380D01*
X187833333Y-96050000D01*
X187785714Y-96097619D01*
X187738095Y-96192857D01*
X187738095Y-96288095D01*
X187785714Y-96430952D01*
X188357142Y-97002380D01*
X187738095Y-97002380D01*
%TO.C,R13*%
X134952380Y-77757142D02*
X134476190Y-77423809D01*
X134952380Y-77185714D02*
X133952380Y-77185714D01*
X133952380Y-77566666D01*
X134000000Y-77661904D01*
X134047619Y-77709523D01*
X134142857Y-77757142D01*
X134285714Y-77757142D01*
X134380952Y-77709523D01*
X134428571Y-77661904D01*
X134476190Y-77566666D01*
X134476190Y-77185714D01*
X134952380Y-78709523D02*
X134952380Y-78138095D01*
X134952380Y-78423809D02*
X133952380Y-78423809D01*
X134095238Y-78328571D01*
X134190476Y-78233333D01*
X134238095Y-78138095D01*
X133952380Y-79042857D02*
X133952380Y-79661904D01*
X134333333Y-79328571D01*
X134333333Y-79471428D01*
X134380952Y-79566666D01*
X134428571Y-79614285D01*
X134523809Y-79661904D01*
X134761904Y-79661904D01*
X134857142Y-79614285D01*
X134904761Y-79566666D01*
X134952380Y-79471428D01*
X134952380Y-79185714D01*
X134904761Y-79090476D01*
X134857142Y-79042857D01*
%TO.C,J2*%
X165683333Y-101052380D02*
X165683333Y-101766666D01*
X165730952Y-101909523D01*
X165826190Y-102004761D01*
X165969047Y-102052380D01*
X166064285Y-102052380D01*
X165254761Y-101147619D02*
X165207142Y-101100000D01*
X165111904Y-101052380D01*
X164873809Y-101052380D01*
X164778571Y-101100000D01*
X164730952Y-101147619D01*
X164683333Y-101242857D01*
X164683333Y-101338095D01*
X164730952Y-101480952D01*
X165302380Y-102052380D01*
X164683333Y-102052380D01*
%TD*%
M02*
