M48
; DRILL file {KiCad 5.1.9+dfsg1-1+deb11u1} date Wed Oct 29 09:53:28 2025
; FORMAT={-:-/ absolute / metric / decimal}
; #@! TF.CreationDate,2025-10-29T09:53:28+01:00
; #@! TF.GenerationSoftware,Kicad,Pcbnew,5.1.9+dfsg1-1+deb11u1
; #@! TF.FileFunction,Plated,1,4,PTH
FMAT,2
METRIC
T1C0.200
T2C0.400
T3C0.900
%
G90
G05
T1
X131.85Y-91.433
X131.85Y-92.433
X131.85Y-93.433
X131.85Y-94.433
X131.85Y-95.433
X132.85Y-91.433
X132.85Y-92.433
X132.85Y-93.433
X132.85Y-94.433
X132.85Y-95.433
X133.85Y-91.433
X133.85Y-92.433
X133.85Y-93.433
X133.85Y-94.433
X133.85Y-95.433
X134.85Y-91.433
X134.85Y-92.433
X134.85Y-93.433
X134.85Y-94.433
X134.85Y-95.433
X135.85Y-91.433
X135.85Y-92.433
X135.85Y-93.433
X135.85Y-94.433
X135.85Y-95.433
T2
X118.5Y-79.4
X121.58Y-92.12
X123.04Y-100.42
X123.5Y-79.4
X123.83Y-89.47
X125.662Y-94.777
X127.32Y-95.01
X127.61Y-87.94
X127.922Y-94.123
X128.85Y-93.75
X128.869Y-95.749
X129.27Y-102.39
X130.1Y-83.5
X131.106Y-82.586
X131.142Y-98.068
X131.74Y-84.08
X132.72Y-88.52
X132.95Y-84.05
X133.7Y-100.4
X133.8Y-101.5
X133.85Y-99.16
X135.536Y-88.474
X135.6Y-80.3
X136.5Y-100.4
X136.7Y-98.23
X136.944Y-79.575
X137.832Y-89.9
X138.775Y-92.4
X138.87Y-101.44
X139.1Y-91.0
X139.125Y-89.718
X139.3Y-88.5
X139.31Y-95.4
X141.0Y-86.45
X141.365Y-88.194
X141.5Y-98.31
X141.7Y-83.2
X143.065Y-82.545
X143.1Y-101.75
X143.2Y-103.15
X143.6Y-100.5
X144.01Y-95.32
X144.261Y-88.49
X144.5Y-93.3
X144.6Y-90.7
X145.8Y-90.46
X147.22Y-88.29
X148.5Y-79.4
X152.5Y-85.4
X153.5Y-79.4
X158.5Y-79.4
X158.6Y-95.25
X158.984Y-98.084
X159.123Y-97.094
X161.58Y-99.32
X162.54Y-96.0
X163.5Y-79.4
X164.3Y-96.3
X164.49Y-88.19
X164.62Y-85.05
X166.7Y-111.25
X167.08Y-102.54
X168.45Y-106.3
X168.6Y-104.0
X169.45Y-103.4
X169.48Y-107.7
X170.25Y-100.35
X170.46Y-107.985
X172.799Y-91.801
X172.85Y-87.36
X172.95Y-109.55
X173.5Y-79.4
X173.9Y-94.0
X175.2Y-98.4
X175.5Y-97.0
X178.1Y-109.1
X178.5Y-79.4
X178.5Y-89.4
X178.51Y-94.45
X179.3Y-111.55
X181.694Y-99.125
X181.75Y-111.45
X183.5Y-79.4
X185.55Y-105.6
X186.8Y-98.7
X186.9Y-103.45
X187.225Y-94.235
X188.05Y-105.6
X188.5Y-79.4
X188.5Y-84.4
X188.75Y-90.76
X190.8Y-100.3
X193.0Y-110.839
X193.487Y-95.362
T3
G00X128.5Y-80.14
M15
G01X128.5Y-79.34
M16
G05
G00X128.5Y-86.6
M15
G01X128.5Y-84.8
M16
G05
G00X143.0Y-80.14
M15
G01X143.0Y-79.34
M16
G05
G00X143.0Y-86.6
M15
G01X143.0Y-84.8
M16
G05
T0
M30
