M48
; DRILL file {KiCad 5.1.9+dfsg1-1+deb11u1} date Fri Oct 24 14:28:25 2025
; FORMAT={-:-/ absolute / metric / decimal}
; #@! TF.CreationDate,2025-10-24T14:28:25+02:00
; #@! TF.GenerationSoftware,Kicad,Pcbnew,5.1.9+dfsg1-1+deb11u1
; #@! TF.FileFunction,Plated,1,4,PTH
FMAT,2
METRIC
T1C0.200
T2C0.400
T3C0.900
%
G90
G05
T1
X183.35Y-37.033
X183.35Y-38.033
X183.35Y-39.033
X183.35Y-40.033
X183.35Y-41.033
X184.35Y-37.033
X184.35Y-38.033
X184.35Y-39.033
X184.35Y-40.033
X184.35Y-41.033
X185.35Y-37.033
X185.35Y-38.033
X185.35Y-39.033
X185.35Y-40.033
X185.35Y-41.033
X186.35Y-37.033
X186.35Y-38.033
X186.35Y-39.033
X186.35Y-40.033
X186.35Y-41.033
X187.35Y-37.033
X187.35Y-38.033
X187.35Y-39.033
X187.35Y-40.033
X187.35Y-41.033
T2
X170.0Y-25.0
X173.08Y-37.72
X174.54Y-46.02
X175.0Y-25.0
X175.33Y-35.07
X177.162Y-40.377
X178.82Y-40.61
X179.11Y-33.54
X179.422Y-39.723
X180.35Y-39.35
X180.369Y-41.349
X180.77Y-47.99
X181.6Y-29.1
X182.606Y-28.186
X182.642Y-43.668
X183.24Y-29.68
X184.22Y-34.12
X184.45Y-29.65
X185.2Y-46.0
X185.3Y-47.1
X185.35Y-44.76
X187.036Y-34.074
X187.1Y-25.9
X188.0Y-46.0
X188.2Y-43.83
X188.444Y-25.175
X189.332Y-35.5
X190.275Y-38.0
X190.37Y-47.04
X190.6Y-36.6
X190.625Y-35.318
X190.8Y-34.1
X190.81Y-41.0
X192.5Y-32.05
X192.865Y-33.794
X193.0Y-43.91
X193.2Y-28.8
X194.565Y-28.145
X194.6Y-47.35
X194.7Y-48.75
X195.1Y-46.1
X195.51Y-40.92
X195.761Y-34.09
X196.0Y-38.9
X196.1Y-36.3
X197.3Y-36.06
X198.72Y-33.89
X200.0Y-25.0
X204.0Y-31.0
X205.0Y-25.0
X210.0Y-25.0
X210.1Y-40.85
X210.484Y-43.684
X210.623Y-42.694
X213.08Y-44.92
X214.04Y-41.6
X215.0Y-25.0
X215.8Y-41.9
X215.99Y-33.79
X216.12Y-30.65
X218.2Y-56.85
X218.58Y-48.14
X219.95Y-51.9
X220.1Y-49.6
X220.95Y-49.0
X220.98Y-53.3
X221.75Y-45.95
X221.96Y-53.585
X224.35Y-32.96
X224.45Y-55.15
X225.0Y-25.0
X225.01Y-42.52
X226.7Y-44.0
X229.6Y-54.7
X230.0Y-25.0
X230.0Y-35.0
X230.01Y-40.05
X230.8Y-57.15
X233.15Y-44.6
X233.25Y-57.05
X235.0Y-25.0
X237.05Y-51.2
X238.3Y-40.2
X238.4Y-49.05
X239.55Y-51.2
X240.0Y-25.0
X240.0Y-30.0
X240.25Y-36.36
X242.3Y-45.9
X244.5Y-56.439
X244.987Y-40.962
T3
G00X180.0Y-25.74
M15
G01X180.0Y-24.94
M16
G05
G00X180.0Y-32.2
M15
G01X180.0Y-30.4
M16
G05
G00X194.5Y-25.74
M15
G01X194.5Y-24.94
M16
G05
G00X194.5Y-32.2
M15
G01X194.5Y-30.4
M16
G05
T0
M30
