%TF.GenerationSoftware,KiCad,Pcbnew,5.1.9+dfsg1-1+deb11u1*%
%TF.CreationDate,2025-10-17T13:47:22+02:00*%
%TF.ProjectId,VERA-XE-HDMI-Expansion,56455241-2d58-4452-9d48-444d492d4578,rev?*%
%TF.SameCoordinates,Original*%
%TF.FileFunction,Copper,L1,Top*%
%TF.FilePolarity,Positive*%
%FSLAX46Y46*%
G04 Gerber Fmt 4.6, Leading zero omitted, Abs format (unit mm)*
G04 Created by KiCad (PCBNEW 5.1.9+dfsg1-1+deb11u1) date 2025-10-17 13:47:22*
%MOMM*%
%LPD*%
G01*
G04 APERTURE LIST*
%TA.AperFunction,NonConductor*%
%ADD10C,0.300000*%
%TD*%
%TA.AperFunction,SMDPad,CuDef*%
%ADD11R,0.300000X2.600000*%
%TD*%
%TA.AperFunction,ComponentPad*%
%ADD12O,1.500000X3.200000*%
%TD*%
%TA.AperFunction,ComponentPad*%
%ADD13O,1.500000X2.700000*%
%TD*%
%TA.AperFunction,SMDPad,CuDef*%
%ADD14R,3.800000X2.000000*%
%TD*%
%TA.AperFunction,SMDPad,CuDef*%
%ADD15R,1.500000X2.000000*%
%TD*%
%TA.AperFunction,SMDPad,CuDef*%
%ADD16R,5.511800X5.511800*%
%TD*%
%TA.AperFunction,SMDPad,CuDef*%
%ADD17R,0.254000X0.787400*%
%TD*%
%TA.AperFunction,SMDPad,CuDef*%
%ADD18R,0.787400X0.254000*%
%TD*%
%TA.AperFunction,ComponentPad*%
%ADD19C,0.500000*%
%TD*%
%TA.AperFunction,SMDPad,CuDef*%
%ADD20R,1.000000X1.000000*%
%TD*%
%TA.AperFunction,ViaPad*%
%ADD21C,0.800000*%
%TD*%
%TA.AperFunction,Conductor*%
%ADD22C,0.500000*%
%TD*%
%TA.AperFunction,Conductor*%
%ADD23C,0.200000*%
%TD*%
%TA.AperFunction,Conductor*%
%ADD24C,0.250000*%
%TD*%
%TA.AperFunction,Conductor*%
%ADD25C,1.000000*%
%TD*%
%TA.AperFunction,Conductor*%
%ADD26C,0.254000*%
%TD*%
%TA.AperFunction,Conductor*%
%ADD27C,0.100000*%
%TD*%
G04 APERTURE END LIST*
D10*
X243040000Y-26128571D02*
X242325714Y-26128571D01*
X242325714Y-24628571D01*
X244325714Y-26128571D02*
X243468571Y-26128571D01*
X243897142Y-26128571D02*
X243897142Y-24628571D01*
X243754285Y-24842857D01*
X243611428Y-24985714D01*
X243468571Y-25057142D01*
%TO.P,C1,2*%
%TO.N,GND*%
%TA.AperFunction,SMDPad,CuDef*%
G36*
G01*
X194475000Y-36550000D02*
X193525000Y-36550000D01*
G75*
G02*
X193275000Y-36300000I0J250000D01*
G01*
X193275000Y-35625000D01*
G75*
G02*
X193525000Y-35375000I250000J0D01*
G01*
X194475000Y-35375000D01*
G75*
G02*
X194725000Y-35625000I0J-250000D01*
G01*
X194725000Y-36300000D01*
G75*
G02*
X194475000Y-36550000I-250000J0D01*
G01*
G37*
%TD.AperFunction*%
%TO.P,C1,1*%
%TO.N,1V8*%
%TA.AperFunction,SMDPad,CuDef*%
G36*
G01*
X194475000Y-38625000D02*
X193525000Y-38625000D01*
G75*
G02*
X193275000Y-38375000I0J250000D01*
G01*
X193275000Y-37700000D01*
G75*
G02*
X193525000Y-37450000I250000J0D01*
G01*
X194475000Y-37450000D01*
G75*
G02*
X194725000Y-37700000I0J-250000D01*
G01*
X194725000Y-38375000D01*
G75*
G02*
X194475000Y-38625000I-250000J0D01*
G01*
G37*
%TD.AperFunction*%
%TD*%
%TO.P,C2,1*%
%TO.N,1V8*%
%TA.AperFunction,SMDPad,CuDef*%
G36*
G01*
X192475000Y-38625000D02*
X191525000Y-38625000D01*
G75*
G02*
X191275000Y-38375000I0J250000D01*
G01*
X191275000Y-37700000D01*
G75*
G02*
X191525000Y-37450000I250000J0D01*
G01*
X192475000Y-37450000D01*
G75*
G02*
X192725000Y-37700000I0J-250000D01*
G01*
X192725000Y-38375000D01*
G75*
G02*
X192475000Y-38625000I-250000J0D01*
G01*
G37*
%TD.AperFunction*%
%TO.P,C2,2*%
%TO.N,GND*%
%TA.AperFunction,SMDPad,CuDef*%
G36*
G01*
X192475000Y-36550000D02*
X191525000Y-36550000D01*
G75*
G02*
X191275000Y-36300000I0J250000D01*
G01*
X191275000Y-35625000D01*
G75*
G02*
X191525000Y-35375000I250000J0D01*
G01*
X192475000Y-35375000D01*
G75*
G02*
X192725000Y-35625000I0J-250000D01*
G01*
X192725000Y-36300000D01*
G75*
G02*
X192475000Y-36550000I-250000J0D01*
G01*
G37*
%TD.AperFunction*%
%TD*%
%TO.P,C3,1*%
%TO.N,/AVDD18_ADC_0*%
%TA.AperFunction,SMDPad,CuDef*%
G36*
G01*
X192475000Y-42625000D02*
X191525000Y-42625000D01*
G75*
G02*
X191275000Y-42375000I0J250000D01*
G01*
X191275000Y-41700000D01*
G75*
G02*
X191525000Y-41450000I250000J0D01*
G01*
X192475000Y-41450000D01*
G75*
G02*
X192725000Y-41700000I0J-250000D01*
G01*
X192725000Y-42375000D01*
G75*
G02*
X192475000Y-42625000I-250000J0D01*
G01*
G37*
%TD.AperFunction*%
%TO.P,C3,2*%
%TO.N,GND*%
%TA.AperFunction,SMDPad,CuDef*%
G36*
G01*
X192475000Y-40550000D02*
X191525000Y-40550000D01*
G75*
G02*
X191275000Y-40300000I0J250000D01*
G01*
X191275000Y-39625000D01*
G75*
G02*
X191525000Y-39375000I250000J0D01*
G01*
X192475000Y-39375000D01*
G75*
G02*
X192725000Y-39625000I0J-250000D01*
G01*
X192725000Y-40300000D01*
G75*
G02*
X192475000Y-40550000I-250000J0D01*
G01*
G37*
%TD.AperFunction*%
%TD*%
%TO.P,C4,1*%
%TO.N,/AVDD18_ADC_0*%
%TA.AperFunction,SMDPad,CuDef*%
G36*
G01*
X194475000Y-42625000D02*
X193525000Y-42625000D01*
G75*
G02*
X193275000Y-42375000I0J250000D01*
G01*
X193275000Y-41700000D01*
G75*
G02*
X193525000Y-41450000I250000J0D01*
G01*
X194475000Y-41450000D01*
G75*
G02*
X194725000Y-41700000I0J-250000D01*
G01*
X194725000Y-42375000D01*
G75*
G02*
X194475000Y-42625000I-250000J0D01*
G01*
G37*
%TD.AperFunction*%
%TO.P,C4,2*%
%TO.N,GND*%
%TA.AperFunction,SMDPad,CuDef*%
G36*
G01*
X194475000Y-40550000D02*
X193525000Y-40550000D01*
G75*
G02*
X193275000Y-40300000I0J250000D01*
G01*
X193275000Y-39625000D01*
G75*
G02*
X193525000Y-39375000I250000J0D01*
G01*
X194475000Y-39375000D01*
G75*
G02*
X194725000Y-39625000I0J-250000D01*
G01*
X194725000Y-40300000D01*
G75*
G02*
X194475000Y-40550000I-250000J0D01*
G01*
G37*
%TD.AperFunction*%
%TD*%
%TO.P,C7,1*%
%TO.N,/DVDD33_0*%
%TA.AperFunction,SMDPad,CuDef*%
G36*
G01*
X176525000Y-41375000D02*
X177475000Y-41375000D01*
G75*
G02*
X177725000Y-41625000I0J-250000D01*
G01*
X177725000Y-42300000D01*
G75*
G02*
X177475000Y-42550000I-250000J0D01*
G01*
X176525000Y-42550000D01*
G75*
G02*
X176275000Y-42300000I0J250000D01*
G01*
X176275000Y-41625000D01*
G75*
G02*
X176525000Y-41375000I250000J0D01*
G01*
G37*
%TD.AperFunction*%
%TO.P,C7,2*%
%TO.N,GND*%
%TA.AperFunction,SMDPad,CuDef*%
G36*
G01*
X176525000Y-43450000D02*
X177475000Y-43450000D01*
G75*
G02*
X177725000Y-43700000I0J-250000D01*
G01*
X177725000Y-44375000D01*
G75*
G02*
X177475000Y-44625000I-250000J0D01*
G01*
X176525000Y-44625000D01*
G75*
G02*
X176275000Y-44375000I0J250000D01*
G01*
X176275000Y-43700000D01*
G75*
G02*
X176525000Y-43450000I250000J0D01*
G01*
G37*
%TD.AperFunction*%
%TD*%
%TO.P,C8,2*%
%TO.N,GND*%
%TA.AperFunction,SMDPad,CuDef*%
G36*
G01*
X178525000Y-43450000D02*
X179475000Y-43450000D01*
G75*
G02*
X179725000Y-43700000I0J-250000D01*
G01*
X179725000Y-44375000D01*
G75*
G02*
X179475000Y-44625000I-250000J0D01*
G01*
X178525000Y-44625000D01*
G75*
G02*
X178275000Y-44375000I0J250000D01*
G01*
X178275000Y-43700000D01*
G75*
G02*
X178525000Y-43450000I250000J0D01*
G01*
G37*
%TD.AperFunction*%
%TO.P,C8,1*%
%TO.N,/DVDD33_0*%
%TA.AperFunction,SMDPad,CuDef*%
G36*
G01*
X178525000Y-41375000D02*
X179475000Y-41375000D01*
G75*
G02*
X179725000Y-41625000I0J-250000D01*
G01*
X179725000Y-42300000D01*
G75*
G02*
X179475000Y-42550000I-250000J0D01*
G01*
X178525000Y-42550000D01*
G75*
G02*
X178275000Y-42300000I0J250000D01*
G01*
X178275000Y-41625000D01*
G75*
G02*
X178525000Y-41375000I250000J0D01*
G01*
G37*
%TD.AperFunction*%
%TD*%
%TO.P,C9,2*%
%TO.N,GND*%
%TA.AperFunction,SMDPad,CuDef*%
G36*
G01*
X182550000Y-46525000D02*
X182550000Y-47475000D01*
G75*
G02*
X182300000Y-47725000I-250000J0D01*
G01*
X181625000Y-47725000D01*
G75*
G02*
X181375000Y-47475000I0J250000D01*
G01*
X181375000Y-46525000D01*
G75*
G02*
X181625000Y-46275000I250000J0D01*
G01*
X182300000Y-46275000D01*
G75*
G02*
X182550000Y-46525000I0J-250000D01*
G01*
G37*
%TD.AperFunction*%
%TO.P,C9,1*%
%TO.N,/AVDD18_ADC_0*%
%TA.AperFunction,SMDPad,CuDef*%
G36*
G01*
X184625000Y-46525000D02*
X184625000Y-47475000D01*
G75*
G02*
X184375000Y-47725000I-250000J0D01*
G01*
X183700000Y-47725000D01*
G75*
G02*
X183450000Y-47475000I0J250000D01*
G01*
X183450000Y-46525000D01*
G75*
G02*
X183700000Y-46275000I250000J0D01*
G01*
X184375000Y-46275000D01*
G75*
G02*
X184625000Y-46525000I0J-250000D01*
G01*
G37*
%TD.AperFunction*%
%TD*%
%TO.P,C10,1*%
%TO.N,/AVDD18_ADC_0*%
%TA.AperFunction,SMDPad,CuDef*%
G36*
G01*
X184625000Y-44525000D02*
X184625000Y-45475000D01*
G75*
G02*
X184375000Y-45725000I-250000J0D01*
G01*
X183700000Y-45725000D01*
G75*
G02*
X183450000Y-45475000I0J250000D01*
G01*
X183450000Y-44525000D01*
G75*
G02*
X183700000Y-44275000I250000J0D01*
G01*
X184375000Y-44275000D01*
G75*
G02*
X184625000Y-44525000I0J-250000D01*
G01*
G37*
%TD.AperFunction*%
%TO.P,C10,2*%
%TO.N,GND*%
%TA.AperFunction,SMDPad,CuDef*%
G36*
G01*
X182550000Y-44525000D02*
X182550000Y-45475000D01*
G75*
G02*
X182300000Y-45725000I-250000J0D01*
G01*
X181625000Y-45725000D01*
G75*
G02*
X181375000Y-45475000I0J250000D01*
G01*
X181375000Y-44525000D01*
G75*
G02*
X181625000Y-44275000I250000J0D01*
G01*
X182300000Y-44275000D01*
G75*
G02*
X182550000Y-44525000I0J-250000D01*
G01*
G37*
%TD.AperFunction*%
%TD*%
%TO.P,C13,1*%
%TO.N,/DVDD33_0*%
%TA.AperFunction,SMDPad,CuDef*%
G36*
G01*
X179625000Y-36525000D02*
X179625000Y-37475000D01*
G75*
G02*
X179375000Y-37725000I-250000J0D01*
G01*
X178700000Y-37725000D01*
G75*
G02*
X178450000Y-37475000I0J250000D01*
G01*
X178450000Y-36525000D01*
G75*
G02*
X178700000Y-36275000I250000J0D01*
G01*
X179375000Y-36275000D01*
G75*
G02*
X179625000Y-36525000I0J-250000D01*
G01*
G37*
%TD.AperFunction*%
%TO.P,C13,2*%
%TO.N,GND*%
%TA.AperFunction,SMDPad,CuDef*%
G36*
G01*
X177550000Y-36525000D02*
X177550000Y-37475000D01*
G75*
G02*
X177300000Y-37725000I-250000J0D01*
G01*
X176625000Y-37725000D01*
G75*
G02*
X176375000Y-37475000I0J250000D01*
G01*
X176375000Y-36525000D01*
G75*
G02*
X176625000Y-36275000I250000J0D01*
G01*
X177300000Y-36275000D01*
G75*
G02*
X177550000Y-36525000I0J-250000D01*
G01*
G37*
%TD.AperFunction*%
%TD*%
%TO.P,C14,2*%
%TO.N,GND*%
%TA.AperFunction,SMDPad,CuDef*%
G36*
G01*
X177550000Y-34525000D02*
X177550000Y-35475000D01*
G75*
G02*
X177300000Y-35725000I-250000J0D01*
G01*
X176625000Y-35725000D01*
G75*
G02*
X176375000Y-35475000I0J250000D01*
G01*
X176375000Y-34525000D01*
G75*
G02*
X176625000Y-34275000I250000J0D01*
G01*
X177300000Y-34275000D01*
G75*
G02*
X177550000Y-34525000I0J-250000D01*
G01*
G37*
%TD.AperFunction*%
%TO.P,C14,1*%
%TO.N,/DVDD33_0*%
%TA.AperFunction,SMDPad,CuDef*%
G36*
G01*
X179625000Y-34525000D02*
X179625000Y-35475000D01*
G75*
G02*
X179375000Y-35725000I-250000J0D01*
G01*
X178700000Y-35725000D01*
G75*
G02*
X178450000Y-35475000I0J250000D01*
G01*
X178450000Y-34525000D01*
G75*
G02*
X178700000Y-34275000I250000J0D01*
G01*
X179375000Y-34275000D01*
G75*
G02*
X179625000Y-34525000I0J-250000D01*
G01*
G37*
%TD.AperFunction*%
%TD*%
%TO.P,C15,1*%
%TO.N,5V*%
%TA.AperFunction,SMDPad,CuDef*%
G36*
G01*
X242475000Y-43625000D02*
X241525000Y-43625000D01*
G75*
G02*
X241275000Y-43375000I0J250000D01*
G01*
X241275000Y-42700000D01*
G75*
G02*
X241525000Y-42450000I250000J0D01*
G01*
X242475000Y-42450000D01*
G75*
G02*
X242725000Y-42700000I0J-250000D01*
G01*
X242725000Y-43375000D01*
G75*
G02*
X242475000Y-43625000I-250000J0D01*
G01*
G37*
%TD.AperFunction*%
%TO.P,C15,2*%
%TO.N,GND*%
%TA.AperFunction,SMDPad,CuDef*%
G36*
G01*
X242475000Y-41550000D02*
X241525000Y-41550000D01*
G75*
G02*
X241275000Y-41300000I0J250000D01*
G01*
X241275000Y-40625000D01*
G75*
G02*
X241525000Y-40375000I250000J0D01*
G01*
X242475000Y-40375000D01*
G75*
G02*
X242725000Y-40625000I0J-250000D01*
G01*
X242725000Y-41300000D01*
G75*
G02*
X242475000Y-41550000I-250000J0D01*
G01*
G37*
%TD.AperFunction*%
%TD*%
%TO.P,C16,1*%
%TO.N,1V8*%
%TA.AperFunction,SMDPad,CuDef*%
G36*
G01*
X229075000Y-37625000D02*
X230925000Y-37625000D01*
G75*
G02*
X231175000Y-37875000I0J-250000D01*
G01*
X231175000Y-38875000D01*
G75*
G02*
X230925000Y-39125000I-250000J0D01*
G01*
X229075000Y-39125000D01*
G75*
G02*
X228825000Y-38875000I0J250000D01*
G01*
X228825000Y-37875000D01*
G75*
G02*
X229075000Y-37625000I250000J0D01*
G01*
G37*
%TD.AperFunction*%
%TO.P,C16,2*%
%TO.N,GND*%
%TA.AperFunction,SMDPad,CuDef*%
G36*
G01*
X229075000Y-40875000D02*
X230925000Y-40875000D01*
G75*
G02*
X231175000Y-41125000I0J-250000D01*
G01*
X231175000Y-42125000D01*
G75*
G02*
X230925000Y-42375000I-250000J0D01*
G01*
X229075000Y-42375000D01*
G75*
G02*
X228825000Y-42125000I0J250000D01*
G01*
X228825000Y-41125000D01*
G75*
G02*
X229075000Y-40875000I250000J0D01*
G01*
G37*
%TD.AperFunction*%
%TD*%
%TO.P,C17,2*%
%TO.N,GND*%
%TA.AperFunction,SMDPad,CuDef*%
G36*
G01*
X226525000Y-40450000D02*
X227475000Y-40450000D01*
G75*
G02*
X227725000Y-40700000I0J-250000D01*
G01*
X227725000Y-41375000D01*
G75*
G02*
X227475000Y-41625000I-250000J0D01*
G01*
X226525000Y-41625000D01*
G75*
G02*
X226275000Y-41375000I0J250000D01*
G01*
X226275000Y-40700000D01*
G75*
G02*
X226525000Y-40450000I250000J0D01*
G01*
G37*
%TD.AperFunction*%
%TO.P,C17,1*%
%TO.N,1V8*%
%TA.AperFunction,SMDPad,CuDef*%
G36*
G01*
X226525000Y-38375000D02*
X227475000Y-38375000D01*
G75*
G02*
X227725000Y-38625000I0J-250000D01*
G01*
X227725000Y-39300000D01*
G75*
G02*
X227475000Y-39550000I-250000J0D01*
G01*
X226525000Y-39550000D01*
G75*
G02*
X226275000Y-39300000I0J250000D01*
G01*
X226275000Y-38625000D01*
G75*
G02*
X226525000Y-38375000I250000J0D01*
G01*
G37*
%TD.AperFunction*%
%TD*%
%TO.P,C18,2*%
%TO.N,GND*%
%TA.AperFunction,SMDPad,CuDef*%
G36*
G01*
X188450000Y-47475000D02*
X188450000Y-46525000D01*
G75*
G02*
X188700000Y-46275000I250000J0D01*
G01*
X189375000Y-46275000D01*
G75*
G02*
X189625000Y-46525000I0J-250000D01*
G01*
X189625000Y-47475000D01*
G75*
G02*
X189375000Y-47725000I-250000J0D01*
G01*
X188700000Y-47725000D01*
G75*
G02*
X188450000Y-47475000I0J250000D01*
G01*
G37*
%TD.AperFunction*%
%TO.P,C18,1*%
%TO.N,/AVDD18_ADC_0*%
%TA.AperFunction,SMDPad,CuDef*%
G36*
G01*
X186375000Y-47475000D02*
X186375000Y-46525000D01*
G75*
G02*
X186625000Y-46275000I250000J0D01*
G01*
X187300000Y-46275000D01*
G75*
G02*
X187550000Y-46525000I0J-250000D01*
G01*
X187550000Y-47475000D01*
G75*
G02*
X187300000Y-47725000I-250000J0D01*
G01*
X186625000Y-47725000D01*
G75*
G02*
X186375000Y-47475000I0J250000D01*
G01*
G37*
%TD.AperFunction*%
%TD*%
%TO.P,C19,1*%
%TO.N,/AVDD18_ADC_0*%
%TA.AperFunction,SMDPad,CuDef*%
G36*
G01*
X186375000Y-45475000D02*
X186375000Y-44525000D01*
G75*
G02*
X186625000Y-44275000I250000J0D01*
G01*
X187300000Y-44275000D01*
G75*
G02*
X187550000Y-44525000I0J-250000D01*
G01*
X187550000Y-45475000D01*
G75*
G02*
X187300000Y-45725000I-250000J0D01*
G01*
X186625000Y-45725000D01*
G75*
G02*
X186375000Y-45475000I0J250000D01*
G01*
G37*
%TD.AperFunction*%
%TO.P,C19,2*%
%TO.N,GND*%
%TA.AperFunction,SMDPad,CuDef*%
G36*
G01*
X188450000Y-45475000D02*
X188450000Y-44525000D01*
G75*
G02*
X188700000Y-44275000I250000J0D01*
G01*
X189375000Y-44275000D01*
G75*
G02*
X189625000Y-44525000I0J-250000D01*
G01*
X189625000Y-45475000D01*
G75*
G02*
X189375000Y-45725000I-250000J0D01*
G01*
X188700000Y-45725000D01*
G75*
G02*
X188450000Y-45475000I0J250000D01*
G01*
G37*
%TD.AperFunction*%
%TD*%
%TO.P,C26,1*%
%TO.N,Net-(C26-Pad1)*%
%TA.AperFunction,SMDPad,CuDef*%
G36*
G01*
X211375000Y-40475000D02*
X211375000Y-39525000D01*
G75*
G02*
X211625000Y-39275000I250000J0D01*
G01*
X212300000Y-39275000D01*
G75*
G02*
X212550000Y-39525000I0J-250000D01*
G01*
X212550000Y-40475000D01*
G75*
G02*
X212300000Y-40725000I-250000J0D01*
G01*
X211625000Y-40725000D01*
G75*
G02*
X211375000Y-40475000I0J250000D01*
G01*
G37*
%TD.AperFunction*%
%TO.P,C26,2*%
%TO.N,Net-(C26-Pad2)*%
%TA.AperFunction,SMDPad,CuDef*%
G36*
G01*
X213450000Y-40475000D02*
X213450000Y-39525000D01*
G75*
G02*
X213700000Y-39275000I250000J0D01*
G01*
X214375000Y-39275000D01*
G75*
G02*
X214625000Y-39525000I0J-250000D01*
G01*
X214625000Y-40475000D01*
G75*
G02*
X214375000Y-40725000I-250000J0D01*
G01*
X213700000Y-40725000D01*
G75*
G02*
X213450000Y-40475000I0J250000D01*
G01*
G37*
%TD.AperFunction*%
%TD*%
%TO.P,C27,2*%
%TO.N,Net-(C27-Pad2)*%
%TA.AperFunction,SMDPad,CuDef*%
G36*
G01*
X213487500Y-43475000D02*
X213487500Y-42525000D01*
G75*
G02*
X213737500Y-42275000I250000J0D01*
G01*
X214412500Y-42275000D01*
G75*
G02*
X214662500Y-42525000I0J-250000D01*
G01*
X214662500Y-43475000D01*
G75*
G02*
X214412500Y-43725000I-250000J0D01*
G01*
X213737500Y-43725000D01*
G75*
G02*
X213487500Y-43475000I0J250000D01*
G01*
G37*
%TD.AperFunction*%
%TO.P,C27,1*%
%TO.N,Net-(C27-Pad1)*%
%TA.AperFunction,SMDPad,CuDef*%
G36*
G01*
X211412500Y-43475000D02*
X211412500Y-42525000D01*
G75*
G02*
X211662500Y-42275000I250000J0D01*
G01*
X212337500Y-42275000D01*
G75*
G02*
X212587500Y-42525000I0J-250000D01*
G01*
X212587500Y-43475000D01*
G75*
G02*
X212337500Y-43725000I-250000J0D01*
G01*
X211662500Y-43725000D01*
G75*
G02*
X211412500Y-43475000I0J250000D01*
G01*
G37*
%TD.AperFunction*%
%TD*%
%TO.P,C30,1*%
%TO.N,Net-(C30-Pad1)*%
%TA.AperFunction,SMDPad,CuDef*%
G36*
G01*
X178625000Y-45525000D02*
X178625000Y-46475000D01*
G75*
G02*
X178375000Y-46725000I-250000J0D01*
G01*
X177700000Y-46725000D01*
G75*
G02*
X177450000Y-46475000I0J250000D01*
G01*
X177450000Y-45525000D01*
G75*
G02*
X177700000Y-45275000I250000J0D01*
G01*
X178375000Y-45275000D01*
G75*
G02*
X178625000Y-45525000I0J-250000D01*
G01*
G37*
%TD.AperFunction*%
%TO.P,C30,2*%
%TO.N,GND*%
%TA.AperFunction,SMDPad,CuDef*%
G36*
G01*
X176550000Y-45525000D02*
X176550000Y-46475000D01*
G75*
G02*
X176300000Y-46725000I-250000J0D01*
G01*
X175625000Y-46725000D01*
G75*
G02*
X175375000Y-46475000I0J250000D01*
G01*
X175375000Y-45525000D01*
G75*
G02*
X175625000Y-45275000I250000J0D01*
G01*
X176300000Y-45275000D01*
G75*
G02*
X176550000Y-45525000I0J-250000D01*
G01*
G37*
%TD.AperFunction*%
%TD*%
D11*
%TO.P,J1,1*%
%TO.N,/HDMI_TX2+*%
X182750000Y-31800000D03*
%TO.P,J1,2*%
%TO.N,GND*%
X183250000Y-31800000D03*
%TO.P,J1,3*%
%TO.N,/HDMI_TX2-*%
X183750000Y-31800000D03*
%TO.P,J1,4*%
%TO.N,/HDMI_TX1+*%
X184250000Y-31800000D03*
%TO.P,J1,5*%
%TO.N,GND*%
X184750000Y-31800000D03*
%TO.P,J1,6*%
%TO.N,/HDMI_TX1-*%
X185250000Y-31800000D03*
%TO.P,J1,7*%
%TO.N,/HDMI_TX0+*%
X185750000Y-31800000D03*
%TO.P,J1,8*%
%TO.N,GND*%
X186250000Y-31800000D03*
%TO.P,J1,9*%
%TO.N,/HDMI_TX0-*%
X186750000Y-31800000D03*
%TO.P,J1,10*%
%TO.N,/HDMI_TXC+*%
X187250000Y-31800000D03*
%TO.P,J1,11*%
%TO.N,GND*%
X187750000Y-31800000D03*
%TO.P,J1,12*%
%TO.N,/HDMI_TXC-*%
X188250000Y-31800000D03*
%TO.P,J1,13*%
%TO.N,Net-(J1-Pad13)*%
X188750000Y-31800000D03*
%TO.P,J1,14*%
%TO.N,Net-(J1-Pad14)*%
X189250000Y-31800000D03*
%TO.P,J1,15*%
%TO.N,/DDC_SCL*%
X189750000Y-31800000D03*
%TO.P,J1,16*%
%TO.N,/DDC_SDA*%
X190250000Y-31800000D03*
%TO.P,J1,17*%
%TO.N,GND*%
X190750000Y-31800000D03*
%TO.P,J1,18*%
%TO.N,5V*%
X191250000Y-31800000D03*
%TO.P,J1,19*%
%TO.N,Net-(J1-Pad19)*%
X191750000Y-31800000D03*
D12*
%TO.P,J1,SH*%
%TO.N,GND*%
X180000000Y-31300000D03*
X194500000Y-31300000D03*
D13*
X180000000Y-25340000D03*
X194500000Y-25340000D03*
%TD*%
%TO.P,L1,2*%
%TO.N,/AVDD18_ADC_0*%
%TA.AperFunction,SMDPad,CuDef*%
G36*
G01*
X218550000Y-38549999D02*
X218550000Y-39450001D01*
G75*
G02*
X218300001Y-39700000I-249999J0D01*
G01*
X217649999Y-39700000D01*
G75*
G02*
X217400000Y-39450001I0J249999D01*
G01*
X217400000Y-38549999D01*
G75*
G02*
X217649999Y-38300000I249999J0D01*
G01*
X218300001Y-38300000D01*
G75*
G02*
X218550000Y-38549999I0J-249999D01*
G01*
G37*
%TD.AperFunction*%
%TO.P,L1,1*%
%TO.N,1V8*%
%TA.AperFunction,SMDPad,CuDef*%
G36*
G01*
X220600000Y-38549999D02*
X220600000Y-39450001D01*
G75*
G02*
X220350001Y-39700000I-249999J0D01*
G01*
X219699999Y-39700000D01*
G75*
G02*
X219450000Y-39450001I0J249999D01*
G01*
X219450000Y-38549999D01*
G75*
G02*
X219699999Y-38300000I249999J0D01*
G01*
X220350001Y-38300000D01*
G75*
G02*
X220600000Y-38549999I0J-249999D01*
G01*
G37*
%TD.AperFunction*%
%TD*%
%TO.P,L2,1*%
%TO.N,1V8*%
%TA.AperFunction,SMDPad,CuDef*%
G36*
G01*
X220600000Y-35549999D02*
X220600000Y-36450001D01*
G75*
G02*
X220350001Y-36700000I-249999J0D01*
G01*
X219699999Y-36700000D01*
G75*
G02*
X219450000Y-36450001I0J249999D01*
G01*
X219450000Y-35549999D01*
G75*
G02*
X219699999Y-35300000I249999J0D01*
G01*
X220350001Y-35300000D01*
G75*
G02*
X220600000Y-35549999I0J-249999D01*
G01*
G37*
%TD.AperFunction*%
%TO.P,L2,2*%
%TO.N,/AVDD18_0*%
%TA.AperFunction,SMDPad,CuDef*%
G36*
G01*
X218550000Y-35549999D02*
X218550000Y-36450001D01*
G75*
G02*
X218300001Y-36700000I-249999J0D01*
G01*
X217649999Y-36700000D01*
G75*
G02*
X217400000Y-36450001I0J249999D01*
G01*
X217400000Y-35549999D01*
G75*
G02*
X217649999Y-35300000I249999J0D01*
G01*
X218300001Y-35300000D01*
G75*
G02*
X218550000Y-35549999I0J-249999D01*
G01*
G37*
%TD.AperFunction*%
%TD*%
%TO.P,L3,1*%
%TO.N,3V3*%
%TA.AperFunction,SMDPad,CuDef*%
G36*
G01*
X220600000Y-32549999D02*
X220600000Y-33450001D01*
G75*
G02*
X220350001Y-33700000I-249999J0D01*
G01*
X219699999Y-33700000D01*
G75*
G02*
X219450000Y-33450001I0J249999D01*
G01*
X219450000Y-32549999D01*
G75*
G02*
X219699999Y-32300000I249999J0D01*
G01*
X220350001Y-32300000D01*
G75*
G02*
X220600000Y-32549999I0J-249999D01*
G01*
G37*
%TD.AperFunction*%
%TO.P,L3,2*%
%TO.N,/DVDD33_0*%
%TA.AperFunction,SMDPad,CuDef*%
G36*
G01*
X218550000Y-32549999D02*
X218550000Y-33450001D01*
G75*
G02*
X218300001Y-33700000I-249999J0D01*
G01*
X217649999Y-33700000D01*
G75*
G02*
X217400000Y-33450001I0J249999D01*
G01*
X217400000Y-32549999D01*
G75*
G02*
X217649999Y-32300000I249999J0D01*
G01*
X218300001Y-32300000D01*
G75*
G02*
X218550000Y-32549999I0J-249999D01*
G01*
G37*
%TD.AperFunction*%
%TD*%
%TO.P,L4,2*%
%TO.N,/AVDD33_0*%
%TA.AperFunction,SMDPad,CuDef*%
G36*
G01*
X218550000Y-29549999D02*
X218550000Y-30450001D01*
G75*
G02*
X218300001Y-30700000I-249999J0D01*
G01*
X217649999Y-30700000D01*
G75*
G02*
X217400000Y-30450001I0J249999D01*
G01*
X217400000Y-29549999D01*
G75*
G02*
X217649999Y-29300000I249999J0D01*
G01*
X218300001Y-29300000D01*
G75*
G02*
X218550000Y-29549999I0J-249999D01*
G01*
G37*
%TD.AperFunction*%
%TO.P,L4,1*%
%TO.N,3V3*%
%TA.AperFunction,SMDPad,CuDef*%
G36*
G01*
X220600000Y-29549999D02*
X220600000Y-30450001D01*
G75*
G02*
X220350001Y-30700000I-249999J0D01*
G01*
X219699999Y-30700000D01*
G75*
G02*
X219450000Y-30450001I0J249999D01*
G01*
X219450000Y-29549999D01*
G75*
G02*
X219699999Y-29300000I249999J0D01*
G01*
X220350001Y-29300000D01*
G75*
G02*
X220600000Y-29549999I0J-249999D01*
G01*
G37*
%TD.AperFunction*%
%TD*%
%TO.P,R1,2*%
%TO.N,VGAHSYNC*%
%TA.AperFunction,SMDPad,CuDef*%
G36*
G01*
X218400000Y-46450001D02*
X218400000Y-45549999D01*
G75*
G02*
X218649999Y-45300000I249999J0D01*
G01*
X219350001Y-45300000D01*
G75*
G02*
X219600000Y-45549999I0J-249999D01*
G01*
X219600000Y-46450001D01*
G75*
G02*
X219350001Y-46700000I-249999J0D01*
G01*
X218649999Y-46700000D01*
G75*
G02*
X218400000Y-46450001I0J249999D01*
G01*
G37*
%TD.AperFunction*%
%TO.P,R1,1*%
%TO.N,Net-(R1-Pad1)*%
%TA.AperFunction,SMDPad,CuDef*%
G36*
G01*
X216400000Y-46450001D02*
X216400000Y-45549999D01*
G75*
G02*
X216649999Y-45300000I249999J0D01*
G01*
X217350001Y-45300000D01*
G75*
G02*
X217600000Y-45549999I0J-249999D01*
G01*
X217600000Y-46450001D01*
G75*
G02*
X217350001Y-46700000I-249999J0D01*
G01*
X216649999Y-46700000D01*
G75*
G02*
X216400000Y-46450001I0J249999D01*
G01*
G37*
%TD.AperFunction*%
%TD*%
%TO.P,R2,1*%
%TO.N,Net-(R2-Pad1)*%
%TA.AperFunction,SMDPad,CuDef*%
G36*
G01*
X218400000Y-43450001D02*
X218400000Y-42549999D01*
G75*
G02*
X218649999Y-42300000I249999J0D01*
G01*
X219350001Y-42300000D01*
G75*
G02*
X219600000Y-42549999I0J-249999D01*
G01*
X219600000Y-43450001D01*
G75*
G02*
X219350001Y-43700000I-249999J0D01*
G01*
X218649999Y-43700000D01*
G75*
G02*
X218400000Y-43450001I0J249999D01*
G01*
G37*
%TD.AperFunction*%
%TO.P,R2,2*%
%TO.N,VGAVSYNC*%
%TA.AperFunction,SMDPad,CuDef*%
G36*
G01*
X220400000Y-43450001D02*
X220400000Y-42549999D01*
G75*
G02*
X220649999Y-42300000I249999J0D01*
G01*
X221350001Y-42300000D01*
G75*
G02*
X221600000Y-42549999I0J-249999D01*
G01*
X221600000Y-43450001D01*
G75*
G02*
X221350001Y-43700000I-249999J0D01*
G01*
X220649999Y-43700000D01*
G75*
G02*
X220400000Y-43450001I0J249999D01*
G01*
G37*
%TD.AperFunction*%
%TD*%
%TO.P,R14,1*%
%TO.N,Net-(R14-Pad1)*%
%TA.AperFunction,SMDPad,CuDef*%
G36*
G01*
X197450001Y-35600000D02*
X196549999Y-35600000D01*
G75*
G02*
X196300000Y-35350001I0J249999D01*
G01*
X196300000Y-34649999D01*
G75*
G02*
X196549999Y-34400000I249999J0D01*
G01*
X197450001Y-34400000D01*
G75*
G02*
X197700000Y-34649999I0J-249999D01*
G01*
X197700000Y-35350001D01*
G75*
G02*
X197450001Y-35600000I-249999J0D01*
G01*
G37*
%TD.AperFunction*%
%TO.P,R14,2*%
%TO.N,GND*%
%TA.AperFunction,SMDPad,CuDef*%
G36*
G01*
X197450001Y-33600000D02*
X196549999Y-33600000D01*
G75*
G02*
X196300000Y-33350001I0J249999D01*
G01*
X196300000Y-32649999D01*
G75*
G02*
X196549999Y-32400000I249999J0D01*
G01*
X197450001Y-32400000D01*
G75*
G02*
X197700000Y-32649999I0J-249999D01*
G01*
X197700000Y-33350001D01*
G75*
G02*
X197450001Y-33600000I-249999J0D01*
G01*
G37*
%TD.AperFunction*%
%TD*%
%TO.P,R15,2*%
%TO.N,Net-(R15-Pad2)*%
%TA.AperFunction,SMDPad,CuDef*%
G36*
G01*
X174425000Y-41237500D02*
X174425000Y-40762500D01*
G75*
G02*
X174662500Y-40525000I237500J0D01*
G01*
X175162500Y-40525000D01*
G75*
G02*
X175400000Y-40762500I0J-237500D01*
G01*
X175400000Y-41237500D01*
G75*
G02*
X175162500Y-41475000I-237500J0D01*
G01*
X174662500Y-41475000D01*
G75*
G02*
X174425000Y-41237500I0J237500D01*
G01*
G37*
%TD.AperFunction*%
%TO.P,R15,1*%
%TO.N,3V3*%
%TA.AperFunction,SMDPad,CuDef*%
G36*
G01*
X172600000Y-41237500D02*
X172600000Y-40762500D01*
G75*
G02*
X172837500Y-40525000I237500J0D01*
G01*
X173337500Y-40525000D01*
G75*
G02*
X173575000Y-40762500I0J-237500D01*
G01*
X173575000Y-41237500D01*
G75*
G02*
X173337500Y-41475000I-237500J0D01*
G01*
X172837500Y-41475000D01*
G75*
G02*
X172600000Y-41237500I0J237500D01*
G01*
G37*
%TD.AperFunction*%
%TD*%
%TO.P,R16,1*%
%TO.N,3V3*%
%TA.AperFunction,SMDPad,CuDef*%
G36*
G01*
X172600000Y-39237500D02*
X172600000Y-38762500D01*
G75*
G02*
X172837500Y-38525000I237500J0D01*
G01*
X173337500Y-38525000D01*
G75*
G02*
X173575000Y-38762500I0J-237500D01*
G01*
X173575000Y-39237500D01*
G75*
G02*
X173337500Y-39475000I-237500J0D01*
G01*
X172837500Y-39475000D01*
G75*
G02*
X172600000Y-39237500I0J237500D01*
G01*
G37*
%TD.AperFunction*%
%TO.P,R16,2*%
%TO.N,Net-(R16-Pad2)*%
%TA.AperFunction,SMDPad,CuDef*%
G36*
G01*
X174425000Y-39237500D02*
X174425000Y-38762500D01*
G75*
G02*
X174662500Y-38525000I237500J0D01*
G01*
X175162500Y-38525000D01*
G75*
G02*
X175400000Y-38762500I0J-237500D01*
G01*
X175400000Y-39237500D01*
G75*
G02*
X175162500Y-39475000I-237500J0D01*
G01*
X174662500Y-39475000D01*
G75*
G02*
X174425000Y-39237500I0J237500D01*
G01*
G37*
%TD.AperFunction*%
%TD*%
D14*
%TO.P,U1,2*%
%TO.N,1V8*%
X236000000Y-35850000D03*
D15*
X236000000Y-42150000D03*
%TO.P,U1,3*%
%TO.N,5V*%
X238300000Y-42150000D03*
%TO.P,U1,1*%
%TO.N,GND*%
X233700000Y-42150000D03*
%TD*%
D16*
%TO.P,U2,49*%
%TO.N,GND*%
X185350000Y-39032900D03*
D17*
%TO.P,U2,48*%
%TO.N,VGARED*%
X188100000Y-42500000D03*
%TO.P,U2,47*%
%TO.N,/AVDD33_0*%
X187600001Y-42500000D03*
%TO.P,U2,46*%
%TO.N,/AVDD18_ADC_0*%
X187099999Y-42500000D03*
%TO.P,U2,45*%
%TO.N,GND*%
X186600000Y-42500000D03*
%TO.P,U2,44*%
%TO.N,VGAGREEN*%
X186100001Y-42500000D03*
%TO.P,U2,43*%
%TO.N,/AVDD33_0*%
X185600000Y-42500000D03*
%TO.P,U2,42*%
%TO.N,Net-(U2-Pad42)*%
X185100000Y-42500000D03*
%TO.P,U2,41*%
%TO.N,/AVDD18_ADC_0*%
X184599999Y-42500000D03*
%TO.P,U2,40*%
%TO.N,GND*%
X184100000Y-42500000D03*
%TO.P,U2,39*%
%TO.N,VGABLUE*%
X183600001Y-42500000D03*
%TO.P,U2,38*%
%TO.N,/AVDD33_0*%
X183099999Y-42500000D03*
%TO.P,U2,37*%
%TO.N,Net-(C30-Pad1)*%
X182600000Y-42500000D03*
D18*
%TO.P,U2,36*%
%TO.N,/DVDD33_0*%
X181882900Y-41782900D03*
%TO.P,U2,35*%
%TO.N,Net-(R2-Pad1)*%
X181882900Y-41282901D03*
%TO.P,U2,34*%
%TO.N,Net-(R1-Pad1)*%
X181882900Y-40782899D03*
%TO.P,U2,33*%
%TO.N,Net-(C27-Pad1)*%
X181882900Y-40282900D03*
%TO.P,U2,32*%
%TO.N,Net-(U2-Pad32)*%
X181882900Y-39782901D03*
%TO.P,U2,31*%
%TO.N,Net-(U2-Pad31)*%
X181882900Y-39282900D03*
%TO.P,U2,30*%
%TO.N,Net-(C26-Pad1)*%
X181882900Y-38782900D03*
%TO.P,U2,29*%
%TO.N,Net-(R15-Pad2)*%
X181882900Y-38282899D03*
%TO.P,U2,28*%
%TO.N,Net-(R16-Pad2)*%
X181882900Y-37782900D03*
%TO.P,U2,27*%
%TO.N,GND*%
X181882900Y-37282901D03*
%TO.P,U2,26*%
%TO.N,Net-(U2-Pad26)*%
X181882900Y-36782899D03*
%TO.P,U2,25*%
%TO.N,Net-(U2-Pad25)*%
X181882900Y-36282900D03*
D17*
%TO.P,U2,24*%
%TO.N,/DVDD33_0*%
X182600000Y-35565800D03*
%TO.P,U2,23*%
%TO.N,/HDMI_TX2+*%
X183099999Y-35565800D03*
%TO.P,U2,22*%
%TO.N,/HDMI_TX2-*%
X183600001Y-35565800D03*
%TO.P,U2,21*%
%TO.N,/AVDD18_0*%
X184100000Y-35565800D03*
%TO.P,U2,20*%
%TO.N,/HDMI_TX1+*%
X184599999Y-35565800D03*
%TO.P,U2,19*%
%TO.N,/HDMI_TX1-*%
X185100000Y-35565800D03*
%TO.P,U2,18*%
%TO.N,/HDMI_TX0+*%
X185600000Y-35565800D03*
%TO.P,U2,17*%
%TO.N,/HDMI_TX0-*%
X186100001Y-35565800D03*
%TO.P,U2,16*%
%TO.N,/AVDD18_0*%
X186600000Y-35565800D03*
%TO.P,U2,15*%
%TO.N,/HDMI_TXC+*%
X187099999Y-35565800D03*
%TO.P,U2,14*%
%TO.N,/HDMI_TXC-*%
X187600001Y-35565800D03*
%TO.P,U2,13*%
%TO.N,Net-(R14-Pad1)*%
X188100000Y-35565800D03*
D18*
%TO.P,U2,12*%
%TO.N,/AVDD33_0*%
X188817100Y-36282900D03*
%TO.P,U2,11*%
%TO.N,/DVDD33_0*%
X188817100Y-36782899D03*
%TO.P,U2,10*%
%TO.N,Net-(R10-Pad2)*%
X188817100Y-37282901D03*
%TO.P,U2,9*%
%TO.N,Net-(R13-Pad2)*%
X188817100Y-37782900D03*
%TO.P,U2,8*%
%TO.N,Net-(J1-Pad19)*%
X188817100Y-38282899D03*
%TO.P,U2,7*%
%TO.N,1V8*%
X188817100Y-38782900D03*
%TO.P,U2,6*%
%TO.N,GND*%
X188817100Y-39282900D03*
%TO.P,U2,5*%
%TO.N,/DVDD33_0*%
X188817100Y-39782901D03*
%TO.P,U2,4*%
%TO.N,Net-(U2-Pad4)*%
X188817100Y-40282900D03*
%TO.P,U2,3*%
%TO.N,Net-(U2-Pad3)*%
X188817100Y-40782899D03*
%TO.P,U2,2*%
%TO.N,GND*%
X188817100Y-41282901D03*
%TO.P,U2,1*%
%TO.N,/AVDD18_ADC_0*%
X188817100Y-41782900D03*
D19*
%TO.P,U2,49*%
%TO.N,GND*%
X187350000Y-41032900D03*
X186350000Y-41032900D03*
X185350000Y-41032900D03*
X184350000Y-41032900D03*
X183350000Y-41032900D03*
X187350000Y-40032900D03*
X186350000Y-40032900D03*
X185350000Y-40032900D03*
X184350000Y-40032900D03*
X183350000Y-40032900D03*
X187350000Y-39032900D03*
X186350000Y-39032900D03*
X185350000Y-39032900D03*
X184350000Y-39032900D03*
X183350000Y-39032900D03*
X187350000Y-38032900D03*
X186350000Y-38032900D03*
X185350000Y-38032900D03*
X184350000Y-38032900D03*
X183350000Y-38032900D03*
X187350000Y-37032900D03*
X186350000Y-37032900D03*
X185350000Y-37032900D03*
X184350000Y-37032900D03*
X183350000Y-37032900D03*
%TD*%
%TO.P,LD1,1*%
%TO.N,Net-(LD1-Pad1)*%
%TA.AperFunction,SMDPad,CuDef*%
G36*
G01*
X244600000Y-35549999D02*
X244600000Y-36450001D01*
G75*
G02*
X244350001Y-36700000I-249999J0D01*
G01*
X243699999Y-36700000D01*
G75*
G02*
X243450000Y-36450001I0J249999D01*
G01*
X243450000Y-35549999D01*
G75*
G02*
X243699999Y-35300000I249999J0D01*
G01*
X244350001Y-35300000D01*
G75*
G02*
X244600000Y-35549999I0J-249999D01*
G01*
G37*
%TD.AperFunction*%
%TO.P,LD1,2*%
%TO.N,3V3*%
%TA.AperFunction,SMDPad,CuDef*%
G36*
G01*
X242550000Y-35549999D02*
X242550000Y-36450001D01*
G75*
G02*
X242300001Y-36700000I-249999J0D01*
G01*
X241649999Y-36700000D01*
G75*
G02*
X241400000Y-36450001I0J249999D01*
G01*
X241400000Y-35549999D01*
G75*
G02*
X241649999Y-35300000I249999J0D01*
G01*
X242300001Y-35300000D01*
G75*
G02*
X242550000Y-35549999I0J-249999D01*
G01*
G37*
%TD.AperFunction*%
%TD*%
%TO.P,R17,1*%
%TO.N,Net-(LD1-Pad1)*%
%TA.AperFunction,SMDPad,CuDef*%
G36*
G01*
X244400000Y-38762500D02*
X244400000Y-39237500D01*
G75*
G02*
X244162500Y-39475000I-237500J0D01*
G01*
X243662500Y-39475000D01*
G75*
G02*
X243425000Y-39237500I0J237500D01*
G01*
X243425000Y-38762500D01*
G75*
G02*
X243662500Y-38525000I237500J0D01*
G01*
X244162500Y-38525000D01*
G75*
G02*
X244400000Y-38762500I0J-237500D01*
G01*
G37*
%TD.AperFunction*%
%TO.P,R17,2*%
%TO.N,GND*%
%TA.AperFunction,SMDPad,CuDef*%
G36*
G01*
X242575000Y-38762500D02*
X242575000Y-39237500D01*
G75*
G02*
X242337500Y-39475000I-237500J0D01*
G01*
X241837500Y-39475000D01*
G75*
G02*
X241600000Y-39237500I0J237500D01*
G01*
X241600000Y-38762500D01*
G75*
G02*
X241837500Y-38525000I237500J0D01*
G01*
X242337500Y-38525000D01*
G75*
G02*
X242575000Y-38762500I0J-237500D01*
G01*
G37*
%TD.AperFunction*%
%TD*%
D20*
%TO.P,TP1,1*%
%TO.N,Net-(J1-Pad13)*%
X199000000Y-28000000D03*
%TD*%
D21*
%TO.N,GND*%
X204000000Y-31000000D03*
X228170000Y-44460000D03*
X220980000Y-53300000D03*
X243250000Y-54960000D03*
X230010000Y-40050000D03*
X243790000Y-40860000D03*
X225010000Y-42520000D03*
X183240000Y-29680000D03*
X184450000Y-29650000D03*
X180770000Y-47990000D03*
X190370000Y-47040000D03*
X195540000Y-38560000D03*
X175330000Y-35070000D03*
X174540000Y-46020000D03*
X195761238Y-34090220D03*
X195700000Y-39700000D03*
X185300000Y-47100000D03*
X195100000Y-46100000D03*
X170000000Y-25000000D03*
X175000000Y-25000000D03*
X200000000Y-25000000D03*
X205000000Y-25000000D03*
X210000000Y-25000000D03*
X215000000Y-25000000D03*
X225000000Y-25000000D03*
X230000000Y-25000000D03*
X235000000Y-25000000D03*
X240000000Y-25000000D03*
X240000000Y-30000000D03*
X230000000Y-35000000D03*
%TO.N,/AVDD18_ADC_0*%
X185200000Y-46000000D03*
X188000000Y-46000000D03*
X193000000Y-43910000D03*
%TO.N,/AVDD18_0*%
X187036232Y-34073732D03*
X184220010Y-34119943D03*
X198720000Y-33890000D03*
%TO.N,/DVDD33_0*%
X190810000Y-41000000D03*
X195510000Y-40920000D03*
X215990000Y-33790000D03*
X177161783Y-40377189D03*
X179110000Y-33540000D03*
X190625370Y-35317760D03*
%TO.N,5V*%
X242600000Y-51720000D03*
X192500002Y-32050000D03*
X238300000Y-40200000D03*
%TO.N,/AVDD33_0*%
X182656150Y-43681322D03*
X185350000Y-44760000D03*
X216120000Y-30650000D03*
X188200000Y-43830000D03*
X189331557Y-35500000D03*
%TO.N,Net-(C26-Pad1)*%
X180350000Y-39350010D03*
X210806048Y-40076048D03*
%TO.N,Net-(C26-Pad2)*%
X214040000Y-41600000D03*
%TO.N,Net-(C27-Pad2)*%
X215360000Y-43040000D03*
%TO.N,Net-(C27-Pad1)*%
X179422283Y-39723325D03*
X210623217Y-42694121D03*
%TO.N,/DDC_SCL*%
X194564975Y-28144975D03*
X188444332Y-25174990D03*
%TO.N,/DDC_SDA*%
X193200000Y-28800000D03*
X187100000Y-25900000D03*
%TO.N,Net-(J1-Pad19)*%
X196100000Y-36300000D03*
X192865438Y-33793626D03*
%TO.N,VGAGREEN*%
X220310000Y-50840000D03*
X218580000Y-48140010D03*
%TO.N,VGARED*%
X219330000Y-51890000D03*
%TO.N,3V3*%
X226570000Y-49240000D03*
X240250000Y-36360000D03*
X224350000Y-32960000D03*
X173080000Y-37720000D03*
%TO.N,VGABLUE*%
X221350000Y-49770000D03*
%TO.N,VGAVSYNC*%
X237080000Y-46030000D03*
%TO.N,VGAHSYNC*%
X237150000Y-51150000D03*
%TO.N,Net-(R1-Pad1)*%
X178820000Y-40610000D03*
X210484418Y-43684453D03*
%TO.N,Net-(R2-Pad1)*%
X213080000Y-44920000D03*
X180369452Y-41349417D03*
%TO.N,Net-(R10-Pad2)*%
X182606139Y-28186186D03*
X190600000Y-36600000D03*
%TO.N,Net-(R13-Pad2)*%
X181600000Y-29100000D03*
X190274990Y-38000000D03*
%TO.N,Net-(R14-Pad1)*%
X190800000Y-34100000D03*
X197300000Y-36059990D03*
%TD*%
D22*
%TO.N,GND*%
X233700000Y-42150000D02*
X232520000Y-42150000D01*
X231995000Y-41625000D02*
X230000000Y-41625000D01*
X232520000Y-42150000D02*
X231995000Y-41625000D01*
X230000000Y-41625000D02*
X228815000Y-41625000D01*
X228227500Y-41037500D02*
X227000000Y-41037500D01*
X228815000Y-41625000D02*
X228227500Y-41037500D01*
X230000000Y-40060000D02*
X230010000Y-40050000D01*
X230000000Y-41625000D02*
X230000000Y-40060000D01*
X242000000Y-39087500D02*
X242087500Y-39000000D01*
X242000000Y-40962500D02*
X242000000Y-39087500D01*
X243687500Y-40962500D02*
X243790000Y-40860000D01*
X242000000Y-40962500D02*
X243687500Y-40962500D01*
D23*
X183250000Y-29690000D02*
X183240000Y-29680000D01*
X183250000Y-31800000D02*
X183250000Y-29690000D01*
X184750000Y-29950000D02*
X184450000Y-29650000D01*
X184750000Y-31800000D02*
X184750000Y-29950000D01*
X185600000Y-29650000D02*
X184450000Y-29650000D01*
X183270000Y-29650000D02*
X183240000Y-29680000D01*
X184450000Y-29650000D02*
X183270000Y-29650000D01*
X186250000Y-29650000D02*
X185600000Y-29650000D01*
X186250000Y-31800000D02*
X186250000Y-29650000D01*
X187440000Y-29650000D02*
X185600000Y-29650000D01*
X187750000Y-29960000D02*
X187440000Y-29650000D01*
X187750000Y-31800000D02*
X187750000Y-29960000D01*
X176962500Y-35000000D02*
X176962500Y-37000000D01*
X184100000Y-40282900D02*
X185350000Y-39032900D01*
X184100000Y-42500000D02*
X184100000Y-40282900D01*
X186600000Y-40282900D02*
X185350000Y-39032900D01*
X186600000Y-42500000D02*
X186600000Y-40282900D01*
X187600001Y-41282901D02*
X185350000Y-39032900D01*
X188817100Y-41282901D02*
X187600001Y-41282901D01*
X185600000Y-39282900D02*
X185350000Y-39032900D01*
X188817100Y-39282900D02*
X185600000Y-39282900D01*
X181760000Y-47000000D02*
X180770000Y-47990000D01*
X181962500Y-47000000D02*
X181760000Y-47000000D01*
X177000000Y-44037500D02*
X179000000Y-44037500D01*
X183600001Y-37282901D02*
X185350000Y-39032900D01*
X181882900Y-37282901D02*
X183600001Y-37282901D01*
X192000000Y-39962500D02*
X194000000Y-39962500D01*
X192000000Y-35962500D02*
X194000000Y-35962500D01*
X175400000Y-35000000D02*
X175330000Y-35070000D01*
X176962500Y-35000000D02*
X175400000Y-35000000D01*
X174560000Y-46000000D02*
X174540000Y-46020000D01*
X175962500Y-46000000D02*
X174560000Y-46000000D01*
X177000000Y-44037500D02*
X176852500Y-44037500D01*
X175962500Y-44927500D02*
X175962500Y-46000000D01*
X176852500Y-44037500D02*
X175962500Y-44927500D01*
D24*
X197000000Y-33000000D02*
X197000000Y-32000000D01*
X196300000Y-31300000D02*
X194500000Y-31300000D01*
X197000000Y-32000000D02*
X196300000Y-31300000D01*
X190750000Y-31800000D02*
X190750000Y-29950000D01*
X190975011Y-29724989D02*
X193524989Y-29724989D01*
X190750000Y-29950000D02*
X190975011Y-29724989D01*
X194500000Y-30700000D02*
X194500000Y-31300000D01*
X193524989Y-29724989D02*
X194500000Y-30700000D01*
D23*
X194000000Y-31800000D02*
X194500000Y-31300000D01*
X194000000Y-35962500D02*
X194000000Y-31800000D01*
D22*
X195437500Y-39962500D02*
X195700000Y-39700000D01*
X194000000Y-39962500D02*
X195437500Y-39962500D01*
X189037500Y-45000000D02*
X189037500Y-47000000D01*
X181962500Y-45000000D02*
X181962500Y-47000000D01*
X190330000Y-47000000D02*
X190370000Y-47040000D01*
X189037500Y-47000000D02*
X190330000Y-47000000D01*
%TO.N,1V8*%
X227000000Y-38962500D02*
X227000000Y-38880000D01*
X227505000Y-38375000D02*
X230000000Y-38375000D01*
X227000000Y-38880000D02*
X227505000Y-38375000D01*
D25*
X236000000Y-42150000D02*
X236000000Y-35850000D01*
X230005000Y-38370000D02*
X230000000Y-38375000D01*
X236000000Y-38370000D02*
X230005000Y-38370000D01*
X236000000Y-35850000D02*
X236000000Y-38370000D01*
X220062500Y-38962500D02*
X220025000Y-39000000D01*
X227000000Y-38962500D02*
X220062500Y-38962500D01*
D24*
X192000000Y-38037500D02*
X194000000Y-38037500D01*
D22*
X195631998Y-37395000D02*
X220025000Y-37395000D01*
X194989498Y-38037500D02*
X195631998Y-37395000D01*
X194000000Y-38037500D02*
X194989498Y-38037500D01*
D25*
X220025000Y-37395000D02*
X220025000Y-36000000D01*
X220025000Y-39000000D02*
X220025000Y-37395000D01*
D24*
X191286820Y-39049990D02*
X191750010Y-39049990D01*
X192000000Y-38800000D02*
X192000000Y-38037500D01*
X191750010Y-39049990D02*
X192000000Y-38800000D01*
X190836810Y-39500000D02*
X191286820Y-39049990D01*
X189535800Y-39276045D02*
X189759755Y-39500000D01*
X189535800Y-38895900D02*
X189535800Y-39276045D01*
X189422801Y-38782901D02*
X189535800Y-38895900D01*
X189759755Y-39500000D02*
X190836810Y-39500000D01*
X188817100Y-38782900D02*
X189422801Y-38782901D01*
D23*
%TO.N,/AVDD18_ADC_0*%
X192000000Y-42037500D02*
X189987500Y-42037500D01*
X189732900Y-41782900D02*
X188817100Y-41782900D01*
X189987500Y-42037500D02*
X189732900Y-41782900D01*
X186962500Y-45000000D02*
X186962500Y-43497500D01*
X187099999Y-43360001D02*
X187099999Y-42500000D01*
X186962500Y-43497500D02*
X187099999Y-43360001D01*
X184599999Y-44437501D02*
X184037500Y-45000000D01*
X184599999Y-42500000D02*
X184599999Y-44437501D01*
D22*
X184037500Y-45000000D02*
X184037500Y-47000000D01*
X192000000Y-42037500D02*
X194000000Y-42037500D01*
X207642500Y-42037500D02*
X194000000Y-42037500D01*
X210980000Y-38700000D02*
X207642500Y-42037500D01*
X217975000Y-39000000D02*
X217675000Y-38700000D01*
X217675000Y-38700000D02*
X210980000Y-38700000D01*
X185037500Y-46000000D02*
X185200000Y-46000000D01*
X184037500Y-47000000D02*
X185037500Y-46000000D01*
X186962500Y-45962500D02*
X186962500Y-47000000D01*
X186962500Y-45000000D02*
X186962500Y-45962500D01*
D23*
X187957999Y-45957999D02*
X188000000Y-46000000D01*
X186967001Y-45957999D02*
X187957999Y-45957999D01*
X186962500Y-45962500D02*
X186967001Y-45957999D01*
D22*
X192000000Y-42037500D02*
X192000000Y-42910000D01*
X192000000Y-42910000D02*
X193000000Y-43910000D01*
D23*
%TO.N,/AVDD18_0*%
X186600000Y-34509964D02*
X187036232Y-34073732D01*
X186600000Y-35565800D02*
X186600000Y-34509964D01*
X184100000Y-34239953D02*
X184220010Y-34119943D01*
X184100000Y-35565800D02*
X184100000Y-34239953D01*
D22*
X200830000Y-36000000D02*
X198720000Y-33890000D01*
X217975000Y-36000000D02*
X200830000Y-36000000D01*
D23*
%TO.N,/DVDD33_0*%
X179037500Y-35000000D02*
X181600000Y-35000000D01*
X182165800Y-35565800D02*
X182600000Y-35565800D01*
X181600000Y-35000000D02*
X182165800Y-35565800D01*
X179037500Y-35000000D02*
X179037500Y-37000000D01*
X177000000Y-41962500D02*
X179000000Y-41962500D01*
X179086918Y-42049418D02*
X181616382Y-42049418D01*
X179000000Y-41962500D02*
X179086918Y-42049418D01*
X181616382Y-42049418D02*
X181882900Y-41782900D01*
X215990000Y-33730000D02*
X215990000Y-33790000D01*
X177000000Y-40538972D02*
X177161783Y-40377189D01*
X177000000Y-41962500D02*
X177000000Y-40538972D01*
X179110000Y-34927500D02*
X179037500Y-35000000D01*
X179110000Y-33540000D02*
X179110000Y-34927500D01*
X190200000Y-41000000D02*
X190810000Y-41000000D01*
X190000000Y-40800000D02*
X190200000Y-41000000D01*
X190000000Y-40511798D02*
X190000000Y-40800000D01*
X189271103Y-39782901D02*
X190000000Y-40511798D01*
X188817100Y-39782901D02*
X189271103Y-39782901D01*
X190625370Y-35568329D02*
X190625370Y-35317760D01*
X189410800Y-36782899D02*
X190625370Y-35568329D01*
X188817100Y-36782899D02*
X189410800Y-36782899D01*
D22*
X216780000Y-33000000D02*
X215990000Y-33790000D01*
X217975000Y-33000000D02*
X216780000Y-33000000D01*
D25*
%TO.N,5V*%
X238300000Y-42150000D02*
X239270000Y-42150000D01*
X240157500Y-43037500D02*
X242000000Y-43037500D01*
X239270000Y-42150000D02*
X240157500Y-43037500D01*
X242000000Y-43037500D02*
X242000000Y-43270000D01*
X242000000Y-43270000D02*
X242900000Y-44170000D01*
X242900000Y-51420000D02*
X242600000Y-51720000D01*
X242900000Y-44170000D02*
X242900000Y-51420000D01*
D24*
X192500002Y-30300002D02*
X192500002Y-32050000D01*
X192374999Y-30174999D02*
X192500002Y-30300002D01*
X191325001Y-30174999D02*
X192374999Y-30174999D01*
X191250000Y-30250000D02*
X191325001Y-30174999D01*
X191250000Y-31800000D02*
X191250000Y-30250000D01*
D25*
X238300000Y-40200000D02*
X238300000Y-42150000D01*
D23*
%TO.N,/AVDD33_0*%
X183099999Y-42500000D02*
X183099999Y-43237473D01*
X183099999Y-43237473D02*
X182656150Y-43681322D01*
X185600000Y-44510000D02*
X185600000Y-42500000D01*
X185350000Y-44760000D02*
X185600000Y-44510000D01*
D22*
X217975000Y-30000000D02*
X216770000Y-30000000D01*
X216770000Y-30000000D02*
X216120000Y-30650000D01*
D24*
X187600001Y-43230001D02*
X188200000Y-43830000D01*
X187600001Y-42500000D02*
X187600001Y-43230001D01*
D23*
X189300000Y-35500000D02*
X189331557Y-35500000D01*
X188817100Y-35982900D02*
X189300000Y-35500000D01*
X188817100Y-36282900D02*
X188817100Y-35982900D01*
%TO.N,Net-(C26-Pad1)*%
X181882900Y-38782900D02*
X180917110Y-38782900D01*
X180917110Y-38782900D02*
X180350000Y-39350010D01*
X210882096Y-40000000D02*
X210806048Y-40076048D01*
X211962500Y-40000000D02*
X210882096Y-40000000D01*
D24*
%TO.N,Net-(C26-Pad2)*%
X214040000Y-40002500D02*
X214037500Y-40000000D01*
X214040000Y-41600000D02*
X214040000Y-40002500D01*
%TO.N,Net-(C27-Pad2)*%
X214115000Y-43040000D02*
X214075000Y-43000000D01*
X215360000Y-43040000D02*
X214115000Y-43040000D01*
D23*
%TO.N,Net-(C27-Pad1)*%
X181882900Y-40282900D02*
X180864284Y-40282900D01*
X179822282Y-40123324D02*
X179422283Y-39723325D01*
X180864284Y-40282900D02*
X180704708Y-40123324D01*
X180704708Y-40123324D02*
X179822282Y-40123324D01*
X210929096Y-43000000D02*
X210623217Y-42694121D01*
X212000000Y-43000000D02*
X210929096Y-43000000D01*
%TO.N,Net-(C30-Pad1)*%
X182600000Y-42500000D02*
X179100000Y-46000000D01*
X179100000Y-46000000D02*
X178625000Y-46000000D01*
X178625000Y-46000000D02*
X178037500Y-46000000D01*
%TO.N,/HDMI_TX2+*%
X182750000Y-33290002D02*
X182750000Y-31800000D01*
X183099999Y-33640001D02*
X182750000Y-33290002D01*
X183099999Y-35565800D02*
X183099999Y-33640001D01*
%TO.N,/HDMI_TX2-*%
X183700001Y-31849999D02*
X183750000Y-31800000D01*
X183700001Y-33340001D02*
X183700001Y-31849999D01*
X183640001Y-33400001D02*
X183700001Y-33340001D01*
X183520000Y-33400001D02*
X183640001Y-33400001D01*
X183520000Y-34796002D02*
X183520000Y-33400001D01*
X183600001Y-34876003D02*
X183520000Y-34796002D01*
X183600001Y-35565800D02*
X183600001Y-34876003D01*
%TO.N,/HDMI_TX1+*%
X184339998Y-33389998D02*
X184250000Y-33300000D01*
X184506002Y-33389998D02*
X184339998Y-33389998D01*
X184920012Y-33804008D02*
X184506002Y-33389998D01*
X184599999Y-34775958D02*
X184920012Y-34455945D01*
X184599999Y-35565800D02*
X184599999Y-34775958D01*
X184920012Y-34455945D02*
X184920012Y-33804008D01*
X184250000Y-33300000D02*
X184250000Y-31800000D01*
%TO.N,/HDMI_TX1-*%
X185100000Y-35565800D02*
X185100000Y-34841646D01*
X185250000Y-33300000D02*
X185250000Y-31800000D01*
X185100000Y-34841646D02*
X185320012Y-34621634D01*
X185320012Y-33370012D02*
X185250000Y-33300000D01*
X185320012Y-34621634D02*
X185320012Y-33370012D01*
%TO.N,/HDMI_TX0+*%
X185600000Y-34907346D02*
X185720023Y-34787323D01*
X185720023Y-31829977D02*
X185750000Y-31800000D01*
X185600000Y-35565800D02*
X185600000Y-34907346D01*
X185720023Y-34787323D02*
X185720023Y-31829977D01*
%TO.N,/HDMI_TX0-*%
X186120034Y-33929966D02*
X186750000Y-33300000D01*
X186120034Y-35545767D02*
X186120034Y-33929966D01*
X186750000Y-33300000D02*
X186750000Y-31800000D01*
X186100001Y-35565800D02*
X186120034Y-35545767D01*
%TO.N,/HDMI_TXC+*%
X187250000Y-33280000D02*
X187250000Y-31800000D01*
X187099999Y-35565800D02*
X187099999Y-35045969D01*
X187736234Y-33766234D02*
X187250000Y-33280000D01*
X187099999Y-35045969D02*
X187736234Y-34409734D01*
X187736234Y-34409734D02*
X187736234Y-33766234D01*
%TO.N,/HDMI_TXC-*%
X187600001Y-35111667D02*
X188250000Y-34461668D01*
X187600001Y-35565800D02*
X187600001Y-35111667D01*
X188250000Y-34461668D02*
X188250000Y-31800000D01*
%TO.N,Net-(J1-Pad13)*%
X199000000Y-27500000D02*
X199000000Y-28000000D01*
X198600000Y-27100000D02*
X199000000Y-27500000D01*
X189200000Y-27100000D02*
X198600000Y-27100000D01*
X188750000Y-27550000D02*
X189200000Y-27100000D01*
X188750000Y-31800000D02*
X188750000Y-27550000D01*
D24*
%TO.N,/DDC_SCL*%
X194494999Y-28074999D02*
X194564975Y-28144975D01*
X191352181Y-28074999D02*
X194494999Y-28074999D01*
X189750000Y-29677180D02*
X191352181Y-28074999D01*
X189750000Y-31800000D02*
X189750000Y-29677180D01*
%TO.N,/DDC_SDA*%
X191263590Y-28800000D02*
X193200000Y-28800000D01*
X190250000Y-29813590D02*
X191263590Y-28800000D01*
X190250000Y-31800000D02*
X190250000Y-29813590D01*
D23*
%TO.N,Net-(J1-Pad19)*%
X191750000Y-32678188D02*
X192865438Y-33793626D01*
X191750000Y-31800000D02*
X191750000Y-32678188D01*
X190974990Y-37472176D02*
X191297176Y-37149990D01*
X195700001Y-36699999D02*
X196100000Y-36300000D01*
X190974990Y-38574990D02*
X190974990Y-37472176D01*
X191297176Y-37149990D02*
X195250010Y-37149990D01*
X195250010Y-37149990D02*
X195700001Y-36699999D01*
X189523855Y-38282899D02*
X190240956Y-39000000D01*
X190549980Y-39000000D02*
X190974990Y-38574990D01*
X188817100Y-38282899D02*
X189523855Y-38282899D01*
X190240956Y-39000000D02*
X190549980Y-39000000D01*
X190974990Y-38395010D02*
X190974990Y-38574990D01*
%TO.N,VGAGREEN*%
X218499990Y-48060000D02*
X218580000Y-48140010D01*
X186432166Y-48060000D02*
X218499990Y-48060000D01*
X186050000Y-47677834D02*
X186432166Y-48060000D01*
X186100001Y-43060701D02*
X186050000Y-43110702D01*
X186050000Y-43110702D02*
X186050000Y-47677834D01*
X186100001Y-42500000D02*
X186100001Y-43060701D01*
%TO.N,VGARED*%
X221420000Y-51890000D02*
X219330000Y-51890000D01*
X188690000Y-43090000D02*
X190060000Y-43090000D01*
X222050001Y-49433999D02*
X222050001Y-51259999D01*
X222050001Y-51259999D02*
X221420000Y-51890000D01*
X190060000Y-43090000D02*
X190660000Y-43690000D01*
X190660000Y-43690000D02*
X191660000Y-43690000D01*
X191660000Y-43690000D02*
X192050000Y-44080000D01*
X192050000Y-44080000D02*
X192050000Y-46890000D01*
X192050000Y-46890000D02*
X192600000Y-47440000D01*
X221686001Y-49069999D02*
X222050001Y-49433999D01*
X192600000Y-47440000D02*
X219585698Y-47440000D01*
X219585698Y-47440000D02*
X221215697Y-49069999D01*
X188100000Y-42500000D02*
X188690000Y-43090000D01*
X221215697Y-49069999D02*
X221686001Y-49069999D01*
D25*
%TO.N,3V3*%
X241935000Y-36040000D02*
X241975000Y-36000000D01*
X240570000Y-36040000D02*
X241935000Y-36040000D01*
X240250000Y-36360000D02*
X240570000Y-36040000D01*
X220025000Y-33000000D02*
X220025000Y-30000000D01*
X224310000Y-33000000D02*
X224350000Y-32960000D01*
X220025000Y-33000000D02*
X224310000Y-33000000D01*
D23*
X173087500Y-39000000D02*
X173087500Y-41000000D01*
X173087500Y-37727500D02*
X173080000Y-37720000D01*
X173087500Y-39000000D02*
X173087500Y-37727500D01*
%TO.N,VGABLUE*%
X219193986Y-49770000D02*
X221350000Y-49770000D01*
X218098976Y-48674990D02*
X219193986Y-49770000D01*
X183600001Y-43773473D02*
X183149990Y-44223484D01*
X183534990Y-48674990D02*
X218098976Y-48674990D01*
X183600001Y-42500000D02*
X183600001Y-43773473D01*
X183149990Y-44223484D02*
X183149990Y-48289990D01*
X183149990Y-48289990D02*
X183534990Y-48674990D01*
D24*
%TO.N,VGAVSYNC*%
X224030000Y-46030000D02*
X237080000Y-46030000D01*
X221000000Y-43000000D02*
X224030000Y-46030000D01*
%TO.N,VGAHSYNC*%
X221514999Y-48514999D02*
X235864999Y-48514999D01*
X219000000Y-46000000D02*
X221514999Y-48514999D01*
X237150000Y-49800000D02*
X237150000Y-51150000D01*
X235864999Y-48514999D02*
X237150000Y-49800000D01*
D23*
%TO.N,Net-(R1-Pad1)*%
X180798584Y-40782899D02*
X180625685Y-40610000D01*
X181882900Y-40782899D02*
X180798584Y-40782899D01*
X180625685Y-40610000D02*
X178820000Y-40610000D01*
X212799965Y-46000000D02*
X210484418Y-43684453D01*
X217000000Y-46000000D02*
X212799965Y-46000000D01*
%TO.N,Net-(R2-Pad1)*%
X213080000Y-44920000D02*
X215110000Y-44920000D01*
X217030000Y-43000000D02*
X219000000Y-43000000D01*
X215110000Y-44920000D02*
X217030000Y-43000000D01*
X180435968Y-41282901D02*
X180369452Y-41349417D01*
X181882900Y-41282901D02*
X180435968Y-41282901D01*
D24*
%TO.N,Net-(R10-Pad2)*%
X189917099Y-37282901D02*
X188817100Y-37282901D01*
X190600000Y-36600000D02*
X189917099Y-37282901D01*
%TO.N,Net-(R13-Pad2)*%
X190057890Y-37782900D02*
X188817100Y-37782900D01*
X190274990Y-38000000D02*
X190057890Y-37782900D01*
D23*
%TO.N,Net-(R14-Pad1)*%
X189605800Y-34060000D02*
X190070000Y-34060000D01*
X188100000Y-35565800D02*
X189605800Y-34060000D01*
X190760000Y-34060000D02*
X190800000Y-34100000D01*
X190070000Y-34060000D02*
X190760000Y-34060000D01*
X197000000Y-35759990D02*
X197300000Y-36059990D01*
X197000000Y-35000000D02*
X197000000Y-35759990D01*
%TO.N,Net-(R15-Pad2)*%
X179208792Y-38984740D02*
X176927760Y-38984740D01*
X179910633Y-38282899D02*
X179208792Y-38984740D01*
X181882900Y-38282899D02*
X179910633Y-38282899D01*
X176927760Y-38984740D02*
X174912500Y-41000000D01*
%TO.N,Net-(R16-Pad2)*%
X179844934Y-37782900D02*
X179043105Y-38584729D01*
X179043105Y-38584729D02*
X175327771Y-38584729D01*
X181882900Y-37782900D02*
X179844934Y-37782900D01*
X175327771Y-38584729D02*
X174912500Y-39000000D01*
D24*
%TO.N,Net-(LD1-Pad1)*%
X244025000Y-38887500D02*
X243912500Y-39000000D01*
X244025000Y-36000000D02*
X244025000Y-38887500D01*
%TD*%
D26*
%TO.N,GND*%
X245259659Y-22688625D02*
X245509429Y-22764035D01*
X245739792Y-22886522D01*
X245941980Y-23051422D01*
X246108286Y-23252450D01*
X246232378Y-23481954D01*
X246309531Y-23731195D01*
X246340001Y-24021098D01*
X246340000Y-54967721D01*
X246311375Y-55259660D01*
X246235965Y-55509429D01*
X246113477Y-55739794D01*
X245948579Y-55941979D01*
X245747546Y-56108288D01*
X245518046Y-56232378D01*
X245268805Y-56309531D01*
X244978911Y-56340000D01*
X218032279Y-56340000D01*
X217740340Y-56311375D01*
X217490571Y-56235965D01*
X217260206Y-56113477D01*
X217058021Y-55948579D01*
X216891712Y-55747546D01*
X216767622Y-55518046D01*
X216690469Y-55268805D01*
X216660000Y-54978911D01*
X216660000Y-50967581D01*
X216657148Y-50938627D01*
X216657235Y-50926219D01*
X216656335Y-50917047D01*
X216615534Y-50528855D01*
X216603514Y-50470299D01*
X216592298Y-50411498D01*
X216589634Y-50402677D01*
X216474210Y-50029802D01*
X216451025Y-49974647D01*
X216428621Y-49919194D01*
X216424294Y-49911058D01*
X216424294Y-49911057D01*
X216424291Y-49911053D01*
X216238643Y-49567702D01*
X216205187Y-49518101D01*
X216172437Y-49468054D01*
X216166613Y-49460913D01*
X216124486Y-49409990D01*
X217794530Y-49409990D01*
X218648732Y-50264193D01*
X218671748Y-50292238D01*
X218783666Y-50384087D01*
X218911353Y-50452337D01*
X219007872Y-50481616D01*
X219049900Y-50494365D01*
X219193986Y-50508556D01*
X219230091Y-50505000D01*
X219328485Y-50505000D01*
X219314774Y-50538102D01*
X219275000Y-50738061D01*
X219275000Y-50855000D01*
X219228061Y-50855000D01*
X219028102Y-50894774D01*
X218839744Y-50972795D01*
X218670226Y-51086063D01*
X218526063Y-51230226D01*
X218412795Y-51399744D01*
X218334774Y-51588102D01*
X218295000Y-51788061D01*
X218295000Y-51991939D01*
X218334774Y-52191898D01*
X218412795Y-52380256D01*
X218526063Y-52549774D01*
X218670226Y-52693937D01*
X218839744Y-52807205D01*
X219028102Y-52885226D01*
X219228061Y-52925000D01*
X219431939Y-52925000D01*
X219631898Y-52885226D01*
X219820256Y-52807205D01*
X219989774Y-52693937D01*
X220058711Y-52625000D01*
X221383895Y-52625000D01*
X221420000Y-52628556D01*
X221456105Y-52625000D01*
X221564085Y-52614365D01*
X221702633Y-52572337D01*
X221830320Y-52504087D01*
X221942238Y-52412238D01*
X221965258Y-52384188D01*
X222544194Y-51805253D01*
X222572239Y-51782237D01*
X222664088Y-51670319D01*
X222732338Y-51542632D01*
X222774366Y-51404084D01*
X222785001Y-51296104D01*
X222788557Y-51259999D01*
X222785001Y-51223894D01*
X222785001Y-49470104D01*
X222788557Y-49433999D01*
X222774366Y-49289914D01*
X222769842Y-49274999D01*
X225535000Y-49274999D01*
X225535000Y-49341939D01*
X225574774Y-49541898D01*
X225652795Y-49730256D01*
X225766063Y-49899774D01*
X225910226Y-50043937D01*
X226079744Y-50157205D01*
X226268102Y-50235226D01*
X226468061Y-50275000D01*
X226671939Y-50275000D01*
X226871898Y-50235226D01*
X227060256Y-50157205D01*
X227229774Y-50043937D01*
X227373937Y-49899774D01*
X227487205Y-49730256D01*
X227565226Y-49541898D01*
X227605000Y-49341939D01*
X227605000Y-49274999D01*
X235550198Y-49274999D01*
X236390000Y-50114802D01*
X236390000Y-50446289D01*
X236346063Y-50490226D01*
X236232795Y-50659744D01*
X236154774Y-50848102D01*
X236115000Y-51048061D01*
X236115000Y-51251939D01*
X236154774Y-51451898D01*
X236232795Y-51640256D01*
X236346063Y-51809774D01*
X236490226Y-51953937D01*
X236659744Y-52067205D01*
X236848102Y-52145226D01*
X237048061Y-52185000D01*
X237251939Y-52185000D01*
X237451898Y-52145226D01*
X237640256Y-52067205D01*
X237809774Y-51953937D01*
X237953937Y-51809774D01*
X238067205Y-51640256D01*
X238145226Y-51451898D01*
X238185000Y-51251939D01*
X238185000Y-51048061D01*
X238145226Y-50848102D01*
X238067205Y-50659744D01*
X237953937Y-50490226D01*
X237910000Y-50446289D01*
X237910000Y-49837323D01*
X237913676Y-49800000D01*
X237910000Y-49762677D01*
X237910000Y-49762667D01*
X237899003Y-49651014D01*
X237855546Y-49507753D01*
X237784974Y-49375724D01*
X237690001Y-49259999D01*
X237661004Y-49236202D01*
X236428803Y-48004002D01*
X236405000Y-47974998D01*
X236289275Y-47880025D01*
X236157246Y-47809453D01*
X236013985Y-47765996D01*
X235902332Y-47754999D01*
X235902321Y-47754999D01*
X235864999Y-47751323D01*
X235827677Y-47754999D01*
X221829801Y-47754999D01*
X220238072Y-46163271D01*
X220238072Y-45549999D01*
X220221008Y-45376745D01*
X220170472Y-45210149D01*
X220088405Y-45056613D01*
X219977962Y-44922038D01*
X219843387Y-44811595D01*
X219689851Y-44729528D01*
X219523255Y-44678992D01*
X219350001Y-44661928D01*
X218649999Y-44661928D01*
X218476745Y-44678992D01*
X218310149Y-44729528D01*
X218156613Y-44811595D01*
X218022038Y-44922038D01*
X218000000Y-44948891D01*
X217977962Y-44922038D01*
X217843387Y-44811595D01*
X217689851Y-44729528D01*
X217523255Y-44678992D01*
X217350001Y-44661928D01*
X216649999Y-44661928D01*
X216476745Y-44678992D01*
X216352881Y-44716566D01*
X217334447Y-43735000D01*
X217812889Y-43735000D01*
X217829528Y-43789851D01*
X217911595Y-43943387D01*
X218022038Y-44077962D01*
X218156613Y-44188405D01*
X218310149Y-44270472D01*
X218476745Y-44321008D01*
X218649999Y-44338072D01*
X219350001Y-44338072D01*
X219523255Y-44321008D01*
X219689851Y-44270472D01*
X219843387Y-44188405D01*
X219977962Y-44077962D01*
X220000000Y-44051109D01*
X220022038Y-44077962D01*
X220156613Y-44188405D01*
X220310149Y-44270472D01*
X220476745Y-44321008D01*
X220649999Y-44338072D01*
X221263271Y-44338072D01*
X223466201Y-46541003D01*
X223489999Y-46570001D01*
X223518997Y-46593799D01*
X223605723Y-46664974D01*
X223716833Y-46724364D01*
X223737753Y-46735546D01*
X223881014Y-46779003D01*
X223992667Y-46790000D01*
X223992676Y-46790000D01*
X224029999Y-46793676D01*
X224067322Y-46790000D01*
X236376289Y-46790000D01*
X236420226Y-46833937D01*
X236589744Y-46947205D01*
X236778102Y-47025226D01*
X236978061Y-47065000D01*
X237181939Y-47065000D01*
X237381898Y-47025226D01*
X237570256Y-46947205D01*
X237739774Y-46833937D01*
X237883937Y-46689774D01*
X237997205Y-46520256D01*
X238075226Y-46331898D01*
X238115000Y-46131939D01*
X238115000Y-45928061D01*
X238075226Y-45728102D01*
X237997205Y-45539744D01*
X237883937Y-45370226D01*
X237739774Y-45226063D01*
X237570256Y-45112795D01*
X237381898Y-45034774D01*
X237181939Y-44995000D01*
X236978061Y-44995000D01*
X236778102Y-45034774D01*
X236589744Y-45112795D01*
X236420226Y-45226063D01*
X236376289Y-45270000D01*
X224344802Y-45270000D01*
X222238072Y-43163271D01*
X222238072Y-43150000D01*
X232311928Y-43150000D01*
X232324188Y-43274482D01*
X232360498Y-43394180D01*
X232419463Y-43504494D01*
X232498815Y-43601185D01*
X232595506Y-43680537D01*
X232705820Y-43739502D01*
X232825518Y-43775812D01*
X232950000Y-43788072D01*
X233414250Y-43785000D01*
X233573000Y-43626250D01*
X233573000Y-42277000D01*
X232473750Y-42277000D01*
X232315000Y-42435750D01*
X232311928Y-43150000D01*
X222238072Y-43150000D01*
X222238072Y-42549999D01*
X222221008Y-42376745D01*
X222170472Y-42210149D01*
X222088405Y-42056613D01*
X221977962Y-41922038D01*
X221843387Y-41811595D01*
X221689851Y-41729528D01*
X221523255Y-41678992D01*
X221350001Y-41661928D01*
X220649999Y-41661928D01*
X220476745Y-41678992D01*
X220310149Y-41729528D01*
X220156613Y-41811595D01*
X220022038Y-41922038D01*
X220000000Y-41948891D01*
X219977962Y-41922038D01*
X219843387Y-41811595D01*
X219689851Y-41729528D01*
X219523255Y-41678992D01*
X219350001Y-41661928D01*
X218649999Y-41661928D01*
X218476745Y-41678992D01*
X218310149Y-41729528D01*
X218156613Y-41811595D01*
X218022038Y-41922038D01*
X217911595Y-42056613D01*
X217829528Y-42210149D01*
X217812889Y-42265000D01*
X217066104Y-42265000D01*
X217029999Y-42261444D01*
X216885914Y-42275635D01*
X216858992Y-42283802D01*
X216747367Y-42317663D01*
X216619680Y-42385913D01*
X216507762Y-42477762D01*
X216484746Y-42505807D01*
X216325124Y-42665429D01*
X216277205Y-42549744D01*
X216163937Y-42380226D01*
X216019774Y-42236063D01*
X215850256Y-42122795D01*
X215661898Y-42044774D01*
X215461939Y-42005000D01*
X215258061Y-42005000D01*
X215147166Y-42027058D01*
X215040462Y-41897038D01*
X215036792Y-41894026D01*
X215075000Y-41701939D01*
X215075000Y-41625000D01*
X225636928Y-41625000D01*
X225649188Y-41749482D01*
X225685498Y-41869180D01*
X225744463Y-41979494D01*
X225823815Y-42076185D01*
X225920506Y-42155537D01*
X226030820Y-42214502D01*
X226150518Y-42250812D01*
X226275000Y-42263072D01*
X226714250Y-42260000D01*
X226873000Y-42101250D01*
X226873000Y-41164500D01*
X225798750Y-41164500D01*
X225640000Y-41323250D01*
X225636928Y-41625000D01*
X215075000Y-41625000D01*
X215075000Y-41498061D01*
X215035226Y-41298102D01*
X214966717Y-41132707D01*
X215002962Y-41102962D01*
X215113405Y-40968386D01*
X215195472Y-40814850D01*
X215246008Y-40648254D01*
X215263072Y-40475000D01*
X215263072Y-39585000D01*
X216775224Y-39585000D01*
X216778992Y-39623255D01*
X216829528Y-39789851D01*
X216911595Y-39943387D01*
X217022038Y-40077962D01*
X217156613Y-40188405D01*
X217310149Y-40270472D01*
X217476745Y-40321008D01*
X217649999Y-40338072D01*
X218300001Y-40338072D01*
X218473255Y-40321008D01*
X218639851Y-40270472D01*
X218793387Y-40188405D01*
X218927962Y-40077962D01*
X219000000Y-39990184D01*
X219072038Y-40077962D01*
X219206613Y-40188405D01*
X219360149Y-40270472D01*
X219526745Y-40321008D01*
X219699999Y-40338072D01*
X220350001Y-40338072D01*
X220523255Y-40321008D01*
X220689851Y-40270472D01*
X220843387Y-40188405D01*
X220954155Y-40097500D01*
X225743397Y-40097500D01*
X225685498Y-40205820D01*
X225649188Y-40325518D01*
X225636928Y-40450000D01*
X225640000Y-40751750D01*
X225798750Y-40910500D01*
X226873000Y-40910500D01*
X226873000Y-40890500D01*
X227127000Y-40890500D01*
X227127000Y-40910500D01*
X227147000Y-40910500D01*
X227147000Y-41164500D01*
X227127000Y-41164500D01*
X227127000Y-42101250D01*
X227285750Y-42260000D01*
X227725000Y-42263072D01*
X227849482Y-42250812D01*
X227969180Y-42214502D01*
X228079494Y-42155537D01*
X228176185Y-42076185D01*
X228189009Y-42060559D01*
X228186928Y-42375000D01*
X228199188Y-42499482D01*
X228235498Y-42619180D01*
X228294463Y-42729494D01*
X228373815Y-42826185D01*
X228470506Y-42905537D01*
X228580820Y-42964502D01*
X228700518Y-43000812D01*
X228825000Y-43013072D01*
X229714250Y-43010000D01*
X229873000Y-42851250D01*
X229873000Y-41752000D01*
X230127000Y-41752000D01*
X230127000Y-42851250D01*
X230285750Y-43010000D01*
X231175000Y-43013072D01*
X231299482Y-43000812D01*
X231419180Y-42964502D01*
X231529494Y-42905537D01*
X231626185Y-42826185D01*
X231705537Y-42729494D01*
X231764502Y-42619180D01*
X231800812Y-42499482D01*
X231813072Y-42375000D01*
X231810000Y-41910750D01*
X231651250Y-41752000D01*
X230127000Y-41752000D01*
X229873000Y-41752000D01*
X229853000Y-41752000D01*
X229853000Y-41498000D01*
X229873000Y-41498000D01*
X229873000Y-40398750D01*
X230127000Y-40398750D01*
X230127000Y-41498000D01*
X231651250Y-41498000D01*
X231810000Y-41339250D01*
X231811252Y-41150000D01*
X232311928Y-41150000D01*
X232315000Y-41864250D01*
X232473750Y-42023000D01*
X233573000Y-42023000D01*
X233573000Y-40673750D01*
X233414250Y-40515000D01*
X232950000Y-40511928D01*
X232825518Y-40524188D01*
X232705820Y-40560498D01*
X232595506Y-40619463D01*
X232498815Y-40698815D01*
X232419463Y-40795506D01*
X232360498Y-40905820D01*
X232324188Y-41025518D01*
X232311928Y-41150000D01*
X231811252Y-41150000D01*
X231813072Y-40875000D01*
X231800812Y-40750518D01*
X231764502Y-40630820D01*
X231705537Y-40520506D01*
X231626185Y-40423815D01*
X231529494Y-40344463D01*
X231419180Y-40285498D01*
X231299482Y-40249188D01*
X231175000Y-40236928D01*
X230285750Y-40240000D01*
X230127000Y-40398750D01*
X229873000Y-40398750D01*
X229714250Y-40240000D01*
X228825000Y-40236928D01*
X228700518Y-40249188D01*
X228580820Y-40285498D01*
X228470506Y-40344463D01*
X228373815Y-40423815D01*
X228361921Y-40438309D01*
X228350812Y-40325518D01*
X228314502Y-40205820D01*
X228255537Y-40095506D01*
X228176185Y-39998815D01*
X228096406Y-39933342D01*
X228102962Y-39927962D01*
X228213405Y-39793386D01*
X228295472Y-39639850D01*
X228346008Y-39473254D01*
X228354221Y-39389864D01*
X228447038Y-39502962D01*
X228581614Y-39613405D01*
X228735150Y-39695472D01*
X228901746Y-39746008D01*
X229075000Y-39763072D01*
X230925000Y-39763072D01*
X231098254Y-39746008D01*
X231264850Y-39695472D01*
X231418386Y-39613405D01*
X231550479Y-39505000D01*
X234865000Y-39505000D01*
X234865000Y-40644498D01*
X234850000Y-40656809D01*
X234804494Y-40619463D01*
X234694180Y-40560498D01*
X234574482Y-40524188D01*
X234450000Y-40511928D01*
X233985750Y-40515000D01*
X233827000Y-40673750D01*
X233827000Y-42023000D01*
X233847000Y-42023000D01*
X233847000Y-42277000D01*
X233827000Y-42277000D01*
X233827000Y-43626250D01*
X233985750Y-43785000D01*
X234450000Y-43788072D01*
X234574482Y-43775812D01*
X234694180Y-43739502D01*
X234804494Y-43680537D01*
X234850000Y-43643191D01*
X234895506Y-43680537D01*
X235005820Y-43739502D01*
X235125518Y-43775812D01*
X235250000Y-43788072D01*
X236750000Y-43788072D01*
X236874482Y-43775812D01*
X236994180Y-43739502D01*
X237104494Y-43680537D01*
X237150000Y-43643191D01*
X237195506Y-43680537D01*
X237305820Y-43739502D01*
X237425518Y-43775812D01*
X237550000Y-43788072D01*
X239050000Y-43788072D01*
X239174482Y-43775812D01*
X239263635Y-43748768D01*
X239315513Y-43800645D01*
X239351051Y-43843949D01*
X239394354Y-43879487D01*
X239394356Y-43879489D01*
X239523877Y-43985784D01*
X239721053Y-44091176D01*
X239935001Y-44156077D01*
X240157500Y-44177991D01*
X240213252Y-44172500D01*
X241142173Y-44172500D01*
X241185150Y-44195472D01*
X241351746Y-44246008D01*
X241372967Y-44248098D01*
X241765000Y-44640132D01*
X241765001Y-50949868D01*
X241758012Y-50956857D01*
X241651717Y-51086378D01*
X241546324Y-51283554D01*
X241481423Y-51497502D01*
X241459509Y-51720000D01*
X241481423Y-51942498D01*
X241546324Y-52156446D01*
X241651717Y-52353622D01*
X241793552Y-52526448D01*
X241966378Y-52668283D01*
X242163554Y-52773676D01*
X242377502Y-52838577D01*
X242600000Y-52860491D01*
X242822498Y-52838577D01*
X243036446Y-52773676D01*
X243233622Y-52668283D01*
X243363143Y-52561988D01*
X243663135Y-52261996D01*
X243706449Y-52226449D01*
X243848284Y-52053623D01*
X243953676Y-51856447D01*
X244018577Y-51642499D01*
X244035000Y-51475752D01*
X244040491Y-51420001D01*
X244035000Y-51364249D01*
X244035000Y-44225743D01*
X244040490Y-44169999D01*
X244035000Y-44114255D01*
X244035000Y-44114248D01*
X244018577Y-43947501D01*
X244015063Y-43935915D01*
X243998780Y-43882239D01*
X243953676Y-43733553D01*
X243848284Y-43536377D01*
X243706449Y-43363551D01*
X243663140Y-43328008D01*
X243363072Y-43027940D01*
X243363072Y-42700000D01*
X243346008Y-42526746D01*
X243295472Y-42360150D01*
X243213405Y-42206614D01*
X243102962Y-42072038D01*
X243096406Y-42066658D01*
X243176185Y-42001185D01*
X243255537Y-41904494D01*
X243314502Y-41794180D01*
X243350812Y-41674482D01*
X243363072Y-41550000D01*
X243360000Y-41248250D01*
X243201250Y-41089500D01*
X242127000Y-41089500D01*
X242127000Y-41109500D01*
X241873000Y-41109500D01*
X241873000Y-41089500D01*
X240798750Y-41089500D01*
X240640000Y-41248250D01*
X240636928Y-41550000D01*
X240649188Y-41674482D01*
X240685498Y-41794180D01*
X240743397Y-41902500D01*
X240627632Y-41902500D01*
X240111995Y-41386864D01*
X240076449Y-41343551D01*
X239903623Y-41201716D01*
X239706447Y-41096324D01*
X239682057Y-41088925D01*
X239675812Y-41025518D01*
X239639502Y-40905820D01*
X239580537Y-40795506D01*
X239501185Y-40698815D01*
X239435000Y-40644499D01*
X239435000Y-40375000D01*
X240636928Y-40375000D01*
X240640000Y-40676750D01*
X240798750Y-40835500D01*
X241873000Y-40835500D01*
X241873000Y-40038750D01*
X241960500Y-39951250D01*
X241960500Y-39127000D01*
X241123750Y-39127000D01*
X240965000Y-39285750D01*
X240961928Y-39475000D01*
X240974188Y-39599482D01*
X241010498Y-39719180D01*
X241043836Y-39781550D01*
X241030820Y-39785498D01*
X240920506Y-39844463D01*
X240823815Y-39923815D01*
X240744463Y-40020506D01*
X240685498Y-40130820D01*
X240649188Y-40250518D01*
X240636928Y-40375000D01*
X239435000Y-40375000D01*
X239435000Y-40144248D01*
X239418577Y-39977501D01*
X239353676Y-39763553D01*
X239248284Y-39566377D01*
X239106449Y-39393551D01*
X238933623Y-39251716D01*
X238736446Y-39146324D01*
X238522498Y-39081423D01*
X238300000Y-39059509D01*
X238077501Y-39081423D01*
X237863553Y-39146324D01*
X237666377Y-39251716D01*
X237493551Y-39393551D01*
X237351716Y-39566377D01*
X237246324Y-39763554D01*
X237181423Y-39977502D01*
X237165000Y-40144249D01*
X237165000Y-40644498D01*
X237150000Y-40656809D01*
X237135000Y-40644499D01*
X237135000Y-38525000D01*
X240961928Y-38525000D01*
X240965000Y-38714250D01*
X241123750Y-38873000D01*
X241960500Y-38873000D01*
X241960500Y-38048750D01*
X241801750Y-37890000D01*
X241600000Y-37886928D01*
X241475518Y-37899188D01*
X241355820Y-37935498D01*
X241245506Y-37994463D01*
X241148815Y-38073815D01*
X241069463Y-38170506D01*
X241010498Y-38280820D01*
X240974188Y-38400518D01*
X240961928Y-38525000D01*
X237135000Y-38525000D01*
X237135000Y-38425752D01*
X237140491Y-38370000D01*
X237135000Y-38314248D01*
X237135000Y-37488072D01*
X237900000Y-37488072D01*
X238024482Y-37475812D01*
X238144180Y-37439502D01*
X238254494Y-37380537D01*
X238351185Y-37301185D01*
X238430537Y-37204494D01*
X238489502Y-37094180D01*
X238525812Y-36974482D01*
X238538072Y-36850000D01*
X238538072Y-36360000D01*
X239109509Y-36360000D01*
X239131423Y-36582498D01*
X239196324Y-36796446D01*
X239301717Y-36993622D01*
X239443552Y-37166448D01*
X239616378Y-37308283D01*
X239813554Y-37413676D01*
X240027502Y-37478577D01*
X240250000Y-37500491D01*
X240472498Y-37478577D01*
X240686446Y-37413676D01*
X240883622Y-37308283D01*
X241013143Y-37201988D01*
X241040131Y-37175000D01*
X241140279Y-37175000D01*
X241156613Y-37188405D01*
X241310149Y-37270472D01*
X241476745Y-37321008D01*
X241649999Y-37338072D01*
X242300001Y-37338072D01*
X242473255Y-37321008D01*
X242639851Y-37270472D01*
X242793387Y-37188405D01*
X242927962Y-37077962D01*
X243000000Y-36990184D01*
X243072038Y-37077962D01*
X243206613Y-37188405D01*
X243265000Y-37219614D01*
X243265001Y-37986948D01*
X243176058Y-38034488D01*
X243067217Y-38123812D01*
X243026185Y-38073815D01*
X242929494Y-37994463D01*
X242819180Y-37935498D01*
X242699482Y-37899188D01*
X242575000Y-37886928D01*
X242373250Y-37890000D01*
X242214500Y-38048750D01*
X242214500Y-38873000D01*
X242234500Y-38873000D01*
X242234500Y-39127000D01*
X242214500Y-39127000D01*
X242214500Y-39811250D01*
X242127000Y-39898750D01*
X242127000Y-40835500D01*
X243201250Y-40835500D01*
X243360000Y-40676750D01*
X243363072Y-40375000D01*
X243350812Y-40250518D01*
X243314502Y-40130820D01*
X243255537Y-40020506D01*
X243237245Y-39998217D01*
X243327433Y-40046423D01*
X243491684Y-40096248D01*
X243662500Y-40113072D01*
X244162500Y-40113072D01*
X244333316Y-40096248D01*
X244497567Y-40046423D01*
X244648942Y-39965512D01*
X244781623Y-39856623D01*
X244890512Y-39723942D01*
X244971423Y-39572567D01*
X245021248Y-39408316D01*
X245038072Y-39237500D01*
X245038072Y-38762500D01*
X245021248Y-38591684D01*
X244971423Y-38427433D01*
X244890512Y-38276058D01*
X244785000Y-38147492D01*
X244785000Y-37219614D01*
X244843387Y-37188405D01*
X244977962Y-37077962D01*
X245088405Y-36943387D01*
X245170472Y-36789851D01*
X245221008Y-36623255D01*
X245238072Y-36450001D01*
X245238072Y-35549999D01*
X245221008Y-35376745D01*
X245170472Y-35210149D01*
X245088405Y-35056613D01*
X244977962Y-34922038D01*
X244843387Y-34811595D01*
X244689851Y-34729528D01*
X244523255Y-34678992D01*
X244350001Y-34661928D01*
X243699999Y-34661928D01*
X243526745Y-34678992D01*
X243360149Y-34729528D01*
X243206613Y-34811595D01*
X243072038Y-34922038D01*
X243000000Y-35009816D01*
X242927962Y-34922038D01*
X242793387Y-34811595D01*
X242639851Y-34729528D01*
X242473255Y-34678992D01*
X242300001Y-34661928D01*
X241649999Y-34661928D01*
X241476745Y-34678992D01*
X241310149Y-34729528D01*
X241156613Y-34811595D01*
X241042799Y-34905000D01*
X240625741Y-34905000D01*
X240569999Y-34899510D01*
X240514257Y-34905000D01*
X240514248Y-34905000D01*
X240347501Y-34921423D01*
X240133553Y-34986324D01*
X239936377Y-35091716D01*
X239763551Y-35233551D01*
X239728004Y-35276865D01*
X239408012Y-35596857D01*
X239301717Y-35726378D01*
X239196324Y-35923554D01*
X239131423Y-36137502D01*
X239109509Y-36360000D01*
X238538072Y-36360000D01*
X238538072Y-34850000D01*
X238525812Y-34725518D01*
X238489502Y-34605820D01*
X238430537Y-34495506D01*
X238351185Y-34398815D01*
X238254494Y-34319463D01*
X238144180Y-34260498D01*
X238024482Y-34224188D01*
X237900000Y-34211928D01*
X234100000Y-34211928D01*
X233975518Y-34224188D01*
X233855820Y-34260498D01*
X233745506Y-34319463D01*
X233648815Y-34398815D01*
X233569463Y-34495506D01*
X233510498Y-34605820D01*
X233474188Y-34725518D01*
X233461928Y-34850000D01*
X233461928Y-36850000D01*
X233474188Y-36974482D01*
X233510498Y-37094180D01*
X233569463Y-37204494D01*
X233594499Y-37235000D01*
X231538294Y-37235000D01*
X231418386Y-37136595D01*
X231264850Y-37054528D01*
X231098254Y-37003992D01*
X230925000Y-36986928D01*
X229075000Y-36986928D01*
X228901746Y-37003992D01*
X228735150Y-37054528D01*
X228581614Y-37136595D01*
X228447038Y-37247038D01*
X228336595Y-37381614D01*
X228278661Y-37490000D01*
X227548469Y-37490000D01*
X227505000Y-37485719D01*
X227461531Y-37490000D01*
X227461523Y-37490000D01*
X227331510Y-37502805D01*
X227164687Y-37553411D01*
X227010941Y-37635589D01*
X226887460Y-37736928D01*
X226525000Y-37736928D01*
X226351746Y-37753992D01*
X226185150Y-37804528D01*
X226142173Y-37827500D01*
X221160000Y-37827500D01*
X221160000Y-36809443D01*
X221170472Y-36789851D01*
X221221008Y-36623255D01*
X221238072Y-36450001D01*
X221238072Y-35549999D01*
X221221008Y-35376745D01*
X221170472Y-35210149D01*
X221088405Y-35056613D01*
X220977962Y-34922038D01*
X220843387Y-34811595D01*
X220689851Y-34729528D01*
X220523255Y-34678992D01*
X220350001Y-34661928D01*
X219699999Y-34661928D01*
X219526745Y-34678992D01*
X219360149Y-34729528D01*
X219206613Y-34811595D01*
X219072038Y-34922038D01*
X219000000Y-35009816D01*
X218927962Y-34922038D01*
X218793387Y-34811595D01*
X218639851Y-34729528D01*
X218473255Y-34678992D01*
X218300001Y-34661928D01*
X217649999Y-34661928D01*
X217476745Y-34678992D01*
X217310149Y-34729528D01*
X217156613Y-34811595D01*
X217022038Y-34922038D01*
X216911595Y-35056613D01*
X216880386Y-35115000D01*
X201196579Y-35115000D01*
X199769640Y-33688061D01*
X214955000Y-33688061D01*
X214955000Y-33891939D01*
X214994774Y-34091898D01*
X215072795Y-34280256D01*
X215186063Y-34449774D01*
X215330226Y-34593937D01*
X215499744Y-34707205D01*
X215688102Y-34785226D01*
X215888061Y-34825000D01*
X216091939Y-34825000D01*
X216291898Y-34785226D01*
X216480256Y-34707205D01*
X216649774Y-34593937D01*
X216793937Y-34449774D01*
X216907205Y-34280256D01*
X216985226Y-34091898D01*
X216994639Y-34044576D01*
X217022038Y-34077962D01*
X217156613Y-34188405D01*
X217310149Y-34270472D01*
X217476745Y-34321008D01*
X217649999Y-34338072D01*
X218300001Y-34338072D01*
X218473255Y-34321008D01*
X218639851Y-34270472D01*
X218793387Y-34188405D01*
X218927962Y-34077962D01*
X219000000Y-33990184D01*
X219072038Y-34077962D01*
X219206613Y-34188405D01*
X219360149Y-34270472D01*
X219526745Y-34321008D01*
X219699999Y-34338072D01*
X220350001Y-34338072D01*
X220523255Y-34321008D01*
X220689851Y-34270472D01*
X220843387Y-34188405D01*
X220908461Y-34135000D01*
X224254249Y-34135000D01*
X224310000Y-34140491D01*
X224365751Y-34135000D01*
X224365752Y-34135000D01*
X224532499Y-34118577D01*
X224746447Y-34053676D01*
X224943623Y-33948284D01*
X225116449Y-33806449D01*
X225151993Y-33763139D01*
X225191989Y-33723143D01*
X225298284Y-33593622D01*
X225403676Y-33396446D01*
X225468577Y-33182498D01*
X225490491Y-32960000D01*
X225468577Y-32737501D01*
X225403676Y-32523553D01*
X225298284Y-32326377D01*
X225156449Y-32153551D01*
X224983623Y-32011716D01*
X224786447Y-31906324D01*
X224572499Y-31841423D01*
X224350000Y-31819509D01*
X224127502Y-31841423D01*
X224049780Y-31865000D01*
X221160000Y-31865000D01*
X221160000Y-30809443D01*
X221170472Y-30789851D01*
X221221008Y-30623255D01*
X221238072Y-30450001D01*
X221238072Y-29549999D01*
X221221008Y-29376745D01*
X221170472Y-29210149D01*
X221088405Y-29056613D01*
X220977962Y-28922038D01*
X220843387Y-28811595D01*
X220689851Y-28729528D01*
X220523255Y-28678992D01*
X220350001Y-28661928D01*
X219699999Y-28661928D01*
X219526745Y-28678992D01*
X219360149Y-28729528D01*
X219206613Y-28811595D01*
X219072038Y-28922038D01*
X219000000Y-29009816D01*
X218927962Y-28922038D01*
X218793387Y-28811595D01*
X218639851Y-28729528D01*
X218473255Y-28678992D01*
X218300001Y-28661928D01*
X217649999Y-28661928D01*
X217476745Y-28678992D01*
X217310149Y-28729528D01*
X217156613Y-28811595D01*
X217022038Y-28922038D01*
X216911595Y-29056613D01*
X216880386Y-29115000D01*
X216813469Y-29115000D01*
X216770000Y-29110719D01*
X216726531Y-29115000D01*
X216726523Y-29115000D01*
X216596510Y-29127805D01*
X216429687Y-29178411D01*
X216349660Y-29221186D01*
X216275941Y-29260589D01*
X216174953Y-29343468D01*
X216174951Y-29343470D01*
X216141183Y-29371183D01*
X216113470Y-29404951D01*
X215874956Y-29643465D01*
X215818102Y-29654774D01*
X215629744Y-29732795D01*
X215460226Y-29846063D01*
X215316063Y-29990226D01*
X215202795Y-30159744D01*
X215124774Y-30348102D01*
X215085000Y-30548061D01*
X215085000Y-30751939D01*
X215124774Y-30951898D01*
X215202795Y-31140256D01*
X215316063Y-31309774D01*
X215460226Y-31453937D01*
X215629744Y-31567205D01*
X215818102Y-31645226D01*
X216018061Y-31685000D01*
X216221939Y-31685000D01*
X216421898Y-31645226D01*
X216610256Y-31567205D01*
X216779774Y-31453937D01*
X216923937Y-31309774D01*
X217037205Y-31140256D01*
X217052614Y-31103055D01*
X217156613Y-31188405D01*
X217310149Y-31270472D01*
X217476745Y-31321008D01*
X217649999Y-31338072D01*
X218300001Y-31338072D01*
X218473255Y-31321008D01*
X218639851Y-31270472D01*
X218793387Y-31188405D01*
X218890001Y-31109116D01*
X218890000Y-31890884D01*
X218793387Y-31811595D01*
X218639851Y-31729528D01*
X218473255Y-31678992D01*
X218300001Y-31661928D01*
X217649999Y-31661928D01*
X217476745Y-31678992D01*
X217310149Y-31729528D01*
X217156613Y-31811595D01*
X217022038Y-31922038D01*
X216911595Y-32056613D01*
X216880386Y-32115000D01*
X216823469Y-32115000D01*
X216780000Y-32110719D01*
X216736531Y-32115000D01*
X216736523Y-32115000D01*
X216606510Y-32127805D01*
X216439687Y-32178411D01*
X216380309Y-32210149D01*
X216285941Y-32260589D01*
X216184953Y-32343468D01*
X216184951Y-32343470D01*
X216151183Y-32371183D01*
X216123470Y-32404951D01*
X215744956Y-32783465D01*
X215688102Y-32794774D01*
X215499744Y-32872795D01*
X215330226Y-32986063D01*
X215186063Y-33130226D01*
X215072795Y-33299744D01*
X214994774Y-33488102D01*
X214955000Y-33688061D01*
X199769640Y-33688061D01*
X199726535Y-33644957D01*
X199715226Y-33588102D01*
X199637205Y-33399744D01*
X199523937Y-33230226D01*
X199379774Y-33086063D01*
X199210256Y-32972795D01*
X199021898Y-32894774D01*
X198821939Y-32855000D01*
X198618061Y-32855000D01*
X198418102Y-32894774D01*
X198335000Y-32929196D01*
X198335000Y-32872998D01*
X198176252Y-32872998D01*
X198335000Y-32714250D01*
X198338072Y-32400000D01*
X198325812Y-32275518D01*
X198289502Y-32155820D01*
X198230537Y-32045506D01*
X198151185Y-31948815D01*
X198054494Y-31869463D01*
X197944180Y-31810498D01*
X197824482Y-31774188D01*
X197700000Y-31761928D01*
X197285750Y-31765000D01*
X197127000Y-31923750D01*
X197127000Y-32873000D01*
X197147000Y-32873000D01*
X197147000Y-33127000D01*
X197127000Y-33127000D01*
X197127000Y-33147000D01*
X196873000Y-33147000D01*
X196873000Y-33127000D01*
X195823750Y-33127000D01*
X195665000Y-33285750D01*
X195661928Y-33600000D01*
X195674188Y-33724482D01*
X195710498Y-33844180D01*
X195769463Y-33954494D01*
X195848815Y-34051185D01*
X195878276Y-34075363D01*
X195811595Y-34156613D01*
X195729528Y-34310149D01*
X195678992Y-34476745D01*
X195661928Y-34649999D01*
X195661928Y-35350001D01*
X195662986Y-35360741D01*
X195609744Y-35382795D01*
X195440226Y-35496063D01*
X195361033Y-35575256D01*
X195363072Y-35375000D01*
X195350812Y-35250518D01*
X195314502Y-35130820D01*
X195255537Y-35020506D01*
X195176185Y-34923815D01*
X195079494Y-34844463D01*
X194969180Y-34785498D01*
X194849482Y-34749188D01*
X194725000Y-34736928D01*
X194285750Y-34740000D01*
X194127000Y-34898750D01*
X194127000Y-35835500D01*
X194147000Y-35835500D01*
X194147000Y-36089500D01*
X194127000Y-36089500D01*
X194127000Y-36109500D01*
X193873000Y-36109500D01*
X193873000Y-36089500D01*
X192127000Y-36089500D01*
X192127000Y-36109500D01*
X191873000Y-36109500D01*
X191873000Y-36089500D01*
X191853000Y-36089500D01*
X191853000Y-35835500D01*
X191873000Y-35835500D01*
X191873000Y-34898750D01*
X191714250Y-34740000D01*
X191617601Y-34739324D01*
X191717205Y-34590256D01*
X191795226Y-34401898D01*
X191835000Y-34201939D01*
X191835000Y-33998061D01*
X191795226Y-33798102D01*
X191770361Y-33738072D01*
X191770438Y-33738072D01*
X191830438Y-33798073D01*
X191830438Y-33895565D01*
X191870212Y-34095524D01*
X191948233Y-34283882D01*
X192061501Y-34453400D01*
X192205664Y-34597563D01*
X192375182Y-34710831D01*
X192442948Y-34738901D01*
X192285750Y-34740000D01*
X192127000Y-34898750D01*
X192127000Y-35835500D01*
X193873000Y-35835500D01*
X193873000Y-34898750D01*
X193714250Y-34740000D01*
X193292397Y-34737050D01*
X193355694Y-34710831D01*
X193525212Y-34597563D01*
X193669375Y-34453400D01*
X193782643Y-34283882D01*
X193860664Y-34095524D01*
X193900438Y-33895565D01*
X193900438Y-33691687D01*
X193860664Y-33491728D01*
X193801367Y-33348572D01*
X193836132Y-33372142D01*
X194087316Y-33478173D01*
X194158815Y-33492318D01*
X194373000Y-33369656D01*
X194373000Y-31427000D01*
X194627000Y-31427000D01*
X194627000Y-33369656D01*
X194841185Y-33492318D01*
X194912684Y-33478173D01*
X195163868Y-33372142D01*
X195389540Y-33219145D01*
X195581028Y-33025061D01*
X195730972Y-32797349D01*
X195735921Y-32785171D01*
X195823750Y-32873000D01*
X196873000Y-32873000D01*
X196873000Y-31923750D01*
X196714250Y-31765000D01*
X196300000Y-31761928D01*
X196175518Y-31774188D01*
X196055820Y-31810498D01*
X195945506Y-31869463D01*
X195885000Y-31919119D01*
X195885000Y-31427000D01*
X194627000Y-31427000D01*
X194373000Y-31427000D01*
X194353000Y-31427000D01*
X194353000Y-31173000D01*
X194373000Y-31173000D01*
X194373000Y-31153000D01*
X194627000Y-31153000D01*
X194627000Y-31173000D01*
X195885000Y-31173000D01*
X195885000Y-30323000D01*
X195833611Y-30055240D01*
X195730972Y-29802651D01*
X195581028Y-29574939D01*
X195389540Y-29380855D01*
X195163868Y-29227858D01*
X194912684Y-29121827D01*
X194911701Y-29121633D01*
X195055231Y-29062180D01*
X195224749Y-28948912D01*
X195368912Y-28804749D01*
X195482180Y-28635231D01*
X195560201Y-28446873D01*
X195599975Y-28246914D01*
X195599975Y-28043036D01*
X195560201Y-27843077D01*
X195556855Y-27835000D01*
X197861928Y-27835000D01*
X197861928Y-28500000D01*
X197874188Y-28624482D01*
X197910498Y-28744180D01*
X197969463Y-28854494D01*
X198048815Y-28951185D01*
X198145506Y-29030537D01*
X198255820Y-29089502D01*
X198375518Y-29125812D01*
X198500000Y-29138072D01*
X199500000Y-29138072D01*
X199624482Y-29125812D01*
X199744180Y-29089502D01*
X199854494Y-29030537D01*
X199951185Y-28951185D01*
X200030537Y-28854494D01*
X200089502Y-28744180D01*
X200125812Y-28624482D01*
X200138072Y-28500000D01*
X200138072Y-27500000D01*
X200125812Y-27375518D01*
X200089502Y-27255820D01*
X200030537Y-27145506D01*
X199951185Y-27048815D01*
X199854494Y-26969463D01*
X199744180Y-26910498D01*
X199624482Y-26874188D01*
X199500000Y-26861928D01*
X199401374Y-26861928D01*
X199145259Y-26605813D01*
X199122238Y-26577762D01*
X199010320Y-26485913D01*
X198882633Y-26417663D01*
X198744085Y-26375635D01*
X198636105Y-26365000D01*
X198600000Y-26361444D01*
X198563895Y-26365000D01*
X195821323Y-26365000D01*
X195833611Y-26334760D01*
X195885000Y-26067000D01*
X195885000Y-25467000D01*
X194627000Y-25467000D01*
X194627000Y-25487000D01*
X194373000Y-25487000D01*
X194373000Y-25467000D01*
X193115000Y-25467000D01*
X193115000Y-26067000D01*
X193166389Y-26334760D01*
X193178677Y-26365000D01*
X189236096Y-26365000D01*
X189199999Y-26361445D01*
X189163902Y-26365000D01*
X189163895Y-26365000D01*
X189070132Y-26374235D01*
X189055914Y-26375635D01*
X189013886Y-26388384D01*
X188917367Y-26417663D01*
X188789680Y-26485913D01*
X188677762Y-26577762D01*
X188654741Y-26605813D01*
X188255808Y-27004746D01*
X188227763Y-27027762D01*
X188135914Y-27139680D01*
X188080108Y-27244086D01*
X188067664Y-27267367D01*
X188025635Y-27405915D01*
X188011444Y-27550000D01*
X188015001Y-27586115D01*
X188015000Y-29870299D01*
X187997892Y-29871984D01*
X187931750Y-29865000D01*
X187899503Y-29897247D01*
X187855820Y-29910498D01*
X187750000Y-29967061D01*
X187644180Y-29910498D01*
X187600497Y-29897247D01*
X187568250Y-29865000D01*
X187502108Y-29871984D01*
X187400000Y-29861928D01*
X187100000Y-29861928D01*
X187000000Y-29871777D01*
X186900000Y-29861928D01*
X186600000Y-29861928D01*
X186497892Y-29871984D01*
X186431750Y-29865000D01*
X186399503Y-29897247D01*
X186355820Y-29910498D01*
X186250000Y-29967061D01*
X186144180Y-29910498D01*
X186100497Y-29897247D01*
X186068250Y-29865000D01*
X186002108Y-29871984D01*
X185900000Y-29861928D01*
X185600000Y-29861928D01*
X185500000Y-29871777D01*
X185400000Y-29861928D01*
X185100000Y-29861928D01*
X184997892Y-29871984D01*
X184931750Y-29865000D01*
X184899503Y-29897247D01*
X184855820Y-29910498D01*
X184750000Y-29967061D01*
X184644180Y-29910498D01*
X184600497Y-29897247D01*
X184568250Y-29865000D01*
X184502108Y-29871984D01*
X184400000Y-29861928D01*
X184100000Y-29861928D01*
X184000000Y-29871777D01*
X183900000Y-29861928D01*
X183600000Y-29861928D01*
X183497892Y-29871984D01*
X183431750Y-29865000D01*
X183399503Y-29897247D01*
X183355820Y-29910498D01*
X183250000Y-29967061D01*
X183144180Y-29910498D01*
X183100497Y-29897247D01*
X183068250Y-29865000D01*
X183002108Y-29871984D01*
X182900000Y-29861928D01*
X182600000Y-29861928D01*
X182475518Y-29874188D01*
X182355820Y-29910498D01*
X182245506Y-29969463D01*
X182148815Y-30048815D01*
X182069463Y-30145506D01*
X182010498Y-30255820D01*
X181974188Y-30375518D01*
X181961928Y-30500000D01*
X181961928Y-33100000D01*
X181974188Y-33224482D01*
X182010498Y-33344180D01*
X182018199Y-33358587D01*
X182025635Y-33434087D01*
X182033547Y-33460169D01*
X182067663Y-33572634D01*
X182135913Y-33700321D01*
X182227762Y-33812239D01*
X182255808Y-33835256D01*
X182365000Y-33944448D01*
X182365000Y-34544665D01*
X182348518Y-34546288D01*
X182228820Y-34582598D01*
X182224404Y-34584958D01*
X182145258Y-34505812D01*
X182122238Y-34477762D01*
X182010320Y-34385913D01*
X181882633Y-34317663D01*
X181744085Y-34275635D01*
X181636105Y-34265000D01*
X181600000Y-34261444D01*
X181563895Y-34265000D01*
X180219694Y-34265000D01*
X180195472Y-34185150D01*
X180113405Y-34031614D01*
X180055745Y-33961355D01*
X180105226Y-33841898D01*
X180145000Y-33641939D01*
X180145000Y-33438061D01*
X180131958Y-33372496D01*
X180341185Y-33492318D01*
X180412684Y-33478173D01*
X180663868Y-33372142D01*
X180889540Y-33219145D01*
X181081028Y-33025061D01*
X181230972Y-32797349D01*
X181333611Y-32544760D01*
X181385000Y-32277000D01*
X181385000Y-31427000D01*
X180127000Y-31427000D01*
X180127000Y-31447000D01*
X179873000Y-31447000D01*
X179873000Y-31427000D01*
X178615000Y-31427000D01*
X178615000Y-32277000D01*
X178666389Y-32544760D01*
X178686810Y-32595015D01*
X178619744Y-32622795D01*
X178450226Y-32736063D01*
X178306063Y-32880226D01*
X178192795Y-33049744D01*
X178114774Y-33238102D01*
X178075000Y-33438061D01*
X178075000Y-33641939D01*
X178114774Y-33841898D01*
X178120978Y-33856875D01*
X178072038Y-33897038D01*
X178066658Y-33903594D01*
X178001185Y-33823815D01*
X177904494Y-33744463D01*
X177794180Y-33685498D01*
X177674482Y-33649188D01*
X177550000Y-33636928D01*
X177248250Y-33640000D01*
X177089500Y-33798750D01*
X177089500Y-34873000D01*
X177109500Y-34873000D01*
X177109500Y-35127000D01*
X177089500Y-35127000D01*
X177089500Y-36873000D01*
X177109500Y-36873000D01*
X177109500Y-37127000D01*
X177089500Y-37127000D01*
X177089500Y-37147000D01*
X176835500Y-37147000D01*
X176835500Y-37127000D01*
X175898750Y-37127000D01*
X175740000Y-37285750D01*
X175736928Y-37725000D01*
X175749188Y-37849482D01*
X175749263Y-37849729D01*
X175363876Y-37849729D01*
X175327771Y-37846173D01*
X175291666Y-37849729D01*
X175183686Y-37860364D01*
X175096116Y-37886928D01*
X174662500Y-37886928D01*
X174491684Y-37903752D01*
X174327433Y-37953577D01*
X174176058Y-38034488D01*
X174043377Y-38143377D01*
X174006086Y-38188816D01*
X174075226Y-38021898D01*
X174115000Y-37821939D01*
X174115000Y-37618061D01*
X174075226Y-37418102D01*
X173997205Y-37229744D01*
X173883937Y-37060226D01*
X173739774Y-36916063D01*
X173570256Y-36802795D01*
X173381898Y-36724774D01*
X173181939Y-36685000D01*
X172978061Y-36685000D01*
X172778102Y-36724774D01*
X172589744Y-36802795D01*
X172420226Y-36916063D01*
X172276063Y-37060226D01*
X172162795Y-37229744D01*
X172084774Y-37418102D01*
X172045000Y-37618061D01*
X172045000Y-37821939D01*
X172084774Y-38021898D01*
X172162795Y-38210256D01*
X172163107Y-38210723D01*
X172109488Y-38276058D01*
X172028577Y-38427433D01*
X171978752Y-38591684D01*
X171961928Y-38762500D01*
X171961928Y-39237500D01*
X171978752Y-39408316D01*
X172028577Y-39572567D01*
X172109488Y-39723942D01*
X172218377Y-39856623D01*
X172351058Y-39965512D01*
X172352500Y-39966283D01*
X172352501Y-40033717D01*
X172351058Y-40034488D01*
X172218377Y-40143377D01*
X172109488Y-40276058D01*
X172028577Y-40427433D01*
X171978752Y-40591684D01*
X171961928Y-40762500D01*
X171961928Y-41237500D01*
X171978752Y-41408316D01*
X172028577Y-41572567D01*
X172109488Y-41723942D01*
X172218377Y-41856623D01*
X172351058Y-41965512D01*
X172502433Y-42046423D01*
X172666684Y-42096248D01*
X172837500Y-42113072D01*
X173337500Y-42113072D01*
X173508316Y-42096248D01*
X173672567Y-42046423D01*
X173823942Y-41965512D01*
X173956623Y-41856623D01*
X174000000Y-41803768D01*
X174043377Y-41856623D01*
X174176058Y-41965512D01*
X174327433Y-42046423D01*
X174491684Y-42096248D01*
X174662500Y-42113072D01*
X175162500Y-42113072D01*
X175333316Y-42096248D01*
X175497567Y-42046423D01*
X175636928Y-41971934D01*
X175636928Y-42300000D01*
X175653992Y-42473254D01*
X175704528Y-42639850D01*
X175786595Y-42793386D01*
X175897038Y-42927962D01*
X175903594Y-42933342D01*
X175823815Y-42998815D01*
X175744463Y-43095506D01*
X175685498Y-43205820D01*
X175649188Y-43325518D01*
X175636928Y-43450000D01*
X175640000Y-43751750D01*
X175798750Y-43910500D01*
X176873000Y-43910500D01*
X176873000Y-43890500D01*
X177127000Y-43890500D01*
X177127000Y-43910500D01*
X178873000Y-43910500D01*
X178873000Y-43890500D01*
X179127000Y-43890500D01*
X179127000Y-43910500D01*
X179147000Y-43910500D01*
X179147000Y-44164500D01*
X179127000Y-44164500D01*
X179127000Y-44184500D01*
X178873000Y-44184500D01*
X178873000Y-44164500D01*
X177127000Y-44164500D01*
X177127000Y-44184500D01*
X176873000Y-44184500D01*
X176873000Y-44164500D01*
X175798750Y-44164500D01*
X175640000Y-44323250D01*
X175636928Y-44625000D01*
X175638367Y-44639609D01*
X175375000Y-44636928D01*
X175250518Y-44649188D01*
X175130820Y-44685498D01*
X175020506Y-44744463D01*
X174923815Y-44823815D01*
X174844463Y-44920506D01*
X174785498Y-45030820D01*
X174749188Y-45150518D01*
X174736928Y-45275000D01*
X174740000Y-45714250D01*
X174898750Y-45873000D01*
X175835500Y-45873000D01*
X175835500Y-45853000D01*
X176089500Y-45853000D01*
X176089500Y-45873000D01*
X176109500Y-45873000D01*
X176109500Y-46127000D01*
X176089500Y-46127000D01*
X176089500Y-47201250D01*
X176248250Y-47360000D01*
X176550000Y-47363072D01*
X176674482Y-47350812D01*
X176794180Y-47314502D01*
X176904494Y-47255537D01*
X177001185Y-47176185D01*
X177066658Y-47096406D01*
X177072038Y-47102962D01*
X177206614Y-47213405D01*
X177360150Y-47295472D01*
X177526746Y-47346008D01*
X177700000Y-47363072D01*
X178375000Y-47363072D01*
X178548254Y-47346008D01*
X178714850Y-47295472D01*
X178868386Y-47213405D01*
X179002962Y-47102962D01*
X179113405Y-46968386D01*
X179195472Y-46814850D01*
X179222268Y-46726514D01*
X179244085Y-46724365D01*
X179382633Y-46682337D01*
X179510320Y-46614087D01*
X179622238Y-46522238D01*
X179645259Y-46494187D01*
X180739199Y-45400247D01*
X180736928Y-45725000D01*
X180749188Y-45849482D01*
X180785498Y-45969180D01*
X180801972Y-46000000D01*
X180785498Y-46030820D01*
X180749188Y-46150518D01*
X180736928Y-46275000D01*
X180740000Y-46714250D01*
X180898750Y-46873000D01*
X181835500Y-46873000D01*
X181835500Y-45127000D01*
X181815500Y-45127000D01*
X181815500Y-44873000D01*
X181835500Y-44873000D01*
X181835500Y-44853000D01*
X182089500Y-44853000D01*
X182089500Y-44873000D01*
X182109500Y-44873000D01*
X182109500Y-45127000D01*
X182089500Y-45127000D01*
X182089500Y-46873000D01*
X182109500Y-46873000D01*
X182109500Y-47127000D01*
X182089500Y-47127000D01*
X182089500Y-47147000D01*
X181835500Y-47147000D01*
X181835500Y-47127000D01*
X180898750Y-47127000D01*
X180740000Y-47285750D01*
X180736928Y-47725000D01*
X180749188Y-47849482D01*
X180785498Y-47969180D01*
X180844463Y-48079494D01*
X180923815Y-48176185D01*
X181020506Y-48255537D01*
X181130820Y-48314502D01*
X181214876Y-48340000D01*
X168032279Y-48340000D01*
X167740340Y-48311375D01*
X167490571Y-48235965D01*
X167260206Y-48113477D01*
X167058021Y-47948579D01*
X166891712Y-47747546D01*
X166767622Y-47518046D01*
X166690469Y-47268805D01*
X166660000Y-46978911D01*
X166660000Y-46725000D01*
X174736928Y-46725000D01*
X174749188Y-46849482D01*
X174785498Y-46969180D01*
X174844463Y-47079494D01*
X174923815Y-47176185D01*
X175020506Y-47255537D01*
X175130820Y-47314502D01*
X175250518Y-47350812D01*
X175375000Y-47363072D01*
X175676750Y-47360000D01*
X175835500Y-47201250D01*
X175835500Y-46127000D01*
X174898750Y-46127000D01*
X174740000Y-46285750D01*
X174736928Y-46725000D01*
X166660000Y-46725000D01*
X166660000Y-35725000D01*
X175736928Y-35725000D01*
X175749188Y-35849482D01*
X175785498Y-35969180D01*
X175801972Y-36000000D01*
X175785498Y-36030820D01*
X175749188Y-36150518D01*
X175736928Y-36275000D01*
X175740000Y-36714250D01*
X175898750Y-36873000D01*
X176835500Y-36873000D01*
X176835500Y-35127000D01*
X175898750Y-35127000D01*
X175740000Y-35285750D01*
X175736928Y-35725000D01*
X166660000Y-35725000D01*
X166660000Y-34275000D01*
X175736928Y-34275000D01*
X175740000Y-34714250D01*
X175898750Y-34873000D01*
X176835500Y-34873000D01*
X176835500Y-33798750D01*
X176676750Y-33640000D01*
X176375000Y-33636928D01*
X176250518Y-33649188D01*
X176130820Y-33685498D01*
X176020506Y-33744463D01*
X175923815Y-33823815D01*
X175844463Y-33920506D01*
X175785498Y-34030820D01*
X175749188Y-34150518D01*
X175736928Y-34275000D01*
X166660000Y-34275000D01*
X166660000Y-28779872D01*
X166765000Y-28779872D01*
X166765000Y-29220128D01*
X166850890Y-29651925D01*
X167019369Y-30058669D01*
X167263962Y-30424729D01*
X167575271Y-30736038D01*
X167941331Y-30980631D01*
X168348075Y-31149110D01*
X168779872Y-31235000D01*
X169220128Y-31235000D01*
X169651925Y-31149110D01*
X170058669Y-30980631D01*
X170424729Y-30736038D01*
X170736038Y-30424729D01*
X170804011Y-30323000D01*
X178615000Y-30323000D01*
X178615000Y-31173000D01*
X179873000Y-31173000D01*
X179873000Y-29230344D01*
X180127000Y-29230344D01*
X180127000Y-31173000D01*
X181385000Y-31173000D01*
X181385000Y-30323000D01*
X181342999Y-30104157D01*
X181498061Y-30135000D01*
X181701939Y-30135000D01*
X181901898Y-30095226D01*
X182090256Y-30017205D01*
X182259774Y-29903937D01*
X182403937Y-29759774D01*
X182517205Y-29590256D01*
X182595226Y-29401898D01*
X182631172Y-29221186D01*
X182708078Y-29221186D01*
X182908037Y-29181412D01*
X183096395Y-29103391D01*
X183265913Y-28990123D01*
X183410076Y-28845960D01*
X183523344Y-28676442D01*
X183601365Y-28488084D01*
X183641139Y-28288125D01*
X183641139Y-28084247D01*
X183601365Y-27884288D01*
X183523344Y-27695930D01*
X183410076Y-27526412D01*
X183265913Y-27382249D01*
X183096395Y-27268981D01*
X182908037Y-27190960D01*
X182708078Y-27151186D01*
X182504200Y-27151186D01*
X182304241Y-27190960D01*
X182115883Y-27268981D01*
X181946365Y-27382249D01*
X181802202Y-27526412D01*
X181688934Y-27695930D01*
X181610913Y-27884288D01*
X181574967Y-28065000D01*
X181498061Y-28065000D01*
X181298102Y-28104774D01*
X181109744Y-28182795D01*
X180940226Y-28296063D01*
X180796063Y-28440226D01*
X180682795Y-28609744D01*
X180604774Y-28798102D01*
X180565000Y-28998061D01*
X180565000Y-29186123D01*
X180412684Y-29121827D01*
X180341185Y-29107682D01*
X180127000Y-29230344D01*
X179873000Y-29230344D01*
X179658815Y-29107682D01*
X179587316Y-29121827D01*
X179336132Y-29227858D01*
X179110460Y-29380855D01*
X178918972Y-29574939D01*
X178769028Y-29802651D01*
X178666389Y-30055240D01*
X178615000Y-30323000D01*
X170804011Y-30323000D01*
X170980631Y-30058669D01*
X171149110Y-29651925D01*
X171235000Y-29220128D01*
X171235000Y-28779872D01*
X171149110Y-28348075D01*
X170980631Y-27941331D01*
X170736038Y-27575271D01*
X170424729Y-27263962D01*
X170058669Y-27019369D01*
X169651925Y-26850890D01*
X169220128Y-26765000D01*
X168779872Y-26765000D01*
X168348075Y-26850890D01*
X167941331Y-27019369D01*
X167575271Y-27263962D01*
X167263962Y-27575271D01*
X167019369Y-27941331D01*
X166850890Y-28348075D01*
X166765000Y-28779872D01*
X166660000Y-28779872D01*
X166660000Y-25467000D01*
X178615000Y-25467000D01*
X178615000Y-26067000D01*
X178666389Y-26334760D01*
X178769028Y-26587349D01*
X178918972Y-26815061D01*
X179110460Y-27009145D01*
X179336132Y-27162142D01*
X179587316Y-27268173D01*
X179658815Y-27282318D01*
X179873000Y-27159656D01*
X179873000Y-25467000D01*
X180127000Y-25467000D01*
X180127000Y-27159656D01*
X180341185Y-27282318D01*
X180412684Y-27268173D01*
X180663868Y-27162142D01*
X180889540Y-27009145D01*
X181081028Y-26815061D01*
X181230972Y-26587349D01*
X181333611Y-26334760D01*
X181385000Y-26067000D01*
X181385000Y-25798061D01*
X186065000Y-25798061D01*
X186065000Y-26001939D01*
X186104774Y-26201898D01*
X186182795Y-26390256D01*
X186296063Y-26559774D01*
X186440226Y-26703937D01*
X186609744Y-26817205D01*
X186798102Y-26895226D01*
X186998061Y-26935000D01*
X187201939Y-26935000D01*
X187401898Y-26895226D01*
X187590256Y-26817205D01*
X187759774Y-26703937D01*
X187903937Y-26559774D01*
X188017205Y-26390256D01*
X188095226Y-26201898D01*
X188104642Y-26154562D01*
X188142434Y-26170216D01*
X188342393Y-26209990D01*
X188546271Y-26209990D01*
X188746230Y-26170216D01*
X188934588Y-26092195D01*
X189104106Y-25978927D01*
X189248269Y-25834764D01*
X189361537Y-25665246D01*
X189439558Y-25476888D01*
X189479332Y-25276929D01*
X189479332Y-25073051D01*
X189439558Y-24873092D01*
X189361537Y-24684734D01*
X189313607Y-24613000D01*
X193115000Y-24613000D01*
X193115000Y-25213000D01*
X194373000Y-25213000D01*
X194373000Y-23520344D01*
X194627000Y-23520344D01*
X194627000Y-25213000D01*
X195885000Y-25213000D01*
X195885000Y-24779872D01*
X218765000Y-24779872D01*
X218765000Y-25220128D01*
X218850890Y-25651925D01*
X219019369Y-26058669D01*
X219263962Y-26424729D01*
X219575271Y-26736038D01*
X219941331Y-26980631D01*
X220348075Y-27149110D01*
X220779872Y-27235000D01*
X221220128Y-27235000D01*
X221651925Y-27149110D01*
X222058669Y-26980631D01*
X222424729Y-26736038D01*
X222736038Y-26424729D01*
X222980631Y-26058669D01*
X223149110Y-25651925D01*
X223235000Y-25220128D01*
X223235000Y-24779872D01*
X223149110Y-24348075D01*
X222980631Y-23941331D01*
X222792652Y-23660000D01*
X241183572Y-23660000D01*
X241183572Y-27480000D01*
X245396429Y-27480000D01*
X245396429Y-23660000D01*
X241183572Y-23660000D01*
X222792652Y-23660000D01*
X222736038Y-23575271D01*
X222424729Y-23263962D01*
X222058669Y-23019369D01*
X221651925Y-22850890D01*
X221220128Y-22765000D01*
X220779872Y-22765000D01*
X220348075Y-22850890D01*
X219941331Y-23019369D01*
X219575271Y-23263962D01*
X219263962Y-23575271D01*
X219019369Y-23941331D01*
X218850890Y-24348075D01*
X218765000Y-24779872D01*
X195885000Y-24779872D01*
X195885000Y-24613000D01*
X195833611Y-24345240D01*
X195730972Y-24092651D01*
X195581028Y-23864939D01*
X195389540Y-23670855D01*
X195163868Y-23517858D01*
X194912684Y-23411827D01*
X194841185Y-23397682D01*
X194627000Y-23520344D01*
X194373000Y-23520344D01*
X194158815Y-23397682D01*
X194087316Y-23411827D01*
X193836132Y-23517858D01*
X193610460Y-23670855D01*
X193418972Y-23864939D01*
X193269028Y-24092651D01*
X193166389Y-24345240D01*
X193115000Y-24613000D01*
X189313607Y-24613000D01*
X189248269Y-24515216D01*
X189104106Y-24371053D01*
X188934588Y-24257785D01*
X188746230Y-24179764D01*
X188546271Y-24139990D01*
X188342393Y-24139990D01*
X188142434Y-24179764D01*
X187954076Y-24257785D01*
X187784558Y-24371053D01*
X187640395Y-24515216D01*
X187527127Y-24684734D01*
X187449106Y-24873092D01*
X187439690Y-24920428D01*
X187401898Y-24904774D01*
X187201939Y-24865000D01*
X186998061Y-24865000D01*
X186798102Y-24904774D01*
X186609744Y-24982795D01*
X186440226Y-25096063D01*
X186296063Y-25240226D01*
X186182795Y-25409744D01*
X186104774Y-25598102D01*
X186065000Y-25798061D01*
X181385000Y-25798061D01*
X181385000Y-25467000D01*
X180127000Y-25467000D01*
X179873000Y-25467000D01*
X178615000Y-25467000D01*
X166660000Y-25467000D01*
X166660000Y-24613000D01*
X178615000Y-24613000D01*
X178615000Y-25213000D01*
X179873000Y-25213000D01*
X179873000Y-23520344D01*
X180127000Y-23520344D01*
X180127000Y-25213000D01*
X181385000Y-25213000D01*
X181385000Y-24613000D01*
X181333611Y-24345240D01*
X181230972Y-24092651D01*
X181081028Y-23864939D01*
X180889540Y-23670855D01*
X180663868Y-23517858D01*
X180412684Y-23411827D01*
X180341185Y-23397682D01*
X180127000Y-23520344D01*
X179873000Y-23520344D01*
X179658815Y-23397682D01*
X179587316Y-23411827D01*
X179336132Y-23517858D01*
X179110460Y-23670855D01*
X178918972Y-23864939D01*
X178769028Y-24092651D01*
X178666389Y-24345240D01*
X178615000Y-24613000D01*
X166660000Y-24613000D01*
X166660000Y-24032279D01*
X166688625Y-23740341D01*
X166764035Y-23490571D01*
X166886522Y-23260208D01*
X167051422Y-23058020D01*
X167252450Y-22891714D01*
X167481954Y-22767622D01*
X167731195Y-22690469D01*
X168021088Y-22660000D01*
X244967721Y-22660000D01*
X245259659Y-22688625D01*
%TA.AperFunction,Conductor*%
D27*
G36*
X245259659Y-22688625D02*
G01*
X245509429Y-22764035D01*
X245739792Y-22886522D01*
X245941980Y-23051422D01*
X246108286Y-23252450D01*
X246232378Y-23481954D01*
X246309531Y-23731195D01*
X246340001Y-24021098D01*
X246340000Y-54967721D01*
X246311375Y-55259660D01*
X246235965Y-55509429D01*
X246113477Y-55739794D01*
X245948579Y-55941979D01*
X245747546Y-56108288D01*
X245518046Y-56232378D01*
X245268805Y-56309531D01*
X244978911Y-56340000D01*
X218032279Y-56340000D01*
X217740340Y-56311375D01*
X217490571Y-56235965D01*
X217260206Y-56113477D01*
X217058021Y-55948579D01*
X216891712Y-55747546D01*
X216767622Y-55518046D01*
X216690469Y-55268805D01*
X216660000Y-54978911D01*
X216660000Y-50967581D01*
X216657148Y-50938627D01*
X216657235Y-50926219D01*
X216656335Y-50917047D01*
X216615534Y-50528855D01*
X216603514Y-50470299D01*
X216592298Y-50411498D01*
X216589634Y-50402677D01*
X216474210Y-50029802D01*
X216451025Y-49974647D01*
X216428621Y-49919194D01*
X216424294Y-49911058D01*
X216424294Y-49911057D01*
X216424291Y-49911053D01*
X216238643Y-49567702D01*
X216205187Y-49518101D01*
X216172437Y-49468054D01*
X216166613Y-49460913D01*
X216124486Y-49409990D01*
X217794530Y-49409990D01*
X218648732Y-50264193D01*
X218671748Y-50292238D01*
X218783666Y-50384087D01*
X218911353Y-50452337D01*
X219007872Y-50481616D01*
X219049900Y-50494365D01*
X219193986Y-50508556D01*
X219230091Y-50505000D01*
X219328485Y-50505000D01*
X219314774Y-50538102D01*
X219275000Y-50738061D01*
X219275000Y-50855000D01*
X219228061Y-50855000D01*
X219028102Y-50894774D01*
X218839744Y-50972795D01*
X218670226Y-51086063D01*
X218526063Y-51230226D01*
X218412795Y-51399744D01*
X218334774Y-51588102D01*
X218295000Y-51788061D01*
X218295000Y-51991939D01*
X218334774Y-52191898D01*
X218412795Y-52380256D01*
X218526063Y-52549774D01*
X218670226Y-52693937D01*
X218839744Y-52807205D01*
X219028102Y-52885226D01*
X219228061Y-52925000D01*
X219431939Y-52925000D01*
X219631898Y-52885226D01*
X219820256Y-52807205D01*
X219989774Y-52693937D01*
X220058711Y-52625000D01*
X221383895Y-52625000D01*
X221420000Y-52628556D01*
X221456105Y-52625000D01*
X221564085Y-52614365D01*
X221702633Y-52572337D01*
X221830320Y-52504087D01*
X221942238Y-52412238D01*
X221965258Y-52384188D01*
X222544194Y-51805253D01*
X222572239Y-51782237D01*
X222664088Y-51670319D01*
X222732338Y-51542632D01*
X222774366Y-51404084D01*
X222785001Y-51296104D01*
X222788557Y-51259999D01*
X222785001Y-51223894D01*
X222785001Y-49470104D01*
X222788557Y-49433999D01*
X222774366Y-49289914D01*
X222769842Y-49274999D01*
X225535000Y-49274999D01*
X225535000Y-49341939D01*
X225574774Y-49541898D01*
X225652795Y-49730256D01*
X225766063Y-49899774D01*
X225910226Y-50043937D01*
X226079744Y-50157205D01*
X226268102Y-50235226D01*
X226468061Y-50275000D01*
X226671939Y-50275000D01*
X226871898Y-50235226D01*
X227060256Y-50157205D01*
X227229774Y-50043937D01*
X227373937Y-49899774D01*
X227487205Y-49730256D01*
X227565226Y-49541898D01*
X227605000Y-49341939D01*
X227605000Y-49274999D01*
X235550198Y-49274999D01*
X236390000Y-50114802D01*
X236390000Y-50446289D01*
X236346063Y-50490226D01*
X236232795Y-50659744D01*
X236154774Y-50848102D01*
X236115000Y-51048061D01*
X236115000Y-51251939D01*
X236154774Y-51451898D01*
X236232795Y-51640256D01*
X236346063Y-51809774D01*
X236490226Y-51953937D01*
X236659744Y-52067205D01*
X236848102Y-52145226D01*
X237048061Y-52185000D01*
X237251939Y-52185000D01*
X237451898Y-52145226D01*
X237640256Y-52067205D01*
X237809774Y-51953937D01*
X237953937Y-51809774D01*
X238067205Y-51640256D01*
X238145226Y-51451898D01*
X238185000Y-51251939D01*
X238185000Y-51048061D01*
X238145226Y-50848102D01*
X238067205Y-50659744D01*
X237953937Y-50490226D01*
X237910000Y-50446289D01*
X237910000Y-49837323D01*
X237913676Y-49800000D01*
X237910000Y-49762677D01*
X237910000Y-49762667D01*
X237899003Y-49651014D01*
X237855546Y-49507753D01*
X237784974Y-49375724D01*
X237690001Y-49259999D01*
X237661004Y-49236202D01*
X236428803Y-48004002D01*
X236405000Y-47974998D01*
X236289275Y-47880025D01*
X236157246Y-47809453D01*
X236013985Y-47765996D01*
X235902332Y-47754999D01*
X235902321Y-47754999D01*
X235864999Y-47751323D01*
X235827677Y-47754999D01*
X221829801Y-47754999D01*
X220238072Y-46163271D01*
X220238072Y-45549999D01*
X220221008Y-45376745D01*
X220170472Y-45210149D01*
X220088405Y-45056613D01*
X219977962Y-44922038D01*
X219843387Y-44811595D01*
X219689851Y-44729528D01*
X219523255Y-44678992D01*
X219350001Y-44661928D01*
X218649999Y-44661928D01*
X218476745Y-44678992D01*
X218310149Y-44729528D01*
X218156613Y-44811595D01*
X218022038Y-44922038D01*
X218000000Y-44948891D01*
X217977962Y-44922038D01*
X217843387Y-44811595D01*
X217689851Y-44729528D01*
X217523255Y-44678992D01*
X217350001Y-44661928D01*
X216649999Y-44661928D01*
X216476745Y-44678992D01*
X216352881Y-44716566D01*
X217334447Y-43735000D01*
X217812889Y-43735000D01*
X217829528Y-43789851D01*
X217911595Y-43943387D01*
X218022038Y-44077962D01*
X218156613Y-44188405D01*
X218310149Y-44270472D01*
X218476745Y-44321008D01*
X218649999Y-44338072D01*
X219350001Y-44338072D01*
X219523255Y-44321008D01*
X219689851Y-44270472D01*
X219843387Y-44188405D01*
X219977962Y-44077962D01*
X220000000Y-44051109D01*
X220022038Y-44077962D01*
X220156613Y-44188405D01*
X220310149Y-44270472D01*
X220476745Y-44321008D01*
X220649999Y-44338072D01*
X221263271Y-44338072D01*
X223466201Y-46541003D01*
X223489999Y-46570001D01*
X223518997Y-46593799D01*
X223605723Y-46664974D01*
X223716833Y-46724364D01*
X223737753Y-46735546D01*
X223881014Y-46779003D01*
X223992667Y-46790000D01*
X223992676Y-46790000D01*
X224029999Y-46793676D01*
X224067322Y-46790000D01*
X236376289Y-46790000D01*
X236420226Y-46833937D01*
X236589744Y-46947205D01*
X236778102Y-47025226D01*
X236978061Y-47065000D01*
X237181939Y-47065000D01*
X237381898Y-47025226D01*
X237570256Y-46947205D01*
X237739774Y-46833937D01*
X237883937Y-46689774D01*
X237997205Y-46520256D01*
X238075226Y-46331898D01*
X238115000Y-46131939D01*
X238115000Y-45928061D01*
X238075226Y-45728102D01*
X237997205Y-45539744D01*
X237883937Y-45370226D01*
X237739774Y-45226063D01*
X237570256Y-45112795D01*
X237381898Y-45034774D01*
X237181939Y-44995000D01*
X236978061Y-44995000D01*
X236778102Y-45034774D01*
X236589744Y-45112795D01*
X236420226Y-45226063D01*
X236376289Y-45270000D01*
X224344802Y-45270000D01*
X222238072Y-43163271D01*
X222238072Y-43150000D01*
X232311928Y-43150000D01*
X232324188Y-43274482D01*
X232360498Y-43394180D01*
X232419463Y-43504494D01*
X232498815Y-43601185D01*
X232595506Y-43680537D01*
X232705820Y-43739502D01*
X232825518Y-43775812D01*
X232950000Y-43788072D01*
X233414250Y-43785000D01*
X233573000Y-43626250D01*
X233573000Y-42277000D01*
X232473750Y-42277000D01*
X232315000Y-42435750D01*
X232311928Y-43150000D01*
X222238072Y-43150000D01*
X222238072Y-42549999D01*
X222221008Y-42376745D01*
X222170472Y-42210149D01*
X222088405Y-42056613D01*
X221977962Y-41922038D01*
X221843387Y-41811595D01*
X221689851Y-41729528D01*
X221523255Y-41678992D01*
X221350001Y-41661928D01*
X220649999Y-41661928D01*
X220476745Y-41678992D01*
X220310149Y-41729528D01*
X220156613Y-41811595D01*
X220022038Y-41922038D01*
X220000000Y-41948891D01*
X219977962Y-41922038D01*
X219843387Y-41811595D01*
X219689851Y-41729528D01*
X219523255Y-41678992D01*
X219350001Y-41661928D01*
X218649999Y-41661928D01*
X218476745Y-41678992D01*
X218310149Y-41729528D01*
X218156613Y-41811595D01*
X218022038Y-41922038D01*
X217911595Y-42056613D01*
X217829528Y-42210149D01*
X217812889Y-42265000D01*
X217066104Y-42265000D01*
X217029999Y-42261444D01*
X216885914Y-42275635D01*
X216858992Y-42283802D01*
X216747367Y-42317663D01*
X216619680Y-42385913D01*
X216507762Y-42477762D01*
X216484746Y-42505807D01*
X216325124Y-42665429D01*
X216277205Y-42549744D01*
X216163937Y-42380226D01*
X216019774Y-42236063D01*
X215850256Y-42122795D01*
X215661898Y-42044774D01*
X215461939Y-42005000D01*
X215258061Y-42005000D01*
X215147166Y-42027058D01*
X215040462Y-41897038D01*
X215036792Y-41894026D01*
X215075000Y-41701939D01*
X215075000Y-41625000D01*
X225636928Y-41625000D01*
X225649188Y-41749482D01*
X225685498Y-41869180D01*
X225744463Y-41979494D01*
X225823815Y-42076185D01*
X225920506Y-42155537D01*
X226030820Y-42214502D01*
X226150518Y-42250812D01*
X226275000Y-42263072D01*
X226714250Y-42260000D01*
X226873000Y-42101250D01*
X226873000Y-41164500D01*
X225798750Y-41164500D01*
X225640000Y-41323250D01*
X225636928Y-41625000D01*
X215075000Y-41625000D01*
X215075000Y-41498061D01*
X215035226Y-41298102D01*
X214966717Y-41132707D01*
X215002962Y-41102962D01*
X215113405Y-40968386D01*
X215195472Y-40814850D01*
X215246008Y-40648254D01*
X215263072Y-40475000D01*
X215263072Y-39585000D01*
X216775224Y-39585000D01*
X216778992Y-39623255D01*
X216829528Y-39789851D01*
X216911595Y-39943387D01*
X217022038Y-40077962D01*
X217156613Y-40188405D01*
X217310149Y-40270472D01*
X217476745Y-40321008D01*
X217649999Y-40338072D01*
X218300001Y-40338072D01*
X218473255Y-40321008D01*
X218639851Y-40270472D01*
X218793387Y-40188405D01*
X218927962Y-40077962D01*
X219000000Y-39990184D01*
X219072038Y-40077962D01*
X219206613Y-40188405D01*
X219360149Y-40270472D01*
X219526745Y-40321008D01*
X219699999Y-40338072D01*
X220350001Y-40338072D01*
X220523255Y-40321008D01*
X220689851Y-40270472D01*
X220843387Y-40188405D01*
X220954155Y-40097500D01*
X225743397Y-40097500D01*
X225685498Y-40205820D01*
X225649188Y-40325518D01*
X225636928Y-40450000D01*
X225640000Y-40751750D01*
X225798750Y-40910500D01*
X226873000Y-40910500D01*
X226873000Y-40890500D01*
X227127000Y-40890500D01*
X227127000Y-40910500D01*
X227147000Y-40910500D01*
X227147000Y-41164500D01*
X227127000Y-41164500D01*
X227127000Y-42101250D01*
X227285750Y-42260000D01*
X227725000Y-42263072D01*
X227849482Y-42250812D01*
X227969180Y-42214502D01*
X228079494Y-42155537D01*
X228176185Y-42076185D01*
X228189009Y-42060559D01*
X228186928Y-42375000D01*
X228199188Y-42499482D01*
X228235498Y-42619180D01*
X228294463Y-42729494D01*
X228373815Y-42826185D01*
X228470506Y-42905537D01*
X228580820Y-42964502D01*
X228700518Y-43000812D01*
X228825000Y-43013072D01*
X229714250Y-43010000D01*
X229873000Y-42851250D01*
X229873000Y-41752000D01*
X230127000Y-41752000D01*
X230127000Y-42851250D01*
X230285750Y-43010000D01*
X231175000Y-43013072D01*
X231299482Y-43000812D01*
X231419180Y-42964502D01*
X231529494Y-42905537D01*
X231626185Y-42826185D01*
X231705537Y-42729494D01*
X231764502Y-42619180D01*
X231800812Y-42499482D01*
X231813072Y-42375000D01*
X231810000Y-41910750D01*
X231651250Y-41752000D01*
X230127000Y-41752000D01*
X229873000Y-41752000D01*
X229853000Y-41752000D01*
X229853000Y-41498000D01*
X229873000Y-41498000D01*
X229873000Y-40398750D01*
X230127000Y-40398750D01*
X230127000Y-41498000D01*
X231651250Y-41498000D01*
X231810000Y-41339250D01*
X231811252Y-41150000D01*
X232311928Y-41150000D01*
X232315000Y-41864250D01*
X232473750Y-42023000D01*
X233573000Y-42023000D01*
X233573000Y-40673750D01*
X233414250Y-40515000D01*
X232950000Y-40511928D01*
X232825518Y-40524188D01*
X232705820Y-40560498D01*
X232595506Y-40619463D01*
X232498815Y-40698815D01*
X232419463Y-40795506D01*
X232360498Y-40905820D01*
X232324188Y-41025518D01*
X232311928Y-41150000D01*
X231811252Y-41150000D01*
X231813072Y-40875000D01*
X231800812Y-40750518D01*
X231764502Y-40630820D01*
X231705537Y-40520506D01*
X231626185Y-40423815D01*
X231529494Y-40344463D01*
X231419180Y-40285498D01*
X231299482Y-40249188D01*
X231175000Y-40236928D01*
X230285750Y-40240000D01*
X230127000Y-40398750D01*
X229873000Y-40398750D01*
X229714250Y-40240000D01*
X228825000Y-40236928D01*
X228700518Y-40249188D01*
X228580820Y-40285498D01*
X228470506Y-40344463D01*
X228373815Y-40423815D01*
X228361921Y-40438309D01*
X228350812Y-40325518D01*
X228314502Y-40205820D01*
X228255537Y-40095506D01*
X228176185Y-39998815D01*
X228096406Y-39933342D01*
X228102962Y-39927962D01*
X228213405Y-39793386D01*
X228295472Y-39639850D01*
X228346008Y-39473254D01*
X228354221Y-39389864D01*
X228447038Y-39502962D01*
X228581614Y-39613405D01*
X228735150Y-39695472D01*
X228901746Y-39746008D01*
X229075000Y-39763072D01*
X230925000Y-39763072D01*
X231098254Y-39746008D01*
X231264850Y-39695472D01*
X231418386Y-39613405D01*
X231550479Y-39505000D01*
X234865000Y-39505000D01*
X234865000Y-40644498D01*
X234850000Y-40656809D01*
X234804494Y-40619463D01*
X234694180Y-40560498D01*
X234574482Y-40524188D01*
X234450000Y-40511928D01*
X233985750Y-40515000D01*
X233827000Y-40673750D01*
X233827000Y-42023000D01*
X233847000Y-42023000D01*
X233847000Y-42277000D01*
X233827000Y-42277000D01*
X233827000Y-43626250D01*
X233985750Y-43785000D01*
X234450000Y-43788072D01*
X234574482Y-43775812D01*
X234694180Y-43739502D01*
X234804494Y-43680537D01*
X234850000Y-43643191D01*
X234895506Y-43680537D01*
X235005820Y-43739502D01*
X235125518Y-43775812D01*
X235250000Y-43788072D01*
X236750000Y-43788072D01*
X236874482Y-43775812D01*
X236994180Y-43739502D01*
X237104494Y-43680537D01*
X237150000Y-43643191D01*
X237195506Y-43680537D01*
X237305820Y-43739502D01*
X237425518Y-43775812D01*
X237550000Y-43788072D01*
X239050000Y-43788072D01*
X239174482Y-43775812D01*
X239263635Y-43748768D01*
X239315513Y-43800645D01*
X239351051Y-43843949D01*
X239394354Y-43879487D01*
X239394356Y-43879489D01*
X239523877Y-43985784D01*
X239721053Y-44091176D01*
X239935001Y-44156077D01*
X240157500Y-44177991D01*
X240213252Y-44172500D01*
X241142173Y-44172500D01*
X241185150Y-44195472D01*
X241351746Y-44246008D01*
X241372967Y-44248098D01*
X241765000Y-44640132D01*
X241765001Y-50949868D01*
X241758012Y-50956857D01*
X241651717Y-51086378D01*
X241546324Y-51283554D01*
X241481423Y-51497502D01*
X241459509Y-51720000D01*
X241481423Y-51942498D01*
X241546324Y-52156446D01*
X241651717Y-52353622D01*
X241793552Y-52526448D01*
X241966378Y-52668283D01*
X242163554Y-52773676D01*
X242377502Y-52838577D01*
X242600000Y-52860491D01*
X242822498Y-52838577D01*
X243036446Y-52773676D01*
X243233622Y-52668283D01*
X243363143Y-52561988D01*
X243663135Y-52261996D01*
X243706449Y-52226449D01*
X243848284Y-52053623D01*
X243953676Y-51856447D01*
X244018577Y-51642499D01*
X244035000Y-51475752D01*
X244040491Y-51420001D01*
X244035000Y-51364249D01*
X244035000Y-44225743D01*
X244040490Y-44169999D01*
X244035000Y-44114255D01*
X244035000Y-44114248D01*
X244018577Y-43947501D01*
X244015063Y-43935915D01*
X243998780Y-43882239D01*
X243953676Y-43733553D01*
X243848284Y-43536377D01*
X243706449Y-43363551D01*
X243663140Y-43328008D01*
X243363072Y-43027940D01*
X243363072Y-42700000D01*
X243346008Y-42526746D01*
X243295472Y-42360150D01*
X243213405Y-42206614D01*
X243102962Y-42072038D01*
X243096406Y-42066658D01*
X243176185Y-42001185D01*
X243255537Y-41904494D01*
X243314502Y-41794180D01*
X243350812Y-41674482D01*
X243363072Y-41550000D01*
X243360000Y-41248250D01*
X243201250Y-41089500D01*
X242127000Y-41089500D01*
X242127000Y-41109500D01*
X241873000Y-41109500D01*
X241873000Y-41089500D01*
X240798750Y-41089500D01*
X240640000Y-41248250D01*
X240636928Y-41550000D01*
X240649188Y-41674482D01*
X240685498Y-41794180D01*
X240743397Y-41902500D01*
X240627632Y-41902500D01*
X240111995Y-41386864D01*
X240076449Y-41343551D01*
X239903623Y-41201716D01*
X239706447Y-41096324D01*
X239682057Y-41088925D01*
X239675812Y-41025518D01*
X239639502Y-40905820D01*
X239580537Y-40795506D01*
X239501185Y-40698815D01*
X239435000Y-40644499D01*
X239435000Y-40375000D01*
X240636928Y-40375000D01*
X240640000Y-40676750D01*
X240798750Y-40835500D01*
X241873000Y-40835500D01*
X241873000Y-40038750D01*
X241960500Y-39951250D01*
X241960500Y-39127000D01*
X241123750Y-39127000D01*
X240965000Y-39285750D01*
X240961928Y-39475000D01*
X240974188Y-39599482D01*
X241010498Y-39719180D01*
X241043836Y-39781550D01*
X241030820Y-39785498D01*
X240920506Y-39844463D01*
X240823815Y-39923815D01*
X240744463Y-40020506D01*
X240685498Y-40130820D01*
X240649188Y-40250518D01*
X240636928Y-40375000D01*
X239435000Y-40375000D01*
X239435000Y-40144248D01*
X239418577Y-39977501D01*
X239353676Y-39763553D01*
X239248284Y-39566377D01*
X239106449Y-39393551D01*
X238933623Y-39251716D01*
X238736446Y-39146324D01*
X238522498Y-39081423D01*
X238300000Y-39059509D01*
X238077501Y-39081423D01*
X237863553Y-39146324D01*
X237666377Y-39251716D01*
X237493551Y-39393551D01*
X237351716Y-39566377D01*
X237246324Y-39763554D01*
X237181423Y-39977502D01*
X237165000Y-40144249D01*
X237165000Y-40644498D01*
X237150000Y-40656809D01*
X237135000Y-40644499D01*
X237135000Y-38525000D01*
X240961928Y-38525000D01*
X240965000Y-38714250D01*
X241123750Y-38873000D01*
X241960500Y-38873000D01*
X241960500Y-38048750D01*
X241801750Y-37890000D01*
X241600000Y-37886928D01*
X241475518Y-37899188D01*
X241355820Y-37935498D01*
X241245506Y-37994463D01*
X241148815Y-38073815D01*
X241069463Y-38170506D01*
X241010498Y-38280820D01*
X240974188Y-38400518D01*
X240961928Y-38525000D01*
X237135000Y-38525000D01*
X237135000Y-38425752D01*
X237140491Y-38370000D01*
X237135000Y-38314248D01*
X237135000Y-37488072D01*
X237900000Y-37488072D01*
X238024482Y-37475812D01*
X238144180Y-37439502D01*
X238254494Y-37380537D01*
X238351185Y-37301185D01*
X238430537Y-37204494D01*
X238489502Y-37094180D01*
X238525812Y-36974482D01*
X238538072Y-36850000D01*
X238538072Y-36360000D01*
X239109509Y-36360000D01*
X239131423Y-36582498D01*
X239196324Y-36796446D01*
X239301717Y-36993622D01*
X239443552Y-37166448D01*
X239616378Y-37308283D01*
X239813554Y-37413676D01*
X240027502Y-37478577D01*
X240250000Y-37500491D01*
X240472498Y-37478577D01*
X240686446Y-37413676D01*
X240883622Y-37308283D01*
X241013143Y-37201988D01*
X241040131Y-37175000D01*
X241140279Y-37175000D01*
X241156613Y-37188405D01*
X241310149Y-37270472D01*
X241476745Y-37321008D01*
X241649999Y-37338072D01*
X242300001Y-37338072D01*
X242473255Y-37321008D01*
X242639851Y-37270472D01*
X242793387Y-37188405D01*
X242927962Y-37077962D01*
X243000000Y-36990184D01*
X243072038Y-37077962D01*
X243206613Y-37188405D01*
X243265000Y-37219614D01*
X243265001Y-37986948D01*
X243176058Y-38034488D01*
X243067217Y-38123812D01*
X243026185Y-38073815D01*
X242929494Y-37994463D01*
X242819180Y-37935498D01*
X242699482Y-37899188D01*
X242575000Y-37886928D01*
X242373250Y-37890000D01*
X242214500Y-38048750D01*
X242214500Y-38873000D01*
X242234500Y-38873000D01*
X242234500Y-39127000D01*
X242214500Y-39127000D01*
X242214500Y-39811250D01*
X242127000Y-39898750D01*
X242127000Y-40835500D01*
X243201250Y-40835500D01*
X243360000Y-40676750D01*
X243363072Y-40375000D01*
X243350812Y-40250518D01*
X243314502Y-40130820D01*
X243255537Y-40020506D01*
X243237245Y-39998217D01*
X243327433Y-40046423D01*
X243491684Y-40096248D01*
X243662500Y-40113072D01*
X244162500Y-40113072D01*
X244333316Y-40096248D01*
X244497567Y-40046423D01*
X244648942Y-39965512D01*
X244781623Y-39856623D01*
X244890512Y-39723942D01*
X244971423Y-39572567D01*
X245021248Y-39408316D01*
X245038072Y-39237500D01*
X245038072Y-38762500D01*
X245021248Y-38591684D01*
X244971423Y-38427433D01*
X244890512Y-38276058D01*
X244785000Y-38147492D01*
X244785000Y-37219614D01*
X244843387Y-37188405D01*
X244977962Y-37077962D01*
X245088405Y-36943387D01*
X245170472Y-36789851D01*
X245221008Y-36623255D01*
X245238072Y-36450001D01*
X245238072Y-35549999D01*
X245221008Y-35376745D01*
X245170472Y-35210149D01*
X245088405Y-35056613D01*
X244977962Y-34922038D01*
X244843387Y-34811595D01*
X244689851Y-34729528D01*
X244523255Y-34678992D01*
X244350001Y-34661928D01*
X243699999Y-34661928D01*
X243526745Y-34678992D01*
X243360149Y-34729528D01*
X243206613Y-34811595D01*
X243072038Y-34922038D01*
X243000000Y-35009816D01*
X242927962Y-34922038D01*
X242793387Y-34811595D01*
X242639851Y-34729528D01*
X242473255Y-34678992D01*
X242300001Y-34661928D01*
X241649999Y-34661928D01*
X241476745Y-34678992D01*
X241310149Y-34729528D01*
X241156613Y-34811595D01*
X241042799Y-34905000D01*
X240625741Y-34905000D01*
X240569999Y-34899510D01*
X240514257Y-34905000D01*
X240514248Y-34905000D01*
X240347501Y-34921423D01*
X240133553Y-34986324D01*
X239936377Y-35091716D01*
X239763551Y-35233551D01*
X239728004Y-35276865D01*
X239408012Y-35596857D01*
X239301717Y-35726378D01*
X239196324Y-35923554D01*
X239131423Y-36137502D01*
X239109509Y-36360000D01*
X238538072Y-36360000D01*
X238538072Y-34850000D01*
X238525812Y-34725518D01*
X238489502Y-34605820D01*
X238430537Y-34495506D01*
X238351185Y-34398815D01*
X238254494Y-34319463D01*
X238144180Y-34260498D01*
X238024482Y-34224188D01*
X237900000Y-34211928D01*
X234100000Y-34211928D01*
X233975518Y-34224188D01*
X233855820Y-34260498D01*
X233745506Y-34319463D01*
X233648815Y-34398815D01*
X233569463Y-34495506D01*
X233510498Y-34605820D01*
X233474188Y-34725518D01*
X233461928Y-34850000D01*
X233461928Y-36850000D01*
X233474188Y-36974482D01*
X233510498Y-37094180D01*
X233569463Y-37204494D01*
X233594499Y-37235000D01*
X231538294Y-37235000D01*
X231418386Y-37136595D01*
X231264850Y-37054528D01*
X231098254Y-37003992D01*
X230925000Y-36986928D01*
X229075000Y-36986928D01*
X228901746Y-37003992D01*
X228735150Y-37054528D01*
X228581614Y-37136595D01*
X228447038Y-37247038D01*
X228336595Y-37381614D01*
X228278661Y-37490000D01*
X227548469Y-37490000D01*
X227505000Y-37485719D01*
X227461531Y-37490000D01*
X227461523Y-37490000D01*
X227331510Y-37502805D01*
X227164687Y-37553411D01*
X227010941Y-37635589D01*
X226887460Y-37736928D01*
X226525000Y-37736928D01*
X226351746Y-37753992D01*
X226185150Y-37804528D01*
X226142173Y-37827500D01*
X221160000Y-37827500D01*
X221160000Y-36809443D01*
X221170472Y-36789851D01*
X221221008Y-36623255D01*
X221238072Y-36450001D01*
X221238072Y-35549999D01*
X221221008Y-35376745D01*
X221170472Y-35210149D01*
X221088405Y-35056613D01*
X220977962Y-34922038D01*
X220843387Y-34811595D01*
X220689851Y-34729528D01*
X220523255Y-34678992D01*
X220350001Y-34661928D01*
X219699999Y-34661928D01*
X219526745Y-34678992D01*
X219360149Y-34729528D01*
X219206613Y-34811595D01*
X219072038Y-34922038D01*
X219000000Y-35009816D01*
X218927962Y-34922038D01*
X218793387Y-34811595D01*
X218639851Y-34729528D01*
X218473255Y-34678992D01*
X218300001Y-34661928D01*
X217649999Y-34661928D01*
X217476745Y-34678992D01*
X217310149Y-34729528D01*
X217156613Y-34811595D01*
X217022038Y-34922038D01*
X216911595Y-35056613D01*
X216880386Y-35115000D01*
X201196579Y-35115000D01*
X199769640Y-33688061D01*
X214955000Y-33688061D01*
X214955000Y-33891939D01*
X214994774Y-34091898D01*
X215072795Y-34280256D01*
X215186063Y-34449774D01*
X215330226Y-34593937D01*
X215499744Y-34707205D01*
X215688102Y-34785226D01*
X215888061Y-34825000D01*
X216091939Y-34825000D01*
X216291898Y-34785226D01*
X216480256Y-34707205D01*
X216649774Y-34593937D01*
X216793937Y-34449774D01*
X216907205Y-34280256D01*
X216985226Y-34091898D01*
X216994639Y-34044576D01*
X217022038Y-34077962D01*
X217156613Y-34188405D01*
X217310149Y-34270472D01*
X217476745Y-34321008D01*
X217649999Y-34338072D01*
X218300001Y-34338072D01*
X218473255Y-34321008D01*
X218639851Y-34270472D01*
X218793387Y-34188405D01*
X218927962Y-34077962D01*
X219000000Y-33990184D01*
X219072038Y-34077962D01*
X219206613Y-34188405D01*
X219360149Y-34270472D01*
X219526745Y-34321008D01*
X219699999Y-34338072D01*
X220350001Y-34338072D01*
X220523255Y-34321008D01*
X220689851Y-34270472D01*
X220843387Y-34188405D01*
X220908461Y-34135000D01*
X224254249Y-34135000D01*
X224310000Y-34140491D01*
X224365751Y-34135000D01*
X224365752Y-34135000D01*
X224532499Y-34118577D01*
X224746447Y-34053676D01*
X224943623Y-33948284D01*
X225116449Y-33806449D01*
X225151993Y-33763139D01*
X225191989Y-33723143D01*
X225298284Y-33593622D01*
X225403676Y-33396446D01*
X225468577Y-33182498D01*
X225490491Y-32960000D01*
X225468577Y-32737501D01*
X225403676Y-32523553D01*
X225298284Y-32326377D01*
X225156449Y-32153551D01*
X224983623Y-32011716D01*
X224786447Y-31906324D01*
X224572499Y-31841423D01*
X224350000Y-31819509D01*
X224127502Y-31841423D01*
X224049780Y-31865000D01*
X221160000Y-31865000D01*
X221160000Y-30809443D01*
X221170472Y-30789851D01*
X221221008Y-30623255D01*
X221238072Y-30450001D01*
X221238072Y-29549999D01*
X221221008Y-29376745D01*
X221170472Y-29210149D01*
X221088405Y-29056613D01*
X220977962Y-28922038D01*
X220843387Y-28811595D01*
X220689851Y-28729528D01*
X220523255Y-28678992D01*
X220350001Y-28661928D01*
X219699999Y-28661928D01*
X219526745Y-28678992D01*
X219360149Y-28729528D01*
X219206613Y-28811595D01*
X219072038Y-28922038D01*
X219000000Y-29009816D01*
X218927962Y-28922038D01*
X218793387Y-28811595D01*
X218639851Y-28729528D01*
X218473255Y-28678992D01*
X218300001Y-28661928D01*
X217649999Y-28661928D01*
X217476745Y-28678992D01*
X217310149Y-28729528D01*
X217156613Y-28811595D01*
X217022038Y-28922038D01*
X216911595Y-29056613D01*
X216880386Y-29115000D01*
X216813469Y-29115000D01*
X216770000Y-29110719D01*
X216726531Y-29115000D01*
X216726523Y-29115000D01*
X216596510Y-29127805D01*
X216429687Y-29178411D01*
X216349660Y-29221186D01*
X216275941Y-29260589D01*
X216174953Y-29343468D01*
X216174951Y-29343470D01*
X216141183Y-29371183D01*
X216113470Y-29404951D01*
X215874956Y-29643465D01*
X215818102Y-29654774D01*
X215629744Y-29732795D01*
X215460226Y-29846063D01*
X215316063Y-29990226D01*
X215202795Y-30159744D01*
X215124774Y-30348102D01*
X215085000Y-30548061D01*
X215085000Y-30751939D01*
X215124774Y-30951898D01*
X215202795Y-31140256D01*
X215316063Y-31309774D01*
X215460226Y-31453937D01*
X215629744Y-31567205D01*
X215818102Y-31645226D01*
X216018061Y-31685000D01*
X216221939Y-31685000D01*
X216421898Y-31645226D01*
X216610256Y-31567205D01*
X216779774Y-31453937D01*
X216923937Y-31309774D01*
X217037205Y-31140256D01*
X217052614Y-31103055D01*
X217156613Y-31188405D01*
X217310149Y-31270472D01*
X217476745Y-31321008D01*
X217649999Y-31338072D01*
X218300001Y-31338072D01*
X218473255Y-31321008D01*
X218639851Y-31270472D01*
X218793387Y-31188405D01*
X218890001Y-31109116D01*
X218890000Y-31890884D01*
X218793387Y-31811595D01*
X218639851Y-31729528D01*
X218473255Y-31678992D01*
X218300001Y-31661928D01*
X217649999Y-31661928D01*
X217476745Y-31678992D01*
X217310149Y-31729528D01*
X217156613Y-31811595D01*
X217022038Y-31922038D01*
X216911595Y-32056613D01*
X216880386Y-32115000D01*
X216823469Y-32115000D01*
X216780000Y-32110719D01*
X216736531Y-32115000D01*
X216736523Y-32115000D01*
X216606510Y-32127805D01*
X216439687Y-32178411D01*
X216380309Y-32210149D01*
X216285941Y-32260589D01*
X216184953Y-32343468D01*
X216184951Y-32343470D01*
X216151183Y-32371183D01*
X216123470Y-32404951D01*
X215744956Y-32783465D01*
X215688102Y-32794774D01*
X215499744Y-32872795D01*
X215330226Y-32986063D01*
X215186063Y-33130226D01*
X215072795Y-33299744D01*
X214994774Y-33488102D01*
X214955000Y-33688061D01*
X199769640Y-33688061D01*
X199726535Y-33644957D01*
X199715226Y-33588102D01*
X199637205Y-33399744D01*
X199523937Y-33230226D01*
X199379774Y-33086063D01*
X199210256Y-32972795D01*
X199021898Y-32894774D01*
X198821939Y-32855000D01*
X198618061Y-32855000D01*
X198418102Y-32894774D01*
X198335000Y-32929196D01*
X198335000Y-32872998D01*
X198176252Y-32872998D01*
X198335000Y-32714250D01*
X198338072Y-32400000D01*
X198325812Y-32275518D01*
X198289502Y-32155820D01*
X198230537Y-32045506D01*
X198151185Y-31948815D01*
X198054494Y-31869463D01*
X197944180Y-31810498D01*
X197824482Y-31774188D01*
X197700000Y-31761928D01*
X197285750Y-31765000D01*
X197127000Y-31923750D01*
X197127000Y-32873000D01*
X197147000Y-32873000D01*
X197147000Y-33127000D01*
X197127000Y-33127000D01*
X197127000Y-33147000D01*
X196873000Y-33147000D01*
X196873000Y-33127000D01*
X195823750Y-33127000D01*
X195665000Y-33285750D01*
X195661928Y-33600000D01*
X195674188Y-33724482D01*
X195710498Y-33844180D01*
X195769463Y-33954494D01*
X195848815Y-34051185D01*
X195878276Y-34075363D01*
X195811595Y-34156613D01*
X195729528Y-34310149D01*
X195678992Y-34476745D01*
X195661928Y-34649999D01*
X195661928Y-35350001D01*
X195662986Y-35360741D01*
X195609744Y-35382795D01*
X195440226Y-35496063D01*
X195361033Y-35575256D01*
X195363072Y-35375000D01*
X195350812Y-35250518D01*
X195314502Y-35130820D01*
X195255537Y-35020506D01*
X195176185Y-34923815D01*
X195079494Y-34844463D01*
X194969180Y-34785498D01*
X194849482Y-34749188D01*
X194725000Y-34736928D01*
X194285750Y-34740000D01*
X194127000Y-34898750D01*
X194127000Y-35835500D01*
X194147000Y-35835500D01*
X194147000Y-36089500D01*
X194127000Y-36089500D01*
X194127000Y-36109500D01*
X193873000Y-36109500D01*
X193873000Y-36089500D01*
X192127000Y-36089500D01*
X192127000Y-36109500D01*
X191873000Y-36109500D01*
X191873000Y-36089500D01*
X191853000Y-36089500D01*
X191853000Y-35835500D01*
X191873000Y-35835500D01*
X191873000Y-34898750D01*
X191714250Y-34740000D01*
X191617601Y-34739324D01*
X191717205Y-34590256D01*
X191795226Y-34401898D01*
X191835000Y-34201939D01*
X191835000Y-33998061D01*
X191795226Y-33798102D01*
X191770361Y-33738072D01*
X191770438Y-33738072D01*
X191830438Y-33798073D01*
X191830438Y-33895565D01*
X191870212Y-34095524D01*
X191948233Y-34283882D01*
X192061501Y-34453400D01*
X192205664Y-34597563D01*
X192375182Y-34710831D01*
X192442948Y-34738901D01*
X192285750Y-34740000D01*
X192127000Y-34898750D01*
X192127000Y-35835500D01*
X193873000Y-35835500D01*
X193873000Y-34898750D01*
X193714250Y-34740000D01*
X193292397Y-34737050D01*
X193355694Y-34710831D01*
X193525212Y-34597563D01*
X193669375Y-34453400D01*
X193782643Y-34283882D01*
X193860664Y-34095524D01*
X193900438Y-33895565D01*
X193900438Y-33691687D01*
X193860664Y-33491728D01*
X193801367Y-33348572D01*
X193836132Y-33372142D01*
X194087316Y-33478173D01*
X194158815Y-33492318D01*
X194373000Y-33369656D01*
X194373000Y-31427000D01*
X194627000Y-31427000D01*
X194627000Y-33369656D01*
X194841185Y-33492318D01*
X194912684Y-33478173D01*
X195163868Y-33372142D01*
X195389540Y-33219145D01*
X195581028Y-33025061D01*
X195730972Y-32797349D01*
X195735921Y-32785171D01*
X195823750Y-32873000D01*
X196873000Y-32873000D01*
X196873000Y-31923750D01*
X196714250Y-31765000D01*
X196300000Y-31761928D01*
X196175518Y-31774188D01*
X196055820Y-31810498D01*
X195945506Y-31869463D01*
X195885000Y-31919119D01*
X195885000Y-31427000D01*
X194627000Y-31427000D01*
X194373000Y-31427000D01*
X194353000Y-31427000D01*
X194353000Y-31173000D01*
X194373000Y-31173000D01*
X194373000Y-31153000D01*
X194627000Y-31153000D01*
X194627000Y-31173000D01*
X195885000Y-31173000D01*
X195885000Y-30323000D01*
X195833611Y-30055240D01*
X195730972Y-29802651D01*
X195581028Y-29574939D01*
X195389540Y-29380855D01*
X195163868Y-29227858D01*
X194912684Y-29121827D01*
X194911701Y-29121633D01*
X195055231Y-29062180D01*
X195224749Y-28948912D01*
X195368912Y-28804749D01*
X195482180Y-28635231D01*
X195560201Y-28446873D01*
X195599975Y-28246914D01*
X195599975Y-28043036D01*
X195560201Y-27843077D01*
X195556855Y-27835000D01*
X197861928Y-27835000D01*
X197861928Y-28500000D01*
X197874188Y-28624482D01*
X197910498Y-28744180D01*
X197969463Y-28854494D01*
X198048815Y-28951185D01*
X198145506Y-29030537D01*
X198255820Y-29089502D01*
X198375518Y-29125812D01*
X198500000Y-29138072D01*
X199500000Y-29138072D01*
X199624482Y-29125812D01*
X199744180Y-29089502D01*
X199854494Y-29030537D01*
X199951185Y-28951185D01*
X200030537Y-28854494D01*
X200089502Y-28744180D01*
X200125812Y-28624482D01*
X200138072Y-28500000D01*
X200138072Y-27500000D01*
X200125812Y-27375518D01*
X200089502Y-27255820D01*
X200030537Y-27145506D01*
X199951185Y-27048815D01*
X199854494Y-26969463D01*
X199744180Y-26910498D01*
X199624482Y-26874188D01*
X199500000Y-26861928D01*
X199401374Y-26861928D01*
X199145259Y-26605813D01*
X199122238Y-26577762D01*
X199010320Y-26485913D01*
X198882633Y-26417663D01*
X198744085Y-26375635D01*
X198636105Y-26365000D01*
X198600000Y-26361444D01*
X198563895Y-26365000D01*
X195821323Y-26365000D01*
X195833611Y-26334760D01*
X195885000Y-26067000D01*
X195885000Y-25467000D01*
X194627000Y-25467000D01*
X194627000Y-25487000D01*
X194373000Y-25487000D01*
X194373000Y-25467000D01*
X193115000Y-25467000D01*
X193115000Y-26067000D01*
X193166389Y-26334760D01*
X193178677Y-26365000D01*
X189236096Y-26365000D01*
X189199999Y-26361445D01*
X189163902Y-26365000D01*
X189163895Y-26365000D01*
X189070132Y-26374235D01*
X189055914Y-26375635D01*
X189013886Y-26388384D01*
X188917367Y-26417663D01*
X188789680Y-26485913D01*
X188677762Y-26577762D01*
X188654741Y-26605813D01*
X188255808Y-27004746D01*
X188227763Y-27027762D01*
X188135914Y-27139680D01*
X188080108Y-27244086D01*
X188067664Y-27267367D01*
X188025635Y-27405915D01*
X188011444Y-27550000D01*
X188015001Y-27586115D01*
X188015000Y-29870299D01*
X187997892Y-29871984D01*
X187931750Y-29865000D01*
X187899503Y-29897247D01*
X187855820Y-29910498D01*
X187750000Y-29967061D01*
X187644180Y-29910498D01*
X187600497Y-29897247D01*
X187568250Y-29865000D01*
X187502108Y-29871984D01*
X187400000Y-29861928D01*
X187100000Y-29861928D01*
X187000000Y-29871777D01*
X186900000Y-29861928D01*
X186600000Y-29861928D01*
X186497892Y-29871984D01*
X186431750Y-29865000D01*
X186399503Y-29897247D01*
X186355820Y-29910498D01*
X186250000Y-29967061D01*
X186144180Y-29910498D01*
X186100497Y-29897247D01*
X186068250Y-29865000D01*
X186002108Y-29871984D01*
X185900000Y-29861928D01*
X185600000Y-29861928D01*
X185500000Y-29871777D01*
X185400000Y-29861928D01*
X185100000Y-29861928D01*
X184997892Y-29871984D01*
X184931750Y-29865000D01*
X184899503Y-29897247D01*
X184855820Y-29910498D01*
X184750000Y-29967061D01*
X184644180Y-29910498D01*
X184600497Y-29897247D01*
X184568250Y-29865000D01*
X184502108Y-29871984D01*
X184400000Y-29861928D01*
X184100000Y-29861928D01*
X184000000Y-29871777D01*
X183900000Y-29861928D01*
X183600000Y-29861928D01*
X183497892Y-29871984D01*
X183431750Y-29865000D01*
X183399503Y-29897247D01*
X183355820Y-29910498D01*
X183250000Y-29967061D01*
X183144180Y-29910498D01*
X183100497Y-29897247D01*
X183068250Y-29865000D01*
X183002108Y-29871984D01*
X182900000Y-29861928D01*
X182600000Y-29861928D01*
X182475518Y-29874188D01*
X182355820Y-29910498D01*
X182245506Y-29969463D01*
X182148815Y-30048815D01*
X182069463Y-30145506D01*
X182010498Y-30255820D01*
X181974188Y-30375518D01*
X181961928Y-30500000D01*
X181961928Y-33100000D01*
X181974188Y-33224482D01*
X182010498Y-33344180D01*
X182018199Y-33358587D01*
X182025635Y-33434087D01*
X182033547Y-33460169D01*
X182067663Y-33572634D01*
X182135913Y-33700321D01*
X182227762Y-33812239D01*
X182255808Y-33835256D01*
X182365000Y-33944448D01*
X182365000Y-34544665D01*
X182348518Y-34546288D01*
X182228820Y-34582598D01*
X182224404Y-34584958D01*
X182145258Y-34505812D01*
X182122238Y-34477762D01*
X182010320Y-34385913D01*
X181882633Y-34317663D01*
X181744085Y-34275635D01*
X181636105Y-34265000D01*
X181600000Y-34261444D01*
X181563895Y-34265000D01*
X180219694Y-34265000D01*
X180195472Y-34185150D01*
X180113405Y-34031614D01*
X180055745Y-33961355D01*
X180105226Y-33841898D01*
X180145000Y-33641939D01*
X180145000Y-33438061D01*
X180131958Y-33372496D01*
X180341185Y-33492318D01*
X180412684Y-33478173D01*
X180663868Y-33372142D01*
X180889540Y-33219145D01*
X181081028Y-33025061D01*
X181230972Y-32797349D01*
X181333611Y-32544760D01*
X181385000Y-32277000D01*
X181385000Y-31427000D01*
X180127000Y-31427000D01*
X180127000Y-31447000D01*
X179873000Y-31447000D01*
X179873000Y-31427000D01*
X178615000Y-31427000D01*
X178615000Y-32277000D01*
X178666389Y-32544760D01*
X178686810Y-32595015D01*
X178619744Y-32622795D01*
X178450226Y-32736063D01*
X178306063Y-32880226D01*
X178192795Y-33049744D01*
X178114774Y-33238102D01*
X178075000Y-33438061D01*
X178075000Y-33641939D01*
X178114774Y-33841898D01*
X178120978Y-33856875D01*
X178072038Y-33897038D01*
X178066658Y-33903594D01*
X178001185Y-33823815D01*
X177904494Y-33744463D01*
X177794180Y-33685498D01*
X177674482Y-33649188D01*
X177550000Y-33636928D01*
X177248250Y-33640000D01*
X177089500Y-33798750D01*
X177089500Y-34873000D01*
X177109500Y-34873000D01*
X177109500Y-35127000D01*
X177089500Y-35127000D01*
X177089500Y-36873000D01*
X177109500Y-36873000D01*
X177109500Y-37127000D01*
X177089500Y-37127000D01*
X177089500Y-37147000D01*
X176835500Y-37147000D01*
X176835500Y-37127000D01*
X175898750Y-37127000D01*
X175740000Y-37285750D01*
X175736928Y-37725000D01*
X175749188Y-37849482D01*
X175749263Y-37849729D01*
X175363876Y-37849729D01*
X175327771Y-37846173D01*
X175291666Y-37849729D01*
X175183686Y-37860364D01*
X175096116Y-37886928D01*
X174662500Y-37886928D01*
X174491684Y-37903752D01*
X174327433Y-37953577D01*
X174176058Y-38034488D01*
X174043377Y-38143377D01*
X174006086Y-38188816D01*
X174075226Y-38021898D01*
X174115000Y-37821939D01*
X174115000Y-37618061D01*
X174075226Y-37418102D01*
X173997205Y-37229744D01*
X173883937Y-37060226D01*
X173739774Y-36916063D01*
X173570256Y-36802795D01*
X173381898Y-36724774D01*
X173181939Y-36685000D01*
X172978061Y-36685000D01*
X172778102Y-36724774D01*
X172589744Y-36802795D01*
X172420226Y-36916063D01*
X172276063Y-37060226D01*
X172162795Y-37229744D01*
X172084774Y-37418102D01*
X172045000Y-37618061D01*
X172045000Y-37821939D01*
X172084774Y-38021898D01*
X172162795Y-38210256D01*
X172163107Y-38210723D01*
X172109488Y-38276058D01*
X172028577Y-38427433D01*
X171978752Y-38591684D01*
X171961928Y-38762500D01*
X171961928Y-39237500D01*
X171978752Y-39408316D01*
X172028577Y-39572567D01*
X172109488Y-39723942D01*
X172218377Y-39856623D01*
X172351058Y-39965512D01*
X172352500Y-39966283D01*
X172352501Y-40033717D01*
X172351058Y-40034488D01*
X172218377Y-40143377D01*
X172109488Y-40276058D01*
X172028577Y-40427433D01*
X171978752Y-40591684D01*
X171961928Y-40762500D01*
X171961928Y-41237500D01*
X171978752Y-41408316D01*
X172028577Y-41572567D01*
X172109488Y-41723942D01*
X172218377Y-41856623D01*
X172351058Y-41965512D01*
X172502433Y-42046423D01*
X172666684Y-42096248D01*
X172837500Y-42113072D01*
X173337500Y-42113072D01*
X173508316Y-42096248D01*
X173672567Y-42046423D01*
X173823942Y-41965512D01*
X173956623Y-41856623D01*
X174000000Y-41803768D01*
X174043377Y-41856623D01*
X174176058Y-41965512D01*
X174327433Y-42046423D01*
X174491684Y-42096248D01*
X174662500Y-42113072D01*
X175162500Y-42113072D01*
X175333316Y-42096248D01*
X175497567Y-42046423D01*
X175636928Y-41971934D01*
X175636928Y-42300000D01*
X175653992Y-42473254D01*
X175704528Y-42639850D01*
X175786595Y-42793386D01*
X175897038Y-42927962D01*
X175903594Y-42933342D01*
X175823815Y-42998815D01*
X175744463Y-43095506D01*
X175685498Y-43205820D01*
X175649188Y-43325518D01*
X175636928Y-43450000D01*
X175640000Y-43751750D01*
X175798750Y-43910500D01*
X176873000Y-43910500D01*
X176873000Y-43890500D01*
X177127000Y-43890500D01*
X177127000Y-43910500D01*
X178873000Y-43910500D01*
X178873000Y-43890500D01*
X179127000Y-43890500D01*
X179127000Y-43910500D01*
X179147000Y-43910500D01*
X179147000Y-44164500D01*
X179127000Y-44164500D01*
X179127000Y-44184500D01*
X178873000Y-44184500D01*
X178873000Y-44164500D01*
X177127000Y-44164500D01*
X177127000Y-44184500D01*
X176873000Y-44184500D01*
X176873000Y-44164500D01*
X175798750Y-44164500D01*
X175640000Y-44323250D01*
X175636928Y-44625000D01*
X175638367Y-44639609D01*
X175375000Y-44636928D01*
X175250518Y-44649188D01*
X175130820Y-44685498D01*
X175020506Y-44744463D01*
X174923815Y-44823815D01*
X174844463Y-44920506D01*
X174785498Y-45030820D01*
X174749188Y-45150518D01*
X174736928Y-45275000D01*
X174740000Y-45714250D01*
X174898750Y-45873000D01*
X175835500Y-45873000D01*
X175835500Y-45853000D01*
X176089500Y-45853000D01*
X176089500Y-45873000D01*
X176109500Y-45873000D01*
X176109500Y-46127000D01*
X176089500Y-46127000D01*
X176089500Y-47201250D01*
X176248250Y-47360000D01*
X176550000Y-47363072D01*
X176674482Y-47350812D01*
X176794180Y-47314502D01*
X176904494Y-47255537D01*
X177001185Y-47176185D01*
X177066658Y-47096406D01*
X177072038Y-47102962D01*
X177206614Y-47213405D01*
X177360150Y-47295472D01*
X177526746Y-47346008D01*
X177700000Y-47363072D01*
X178375000Y-47363072D01*
X178548254Y-47346008D01*
X178714850Y-47295472D01*
X178868386Y-47213405D01*
X179002962Y-47102962D01*
X179113405Y-46968386D01*
X179195472Y-46814850D01*
X179222268Y-46726514D01*
X179244085Y-46724365D01*
X179382633Y-46682337D01*
X179510320Y-46614087D01*
X179622238Y-46522238D01*
X179645259Y-46494187D01*
X180739199Y-45400247D01*
X180736928Y-45725000D01*
X180749188Y-45849482D01*
X180785498Y-45969180D01*
X180801972Y-46000000D01*
X180785498Y-46030820D01*
X180749188Y-46150518D01*
X180736928Y-46275000D01*
X180740000Y-46714250D01*
X180898750Y-46873000D01*
X181835500Y-46873000D01*
X181835500Y-45127000D01*
X181815500Y-45127000D01*
X181815500Y-44873000D01*
X181835500Y-44873000D01*
X181835500Y-44853000D01*
X182089500Y-44853000D01*
X182089500Y-44873000D01*
X182109500Y-44873000D01*
X182109500Y-45127000D01*
X182089500Y-45127000D01*
X182089500Y-46873000D01*
X182109500Y-46873000D01*
X182109500Y-47127000D01*
X182089500Y-47127000D01*
X182089500Y-47147000D01*
X181835500Y-47147000D01*
X181835500Y-47127000D01*
X180898750Y-47127000D01*
X180740000Y-47285750D01*
X180736928Y-47725000D01*
X180749188Y-47849482D01*
X180785498Y-47969180D01*
X180844463Y-48079494D01*
X180923815Y-48176185D01*
X181020506Y-48255537D01*
X181130820Y-48314502D01*
X181214876Y-48340000D01*
X168032279Y-48340000D01*
X167740340Y-48311375D01*
X167490571Y-48235965D01*
X167260206Y-48113477D01*
X167058021Y-47948579D01*
X166891712Y-47747546D01*
X166767622Y-47518046D01*
X166690469Y-47268805D01*
X166660000Y-46978911D01*
X166660000Y-46725000D01*
X174736928Y-46725000D01*
X174749188Y-46849482D01*
X174785498Y-46969180D01*
X174844463Y-47079494D01*
X174923815Y-47176185D01*
X175020506Y-47255537D01*
X175130820Y-47314502D01*
X175250518Y-47350812D01*
X175375000Y-47363072D01*
X175676750Y-47360000D01*
X175835500Y-47201250D01*
X175835500Y-46127000D01*
X174898750Y-46127000D01*
X174740000Y-46285750D01*
X174736928Y-46725000D01*
X166660000Y-46725000D01*
X166660000Y-35725000D01*
X175736928Y-35725000D01*
X175749188Y-35849482D01*
X175785498Y-35969180D01*
X175801972Y-36000000D01*
X175785498Y-36030820D01*
X175749188Y-36150518D01*
X175736928Y-36275000D01*
X175740000Y-36714250D01*
X175898750Y-36873000D01*
X176835500Y-36873000D01*
X176835500Y-35127000D01*
X175898750Y-35127000D01*
X175740000Y-35285750D01*
X175736928Y-35725000D01*
X166660000Y-35725000D01*
X166660000Y-34275000D01*
X175736928Y-34275000D01*
X175740000Y-34714250D01*
X175898750Y-34873000D01*
X176835500Y-34873000D01*
X176835500Y-33798750D01*
X176676750Y-33640000D01*
X176375000Y-33636928D01*
X176250518Y-33649188D01*
X176130820Y-33685498D01*
X176020506Y-33744463D01*
X175923815Y-33823815D01*
X175844463Y-33920506D01*
X175785498Y-34030820D01*
X175749188Y-34150518D01*
X175736928Y-34275000D01*
X166660000Y-34275000D01*
X166660000Y-28779872D01*
X166765000Y-28779872D01*
X166765000Y-29220128D01*
X166850890Y-29651925D01*
X167019369Y-30058669D01*
X167263962Y-30424729D01*
X167575271Y-30736038D01*
X167941331Y-30980631D01*
X168348075Y-31149110D01*
X168779872Y-31235000D01*
X169220128Y-31235000D01*
X169651925Y-31149110D01*
X170058669Y-30980631D01*
X170424729Y-30736038D01*
X170736038Y-30424729D01*
X170804011Y-30323000D01*
X178615000Y-30323000D01*
X178615000Y-31173000D01*
X179873000Y-31173000D01*
X179873000Y-29230344D01*
X180127000Y-29230344D01*
X180127000Y-31173000D01*
X181385000Y-31173000D01*
X181385000Y-30323000D01*
X181342999Y-30104157D01*
X181498061Y-30135000D01*
X181701939Y-30135000D01*
X181901898Y-30095226D01*
X182090256Y-30017205D01*
X182259774Y-29903937D01*
X182403937Y-29759774D01*
X182517205Y-29590256D01*
X182595226Y-29401898D01*
X182631172Y-29221186D01*
X182708078Y-29221186D01*
X182908037Y-29181412D01*
X183096395Y-29103391D01*
X183265913Y-28990123D01*
X183410076Y-28845960D01*
X183523344Y-28676442D01*
X183601365Y-28488084D01*
X183641139Y-28288125D01*
X183641139Y-28084247D01*
X183601365Y-27884288D01*
X183523344Y-27695930D01*
X183410076Y-27526412D01*
X183265913Y-27382249D01*
X183096395Y-27268981D01*
X182908037Y-27190960D01*
X182708078Y-27151186D01*
X182504200Y-27151186D01*
X182304241Y-27190960D01*
X182115883Y-27268981D01*
X181946365Y-27382249D01*
X181802202Y-27526412D01*
X181688934Y-27695930D01*
X181610913Y-27884288D01*
X181574967Y-28065000D01*
X181498061Y-28065000D01*
X181298102Y-28104774D01*
X181109744Y-28182795D01*
X180940226Y-28296063D01*
X180796063Y-28440226D01*
X180682795Y-28609744D01*
X180604774Y-28798102D01*
X180565000Y-28998061D01*
X180565000Y-29186123D01*
X180412684Y-29121827D01*
X180341185Y-29107682D01*
X180127000Y-29230344D01*
X179873000Y-29230344D01*
X179658815Y-29107682D01*
X179587316Y-29121827D01*
X179336132Y-29227858D01*
X179110460Y-29380855D01*
X178918972Y-29574939D01*
X178769028Y-29802651D01*
X178666389Y-30055240D01*
X178615000Y-30323000D01*
X170804011Y-30323000D01*
X170980631Y-30058669D01*
X171149110Y-29651925D01*
X171235000Y-29220128D01*
X171235000Y-28779872D01*
X171149110Y-28348075D01*
X170980631Y-27941331D01*
X170736038Y-27575271D01*
X170424729Y-27263962D01*
X170058669Y-27019369D01*
X169651925Y-26850890D01*
X169220128Y-26765000D01*
X168779872Y-26765000D01*
X168348075Y-26850890D01*
X167941331Y-27019369D01*
X167575271Y-27263962D01*
X167263962Y-27575271D01*
X167019369Y-27941331D01*
X166850890Y-28348075D01*
X166765000Y-28779872D01*
X166660000Y-28779872D01*
X166660000Y-25467000D01*
X178615000Y-25467000D01*
X178615000Y-26067000D01*
X178666389Y-26334760D01*
X178769028Y-26587349D01*
X178918972Y-26815061D01*
X179110460Y-27009145D01*
X179336132Y-27162142D01*
X179587316Y-27268173D01*
X179658815Y-27282318D01*
X179873000Y-27159656D01*
X179873000Y-25467000D01*
X180127000Y-25467000D01*
X180127000Y-27159656D01*
X180341185Y-27282318D01*
X180412684Y-27268173D01*
X180663868Y-27162142D01*
X180889540Y-27009145D01*
X181081028Y-26815061D01*
X181230972Y-26587349D01*
X181333611Y-26334760D01*
X181385000Y-26067000D01*
X181385000Y-25798061D01*
X186065000Y-25798061D01*
X186065000Y-26001939D01*
X186104774Y-26201898D01*
X186182795Y-26390256D01*
X186296063Y-26559774D01*
X186440226Y-26703937D01*
X186609744Y-26817205D01*
X186798102Y-26895226D01*
X186998061Y-26935000D01*
X187201939Y-26935000D01*
X187401898Y-26895226D01*
X187590256Y-26817205D01*
X187759774Y-26703937D01*
X187903937Y-26559774D01*
X188017205Y-26390256D01*
X188095226Y-26201898D01*
X188104642Y-26154562D01*
X188142434Y-26170216D01*
X188342393Y-26209990D01*
X188546271Y-26209990D01*
X188746230Y-26170216D01*
X188934588Y-26092195D01*
X189104106Y-25978927D01*
X189248269Y-25834764D01*
X189361537Y-25665246D01*
X189439558Y-25476888D01*
X189479332Y-25276929D01*
X189479332Y-25073051D01*
X189439558Y-24873092D01*
X189361537Y-24684734D01*
X189313607Y-24613000D01*
X193115000Y-24613000D01*
X193115000Y-25213000D01*
X194373000Y-25213000D01*
X194373000Y-23520344D01*
X194627000Y-23520344D01*
X194627000Y-25213000D01*
X195885000Y-25213000D01*
X195885000Y-24779872D01*
X218765000Y-24779872D01*
X218765000Y-25220128D01*
X218850890Y-25651925D01*
X219019369Y-26058669D01*
X219263962Y-26424729D01*
X219575271Y-26736038D01*
X219941331Y-26980631D01*
X220348075Y-27149110D01*
X220779872Y-27235000D01*
X221220128Y-27235000D01*
X221651925Y-27149110D01*
X222058669Y-26980631D01*
X222424729Y-26736038D01*
X222736038Y-26424729D01*
X222980631Y-26058669D01*
X223149110Y-25651925D01*
X223235000Y-25220128D01*
X223235000Y-24779872D01*
X223149110Y-24348075D01*
X222980631Y-23941331D01*
X222792652Y-23660000D01*
X241183572Y-23660000D01*
X241183572Y-27480000D01*
X245396429Y-27480000D01*
X245396429Y-23660000D01*
X241183572Y-23660000D01*
X222792652Y-23660000D01*
X222736038Y-23575271D01*
X222424729Y-23263962D01*
X222058669Y-23019369D01*
X221651925Y-22850890D01*
X221220128Y-22765000D01*
X220779872Y-22765000D01*
X220348075Y-22850890D01*
X219941331Y-23019369D01*
X219575271Y-23263962D01*
X219263962Y-23575271D01*
X219019369Y-23941331D01*
X218850890Y-24348075D01*
X218765000Y-24779872D01*
X195885000Y-24779872D01*
X195885000Y-24613000D01*
X195833611Y-24345240D01*
X195730972Y-24092651D01*
X195581028Y-23864939D01*
X195389540Y-23670855D01*
X195163868Y-23517858D01*
X194912684Y-23411827D01*
X194841185Y-23397682D01*
X194627000Y-23520344D01*
X194373000Y-23520344D01*
X194158815Y-23397682D01*
X194087316Y-23411827D01*
X193836132Y-23517858D01*
X193610460Y-23670855D01*
X193418972Y-23864939D01*
X193269028Y-24092651D01*
X193166389Y-24345240D01*
X193115000Y-24613000D01*
X189313607Y-24613000D01*
X189248269Y-24515216D01*
X189104106Y-24371053D01*
X188934588Y-24257785D01*
X188746230Y-24179764D01*
X188546271Y-24139990D01*
X188342393Y-24139990D01*
X188142434Y-24179764D01*
X187954076Y-24257785D01*
X187784558Y-24371053D01*
X187640395Y-24515216D01*
X187527127Y-24684734D01*
X187449106Y-24873092D01*
X187439690Y-24920428D01*
X187401898Y-24904774D01*
X187201939Y-24865000D01*
X186998061Y-24865000D01*
X186798102Y-24904774D01*
X186609744Y-24982795D01*
X186440226Y-25096063D01*
X186296063Y-25240226D01*
X186182795Y-25409744D01*
X186104774Y-25598102D01*
X186065000Y-25798061D01*
X181385000Y-25798061D01*
X181385000Y-25467000D01*
X180127000Y-25467000D01*
X179873000Y-25467000D01*
X178615000Y-25467000D01*
X166660000Y-25467000D01*
X166660000Y-24613000D01*
X178615000Y-24613000D01*
X178615000Y-25213000D01*
X179873000Y-25213000D01*
X179873000Y-23520344D01*
X180127000Y-23520344D01*
X180127000Y-25213000D01*
X181385000Y-25213000D01*
X181385000Y-24613000D01*
X181333611Y-24345240D01*
X181230972Y-24092651D01*
X181081028Y-23864939D01*
X180889540Y-23670855D01*
X180663868Y-23517858D01*
X180412684Y-23411827D01*
X180341185Y-23397682D01*
X180127000Y-23520344D01*
X179873000Y-23520344D01*
X179658815Y-23397682D01*
X179587316Y-23411827D01*
X179336132Y-23517858D01*
X179110460Y-23670855D01*
X178918972Y-23864939D01*
X178769028Y-24092651D01*
X178666389Y-24345240D01*
X178615000Y-24613000D01*
X166660000Y-24613000D01*
X166660000Y-24032279D01*
X166688625Y-23740341D01*
X166764035Y-23490571D01*
X166886522Y-23260208D01*
X167051422Y-23058020D01*
X167252450Y-22891714D01*
X167481954Y-22767622D01*
X167731195Y-22690469D01*
X168021088Y-22660000D01*
X244967721Y-22660000D01*
X245259659Y-22688625D01*
G37*
%TD.AperFunction*%
D26*
X185315001Y-47641719D02*
X185311444Y-47677834D01*
X185325635Y-47821919D01*
X185353453Y-47913620D01*
X185361452Y-47939990D01*
X185128583Y-47939990D01*
X185195472Y-47814850D01*
X185246008Y-47648254D01*
X185263072Y-47475000D01*
X185263072Y-47035000D01*
X185301939Y-47035000D01*
X185315001Y-47032402D01*
X185315001Y-47641719D01*
%TA.AperFunction,Conductor*%
D27*
G36*
X185315001Y-47641719D02*
G01*
X185311444Y-47677834D01*
X185325635Y-47821919D01*
X185353453Y-47913620D01*
X185361452Y-47939990D01*
X185128583Y-47939990D01*
X185195472Y-47814850D01*
X185246008Y-47648254D01*
X185263072Y-47475000D01*
X185263072Y-47035000D01*
X185301939Y-47035000D01*
X185315001Y-47032402D01*
X185315001Y-47641719D01*
G37*
%TD.AperFunction*%
D26*
X190377367Y-44372337D02*
X190448118Y-44393799D01*
X190515914Y-44414365D01*
X190530132Y-44415765D01*
X190623895Y-44425000D01*
X190623902Y-44425000D01*
X190659999Y-44428555D01*
X190696096Y-44425000D01*
X191315000Y-44425000D01*
X191315001Y-46853885D01*
X191311444Y-46890000D01*
X191325635Y-47034085D01*
X191359108Y-47144429D01*
X191367664Y-47172633D01*
X191435914Y-47300320D01*
X191456168Y-47325000D01*
X190260275Y-47325000D01*
X190260000Y-47285750D01*
X190101250Y-47127000D01*
X189164500Y-47127000D01*
X189164500Y-47147000D01*
X188910500Y-47147000D01*
X188910500Y-47127000D01*
X188890500Y-47127000D01*
X188890500Y-46873000D01*
X188910500Y-46873000D01*
X188910500Y-46500291D01*
X188917205Y-46490256D01*
X188995226Y-46301898D01*
X189035000Y-46101939D01*
X189035000Y-45898061D01*
X188995226Y-45698102D01*
X188917205Y-45509744D01*
X188910500Y-45499709D01*
X188910500Y-45127000D01*
X189164500Y-45127000D01*
X189164500Y-46873000D01*
X190101250Y-46873000D01*
X190260000Y-46714250D01*
X190263072Y-46275000D01*
X190250812Y-46150518D01*
X190214502Y-46030820D01*
X190198028Y-46000000D01*
X190214502Y-45969180D01*
X190250812Y-45849482D01*
X190263072Y-45725000D01*
X190260000Y-45285750D01*
X190101250Y-45127000D01*
X189164500Y-45127000D01*
X188910500Y-45127000D01*
X188890500Y-45127000D01*
X188890500Y-44873000D01*
X188910500Y-44873000D01*
X188910500Y-44853000D01*
X189164500Y-44853000D01*
X189164500Y-44873000D01*
X190101250Y-44873000D01*
X190260000Y-44714250D01*
X190262819Y-44311110D01*
X190377367Y-44372337D01*
%TA.AperFunction,Conductor*%
D27*
G36*
X190377367Y-44372337D02*
G01*
X190448118Y-44393799D01*
X190515914Y-44414365D01*
X190530132Y-44415765D01*
X190623895Y-44425000D01*
X190623902Y-44425000D01*
X190659999Y-44428555D01*
X190696096Y-44425000D01*
X191315000Y-44425000D01*
X191315001Y-46853885D01*
X191311444Y-46890000D01*
X191325635Y-47034085D01*
X191359108Y-47144429D01*
X191367664Y-47172633D01*
X191435914Y-47300320D01*
X191456168Y-47325000D01*
X190260275Y-47325000D01*
X190260000Y-47285750D01*
X190101250Y-47127000D01*
X189164500Y-47127000D01*
X189164500Y-47147000D01*
X188910500Y-47147000D01*
X188910500Y-47127000D01*
X188890500Y-47127000D01*
X188890500Y-46873000D01*
X188910500Y-46873000D01*
X188910500Y-46500291D01*
X188917205Y-46490256D01*
X188995226Y-46301898D01*
X189035000Y-46101939D01*
X189035000Y-45898061D01*
X188995226Y-45698102D01*
X188917205Y-45509744D01*
X188910500Y-45499709D01*
X188910500Y-45127000D01*
X189164500Y-45127000D01*
X189164500Y-46873000D01*
X190101250Y-46873000D01*
X190260000Y-46714250D01*
X190263072Y-46275000D01*
X190250812Y-46150518D01*
X190214502Y-46030820D01*
X190198028Y-46000000D01*
X190214502Y-45969180D01*
X190250812Y-45849482D01*
X190263072Y-45725000D01*
X190260000Y-45285750D01*
X190101250Y-45127000D01*
X189164500Y-45127000D01*
X188910500Y-45127000D01*
X188890500Y-45127000D01*
X188890500Y-44873000D01*
X188910500Y-44873000D01*
X188910500Y-44853000D01*
X189164500Y-44853000D01*
X189164500Y-44873000D01*
X190101250Y-44873000D01*
X190260000Y-44714250D01*
X190262819Y-44311110D01*
X190377367Y-44372337D01*
G37*
%TD.AperFunction*%
D26*
X210146274Y-40879985D02*
X210315792Y-40993253D01*
X210504150Y-41071274D01*
X210704109Y-41111048D01*
X210907987Y-41111048D01*
X210990246Y-41094686D01*
X210997038Y-41102962D01*
X211131614Y-41213405D01*
X211285150Y-41295472D01*
X211451746Y-41346008D01*
X211625000Y-41363072D01*
X212300000Y-41363072D01*
X212473254Y-41346008D01*
X212639850Y-41295472D01*
X212793386Y-41213405D01*
X212927962Y-41102962D01*
X213000000Y-41015183D01*
X213072038Y-41102962D01*
X213112015Y-41135770D01*
X213044774Y-41298102D01*
X213005000Y-41498061D01*
X213005000Y-41701939D01*
X213044774Y-41901898D01*
X213065160Y-41951113D01*
X213037500Y-41984817D01*
X212965462Y-41897038D01*
X212830886Y-41786595D01*
X212677350Y-41704528D01*
X212510754Y-41653992D01*
X212337500Y-41636928D01*
X211662500Y-41636928D01*
X211489246Y-41653992D01*
X211322650Y-41704528D01*
X211169114Y-41786595D01*
X211150644Y-41801753D01*
X211113473Y-41776916D01*
X210925115Y-41698895D01*
X210725156Y-41659121D01*
X210521278Y-41659121D01*
X210321319Y-41698895D01*
X210132961Y-41776916D01*
X209963443Y-41890184D01*
X209819280Y-42034347D01*
X209706012Y-42203865D01*
X209627991Y-42392223D01*
X209588217Y-42592182D01*
X209588217Y-42796060D01*
X209627991Y-42996019D01*
X209655407Y-43062206D01*
X209567213Y-43194197D01*
X209489192Y-43382555D01*
X209449418Y-43582514D01*
X209449418Y-43786392D01*
X209489192Y-43986351D01*
X209567213Y-44174709D01*
X209680481Y-44344227D01*
X209824644Y-44488390D01*
X209994162Y-44601658D01*
X210182520Y-44679679D01*
X210382479Y-44719453D01*
X210479972Y-44719453D01*
X212254711Y-46494193D01*
X212277727Y-46522238D01*
X212389645Y-46614087D01*
X212517332Y-46682337D01*
X212592042Y-46705000D01*
X192904447Y-46705000D01*
X192785000Y-46585554D01*
X192785000Y-44922511D01*
X192898061Y-44945000D01*
X193101939Y-44945000D01*
X193301898Y-44905226D01*
X193490256Y-44827205D01*
X193659774Y-44713937D01*
X193803937Y-44569774D01*
X193917205Y-44400256D01*
X193995226Y-44211898D01*
X194035000Y-44011939D01*
X194035000Y-43808061D01*
X193995226Y-43608102D01*
X193917205Y-43419744D01*
X193812520Y-43263072D01*
X194475000Y-43263072D01*
X194648254Y-43246008D01*
X194814850Y-43195472D01*
X194968386Y-43113405D01*
X195102962Y-43002962D01*
X195168995Y-42922500D01*
X207599031Y-42922500D01*
X207642500Y-42926781D01*
X207685969Y-42922500D01*
X207685977Y-42922500D01*
X207815990Y-42909695D01*
X207982813Y-42859089D01*
X208136559Y-42776911D01*
X208271317Y-42666317D01*
X208299034Y-42632544D01*
X210098934Y-40832645D01*
X210146274Y-40879985D01*
%TA.AperFunction,Conductor*%
D27*
G36*
X210146274Y-40879985D02*
G01*
X210315792Y-40993253D01*
X210504150Y-41071274D01*
X210704109Y-41111048D01*
X210907987Y-41111048D01*
X210990246Y-41094686D01*
X210997038Y-41102962D01*
X211131614Y-41213405D01*
X211285150Y-41295472D01*
X211451746Y-41346008D01*
X211625000Y-41363072D01*
X212300000Y-41363072D01*
X212473254Y-41346008D01*
X212639850Y-41295472D01*
X212793386Y-41213405D01*
X212927962Y-41102962D01*
X213000000Y-41015183D01*
X213072038Y-41102962D01*
X213112015Y-41135770D01*
X213044774Y-41298102D01*
X213005000Y-41498061D01*
X213005000Y-41701939D01*
X213044774Y-41901898D01*
X213065160Y-41951113D01*
X213037500Y-41984817D01*
X212965462Y-41897038D01*
X212830886Y-41786595D01*
X212677350Y-41704528D01*
X212510754Y-41653992D01*
X212337500Y-41636928D01*
X211662500Y-41636928D01*
X211489246Y-41653992D01*
X211322650Y-41704528D01*
X211169114Y-41786595D01*
X211150644Y-41801753D01*
X211113473Y-41776916D01*
X210925115Y-41698895D01*
X210725156Y-41659121D01*
X210521278Y-41659121D01*
X210321319Y-41698895D01*
X210132961Y-41776916D01*
X209963443Y-41890184D01*
X209819280Y-42034347D01*
X209706012Y-42203865D01*
X209627991Y-42392223D01*
X209588217Y-42592182D01*
X209588217Y-42796060D01*
X209627991Y-42996019D01*
X209655407Y-43062206D01*
X209567213Y-43194197D01*
X209489192Y-43382555D01*
X209449418Y-43582514D01*
X209449418Y-43786392D01*
X209489192Y-43986351D01*
X209567213Y-44174709D01*
X209680481Y-44344227D01*
X209824644Y-44488390D01*
X209994162Y-44601658D01*
X210182520Y-44679679D01*
X210382479Y-44719453D01*
X210479972Y-44719453D01*
X212254711Y-46494193D01*
X212277727Y-46522238D01*
X212389645Y-46614087D01*
X212517332Y-46682337D01*
X212592042Y-46705000D01*
X192904447Y-46705000D01*
X192785000Y-46585554D01*
X192785000Y-44922511D01*
X192898061Y-44945000D01*
X193101939Y-44945000D01*
X193301898Y-44905226D01*
X193490256Y-44827205D01*
X193659774Y-44713937D01*
X193803937Y-44569774D01*
X193917205Y-44400256D01*
X193995226Y-44211898D01*
X194035000Y-44011939D01*
X194035000Y-43808061D01*
X193995226Y-43608102D01*
X193917205Y-43419744D01*
X193812520Y-43263072D01*
X194475000Y-43263072D01*
X194648254Y-43246008D01*
X194814850Y-43195472D01*
X194968386Y-43113405D01*
X195102962Y-43002962D01*
X195168995Y-42922500D01*
X207599031Y-42922500D01*
X207642500Y-42926781D01*
X207685969Y-42922500D01*
X207685977Y-42922500D01*
X207815990Y-42909695D01*
X207982813Y-42859089D01*
X208136559Y-42776911D01*
X208271317Y-42666317D01*
X208299034Y-42632544D01*
X210098934Y-40832645D01*
X210146274Y-40879985D01*
G37*
%TD.AperFunction*%
D26*
X207275922Y-41152500D02*
X196519030Y-41152500D01*
X196545000Y-41021939D01*
X196545000Y-40818061D01*
X196505226Y-40618102D01*
X196427205Y-40429744D01*
X196313937Y-40260226D01*
X196169774Y-40116063D01*
X196000256Y-40002795D01*
X195811898Y-39924774D01*
X195611939Y-39885000D01*
X195408061Y-39885000D01*
X195360000Y-39894560D01*
X195360000Y-39835498D01*
X195201252Y-39835498D01*
X195360000Y-39676750D01*
X195363072Y-39375000D01*
X195350812Y-39250518D01*
X195314502Y-39130820D01*
X195255537Y-39020506D01*
X195176185Y-38923815D01*
X195171244Y-38919760D01*
X195184978Y-38903024D01*
X195329811Y-38859089D01*
X195483557Y-38776911D01*
X195618315Y-38666317D01*
X195646032Y-38632544D01*
X195998577Y-38280000D01*
X210148421Y-38280000D01*
X207275922Y-41152500D01*
%TA.AperFunction,Conductor*%
D27*
G36*
X207275922Y-41152500D02*
G01*
X196519030Y-41152500D01*
X196545000Y-41021939D01*
X196545000Y-40818061D01*
X196505226Y-40618102D01*
X196427205Y-40429744D01*
X196313937Y-40260226D01*
X196169774Y-40116063D01*
X196000256Y-40002795D01*
X195811898Y-39924774D01*
X195611939Y-39885000D01*
X195408061Y-39885000D01*
X195360000Y-39894560D01*
X195360000Y-39835498D01*
X195201252Y-39835498D01*
X195360000Y-39676750D01*
X195363072Y-39375000D01*
X195350812Y-39250518D01*
X195314502Y-39130820D01*
X195255537Y-39020506D01*
X195176185Y-38923815D01*
X195171244Y-38919760D01*
X195184978Y-38903024D01*
X195329811Y-38859089D01*
X195483557Y-38776911D01*
X195618315Y-38666317D01*
X195646032Y-38632544D01*
X195998577Y-38280000D01*
X210148421Y-38280000D01*
X207275922Y-41152500D01*
G37*
%TD.AperFunction*%
D26*
X192127000Y-39835500D02*
X193873000Y-39835500D01*
X193873000Y-39815500D01*
X194127000Y-39815500D01*
X194127000Y-39835500D01*
X194147000Y-39835500D01*
X194147000Y-40089500D01*
X194127000Y-40089500D01*
X194127000Y-40109500D01*
X193873000Y-40109500D01*
X193873000Y-40089500D01*
X192127000Y-40089500D01*
X192127000Y-40109500D01*
X191873000Y-40109500D01*
X191873000Y-40089500D01*
X191853000Y-40089500D01*
X191853000Y-39835500D01*
X191873000Y-39835500D01*
X191873000Y-39815500D01*
X192127000Y-39815500D01*
X192127000Y-39835500D01*
%TA.AperFunction,Conductor*%
D27*
G36*
X192127000Y-39835500D02*
G01*
X193873000Y-39835500D01*
X193873000Y-39815500D01*
X194127000Y-39815500D01*
X194127000Y-39835500D01*
X194147000Y-39835500D01*
X194147000Y-40089500D01*
X194127000Y-40089500D01*
X194127000Y-40109500D01*
X193873000Y-40109500D01*
X193873000Y-40089500D01*
X192127000Y-40089500D01*
X192127000Y-40109500D01*
X191873000Y-40109500D01*
X191873000Y-40089500D01*
X191853000Y-40089500D01*
X191853000Y-39835500D01*
X191873000Y-39835500D01*
X191873000Y-39815500D01*
X192127000Y-39815500D01*
X192127000Y-39835500D01*
G37*
%TD.AperFunction*%
D26*
X185263998Y-38918013D02*
X185438328Y-38917784D01*
X185442032Y-38917042D01*
X185466042Y-38941052D01*
X185464887Y-38946898D01*
X185465116Y-39121228D01*
X185465858Y-39124932D01*
X185441848Y-39148942D01*
X185436002Y-39147787D01*
X185261672Y-39148016D01*
X185257968Y-39148758D01*
X185233958Y-39124748D01*
X185235113Y-39118902D01*
X185234884Y-38944572D01*
X185234142Y-38940868D01*
X185258152Y-38916858D01*
X185263998Y-38918013D01*
%TA.AperFunction,Conductor*%
D27*
G36*
X185263998Y-38918013D02*
G01*
X185438328Y-38917784D01*
X185442032Y-38917042D01*
X185466042Y-38941052D01*
X185464887Y-38946898D01*
X185465116Y-39121228D01*
X185465858Y-39124932D01*
X185441848Y-39148942D01*
X185436002Y-39147787D01*
X185261672Y-39148016D01*
X185257968Y-39148758D01*
X185233958Y-39124748D01*
X185235113Y-39118902D01*
X185234884Y-38944572D01*
X185234142Y-38940868D01*
X185258152Y-38916858D01*
X185263998Y-38918013D01*
G37*
%TD.AperFunction*%
%TD*%
M02*
