M48
; DRILL file {KiCad 5.1.9+dfsg1-1+deb11u1} date Thu Oct 23 09:37:18 2025
; FORMAT={-:-/ absolute / metric / decimal}
; #@! TF.CreationDate,2025-10-23T09:37:18+02:00
; #@! TF.GenerationSoftware,Kicad,Pcbnew,5.1.9+dfsg1-1+deb11u1
; #@! TF.FileFunction,Plated,1,4,PTH
FMAT,2
METRIC
T1C0.200
T2C0.400
T3C0.900
%
G90
G05
T1
X183.35Y-37.033
X183.35Y-38.033
X183.35Y-39.033
X183.35Y-40.033
X183.35Y-41.033
X184.35Y-37.033
X184.35Y-38.033
X184.35Y-39.033
X184.35Y-40.033
X184.35Y-41.033
X185.35Y-37.033
X185.35Y-38.033
X185.35Y-39.033
X185.35Y-40.033
X185.35Y-41.033
X186.35Y-37.033
X186.35Y-38.033
X186.35Y-39.033
X186.35Y-40.033
X186.35Y-41.033
X187.35Y-37.033
X187.35Y-38.033
X187.35Y-39.033
X187.35Y-40.033
X187.35Y-41.033
T2
X170.0Y-25.0
X173.08Y-37.72
X174.54Y-46.02
X175.0Y-25.0
X175.33Y-35.07
X177.162Y-40.377
X178.82Y-40.61
X179.11Y-33.54
X179.422Y-39.723
X180.35Y-39.35
X180.369Y-41.349
X180.77Y-47.99
X181.6Y-29.1
X182.606Y-28.186
X182.656Y-43.681
X183.24Y-29.68
X184.22Y-34.12
X184.45Y-29.65
X185.2Y-46.0
X185.3Y-47.1
X185.35Y-44.76
X187.036Y-34.074
X187.1Y-25.9
X188.0Y-46.0
X188.2Y-43.83
X188.444Y-25.175
X189.332Y-35.5
X190.275Y-38.0
X190.37Y-47.04
X190.6Y-36.6
X190.625Y-35.318
X190.8Y-34.1
X190.81Y-41.0
X192.5Y-32.05
X192.865Y-33.794
X193.0Y-43.91
X193.2Y-28.8
X194.565Y-28.145
X195.1Y-46.1
X195.51Y-40.92
X195.761Y-34.09
X196.0Y-38.9
X196.1Y-36.3
X197.3Y-36.06
X198.72Y-33.89
X200.0Y-25.0
X204.0Y-31.0
X205.0Y-25.0
X210.0Y-25.0
X210.484Y-43.684
X210.623Y-42.694
X210.806Y-40.076
X213.08Y-44.92
X214.04Y-41.6
X215.0Y-25.0
X215.36Y-43.04
X215.99Y-33.79
X216.12Y-30.65
X218.58Y-48.14
X219.33Y-51.89
X220.31Y-50.84
X220.98Y-53.3
X221.35Y-49.77
X224.35Y-32.96
X225.0Y-25.0
X225.01Y-42.52
X226.57Y-49.24
X228.17Y-44.46
X230.0Y-25.0
X230.0Y-35.0
X230.01Y-40.05
X235.0Y-25.0
X237.08Y-46.03
X237.15Y-51.15
X238.3Y-40.2
X240.0Y-25.0
X240.0Y-30.0
X240.25Y-36.36
X242.6Y-51.72
X243.25Y-54.96
X243.79Y-40.86
T3
G00X180.0Y-25.74
M15
G01X180.0Y-24.94
M16
G05
G00X180.0Y-32.2
M15
G01X180.0Y-30.4
M16
G05
G00X194.5Y-25.74
M15
G01X194.5Y-24.94
M16
G05
G00X194.5Y-32.2
M15
G01X194.5Y-30.4
M16
G05
T0
M30
