%TF.GenerationSoftware,KiCad,Pcbnew,5.1.9+dfsg1-1+deb11u1*%
%TF.CreationDate,2025-10-29T09:53:25+01:00*%
%TF.ProjectId,VERA-XE-HDMI-Expansion,56455241-2d58-4452-9d48-444d492d4578,1.1*%
%TF.SameCoordinates,Original*%
%TF.FileFunction,Paste,Bot*%
%TF.FilePolarity,Positive*%
%FSLAX46Y46*%
G04 Gerber Fmt 4.6, Leading zero omitted, Abs format (unit mm)*
G04 Created by KiCad (PCBNEW 5.1.9+dfsg1-1+deb11u1) date 2025-10-29 09:53:25*
%MOMM*%
%LPD*%
G01*
G04 APERTURE LIST*
%ADD10R,1.000000X3.150000*%
G04 APERTURE END LIST*
%TO.C,C5*%
G36*
G01*
X131050000Y-85925000D02*
X131050000Y-86875000D01*
G75*
G02*
X130800000Y-87125000I-250000J0D01*
G01*
X130125000Y-87125000D01*
G75*
G02*
X129875000Y-86875000I0J250000D01*
G01*
X129875000Y-85925000D01*
G75*
G02*
X130125000Y-85675000I250000J0D01*
G01*
X130800000Y-85675000D01*
G75*
G02*
X131050000Y-85925000I0J-250000D01*
G01*
G37*
G36*
G01*
X133125000Y-85925000D02*
X133125000Y-86875000D01*
G75*
G02*
X132875000Y-87125000I-250000J0D01*
G01*
X132200000Y-87125000D01*
G75*
G02*
X131950000Y-86875000I0J250000D01*
G01*
X131950000Y-85925000D01*
G75*
G02*
X132200000Y-85675000I250000J0D01*
G01*
X132875000Y-85675000D01*
G75*
G02*
X133125000Y-85925000I0J-250000D01*
G01*
G37*
%TD*%
%TO.C,C6*%
G36*
G01*
X131050000Y-87925000D02*
X131050000Y-88875000D01*
G75*
G02*
X130800000Y-89125000I-250000J0D01*
G01*
X130125000Y-89125000D01*
G75*
G02*
X129875000Y-88875000I0J250000D01*
G01*
X129875000Y-87925000D01*
G75*
G02*
X130125000Y-87675000I250000J0D01*
G01*
X130800000Y-87675000D01*
G75*
G02*
X131050000Y-87925000I0J-250000D01*
G01*
G37*
G36*
G01*
X133125000Y-87925000D02*
X133125000Y-88875000D01*
G75*
G02*
X132875000Y-89125000I-250000J0D01*
G01*
X132200000Y-89125000D01*
G75*
G02*
X131950000Y-88875000I0J250000D01*
G01*
X131950000Y-87925000D01*
G75*
G02*
X132200000Y-87675000I250000J0D01*
G01*
X132875000Y-87675000D01*
G75*
G02*
X133125000Y-87925000I0J-250000D01*
G01*
G37*
%TD*%
%TO.C,C11*%
G36*
G01*
X136950000Y-86875000D02*
X136950000Y-85925000D01*
G75*
G02*
X137200000Y-85675000I250000J0D01*
G01*
X137875000Y-85675000D01*
G75*
G02*
X138125000Y-85925000I0J-250000D01*
G01*
X138125000Y-86875000D01*
G75*
G02*
X137875000Y-87125000I-250000J0D01*
G01*
X137200000Y-87125000D01*
G75*
G02*
X136950000Y-86875000I0J250000D01*
G01*
G37*
G36*
G01*
X134875000Y-86875000D02*
X134875000Y-85925000D01*
G75*
G02*
X135125000Y-85675000I250000J0D01*
G01*
X135800000Y-85675000D01*
G75*
G02*
X136050000Y-85925000I0J-250000D01*
G01*
X136050000Y-86875000D01*
G75*
G02*
X135800000Y-87125000I-250000J0D01*
G01*
X135125000Y-87125000D01*
G75*
G02*
X134875000Y-86875000I0J250000D01*
G01*
G37*
%TD*%
%TO.C,C12*%
G36*
G01*
X136950000Y-88875000D02*
X136950000Y-87925000D01*
G75*
G02*
X137200000Y-87675000I250000J0D01*
G01*
X137875000Y-87675000D01*
G75*
G02*
X138125000Y-87925000I0J-250000D01*
G01*
X138125000Y-88875000D01*
G75*
G02*
X137875000Y-89125000I-250000J0D01*
G01*
X137200000Y-89125000D01*
G75*
G02*
X136950000Y-88875000I0J250000D01*
G01*
G37*
G36*
G01*
X134875000Y-88875000D02*
X134875000Y-87925000D01*
G75*
G02*
X135125000Y-87675000I250000J0D01*
G01*
X135800000Y-87675000D01*
G75*
G02*
X136050000Y-87925000I0J-250000D01*
G01*
X136050000Y-88875000D01*
G75*
G02*
X135800000Y-89125000I-250000J0D01*
G01*
X135125000Y-89125000D01*
G75*
G02*
X134875000Y-88875000I0J250000D01*
G01*
G37*
%TD*%
%TO.C,C20*%
G36*
G01*
X142975000Y-93950000D02*
X142025000Y-93950000D01*
G75*
G02*
X141775000Y-93700000I0J250000D01*
G01*
X141775000Y-93025000D01*
G75*
G02*
X142025000Y-92775000I250000J0D01*
G01*
X142975000Y-92775000D01*
G75*
G02*
X143225000Y-93025000I0J-250000D01*
G01*
X143225000Y-93700000D01*
G75*
G02*
X142975000Y-93950000I-250000J0D01*
G01*
G37*
G36*
G01*
X142975000Y-96025000D02*
X142025000Y-96025000D01*
G75*
G02*
X141775000Y-95775000I0J250000D01*
G01*
X141775000Y-95100000D01*
G75*
G02*
X142025000Y-94850000I250000J0D01*
G01*
X142975000Y-94850000D01*
G75*
G02*
X143225000Y-95100000I0J-250000D01*
G01*
X143225000Y-95775000D01*
G75*
G02*
X142975000Y-96025000I-250000J0D01*
G01*
G37*
%TD*%
%TO.C,C21*%
G36*
G01*
X140975000Y-93950000D02*
X140025000Y-93950000D01*
G75*
G02*
X139775000Y-93700000I0J250000D01*
G01*
X139775000Y-93025000D01*
G75*
G02*
X140025000Y-92775000I250000J0D01*
G01*
X140975000Y-92775000D01*
G75*
G02*
X141225000Y-93025000I0J-250000D01*
G01*
X141225000Y-93700000D01*
G75*
G02*
X140975000Y-93950000I-250000J0D01*
G01*
G37*
G36*
G01*
X140975000Y-96025000D02*
X140025000Y-96025000D01*
G75*
G02*
X139775000Y-95775000I0J250000D01*
G01*
X139775000Y-95100000D01*
G75*
G02*
X140025000Y-94850000I250000J0D01*
G01*
X140975000Y-94850000D01*
G75*
G02*
X141225000Y-95100000I0J-250000D01*
G01*
X141225000Y-95775000D01*
G75*
G02*
X140975000Y-96025000I-250000J0D01*
G01*
G37*
%TD*%
%TO.C,C22*%
G36*
G01*
X142975000Y-89950000D02*
X142025000Y-89950000D01*
G75*
G02*
X141775000Y-89700000I0J250000D01*
G01*
X141775000Y-89025000D01*
G75*
G02*
X142025000Y-88775000I250000J0D01*
G01*
X142975000Y-88775000D01*
G75*
G02*
X143225000Y-89025000I0J-250000D01*
G01*
X143225000Y-89700000D01*
G75*
G02*
X142975000Y-89950000I-250000J0D01*
G01*
G37*
G36*
G01*
X142975000Y-92025000D02*
X142025000Y-92025000D01*
G75*
G02*
X141775000Y-91775000I0J250000D01*
G01*
X141775000Y-91100000D01*
G75*
G02*
X142025000Y-90850000I250000J0D01*
G01*
X142975000Y-90850000D01*
G75*
G02*
X143225000Y-91100000I0J-250000D01*
G01*
X143225000Y-91775000D01*
G75*
G02*
X142975000Y-92025000I-250000J0D01*
G01*
G37*
%TD*%
%TO.C,C23*%
G36*
G01*
X140975000Y-89950000D02*
X140025000Y-89950000D01*
G75*
G02*
X139775000Y-89700000I0J250000D01*
G01*
X139775000Y-89025000D01*
G75*
G02*
X140025000Y-88775000I250000J0D01*
G01*
X140975000Y-88775000D01*
G75*
G02*
X141225000Y-89025000I0J-250000D01*
G01*
X141225000Y-89700000D01*
G75*
G02*
X140975000Y-89950000I-250000J0D01*
G01*
G37*
G36*
G01*
X140975000Y-92025000D02*
X140025000Y-92025000D01*
G75*
G02*
X139775000Y-91775000I0J250000D01*
G01*
X139775000Y-91100000D01*
G75*
G02*
X140025000Y-90850000I250000J0D01*
G01*
X140975000Y-90850000D01*
G75*
G02*
X141225000Y-91100000I0J-250000D01*
G01*
X141225000Y-91775000D01*
G75*
G02*
X140975000Y-92025000I-250000J0D01*
G01*
G37*
%TD*%
%TO.C,C24*%
G36*
G01*
X131950000Y-101875000D02*
X131950000Y-100925000D01*
G75*
G02*
X132200000Y-100675000I250000J0D01*
G01*
X132875000Y-100675000D01*
G75*
G02*
X133125000Y-100925000I0J-250000D01*
G01*
X133125000Y-101875000D01*
G75*
G02*
X132875000Y-102125000I-250000J0D01*
G01*
X132200000Y-102125000D01*
G75*
G02*
X131950000Y-101875000I0J250000D01*
G01*
G37*
G36*
G01*
X129875000Y-101875000D02*
X129875000Y-100925000D01*
G75*
G02*
X130125000Y-100675000I250000J0D01*
G01*
X130800000Y-100675000D01*
G75*
G02*
X131050000Y-100925000I0J-250000D01*
G01*
X131050000Y-101875000D01*
G75*
G02*
X130800000Y-102125000I-250000J0D01*
G01*
X130125000Y-102125000D01*
G75*
G02*
X129875000Y-101875000I0J250000D01*
G01*
G37*
%TD*%
%TO.C,C25*%
G36*
G01*
X131950000Y-99875000D02*
X131950000Y-98925000D01*
G75*
G02*
X132200000Y-98675000I250000J0D01*
G01*
X132875000Y-98675000D01*
G75*
G02*
X133125000Y-98925000I0J-250000D01*
G01*
X133125000Y-99875000D01*
G75*
G02*
X132875000Y-100125000I-250000J0D01*
G01*
X132200000Y-100125000D01*
G75*
G02*
X131950000Y-99875000I0J250000D01*
G01*
G37*
G36*
G01*
X129875000Y-99875000D02*
X129875000Y-98925000D01*
G75*
G02*
X130125000Y-98675000I250000J0D01*
G01*
X130800000Y-98675000D01*
G75*
G02*
X131050000Y-98925000I0J-250000D01*
G01*
X131050000Y-99875000D01*
G75*
G02*
X130800000Y-100125000I-250000J0D01*
G01*
X130125000Y-100125000D01*
G75*
G02*
X129875000Y-99875000I0J250000D01*
G01*
G37*
%TD*%
%TO.C,C28*%
G36*
G01*
X136950000Y-101875000D02*
X136950000Y-100925000D01*
G75*
G02*
X137200000Y-100675000I250000J0D01*
G01*
X137875000Y-100675000D01*
G75*
G02*
X138125000Y-100925000I0J-250000D01*
G01*
X138125000Y-101875000D01*
G75*
G02*
X137875000Y-102125000I-250000J0D01*
G01*
X137200000Y-102125000D01*
G75*
G02*
X136950000Y-101875000I0J250000D01*
G01*
G37*
G36*
G01*
X134875000Y-101875000D02*
X134875000Y-100925000D01*
G75*
G02*
X135125000Y-100675000I250000J0D01*
G01*
X135800000Y-100675000D01*
G75*
G02*
X136050000Y-100925000I0J-250000D01*
G01*
X136050000Y-101875000D01*
G75*
G02*
X135800000Y-102125000I-250000J0D01*
G01*
X135125000Y-102125000D01*
G75*
G02*
X134875000Y-101875000I0J250000D01*
G01*
G37*
%TD*%
%TO.C,C29*%
G36*
G01*
X136950000Y-99875000D02*
X136950000Y-98925000D01*
G75*
G02*
X137200000Y-98675000I250000J0D01*
G01*
X137875000Y-98675000D01*
G75*
G02*
X138125000Y-98925000I0J-250000D01*
G01*
X138125000Y-99875000D01*
G75*
G02*
X137875000Y-100125000I-250000J0D01*
G01*
X137200000Y-100125000D01*
G75*
G02*
X136950000Y-99875000I0J250000D01*
G01*
G37*
G36*
G01*
X134875000Y-99875000D02*
X134875000Y-98925000D01*
G75*
G02*
X135125000Y-98675000I250000J0D01*
G01*
X135800000Y-98675000D01*
G75*
G02*
X136050000Y-98925000I0J-250000D01*
G01*
X136050000Y-99875000D01*
G75*
G02*
X135800000Y-100125000I-250000J0D01*
G01*
X135125000Y-100125000D01*
G75*
G02*
X134875000Y-99875000I0J250000D01*
G01*
G37*
%TD*%
%TO.C,C31*%
G36*
G01*
X139950000Y-82875000D02*
X139950000Y-81925000D01*
G75*
G02*
X140200000Y-81675000I250000J0D01*
G01*
X140875000Y-81675000D01*
G75*
G02*
X141125000Y-81925000I0J-250000D01*
G01*
X141125000Y-82875000D01*
G75*
G02*
X140875000Y-83125000I-250000J0D01*
G01*
X140200000Y-83125000D01*
G75*
G02*
X139950000Y-82875000I0J250000D01*
G01*
G37*
G36*
G01*
X137875000Y-82875000D02*
X137875000Y-81925000D01*
G75*
G02*
X138125000Y-81675000I250000J0D01*
G01*
X138800000Y-81675000D01*
G75*
G02*
X139050000Y-81925000I0J-250000D01*
G01*
X139050000Y-82875000D01*
G75*
G02*
X138800000Y-83125000I-250000J0D01*
G01*
X138125000Y-83125000D01*
G75*
G02*
X137875000Y-82875000I0J250000D01*
G01*
G37*
%TD*%
%TO.C,C32*%
G36*
G01*
X139950000Y-84875000D02*
X139950000Y-83925000D01*
G75*
G02*
X140200000Y-83675000I250000J0D01*
G01*
X140875000Y-83675000D01*
G75*
G02*
X141125000Y-83925000I0J-250000D01*
G01*
X141125000Y-84875000D01*
G75*
G02*
X140875000Y-85125000I-250000J0D01*
G01*
X140200000Y-85125000D01*
G75*
G02*
X139950000Y-84875000I0J250000D01*
G01*
G37*
G36*
G01*
X137875000Y-84875000D02*
X137875000Y-83925000D01*
G75*
G02*
X138125000Y-83675000I250000J0D01*
G01*
X138800000Y-83675000D01*
G75*
G02*
X139050000Y-83925000I0J-250000D01*
G01*
X139050000Y-84875000D01*
G75*
G02*
X138800000Y-85125000I-250000J0D01*
G01*
X138125000Y-85125000D01*
G75*
G02*
X137875000Y-84875000I0J250000D01*
G01*
G37*
%TD*%
%TO.C,C33*%
G36*
G01*
X125025000Y-97850000D02*
X125975000Y-97850000D01*
G75*
G02*
X126225000Y-98100000I0J-250000D01*
G01*
X126225000Y-98775000D01*
G75*
G02*
X125975000Y-99025000I-250000J0D01*
G01*
X125025000Y-99025000D01*
G75*
G02*
X124775000Y-98775000I0J250000D01*
G01*
X124775000Y-98100000D01*
G75*
G02*
X125025000Y-97850000I250000J0D01*
G01*
G37*
G36*
G01*
X125025000Y-95775000D02*
X125975000Y-95775000D01*
G75*
G02*
X126225000Y-96025000I0J-250000D01*
G01*
X126225000Y-96700000D01*
G75*
G02*
X125975000Y-96950000I-250000J0D01*
G01*
X125025000Y-96950000D01*
G75*
G02*
X124775000Y-96700000I0J250000D01*
G01*
X124775000Y-96025000D01*
G75*
G02*
X125025000Y-95775000I250000J0D01*
G01*
G37*
%TD*%
%TO.C,C34*%
G36*
G01*
X127025000Y-97850000D02*
X127975000Y-97850000D01*
G75*
G02*
X128225000Y-98100000I0J-250000D01*
G01*
X128225000Y-98775000D01*
G75*
G02*
X127975000Y-99025000I-250000J0D01*
G01*
X127025000Y-99025000D01*
G75*
G02*
X126775000Y-98775000I0J250000D01*
G01*
X126775000Y-98100000D01*
G75*
G02*
X127025000Y-97850000I250000J0D01*
G01*
G37*
G36*
G01*
X127025000Y-95775000D02*
X127975000Y-95775000D01*
G75*
G02*
X128225000Y-96025000I0J-250000D01*
G01*
X128225000Y-96700000D01*
G75*
G02*
X127975000Y-96950000I-250000J0D01*
G01*
X127025000Y-96950000D01*
G75*
G02*
X126775000Y-96700000I0J250000D01*
G01*
X126775000Y-96025000D01*
G75*
G02*
X127025000Y-95775000I250000J0D01*
G01*
G37*
%TD*%
%TO.C,R3*%
G36*
G01*
X175100000Y-110349999D02*
X175100000Y-111250001D01*
G75*
G02*
X174850001Y-111500000I-249999J0D01*
G01*
X174149999Y-111500000D01*
G75*
G02*
X173900000Y-111250001I0J249999D01*
G01*
X173900000Y-110349999D01*
G75*
G02*
X174149999Y-110100000I249999J0D01*
G01*
X174850001Y-110100000D01*
G75*
G02*
X175100000Y-110349999I0J-249999D01*
G01*
G37*
G36*
G01*
X177100000Y-110349999D02*
X177100000Y-111250001D01*
G75*
G02*
X176850001Y-111500000I-249999J0D01*
G01*
X176149999Y-111500000D01*
G75*
G02*
X175900000Y-111250001I0J249999D01*
G01*
X175900000Y-110349999D01*
G75*
G02*
X176149999Y-110100000I249999J0D01*
G01*
X176850001Y-110100000D01*
G75*
G02*
X177100000Y-110349999I0J-249999D01*
G01*
G37*
%TD*%
%TO.C,R4*%
G36*
G01*
X174900000Y-90149999D02*
X174900000Y-91050001D01*
G75*
G02*
X174650001Y-91300000I-249999J0D01*
G01*
X173949999Y-91300000D01*
G75*
G02*
X173700000Y-91050001I0J249999D01*
G01*
X173700000Y-90149999D01*
G75*
G02*
X173949999Y-89900000I249999J0D01*
G01*
X174650001Y-89900000D01*
G75*
G02*
X174900000Y-90149999I0J-249999D01*
G01*
G37*
G36*
G01*
X176900000Y-90149999D02*
X176900000Y-91050001D01*
G75*
G02*
X176650001Y-91300000I-249999J0D01*
G01*
X175949999Y-91300000D01*
G75*
G02*
X175700000Y-91050001I0J249999D01*
G01*
X175700000Y-90149999D01*
G75*
G02*
X175949999Y-89900000I249999J0D01*
G01*
X176650001Y-89900000D01*
G75*
G02*
X176900000Y-90149999I0J-249999D01*
G01*
G37*
%TD*%
%TO.C,R5*%
G36*
G01*
X170900000Y-111250001D02*
X170900000Y-110349999D01*
G75*
G02*
X171149999Y-110100000I249999J0D01*
G01*
X171850001Y-110100000D01*
G75*
G02*
X172100000Y-110349999I0J-249999D01*
G01*
X172100000Y-111250001D01*
G75*
G02*
X171850001Y-111500000I-249999J0D01*
G01*
X171149999Y-111500000D01*
G75*
G02*
X170900000Y-111250001I0J249999D01*
G01*
G37*
G36*
G01*
X168900000Y-111250001D02*
X168900000Y-110349999D01*
G75*
G02*
X169149999Y-110100000I249999J0D01*
G01*
X169850001Y-110100000D01*
G75*
G02*
X170100000Y-110349999I0J-249999D01*
G01*
X170100000Y-111250001D01*
G75*
G02*
X169850001Y-111500000I-249999J0D01*
G01*
X169149999Y-111500000D01*
G75*
G02*
X168900000Y-111250001I0J249999D01*
G01*
G37*
%TD*%
%TO.C,R6*%
G36*
G01*
X185900000Y-111250001D02*
X185900000Y-110349999D01*
G75*
G02*
X186149999Y-110100000I249999J0D01*
G01*
X186850001Y-110100000D01*
G75*
G02*
X187100000Y-110349999I0J-249999D01*
G01*
X187100000Y-111250001D01*
G75*
G02*
X186850001Y-111500000I-249999J0D01*
G01*
X186149999Y-111500000D01*
G75*
G02*
X185900000Y-111250001I0J249999D01*
G01*
G37*
G36*
G01*
X183900000Y-111250001D02*
X183900000Y-110349999D01*
G75*
G02*
X184149999Y-110100000I249999J0D01*
G01*
X184850001Y-110100000D01*
G75*
G02*
X185100000Y-110349999I0J-249999D01*
G01*
X185100000Y-111250001D01*
G75*
G02*
X184850001Y-111500000I-249999J0D01*
G01*
X184149999Y-111500000D01*
G75*
G02*
X183900000Y-111250001I0J249999D01*
G01*
G37*
%TD*%
%TO.C,R7*%
G36*
G01*
X139075000Y-80162500D02*
X139075000Y-80637500D01*
G75*
G02*
X138837500Y-80875000I-237500J0D01*
G01*
X138337500Y-80875000D01*
G75*
G02*
X138100000Y-80637500I0J237500D01*
G01*
X138100000Y-80162500D01*
G75*
G02*
X138337500Y-79925000I237500J0D01*
G01*
X138837500Y-79925000D01*
G75*
G02*
X139075000Y-80162500I0J-237500D01*
G01*
G37*
G36*
G01*
X140900000Y-80162500D02*
X140900000Y-80637500D01*
G75*
G02*
X140662500Y-80875000I-237500J0D01*
G01*
X140162500Y-80875000D01*
G75*
G02*
X139925000Y-80637500I0J237500D01*
G01*
X139925000Y-80162500D01*
G75*
G02*
X140162500Y-79925000I237500J0D01*
G01*
X140662500Y-79925000D01*
G75*
G02*
X140900000Y-80162500I0J-237500D01*
G01*
G37*
%TD*%
%TO.C,R8*%
G36*
G01*
X131925000Y-80637500D02*
X131925000Y-80162500D01*
G75*
G02*
X132162500Y-79925000I237500J0D01*
G01*
X132662500Y-79925000D01*
G75*
G02*
X132900000Y-80162500I0J-237500D01*
G01*
X132900000Y-80637500D01*
G75*
G02*
X132662500Y-80875000I-237500J0D01*
G01*
X132162500Y-80875000D01*
G75*
G02*
X131925000Y-80637500I0J237500D01*
G01*
G37*
G36*
G01*
X130100000Y-80637500D02*
X130100000Y-80162500D01*
G75*
G02*
X130337500Y-79925000I237500J0D01*
G01*
X130837500Y-79925000D01*
G75*
G02*
X131075000Y-80162500I0J-237500D01*
G01*
X131075000Y-80637500D01*
G75*
G02*
X130837500Y-80875000I-237500J0D01*
G01*
X130337500Y-80875000D01*
G75*
G02*
X130100000Y-80637500I0J237500D01*
G01*
G37*
%TD*%
%TO.C,R9*%
G36*
G01*
X183700000Y-94650001D02*
X183700000Y-93749999D01*
G75*
G02*
X183949999Y-93500000I249999J0D01*
G01*
X184650001Y-93500000D01*
G75*
G02*
X184900000Y-93749999I0J-249999D01*
G01*
X184900000Y-94650001D01*
G75*
G02*
X184650001Y-94900000I-249999J0D01*
G01*
X183949999Y-94900000D01*
G75*
G02*
X183700000Y-94650001I0J249999D01*
G01*
G37*
G36*
G01*
X181700000Y-94650001D02*
X181700000Y-93749999D01*
G75*
G02*
X181949999Y-93500000I249999J0D01*
G01*
X182650001Y-93500000D01*
G75*
G02*
X182900000Y-93749999I0J-249999D01*
G01*
X182900000Y-94650001D01*
G75*
G02*
X182650001Y-94900000I-249999J0D01*
G01*
X181949999Y-94900000D01*
G75*
G02*
X181700000Y-94650001I0J249999D01*
G01*
G37*
%TD*%
%TO.C,R10*%
G36*
G01*
X136049999Y-82800000D02*
X136950001Y-82800000D01*
G75*
G02*
X137200000Y-83049999I0J-249999D01*
G01*
X137200000Y-83750001D01*
G75*
G02*
X136950001Y-84000000I-249999J0D01*
G01*
X136049999Y-84000000D01*
G75*
G02*
X135800000Y-83750001I0J249999D01*
G01*
X135800000Y-83049999D01*
G75*
G02*
X136049999Y-82800000I249999J0D01*
G01*
G37*
G36*
G01*
X136049999Y-80800000D02*
X136950001Y-80800000D01*
G75*
G02*
X137200000Y-81049999I0J-249999D01*
G01*
X137200000Y-81750001D01*
G75*
G02*
X136950001Y-82000000I-249999J0D01*
G01*
X136049999Y-82000000D01*
G75*
G02*
X135800000Y-81750001I0J249999D01*
G01*
X135800000Y-81049999D01*
G75*
G02*
X136049999Y-80800000I249999J0D01*
G01*
G37*
%TD*%
%TO.C,R11*%
G36*
G01*
X189100000Y-110349999D02*
X189100000Y-111250001D01*
G75*
G02*
X188850001Y-111500000I-249999J0D01*
G01*
X188149999Y-111500000D01*
G75*
G02*
X187900000Y-111250001I0J249999D01*
G01*
X187900000Y-110349999D01*
G75*
G02*
X188149999Y-110100000I249999J0D01*
G01*
X188850001Y-110100000D01*
G75*
G02*
X189100000Y-110349999I0J-249999D01*
G01*
G37*
G36*
G01*
X191100000Y-110349999D02*
X191100000Y-111250001D01*
G75*
G02*
X190850001Y-111500000I-249999J0D01*
G01*
X190149999Y-111500000D01*
G75*
G02*
X189900000Y-111250001I0J249999D01*
G01*
X189900000Y-110349999D01*
G75*
G02*
X190149999Y-110100000I249999J0D01*
G01*
X190850001Y-110100000D01*
G75*
G02*
X191100000Y-110349999I0J-249999D01*
G01*
G37*
%TD*%
%TO.C,R12*%
G36*
G01*
X185900000Y-96850001D02*
X185900000Y-95949999D01*
G75*
G02*
X186149999Y-95700000I249999J0D01*
G01*
X186850001Y-95700000D01*
G75*
G02*
X187100000Y-95949999I0J-249999D01*
G01*
X187100000Y-96850001D01*
G75*
G02*
X186850001Y-97100000I-249999J0D01*
G01*
X186149999Y-97100000D01*
G75*
G02*
X185900000Y-96850001I0J249999D01*
G01*
G37*
G36*
G01*
X183900000Y-96850001D02*
X183900000Y-95949999D01*
G75*
G02*
X184149999Y-95700000I249999J0D01*
G01*
X184850001Y-95700000D01*
G75*
G02*
X185100000Y-95949999I0J-249999D01*
G01*
X185100000Y-96850001D01*
G75*
G02*
X184850001Y-97100000I-249999J0D01*
G01*
X184149999Y-97100000D01*
G75*
G02*
X183900000Y-96850001I0J249999D01*
G01*
G37*
%TD*%
%TO.C,R13*%
G36*
G01*
X134049999Y-82800000D02*
X134950001Y-82800000D01*
G75*
G02*
X135200000Y-83049999I0J-249999D01*
G01*
X135200000Y-83750001D01*
G75*
G02*
X134950001Y-84000000I-249999J0D01*
G01*
X134049999Y-84000000D01*
G75*
G02*
X133800000Y-83750001I0J249999D01*
G01*
X133800000Y-83049999D01*
G75*
G02*
X134049999Y-82800000I249999J0D01*
G01*
G37*
G36*
G01*
X134049999Y-80800000D02*
X134950001Y-80800000D01*
G75*
G02*
X135200000Y-81049999I0J-249999D01*
G01*
X135200000Y-81750001D01*
G75*
G02*
X134950001Y-82000000I-249999J0D01*
G01*
X134049999Y-82000000D01*
G75*
G02*
X133800000Y-81750001I0J249999D01*
G01*
X133800000Y-81049999D01*
G75*
G02*
X134049999Y-80800000I249999J0D01*
G01*
G37*
%TD*%
D10*
%TO.C,J2*%
X171560000Y-101275000D03*
X171560000Y-106325000D03*
X174100000Y-101275000D03*
X174100000Y-106325000D03*
X176640000Y-101275000D03*
X176640000Y-106325000D03*
X179180000Y-101275000D03*
X179180000Y-106325000D03*
X181720000Y-101275000D03*
X181720000Y-106325000D03*
X184260000Y-101275000D03*
X184260000Y-106325000D03*
X186800000Y-101275000D03*
X186800000Y-106325000D03*
X189340000Y-101275000D03*
X189340000Y-106325000D03*
%TD*%
M02*
