%TF.GenerationSoftware,KiCad,Pcbnew,5.1.9+dfsg1-1+deb11u1*%
%TF.CreationDate,2025-10-29T09:53:25+01:00*%
%TF.ProjectId,VERA-XE-HDMI-Expansion,56455241-2d58-4452-9d48-444d492d4578,1.1*%
%TF.SameCoordinates,Original*%
%TF.FileFunction,Soldermask,Top*%
%TF.FilePolarity,Negative*%
%FSLAX46Y46*%
G04 Gerber Fmt 4.6, Leading zero omitted, Abs format (unit mm)*
G04 Created by KiCad (PCBNEW 5.1.9+dfsg1-1+deb11u1) date 2025-10-29 09:53:25*
%MOMM*%
%LPD*%
G01*
G04 APERTURE LIST*
%ADD10C,3.400000*%
%ADD11O,1.700000X2.900000*%
%ADD12O,1.700000X3.400000*%
G04 APERTURE END LIST*
%TO.C,C1*%
G36*
G01*
X143032447Y-91050000D02*
X141967553Y-91050000D01*
G75*
G02*
X141675000Y-90757447I0J292553D01*
G01*
X141675000Y-89967553D01*
G75*
G02*
X141967553Y-89675000I292553J0D01*
G01*
X143032447Y-89675000D01*
G75*
G02*
X143325000Y-89967553I0J-292553D01*
G01*
X143325000Y-90757447D01*
G75*
G02*
X143032447Y-91050000I-292553J0D01*
G01*
G37*
G36*
G01*
X143032447Y-93125000D02*
X141967553Y-93125000D01*
G75*
G02*
X141675000Y-92832447I0J292553D01*
G01*
X141675000Y-92042553D01*
G75*
G02*
X141967553Y-91750000I292553J0D01*
G01*
X143032447Y-91750000D01*
G75*
G02*
X143325000Y-92042553I0J-292553D01*
G01*
X143325000Y-92832447D01*
G75*
G02*
X143032447Y-93125000I-292553J0D01*
G01*
G37*
%TD*%
%TO.C,C2*%
G36*
G01*
X141032447Y-91050000D02*
X139967553Y-91050000D01*
G75*
G02*
X139675000Y-90757447I0J292553D01*
G01*
X139675000Y-89967553D01*
G75*
G02*
X139967553Y-89675000I292553J0D01*
G01*
X141032447Y-89675000D01*
G75*
G02*
X141325000Y-89967553I0J-292553D01*
G01*
X141325000Y-90757447D01*
G75*
G02*
X141032447Y-91050000I-292553J0D01*
G01*
G37*
G36*
G01*
X141032447Y-93125000D02*
X139967553Y-93125000D01*
G75*
G02*
X139675000Y-92832447I0J292553D01*
G01*
X139675000Y-92042553D01*
G75*
G02*
X139967553Y-91750000I292553J0D01*
G01*
X141032447Y-91750000D01*
G75*
G02*
X141325000Y-92042553I0J-292553D01*
G01*
X141325000Y-92832447D01*
G75*
G02*
X141032447Y-93125000I-292553J0D01*
G01*
G37*
%TD*%
%TO.C,C3*%
G36*
G01*
X141032447Y-95050000D02*
X139967553Y-95050000D01*
G75*
G02*
X139675000Y-94757447I0J292553D01*
G01*
X139675000Y-93967553D01*
G75*
G02*
X139967553Y-93675000I292553J0D01*
G01*
X141032447Y-93675000D01*
G75*
G02*
X141325000Y-93967553I0J-292553D01*
G01*
X141325000Y-94757447D01*
G75*
G02*
X141032447Y-95050000I-292553J0D01*
G01*
G37*
G36*
G01*
X141032447Y-97125000D02*
X139967553Y-97125000D01*
G75*
G02*
X139675000Y-96832447I0J292553D01*
G01*
X139675000Y-96042553D01*
G75*
G02*
X139967553Y-95750000I292553J0D01*
G01*
X141032447Y-95750000D01*
G75*
G02*
X141325000Y-96042553I0J-292553D01*
G01*
X141325000Y-96832447D01*
G75*
G02*
X141032447Y-97125000I-292553J0D01*
G01*
G37*
%TD*%
%TO.C,C4*%
G36*
G01*
X143032447Y-95050000D02*
X141967553Y-95050000D01*
G75*
G02*
X141675000Y-94757447I0J292553D01*
G01*
X141675000Y-93967553D01*
G75*
G02*
X141967553Y-93675000I292553J0D01*
G01*
X143032447Y-93675000D01*
G75*
G02*
X143325000Y-93967553I0J-292553D01*
G01*
X143325000Y-94757447D01*
G75*
G02*
X143032447Y-95050000I-292553J0D01*
G01*
G37*
G36*
G01*
X143032447Y-97125000D02*
X141967553Y-97125000D01*
G75*
G02*
X141675000Y-96832447I0J292553D01*
G01*
X141675000Y-96042553D01*
G75*
G02*
X141967553Y-95750000I292553J0D01*
G01*
X143032447Y-95750000D01*
G75*
G02*
X143325000Y-96042553I0J-292553D01*
G01*
X143325000Y-96832447D01*
G75*
G02*
X143032447Y-97125000I-292553J0D01*
G01*
G37*
%TD*%
%TO.C,C7*%
G36*
G01*
X124967553Y-97750000D02*
X126032447Y-97750000D01*
G75*
G02*
X126325000Y-98042553I0J-292553D01*
G01*
X126325000Y-98832447D01*
G75*
G02*
X126032447Y-99125000I-292553J0D01*
G01*
X124967553Y-99125000D01*
G75*
G02*
X124675000Y-98832447I0J292553D01*
G01*
X124675000Y-98042553D01*
G75*
G02*
X124967553Y-97750000I292553J0D01*
G01*
G37*
G36*
G01*
X124967553Y-95675000D02*
X126032447Y-95675000D01*
G75*
G02*
X126325000Y-95967553I0J-292553D01*
G01*
X126325000Y-96757447D01*
G75*
G02*
X126032447Y-97050000I-292553J0D01*
G01*
X124967553Y-97050000D01*
G75*
G02*
X124675000Y-96757447I0J292553D01*
G01*
X124675000Y-95967553D01*
G75*
G02*
X124967553Y-95675000I292553J0D01*
G01*
G37*
%TD*%
%TO.C,C8*%
G36*
G01*
X126967553Y-97750000D02*
X128032447Y-97750000D01*
G75*
G02*
X128325000Y-98042553I0J-292553D01*
G01*
X128325000Y-98832447D01*
G75*
G02*
X128032447Y-99125000I-292553J0D01*
G01*
X126967553Y-99125000D01*
G75*
G02*
X126675000Y-98832447I0J292553D01*
G01*
X126675000Y-98042553D01*
G75*
G02*
X126967553Y-97750000I292553J0D01*
G01*
G37*
G36*
G01*
X126967553Y-95675000D02*
X128032447Y-95675000D01*
G75*
G02*
X128325000Y-95967553I0J-292553D01*
G01*
X128325000Y-96757447D01*
G75*
G02*
X128032447Y-97050000I-292553J0D01*
G01*
X126967553Y-97050000D01*
G75*
G02*
X126675000Y-96757447I0J292553D01*
G01*
X126675000Y-95967553D01*
G75*
G02*
X126967553Y-95675000I292553J0D01*
G01*
G37*
%TD*%
%TO.C,C9*%
G36*
G01*
X131150000Y-100867553D02*
X131150000Y-101932447D01*
G75*
G02*
X130857447Y-102225000I-292553J0D01*
G01*
X130067553Y-102225000D01*
G75*
G02*
X129775000Y-101932447I0J292553D01*
G01*
X129775000Y-100867553D01*
G75*
G02*
X130067553Y-100575000I292553J0D01*
G01*
X130857447Y-100575000D01*
G75*
G02*
X131150000Y-100867553I0J-292553D01*
G01*
G37*
G36*
G01*
X133225000Y-100867553D02*
X133225000Y-101932447D01*
G75*
G02*
X132932447Y-102225000I-292553J0D01*
G01*
X132142553Y-102225000D01*
G75*
G02*
X131850000Y-101932447I0J292553D01*
G01*
X131850000Y-100867553D01*
G75*
G02*
X132142553Y-100575000I292553J0D01*
G01*
X132932447Y-100575000D01*
G75*
G02*
X133225000Y-100867553I0J-292553D01*
G01*
G37*
%TD*%
%TO.C,C10*%
G36*
G01*
X131150000Y-98867553D02*
X131150000Y-99932447D01*
G75*
G02*
X130857447Y-100225000I-292553J0D01*
G01*
X130067553Y-100225000D01*
G75*
G02*
X129775000Y-99932447I0J292553D01*
G01*
X129775000Y-98867553D01*
G75*
G02*
X130067553Y-98575000I292553J0D01*
G01*
X130857447Y-98575000D01*
G75*
G02*
X131150000Y-98867553I0J-292553D01*
G01*
G37*
G36*
G01*
X133225000Y-98867553D02*
X133225000Y-99932447D01*
G75*
G02*
X132932447Y-100225000I-292553J0D01*
G01*
X132142553Y-100225000D01*
G75*
G02*
X131850000Y-99932447I0J292553D01*
G01*
X131850000Y-98867553D01*
G75*
G02*
X132142553Y-98575000I292553J0D01*
G01*
X132932447Y-98575000D01*
G75*
G02*
X133225000Y-98867553I0J-292553D01*
G01*
G37*
%TD*%
%TO.C,C13*%
G36*
G01*
X126150000Y-90867553D02*
X126150000Y-91932447D01*
G75*
G02*
X125857447Y-92225000I-292553J0D01*
G01*
X125067553Y-92225000D01*
G75*
G02*
X124775000Y-91932447I0J292553D01*
G01*
X124775000Y-90867553D01*
G75*
G02*
X125067553Y-90575000I292553J0D01*
G01*
X125857447Y-90575000D01*
G75*
G02*
X126150000Y-90867553I0J-292553D01*
G01*
G37*
G36*
G01*
X128225000Y-90867553D02*
X128225000Y-91932447D01*
G75*
G02*
X127932447Y-92225000I-292553J0D01*
G01*
X127142553Y-92225000D01*
G75*
G02*
X126850000Y-91932447I0J292553D01*
G01*
X126850000Y-90867553D01*
G75*
G02*
X127142553Y-90575000I292553J0D01*
G01*
X127932447Y-90575000D01*
G75*
G02*
X128225000Y-90867553I0J-292553D01*
G01*
G37*
%TD*%
%TO.C,C14*%
G36*
G01*
X126150000Y-88867553D02*
X126150000Y-89932447D01*
G75*
G02*
X125857447Y-90225000I-292553J0D01*
G01*
X125067553Y-90225000D01*
G75*
G02*
X124775000Y-89932447I0J292553D01*
G01*
X124775000Y-88867553D01*
G75*
G02*
X125067553Y-88575000I292553J0D01*
G01*
X125857447Y-88575000D01*
G75*
G02*
X126150000Y-88867553I0J-292553D01*
G01*
G37*
G36*
G01*
X128225000Y-88867553D02*
X128225000Y-89932447D01*
G75*
G02*
X127932447Y-90225000I-292553J0D01*
G01*
X127142553Y-90225000D01*
G75*
G02*
X126850000Y-89932447I0J292553D01*
G01*
X126850000Y-88867553D01*
G75*
G02*
X127142553Y-88575000I292553J0D01*
G01*
X127932447Y-88575000D01*
G75*
G02*
X128225000Y-88867553I0J-292553D01*
G01*
G37*
%TD*%
%TO.C,C15*%
G36*
G01*
X191032447Y-96050000D02*
X189967553Y-96050000D01*
G75*
G02*
X189675000Y-95757447I0J292553D01*
G01*
X189675000Y-94967553D01*
G75*
G02*
X189967553Y-94675000I292553J0D01*
G01*
X191032447Y-94675000D01*
G75*
G02*
X191325000Y-94967553I0J-292553D01*
G01*
X191325000Y-95757447D01*
G75*
G02*
X191032447Y-96050000I-292553J0D01*
G01*
G37*
G36*
G01*
X191032447Y-98125000D02*
X189967553Y-98125000D01*
G75*
G02*
X189675000Y-97832447I0J292553D01*
G01*
X189675000Y-97042553D01*
G75*
G02*
X189967553Y-96750000I292553J0D01*
G01*
X191032447Y-96750000D01*
G75*
G02*
X191325000Y-97042553I0J-292553D01*
G01*
X191325000Y-97832447D01*
G75*
G02*
X191032447Y-98125000I-292553J0D01*
G01*
G37*
%TD*%
%TO.C,C16*%
G36*
G01*
X177508333Y-95175000D02*
X179491667Y-95175000D01*
G75*
G02*
X179775000Y-95458333I0J-283333D01*
G01*
X179775000Y-96591667D01*
G75*
G02*
X179491667Y-96875000I-283333J0D01*
G01*
X177508333Y-96875000D01*
G75*
G02*
X177225000Y-96591667I0J283333D01*
G01*
X177225000Y-95458333D01*
G75*
G02*
X177508333Y-95175000I283333J0D01*
G01*
G37*
G36*
G01*
X177508333Y-91925000D02*
X179491667Y-91925000D01*
G75*
G02*
X179775000Y-92208333I0J-283333D01*
G01*
X179775000Y-93341667D01*
G75*
G02*
X179491667Y-93625000I-283333J0D01*
G01*
X177508333Y-93625000D01*
G75*
G02*
X177225000Y-93341667I0J283333D01*
G01*
X177225000Y-92208333D01*
G75*
G02*
X177508333Y-91925000I283333J0D01*
G01*
G37*
%TD*%
%TO.C,C17*%
G36*
G01*
X174967553Y-94750000D02*
X176032447Y-94750000D01*
G75*
G02*
X176325000Y-95042553I0J-292553D01*
G01*
X176325000Y-95832447D01*
G75*
G02*
X176032447Y-96125000I-292553J0D01*
G01*
X174967553Y-96125000D01*
G75*
G02*
X174675000Y-95832447I0J292553D01*
G01*
X174675000Y-95042553D01*
G75*
G02*
X174967553Y-94750000I292553J0D01*
G01*
G37*
G36*
G01*
X174967553Y-92675000D02*
X176032447Y-92675000D01*
G75*
G02*
X176325000Y-92967553I0J-292553D01*
G01*
X176325000Y-93757447D01*
G75*
G02*
X176032447Y-94050000I-292553J0D01*
G01*
X174967553Y-94050000D01*
G75*
G02*
X174675000Y-93757447I0J292553D01*
G01*
X174675000Y-92967553D01*
G75*
G02*
X174967553Y-92675000I292553J0D01*
G01*
G37*
%TD*%
%TO.C,C18*%
G36*
G01*
X136850000Y-101932447D02*
X136850000Y-100867553D01*
G75*
G02*
X137142553Y-100575000I292553J0D01*
G01*
X137932447Y-100575000D01*
G75*
G02*
X138225000Y-100867553I0J-292553D01*
G01*
X138225000Y-101932447D01*
G75*
G02*
X137932447Y-102225000I-292553J0D01*
G01*
X137142553Y-102225000D01*
G75*
G02*
X136850000Y-101932447I0J292553D01*
G01*
G37*
G36*
G01*
X134775000Y-101932447D02*
X134775000Y-100867553D01*
G75*
G02*
X135067553Y-100575000I292553J0D01*
G01*
X135857447Y-100575000D01*
G75*
G02*
X136150000Y-100867553I0J-292553D01*
G01*
X136150000Y-101932447D01*
G75*
G02*
X135857447Y-102225000I-292553J0D01*
G01*
X135067553Y-102225000D01*
G75*
G02*
X134775000Y-101932447I0J292553D01*
G01*
G37*
%TD*%
%TO.C,C19*%
G36*
G01*
X136850000Y-99932447D02*
X136850000Y-98867553D01*
G75*
G02*
X137142553Y-98575000I292553J0D01*
G01*
X137932447Y-98575000D01*
G75*
G02*
X138225000Y-98867553I0J-292553D01*
G01*
X138225000Y-99932447D01*
G75*
G02*
X137932447Y-100225000I-292553J0D01*
G01*
X137142553Y-100225000D01*
G75*
G02*
X136850000Y-99932447I0J292553D01*
G01*
G37*
G36*
G01*
X134775000Y-99932447D02*
X134775000Y-98867553D01*
G75*
G02*
X135067553Y-98575000I292553J0D01*
G01*
X135857447Y-98575000D01*
G75*
G02*
X136150000Y-98867553I0J-292553D01*
G01*
X136150000Y-99932447D01*
G75*
G02*
X135857447Y-100225000I-292553J0D01*
G01*
X135067553Y-100225000D01*
G75*
G02*
X134775000Y-99932447I0J292553D01*
G01*
G37*
%TD*%
%TO.C,C26*%
G36*
G01*
X161450000Y-95182447D02*
X161450000Y-94117553D01*
G75*
G02*
X161742553Y-93825000I292553J0D01*
G01*
X162532447Y-93825000D01*
G75*
G02*
X162825000Y-94117553I0J-292553D01*
G01*
X162825000Y-95182447D01*
G75*
G02*
X162532447Y-95475000I-292553J0D01*
G01*
X161742553Y-95475000D01*
G75*
G02*
X161450000Y-95182447I0J292553D01*
G01*
G37*
G36*
G01*
X159375000Y-95182447D02*
X159375000Y-94117553D01*
G75*
G02*
X159667553Y-93825000I292553J0D01*
G01*
X160457447Y-93825000D01*
G75*
G02*
X160750000Y-94117553I0J-292553D01*
G01*
X160750000Y-95182447D01*
G75*
G02*
X160457447Y-95475000I-292553J0D01*
G01*
X159667553Y-95475000D01*
G75*
G02*
X159375000Y-95182447I0J292553D01*
G01*
G37*
%TD*%
%TO.C,C27*%
G36*
G01*
X161850000Y-97932447D02*
X161850000Y-96867553D01*
G75*
G02*
X162142553Y-96575000I292553J0D01*
G01*
X162932447Y-96575000D01*
G75*
G02*
X163225000Y-96867553I0J-292553D01*
G01*
X163225000Y-97932447D01*
G75*
G02*
X162932447Y-98225000I-292553J0D01*
G01*
X162142553Y-98225000D01*
G75*
G02*
X161850000Y-97932447I0J292553D01*
G01*
G37*
G36*
G01*
X159775000Y-97932447D02*
X159775000Y-96867553D01*
G75*
G02*
X160067553Y-96575000I292553J0D01*
G01*
X160857447Y-96575000D01*
G75*
G02*
X161150000Y-96867553I0J-292553D01*
G01*
X161150000Y-97932447D01*
G75*
G02*
X160857447Y-98225000I-292553J0D01*
G01*
X160067553Y-98225000D01*
G75*
G02*
X159775000Y-97932447I0J292553D01*
G01*
G37*
%TD*%
%TO.C,C30*%
G36*
G01*
X125150000Y-99867553D02*
X125150000Y-100932447D01*
G75*
G02*
X124857447Y-101225000I-292553J0D01*
G01*
X124067553Y-101225000D01*
G75*
G02*
X123775000Y-100932447I0J292553D01*
G01*
X123775000Y-99867553D01*
G75*
G02*
X124067553Y-99575000I292553J0D01*
G01*
X124857447Y-99575000D01*
G75*
G02*
X125150000Y-99867553I0J-292553D01*
G01*
G37*
G36*
G01*
X127225000Y-99867553D02*
X127225000Y-100932447D01*
G75*
G02*
X126932447Y-101225000I-292553J0D01*
G01*
X126142553Y-101225000D01*
G75*
G02*
X125850000Y-100932447I0J292553D01*
G01*
X125850000Y-99867553D01*
G75*
G02*
X126142553Y-99575000I292553J0D01*
G01*
X126932447Y-99575000D01*
G75*
G02*
X127225000Y-99867553I0J-292553D01*
G01*
G37*
%TD*%
D10*
%TO.C,H1*%
X111000000Y-79900000D03*
%TD*%
D11*
%TO.C,J1*%
X143000000Y-79740000D03*
X128500000Y-79740000D03*
D12*
X143000000Y-85700000D03*
X128500000Y-85700000D03*
G36*
G01*
X140500000Y-84900000D02*
X140500000Y-87500000D01*
G75*
G02*
X140400000Y-87600000I-100000J0D01*
G01*
X140100000Y-87600000D01*
G75*
G02*
X140000000Y-87500000I0J100000D01*
G01*
X140000000Y-84900000D01*
G75*
G02*
X140100000Y-84800000I100000J0D01*
G01*
X140400000Y-84800000D01*
G75*
G02*
X140500000Y-84900000I0J-100000D01*
G01*
G37*
G36*
G01*
X140000000Y-84900000D02*
X140000000Y-87500000D01*
G75*
G02*
X139900000Y-87600000I-100000J0D01*
G01*
X139600000Y-87600000D01*
G75*
G02*
X139500000Y-87500000I0J100000D01*
G01*
X139500000Y-84900000D01*
G75*
G02*
X139600000Y-84800000I100000J0D01*
G01*
X139900000Y-84800000D01*
G75*
G02*
X140000000Y-84900000I0J-100000D01*
G01*
G37*
G36*
G01*
X139500000Y-84900000D02*
X139500000Y-87500000D01*
G75*
G02*
X139400000Y-87600000I-100000J0D01*
G01*
X139100000Y-87600000D01*
G75*
G02*
X139000000Y-87500000I0J100000D01*
G01*
X139000000Y-84900000D01*
G75*
G02*
X139100000Y-84800000I100000J0D01*
G01*
X139400000Y-84800000D01*
G75*
G02*
X139500000Y-84900000I0J-100000D01*
G01*
G37*
G36*
G01*
X139000000Y-84900000D02*
X139000000Y-87500000D01*
G75*
G02*
X138900000Y-87600000I-100000J0D01*
G01*
X138600000Y-87600000D01*
G75*
G02*
X138500000Y-87500000I0J100000D01*
G01*
X138500000Y-84900000D01*
G75*
G02*
X138600000Y-84800000I100000J0D01*
G01*
X138900000Y-84800000D01*
G75*
G02*
X139000000Y-84900000I0J-100000D01*
G01*
G37*
G36*
G01*
X138500000Y-84900000D02*
X138500000Y-87500000D01*
G75*
G02*
X138400000Y-87600000I-100000J0D01*
G01*
X138100000Y-87600000D01*
G75*
G02*
X138000000Y-87500000I0J100000D01*
G01*
X138000000Y-84900000D01*
G75*
G02*
X138100000Y-84800000I100000J0D01*
G01*
X138400000Y-84800000D01*
G75*
G02*
X138500000Y-84900000I0J-100000D01*
G01*
G37*
G36*
G01*
X138000000Y-84900000D02*
X138000000Y-87500000D01*
G75*
G02*
X137900000Y-87600000I-100000J0D01*
G01*
X137600000Y-87600000D01*
G75*
G02*
X137500000Y-87500000I0J100000D01*
G01*
X137500000Y-84900000D01*
G75*
G02*
X137600000Y-84800000I100000J0D01*
G01*
X137900000Y-84800000D01*
G75*
G02*
X138000000Y-84900000I0J-100000D01*
G01*
G37*
G36*
G01*
X137500000Y-84900000D02*
X137500000Y-87500000D01*
G75*
G02*
X137400000Y-87600000I-100000J0D01*
G01*
X137100000Y-87600000D01*
G75*
G02*
X137000000Y-87500000I0J100000D01*
G01*
X137000000Y-84900000D01*
G75*
G02*
X137100000Y-84800000I100000J0D01*
G01*
X137400000Y-84800000D01*
G75*
G02*
X137500000Y-84900000I0J-100000D01*
G01*
G37*
G36*
G01*
X137000000Y-84900000D02*
X137000000Y-87500000D01*
G75*
G02*
X136900000Y-87600000I-100000J0D01*
G01*
X136600000Y-87600000D01*
G75*
G02*
X136500000Y-87500000I0J100000D01*
G01*
X136500000Y-84900000D01*
G75*
G02*
X136600000Y-84800000I100000J0D01*
G01*
X136900000Y-84800000D01*
G75*
G02*
X137000000Y-84900000I0J-100000D01*
G01*
G37*
G36*
G01*
X136500000Y-84900000D02*
X136500000Y-87500000D01*
G75*
G02*
X136400000Y-87600000I-100000J0D01*
G01*
X136100000Y-87600000D01*
G75*
G02*
X136000000Y-87500000I0J100000D01*
G01*
X136000000Y-84900000D01*
G75*
G02*
X136100000Y-84800000I100000J0D01*
G01*
X136400000Y-84800000D01*
G75*
G02*
X136500000Y-84900000I0J-100000D01*
G01*
G37*
G36*
G01*
X136000000Y-84900000D02*
X136000000Y-87500000D01*
G75*
G02*
X135900000Y-87600000I-100000J0D01*
G01*
X135600000Y-87600000D01*
G75*
G02*
X135500000Y-87500000I0J100000D01*
G01*
X135500000Y-84900000D01*
G75*
G02*
X135600000Y-84800000I100000J0D01*
G01*
X135900000Y-84800000D01*
G75*
G02*
X136000000Y-84900000I0J-100000D01*
G01*
G37*
G36*
G01*
X135500000Y-84900000D02*
X135500000Y-87500000D01*
G75*
G02*
X135400000Y-87600000I-100000J0D01*
G01*
X135100000Y-87600000D01*
G75*
G02*
X135000000Y-87500000I0J100000D01*
G01*
X135000000Y-84900000D01*
G75*
G02*
X135100000Y-84800000I100000J0D01*
G01*
X135400000Y-84800000D01*
G75*
G02*
X135500000Y-84900000I0J-100000D01*
G01*
G37*
G36*
G01*
X135000000Y-84900000D02*
X135000000Y-87500000D01*
G75*
G02*
X134900000Y-87600000I-100000J0D01*
G01*
X134600000Y-87600000D01*
G75*
G02*
X134500000Y-87500000I0J100000D01*
G01*
X134500000Y-84900000D01*
G75*
G02*
X134600000Y-84800000I100000J0D01*
G01*
X134900000Y-84800000D01*
G75*
G02*
X135000000Y-84900000I0J-100000D01*
G01*
G37*
G36*
G01*
X134500000Y-84900000D02*
X134500000Y-87500000D01*
G75*
G02*
X134400000Y-87600000I-100000J0D01*
G01*
X134100000Y-87600000D01*
G75*
G02*
X134000000Y-87500000I0J100000D01*
G01*
X134000000Y-84900000D01*
G75*
G02*
X134100000Y-84800000I100000J0D01*
G01*
X134400000Y-84800000D01*
G75*
G02*
X134500000Y-84900000I0J-100000D01*
G01*
G37*
G36*
G01*
X134000000Y-84900000D02*
X134000000Y-87500000D01*
G75*
G02*
X133900000Y-87600000I-100000J0D01*
G01*
X133600000Y-87600000D01*
G75*
G02*
X133500000Y-87500000I0J100000D01*
G01*
X133500000Y-84900000D01*
G75*
G02*
X133600000Y-84800000I100000J0D01*
G01*
X133900000Y-84800000D01*
G75*
G02*
X134000000Y-84900000I0J-100000D01*
G01*
G37*
G36*
G01*
X133500000Y-84900000D02*
X133500000Y-87500000D01*
G75*
G02*
X133400000Y-87600000I-100000J0D01*
G01*
X133100000Y-87600000D01*
G75*
G02*
X133000000Y-87500000I0J100000D01*
G01*
X133000000Y-84900000D01*
G75*
G02*
X133100000Y-84800000I100000J0D01*
G01*
X133400000Y-84800000D01*
G75*
G02*
X133500000Y-84900000I0J-100000D01*
G01*
G37*
G36*
G01*
X133000000Y-84900000D02*
X133000000Y-87500000D01*
G75*
G02*
X132900000Y-87600000I-100000J0D01*
G01*
X132600000Y-87600000D01*
G75*
G02*
X132500000Y-87500000I0J100000D01*
G01*
X132500000Y-84900000D01*
G75*
G02*
X132600000Y-84800000I100000J0D01*
G01*
X132900000Y-84800000D01*
G75*
G02*
X133000000Y-84900000I0J-100000D01*
G01*
G37*
G36*
G01*
X132500000Y-84900000D02*
X132500000Y-87500000D01*
G75*
G02*
X132400000Y-87600000I-100000J0D01*
G01*
X132100000Y-87600000D01*
G75*
G02*
X132000000Y-87500000I0J100000D01*
G01*
X132000000Y-84900000D01*
G75*
G02*
X132100000Y-84800000I100000J0D01*
G01*
X132400000Y-84800000D01*
G75*
G02*
X132500000Y-84900000I0J-100000D01*
G01*
G37*
G36*
G01*
X132000000Y-84900000D02*
X132000000Y-87500000D01*
G75*
G02*
X131900000Y-87600000I-100000J0D01*
G01*
X131600000Y-87600000D01*
G75*
G02*
X131500000Y-87500000I0J100000D01*
G01*
X131500000Y-84900000D01*
G75*
G02*
X131600000Y-84800000I100000J0D01*
G01*
X131900000Y-84800000D01*
G75*
G02*
X132000000Y-84900000I0J-100000D01*
G01*
G37*
G36*
G01*
X131500000Y-84900000D02*
X131500000Y-87500000D01*
G75*
G02*
X131400000Y-87600000I-100000J0D01*
G01*
X131100000Y-87600000D01*
G75*
G02*
X131000000Y-87500000I0J100000D01*
G01*
X131000000Y-84900000D01*
G75*
G02*
X131100000Y-84800000I100000J0D01*
G01*
X131400000Y-84800000D01*
G75*
G02*
X131500000Y-84900000I0J-100000D01*
G01*
G37*
%TD*%
%TO.C,L1*%
G36*
G01*
X164550000Y-92243477D02*
X164550000Y-93256523D01*
G75*
G02*
X164256523Y-93550000I-293477J0D01*
G01*
X163493477Y-93550000D01*
G75*
G02*
X163200000Y-93256523I0J293477D01*
G01*
X163200000Y-92243477D01*
G75*
G02*
X163493477Y-91950000I293477J0D01*
G01*
X164256523Y-91950000D01*
G75*
G02*
X164550000Y-92243477I0J-293477D01*
G01*
G37*
G36*
G01*
X166600000Y-92243477D02*
X166600000Y-93256523D01*
G75*
G02*
X166306523Y-93550000I-293477J0D01*
G01*
X165543477Y-93550000D01*
G75*
G02*
X165250000Y-93256523I0J293477D01*
G01*
X165250000Y-92243477D01*
G75*
G02*
X165543477Y-91950000I293477J0D01*
G01*
X166306523Y-91950000D01*
G75*
G02*
X166600000Y-92243477I0J-293477D01*
G01*
G37*
%TD*%
%TO.C,L2*%
G36*
G01*
X167150000Y-89893477D02*
X167150000Y-90906523D01*
G75*
G02*
X166856523Y-91200000I-293477J0D01*
G01*
X166093477Y-91200000D01*
G75*
G02*
X165800000Y-90906523I0J293477D01*
G01*
X165800000Y-89893477D01*
G75*
G02*
X166093477Y-89600000I293477J0D01*
G01*
X166856523Y-89600000D01*
G75*
G02*
X167150000Y-89893477I0J-293477D01*
G01*
G37*
G36*
G01*
X169200000Y-89893477D02*
X169200000Y-90906523D01*
G75*
G02*
X168906523Y-91200000I-293477J0D01*
G01*
X168143477Y-91200000D01*
G75*
G02*
X167850000Y-90906523I0J293477D01*
G01*
X167850000Y-89893477D01*
G75*
G02*
X168143477Y-89600000I293477J0D01*
G01*
X168906523Y-89600000D01*
G75*
G02*
X169200000Y-89893477I0J-293477D01*
G01*
G37*
%TD*%
%TO.C,L3*%
G36*
G01*
X167150000Y-86893477D02*
X167150000Y-87906523D01*
G75*
G02*
X166856523Y-88200000I-293477J0D01*
G01*
X166093477Y-88200000D01*
G75*
G02*
X165800000Y-87906523I0J293477D01*
G01*
X165800000Y-86893477D01*
G75*
G02*
X166093477Y-86600000I293477J0D01*
G01*
X166856523Y-86600000D01*
G75*
G02*
X167150000Y-86893477I0J-293477D01*
G01*
G37*
G36*
G01*
X169200000Y-86893477D02*
X169200000Y-87906523D01*
G75*
G02*
X168906523Y-88200000I-293477J0D01*
G01*
X168143477Y-88200000D01*
G75*
G02*
X167850000Y-87906523I0J293477D01*
G01*
X167850000Y-86893477D01*
G75*
G02*
X168143477Y-86600000I293477J0D01*
G01*
X168906523Y-86600000D01*
G75*
G02*
X169200000Y-86893477I0J-293477D01*
G01*
G37*
%TD*%
%TO.C,L4*%
G36*
G01*
X167150000Y-83893477D02*
X167150000Y-84906523D01*
G75*
G02*
X166856523Y-85200000I-293477J0D01*
G01*
X166093477Y-85200000D01*
G75*
G02*
X165800000Y-84906523I0J293477D01*
G01*
X165800000Y-83893477D01*
G75*
G02*
X166093477Y-83600000I293477J0D01*
G01*
X166856523Y-83600000D01*
G75*
G02*
X167150000Y-83893477I0J-293477D01*
G01*
G37*
G36*
G01*
X169200000Y-83893477D02*
X169200000Y-84906523D01*
G75*
G02*
X168906523Y-85200000I-293477J0D01*
G01*
X168143477Y-85200000D01*
G75*
G02*
X167850000Y-84906523I0J293477D01*
G01*
X167850000Y-83893477D01*
G75*
G02*
X168143477Y-83600000I293477J0D01*
G01*
X168906523Y-83600000D01*
G75*
G02*
X169200000Y-83893477I0J-293477D01*
G01*
G37*
%TD*%
%TO.C,R1*%
G36*
G01*
X166800000Y-100908335D02*
X166800000Y-99891665D01*
G75*
G02*
X167091665Y-99600000I291665J0D01*
G01*
X167908335Y-99600000D01*
G75*
G02*
X168200000Y-99891665I0J-291665D01*
G01*
X168200000Y-100908335D01*
G75*
G02*
X167908335Y-101200000I-291665J0D01*
G01*
X167091665Y-101200000D01*
G75*
G02*
X166800000Y-100908335I0J291665D01*
G01*
G37*
G36*
G01*
X164800000Y-100908335D02*
X164800000Y-99891665D01*
G75*
G02*
X165091665Y-99600000I291665J0D01*
G01*
X165908335Y-99600000D01*
G75*
G02*
X166200000Y-99891665I0J-291665D01*
G01*
X166200000Y-100908335D01*
G75*
G02*
X165908335Y-101200000I-291665J0D01*
G01*
X165091665Y-101200000D01*
G75*
G02*
X164800000Y-100908335I0J291665D01*
G01*
G37*
%TD*%
%TO.C,R2*%
G36*
G01*
X165600000Y-98858335D02*
X165600000Y-97841665D01*
G75*
G02*
X165891665Y-97550000I291665J0D01*
G01*
X166708335Y-97550000D01*
G75*
G02*
X167000000Y-97841665I0J-291665D01*
G01*
X167000000Y-98858335D01*
G75*
G02*
X166708335Y-99150000I-291665J0D01*
G01*
X165891665Y-99150000D01*
G75*
G02*
X165600000Y-98858335I0J291665D01*
G01*
G37*
G36*
G01*
X163600000Y-98858335D02*
X163600000Y-97841665D01*
G75*
G02*
X163891665Y-97550000I291665J0D01*
G01*
X164708335Y-97550000D01*
G75*
G02*
X165000000Y-97841665I0J-291665D01*
G01*
X165000000Y-98858335D01*
G75*
G02*
X164708335Y-99150000I-291665J0D01*
G01*
X163891665Y-99150000D01*
G75*
G02*
X163600000Y-98858335I0J291665D01*
G01*
G37*
%TD*%
%TO.C,R14*%
G36*
G01*
X146008335Y-88100000D02*
X144991665Y-88100000D01*
G75*
G02*
X144700000Y-87808335I0J291665D01*
G01*
X144700000Y-86991665D01*
G75*
G02*
X144991665Y-86700000I291665J0D01*
G01*
X146008335Y-86700000D01*
G75*
G02*
X146300000Y-86991665I0J-291665D01*
G01*
X146300000Y-87808335D01*
G75*
G02*
X146008335Y-88100000I-291665J0D01*
G01*
G37*
G36*
G01*
X146008335Y-90100000D02*
X144991665Y-90100000D01*
G75*
G02*
X144700000Y-89808335I0J291665D01*
G01*
X144700000Y-88991665D01*
G75*
G02*
X144991665Y-88700000I291665J0D01*
G01*
X146008335Y-88700000D01*
G75*
G02*
X146300000Y-88991665I0J-291665D01*
G01*
X146300000Y-89808335D01*
G75*
G02*
X146008335Y-90100000I-291665J0D01*
G01*
G37*
%TD*%
%TO.C,R15*%
G36*
G01*
X122825000Y-95687500D02*
X122825000Y-95112500D01*
G75*
G02*
X123112500Y-94825000I287500J0D01*
G01*
X123712500Y-94825000D01*
G75*
G02*
X124000000Y-95112500I0J-287500D01*
G01*
X124000000Y-95687500D01*
G75*
G02*
X123712500Y-95975000I-287500J0D01*
G01*
X123112500Y-95975000D01*
G75*
G02*
X122825000Y-95687500I0J287500D01*
G01*
G37*
G36*
G01*
X121000000Y-95687500D02*
X121000000Y-95112500D01*
G75*
G02*
X121287500Y-94825000I287500J0D01*
G01*
X121887500Y-94825000D01*
G75*
G02*
X122175000Y-95112500I0J-287500D01*
G01*
X122175000Y-95687500D01*
G75*
G02*
X121887500Y-95975000I-287500J0D01*
G01*
X121287500Y-95975000D01*
G75*
G02*
X121000000Y-95687500I0J287500D01*
G01*
G37*
%TD*%
%TO.C,R16*%
G36*
G01*
X122825000Y-93687500D02*
X122825000Y-93112500D01*
G75*
G02*
X123112500Y-92825000I287500J0D01*
G01*
X123712500Y-92825000D01*
G75*
G02*
X124000000Y-93112500I0J-287500D01*
G01*
X124000000Y-93687500D01*
G75*
G02*
X123712500Y-93975000I-287500J0D01*
G01*
X123112500Y-93975000D01*
G75*
G02*
X122825000Y-93687500I0J287500D01*
G01*
G37*
G36*
G01*
X121000000Y-93687500D02*
X121000000Y-93112500D01*
G75*
G02*
X121287500Y-92825000I287500J0D01*
G01*
X121887500Y-92825000D01*
G75*
G02*
X122175000Y-93112500I0J-287500D01*
G01*
X122175000Y-93687500D01*
G75*
G02*
X121887500Y-93975000I-287500J0D01*
G01*
X121287500Y-93975000D01*
G75*
G02*
X121000000Y-93687500I0J287500D01*
G01*
G37*
%TD*%
%TO.C,U1*%
G36*
G01*
X182950000Y-97650000D02*
X181450000Y-97650000D01*
G75*
G02*
X181350000Y-97550000I0J100000D01*
G01*
X181350000Y-95550000D01*
G75*
G02*
X181450000Y-95450000I100000J0D01*
G01*
X182950000Y-95450000D01*
G75*
G02*
X183050000Y-95550000I0J-100000D01*
G01*
X183050000Y-97550000D01*
G75*
G02*
X182950000Y-97650000I-100000J0D01*
G01*
G37*
G36*
G01*
X187550000Y-97650000D02*
X186050000Y-97650000D01*
G75*
G02*
X185950000Y-97550000I0J100000D01*
G01*
X185950000Y-95550000D01*
G75*
G02*
X186050000Y-95450000I100000J0D01*
G01*
X187550000Y-95450000D01*
G75*
G02*
X187650000Y-95550000I0J-100000D01*
G01*
X187650000Y-97550000D01*
G75*
G02*
X187550000Y-97650000I-100000J0D01*
G01*
G37*
G36*
G01*
X185250000Y-97650000D02*
X183750000Y-97650000D01*
G75*
G02*
X183650000Y-97550000I0J100000D01*
G01*
X183650000Y-95550000D01*
G75*
G02*
X183750000Y-95450000I100000J0D01*
G01*
X185250000Y-95450000D01*
G75*
G02*
X185350000Y-95550000I0J-100000D01*
G01*
X185350000Y-97550000D01*
G75*
G02*
X185250000Y-97650000I-100000J0D01*
G01*
G37*
G36*
G01*
X186400000Y-91350000D02*
X182600000Y-91350000D01*
G75*
G02*
X182500000Y-91250000I0J100000D01*
G01*
X182500000Y-89250000D01*
G75*
G02*
X182600000Y-89150000I100000J0D01*
G01*
X186400000Y-89150000D01*
G75*
G02*
X186500000Y-89250000I0J-100000D01*
G01*
X186500000Y-91250000D01*
G75*
G02*
X186400000Y-91350000I-100000J0D01*
G01*
G37*
%TD*%
%TO.C,U2*%
G36*
G01*
X136923400Y-95955900D02*
X137710800Y-95955900D01*
G75*
G02*
X137810800Y-96055900I0J-100000D01*
G01*
X137810800Y-96309900D01*
G75*
G02*
X137710800Y-96409900I-100000J0D01*
G01*
X136923400Y-96409900D01*
G75*
G02*
X136823400Y-96309900I0J100000D01*
G01*
X136823400Y-96055900D01*
G75*
G02*
X136923400Y-95955900I100000J0D01*
G01*
G37*
G36*
G01*
X136923400Y-95455901D02*
X137710800Y-95455901D01*
G75*
G02*
X137810800Y-95555901I0J-100000D01*
G01*
X137810800Y-95809901D01*
G75*
G02*
X137710800Y-95909901I-100000J0D01*
G01*
X136923400Y-95909901D01*
G75*
G02*
X136823400Y-95809901I0J100000D01*
G01*
X136823400Y-95555901D01*
G75*
G02*
X136923400Y-95455901I100000J0D01*
G01*
G37*
G36*
G01*
X136923400Y-94955899D02*
X137710800Y-94955899D01*
G75*
G02*
X137810800Y-95055899I0J-100000D01*
G01*
X137810800Y-95309899D01*
G75*
G02*
X137710800Y-95409899I-100000J0D01*
G01*
X136923400Y-95409899D01*
G75*
G02*
X136823400Y-95309899I0J100000D01*
G01*
X136823400Y-95055899D01*
G75*
G02*
X136923400Y-94955899I100000J0D01*
G01*
G37*
G36*
G01*
X136923400Y-94455900D02*
X137710800Y-94455900D01*
G75*
G02*
X137810800Y-94555900I0J-100000D01*
G01*
X137810800Y-94809900D01*
G75*
G02*
X137710800Y-94909900I-100000J0D01*
G01*
X136923400Y-94909900D01*
G75*
G02*
X136823400Y-94809900I0J100000D01*
G01*
X136823400Y-94555900D01*
G75*
G02*
X136923400Y-94455900I100000J0D01*
G01*
G37*
G36*
G01*
X136923400Y-93955901D02*
X137710800Y-93955901D01*
G75*
G02*
X137810800Y-94055901I0J-100000D01*
G01*
X137810800Y-94309901D01*
G75*
G02*
X137710800Y-94409901I-100000J0D01*
G01*
X136923400Y-94409901D01*
G75*
G02*
X136823400Y-94309901I0J100000D01*
G01*
X136823400Y-94055901D01*
G75*
G02*
X136923400Y-93955901I100000J0D01*
G01*
G37*
G36*
G01*
X136923400Y-93455900D02*
X137710800Y-93455900D01*
G75*
G02*
X137810800Y-93555900I0J-100000D01*
G01*
X137810800Y-93809900D01*
G75*
G02*
X137710800Y-93909900I-100000J0D01*
G01*
X136923400Y-93909900D01*
G75*
G02*
X136823400Y-93809900I0J100000D01*
G01*
X136823400Y-93555900D01*
G75*
G02*
X136923400Y-93455900I100000J0D01*
G01*
G37*
G36*
G01*
X136923400Y-92955900D02*
X137710800Y-92955900D01*
G75*
G02*
X137810800Y-93055900I0J-100000D01*
G01*
X137810800Y-93309900D01*
G75*
G02*
X137710800Y-93409900I-100000J0D01*
G01*
X136923400Y-93409900D01*
G75*
G02*
X136823400Y-93309900I0J100000D01*
G01*
X136823400Y-93055900D01*
G75*
G02*
X136923400Y-92955900I100000J0D01*
G01*
G37*
G36*
G01*
X136923400Y-92455899D02*
X137710800Y-92455899D01*
G75*
G02*
X137810800Y-92555899I0J-100000D01*
G01*
X137810800Y-92809899D01*
G75*
G02*
X137710800Y-92909899I-100000J0D01*
G01*
X136923400Y-92909899D01*
G75*
G02*
X136823400Y-92809899I0J100000D01*
G01*
X136823400Y-92555899D01*
G75*
G02*
X136923400Y-92455899I100000J0D01*
G01*
G37*
G36*
G01*
X136923400Y-91955900D02*
X137710800Y-91955900D01*
G75*
G02*
X137810800Y-92055900I0J-100000D01*
G01*
X137810800Y-92309900D01*
G75*
G02*
X137710800Y-92409900I-100000J0D01*
G01*
X136923400Y-92409900D01*
G75*
G02*
X136823400Y-92309900I0J100000D01*
G01*
X136823400Y-92055900D01*
G75*
G02*
X136923400Y-91955900I100000J0D01*
G01*
G37*
G36*
G01*
X136923400Y-91455901D02*
X137710800Y-91455901D01*
G75*
G02*
X137810800Y-91555901I0J-100000D01*
G01*
X137810800Y-91809901D01*
G75*
G02*
X137710800Y-91909901I-100000J0D01*
G01*
X136923400Y-91909901D01*
G75*
G02*
X136823400Y-91809901I0J100000D01*
G01*
X136823400Y-91555901D01*
G75*
G02*
X136923400Y-91455901I100000J0D01*
G01*
G37*
G36*
G01*
X136923400Y-90955899D02*
X137710800Y-90955899D01*
G75*
G02*
X137810800Y-91055899I0J-100000D01*
G01*
X137810800Y-91309899D01*
G75*
G02*
X137710800Y-91409899I-100000J0D01*
G01*
X136923400Y-91409899D01*
G75*
G02*
X136823400Y-91309899I0J100000D01*
G01*
X136823400Y-91055899D01*
G75*
G02*
X136923400Y-90955899I100000J0D01*
G01*
G37*
G36*
G01*
X136923400Y-90455900D02*
X137710800Y-90455900D01*
G75*
G02*
X137810800Y-90555900I0J-100000D01*
G01*
X137810800Y-90809900D01*
G75*
G02*
X137710800Y-90909900I-100000J0D01*
G01*
X136923400Y-90909900D01*
G75*
G02*
X136823400Y-90809900I0J100000D01*
G01*
X136823400Y-90555900D01*
G75*
G02*
X136923400Y-90455900I100000J0D01*
G01*
G37*
G36*
G01*
X136827000Y-89572100D02*
X136827000Y-90359500D01*
G75*
G02*
X136727000Y-90459500I-100000J0D01*
G01*
X136473000Y-90459500D01*
G75*
G02*
X136373000Y-90359500I0J100000D01*
G01*
X136373000Y-89572100D01*
G75*
G02*
X136473000Y-89472100I100000J0D01*
G01*
X136727000Y-89472100D01*
G75*
G02*
X136827000Y-89572100I0J-100000D01*
G01*
G37*
G36*
G01*
X136327001Y-89572100D02*
X136327001Y-90359500D01*
G75*
G02*
X136227001Y-90459500I-100000J0D01*
G01*
X135973001Y-90459500D01*
G75*
G02*
X135873001Y-90359500I0J100000D01*
G01*
X135873001Y-89572100D01*
G75*
G02*
X135973001Y-89472100I100000J0D01*
G01*
X136227001Y-89472100D01*
G75*
G02*
X136327001Y-89572100I0J-100000D01*
G01*
G37*
G36*
G01*
X135826999Y-89572100D02*
X135826999Y-90359500D01*
G75*
G02*
X135726999Y-90459500I-100000J0D01*
G01*
X135472999Y-90459500D01*
G75*
G02*
X135372999Y-90359500I0J100000D01*
G01*
X135372999Y-89572100D01*
G75*
G02*
X135472999Y-89472100I100000J0D01*
G01*
X135726999Y-89472100D01*
G75*
G02*
X135826999Y-89572100I0J-100000D01*
G01*
G37*
G36*
G01*
X135327000Y-89572100D02*
X135327000Y-90359500D01*
G75*
G02*
X135227000Y-90459500I-100000J0D01*
G01*
X134973000Y-90459500D01*
G75*
G02*
X134873000Y-90359500I0J100000D01*
G01*
X134873000Y-89572100D01*
G75*
G02*
X134973000Y-89472100I100000J0D01*
G01*
X135227000Y-89472100D01*
G75*
G02*
X135327000Y-89572100I0J-100000D01*
G01*
G37*
G36*
G01*
X134827001Y-89572100D02*
X134827001Y-90359500D01*
G75*
G02*
X134727001Y-90459500I-100000J0D01*
G01*
X134473001Y-90459500D01*
G75*
G02*
X134373001Y-90359500I0J100000D01*
G01*
X134373001Y-89572100D01*
G75*
G02*
X134473001Y-89472100I100000J0D01*
G01*
X134727001Y-89472100D01*
G75*
G02*
X134827001Y-89572100I0J-100000D01*
G01*
G37*
G36*
G01*
X134327000Y-89572100D02*
X134327000Y-90359500D01*
G75*
G02*
X134227000Y-90459500I-100000J0D01*
G01*
X133973000Y-90459500D01*
G75*
G02*
X133873000Y-90359500I0J100000D01*
G01*
X133873000Y-89572100D01*
G75*
G02*
X133973000Y-89472100I100000J0D01*
G01*
X134227000Y-89472100D01*
G75*
G02*
X134327000Y-89572100I0J-100000D01*
G01*
G37*
G36*
G01*
X133827000Y-89572100D02*
X133827000Y-90359500D01*
G75*
G02*
X133727000Y-90459500I-100000J0D01*
G01*
X133473000Y-90459500D01*
G75*
G02*
X133373000Y-90359500I0J100000D01*
G01*
X133373000Y-89572100D01*
G75*
G02*
X133473000Y-89472100I100000J0D01*
G01*
X133727000Y-89472100D01*
G75*
G02*
X133827000Y-89572100I0J-100000D01*
G01*
G37*
G36*
G01*
X133326999Y-89572100D02*
X133326999Y-90359500D01*
G75*
G02*
X133226999Y-90459500I-100000J0D01*
G01*
X132972999Y-90459500D01*
G75*
G02*
X132872999Y-90359500I0J100000D01*
G01*
X132872999Y-89572100D01*
G75*
G02*
X132972999Y-89472100I100000J0D01*
G01*
X133226999Y-89472100D01*
G75*
G02*
X133326999Y-89572100I0J-100000D01*
G01*
G37*
G36*
G01*
X132827000Y-89572100D02*
X132827000Y-90359500D01*
G75*
G02*
X132727000Y-90459500I-100000J0D01*
G01*
X132473000Y-90459500D01*
G75*
G02*
X132373000Y-90359500I0J100000D01*
G01*
X132373000Y-89572100D01*
G75*
G02*
X132473000Y-89472100I100000J0D01*
G01*
X132727000Y-89472100D01*
G75*
G02*
X132827000Y-89572100I0J-100000D01*
G01*
G37*
G36*
G01*
X132327001Y-89572100D02*
X132327001Y-90359500D01*
G75*
G02*
X132227001Y-90459500I-100000J0D01*
G01*
X131973001Y-90459500D01*
G75*
G02*
X131873001Y-90359500I0J100000D01*
G01*
X131873001Y-89572100D01*
G75*
G02*
X131973001Y-89472100I100000J0D01*
G01*
X132227001Y-89472100D01*
G75*
G02*
X132327001Y-89572100I0J-100000D01*
G01*
G37*
G36*
G01*
X131826999Y-89572100D02*
X131826999Y-90359500D01*
G75*
G02*
X131726999Y-90459500I-100000J0D01*
G01*
X131472999Y-90459500D01*
G75*
G02*
X131372999Y-90359500I0J100000D01*
G01*
X131372999Y-89572100D01*
G75*
G02*
X131472999Y-89472100I100000J0D01*
G01*
X131726999Y-89472100D01*
G75*
G02*
X131826999Y-89572100I0J-100000D01*
G01*
G37*
G36*
G01*
X131327000Y-89572100D02*
X131327000Y-90359500D01*
G75*
G02*
X131227000Y-90459500I-100000J0D01*
G01*
X130973000Y-90459500D01*
G75*
G02*
X130873000Y-90359500I0J100000D01*
G01*
X130873000Y-89572100D01*
G75*
G02*
X130973000Y-89472100I100000J0D01*
G01*
X131227000Y-89472100D01*
G75*
G02*
X131327000Y-89572100I0J-100000D01*
G01*
G37*
G36*
G01*
X129989200Y-90455900D02*
X130776600Y-90455900D01*
G75*
G02*
X130876600Y-90555900I0J-100000D01*
G01*
X130876600Y-90809900D01*
G75*
G02*
X130776600Y-90909900I-100000J0D01*
G01*
X129989200Y-90909900D01*
G75*
G02*
X129889200Y-90809900I0J100000D01*
G01*
X129889200Y-90555900D01*
G75*
G02*
X129989200Y-90455900I100000J0D01*
G01*
G37*
G36*
G01*
X129989200Y-90955899D02*
X130776600Y-90955899D01*
G75*
G02*
X130876600Y-91055899I0J-100000D01*
G01*
X130876600Y-91309899D01*
G75*
G02*
X130776600Y-91409899I-100000J0D01*
G01*
X129989200Y-91409899D01*
G75*
G02*
X129889200Y-91309899I0J100000D01*
G01*
X129889200Y-91055899D01*
G75*
G02*
X129989200Y-90955899I100000J0D01*
G01*
G37*
G36*
G01*
X129989200Y-91455901D02*
X130776600Y-91455901D01*
G75*
G02*
X130876600Y-91555901I0J-100000D01*
G01*
X130876600Y-91809901D01*
G75*
G02*
X130776600Y-91909901I-100000J0D01*
G01*
X129989200Y-91909901D01*
G75*
G02*
X129889200Y-91809901I0J100000D01*
G01*
X129889200Y-91555901D01*
G75*
G02*
X129989200Y-91455901I100000J0D01*
G01*
G37*
G36*
G01*
X129989200Y-91955900D02*
X130776600Y-91955900D01*
G75*
G02*
X130876600Y-92055900I0J-100000D01*
G01*
X130876600Y-92309900D01*
G75*
G02*
X130776600Y-92409900I-100000J0D01*
G01*
X129989200Y-92409900D01*
G75*
G02*
X129889200Y-92309900I0J100000D01*
G01*
X129889200Y-92055900D01*
G75*
G02*
X129989200Y-91955900I100000J0D01*
G01*
G37*
G36*
G01*
X129989200Y-92455899D02*
X130776600Y-92455899D01*
G75*
G02*
X130876600Y-92555899I0J-100000D01*
G01*
X130876600Y-92809899D01*
G75*
G02*
X130776600Y-92909899I-100000J0D01*
G01*
X129989200Y-92909899D01*
G75*
G02*
X129889200Y-92809899I0J100000D01*
G01*
X129889200Y-92555899D01*
G75*
G02*
X129989200Y-92455899I100000J0D01*
G01*
G37*
G36*
G01*
X129989200Y-92955900D02*
X130776600Y-92955900D01*
G75*
G02*
X130876600Y-93055900I0J-100000D01*
G01*
X130876600Y-93309900D01*
G75*
G02*
X130776600Y-93409900I-100000J0D01*
G01*
X129989200Y-93409900D01*
G75*
G02*
X129889200Y-93309900I0J100000D01*
G01*
X129889200Y-93055900D01*
G75*
G02*
X129989200Y-92955900I100000J0D01*
G01*
G37*
G36*
G01*
X129989200Y-93455900D02*
X130776600Y-93455900D01*
G75*
G02*
X130876600Y-93555900I0J-100000D01*
G01*
X130876600Y-93809900D01*
G75*
G02*
X130776600Y-93909900I-100000J0D01*
G01*
X129989200Y-93909900D01*
G75*
G02*
X129889200Y-93809900I0J100000D01*
G01*
X129889200Y-93555900D01*
G75*
G02*
X129989200Y-93455900I100000J0D01*
G01*
G37*
G36*
G01*
X129989200Y-93955901D02*
X130776600Y-93955901D01*
G75*
G02*
X130876600Y-94055901I0J-100000D01*
G01*
X130876600Y-94309901D01*
G75*
G02*
X130776600Y-94409901I-100000J0D01*
G01*
X129989200Y-94409901D01*
G75*
G02*
X129889200Y-94309901I0J100000D01*
G01*
X129889200Y-94055901D01*
G75*
G02*
X129989200Y-93955901I100000J0D01*
G01*
G37*
G36*
G01*
X129989200Y-94455900D02*
X130776600Y-94455900D01*
G75*
G02*
X130876600Y-94555900I0J-100000D01*
G01*
X130876600Y-94809900D01*
G75*
G02*
X130776600Y-94909900I-100000J0D01*
G01*
X129989200Y-94909900D01*
G75*
G02*
X129889200Y-94809900I0J100000D01*
G01*
X129889200Y-94555900D01*
G75*
G02*
X129989200Y-94455900I100000J0D01*
G01*
G37*
G36*
G01*
X129989200Y-94955899D02*
X130776600Y-94955899D01*
G75*
G02*
X130876600Y-95055899I0J-100000D01*
G01*
X130876600Y-95309899D01*
G75*
G02*
X130776600Y-95409899I-100000J0D01*
G01*
X129989200Y-95409899D01*
G75*
G02*
X129889200Y-95309899I0J100000D01*
G01*
X129889200Y-95055899D01*
G75*
G02*
X129989200Y-94955899I100000J0D01*
G01*
G37*
G36*
G01*
X129989200Y-95455901D02*
X130776600Y-95455901D01*
G75*
G02*
X130876600Y-95555901I0J-100000D01*
G01*
X130876600Y-95809901D01*
G75*
G02*
X130776600Y-95909901I-100000J0D01*
G01*
X129989200Y-95909901D01*
G75*
G02*
X129889200Y-95809901I0J100000D01*
G01*
X129889200Y-95555901D01*
G75*
G02*
X129989200Y-95455901I100000J0D01*
G01*
G37*
G36*
G01*
X129989200Y-95955900D02*
X130776600Y-95955900D01*
G75*
G02*
X130876600Y-96055900I0J-100000D01*
G01*
X130876600Y-96309900D01*
G75*
G02*
X130776600Y-96409900I-100000J0D01*
G01*
X129989200Y-96409900D01*
G75*
G02*
X129889200Y-96309900I0J100000D01*
G01*
X129889200Y-96055900D01*
G75*
G02*
X129989200Y-95955900I100000J0D01*
G01*
G37*
G36*
G01*
X131327000Y-96506300D02*
X131327000Y-97293700D01*
G75*
G02*
X131227000Y-97393700I-100000J0D01*
G01*
X130973000Y-97393700D01*
G75*
G02*
X130873000Y-97293700I0J100000D01*
G01*
X130873000Y-96506300D01*
G75*
G02*
X130973000Y-96406300I100000J0D01*
G01*
X131227000Y-96406300D01*
G75*
G02*
X131327000Y-96506300I0J-100000D01*
G01*
G37*
G36*
G01*
X131826999Y-96506300D02*
X131826999Y-97293700D01*
G75*
G02*
X131726999Y-97393700I-100000J0D01*
G01*
X131472999Y-97393700D01*
G75*
G02*
X131372999Y-97293700I0J100000D01*
G01*
X131372999Y-96506300D01*
G75*
G02*
X131472999Y-96406300I100000J0D01*
G01*
X131726999Y-96406300D01*
G75*
G02*
X131826999Y-96506300I0J-100000D01*
G01*
G37*
G36*
G01*
X132327001Y-96506300D02*
X132327001Y-97293700D01*
G75*
G02*
X132227001Y-97393700I-100000J0D01*
G01*
X131973001Y-97393700D01*
G75*
G02*
X131873001Y-97293700I0J100000D01*
G01*
X131873001Y-96506300D01*
G75*
G02*
X131973001Y-96406300I100000J0D01*
G01*
X132227001Y-96406300D01*
G75*
G02*
X132327001Y-96506300I0J-100000D01*
G01*
G37*
G36*
G01*
X132827000Y-96506300D02*
X132827000Y-97293700D01*
G75*
G02*
X132727000Y-97393700I-100000J0D01*
G01*
X132473000Y-97393700D01*
G75*
G02*
X132373000Y-97293700I0J100000D01*
G01*
X132373000Y-96506300D01*
G75*
G02*
X132473000Y-96406300I100000J0D01*
G01*
X132727000Y-96406300D01*
G75*
G02*
X132827000Y-96506300I0J-100000D01*
G01*
G37*
G36*
G01*
X133326999Y-96506300D02*
X133326999Y-97293700D01*
G75*
G02*
X133226999Y-97393700I-100000J0D01*
G01*
X132972999Y-97393700D01*
G75*
G02*
X132872999Y-97293700I0J100000D01*
G01*
X132872999Y-96506300D01*
G75*
G02*
X132972999Y-96406300I100000J0D01*
G01*
X133226999Y-96406300D01*
G75*
G02*
X133326999Y-96506300I0J-100000D01*
G01*
G37*
G36*
G01*
X133827000Y-96506300D02*
X133827000Y-97293700D01*
G75*
G02*
X133727000Y-97393700I-100000J0D01*
G01*
X133473000Y-97393700D01*
G75*
G02*
X133373000Y-97293700I0J100000D01*
G01*
X133373000Y-96506300D01*
G75*
G02*
X133473000Y-96406300I100000J0D01*
G01*
X133727000Y-96406300D01*
G75*
G02*
X133827000Y-96506300I0J-100000D01*
G01*
G37*
G36*
G01*
X134327000Y-96506300D02*
X134327000Y-97293700D01*
G75*
G02*
X134227000Y-97393700I-100000J0D01*
G01*
X133973000Y-97393700D01*
G75*
G02*
X133873000Y-97293700I0J100000D01*
G01*
X133873000Y-96506300D01*
G75*
G02*
X133973000Y-96406300I100000J0D01*
G01*
X134227000Y-96406300D01*
G75*
G02*
X134327000Y-96506300I0J-100000D01*
G01*
G37*
G36*
G01*
X134827001Y-96506300D02*
X134827001Y-97293700D01*
G75*
G02*
X134727001Y-97393700I-100000J0D01*
G01*
X134473001Y-97393700D01*
G75*
G02*
X134373001Y-97293700I0J100000D01*
G01*
X134373001Y-96506300D01*
G75*
G02*
X134473001Y-96406300I100000J0D01*
G01*
X134727001Y-96406300D01*
G75*
G02*
X134827001Y-96506300I0J-100000D01*
G01*
G37*
G36*
G01*
X135327000Y-96506300D02*
X135327000Y-97293700D01*
G75*
G02*
X135227000Y-97393700I-100000J0D01*
G01*
X134973000Y-97393700D01*
G75*
G02*
X134873000Y-97293700I0J100000D01*
G01*
X134873000Y-96506300D01*
G75*
G02*
X134973000Y-96406300I100000J0D01*
G01*
X135227000Y-96406300D01*
G75*
G02*
X135327000Y-96506300I0J-100000D01*
G01*
G37*
G36*
G01*
X135826999Y-96506300D02*
X135826999Y-97293700D01*
G75*
G02*
X135726999Y-97393700I-100000J0D01*
G01*
X135472999Y-97393700D01*
G75*
G02*
X135372999Y-97293700I0J100000D01*
G01*
X135372999Y-96506300D01*
G75*
G02*
X135472999Y-96406300I100000J0D01*
G01*
X135726999Y-96406300D01*
G75*
G02*
X135826999Y-96506300I0J-100000D01*
G01*
G37*
G36*
G01*
X136327001Y-96506300D02*
X136327001Y-97293700D01*
G75*
G02*
X136227001Y-97393700I-100000J0D01*
G01*
X135973001Y-97393700D01*
G75*
G02*
X135873001Y-97293700I0J100000D01*
G01*
X135873001Y-96506300D01*
G75*
G02*
X135973001Y-96406300I100000J0D01*
G01*
X136227001Y-96406300D01*
G75*
G02*
X136327001Y-96506300I0J-100000D01*
G01*
G37*
G36*
G01*
X136827000Y-96506300D02*
X136827000Y-97293700D01*
G75*
G02*
X136727000Y-97393700I-100000J0D01*
G01*
X136473000Y-97393700D01*
G75*
G02*
X136373000Y-97293700I0J100000D01*
G01*
X136373000Y-96506300D01*
G75*
G02*
X136473000Y-96406300I100000J0D01*
G01*
X136727000Y-96406300D01*
G75*
G02*
X136827000Y-96506300I0J-100000D01*
G01*
G37*
G36*
G01*
X136705900Y-90677000D02*
X136705900Y-96188800D01*
G75*
G02*
X136605900Y-96288800I-100000J0D01*
G01*
X131094100Y-96288800D01*
G75*
G02*
X130994100Y-96188800I0J100000D01*
G01*
X130994100Y-90677000D01*
G75*
G02*
X131094100Y-90577000I100000J0D01*
G01*
X136605900Y-90577000D01*
G75*
G02*
X136705900Y-90677000I0J-100000D01*
G01*
G37*
%TD*%
%TO.C,LD1*%
G36*
G01*
X191150000Y-89893477D02*
X191150000Y-90906523D01*
G75*
G02*
X190856523Y-91200000I-293477J0D01*
G01*
X190093477Y-91200000D01*
G75*
G02*
X189800000Y-90906523I0J293477D01*
G01*
X189800000Y-89893477D01*
G75*
G02*
X190093477Y-89600000I293477J0D01*
G01*
X190856523Y-89600000D01*
G75*
G02*
X191150000Y-89893477I0J-293477D01*
G01*
G37*
G36*
G01*
X193200000Y-89893477D02*
X193200000Y-90906523D01*
G75*
G02*
X192906523Y-91200000I-293477J0D01*
G01*
X192143477Y-91200000D01*
G75*
G02*
X191850000Y-90906523I0J293477D01*
G01*
X191850000Y-89893477D01*
G75*
G02*
X192143477Y-89600000I293477J0D01*
G01*
X192906523Y-89600000D01*
G75*
G02*
X193200000Y-89893477I0J-293477D01*
G01*
G37*
%TD*%
%TO.C,R17*%
G36*
G01*
X191175000Y-93112500D02*
X191175000Y-93687500D01*
G75*
G02*
X190887500Y-93975000I-287500J0D01*
G01*
X190287500Y-93975000D01*
G75*
G02*
X190000000Y-93687500I0J287500D01*
G01*
X190000000Y-93112500D01*
G75*
G02*
X190287500Y-92825000I287500J0D01*
G01*
X190887500Y-92825000D01*
G75*
G02*
X191175000Y-93112500I0J-287500D01*
G01*
G37*
G36*
G01*
X193000000Y-93112500D02*
X193000000Y-93687500D01*
G75*
G02*
X192712500Y-93975000I-287500J0D01*
G01*
X192112500Y-93975000D01*
G75*
G02*
X191825000Y-93687500I0J287500D01*
G01*
X191825000Y-93112500D01*
G75*
G02*
X192112500Y-92825000I287500J0D01*
G01*
X192712500Y-92825000D01*
G75*
G02*
X193000000Y-93112500I0J-287500D01*
G01*
G37*
%TD*%
%TO.C,TP1*%
G36*
G01*
X146900000Y-82900000D02*
X146900000Y-81900000D01*
G75*
G02*
X147000000Y-81800000I100000J0D01*
G01*
X148000000Y-81800000D01*
G75*
G02*
X148100000Y-81900000I0J-100000D01*
G01*
X148100000Y-82900000D01*
G75*
G02*
X148000000Y-83000000I-100000J0D01*
G01*
X147000000Y-83000000D01*
G75*
G02*
X146900000Y-82900000I0J100000D01*
G01*
G37*
%TD*%
D10*
%TO.C,H2*%
X111000000Y-103900000D03*
%TD*%
%TO.C,H3*%
X170050000Y-95400000D03*
%TD*%
%TO.C,H4*%
X170050000Y-80100000D03*
%TD*%
M02*
