%TF.GenerationSoftware,KiCad,Pcbnew,5.1.9+dfsg1-1+deb11u1*%
%TF.CreationDate,2025-10-23T09:37:16+02:00*%
%TF.ProjectId,VERA-XE-HDMI-Expansion,56455241-2d58-4452-9d48-444d492d4578,rev?*%
%TF.SameCoordinates,Original*%
%TF.FileFunction,Soldermask,Bot*%
%TF.FilePolarity,Negative*%
%FSLAX46Y46*%
G04 Gerber Fmt 4.6, Leading zero omitted, Abs format (unit mm)*
G04 Created by KiCad (PCBNEW 5.1.9+dfsg1-1+deb11u1) date 2025-10-23 09:37:16*
%MOMM*%
%LPD*%
G01*
G04 APERTURE LIST*
%ADD10C,3.400000*%
%ADD11O,1.700000X3.400000*%
%ADD12O,1.700000X2.900000*%
G04 APERTURE END LIST*
%TO.C,C5*%
G36*
G01*
X182650000Y-31467553D02*
X182650000Y-32532447D01*
G75*
G02*
X182357447Y-32825000I-292553J0D01*
G01*
X181567553Y-32825000D01*
G75*
G02*
X181275000Y-32532447I0J292553D01*
G01*
X181275000Y-31467553D01*
G75*
G02*
X181567553Y-31175000I292553J0D01*
G01*
X182357447Y-31175000D01*
G75*
G02*
X182650000Y-31467553I0J-292553D01*
G01*
G37*
G36*
G01*
X184725000Y-31467553D02*
X184725000Y-32532447D01*
G75*
G02*
X184432447Y-32825000I-292553J0D01*
G01*
X183642553Y-32825000D01*
G75*
G02*
X183350000Y-32532447I0J292553D01*
G01*
X183350000Y-31467553D01*
G75*
G02*
X183642553Y-31175000I292553J0D01*
G01*
X184432447Y-31175000D01*
G75*
G02*
X184725000Y-31467553I0J-292553D01*
G01*
G37*
%TD*%
%TO.C,C6*%
G36*
G01*
X184725000Y-33467553D02*
X184725000Y-34532447D01*
G75*
G02*
X184432447Y-34825000I-292553J0D01*
G01*
X183642553Y-34825000D01*
G75*
G02*
X183350000Y-34532447I0J292553D01*
G01*
X183350000Y-33467553D01*
G75*
G02*
X183642553Y-33175000I292553J0D01*
G01*
X184432447Y-33175000D01*
G75*
G02*
X184725000Y-33467553I0J-292553D01*
G01*
G37*
G36*
G01*
X182650000Y-33467553D02*
X182650000Y-34532447D01*
G75*
G02*
X182357447Y-34825000I-292553J0D01*
G01*
X181567553Y-34825000D01*
G75*
G02*
X181275000Y-34532447I0J292553D01*
G01*
X181275000Y-33467553D01*
G75*
G02*
X181567553Y-33175000I292553J0D01*
G01*
X182357447Y-33175000D01*
G75*
G02*
X182650000Y-33467553I0J-292553D01*
G01*
G37*
%TD*%
%TO.C,C11*%
G36*
G01*
X188350000Y-32532447D02*
X188350000Y-31467553D01*
G75*
G02*
X188642553Y-31175000I292553J0D01*
G01*
X189432447Y-31175000D01*
G75*
G02*
X189725000Y-31467553I0J-292553D01*
G01*
X189725000Y-32532447D01*
G75*
G02*
X189432447Y-32825000I-292553J0D01*
G01*
X188642553Y-32825000D01*
G75*
G02*
X188350000Y-32532447I0J292553D01*
G01*
G37*
G36*
G01*
X186275000Y-32532447D02*
X186275000Y-31467553D01*
G75*
G02*
X186567553Y-31175000I292553J0D01*
G01*
X187357447Y-31175000D01*
G75*
G02*
X187650000Y-31467553I0J-292553D01*
G01*
X187650000Y-32532447D01*
G75*
G02*
X187357447Y-32825000I-292553J0D01*
G01*
X186567553Y-32825000D01*
G75*
G02*
X186275000Y-32532447I0J292553D01*
G01*
G37*
%TD*%
%TO.C,C12*%
G36*
G01*
X186275000Y-34532447D02*
X186275000Y-33467553D01*
G75*
G02*
X186567553Y-33175000I292553J0D01*
G01*
X187357447Y-33175000D01*
G75*
G02*
X187650000Y-33467553I0J-292553D01*
G01*
X187650000Y-34532447D01*
G75*
G02*
X187357447Y-34825000I-292553J0D01*
G01*
X186567553Y-34825000D01*
G75*
G02*
X186275000Y-34532447I0J292553D01*
G01*
G37*
G36*
G01*
X188350000Y-34532447D02*
X188350000Y-33467553D01*
G75*
G02*
X188642553Y-33175000I292553J0D01*
G01*
X189432447Y-33175000D01*
G75*
G02*
X189725000Y-33467553I0J-292553D01*
G01*
X189725000Y-34532447D01*
G75*
G02*
X189432447Y-34825000I-292553J0D01*
G01*
X188642553Y-34825000D01*
G75*
G02*
X188350000Y-34532447I0J292553D01*
G01*
G37*
%TD*%
%TO.C,C20*%
G36*
G01*
X194532447Y-41725000D02*
X193467553Y-41725000D01*
G75*
G02*
X193175000Y-41432447I0J292553D01*
G01*
X193175000Y-40642553D01*
G75*
G02*
X193467553Y-40350000I292553J0D01*
G01*
X194532447Y-40350000D01*
G75*
G02*
X194825000Y-40642553I0J-292553D01*
G01*
X194825000Y-41432447D01*
G75*
G02*
X194532447Y-41725000I-292553J0D01*
G01*
G37*
G36*
G01*
X194532447Y-39650000D02*
X193467553Y-39650000D01*
G75*
G02*
X193175000Y-39357447I0J292553D01*
G01*
X193175000Y-38567553D01*
G75*
G02*
X193467553Y-38275000I292553J0D01*
G01*
X194532447Y-38275000D01*
G75*
G02*
X194825000Y-38567553I0J-292553D01*
G01*
X194825000Y-39357447D01*
G75*
G02*
X194532447Y-39650000I-292553J0D01*
G01*
G37*
%TD*%
%TO.C,C21*%
G36*
G01*
X192532447Y-39650000D02*
X191467553Y-39650000D01*
G75*
G02*
X191175000Y-39357447I0J292553D01*
G01*
X191175000Y-38567553D01*
G75*
G02*
X191467553Y-38275000I292553J0D01*
G01*
X192532447Y-38275000D01*
G75*
G02*
X192825000Y-38567553I0J-292553D01*
G01*
X192825000Y-39357447D01*
G75*
G02*
X192532447Y-39650000I-292553J0D01*
G01*
G37*
G36*
G01*
X192532447Y-41725000D02*
X191467553Y-41725000D01*
G75*
G02*
X191175000Y-41432447I0J292553D01*
G01*
X191175000Y-40642553D01*
G75*
G02*
X191467553Y-40350000I292553J0D01*
G01*
X192532447Y-40350000D01*
G75*
G02*
X192825000Y-40642553I0J-292553D01*
G01*
X192825000Y-41432447D01*
G75*
G02*
X192532447Y-41725000I-292553J0D01*
G01*
G37*
%TD*%
%TO.C,C22*%
G36*
G01*
X194532447Y-37725000D02*
X193467553Y-37725000D01*
G75*
G02*
X193175000Y-37432447I0J292553D01*
G01*
X193175000Y-36642553D01*
G75*
G02*
X193467553Y-36350000I292553J0D01*
G01*
X194532447Y-36350000D01*
G75*
G02*
X194825000Y-36642553I0J-292553D01*
G01*
X194825000Y-37432447D01*
G75*
G02*
X194532447Y-37725000I-292553J0D01*
G01*
G37*
G36*
G01*
X194532447Y-35650000D02*
X193467553Y-35650000D01*
G75*
G02*
X193175000Y-35357447I0J292553D01*
G01*
X193175000Y-34567553D01*
G75*
G02*
X193467553Y-34275000I292553J0D01*
G01*
X194532447Y-34275000D01*
G75*
G02*
X194825000Y-34567553I0J-292553D01*
G01*
X194825000Y-35357447D01*
G75*
G02*
X194532447Y-35650000I-292553J0D01*
G01*
G37*
%TD*%
%TO.C,C23*%
G36*
G01*
X192532447Y-35650000D02*
X191467553Y-35650000D01*
G75*
G02*
X191175000Y-35357447I0J292553D01*
G01*
X191175000Y-34567553D01*
G75*
G02*
X191467553Y-34275000I292553J0D01*
G01*
X192532447Y-34275000D01*
G75*
G02*
X192825000Y-34567553I0J-292553D01*
G01*
X192825000Y-35357447D01*
G75*
G02*
X192532447Y-35650000I-292553J0D01*
G01*
G37*
G36*
G01*
X192532447Y-37725000D02*
X191467553Y-37725000D01*
G75*
G02*
X191175000Y-37432447I0J292553D01*
G01*
X191175000Y-36642553D01*
G75*
G02*
X191467553Y-36350000I292553J0D01*
G01*
X192532447Y-36350000D01*
G75*
G02*
X192825000Y-36642553I0J-292553D01*
G01*
X192825000Y-37432447D01*
G75*
G02*
X192532447Y-37725000I-292553J0D01*
G01*
G37*
%TD*%
%TO.C,C24*%
G36*
G01*
X181275000Y-47532447D02*
X181275000Y-46467553D01*
G75*
G02*
X181567553Y-46175000I292553J0D01*
G01*
X182357447Y-46175000D01*
G75*
G02*
X182650000Y-46467553I0J-292553D01*
G01*
X182650000Y-47532447D01*
G75*
G02*
X182357447Y-47825000I-292553J0D01*
G01*
X181567553Y-47825000D01*
G75*
G02*
X181275000Y-47532447I0J292553D01*
G01*
G37*
G36*
G01*
X183350000Y-47532447D02*
X183350000Y-46467553D01*
G75*
G02*
X183642553Y-46175000I292553J0D01*
G01*
X184432447Y-46175000D01*
G75*
G02*
X184725000Y-46467553I0J-292553D01*
G01*
X184725000Y-47532447D01*
G75*
G02*
X184432447Y-47825000I-292553J0D01*
G01*
X183642553Y-47825000D01*
G75*
G02*
X183350000Y-47532447I0J292553D01*
G01*
G37*
%TD*%
%TO.C,C25*%
G36*
G01*
X183350000Y-45532447D02*
X183350000Y-44467553D01*
G75*
G02*
X183642553Y-44175000I292553J0D01*
G01*
X184432447Y-44175000D01*
G75*
G02*
X184725000Y-44467553I0J-292553D01*
G01*
X184725000Y-45532447D01*
G75*
G02*
X184432447Y-45825000I-292553J0D01*
G01*
X183642553Y-45825000D01*
G75*
G02*
X183350000Y-45532447I0J292553D01*
G01*
G37*
G36*
G01*
X181275000Y-45532447D02*
X181275000Y-44467553D01*
G75*
G02*
X181567553Y-44175000I292553J0D01*
G01*
X182357447Y-44175000D01*
G75*
G02*
X182650000Y-44467553I0J-292553D01*
G01*
X182650000Y-45532447D01*
G75*
G02*
X182357447Y-45825000I-292553J0D01*
G01*
X181567553Y-45825000D01*
G75*
G02*
X181275000Y-45532447I0J292553D01*
G01*
G37*
%TD*%
%TO.C,C28*%
G36*
G01*
X188350000Y-47532447D02*
X188350000Y-46467553D01*
G75*
G02*
X188642553Y-46175000I292553J0D01*
G01*
X189432447Y-46175000D01*
G75*
G02*
X189725000Y-46467553I0J-292553D01*
G01*
X189725000Y-47532447D01*
G75*
G02*
X189432447Y-47825000I-292553J0D01*
G01*
X188642553Y-47825000D01*
G75*
G02*
X188350000Y-47532447I0J292553D01*
G01*
G37*
G36*
G01*
X186275000Y-47532447D02*
X186275000Y-46467553D01*
G75*
G02*
X186567553Y-46175000I292553J0D01*
G01*
X187357447Y-46175000D01*
G75*
G02*
X187650000Y-46467553I0J-292553D01*
G01*
X187650000Y-47532447D01*
G75*
G02*
X187357447Y-47825000I-292553J0D01*
G01*
X186567553Y-47825000D01*
G75*
G02*
X186275000Y-47532447I0J292553D01*
G01*
G37*
%TD*%
%TO.C,C29*%
G36*
G01*
X188350000Y-45532447D02*
X188350000Y-44467553D01*
G75*
G02*
X188642553Y-44175000I292553J0D01*
G01*
X189432447Y-44175000D01*
G75*
G02*
X189725000Y-44467553I0J-292553D01*
G01*
X189725000Y-45532447D01*
G75*
G02*
X189432447Y-45825000I-292553J0D01*
G01*
X188642553Y-45825000D01*
G75*
G02*
X188350000Y-45532447I0J292553D01*
G01*
G37*
G36*
G01*
X186275000Y-45532447D02*
X186275000Y-44467553D01*
G75*
G02*
X186567553Y-44175000I292553J0D01*
G01*
X187357447Y-44175000D01*
G75*
G02*
X187650000Y-44467553I0J-292553D01*
G01*
X187650000Y-45532447D01*
G75*
G02*
X187357447Y-45825000I-292553J0D01*
G01*
X186567553Y-45825000D01*
G75*
G02*
X186275000Y-45532447I0J292553D01*
G01*
G37*
%TD*%
%TO.C,C31*%
G36*
G01*
X189275000Y-28532447D02*
X189275000Y-27467553D01*
G75*
G02*
X189567553Y-27175000I292553J0D01*
G01*
X190357447Y-27175000D01*
G75*
G02*
X190650000Y-27467553I0J-292553D01*
G01*
X190650000Y-28532447D01*
G75*
G02*
X190357447Y-28825000I-292553J0D01*
G01*
X189567553Y-28825000D01*
G75*
G02*
X189275000Y-28532447I0J292553D01*
G01*
G37*
G36*
G01*
X191350000Y-28532447D02*
X191350000Y-27467553D01*
G75*
G02*
X191642553Y-27175000I292553J0D01*
G01*
X192432447Y-27175000D01*
G75*
G02*
X192725000Y-27467553I0J-292553D01*
G01*
X192725000Y-28532447D01*
G75*
G02*
X192432447Y-28825000I-292553J0D01*
G01*
X191642553Y-28825000D01*
G75*
G02*
X191350000Y-28532447I0J292553D01*
G01*
G37*
%TD*%
%TO.C,C32*%
G36*
G01*
X191350000Y-30532447D02*
X191350000Y-29467553D01*
G75*
G02*
X191642553Y-29175000I292553J0D01*
G01*
X192432447Y-29175000D01*
G75*
G02*
X192725000Y-29467553I0J-292553D01*
G01*
X192725000Y-30532447D01*
G75*
G02*
X192432447Y-30825000I-292553J0D01*
G01*
X191642553Y-30825000D01*
G75*
G02*
X191350000Y-30532447I0J292553D01*
G01*
G37*
G36*
G01*
X189275000Y-30532447D02*
X189275000Y-29467553D01*
G75*
G02*
X189567553Y-29175000I292553J0D01*
G01*
X190357447Y-29175000D01*
G75*
G02*
X190650000Y-29467553I0J-292553D01*
G01*
X190650000Y-30532447D01*
G75*
G02*
X190357447Y-30825000I-292553J0D01*
G01*
X189567553Y-30825000D01*
G75*
G02*
X189275000Y-30532447I0J292553D01*
G01*
G37*
%TD*%
%TO.C,C33*%
G36*
G01*
X176467553Y-43350000D02*
X177532447Y-43350000D01*
G75*
G02*
X177825000Y-43642553I0J-292553D01*
G01*
X177825000Y-44432447D01*
G75*
G02*
X177532447Y-44725000I-292553J0D01*
G01*
X176467553Y-44725000D01*
G75*
G02*
X176175000Y-44432447I0J292553D01*
G01*
X176175000Y-43642553D01*
G75*
G02*
X176467553Y-43350000I292553J0D01*
G01*
G37*
G36*
G01*
X176467553Y-41275000D02*
X177532447Y-41275000D01*
G75*
G02*
X177825000Y-41567553I0J-292553D01*
G01*
X177825000Y-42357447D01*
G75*
G02*
X177532447Y-42650000I-292553J0D01*
G01*
X176467553Y-42650000D01*
G75*
G02*
X176175000Y-42357447I0J292553D01*
G01*
X176175000Y-41567553D01*
G75*
G02*
X176467553Y-41275000I292553J0D01*
G01*
G37*
%TD*%
%TO.C,C34*%
G36*
G01*
X178467553Y-41275000D02*
X179532447Y-41275000D01*
G75*
G02*
X179825000Y-41567553I0J-292553D01*
G01*
X179825000Y-42357447D01*
G75*
G02*
X179532447Y-42650000I-292553J0D01*
G01*
X178467553Y-42650000D01*
G75*
G02*
X178175000Y-42357447I0J292553D01*
G01*
X178175000Y-41567553D01*
G75*
G02*
X178467553Y-41275000I292553J0D01*
G01*
G37*
G36*
G01*
X178467553Y-43350000D02*
X179532447Y-43350000D01*
G75*
G02*
X179825000Y-43642553I0J-292553D01*
G01*
X179825000Y-44432447D01*
G75*
G02*
X179532447Y-44725000I-292553J0D01*
G01*
X178467553Y-44725000D01*
G75*
G02*
X178175000Y-44432447I0J292553D01*
G01*
X178175000Y-43642553D01*
G75*
G02*
X178467553Y-43350000I292553J0D01*
G01*
G37*
%TD*%
D10*
%TO.C,H1*%
X162550000Y-38000000D03*
%TD*%
D11*
%TO.C,J1*%
X180000000Y-31300000D03*
X194500000Y-31300000D03*
D12*
X180000000Y-25340000D03*
X194500000Y-25340000D03*
%TD*%
%TO.C,R3*%
G36*
G01*
X226700000Y-54491665D02*
X226700000Y-55508335D01*
G75*
G02*
X226408335Y-55800000I-291665J0D01*
G01*
X225591665Y-55800000D01*
G75*
G02*
X225300000Y-55508335I0J291665D01*
G01*
X225300000Y-54491665D01*
G75*
G02*
X225591665Y-54200000I291665J0D01*
G01*
X226408335Y-54200000D01*
G75*
G02*
X226700000Y-54491665I0J-291665D01*
G01*
G37*
G36*
G01*
X228700000Y-54491665D02*
X228700000Y-55508335D01*
G75*
G02*
X228408335Y-55800000I-291665J0D01*
G01*
X227591665Y-55800000D01*
G75*
G02*
X227300000Y-55508335I0J291665D01*
G01*
X227300000Y-54491665D01*
G75*
G02*
X227591665Y-54200000I291665J0D01*
G01*
X228408335Y-54200000D01*
G75*
G02*
X228700000Y-54491665I0J-291665D01*
G01*
G37*
%TD*%
%TO.C,R4*%
G36*
G01*
X225700000Y-43491665D02*
X225700000Y-44508335D01*
G75*
G02*
X225408335Y-44800000I-291665J0D01*
G01*
X224591665Y-44800000D01*
G75*
G02*
X224300000Y-44508335I0J291665D01*
G01*
X224300000Y-43491665D01*
G75*
G02*
X224591665Y-43200000I291665J0D01*
G01*
X225408335Y-43200000D01*
G75*
G02*
X225700000Y-43491665I0J-291665D01*
G01*
G37*
G36*
G01*
X223700000Y-43491665D02*
X223700000Y-44508335D01*
G75*
G02*
X223408335Y-44800000I-291665J0D01*
G01*
X222591665Y-44800000D01*
G75*
G02*
X222300000Y-44508335I0J291665D01*
G01*
X222300000Y-43491665D01*
G75*
G02*
X222591665Y-43200000I291665J0D01*
G01*
X223408335Y-43200000D01*
G75*
G02*
X223700000Y-43491665I0J-291665D01*
G01*
G37*
%TD*%
%TO.C,R5*%
G36*
G01*
X222300000Y-55508335D02*
X222300000Y-54491665D01*
G75*
G02*
X222591665Y-54200000I291665J0D01*
G01*
X223408335Y-54200000D01*
G75*
G02*
X223700000Y-54491665I0J-291665D01*
G01*
X223700000Y-55508335D01*
G75*
G02*
X223408335Y-55800000I-291665J0D01*
G01*
X222591665Y-55800000D01*
G75*
G02*
X222300000Y-55508335I0J291665D01*
G01*
G37*
G36*
G01*
X220300000Y-55508335D02*
X220300000Y-54491665D01*
G75*
G02*
X220591665Y-54200000I291665J0D01*
G01*
X221408335Y-54200000D01*
G75*
G02*
X221700000Y-54491665I0J-291665D01*
G01*
X221700000Y-55508335D01*
G75*
G02*
X221408335Y-55800000I-291665J0D01*
G01*
X220591665Y-55800000D01*
G75*
G02*
X220300000Y-55508335I0J291665D01*
G01*
G37*
%TD*%
%TO.C,R6*%
G36*
G01*
X237300000Y-55508335D02*
X237300000Y-54491665D01*
G75*
G02*
X237591665Y-54200000I291665J0D01*
G01*
X238408335Y-54200000D01*
G75*
G02*
X238700000Y-54491665I0J-291665D01*
G01*
X238700000Y-55508335D01*
G75*
G02*
X238408335Y-55800000I-291665J0D01*
G01*
X237591665Y-55800000D01*
G75*
G02*
X237300000Y-55508335I0J291665D01*
G01*
G37*
G36*
G01*
X235300000Y-55508335D02*
X235300000Y-54491665D01*
G75*
G02*
X235591665Y-54200000I291665J0D01*
G01*
X236408335Y-54200000D01*
G75*
G02*
X236700000Y-54491665I0J-291665D01*
G01*
X236700000Y-55508335D01*
G75*
G02*
X236408335Y-55800000I-291665J0D01*
G01*
X235591665Y-55800000D01*
G75*
G02*
X235300000Y-55508335I0J291665D01*
G01*
G37*
%TD*%
%TO.C,R7*%
G36*
G01*
X190675000Y-25712500D02*
X190675000Y-26287500D01*
G75*
G02*
X190387500Y-26575000I-287500J0D01*
G01*
X189787500Y-26575000D01*
G75*
G02*
X189500000Y-26287500I0J287500D01*
G01*
X189500000Y-25712500D01*
G75*
G02*
X189787500Y-25425000I287500J0D01*
G01*
X190387500Y-25425000D01*
G75*
G02*
X190675000Y-25712500I0J-287500D01*
G01*
G37*
G36*
G01*
X192500000Y-25712500D02*
X192500000Y-26287500D01*
G75*
G02*
X192212500Y-26575000I-287500J0D01*
G01*
X191612500Y-26575000D01*
G75*
G02*
X191325000Y-26287500I0J287500D01*
G01*
X191325000Y-25712500D01*
G75*
G02*
X191612500Y-25425000I287500J0D01*
G01*
X192212500Y-25425000D01*
G75*
G02*
X192500000Y-25712500I0J-287500D01*
G01*
G37*
%TD*%
%TO.C,R8*%
G36*
G01*
X181500000Y-26287500D02*
X181500000Y-25712500D01*
G75*
G02*
X181787500Y-25425000I287500J0D01*
G01*
X182387500Y-25425000D01*
G75*
G02*
X182675000Y-25712500I0J-287500D01*
G01*
X182675000Y-26287500D01*
G75*
G02*
X182387500Y-26575000I-287500J0D01*
G01*
X181787500Y-26575000D01*
G75*
G02*
X181500000Y-26287500I0J287500D01*
G01*
G37*
G36*
G01*
X183325000Y-26287500D02*
X183325000Y-25712500D01*
G75*
G02*
X183612500Y-25425000I287500J0D01*
G01*
X184212500Y-25425000D01*
G75*
G02*
X184500000Y-25712500I0J-287500D01*
G01*
X184500000Y-26287500D01*
G75*
G02*
X184212500Y-26575000I-287500J0D01*
G01*
X183612500Y-26575000D01*
G75*
G02*
X183325000Y-26287500I0J287500D01*
G01*
G37*
%TD*%
%TO.C,R9*%
G36*
G01*
X235300000Y-44508335D02*
X235300000Y-43491665D01*
G75*
G02*
X235591665Y-43200000I291665J0D01*
G01*
X236408335Y-43200000D01*
G75*
G02*
X236700000Y-43491665I0J-291665D01*
G01*
X236700000Y-44508335D01*
G75*
G02*
X236408335Y-44800000I-291665J0D01*
G01*
X235591665Y-44800000D01*
G75*
G02*
X235300000Y-44508335I0J291665D01*
G01*
G37*
G36*
G01*
X237300000Y-44508335D02*
X237300000Y-43491665D01*
G75*
G02*
X237591665Y-43200000I291665J0D01*
G01*
X238408335Y-43200000D01*
G75*
G02*
X238700000Y-43491665I0J-291665D01*
G01*
X238700000Y-44508335D01*
G75*
G02*
X238408335Y-44800000I-291665J0D01*
G01*
X237591665Y-44800000D01*
G75*
G02*
X237300000Y-44508335I0J291665D01*
G01*
G37*
%TD*%
%TO.C,R10*%
G36*
G01*
X187491665Y-26300000D02*
X188508335Y-26300000D01*
G75*
G02*
X188800000Y-26591665I0J-291665D01*
G01*
X188800000Y-27408335D01*
G75*
G02*
X188508335Y-27700000I-291665J0D01*
G01*
X187491665Y-27700000D01*
G75*
G02*
X187200000Y-27408335I0J291665D01*
G01*
X187200000Y-26591665D01*
G75*
G02*
X187491665Y-26300000I291665J0D01*
G01*
G37*
G36*
G01*
X187491665Y-28300000D02*
X188508335Y-28300000D01*
G75*
G02*
X188800000Y-28591665I0J-291665D01*
G01*
X188800000Y-29408335D01*
G75*
G02*
X188508335Y-29700000I-291665J0D01*
G01*
X187491665Y-29700000D01*
G75*
G02*
X187200000Y-29408335I0J291665D01*
G01*
X187200000Y-28591665D01*
G75*
G02*
X187491665Y-28300000I291665J0D01*
G01*
G37*
%TD*%
%TO.C,R11*%
G36*
G01*
X242700000Y-54491665D02*
X242700000Y-55508335D01*
G75*
G02*
X242408335Y-55800000I-291665J0D01*
G01*
X241591665Y-55800000D01*
G75*
G02*
X241300000Y-55508335I0J291665D01*
G01*
X241300000Y-54491665D01*
G75*
G02*
X241591665Y-54200000I291665J0D01*
G01*
X242408335Y-54200000D01*
G75*
G02*
X242700000Y-54491665I0J-291665D01*
G01*
G37*
G36*
G01*
X240700000Y-54491665D02*
X240700000Y-55508335D01*
G75*
G02*
X240408335Y-55800000I-291665J0D01*
G01*
X239591665Y-55800000D01*
G75*
G02*
X239300000Y-55508335I0J291665D01*
G01*
X239300000Y-54491665D01*
G75*
G02*
X239591665Y-54200000I291665J0D01*
G01*
X240408335Y-54200000D01*
G75*
G02*
X240700000Y-54491665I0J-291665D01*
G01*
G37*
%TD*%
%TO.C,R12*%
G36*
G01*
X237300000Y-42508335D02*
X237300000Y-41491665D01*
G75*
G02*
X237591665Y-41200000I291665J0D01*
G01*
X238408335Y-41200000D01*
G75*
G02*
X238700000Y-41491665I0J-291665D01*
G01*
X238700000Y-42508335D01*
G75*
G02*
X238408335Y-42800000I-291665J0D01*
G01*
X237591665Y-42800000D01*
G75*
G02*
X237300000Y-42508335I0J291665D01*
G01*
G37*
G36*
G01*
X235300000Y-42508335D02*
X235300000Y-41491665D01*
G75*
G02*
X235591665Y-41200000I291665J0D01*
G01*
X236408335Y-41200000D01*
G75*
G02*
X236700000Y-41491665I0J-291665D01*
G01*
X236700000Y-42508335D01*
G75*
G02*
X236408335Y-42800000I-291665J0D01*
G01*
X235591665Y-42800000D01*
G75*
G02*
X235300000Y-42508335I0J291665D01*
G01*
G37*
%TD*%
%TO.C,R13*%
G36*
G01*
X185491665Y-28300000D02*
X186508335Y-28300000D01*
G75*
G02*
X186800000Y-28591665I0J-291665D01*
G01*
X186800000Y-29408335D01*
G75*
G02*
X186508335Y-29700000I-291665J0D01*
G01*
X185491665Y-29700000D01*
G75*
G02*
X185200000Y-29408335I0J291665D01*
G01*
X185200000Y-28591665D01*
G75*
G02*
X185491665Y-28300000I291665J0D01*
G01*
G37*
G36*
G01*
X185491665Y-26300000D02*
X186508335Y-26300000D01*
G75*
G02*
X186800000Y-26591665I0J-291665D01*
G01*
X186800000Y-27408335D01*
G75*
G02*
X186508335Y-27700000I-291665J0D01*
G01*
X185491665Y-27700000D01*
G75*
G02*
X185200000Y-27408335I0J291665D01*
G01*
X185200000Y-26591665D01*
G75*
G02*
X185491665Y-26300000I291665J0D01*
G01*
G37*
%TD*%
%TO.C,J2*%
G36*
G01*
X222550000Y-45190000D02*
X223550000Y-45190000D01*
G75*
G02*
X223650000Y-45290000I0J-100000D01*
G01*
X223650000Y-48440000D01*
G75*
G02*
X223550000Y-48540000I-100000J0D01*
G01*
X222550000Y-48540000D01*
G75*
G02*
X222450000Y-48440000I0J100000D01*
G01*
X222450000Y-45290000D01*
G75*
G02*
X222550000Y-45190000I100000J0D01*
G01*
G37*
G36*
G01*
X222550000Y-50240000D02*
X223550000Y-50240000D01*
G75*
G02*
X223650000Y-50340000I0J-100000D01*
G01*
X223650000Y-53490000D01*
G75*
G02*
X223550000Y-53590000I-100000J0D01*
G01*
X222550000Y-53590000D01*
G75*
G02*
X222450000Y-53490000I0J100000D01*
G01*
X222450000Y-50340000D01*
G75*
G02*
X222550000Y-50240000I100000J0D01*
G01*
G37*
G36*
G01*
X225090000Y-45190000D02*
X226090000Y-45190000D01*
G75*
G02*
X226190000Y-45290000I0J-100000D01*
G01*
X226190000Y-48440000D01*
G75*
G02*
X226090000Y-48540000I-100000J0D01*
G01*
X225090000Y-48540000D01*
G75*
G02*
X224990000Y-48440000I0J100000D01*
G01*
X224990000Y-45290000D01*
G75*
G02*
X225090000Y-45190000I100000J0D01*
G01*
G37*
G36*
G01*
X225090000Y-50240000D02*
X226090000Y-50240000D01*
G75*
G02*
X226190000Y-50340000I0J-100000D01*
G01*
X226190000Y-53490000D01*
G75*
G02*
X226090000Y-53590000I-100000J0D01*
G01*
X225090000Y-53590000D01*
G75*
G02*
X224990000Y-53490000I0J100000D01*
G01*
X224990000Y-50340000D01*
G75*
G02*
X225090000Y-50240000I100000J0D01*
G01*
G37*
G36*
G01*
X227630000Y-45190000D02*
X228630000Y-45190000D01*
G75*
G02*
X228730000Y-45290000I0J-100000D01*
G01*
X228730000Y-48440000D01*
G75*
G02*
X228630000Y-48540000I-100000J0D01*
G01*
X227630000Y-48540000D01*
G75*
G02*
X227530000Y-48440000I0J100000D01*
G01*
X227530000Y-45290000D01*
G75*
G02*
X227630000Y-45190000I100000J0D01*
G01*
G37*
G36*
G01*
X227630000Y-50240000D02*
X228630000Y-50240000D01*
G75*
G02*
X228730000Y-50340000I0J-100000D01*
G01*
X228730000Y-53490000D01*
G75*
G02*
X228630000Y-53590000I-100000J0D01*
G01*
X227630000Y-53590000D01*
G75*
G02*
X227530000Y-53490000I0J100000D01*
G01*
X227530000Y-50340000D01*
G75*
G02*
X227630000Y-50240000I100000J0D01*
G01*
G37*
G36*
G01*
X230170000Y-45190000D02*
X231170000Y-45190000D01*
G75*
G02*
X231270000Y-45290000I0J-100000D01*
G01*
X231270000Y-48440000D01*
G75*
G02*
X231170000Y-48540000I-100000J0D01*
G01*
X230170000Y-48540000D01*
G75*
G02*
X230070000Y-48440000I0J100000D01*
G01*
X230070000Y-45290000D01*
G75*
G02*
X230170000Y-45190000I100000J0D01*
G01*
G37*
G36*
G01*
X230170000Y-50240000D02*
X231170000Y-50240000D01*
G75*
G02*
X231270000Y-50340000I0J-100000D01*
G01*
X231270000Y-53490000D01*
G75*
G02*
X231170000Y-53590000I-100000J0D01*
G01*
X230170000Y-53590000D01*
G75*
G02*
X230070000Y-53490000I0J100000D01*
G01*
X230070000Y-50340000D01*
G75*
G02*
X230170000Y-50240000I100000J0D01*
G01*
G37*
G36*
G01*
X232710000Y-45190000D02*
X233710000Y-45190000D01*
G75*
G02*
X233810000Y-45290000I0J-100000D01*
G01*
X233810000Y-48440000D01*
G75*
G02*
X233710000Y-48540000I-100000J0D01*
G01*
X232710000Y-48540000D01*
G75*
G02*
X232610000Y-48440000I0J100000D01*
G01*
X232610000Y-45290000D01*
G75*
G02*
X232710000Y-45190000I100000J0D01*
G01*
G37*
G36*
G01*
X232710000Y-50240000D02*
X233710000Y-50240000D01*
G75*
G02*
X233810000Y-50340000I0J-100000D01*
G01*
X233810000Y-53490000D01*
G75*
G02*
X233710000Y-53590000I-100000J0D01*
G01*
X232710000Y-53590000D01*
G75*
G02*
X232610000Y-53490000I0J100000D01*
G01*
X232610000Y-50340000D01*
G75*
G02*
X232710000Y-50240000I100000J0D01*
G01*
G37*
G36*
G01*
X235250000Y-45190000D02*
X236250000Y-45190000D01*
G75*
G02*
X236350000Y-45290000I0J-100000D01*
G01*
X236350000Y-48440000D01*
G75*
G02*
X236250000Y-48540000I-100000J0D01*
G01*
X235250000Y-48540000D01*
G75*
G02*
X235150000Y-48440000I0J100000D01*
G01*
X235150000Y-45290000D01*
G75*
G02*
X235250000Y-45190000I100000J0D01*
G01*
G37*
G36*
G01*
X235250000Y-50240000D02*
X236250000Y-50240000D01*
G75*
G02*
X236350000Y-50340000I0J-100000D01*
G01*
X236350000Y-53490000D01*
G75*
G02*
X236250000Y-53590000I-100000J0D01*
G01*
X235250000Y-53590000D01*
G75*
G02*
X235150000Y-53490000I0J100000D01*
G01*
X235150000Y-50340000D01*
G75*
G02*
X235250000Y-50240000I100000J0D01*
G01*
G37*
G36*
G01*
X237790000Y-45190000D02*
X238790000Y-45190000D01*
G75*
G02*
X238890000Y-45290000I0J-100000D01*
G01*
X238890000Y-48440000D01*
G75*
G02*
X238790000Y-48540000I-100000J0D01*
G01*
X237790000Y-48540000D01*
G75*
G02*
X237690000Y-48440000I0J100000D01*
G01*
X237690000Y-45290000D01*
G75*
G02*
X237790000Y-45190000I100000J0D01*
G01*
G37*
G36*
G01*
X237790000Y-50240000D02*
X238790000Y-50240000D01*
G75*
G02*
X238890000Y-50340000I0J-100000D01*
G01*
X238890000Y-53490000D01*
G75*
G02*
X238790000Y-53590000I-100000J0D01*
G01*
X237790000Y-53590000D01*
G75*
G02*
X237690000Y-53490000I0J100000D01*
G01*
X237690000Y-50340000D01*
G75*
G02*
X237790000Y-50240000I100000J0D01*
G01*
G37*
G36*
G01*
X240330000Y-45190000D02*
X241330000Y-45190000D01*
G75*
G02*
X241430000Y-45290000I0J-100000D01*
G01*
X241430000Y-48440000D01*
G75*
G02*
X241330000Y-48540000I-100000J0D01*
G01*
X240330000Y-48540000D01*
G75*
G02*
X240230000Y-48440000I0J100000D01*
G01*
X240230000Y-45290000D01*
G75*
G02*
X240330000Y-45190000I100000J0D01*
G01*
G37*
G36*
G01*
X240330000Y-50240000D02*
X241330000Y-50240000D01*
G75*
G02*
X241430000Y-50340000I0J-100000D01*
G01*
X241430000Y-53490000D01*
G75*
G02*
X241330000Y-53590000I-100000J0D01*
G01*
X240330000Y-53590000D01*
G75*
G02*
X240230000Y-53490000I0J100000D01*
G01*
X240230000Y-50340000D01*
G75*
G02*
X240330000Y-50240000I100000J0D01*
G01*
G37*
%TD*%
M02*
