%TF.GenerationSoftware,KiCad,Pcbnew,5.1.9+dfsg1-1+deb11u1*%
%TF.CreationDate,2025-10-29T09:53:25+01:00*%
%TF.ProjectId,VERA-XE-HDMI-Expansion,56455241-2d58-4452-9d48-444d492d4578,1.1*%
%TF.SameCoordinates,Original*%
%TF.FileFunction,Paste,Top*%
%TF.FilePolarity,Positive*%
%FSLAX46Y46*%
G04 Gerber Fmt 4.6, Leading zero omitted, Abs format (unit mm)*
G04 Created by KiCad (PCBNEW 5.1.9+dfsg1-1+deb11u1) date 2025-10-29 09:53:25*
%MOMM*%
%LPD*%
G01*
G04 APERTURE LIST*
%ADD10R,0.300000X2.600000*%
%ADD11R,1.500000X2.000000*%
%ADD12R,3.800000X2.000000*%
%ADD13R,0.787400X0.254000*%
%ADD14R,0.254000X0.787400*%
%ADD15R,5.511800X5.511800*%
G04 APERTURE END LIST*
%TO.C,C1*%
G36*
G01*
X142975000Y-90950000D02*
X142025000Y-90950000D01*
G75*
G02*
X141775000Y-90700000I0J250000D01*
G01*
X141775000Y-90025000D01*
G75*
G02*
X142025000Y-89775000I250000J0D01*
G01*
X142975000Y-89775000D01*
G75*
G02*
X143225000Y-90025000I0J-250000D01*
G01*
X143225000Y-90700000D01*
G75*
G02*
X142975000Y-90950000I-250000J0D01*
G01*
G37*
G36*
G01*
X142975000Y-93025000D02*
X142025000Y-93025000D01*
G75*
G02*
X141775000Y-92775000I0J250000D01*
G01*
X141775000Y-92100000D01*
G75*
G02*
X142025000Y-91850000I250000J0D01*
G01*
X142975000Y-91850000D01*
G75*
G02*
X143225000Y-92100000I0J-250000D01*
G01*
X143225000Y-92775000D01*
G75*
G02*
X142975000Y-93025000I-250000J0D01*
G01*
G37*
%TD*%
%TO.C,C2*%
G36*
G01*
X140975000Y-90950000D02*
X140025000Y-90950000D01*
G75*
G02*
X139775000Y-90700000I0J250000D01*
G01*
X139775000Y-90025000D01*
G75*
G02*
X140025000Y-89775000I250000J0D01*
G01*
X140975000Y-89775000D01*
G75*
G02*
X141225000Y-90025000I0J-250000D01*
G01*
X141225000Y-90700000D01*
G75*
G02*
X140975000Y-90950000I-250000J0D01*
G01*
G37*
G36*
G01*
X140975000Y-93025000D02*
X140025000Y-93025000D01*
G75*
G02*
X139775000Y-92775000I0J250000D01*
G01*
X139775000Y-92100000D01*
G75*
G02*
X140025000Y-91850000I250000J0D01*
G01*
X140975000Y-91850000D01*
G75*
G02*
X141225000Y-92100000I0J-250000D01*
G01*
X141225000Y-92775000D01*
G75*
G02*
X140975000Y-93025000I-250000J0D01*
G01*
G37*
%TD*%
%TO.C,C3*%
G36*
G01*
X140975000Y-94950000D02*
X140025000Y-94950000D01*
G75*
G02*
X139775000Y-94700000I0J250000D01*
G01*
X139775000Y-94025000D01*
G75*
G02*
X140025000Y-93775000I250000J0D01*
G01*
X140975000Y-93775000D01*
G75*
G02*
X141225000Y-94025000I0J-250000D01*
G01*
X141225000Y-94700000D01*
G75*
G02*
X140975000Y-94950000I-250000J0D01*
G01*
G37*
G36*
G01*
X140975000Y-97025000D02*
X140025000Y-97025000D01*
G75*
G02*
X139775000Y-96775000I0J250000D01*
G01*
X139775000Y-96100000D01*
G75*
G02*
X140025000Y-95850000I250000J0D01*
G01*
X140975000Y-95850000D01*
G75*
G02*
X141225000Y-96100000I0J-250000D01*
G01*
X141225000Y-96775000D01*
G75*
G02*
X140975000Y-97025000I-250000J0D01*
G01*
G37*
%TD*%
%TO.C,C4*%
G36*
G01*
X142975000Y-94950000D02*
X142025000Y-94950000D01*
G75*
G02*
X141775000Y-94700000I0J250000D01*
G01*
X141775000Y-94025000D01*
G75*
G02*
X142025000Y-93775000I250000J0D01*
G01*
X142975000Y-93775000D01*
G75*
G02*
X143225000Y-94025000I0J-250000D01*
G01*
X143225000Y-94700000D01*
G75*
G02*
X142975000Y-94950000I-250000J0D01*
G01*
G37*
G36*
G01*
X142975000Y-97025000D02*
X142025000Y-97025000D01*
G75*
G02*
X141775000Y-96775000I0J250000D01*
G01*
X141775000Y-96100000D01*
G75*
G02*
X142025000Y-95850000I250000J0D01*
G01*
X142975000Y-95850000D01*
G75*
G02*
X143225000Y-96100000I0J-250000D01*
G01*
X143225000Y-96775000D01*
G75*
G02*
X142975000Y-97025000I-250000J0D01*
G01*
G37*
%TD*%
%TO.C,C7*%
G36*
G01*
X125025000Y-97850000D02*
X125975000Y-97850000D01*
G75*
G02*
X126225000Y-98100000I0J-250000D01*
G01*
X126225000Y-98775000D01*
G75*
G02*
X125975000Y-99025000I-250000J0D01*
G01*
X125025000Y-99025000D01*
G75*
G02*
X124775000Y-98775000I0J250000D01*
G01*
X124775000Y-98100000D01*
G75*
G02*
X125025000Y-97850000I250000J0D01*
G01*
G37*
G36*
G01*
X125025000Y-95775000D02*
X125975000Y-95775000D01*
G75*
G02*
X126225000Y-96025000I0J-250000D01*
G01*
X126225000Y-96700000D01*
G75*
G02*
X125975000Y-96950000I-250000J0D01*
G01*
X125025000Y-96950000D01*
G75*
G02*
X124775000Y-96700000I0J250000D01*
G01*
X124775000Y-96025000D01*
G75*
G02*
X125025000Y-95775000I250000J0D01*
G01*
G37*
%TD*%
%TO.C,C8*%
G36*
G01*
X127025000Y-97850000D02*
X127975000Y-97850000D01*
G75*
G02*
X128225000Y-98100000I0J-250000D01*
G01*
X128225000Y-98775000D01*
G75*
G02*
X127975000Y-99025000I-250000J0D01*
G01*
X127025000Y-99025000D01*
G75*
G02*
X126775000Y-98775000I0J250000D01*
G01*
X126775000Y-98100000D01*
G75*
G02*
X127025000Y-97850000I250000J0D01*
G01*
G37*
G36*
G01*
X127025000Y-95775000D02*
X127975000Y-95775000D01*
G75*
G02*
X128225000Y-96025000I0J-250000D01*
G01*
X128225000Y-96700000D01*
G75*
G02*
X127975000Y-96950000I-250000J0D01*
G01*
X127025000Y-96950000D01*
G75*
G02*
X126775000Y-96700000I0J250000D01*
G01*
X126775000Y-96025000D01*
G75*
G02*
X127025000Y-95775000I250000J0D01*
G01*
G37*
%TD*%
%TO.C,C9*%
G36*
G01*
X131050000Y-100925000D02*
X131050000Y-101875000D01*
G75*
G02*
X130800000Y-102125000I-250000J0D01*
G01*
X130125000Y-102125000D01*
G75*
G02*
X129875000Y-101875000I0J250000D01*
G01*
X129875000Y-100925000D01*
G75*
G02*
X130125000Y-100675000I250000J0D01*
G01*
X130800000Y-100675000D01*
G75*
G02*
X131050000Y-100925000I0J-250000D01*
G01*
G37*
G36*
G01*
X133125000Y-100925000D02*
X133125000Y-101875000D01*
G75*
G02*
X132875000Y-102125000I-250000J0D01*
G01*
X132200000Y-102125000D01*
G75*
G02*
X131950000Y-101875000I0J250000D01*
G01*
X131950000Y-100925000D01*
G75*
G02*
X132200000Y-100675000I250000J0D01*
G01*
X132875000Y-100675000D01*
G75*
G02*
X133125000Y-100925000I0J-250000D01*
G01*
G37*
%TD*%
%TO.C,C10*%
G36*
G01*
X131050000Y-98925000D02*
X131050000Y-99875000D01*
G75*
G02*
X130800000Y-100125000I-250000J0D01*
G01*
X130125000Y-100125000D01*
G75*
G02*
X129875000Y-99875000I0J250000D01*
G01*
X129875000Y-98925000D01*
G75*
G02*
X130125000Y-98675000I250000J0D01*
G01*
X130800000Y-98675000D01*
G75*
G02*
X131050000Y-98925000I0J-250000D01*
G01*
G37*
G36*
G01*
X133125000Y-98925000D02*
X133125000Y-99875000D01*
G75*
G02*
X132875000Y-100125000I-250000J0D01*
G01*
X132200000Y-100125000D01*
G75*
G02*
X131950000Y-99875000I0J250000D01*
G01*
X131950000Y-98925000D01*
G75*
G02*
X132200000Y-98675000I250000J0D01*
G01*
X132875000Y-98675000D01*
G75*
G02*
X133125000Y-98925000I0J-250000D01*
G01*
G37*
%TD*%
%TO.C,C13*%
G36*
G01*
X126050000Y-90925000D02*
X126050000Y-91875000D01*
G75*
G02*
X125800000Y-92125000I-250000J0D01*
G01*
X125125000Y-92125000D01*
G75*
G02*
X124875000Y-91875000I0J250000D01*
G01*
X124875000Y-90925000D01*
G75*
G02*
X125125000Y-90675000I250000J0D01*
G01*
X125800000Y-90675000D01*
G75*
G02*
X126050000Y-90925000I0J-250000D01*
G01*
G37*
G36*
G01*
X128125000Y-90925000D02*
X128125000Y-91875000D01*
G75*
G02*
X127875000Y-92125000I-250000J0D01*
G01*
X127200000Y-92125000D01*
G75*
G02*
X126950000Y-91875000I0J250000D01*
G01*
X126950000Y-90925000D01*
G75*
G02*
X127200000Y-90675000I250000J0D01*
G01*
X127875000Y-90675000D01*
G75*
G02*
X128125000Y-90925000I0J-250000D01*
G01*
G37*
%TD*%
%TO.C,C14*%
G36*
G01*
X126050000Y-88925000D02*
X126050000Y-89875000D01*
G75*
G02*
X125800000Y-90125000I-250000J0D01*
G01*
X125125000Y-90125000D01*
G75*
G02*
X124875000Y-89875000I0J250000D01*
G01*
X124875000Y-88925000D01*
G75*
G02*
X125125000Y-88675000I250000J0D01*
G01*
X125800000Y-88675000D01*
G75*
G02*
X126050000Y-88925000I0J-250000D01*
G01*
G37*
G36*
G01*
X128125000Y-88925000D02*
X128125000Y-89875000D01*
G75*
G02*
X127875000Y-90125000I-250000J0D01*
G01*
X127200000Y-90125000D01*
G75*
G02*
X126950000Y-89875000I0J250000D01*
G01*
X126950000Y-88925000D01*
G75*
G02*
X127200000Y-88675000I250000J0D01*
G01*
X127875000Y-88675000D01*
G75*
G02*
X128125000Y-88925000I0J-250000D01*
G01*
G37*
%TD*%
%TO.C,C15*%
G36*
G01*
X190975000Y-95950000D02*
X190025000Y-95950000D01*
G75*
G02*
X189775000Y-95700000I0J250000D01*
G01*
X189775000Y-95025000D01*
G75*
G02*
X190025000Y-94775000I250000J0D01*
G01*
X190975000Y-94775000D01*
G75*
G02*
X191225000Y-95025000I0J-250000D01*
G01*
X191225000Y-95700000D01*
G75*
G02*
X190975000Y-95950000I-250000J0D01*
G01*
G37*
G36*
G01*
X190975000Y-98025000D02*
X190025000Y-98025000D01*
G75*
G02*
X189775000Y-97775000I0J250000D01*
G01*
X189775000Y-97100000D01*
G75*
G02*
X190025000Y-96850000I250000J0D01*
G01*
X190975000Y-96850000D01*
G75*
G02*
X191225000Y-97100000I0J-250000D01*
G01*
X191225000Y-97775000D01*
G75*
G02*
X190975000Y-98025000I-250000J0D01*
G01*
G37*
%TD*%
%TO.C,C16*%
G36*
G01*
X177575000Y-95275000D02*
X179425000Y-95275000D01*
G75*
G02*
X179675000Y-95525000I0J-250000D01*
G01*
X179675000Y-96525000D01*
G75*
G02*
X179425000Y-96775000I-250000J0D01*
G01*
X177575000Y-96775000D01*
G75*
G02*
X177325000Y-96525000I0J250000D01*
G01*
X177325000Y-95525000D01*
G75*
G02*
X177575000Y-95275000I250000J0D01*
G01*
G37*
G36*
G01*
X177575000Y-92025000D02*
X179425000Y-92025000D01*
G75*
G02*
X179675000Y-92275000I0J-250000D01*
G01*
X179675000Y-93275000D01*
G75*
G02*
X179425000Y-93525000I-250000J0D01*
G01*
X177575000Y-93525000D01*
G75*
G02*
X177325000Y-93275000I0J250000D01*
G01*
X177325000Y-92275000D01*
G75*
G02*
X177575000Y-92025000I250000J0D01*
G01*
G37*
%TD*%
%TO.C,C17*%
G36*
G01*
X175025000Y-94850000D02*
X175975000Y-94850000D01*
G75*
G02*
X176225000Y-95100000I0J-250000D01*
G01*
X176225000Y-95775000D01*
G75*
G02*
X175975000Y-96025000I-250000J0D01*
G01*
X175025000Y-96025000D01*
G75*
G02*
X174775000Y-95775000I0J250000D01*
G01*
X174775000Y-95100000D01*
G75*
G02*
X175025000Y-94850000I250000J0D01*
G01*
G37*
G36*
G01*
X175025000Y-92775000D02*
X175975000Y-92775000D01*
G75*
G02*
X176225000Y-93025000I0J-250000D01*
G01*
X176225000Y-93700000D01*
G75*
G02*
X175975000Y-93950000I-250000J0D01*
G01*
X175025000Y-93950000D01*
G75*
G02*
X174775000Y-93700000I0J250000D01*
G01*
X174775000Y-93025000D01*
G75*
G02*
X175025000Y-92775000I250000J0D01*
G01*
G37*
%TD*%
%TO.C,C18*%
G36*
G01*
X136950000Y-101875000D02*
X136950000Y-100925000D01*
G75*
G02*
X137200000Y-100675000I250000J0D01*
G01*
X137875000Y-100675000D01*
G75*
G02*
X138125000Y-100925000I0J-250000D01*
G01*
X138125000Y-101875000D01*
G75*
G02*
X137875000Y-102125000I-250000J0D01*
G01*
X137200000Y-102125000D01*
G75*
G02*
X136950000Y-101875000I0J250000D01*
G01*
G37*
G36*
G01*
X134875000Y-101875000D02*
X134875000Y-100925000D01*
G75*
G02*
X135125000Y-100675000I250000J0D01*
G01*
X135800000Y-100675000D01*
G75*
G02*
X136050000Y-100925000I0J-250000D01*
G01*
X136050000Y-101875000D01*
G75*
G02*
X135800000Y-102125000I-250000J0D01*
G01*
X135125000Y-102125000D01*
G75*
G02*
X134875000Y-101875000I0J250000D01*
G01*
G37*
%TD*%
%TO.C,C19*%
G36*
G01*
X136950000Y-99875000D02*
X136950000Y-98925000D01*
G75*
G02*
X137200000Y-98675000I250000J0D01*
G01*
X137875000Y-98675000D01*
G75*
G02*
X138125000Y-98925000I0J-250000D01*
G01*
X138125000Y-99875000D01*
G75*
G02*
X137875000Y-100125000I-250000J0D01*
G01*
X137200000Y-100125000D01*
G75*
G02*
X136950000Y-99875000I0J250000D01*
G01*
G37*
G36*
G01*
X134875000Y-99875000D02*
X134875000Y-98925000D01*
G75*
G02*
X135125000Y-98675000I250000J0D01*
G01*
X135800000Y-98675000D01*
G75*
G02*
X136050000Y-98925000I0J-250000D01*
G01*
X136050000Y-99875000D01*
G75*
G02*
X135800000Y-100125000I-250000J0D01*
G01*
X135125000Y-100125000D01*
G75*
G02*
X134875000Y-99875000I0J250000D01*
G01*
G37*
%TD*%
%TO.C,C26*%
G36*
G01*
X161550000Y-95125000D02*
X161550000Y-94175000D01*
G75*
G02*
X161800000Y-93925000I250000J0D01*
G01*
X162475000Y-93925000D01*
G75*
G02*
X162725000Y-94175000I0J-250000D01*
G01*
X162725000Y-95125000D01*
G75*
G02*
X162475000Y-95375000I-250000J0D01*
G01*
X161800000Y-95375000D01*
G75*
G02*
X161550000Y-95125000I0J250000D01*
G01*
G37*
G36*
G01*
X159475000Y-95125000D02*
X159475000Y-94175000D01*
G75*
G02*
X159725000Y-93925000I250000J0D01*
G01*
X160400000Y-93925000D01*
G75*
G02*
X160650000Y-94175000I0J-250000D01*
G01*
X160650000Y-95125000D01*
G75*
G02*
X160400000Y-95375000I-250000J0D01*
G01*
X159725000Y-95375000D01*
G75*
G02*
X159475000Y-95125000I0J250000D01*
G01*
G37*
%TD*%
%TO.C,C27*%
G36*
G01*
X161950000Y-97875000D02*
X161950000Y-96925000D01*
G75*
G02*
X162200000Y-96675000I250000J0D01*
G01*
X162875000Y-96675000D01*
G75*
G02*
X163125000Y-96925000I0J-250000D01*
G01*
X163125000Y-97875000D01*
G75*
G02*
X162875000Y-98125000I-250000J0D01*
G01*
X162200000Y-98125000D01*
G75*
G02*
X161950000Y-97875000I0J250000D01*
G01*
G37*
G36*
G01*
X159875000Y-97875000D02*
X159875000Y-96925000D01*
G75*
G02*
X160125000Y-96675000I250000J0D01*
G01*
X160800000Y-96675000D01*
G75*
G02*
X161050000Y-96925000I0J-250000D01*
G01*
X161050000Y-97875000D01*
G75*
G02*
X160800000Y-98125000I-250000J0D01*
G01*
X160125000Y-98125000D01*
G75*
G02*
X159875000Y-97875000I0J250000D01*
G01*
G37*
%TD*%
%TO.C,C30*%
G36*
G01*
X125050000Y-99925000D02*
X125050000Y-100875000D01*
G75*
G02*
X124800000Y-101125000I-250000J0D01*
G01*
X124125000Y-101125000D01*
G75*
G02*
X123875000Y-100875000I0J250000D01*
G01*
X123875000Y-99925000D01*
G75*
G02*
X124125000Y-99675000I250000J0D01*
G01*
X124800000Y-99675000D01*
G75*
G02*
X125050000Y-99925000I0J-250000D01*
G01*
G37*
G36*
G01*
X127125000Y-99925000D02*
X127125000Y-100875000D01*
G75*
G02*
X126875000Y-101125000I-250000J0D01*
G01*
X126200000Y-101125000D01*
G75*
G02*
X125950000Y-100875000I0J250000D01*
G01*
X125950000Y-99925000D01*
G75*
G02*
X126200000Y-99675000I250000J0D01*
G01*
X126875000Y-99675000D01*
G75*
G02*
X127125000Y-99925000I0J-250000D01*
G01*
G37*
%TD*%
D10*
%TO.C,J1*%
X140250000Y-86200000D03*
X139750000Y-86200000D03*
X139250000Y-86200000D03*
X138750000Y-86200000D03*
X138250000Y-86200000D03*
X137750000Y-86200000D03*
X137250000Y-86200000D03*
X136750000Y-86200000D03*
X136250000Y-86200000D03*
X135750000Y-86200000D03*
X135250000Y-86200000D03*
X134750000Y-86200000D03*
X134250000Y-86200000D03*
X133750000Y-86200000D03*
X133250000Y-86200000D03*
X132750000Y-86200000D03*
X132250000Y-86200000D03*
X131750000Y-86200000D03*
X131250000Y-86200000D03*
%TD*%
%TO.C,L1*%
G36*
G01*
X164450000Y-92299999D02*
X164450000Y-93200001D01*
G75*
G02*
X164200001Y-93450000I-249999J0D01*
G01*
X163549999Y-93450000D01*
G75*
G02*
X163300000Y-93200001I0J249999D01*
G01*
X163300000Y-92299999D01*
G75*
G02*
X163549999Y-92050000I249999J0D01*
G01*
X164200001Y-92050000D01*
G75*
G02*
X164450000Y-92299999I0J-249999D01*
G01*
G37*
G36*
G01*
X166500000Y-92299999D02*
X166500000Y-93200001D01*
G75*
G02*
X166250001Y-93450000I-249999J0D01*
G01*
X165599999Y-93450000D01*
G75*
G02*
X165350000Y-93200001I0J249999D01*
G01*
X165350000Y-92299999D01*
G75*
G02*
X165599999Y-92050000I249999J0D01*
G01*
X166250001Y-92050000D01*
G75*
G02*
X166500000Y-92299999I0J-249999D01*
G01*
G37*
%TD*%
%TO.C,L2*%
G36*
G01*
X167050000Y-89949999D02*
X167050000Y-90850001D01*
G75*
G02*
X166800001Y-91100000I-249999J0D01*
G01*
X166149999Y-91100000D01*
G75*
G02*
X165900000Y-90850001I0J249999D01*
G01*
X165900000Y-89949999D01*
G75*
G02*
X166149999Y-89700000I249999J0D01*
G01*
X166800001Y-89700000D01*
G75*
G02*
X167050000Y-89949999I0J-249999D01*
G01*
G37*
G36*
G01*
X169100000Y-89949999D02*
X169100000Y-90850001D01*
G75*
G02*
X168850001Y-91100000I-249999J0D01*
G01*
X168199999Y-91100000D01*
G75*
G02*
X167950000Y-90850001I0J249999D01*
G01*
X167950000Y-89949999D01*
G75*
G02*
X168199999Y-89700000I249999J0D01*
G01*
X168850001Y-89700000D01*
G75*
G02*
X169100000Y-89949999I0J-249999D01*
G01*
G37*
%TD*%
%TO.C,L3*%
G36*
G01*
X167050000Y-86949999D02*
X167050000Y-87850001D01*
G75*
G02*
X166800001Y-88100000I-249999J0D01*
G01*
X166149999Y-88100000D01*
G75*
G02*
X165900000Y-87850001I0J249999D01*
G01*
X165900000Y-86949999D01*
G75*
G02*
X166149999Y-86700000I249999J0D01*
G01*
X166800001Y-86700000D01*
G75*
G02*
X167050000Y-86949999I0J-249999D01*
G01*
G37*
G36*
G01*
X169100000Y-86949999D02*
X169100000Y-87850001D01*
G75*
G02*
X168850001Y-88100000I-249999J0D01*
G01*
X168199999Y-88100000D01*
G75*
G02*
X167950000Y-87850001I0J249999D01*
G01*
X167950000Y-86949999D01*
G75*
G02*
X168199999Y-86700000I249999J0D01*
G01*
X168850001Y-86700000D01*
G75*
G02*
X169100000Y-86949999I0J-249999D01*
G01*
G37*
%TD*%
%TO.C,L4*%
G36*
G01*
X167050000Y-83949999D02*
X167050000Y-84850001D01*
G75*
G02*
X166800001Y-85100000I-249999J0D01*
G01*
X166149999Y-85100000D01*
G75*
G02*
X165900000Y-84850001I0J249999D01*
G01*
X165900000Y-83949999D01*
G75*
G02*
X166149999Y-83700000I249999J0D01*
G01*
X166800001Y-83700000D01*
G75*
G02*
X167050000Y-83949999I0J-249999D01*
G01*
G37*
G36*
G01*
X169100000Y-83949999D02*
X169100000Y-84850001D01*
G75*
G02*
X168850001Y-85100000I-249999J0D01*
G01*
X168199999Y-85100000D01*
G75*
G02*
X167950000Y-84850001I0J249999D01*
G01*
X167950000Y-83949999D01*
G75*
G02*
X168199999Y-83700000I249999J0D01*
G01*
X168850001Y-83700000D01*
G75*
G02*
X169100000Y-83949999I0J-249999D01*
G01*
G37*
%TD*%
%TO.C,R1*%
G36*
G01*
X166900000Y-100850001D02*
X166900000Y-99949999D01*
G75*
G02*
X167149999Y-99700000I249999J0D01*
G01*
X167850001Y-99700000D01*
G75*
G02*
X168100000Y-99949999I0J-249999D01*
G01*
X168100000Y-100850001D01*
G75*
G02*
X167850001Y-101100000I-249999J0D01*
G01*
X167149999Y-101100000D01*
G75*
G02*
X166900000Y-100850001I0J249999D01*
G01*
G37*
G36*
G01*
X164900000Y-100850001D02*
X164900000Y-99949999D01*
G75*
G02*
X165149999Y-99700000I249999J0D01*
G01*
X165850001Y-99700000D01*
G75*
G02*
X166100000Y-99949999I0J-249999D01*
G01*
X166100000Y-100850001D01*
G75*
G02*
X165850001Y-101100000I-249999J0D01*
G01*
X165149999Y-101100000D01*
G75*
G02*
X164900000Y-100850001I0J249999D01*
G01*
G37*
%TD*%
%TO.C,R2*%
G36*
G01*
X165700000Y-98800001D02*
X165700000Y-97899999D01*
G75*
G02*
X165949999Y-97650000I249999J0D01*
G01*
X166650001Y-97650000D01*
G75*
G02*
X166900000Y-97899999I0J-249999D01*
G01*
X166900000Y-98800001D01*
G75*
G02*
X166650001Y-99050000I-249999J0D01*
G01*
X165949999Y-99050000D01*
G75*
G02*
X165700000Y-98800001I0J249999D01*
G01*
G37*
G36*
G01*
X163700000Y-98800001D02*
X163700000Y-97899999D01*
G75*
G02*
X163949999Y-97650000I249999J0D01*
G01*
X164650001Y-97650000D01*
G75*
G02*
X164900000Y-97899999I0J-249999D01*
G01*
X164900000Y-98800001D01*
G75*
G02*
X164650001Y-99050000I-249999J0D01*
G01*
X163949999Y-99050000D01*
G75*
G02*
X163700000Y-98800001I0J249999D01*
G01*
G37*
%TD*%
%TO.C,R14*%
G36*
G01*
X145950001Y-88000000D02*
X145049999Y-88000000D01*
G75*
G02*
X144800000Y-87750001I0J249999D01*
G01*
X144800000Y-87049999D01*
G75*
G02*
X145049999Y-86800000I249999J0D01*
G01*
X145950001Y-86800000D01*
G75*
G02*
X146200000Y-87049999I0J-249999D01*
G01*
X146200000Y-87750001D01*
G75*
G02*
X145950001Y-88000000I-249999J0D01*
G01*
G37*
G36*
G01*
X145950001Y-90000000D02*
X145049999Y-90000000D01*
G75*
G02*
X144800000Y-89750001I0J249999D01*
G01*
X144800000Y-89049999D01*
G75*
G02*
X145049999Y-88800000I249999J0D01*
G01*
X145950001Y-88800000D01*
G75*
G02*
X146200000Y-89049999I0J-249999D01*
G01*
X146200000Y-89750001D01*
G75*
G02*
X145950001Y-90000000I-249999J0D01*
G01*
G37*
%TD*%
%TO.C,R15*%
G36*
G01*
X122925000Y-95637500D02*
X122925000Y-95162500D01*
G75*
G02*
X123162500Y-94925000I237500J0D01*
G01*
X123662500Y-94925000D01*
G75*
G02*
X123900000Y-95162500I0J-237500D01*
G01*
X123900000Y-95637500D01*
G75*
G02*
X123662500Y-95875000I-237500J0D01*
G01*
X123162500Y-95875000D01*
G75*
G02*
X122925000Y-95637500I0J237500D01*
G01*
G37*
G36*
G01*
X121100000Y-95637500D02*
X121100000Y-95162500D01*
G75*
G02*
X121337500Y-94925000I237500J0D01*
G01*
X121837500Y-94925000D01*
G75*
G02*
X122075000Y-95162500I0J-237500D01*
G01*
X122075000Y-95637500D01*
G75*
G02*
X121837500Y-95875000I-237500J0D01*
G01*
X121337500Y-95875000D01*
G75*
G02*
X121100000Y-95637500I0J237500D01*
G01*
G37*
%TD*%
%TO.C,R16*%
G36*
G01*
X122925000Y-93637500D02*
X122925000Y-93162500D01*
G75*
G02*
X123162500Y-92925000I237500J0D01*
G01*
X123662500Y-92925000D01*
G75*
G02*
X123900000Y-93162500I0J-237500D01*
G01*
X123900000Y-93637500D01*
G75*
G02*
X123662500Y-93875000I-237500J0D01*
G01*
X123162500Y-93875000D01*
G75*
G02*
X122925000Y-93637500I0J237500D01*
G01*
G37*
G36*
G01*
X121100000Y-93637500D02*
X121100000Y-93162500D01*
G75*
G02*
X121337500Y-92925000I237500J0D01*
G01*
X121837500Y-92925000D01*
G75*
G02*
X122075000Y-93162500I0J-237500D01*
G01*
X122075000Y-93637500D01*
G75*
G02*
X121837500Y-93875000I-237500J0D01*
G01*
X121337500Y-93875000D01*
G75*
G02*
X121100000Y-93637500I0J237500D01*
G01*
G37*
%TD*%
D11*
%TO.C,U1*%
X182200000Y-96550000D03*
X186800000Y-96550000D03*
X184500000Y-96550000D03*
D12*
X184500000Y-90250000D03*
%TD*%
D13*
%TO.C,U2*%
X137317100Y-96182900D03*
X137317100Y-95682901D03*
X137317100Y-95182899D03*
X137317100Y-94682900D03*
X137317100Y-94182901D03*
X137317100Y-93682900D03*
X137317100Y-93182900D03*
X137317100Y-92682899D03*
X137317100Y-92182900D03*
X137317100Y-91682901D03*
X137317100Y-91182899D03*
X137317100Y-90682900D03*
D14*
X136600000Y-89965800D03*
X136100001Y-89965800D03*
X135599999Y-89965800D03*
X135100000Y-89965800D03*
X134600001Y-89965800D03*
X134100000Y-89965800D03*
X133600000Y-89965800D03*
X133099999Y-89965800D03*
X132600000Y-89965800D03*
X132100001Y-89965800D03*
X131599999Y-89965800D03*
X131100000Y-89965800D03*
D13*
X130382900Y-90682900D03*
X130382900Y-91182899D03*
X130382900Y-91682901D03*
X130382900Y-92182900D03*
X130382900Y-92682899D03*
X130382900Y-93182900D03*
X130382900Y-93682900D03*
X130382900Y-94182901D03*
X130382900Y-94682900D03*
X130382900Y-95182899D03*
X130382900Y-95682901D03*
X130382900Y-96182900D03*
D14*
X131100000Y-96900000D03*
X131599999Y-96900000D03*
X132100001Y-96900000D03*
X132600000Y-96900000D03*
X133099999Y-96900000D03*
X133600000Y-96900000D03*
X134100000Y-96900000D03*
X134600001Y-96900000D03*
X135100000Y-96900000D03*
X135599999Y-96900000D03*
X136100001Y-96900000D03*
X136600000Y-96900000D03*
D15*
X133850000Y-93432900D03*
%TD*%
%TO.C,LD1*%
G36*
G01*
X191050000Y-89949999D02*
X191050000Y-90850001D01*
G75*
G02*
X190800001Y-91100000I-249999J0D01*
G01*
X190149999Y-91100000D01*
G75*
G02*
X189900000Y-90850001I0J249999D01*
G01*
X189900000Y-89949999D01*
G75*
G02*
X190149999Y-89700000I249999J0D01*
G01*
X190800001Y-89700000D01*
G75*
G02*
X191050000Y-89949999I0J-249999D01*
G01*
G37*
G36*
G01*
X193100000Y-89949999D02*
X193100000Y-90850001D01*
G75*
G02*
X192850001Y-91100000I-249999J0D01*
G01*
X192199999Y-91100000D01*
G75*
G02*
X191950000Y-90850001I0J249999D01*
G01*
X191950000Y-89949999D01*
G75*
G02*
X192199999Y-89700000I249999J0D01*
G01*
X192850001Y-89700000D01*
G75*
G02*
X193100000Y-89949999I0J-249999D01*
G01*
G37*
%TD*%
%TO.C,R17*%
G36*
G01*
X191075000Y-93162500D02*
X191075000Y-93637500D01*
G75*
G02*
X190837500Y-93875000I-237500J0D01*
G01*
X190337500Y-93875000D01*
G75*
G02*
X190100000Y-93637500I0J237500D01*
G01*
X190100000Y-93162500D01*
G75*
G02*
X190337500Y-92925000I237500J0D01*
G01*
X190837500Y-92925000D01*
G75*
G02*
X191075000Y-93162500I0J-237500D01*
G01*
G37*
G36*
G01*
X192900000Y-93162500D02*
X192900000Y-93637500D01*
G75*
G02*
X192662500Y-93875000I-237500J0D01*
G01*
X192162500Y-93875000D01*
G75*
G02*
X191925000Y-93637500I0J237500D01*
G01*
X191925000Y-93162500D01*
G75*
G02*
X192162500Y-92925000I237500J0D01*
G01*
X192662500Y-92925000D01*
G75*
G02*
X192900000Y-93162500I0J-237500D01*
G01*
G37*
%TD*%
M02*
