%TF.GenerationSoftware,KiCad,Pcbnew,5.1.9+dfsg1-1+deb11u1*%
%TF.CreationDate,2025-10-24T14:32:27+02:00*%
%TF.ProjectId,VERA-XE-HDMI-Expansion,56455241-2d58-4452-9d48-444d492d4578,1.1*%
%TF.SameCoordinates,Original*%
%TF.FileFunction,Soldermask,Bot*%
%TF.FilePolarity,Negative*%
%FSLAX46Y46*%
G04 Gerber Fmt 4.6, Leading zero omitted, Abs format (unit mm)*
G04 Created by KiCad (PCBNEW 5.1.9+dfsg1-1+deb11u1) date 2025-10-24 14:32:27*
%MOMM*%
%LPD*%
G01*
G04 APERTURE LIST*
%ADD10C,3.400000*%
%ADD11O,1.700000X3.400000*%
%ADD12O,1.700000X2.900000*%
G04 APERTURE END LIST*
%TO.C,C5*%
G36*
G01*
X131150000Y-85867553D02*
X131150000Y-86932447D01*
G75*
G02*
X130857447Y-87225000I-292553J0D01*
G01*
X130067553Y-87225000D01*
G75*
G02*
X129775000Y-86932447I0J292553D01*
G01*
X129775000Y-85867553D01*
G75*
G02*
X130067553Y-85575000I292553J0D01*
G01*
X130857447Y-85575000D01*
G75*
G02*
X131150000Y-85867553I0J-292553D01*
G01*
G37*
G36*
G01*
X133225000Y-85867553D02*
X133225000Y-86932447D01*
G75*
G02*
X132932447Y-87225000I-292553J0D01*
G01*
X132142553Y-87225000D01*
G75*
G02*
X131850000Y-86932447I0J292553D01*
G01*
X131850000Y-85867553D01*
G75*
G02*
X132142553Y-85575000I292553J0D01*
G01*
X132932447Y-85575000D01*
G75*
G02*
X133225000Y-85867553I0J-292553D01*
G01*
G37*
%TD*%
%TO.C,C6*%
G36*
G01*
X133225000Y-87867553D02*
X133225000Y-88932447D01*
G75*
G02*
X132932447Y-89225000I-292553J0D01*
G01*
X132142553Y-89225000D01*
G75*
G02*
X131850000Y-88932447I0J292553D01*
G01*
X131850000Y-87867553D01*
G75*
G02*
X132142553Y-87575000I292553J0D01*
G01*
X132932447Y-87575000D01*
G75*
G02*
X133225000Y-87867553I0J-292553D01*
G01*
G37*
G36*
G01*
X131150000Y-87867553D02*
X131150000Y-88932447D01*
G75*
G02*
X130857447Y-89225000I-292553J0D01*
G01*
X130067553Y-89225000D01*
G75*
G02*
X129775000Y-88932447I0J292553D01*
G01*
X129775000Y-87867553D01*
G75*
G02*
X130067553Y-87575000I292553J0D01*
G01*
X130857447Y-87575000D01*
G75*
G02*
X131150000Y-87867553I0J-292553D01*
G01*
G37*
%TD*%
%TO.C,C11*%
G36*
G01*
X136850000Y-86932447D02*
X136850000Y-85867553D01*
G75*
G02*
X137142553Y-85575000I292553J0D01*
G01*
X137932447Y-85575000D01*
G75*
G02*
X138225000Y-85867553I0J-292553D01*
G01*
X138225000Y-86932447D01*
G75*
G02*
X137932447Y-87225000I-292553J0D01*
G01*
X137142553Y-87225000D01*
G75*
G02*
X136850000Y-86932447I0J292553D01*
G01*
G37*
G36*
G01*
X134775000Y-86932447D02*
X134775000Y-85867553D01*
G75*
G02*
X135067553Y-85575000I292553J0D01*
G01*
X135857447Y-85575000D01*
G75*
G02*
X136150000Y-85867553I0J-292553D01*
G01*
X136150000Y-86932447D01*
G75*
G02*
X135857447Y-87225000I-292553J0D01*
G01*
X135067553Y-87225000D01*
G75*
G02*
X134775000Y-86932447I0J292553D01*
G01*
G37*
%TD*%
%TO.C,C12*%
G36*
G01*
X134775000Y-88932447D02*
X134775000Y-87867553D01*
G75*
G02*
X135067553Y-87575000I292553J0D01*
G01*
X135857447Y-87575000D01*
G75*
G02*
X136150000Y-87867553I0J-292553D01*
G01*
X136150000Y-88932447D01*
G75*
G02*
X135857447Y-89225000I-292553J0D01*
G01*
X135067553Y-89225000D01*
G75*
G02*
X134775000Y-88932447I0J292553D01*
G01*
G37*
G36*
G01*
X136850000Y-88932447D02*
X136850000Y-87867553D01*
G75*
G02*
X137142553Y-87575000I292553J0D01*
G01*
X137932447Y-87575000D01*
G75*
G02*
X138225000Y-87867553I0J-292553D01*
G01*
X138225000Y-88932447D01*
G75*
G02*
X137932447Y-89225000I-292553J0D01*
G01*
X137142553Y-89225000D01*
G75*
G02*
X136850000Y-88932447I0J292553D01*
G01*
G37*
%TD*%
%TO.C,C20*%
G36*
G01*
X143032447Y-96125000D02*
X141967553Y-96125000D01*
G75*
G02*
X141675000Y-95832447I0J292553D01*
G01*
X141675000Y-95042553D01*
G75*
G02*
X141967553Y-94750000I292553J0D01*
G01*
X143032447Y-94750000D01*
G75*
G02*
X143325000Y-95042553I0J-292553D01*
G01*
X143325000Y-95832447D01*
G75*
G02*
X143032447Y-96125000I-292553J0D01*
G01*
G37*
G36*
G01*
X143032447Y-94050000D02*
X141967553Y-94050000D01*
G75*
G02*
X141675000Y-93757447I0J292553D01*
G01*
X141675000Y-92967553D01*
G75*
G02*
X141967553Y-92675000I292553J0D01*
G01*
X143032447Y-92675000D01*
G75*
G02*
X143325000Y-92967553I0J-292553D01*
G01*
X143325000Y-93757447D01*
G75*
G02*
X143032447Y-94050000I-292553J0D01*
G01*
G37*
%TD*%
%TO.C,C21*%
G36*
G01*
X141032447Y-94050000D02*
X139967553Y-94050000D01*
G75*
G02*
X139675000Y-93757447I0J292553D01*
G01*
X139675000Y-92967553D01*
G75*
G02*
X139967553Y-92675000I292553J0D01*
G01*
X141032447Y-92675000D01*
G75*
G02*
X141325000Y-92967553I0J-292553D01*
G01*
X141325000Y-93757447D01*
G75*
G02*
X141032447Y-94050000I-292553J0D01*
G01*
G37*
G36*
G01*
X141032447Y-96125000D02*
X139967553Y-96125000D01*
G75*
G02*
X139675000Y-95832447I0J292553D01*
G01*
X139675000Y-95042553D01*
G75*
G02*
X139967553Y-94750000I292553J0D01*
G01*
X141032447Y-94750000D01*
G75*
G02*
X141325000Y-95042553I0J-292553D01*
G01*
X141325000Y-95832447D01*
G75*
G02*
X141032447Y-96125000I-292553J0D01*
G01*
G37*
%TD*%
%TO.C,C22*%
G36*
G01*
X143032447Y-92125000D02*
X141967553Y-92125000D01*
G75*
G02*
X141675000Y-91832447I0J292553D01*
G01*
X141675000Y-91042553D01*
G75*
G02*
X141967553Y-90750000I292553J0D01*
G01*
X143032447Y-90750000D01*
G75*
G02*
X143325000Y-91042553I0J-292553D01*
G01*
X143325000Y-91832447D01*
G75*
G02*
X143032447Y-92125000I-292553J0D01*
G01*
G37*
G36*
G01*
X143032447Y-90050000D02*
X141967553Y-90050000D01*
G75*
G02*
X141675000Y-89757447I0J292553D01*
G01*
X141675000Y-88967553D01*
G75*
G02*
X141967553Y-88675000I292553J0D01*
G01*
X143032447Y-88675000D01*
G75*
G02*
X143325000Y-88967553I0J-292553D01*
G01*
X143325000Y-89757447D01*
G75*
G02*
X143032447Y-90050000I-292553J0D01*
G01*
G37*
%TD*%
%TO.C,C23*%
G36*
G01*
X141032447Y-90050000D02*
X139967553Y-90050000D01*
G75*
G02*
X139675000Y-89757447I0J292553D01*
G01*
X139675000Y-88967553D01*
G75*
G02*
X139967553Y-88675000I292553J0D01*
G01*
X141032447Y-88675000D01*
G75*
G02*
X141325000Y-88967553I0J-292553D01*
G01*
X141325000Y-89757447D01*
G75*
G02*
X141032447Y-90050000I-292553J0D01*
G01*
G37*
G36*
G01*
X141032447Y-92125000D02*
X139967553Y-92125000D01*
G75*
G02*
X139675000Y-91832447I0J292553D01*
G01*
X139675000Y-91042553D01*
G75*
G02*
X139967553Y-90750000I292553J0D01*
G01*
X141032447Y-90750000D01*
G75*
G02*
X141325000Y-91042553I0J-292553D01*
G01*
X141325000Y-91832447D01*
G75*
G02*
X141032447Y-92125000I-292553J0D01*
G01*
G37*
%TD*%
%TO.C,C24*%
G36*
G01*
X129775000Y-101932447D02*
X129775000Y-100867553D01*
G75*
G02*
X130067553Y-100575000I292553J0D01*
G01*
X130857447Y-100575000D01*
G75*
G02*
X131150000Y-100867553I0J-292553D01*
G01*
X131150000Y-101932447D01*
G75*
G02*
X130857447Y-102225000I-292553J0D01*
G01*
X130067553Y-102225000D01*
G75*
G02*
X129775000Y-101932447I0J292553D01*
G01*
G37*
G36*
G01*
X131850000Y-101932447D02*
X131850000Y-100867553D01*
G75*
G02*
X132142553Y-100575000I292553J0D01*
G01*
X132932447Y-100575000D01*
G75*
G02*
X133225000Y-100867553I0J-292553D01*
G01*
X133225000Y-101932447D01*
G75*
G02*
X132932447Y-102225000I-292553J0D01*
G01*
X132142553Y-102225000D01*
G75*
G02*
X131850000Y-101932447I0J292553D01*
G01*
G37*
%TD*%
%TO.C,C25*%
G36*
G01*
X131850000Y-99932447D02*
X131850000Y-98867553D01*
G75*
G02*
X132142553Y-98575000I292553J0D01*
G01*
X132932447Y-98575000D01*
G75*
G02*
X133225000Y-98867553I0J-292553D01*
G01*
X133225000Y-99932447D01*
G75*
G02*
X132932447Y-100225000I-292553J0D01*
G01*
X132142553Y-100225000D01*
G75*
G02*
X131850000Y-99932447I0J292553D01*
G01*
G37*
G36*
G01*
X129775000Y-99932447D02*
X129775000Y-98867553D01*
G75*
G02*
X130067553Y-98575000I292553J0D01*
G01*
X130857447Y-98575000D01*
G75*
G02*
X131150000Y-98867553I0J-292553D01*
G01*
X131150000Y-99932447D01*
G75*
G02*
X130857447Y-100225000I-292553J0D01*
G01*
X130067553Y-100225000D01*
G75*
G02*
X129775000Y-99932447I0J292553D01*
G01*
G37*
%TD*%
%TO.C,C28*%
G36*
G01*
X136850000Y-101932447D02*
X136850000Y-100867553D01*
G75*
G02*
X137142553Y-100575000I292553J0D01*
G01*
X137932447Y-100575000D01*
G75*
G02*
X138225000Y-100867553I0J-292553D01*
G01*
X138225000Y-101932447D01*
G75*
G02*
X137932447Y-102225000I-292553J0D01*
G01*
X137142553Y-102225000D01*
G75*
G02*
X136850000Y-101932447I0J292553D01*
G01*
G37*
G36*
G01*
X134775000Y-101932447D02*
X134775000Y-100867553D01*
G75*
G02*
X135067553Y-100575000I292553J0D01*
G01*
X135857447Y-100575000D01*
G75*
G02*
X136150000Y-100867553I0J-292553D01*
G01*
X136150000Y-101932447D01*
G75*
G02*
X135857447Y-102225000I-292553J0D01*
G01*
X135067553Y-102225000D01*
G75*
G02*
X134775000Y-101932447I0J292553D01*
G01*
G37*
%TD*%
%TO.C,C29*%
G36*
G01*
X136850000Y-99932447D02*
X136850000Y-98867553D01*
G75*
G02*
X137142553Y-98575000I292553J0D01*
G01*
X137932447Y-98575000D01*
G75*
G02*
X138225000Y-98867553I0J-292553D01*
G01*
X138225000Y-99932447D01*
G75*
G02*
X137932447Y-100225000I-292553J0D01*
G01*
X137142553Y-100225000D01*
G75*
G02*
X136850000Y-99932447I0J292553D01*
G01*
G37*
G36*
G01*
X134775000Y-99932447D02*
X134775000Y-98867553D01*
G75*
G02*
X135067553Y-98575000I292553J0D01*
G01*
X135857447Y-98575000D01*
G75*
G02*
X136150000Y-98867553I0J-292553D01*
G01*
X136150000Y-99932447D01*
G75*
G02*
X135857447Y-100225000I-292553J0D01*
G01*
X135067553Y-100225000D01*
G75*
G02*
X134775000Y-99932447I0J292553D01*
G01*
G37*
%TD*%
%TO.C,C31*%
G36*
G01*
X137775000Y-82932447D02*
X137775000Y-81867553D01*
G75*
G02*
X138067553Y-81575000I292553J0D01*
G01*
X138857447Y-81575000D01*
G75*
G02*
X139150000Y-81867553I0J-292553D01*
G01*
X139150000Y-82932447D01*
G75*
G02*
X138857447Y-83225000I-292553J0D01*
G01*
X138067553Y-83225000D01*
G75*
G02*
X137775000Y-82932447I0J292553D01*
G01*
G37*
G36*
G01*
X139850000Y-82932447D02*
X139850000Y-81867553D01*
G75*
G02*
X140142553Y-81575000I292553J0D01*
G01*
X140932447Y-81575000D01*
G75*
G02*
X141225000Y-81867553I0J-292553D01*
G01*
X141225000Y-82932447D01*
G75*
G02*
X140932447Y-83225000I-292553J0D01*
G01*
X140142553Y-83225000D01*
G75*
G02*
X139850000Y-82932447I0J292553D01*
G01*
G37*
%TD*%
%TO.C,C32*%
G36*
G01*
X139850000Y-84932447D02*
X139850000Y-83867553D01*
G75*
G02*
X140142553Y-83575000I292553J0D01*
G01*
X140932447Y-83575000D01*
G75*
G02*
X141225000Y-83867553I0J-292553D01*
G01*
X141225000Y-84932447D01*
G75*
G02*
X140932447Y-85225000I-292553J0D01*
G01*
X140142553Y-85225000D01*
G75*
G02*
X139850000Y-84932447I0J292553D01*
G01*
G37*
G36*
G01*
X137775000Y-84932447D02*
X137775000Y-83867553D01*
G75*
G02*
X138067553Y-83575000I292553J0D01*
G01*
X138857447Y-83575000D01*
G75*
G02*
X139150000Y-83867553I0J-292553D01*
G01*
X139150000Y-84932447D01*
G75*
G02*
X138857447Y-85225000I-292553J0D01*
G01*
X138067553Y-85225000D01*
G75*
G02*
X137775000Y-84932447I0J292553D01*
G01*
G37*
%TD*%
%TO.C,C33*%
G36*
G01*
X124967553Y-97750000D02*
X126032447Y-97750000D01*
G75*
G02*
X126325000Y-98042553I0J-292553D01*
G01*
X126325000Y-98832447D01*
G75*
G02*
X126032447Y-99125000I-292553J0D01*
G01*
X124967553Y-99125000D01*
G75*
G02*
X124675000Y-98832447I0J292553D01*
G01*
X124675000Y-98042553D01*
G75*
G02*
X124967553Y-97750000I292553J0D01*
G01*
G37*
G36*
G01*
X124967553Y-95675000D02*
X126032447Y-95675000D01*
G75*
G02*
X126325000Y-95967553I0J-292553D01*
G01*
X126325000Y-96757447D01*
G75*
G02*
X126032447Y-97050000I-292553J0D01*
G01*
X124967553Y-97050000D01*
G75*
G02*
X124675000Y-96757447I0J292553D01*
G01*
X124675000Y-95967553D01*
G75*
G02*
X124967553Y-95675000I292553J0D01*
G01*
G37*
%TD*%
%TO.C,C34*%
G36*
G01*
X126967553Y-95675000D02*
X128032447Y-95675000D01*
G75*
G02*
X128325000Y-95967553I0J-292553D01*
G01*
X128325000Y-96757447D01*
G75*
G02*
X128032447Y-97050000I-292553J0D01*
G01*
X126967553Y-97050000D01*
G75*
G02*
X126675000Y-96757447I0J292553D01*
G01*
X126675000Y-95967553D01*
G75*
G02*
X126967553Y-95675000I292553J0D01*
G01*
G37*
G36*
G01*
X126967553Y-97750000D02*
X128032447Y-97750000D01*
G75*
G02*
X128325000Y-98042553I0J-292553D01*
G01*
X128325000Y-98832447D01*
G75*
G02*
X128032447Y-99125000I-292553J0D01*
G01*
X126967553Y-99125000D01*
G75*
G02*
X126675000Y-98832447I0J292553D01*
G01*
X126675000Y-98042553D01*
G75*
G02*
X126967553Y-97750000I292553J0D01*
G01*
G37*
%TD*%
D10*
%TO.C,H1*%
X111000000Y-79900000D03*
%TD*%
D11*
%TO.C,J1*%
X128500000Y-85700000D03*
X143000000Y-85700000D03*
D12*
X128500000Y-79740000D03*
X143000000Y-79740000D03*
%TD*%
%TO.C,R3*%
G36*
G01*
X175200000Y-108891665D02*
X175200000Y-109908335D01*
G75*
G02*
X174908335Y-110200000I-291665J0D01*
G01*
X174091665Y-110200000D01*
G75*
G02*
X173800000Y-109908335I0J291665D01*
G01*
X173800000Y-108891665D01*
G75*
G02*
X174091665Y-108600000I291665J0D01*
G01*
X174908335Y-108600000D01*
G75*
G02*
X175200000Y-108891665I0J-291665D01*
G01*
G37*
G36*
G01*
X177200000Y-108891665D02*
X177200000Y-109908335D01*
G75*
G02*
X176908335Y-110200000I-291665J0D01*
G01*
X176091665Y-110200000D01*
G75*
G02*
X175800000Y-109908335I0J291665D01*
G01*
X175800000Y-108891665D01*
G75*
G02*
X176091665Y-108600000I291665J0D01*
G01*
X176908335Y-108600000D01*
G75*
G02*
X177200000Y-108891665I0J-291665D01*
G01*
G37*
%TD*%
%TO.C,R4*%
G36*
G01*
X174200000Y-97891665D02*
X174200000Y-98908335D01*
G75*
G02*
X173908335Y-99200000I-291665J0D01*
G01*
X173091665Y-99200000D01*
G75*
G02*
X172800000Y-98908335I0J291665D01*
G01*
X172800000Y-97891665D01*
G75*
G02*
X173091665Y-97600000I291665J0D01*
G01*
X173908335Y-97600000D01*
G75*
G02*
X174200000Y-97891665I0J-291665D01*
G01*
G37*
G36*
G01*
X172200000Y-97891665D02*
X172200000Y-98908335D01*
G75*
G02*
X171908335Y-99200000I-291665J0D01*
G01*
X171091665Y-99200000D01*
G75*
G02*
X170800000Y-98908335I0J291665D01*
G01*
X170800000Y-97891665D01*
G75*
G02*
X171091665Y-97600000I291665J0D01*
G01*
X171908335Y-97600000D01*
G75*
G02*
X172200000Y-97891665I0J-291665D01*
G01*
G37*
%TD*%
%TO.C,R5*%
G36*
G01*
X170800000Y-109908335D02*
X170800000Y-108891665D01*
G75*
G02*
X171091665Y-108600000I291665J0D01*
G01*
X171908335Y-108600000D01*
G75*
G02*
X172200000Y-108891665I0J-291665D01*
G01*
X172200000Y-109908335D01*
G75*
G02*
X171908335Y-110200000I-291665J0D01*
G01*
X171091665Y-110200000D01*
G75*
G02*
X170800000Y-109908335I0J291665D01*
G01*
G37*
G36*
G01*
X168800000Y-109908335D02*
X168800000Y-108891665D01*
G75*
G02*
X169091665Y-108600000I291665J0D01*
G01*
X169908335Y-108600000D01*
G75*
G02*
X170200000Y-108891665I0J-291665D01*
G01*
X170200000Y-109908335D01*
G75*
G02*
X169908335Y-110200000I-291665J0D01*
G01*
X169091665Y-110200000D01*
G75*
G02*
X168800000Y-109908335I0J291665D01*
G01*
G37*
%TD*%
%TO.C,R6*%
G36*
G01*
X185800000Y-109908335D02*
X185800000Y-108891665D01*
G75*
G02*
X186091665Y-108600000I291665J0D01*
G01*
X186908335Y-108600000D01*
G75*
G02*
X187200000Y-108891665I0J-291665D01*
G01*
X187200000Y-109908335D01*
G75*
G02*
X186908335Y-110200000I-291665J0D01*
G01*
X186091665Y-110200000D01*
G75*
G02*
X185800000Y-109908335I0J291665D01*
G01*
G37*
G36*
G01*
X183800000Y-109908335D02*
X183800000Y-108891665D01*
G75*
G02*
X184091665Y-108600000I291665J0D01*
G01*
X184908335Y-108600000D01*
G75*
G02*
X185200000Y-108891665I0J-291665D01*
G01*
X185200000Y-109908335D01*
G75*
G02*
X184908335Y-110200000I-291665J0D01*
G01*
X184091665Y-110200000D01*
G75*
G02*
X183800000Y-109908335I0J291665D01*
G01*
G37*
%TD*%
%TO.C,R7*%
G36*
G01*
X139175000Y-80112500D02*
X139175000Y-80687500D01*
G75*
G02*
X138887500Y-80975000I-287500J0D01*
G01*
X138287500Y-80975000D01*
G75*
G02*
X138000000Y-80687500I0J287500D01*
G01*
X138000000Y-80112500D01*
G75*
G02*
X138287500Y-79825000I287500J0D01*
G01*
X138887500Y-79825000D01*
G75*
G02*
X139175000Y-80112500I0J-287500D01*
G01*
G37*
G36*
G01*
X141000000Y-80112500D02*
X141000000Y-80687500D01*
G75*
G02*
X140712500Y-80975000I-287500J0D01*
G01*
X140112500Y-80975000D01*
G75*
G02*
X139825000Y-80687500I0J287500D01*
G01*
X139825000Y-80112500D01*
G75*
G02*
X140112500Y-79825000I287500J0D01*
G01*
X140712500Y-79825000D01*
G75*
G02*
X141000000Y-80112500I0J-287500D01*
G01*
G37*
%TD*%
%TO.C,R8*%
G36*
G01*
X130000000Y-80687500D02*
X130000000Y-80112500D01*
G75*
G02*
X130287500Y-79825000I287500J0D01*
G01*
X130887500Y-79825000D01*
G75*
G02*
X131175000Y-80112500I0J-287500D01*
G01*
X131175000Y-80687500D01*
G75*
G02*
X130887500Y-80975000I-287500J0D01*
G01*
X130287500Y-80975000D01*
G75*
G02*
X130000000Y-80687500I0J287500D01*
G01*
G37*
G36*
G01*
X131825000Y-80687500D02*
X131825000Y-80112500D01*
G75*
G02*
X132112500Y-79825000I287500J0D01*
G01*
X132712500Y-79825000D01*
G75*
G02*
X133000000Y-80112500I0J-287500D01*
G01*
X133000000Y-80687500D01*
G75*
G02*
X132712500Y-80975000I-287500J0D01*
G01*
X132112500Y-80975000D01*
G75*
G02*
X131825000Y-80687500I0J287500D01*
G01*
G37*
%TD*%
%TO.C,R9*%
G36*
G01*
X183800000Y-98908335D02*
X183800000Y-97891665D01*
G75*
G02*
X184091665Y-97600000I291665J0D01*
G01*
X184908335Y-97600000D01*
G75*
G02*
X185200000Y-97891665I0J-291665D01*
G01*
X185200000Y-98908335D01*
G75*
G02*
X184908335Y-99200000I-291665J0D01*
G01*
X184091665Y-99200000D01*
G75*
G02*
X183800000Y-98908335I0J291665D01*
G01*
G37*
G36*
G01*
X185800000Y-98908335D02*
X185800000Y-97891665D01*
G75*
G02*
X186091665Y-97600000I291665J0D01*
G01*
X186908335Y-97600000D01*
G75*
G02*
X187200000Y-97891665I0J-291665D01*
G01*
X187200000Y-98908335D01*
G75*
G02*
X186908335Y-99200000I-291665J0D01*
G01*
X186091665Y-99200000D01*
G75*
G02*
X185800000Y-98908335I0J291665D01*
G01*
G37*
%TD*%
%TO.C,R10*%
G36*
G01*
X135991665Y-80700000D02*
X137008335Y-80700000D01*
G75*
G02*
X137300000Y-80991665I0J-291665D01*
G01*
X137300000Y-81808335D01*
G75*
G02*
X137008335Y-82100000I-291665J0D01*
G01*
X135991665Y-82100000D01*
G75*
G02*
X135700000Y-81808335I0J291665D01*
G01*
X135700000Y-80991665D01*
G75*
G02*
X135991665Y-80700000I291665J0D01*
G01*
G37*
G36*
G01*
X135991665Y-82700000D02*
X137008335Y-82700000D01*
G75*
G02*
X137300000Y-82991665I0J-291665D01*
G01*
X137300000Y-83808335D01*
G75*
G02*
X137008335Y-84100000I-291665J0D01*
G01*
X135991665Y-84100000D01*
G75*
G02*
X135700000Y-83808335I0J291665D01*
G01*
X135700000Y-82991665D01*
G75*
G02*
X135991665Y-82700000I291665J0D01*
G01*
G37*
%TD*%
%TO.C,R11*%
G36*
G01*
X191200000Y-108891665D02*
X191200000Y-109908335D01*
G75*
G02*
X190908335Y-110200000I-291665J0D01*
G01*
X190091665Y-110200000D01*
G75*
G02*
X189800000Y-109908335I0J291665D01*
G01*
X189800000Y-108891665D01*
G75*
G02*
X190091665Y-108600000I291665J0D01*
G01*
X190908335Y-108600000D01*
G75*
G02*
X191200000Y-108891665I0J-291665D01*
G01*
G37*
G36*
G01*
X189200000Y-108891665D02*
X189200000Y-109908335D01*
G75*
G02*
X188908335Y-110200000I-291665J0D01*
G01*
X188091665Y-110200000D01*
G75*
G02*
X187800000Y-109908335I0J291665D01*
G01*
X187800000Y-108891665D01*
G75*
G02*
X188091665Y-108600000I291665J0D01*
G01*
X188908335Y-108600000D01*
G75*
G02*
X189200000Y-108891665I0J-291665D01*
G01*
G37*
%TD*%
%TO.C,R12*%
G36*
G01*
X185800000Y-96908335D02*
X185800000Y-95891665D01*
G75*
G02*
X186091665Y-95600000I291665J0D01*
G01*
X186908335Y-95600000D01*
G75*
G02*
X187200000Y-95891665I0J-291665D01*
G01*
X187200000Y-96908335D01*
G75*
G02*
X186908335Y-97200000I-291665J0D01*
G01*
X186091665Y-97200000D01*
G75*
G02*
X185800000Y-96908335I0J291665D01*
G01*
G37*
G36*
G01*
X183800000Y-96908335D02*
X183800000Y-95891665D01*
G75*
G02*
X184091665Y-95600000I291665J0D01*
G01*
X184908335Y-95600000D01*
G75*
G02*
X185200000Y-95891665I0J-291665D01*
G01*
X185200000Y-96908335D01*
G75*
G02*
X184908335Y-97200000I-291665J0D01*
G01*
X184091665Y-97200000D01*
G75*
G02*
X183800000Y-96908335I0J291665D01*
G01*
G37*
%TD*%
%TO.C,R13*%
G36*
G01*
X133991665Y-82700000D02*
X135008335Y-82700000D01*
G75*
G02*
X135300000Y-82991665I0J-291665D01*
G01*
X135300000Y-83808335D01*
G75*
G02*
X135008335Y-84100000I-291665J0D01*
G01*
X133991665Y-84100000D01*
G75*
G02*
X133700000Y-83808335I0J291665D01*
G01*
X133700000Y-82991665D01*
G75*
G02*
X133991665Y-82700000I291665J0D01*
G01*
G37*
G36*
G01*
X133991665Y-80700000D02*
X135008335Y-80700000D01*
G75*
G02*
X135300000Y-80991665I0J-291665D01*
G01*
X135300000Y-81808335D01*
G75*
G02*
X135008335Y-82100000I-291665J0D01*
G01*
X133991665Y-82100000D01*
G75*
G02*
X133700000Y-81808335I0J291665D01*
G01*
X133700000Y-80991665D01*
G75*
G02*
X133991665Y-80700000I291665J0D01*
G01*
G37*
%TD*%
D10*
%TO.C,H2*%
X111000000Y-103900000D03*
%TD*%
%TO.C,H3*%
X170050000Y-95400000D03*
%TD*%
%TO.C,H4*%
X170050000Y-80100000D03*
%TD*%
%TO.C,J2*%
G36*
G01*
X189840000Y-108000000D02*
X188840000Y-108000000D01*
G75*
G02*
X188740000Y-107900000I0J100000D01*
G01*
X188740000Y-104750000D01*
G75*
G02*
X188840000Y-104650000I100000J0D01*
G01*
X189840000Y-104650000D01*
G75*
G02*
X189940000Y-104750000I0J-100000D01*
G01*
X189940000Y-107900000D01*
G75*
G02*
X189840000Y-108000000I-100000J0D01*
G01*
G37*
G36*
G01*
X189840000Y-102950000D02*
X188840000Y-102950000D01*
G75*
G02*
X188740000Y-102850000I0J100000D01*
G01*
X188740000Y-99700000D01*
G75*
G02*
X188840000Y-99600000I100000J0D01*
G01*
X189840000Y-99600000D01*
G75*
G02*
X189940000Y-99700000I0J-100000D01*
G01*
X189940000Y-102850000D01*
G75*
G02*
X189840000Y-102950000I-100000J0D01*
G01*
G37*
G36*
G01*
X187300000Y-108000000D02*
X186300000Y-108000000D01*
G75*
G02*
X186200000Y-107900000I0J100000D01*
G01*
X186200000Y-104750000D01*
G75*
G02*
X186300000Y-104650000I100000J0D01*
G01*
X187300000Y-104650000D01*
G75*
G02*
X187400000Y-104750000I0J-100000D01*
G01*
X187400000Y-107900000D01*
G75*
G02*
X187300000Y-108000000I-100000J0D01*
G01*
G37*
G36*
G01*
X187300000Y-102950000D02*
X186300000Y-102950000D01*
G75*
G02*
X186200000Y-102850000I0J100000D01*
G01*
X186200000Y-99700000D01*
G75*
G02*
X186300000Y-99600000I100000J0D01*
G01*
X187300000Y-99600000D01*
G75*
G02*
X187400000Y-99700000I0J-100000D01*
G01*
X187400000Y-102850000D01*
G75*
G02*
X187300000Y-102950000I-100000J0D01*
G01*
G37*
G36*
G01*
X184760000Y-108000000D02*
X183760000Y-108000000D01*
G75*
G02*
X183660000Y-107900000I0J100000D01*
G01*
X183660000Y-104750000D01*
G75*
G02*
X183760000Y-104650000I100000J0D01*
G01*
X184760000Y-104650000D01*
G75*
G02*
X184860000Y-104750000I0J-100000D01*
G01*
X184860000Y-107900000D01*
G75*
G02*
X184760000Y-108000000I-100000J0D01*
G01*
G37*
G36*
G01*
X184760000Y-102950000D02*
X183760000Y-102950000D01*
G75*
G02*
X183660000Y-102850000I0J100000D01*
G01*
X183660000Y-99700000D01*
G75*
G02*
X183760000Y-99600000I100000J0D01*
G01*
X184760000Y-99600000D01*
G75*
G02*
X184860000Y-99700000I0J-100000D01*
G01*
X184860000Y-102850000D01*
G75*
G02*
X184760000Y-102950000I-100000J0D01*
G01*
G37*
G36*
G01*
X182220000Y-108000000D02*
X181220000Y-108000000D01*
G75*
G02*
X181120000Y-107900000I0J100000D01*
G01*
X181120000Y-104750000D01*
G75*
G02*
X181220000Y-104650000I100000J0D01*
G01*
X182220000Y-104650000D01*
G75*
G02*
X182320000Y-104750000I0J-100000D01*
G01*
X182320000Y-107900000D01*
G75*
G02*
X182220000Y-108000000I-100000J0D01*
G01*
G37*
G36*
G01*
X182220000Y-102950000D02*
X181220000Y-102950000D01*
G75*
G02*
X181120000Y-102850000I0J100000D01*
G01*
X181120000Y-99700000D01*
G75*
G02*
X181220000Y-99600000I100000J0D01*
G01*
X182220000Y-99600000D01*
G75*
G02*
X182320000Y-99700000I0J-100000D01*
G01*
X182320000Y-102850000D01*
G75*
G02*
X182220000Y-102950000I-100000J0D01*
G01*
G37*
G36*
G01*
X179680000Y-108000000D02*
X178680000Y-108000000D01*
G75*
G02*
X178580000Y-107900000I0J100000D01*
G01*
X178580000Y-104750000D01*
G75*
G02*
X178680000Y-104650000I100000J0D01*
G01*
X179680000Y-104650000D01*
G75*
G02*
X179780000Y-104750000I0J-100000D01*
G01*
X179780000Y-107900000D01*
G75*
G02*
X179680000Y-108000000I-100000J0D01*
G01*
G37*
G36*
G01*
X179680000Y-102950000D02*
X178680000Y-102950000D01*
G75*
G02*
X178580000Y-102850000I0J100000D01*
G01*
X178580000Y-99700000D01*
G75*
G02*
X178680000Y-99600000I100000J0D01*
G01*
X179680000Y-99600000D01*
G75*
G02*
X179780000Y-99700000I0J-100000D01*
G01*
X179780000Y-102850000D01*
G75*
G02*
X179680000Y-102950000I-100000J0D01*
G01*
G37*
G36*
G01*
X177140000Y-108000000D02*
X176140000Y-108000000D01*
G75*
G02*
X176040000Y-107900000I0J100000D01*
G01*
X176040000Y-104750000D01*
G75*
G02*
X176140000Y-104650000I100000J0D01*
G01*
X177140000Y-104650000D01*
G75*
G02*
X177240000Y-104750000I0J-100000D01*
G01*
X177240000Y-107900000D01*
G75*
G02*
X177140000Y-108000000I-100000J0D01*
G01*
G37*
G36*
G01*
X177140000Y-102950000D02*
X176140000Y-102950000D01*
G75*
G02*
X176040000Y-102850000I0J100000D01*
G01*
X176040000Y-99700000D01*
G75*
G02*
X176140000Y-99600000I100000J0D01*
G01*
X177140000Y-99600000D01*
G75*
G02*
X177240000Y-99700000I0J-100000D01*
G01*
X177240000Y-102850000D01*
G75*
G02*
X177140000Y-102950000I-100000J0D01*
G01*
G37*
G36*
G01*
X174600000Y-108000000D02*
X173600000Y-108000000D01*
G75*
G02*
X173500000Y-107900000I0J100000D01*
G01*
X173500000Y-104750000D01*
G75*
G02*
X173600000Y-104650000I100000J0D01*
G01*
X174600000Y-104650000D01*
G75*
G02*
X174700000Y-104750000I0J-100000D01*
G01*
X174700000Y-107900000D01*
G75*
G02*
X174600000Y-108000000I-100000J0D01*
G01*
G37*
G36*
G01*
X174600000Y-102950000D02*
X173600000Y-102950000D01*
G75*
G02*
X173500000Y-102850000I0J100000D01*
G01*
X173500000Y-99700000D01*
G75*
G02*
X173600000Y-99600000I100000J0D01*
G01*
X174600000Y-99600000D01*
G75*
G02*
X174700000Y-99700000I0J-100000D01*
G01*
X174700000Y-102850000D01*
G75*
G02*
X174600000Y-102950000I-100000J0D01*
G01*
G37*
G36*
G01*
X172060000Y-108000000D02*
X171060000Y-108000000D01*
G75*
G02*
X170960000Y-107900000I0J100000D01*
G01*
X170960000Y-104750000D01*
G75*
G02*
X171060000Y-104650000I100000J0D01*
G01*
X172060000Y-104650000D01*
G75*
G02*
X172160000Y-104750000I0J-100000D01*
G01*
X172160000Y-107900000D01*
G75*
G02*
X172060000Y-108000000I-100000J0D01*
G01*
G37*
G36*
G01*
X172060000Y-102950000D02*
X171060000Y-102950000D01*
G75*
G02*
X170960000Y-102850000I0J100000D01*
G01*
X170960000Y-99700000D01*
G75*
G02*
X171060000Y-99600000I100000J0D01*
G01*
X172060000Y-99600000D01*
G75*
G02*
X172160000Y-99700000I0J-100000D01*
G01*
X172160000Y-102850000D01*
G75*
G02*
X172060000Y-102950000I-100000J0D01*
G01*
G37*
%TD*%
M02*
