%TF.GenerationSoftware,KiCad,Pcbnew,5.1.9+dfsg1-1+deb11u1*%
%TF.CreationDate,2025-10-17T13:47:22+02:00*%
%TF.ProjectId,VERA-XE-HDMI-Expansion,56455241-2d58-4452-9d48-444d492d4578,rev?*%
%TF.SameCoordinates,Original*%
%TF.FileFunction,Legend,Bot*%
%TF.FilePolarity,Positive*%
%FSLAX46Y46*%
G04 Gerber Fmt 4.6, Leading zero omitted, Abs format (unit mm)*
G04 Created by KiCad (PCBNEW 5.1.9+dfsg1-1+deb11u1) date 2025-10-17 13:47:22*
%MOMM*%
%LPD*%
G01*
G04 APERTURE LIST*
%ADD10C,0.150000*%
%ADD11C,0.120000*%
%ADD12C,0.010000*%
G04 APERTURE END LIST*
D10*
X226420952Y-31258571D02*
X226754285Y-31258571D01*
X226754285Y-31782380D02*
X226754285Y-30782380D01*
X226278095Y-30782380D01*
X225897142Y-31782380D02*
X225897142Y-31115714D01*
X225897142Y-31306190D02*
X225849523Y-31210952D01*
X225801904Y-31163333D01*
X225706666Y-31115714D01*
X225611428Y-31115714D01*
X225135238Y-31782380D02*
X225230476Y-31734761D01*
X225278095Y-31687142D01*
X225325714Y-31591904D01*
X225325714Y-31306190D01*
X225278095Y-31210952D01*
X225230476Y-31163333D01*
X225135238Y-31115714D01*
X224992380Y-31115714D01*
X224897142Y-31163333D01*
X224849523Y-31210952D01*
X224801904Y-31306190D01*
X224801904Y-31591904D01*
X224849523Y-31687142D01*
X224897142Y-31734761D01*
X224992380Y-31782380D01*
X225135238Y-31782380D01*
X224373333Y-31782380D02*
X224373333Y-31115714D01*
X224373333Y-31210952D02*
X224325714Y-31163333D01*
X224230476Y-31115714D01*
X224087619Y-31115714D01*
X223992380Y-31163333D01*
X223944761Y-31258571D01*
X223944761Y-31782380D01*
X223944761Y-31258571D02*
X223897142Y-31163333D01*
X223801904Y-31115714D01*
X223659047Y-31115714D01*
X223563809Y-31163333D01*
X223516190Y-31258571D01*
X223516190Y-31782380D01*
X222420952Y-30782380D02*
X221849523Y-30782380D01*
X222135238Y-31782380D02*
X222135238Y-30782380D01*
X221516190Y-31782380D02*
X221516190Y-30782380D01*
X221087619Y-31782380D02*
X221087619Y-31258571D01*
X221135238Y-31163333D01*
X221230476Y-31115714D01*
X221373333Y-31115714D01*
X221468571Y-31163333D01*
X221516190Y-31210952D01*
X220230476Y-31734761D02*
X220325714Y-31782380D01*
X220516190Y-31782380D01*
X220611428Y-31734761D01*
X220659047Y-31639523D01*
X220659047Y-31258571D01*
X220611428Y-31163333D01*
X220516190Y-31115714D01*
X220325714Y-31115714D01*
X220230476Y-31163333D01*
X220182857Y-31258571D01*
X220182857Y-31353809D01*
X220659047Y-31449047D01*
X218849523Y-31210952D02*
X218944761Y-31163333D01*
X218992380Y-31115714D01*
X219040000Y-31020476D01*
X219040000Y-30972857D01*
X218992380Y-30877619D01*
X218944761Y-30830000D01*
X218849523Y-30782380D01*
X218659047Y-30782380D01*
X218563809Y-30830000D01*
X218516190Y-30877619D01*
X218468571Y-30972857D01*
X218468571Y-31020476D01*
X218516190Y-31115714D01*
X218563809Y-31163333D01*
X218659047Y-31210952D01*
X218849523Y-31210952D01*
X218944761Y-31258571D01*
X218992380Y-31306190D01*
X219040000Y-31401428D01*
X219040000Y-31591904D01*
X218992380Y-31687142D01*
X218944761Y-31734761D01*
X218849523Y-31782380D01*
X218659047Y-31782380D01*
X218563809Y-31734761D01*
X218516190Y-31687142D01*
X218468571Y-31591904D01*
X218468571Y-31401428D01*
X218516190Y-31306190D01*
X218563809Y-31258571D01*
X218659047Y-31210952D01*
X217706666Y-31258571D02*
X217563809Y-31306190D01*
X217516190Y-31353809D01*
X217468571Y-31449047D01*
X217468571Y-31591904D01*
X217516190Y-31687142D01*
X217563809Y-31734761D01*
X217659047Y-31782380D01*
X218040000Y-31782380D01*
X218040000Y-30782380D01*
X217706666Y-30782380D01*
X217611428Y-30830000D01*
X217563809Y-30877619D01*
X217516190Y-30972857D01*
X217516190Y-31068095D01*
X217563809Y-31163333D01*
X217611428Y-31210952D01*
X217706666Y-31258571D01*
X218040000Y-31258571D01*
X217040000Y-31782380D02*
X217040000Y-31115714D01*
X217040000Y-30782380D02*
X217087619Y-30830000D01*
X217040000Y-30877619D01*
X216992380Y-30830000D01*
X217040000Y-30782380D01*
X217040000Y-30877619D01*
X216706666Y-31115714D02*
X216325714Y-31115714D01*
X216563809Y-30782380D02*
X216563809Y-31639523D01*
X216516190Y-31734761D01*
X216420952Y-31782380D01*
X216325714Y-31782380D01*
X214706666Y-30830000D02*
X214801904Y-30782380D01*
X214944761Y-30782380D01*
X215087619Y-30830000D01*
X215182857Y-30925238D01*
X215230476Y-31020476D01*
X215278095Y-31210952D01*
X215278095Y-31353809D01*
X215230476Y-31544285D01*
X215182857Y-31639523D01*
X215087619Y-31734761D01*
X214944761Y-31782380D01*
X214849523Y-31782380D01*
X214706666Y-31734761D01*
X214659047Y-31687142D01*
X214659047Y-31353809D01*
X214849523Y-31353809D01*
X213801904Y-31115714D02*
X213801904Y-31782380D01*
X214230476Y-31115714D02*
X214230476Y-31639523D01*
X214182857Y-31734761D01*
X214087619Y-31782380D01*
X213944761Y-31782380D01*
X213849523Y-31734761D01*
X213801904Y-31687142D01*
X213420952Y-31115714D02*
X213182857Y-31782380D01*
X212944761Y-31115714D02*
X213182857Y-31782380D01*
X213278095Y-32020476D01*
X213325714Y-32068095D01*
X213420952Y-32115714D01*
X211373333Y-31734761D02*
X211468571Y-31782380D01*
X211659047Y-31782380D01*
X211754285Y-31734761D01*
X211801904Y-31687142D01*
X211849523Y-31591904D01*
X211849523Y-31306190D01*
X211801904Y-31210952D01*
X211754285Y-31163333D01*
X211659047Y-31115714D01*
X211468571Y-31115714D01*
X211373333Y-31163333D01*
X210801904Y-31782380D02*
X210897142Y-31734761D01*
X210944761Y-31687142D01*
X210992380Y-31591904D01*
X210992380Y-31306190D01*
X210944761Y-31210952D01*
X210897142Y-31163333D01*
X210801904Y-31115714D01*
X210659047Y-31115714D01*
X210563809Y-31163333D01*
X210516190Y-31210952D01*
X210468571Y-31306190D01*
X210468571Y-31591904D01*
X210516190Y-31687142D01*
X210563809Y-31734761D01*
X210659047Y-31782380D01*
X210801904Y-31782380D01*
X210040000Y-31782380D02*
X210040000Y-31115714D01*
X210040000Y-31210952D02*
X209992380Y-31163333D01*
X209897142Y-31115714D01*
X209754285Y-31115714D01*
X209659047Y-31163333D01*
X209611428Y-31258571D01*
X209611428Y-31782380D01*
X209611428Y-31258571D02*
X209563809Y-31163333D01*
X209468571Y-31115714D01*
X209325714Y-31115714D01*
X209230476Y-31163333D01*
X209182857Y-31258571D01*
X209182857Y-31782380D01*
X208706666Y-31115714D02*
X208706666Y-32115714D01*
X208706666Y-31163333D02*
X208611428Y-31115714D01*
X208420952Y-31115714D01*
X208325714Y-31163333D01*
X208278095Y-31210952D01*
X208230476Y-31306190D01*
X208230476Y-31591904D01*
X208278095Y-31687142D01*
X208325714Y-31734761D01*
X208420952Y-31782380D01*
X208611428Y-31782380D01*
X208706666Y-31734761D01*
X207373333Y-31115714D02*
X207373333Y-31782380D01*
X207801904Y-31115714D02*
X207801904Y-31639523D01*
X207754285Y-31734761D01*
X207659047Y-31782380D01*
X207516190Y-31782380D01*
X207420952Y-31734761D01*
X207373333Y-31687142D01*
X207040000Y-31115714D02*
X206659047Y-31115714D01*
X206897142Y-30782380D02*
X206897142Y-31639523D01*
X206849523Y-31734761D01*
X206754285Y-31782380D01*
X206659047Y-31782380D01*
X205944761Y-31734761D02*
X206040000Y-31782380D01*
X206230476Y-31782380D01*
X206325714Y-31734761D01*
X206373333Y-31639523D01*
X206373333Y-31258571D01*
X206325714Y-31163333D01*
X206230476Y-31115714D01*
X206040000Y-31115714D01*
X205944761Y-31163333D01*
X205897142Y-31258571D01*
X205897142Y-31353809D01*
X206373333Y-31449047D01*
X205468571Y-31782380D02*
X205468571Y-31115714D01*
X205468571Y-31306190D02*
X205420952Y-31210952D01*
X205373333Y-31163333D01*
X205278095Y-31115714D01*
X205182857Y-31115714D01*
D11*
%TO.C,C5*%
X183261252Y-31265000D02*
X182738748Y-31265000D01*
X183261252Y-32735000D02*
X182738748Y-32735000D01*
%TO.C,C6*%
X183261252Y-34735000D02*
X182738748Y-34735000D01*
X183261252Y-33265000D02*
X182738748Y-33265000D01*
%TO.C,C11*%
X187738748Y-32735000D02*
X188261252Y-32735000D01*
X187738748Y-31265000D02*
X188261252Y-31265000D01*
%TO.C,C12*%
X187738748Y-33265000D02*
X188261252Y-33265000D01*
X187738748Y-34735000D02*
X188261252Y-34735000D01*
%TO.C,C20*%
X193265000Y-40261252D02*
X193265000Y-39738748D01*
X194735000Y-40261252D02*
X194735000Y-39738748D01*
%TO.C,C21*%
X192735000Y-40261252D02*
X192735000Y-39738748D01*
X191265000Y-40261252D02*
X191265000Y-39738748D01*
%TO.C,C22*%
X193265000Y-36261252D02*
X193265000Y-35738748D01*
X194735000Y-36261252D02*
X194735000Y-35738748D01*
%TO.C,C23*%
X192735000Y-36261252D02*
X192735000Y-35738748D01*
X191265000Y-36261252D02*
X191265000Y-35738748D01*
%TO.C,C24*%
X182738748Y-46265000D02*
X183261252Y-46265000D01*
X182738748Y-47735000D02*
X183261252Y-47735000D01*
%TO.C,C25*%
X182738748Y-45735000D02*
X183261252Y-45735000D01*
X182738748Y-44265000D02*
X183261252Y-44265000D01*
%TO.C,C28*%
X187738748Y-47735000D02*
X188261252Y-47735000D01*
X187738748Y-46265000D02*
X188261252Y-46265000D01*
%TO.C,C29*%
X187738748Y-45735000D02*
X188261252Y-45735000D01*
X187738748Y-44265000D02*
X188261252Y-44265000D01*
%TO.C,C31*%
X190738748Y-27265000D02*
X191261252Y-27265000D01*
X190738748Y-28735000D02*
X191261252Y-28735000D01*
%TO.C,C32*%
X190738748Y-30735000D02*
X191261252Y-30735000D01*
X190738748Y-29265000D02*
X191261252Y-29265000D01*
%TO.C,C33*%
X176265000Y-42738748D02*
X176265000Y-43261252D01*
X177735000Y-42738748D02*
X177735000Y-43261252D01*
%TO.C,C34*%
X179735000Y-42738748D02*
X179735000Y-43261252D01*
X178265000Y-42738748D02*
X178265000Y-43261252D01*
%TO.C,R3*%
X227227064Y-54265000D02*
X226772936Y-54265000D01*
X227227064Y-55735000D02*
X226772936Y-55735000D01*
%TO.C,R4*%
X224227064Y-44735000D02*
X223772936Y-44735000D01*
X224227064Y-43265000D02*
X223772936Y-43265000D01*
%TO.C,R5*%
X221772936Y-55735000D02*
X222227064Y-55735000D01*
X221772936Y-54265000D02*
X222227064Y-54265000D01*
%TO.C,R6*%
X236772936Y-55735000D02*
X237227064Y-55735000D01*
X236772936Y-54265000D02*
X237227064Y-54265000D01*
%TO.C,R7*%
X191254724Y-25477500D02*
X190745276Y-25477500D01*
X191254724Y-26522500D02*
X190745276Y-26522500D01*
%TO.C,R8*%
X182745276Y-25477500D02*
X183254724Y-25477500D01*
X182745276Y-26522500D02*
X183254724Y-26522500D01*
%TO.C,R9*%
X236772936Y-43265000D02*
X237227064Y-43265000D01*
X236772936Y-44735000D02*
X237227064Y-44735000D01*
%TO.C,R10*%
X188735000Y-27772936D02*
X188735000Y-28227064D01*
X187265000Y-27772936D02*
X187265000Y-28227064D01*
%TO.C,R11*%
X241227064Y-55735000D02*
X240772936Y-55735000D01*
X241227064Y-54265000D02*
X240772936Y-54265000D01*
%TO.C,R12*%
X236772936Y-42735000D02*
X237227064Y-42735000D01*
X236772936Y-41265000D02*
X237227064Y-41265000D01*
%TO.C,R13*%
X185265000Y-27772936D02*
X185265000Y-28227064D01*
X186735000Y-27772936D02*
X186735000Y-28227064D01*
%TO.C,J2*%
X239050000Y-51990000D02*
X240070000Y-51990000D01*
X239050000Y-46790000D02*
X240070000Y-46790000D01*
X236510000Y-51990000D02*
X237530000Y-51990000D01*
X236510000Y-46790000D02*
X237530000Y-46790000D01*
X233970000Y-51990000D02*
X234990000Y-51990000D01*
X233970000Y-46790000D02*
X234990000Y-46790000D01*
X231430000Y-51990000D02*
X232450000Y-51990000D01*
X231430000Y-46790000D02*
X232450000Y-46790000D01*
X228890000Y-51990000D02*
X229910000Y-51990000D01*
X228890000Y-46790000D02*
X229910000Y-46790000D01*
X226350000Y-51990000D02*
X227370000Y-51990000D01*
X226350000Y-46790000D02*
X227370000Y-46790000D01*
X223810000Y-51990000D02*
X224830000Y-51990000D01*
X223810000Y-46790000D02*
X224830000Y-46790000D01*
X241590000Y-51990000D02*
X242160000Y-51990000D01*
X241590000Y-46790000D02*
X242160000Y-46790000D01*
X221720000Y-51990000D02*
X222290000Y-51990000D01*
X221720000Y-46790000D02*
X222290000Y-46790000D01*
X222290000Y-45350000D02*
X222290000Y-46790000D01*
X242160000Y-46790000D02*
X242160000Y-51990000D01*
X221720000Y-46790000D02*
X221720000Y-51990000D01*
D12*
%TO.C,LOGO2*%
G36*
X208115637Y-31806870D02*
G01*
X208060671Y-31848699D01*
X207977373Y-31915531D01*
X207870791Y-32003255D01*
X207745970Y-32107758D01*
X207607959Y-32224928D01*
X207595830Y-32235298D01*
X207432432Y-32374813D01*
X207259675Y-32521853D01*
X207087911Y-32667638D01*
X206927491Y-32803392D01*
X206788766Y-32920336D01*
X206717448Y-32980168D01*
X206368600Y-33272036D01*
X206368600Y-34215145D01*
X206603526Y-34416922D01*
X206716623Y-34514298D01*
X206846103Y-34626174D01*
X206985747Y-34747135D01*
X207129332Y-34871766D01*
X207270637Y-34994653D01*
X207403440Y-35110380D01*
X207521519Y-35213532D01*
X207618654Y-35298696D01*
X207688622Y-35360455D01*
X207721150Y-35389642D01*
X207765545Y-35424866D01*
X207789732Y-35433383D01*
X207791210Y-35429902D01*
X207786319Y-35391774D01*
X207772554Y-35314100D01*
X207751684Y-35205317D01*
X207725476Y-35073866D01*
X207695701Y-34928185D01*
X207664126Y-34776714D01*
X207632522Y-34627892D01*
X207602655Y-34490159D01*
X207576296Y-34371954D01*
X207555214Y-34281715D01*
X207541176Y-34227883D01*
X207536909Y-34216610D01*
X207507419Y-34201628D01*
X207438288Y-34173795D01*
X207338066Y-34136338D01*
X207215301Y-34092482D01*
X207127291Y-34062014D01*
X206736900Y-33928507D01*
X206736900Y-33554642D01*
X207156000Y-33436852D01*
X207299200Y-33396728D01*
X207429590Y-33360420D01*
X207537482Y-33330608D01*
X207613189Y-33309974D01*
X207642431Y-33302279D01*
X207680840Y-33286019D01*
X207709763Y-33252212D01*
X207736446Y-33189241D01*
X207759928Y-33113898D01*
X207781983Y-33038967D01*
X207815686Y-32925106D01*
X207858144Y-32782061D01*
X207906462Y-32619577D01*
X207957748Y-32447398D01*
X207979590Y-32374158D01*
X208027043Y-32212982D01*
X208068360Y-32068553D01*
X208101662Y-31947788D01*
X208125068Y-31857602D01*
X208136698Y-31804914D01*
X208137225Y-31794157D01*
X208115637Y-31806870D01*
G37*
X208115637Y-31806870D02*
X208060671Y-31848699D01*
X207977373Y-31915531D01*
X207870791Y-32003255D01*
X207745970Y-32107758D01*
X207607959Y-32224928D01*
X207595830Y-32235298D01*
X207432432Y-32374813D01*
X207259675Y-32521853D01*
X207087911Y-32667638D01*
X206927491Y-32803392D01*
X206788766Y-32920336D01*
X206717448Y-32980168D01*
X206368600Y-33272036D01*
X206368600Y-34215145D01*
X206603526Y-34416922D01*
X206716623Y-34514298D01*
X206846103Y-34626174D01*
X206985747Y-34747135D01*
X207129332Y-34871766D01*
X207270637Y-34994653D01*
X207403440Y-35110380D01*
X207521519Y-35213532D01*
X207618654Y-35298696D01*
X207688622Y-35360455D01*
X207721150Y-35389642D01*
X207765545Y-35424866D01*
X207789732Y-35433383D01*
X207791210Y-35429902D01*
X207786319Y-35391774D01*
X207772554Y-35314100D01*
X207751684Y-35205317D01*
X207725476Y-35073866D01*
X207695701Y-34928185D01*
X207664126Y-34776714D01*
X207632522Y-34627892D01*
X207602655Y-34490159D01*
X207576296Y-34371954D01*
X207555214Y-34281715D01*
X207541176Y-34227883D01*
X207536909Y-34216610D01*
X207507419Y-34201628D01*
X207438288Y-34173795D01*
X207338066Y-34136338D01*
X207215301Y-34092482D01*
X207127291Y-34062014D01*
X206736900Y-33928507D01*
X206736900Y-33554642D01*
X207156000Y-33436852D01*
X207299200Y-33396728D01*
X207429590Y-33360420D01*
X207537482Y-33330608D01*
X207613189Y-33309974D01*
X207642431Y-33302279D01*
X207680840Y-33286019D01*
X207709763Y-33252212D01*
X207736446Y-33189241D01*
X207759928Y-33113898D01*
X207781983Y-33038967D01*
X207815686Y-32925106D01*
X207858144Y-32782061D01*
X207906462Y-32619577D01*
X207957748Y-32447398D01*
X207979590Y-32374158D01*
X208027043Y-32212982D01*
X208068360Y-32068553D01*
X208101662Y-31947788D01*
X208125068Y-31857602D01*
X208136698Y-31804914D01*
X208137225Y-31794157D01*
X208115637Y-31806870D01*
G36*
X204196344Y-31795961D02*
G01*
X204213810Y-31860661D01*
X204241523Y-31955683D01*
X204276903Y-32071984D01*
X204287441Y-32105879D01*
X204332733Y-32253450D01*
X204385814Y-32430405D01*
X204440882Y-32617178D01*
X204492135Y-32794205D01*
X204505391Y-32840700D01*
X204544941Y-32977377D01*
X204580928Y-33096878D01*
X204610661Y-33190631D01*
X204631446Y-33250068D01*
X204639286Y-33266728D01*
X204668447Y-33279348D01*
X204738819Y-33302963D01*
X204842611Y-33335166D01*
X204972035Y-33373547D01*
X205119300Y-33415697D01*
X205138549Y-33421104D01*
X205619300Y-33555852D01*
X205619300Y-33928465D01*
X205215776Y-34063273D01*
X205081748Y-34108321D01*
X204965720Y-34147839D01*
X204875765Y-34179033D01*
X204819953Y-34199115D01*
X204805367Y-34205190D01*
X204798519Y-34230782D01*
X204783504Y-34297578D01*
X204761989Y-34397447D01*
X204735642Y-34522263D01*
X204706131Y-34663895D01*
X204675124Y-34814216D01*
X204644288Y-34965095D01*
X204615290Y-35108405D01*
X204589799Y-35236016D01*
X204569482Y-35339800D01*
X204556006Y-35411627D01*
X204551039Y-35443370D01*
X204551184Y-35444200D01*
X204570949Y-35428201D01*
X204624887Y-35382638D01*
X204708734Y-35311163D01*
X204818227Y-35217425D01*
X204949102Y-35105077D01*
X205097094Y-34977768D01*
X205257940Y-34839150D01*
X205270576Y-34828250D01*
X205984579Y-34212300D01*
X205984591Y-33742400D01*
X205984604Y-33272500D01*
X205677966Y-33018500D01*
X205576094Y-32933593D01*
X205444226Y-32822893D01*
X205290948Y-32693651D01*
X205124848Y-32553121D01*
X204954511Y-32408555D01*
X204788523Y-32267205D01*
X204784936Y-32264145D01*
X204638621Y-32139698D01*
X204505197Y-32026985D01*
X204389416Y-31929957D01*
X204296029Y-31852569D01*
X204229790Y-31798774D01*
X204195449Y-31772525D01*
X204191709Y-31770624D01*
X204196344Y-31795961D01*
G37*
X204196344Y-31795961D02*
X204213810Y-31860661D01*
X204241523Y-31955683D01*
X204276903Y-32071984D01*
X204287441Y-32105879D01*
X204332733Y-32253450D01*
X204385814Y-32430405D01*
X204440882Y-32617178D01*
X204492135Y-32794205D01*
X204505391Y-32840700D01*
X204544941Y-32977377D01*
X204580928Y-33096878D01*
X204610661Y-33190631D01*
X204631446Y-33250068D01*
X204639286Y-33266728D01*
X204668447Y-33279348D01*
X204738819Y-33302963D01*
X204842611Y-33335166D01*
X204972035Y-33373547D01*
X205119300Y-33415697D01*
X205138549Y-33421104D01*
X205619300Y-33555852D01*
X205619300Y-33928465D01*
X205215776Y-34063273D01*
X205081748Y-34108321D01*
X204965720Y-34147839D01*
X204875765Y-34179033D01*
X204819953Y-34199115D01*
X204805367Y-34205190D01*
X204798519Y-34230782D01*
X204783504Y-34297578D01*
X204761989Y-34397447D01*
X204735642Y-34522263D01*
X204706131Y-34663895D01*
X204675124Y-34814216D01*
X204644288Y-34965095D01*
X204615290Y-35108405D01*
X204589799Y-35236016D01*
X204569482Y-35339800D01*
X204556006Y-35411627D01*
X204551039Y-35443370D01*
X204551184Y-35444200D01*
X204570949Y-35428201D01*
X204624887Y-35382638D01*
X204708734Y-35311163D01*
X204818227Y-35217425D01*
X204949102Y-35105077D01*
X205097094Y-34977768D01*
X205257940Y-34839150D01*
X205270576Y-34828250D01*
X205984579Y-34212300D01*
X205984591Y-33742400D01*
X205984604Y-33272500D01*
X205677966Y-33018500D01*
X205576094Y-32933593D01*
X205444226Y-32822893D01*
X205290948Y-32693651D01*
X205124848Y-32553121D01*
X204954511Y-32408555D01*
X204788523Y-32267205D01*
X204784936Y-32264145D01*
X204638621Y-32139698D01*
X204505197Y-32026985D01*
X204389416Y-31929957D01*
X204296029Y-31852569D01*
X204229790Y-31798774D01*
X204195449Y-31772525D01*
X204191709Y-31770624D01*
X204196344Y-31795961D01*
G36*
X230138549Y-32676244D02*
G01*
X230039305Y-32679586D01*
X229980975Y-32685359D01*
X229977262Y-32686190D01*
X229943762Y-32697205D01*
X229924939Y-32717107D01*
X229917359Y-32757792D01*
X229917593Y-32831155D01*
X229919653Y-32885909D01*
X229927100Y-33069300D01*
X231361140Y-33094700D01*
X231431520Y-33165114D01*
X231460693Y-33196435D01*
X231480765Y-33228308D01*
X231493792Y-33270874D01*
X231501834Y-33334275D01*
X231506947Y-33428654D01*
X231510981Y-33556770D01*
X231512659Y-33737740D01*
X231505213Y-33875987D01*
X231487295Y-33978990D01*
X231457553Y-34054227D01*
X231414639Y-34109179D01*
X231410605Y-34112914D01*
X231391488Y-34127275D01*
X231365455Y-34138717D01*
X231326577Y-34147714D01*
X231268923Y-34154739D01*
X231186563Y-34160264D01*
X231073566Y-34164763D01*
X230924002Y-34168708D01*
X230731940Y-34172573D01*
X230642036Y-34174200D01*
X229927100Y-34186900D01*
X229919638Y-34371050D01*
X229912175Y-34555200D01*
X230681638Y-34553016D01*
X230877263Y-34551842D01*
X231058792Y-34549577D01*
X231219345Y-34546397D01*
X231352045Y-34542481D01*
X231450013Y-34538007D01*
X231506370Y-34533153D01*
X231514765Y-34531467D01*
X231672270Y-34460970D01*
X231792043Y-34357482D01*
X231872513Y-34222538D01*
X231892965Y-34161500D01*
X231906194Y-34082949D01*
X231915409Y-33966676D01*
X231920736Y-33823933D01*
X231922299Y-33665978D01*
X231920227Y-33504066D01*
X231914644Y-33349452D01*
X231905678Y-33213391D01*
X231893454Y-33107139D01*
X231880482Y-33048333D01*
X231815324Y-32927774D01*
X231713233Y-32821941D01*
X231588057Y-32744139D01*
X231546985Y-32727880D01*
X231497170Y-32719080D01*
X231404893Y-32710497D01*
X231278491Y-32702353D01*
X231126302Y-32694870D01*
X230956664Y-32688269D01*
X230777914Y-32682771D01*
X230598390Y-32678598D01*
X230426429Y-32675972D01*
X230270370Y-32675114D01*
X230138549Y-32676244D01*
G37*
X230138549Y-32676244D02*
X230039305Y-32679586D01*
X229980975Y-32685359D01*
X229977262Y-32686190D01*
X229943762Y-32697205D01*
X229924939Y-32717107D01*
X229917359Y-32757792D01*
X229917593Y-32831155D01*
X229919653Y-32885909D01*
X229927100Y-33069300D01*
X231361140Y-33094700D01*
X231431520Y-33165114D01*
X231460693Y-33196435D01*
X231480765Y-33228308D01*
X231493792Y-33270874D01*
X231501834Y-33334275D01*
X231506947Y-33428654D01*
X231510981Y-33556770D01*
X231512659Y-33737740D01*
X231505213Y-33875987D01*
X231487295Y-33978990D01*
X231457553Y-34054227D01*
X231414639Y-34109179D01*
X231410605Y-34112914D01*
X231391488Y-34127275D01*
X231365455Y-34138717D01*
X231326577Y-34147714D01*
X231268923Y-34154739D01*
X231186563Y-34160264D01*
X231073566Y-34164763D01*
X230924002Y-34168708D01*
X230731940Y-34172573D01*
X230642036Y-34174200D01*
X229927100Y-34186900D01*
X229919638Y-34371050D01*
X229912175Y-34555200D01*
X230681638Y-34553016D01*
X230877263Y-34551842D01*
X231058792Y-34549577D01*
X231219345Y-34546397D01*
X231352045Y-34542481D01*
X231450013Y-34538007D01*
X231506370Y-34533153D01*
X231514765Y-34531467D01*
X231672270Y-34460970D01*
X231792043Y-34357482D01*
X231872513Y-34222538D01*
X231892965Y-34161500D01*
X231906194Y-34082949D01*
X231915409Y-33966676D01*
X231920736Y-33823933D01*
X231922299Y-33665978D01*
X231920227Y-33504066D01*
X231914644Y-33349452D01*
X231905678Y-33213391D01*
X231893454Y-33107139D01*
X231880482Y-33048333D01*
X231815324Y-32927774D01*
X231713233Y-32821941D01*
X231588057Y-32744139D01*
X231546985Y-32727880D01*
X231497170Y-32719080D01*
X231404893Y-32710497D01*
X231278491Y-32702353D01*
X231126302Y-32694870D01*
X230956664Y-32688269D01*
X230777914Y-32682771D01*
X230598390Y-32678598D01*
X230426429Y-32675972D01*
X230270370Y-32675114D01*
X230138549Y-32676244D01*
G36*
X228267785Y-32681408D02*
G01*
X228115817Y-32684822D01*
X227990056Y-32691220D01*
X227923632Y-32697472D01*
X227755026Y-32726203D01*
X227627066Y-32768610D01*
X227530248Y-32830260D01*
X227455069Y-32916716D01*
X227408035Y-32999416D01*
X227383149Y-33051449D01*
X227364808Y-33097356D01*
X227352013Y-33145914D01*
X227343766Y-33205899D01*
X227339069Y-33286087D01*
X227336922Y-33395254D01*
X227336328Y-33542178D01*
X227336300Y-33629895D01*
X227336300Y-34114291D01*
X227412569Y-34263423D01*
X227465585Y-34355546D01*
X227519800Y-34416940D01*
X227591902Y-34465260D01*
X227614993Y-34477527D01*
X227652936Y-34496560D01*
X227688553Y-34511496D01*
X227728369Y-34522876D01*
X227778911Y-34531242D01*
X227846705Y-34537132D01*
X227938277Y-34541090D01*
X228060154Y-34543654D01*
X228218862Y-34545366D01*
X228420926Y-34546767D01*
X228453124Y-34546969D01*
X228642606Y-34547426D01*
X228819116Y-34546466D01*
X228975195Y-34544239D01*
X229103385Y-34540894D01*
X229196230Y-34536581D01*
X229246272Y-34531448D01*
X229248016Y-34531052D01*
X229388018Y-34472029D01*
X229507435Y-34374127D01*
X229587473Y-34258425D01*
X229608053Y-34214129D01*
X229623325Y-34171175D01*
X229634080Y-34121307D01*
X229641105Y-34056269D01*
X229645188Y-33967806D01*
X229647117Y-33847660D01*
X229647680Y-33687575D01*
X229647694Y-33643948D01*
X229228600Y-33643948D01*
X229228600Y-34025707D01*
X229154354Y-34099953D01*
X229080108Y-34174200D01*
X228521008Y-34174200D01*
X228353799Y-34173121D01*
X228200608Y-34170104D01*
X228069827Y-34165475D01*
X227969851Y-34159564D01*
X227909074Y-34152695D01*
X227897971Y-34149891D01*
X227845788Y-34122143D01*
X227807474Y-34079684D01*
X227781343Y-34015621D01*
X227765710Y-33923061D01*
X227758890Y-33795111D01*
X227759195Y-33624877D01*
X227759955Y-33585528D01*
X227768100Y-33204479D01*
X227839367Y-33143239D01*
X227863637Y-33123441D01*
X227888912Y-33108448D01*
X227922175Y-33097592D01*
X227970408Y-33090207D01*
X228040595Y-33085623D01*
X228139720Y-33083172D01*
X228274765Y-33082187D01*
X228452714Y-33082000D01*
X228479522Y-33082000D01*
X228691247Y-33083348D01*
X228863787Y-33087301D01*
X228994037Y-33093719D01*
X229078891Y-33102464D01*
X229110304Y-33110200D01*
X229152583Y-33136030D01*
X229183671Y-33174271D01*
X229205190Y-33232231D01*
X229218757Y-33317217D01*
X229225993Y-33436534D01*
X229228516Y-33597489D01*
X229228600Y-33643948D01*
X229647694Y-33643948D01*
X229647700Y-33627473D01*
X229647473Y-33453912D01*
X229646227Y-33322894D01*
X229643118Y-33226165D01*
X229637300Y-33155470D01*
X229627928Y-33102551D01*
X229614158Y-33059155D01*
X229595143Y-33017025D01*
X229582695Y-32992473D01*
X229488561Y-32860425D01*
X229361136Y-32766537D01*
X229256988Y-32724597D01*
X229191027Y-32712609D01*
X229083909Y-32702235D01*
X228945258Y-32693668D01*
X228784696Y-32687107D01*
X228611848Y-32682746D01*
X228436336Y-32680781D01*
X228267785Y-32681408D01*
G37*
X228267785Y-32681408D02*
X228115817Y-32684822D01*
X227990056Y-32691220D01*
X227923632Y-32697472D01*
X227755026Y-32726203D01*
X227627066Y-32768610D01*
X227530248Y-32830260D01*
X227455069Y-32916716D01*
X227408035Y-32999416D01*
X227383149Y-33051449D01*
X227364808Y-33097356D01*
X227352013Y-33145914D01*
X227343766Y-33205899D01*
X227339069Y-33286087D01*
X227336922Y-33395254D01*
X227336328Y-33542178D01*
X227336300Y-33629895D01*
X227336300Y-34114291D01*
X227412569Y-34263423D01*
X227465585Y-34355546D01*
X227519800Y-34416940D01*
X227591902Y-34465260D01*
X227614993Y-34477527D01*
X227652936Y-34496560D01*
X227688553Y-34511496D01*
X227728369Y-34522876D01*
X227778911Y-34531242D01*
X227846705Y-34537132D01*
X227938277Y-34541090D01*
X228060154Y-34543654D01*
X228218862Y-34545366D01*
X228420926Y-34546767D01*
X228453124Y-34546969D01*
X228642606Y-34547426D01*
X228819116Y-34546466D01*
X228975195Y-34544239D01*
X229103385Y-34540894D01*
X229196230Y-34536581D01*
X229246272Y-34531448D01*
X229248016Y-34531052D01*
X229388018Y-34472029D01*
X229507435Y-34374127D01*
X229587473Y-34258425D01*
X229608053Y-34214129D01*
X229623325Y-34171175D01*
X229634080Y-34121307D01*
X229641105Y-34056269D01*
X229645188Y-33967806D01*
X229647117Y-33847660D01*
X229647680Y-33687575D01*
X229647694Y-33643948D01*
X229228600Y-33643948D01*
X229228600Y-34025707D01*
X229154354Y-34099953D01*
X229080108Y-34174200D01*
X228521008Y-34174200D01*
X228353799Y-34173121D01*
X228200608Y-34170104D01*
X228069827Y-34165475D01*
X227969851Y-34159564D01*
X227909074Y-34152695D01*
X227897971Y-34149891D01*
X227845788Y-34122143D01*
X227807474Y-34079684D01*
X227781343Y-34015621D01*
X227765710Y-33923061D01*
X227758890Y-33795111D01*
X227759195Y-33624877D01*
X227759955Y-33585528D01*
X227768100Y-33204479D01*
X227839367Y-33143239D01*
X227863637Y-33123441D01*
X227888912Y-33108448D01*
X227922175Y-33097592D01*
X227970408Y-33090207D01*
X228040595Y-33085623D01*
X228139720Y-33083172D01*
X228274765Y-33082187D01*
X228452714Y-33082000D01*
X228479522Y-33082000D01*
X228691247Y-33083348D01*
X228863787Y-33087301D01*
X228994037Y-33093719D01*
X229078891Y-33102464D01*
X229110304Y-33110200D01*
X229152583Y-33136030D01*
X229183671Y-33174271D01*
X229205190Y-33232231D01*
X229218757Y-33317217D01*
X229225993Y-33436534D01*
X229228516Y-33597489D01*
X229228600Y-33643948D01*
X229647694Y-33643948D01*
X229647700Y-33627473D01*
X229647473Y-33453912D01*
X229646227Y-33322894D01*
X229643118Y-33226165D01*
X229637300Y-33155470D01*
X229627928Y-33102551D01*
X229614158Y-33059155D01*
X229595143Y-33017025D01*
X229582695Y-32992473D01*
X229488561Y-32860425D01*
X229361136Y-32766537D01*
X229256988Y-32724597D01*
X229191027Y-32712609D01*
X229083909Y-32702235D01*
X228945258Y-32693668D01*
X228784696Y-32687107D01*
X228611848Y-32682746D01*
X228436336Y-32680781D01*
X228267785Y-32681408D01*
G36*
X226528876Y-32683854D02*
G01*
X226417386Y-32697280D01*
X226331622Y-32718240D01*
X226301448Y-32732474D01*
X226275528Y-32760515D01*
X226239359Y-32818853D01*
X226191350Y-32910721D01*
X226129913Y-33039355D01*
X226053459Y-33207989D01*
X225960400Y-33419860D01*
X225934447Y-33479748D01*
X225851321Y-33669502D01*
X225775645Y-33837391D01*
X225709744Y-33978560D01*
X225655945Y-34088157D01*
X225616574Y-34161328D01*
X225593959Y-34193219D01*
X225592019Y-34194173D01*
X225573080Y-34179408D01*
X225541123Y-34128566D01*
X225495068Y-34039432D01*
X225433833Y-33909793D01*
X225356335Y-33737436D01*
X225261493Y-33520150D01*
X225253671Y-33502028D01*
X225173697Y-33319272D01*
X225098077Y-33151478D01*
X225029726Y-33004754D01*
X224971561Y-32885209D01*
X224926499Y-32798951D01*
X224897458Y-32752090D01*
X224893451Y-32747619D01*
X224850294Y-32717089D01*
X224791028Y-32697659D01*
X224701966Y-32685779D01*
X224637808Y-32681318D01*
X224459250Y-32680834D01*
X224326032Y-32702442D01*
X224238324Y-32746098D01*
X224203539Y-32790959D01*
X224194342Y-32832316D01*
X224186948Y-32913401D01*
X224181288Y-33036382D01*
X224177291Y-33203427D01*
X224174887Y-33416703D01*
X224174007Y-33678380D01*
X224174000Y-33706563D01*
X224174000Y-34557336D01*
X224567700Y-34542500D01*
X224574443Y-33810264D01*
X224577118Y-33583218D01*
X224580620Y-33403515D01*
X224585121Y-33267701D01*
X224590794Y-33172321D01*
X224597811Y-33113923D01*
X224606344Y-33089053D01*
X224610526Y-33087808D01*
X224628252Y-33112709D01*
X224663463Y-33178026D01*
X224713193Y-33277671D01*
X224774474Y-33405557D01*
X224844341Y-33555599D01*
X224919828Y-33721710D01*
X224924062Y-33731144D01*
X225029266Y-33962040D01*
X225117485Y-34147609D01*
X225189817Y-34289994D01*
X225247357Y-34391341D01*
X225291204Y-34453796D01*
X225296674Y-34459950D01*
X225342003Y-34506871D01*
X225380406Y-34535118D01*
X225426575Y-34549429D01*
X225495203Y-34554543D01*
X225591944Y-34555200D01*
X225671796Y-34554425D01*
X225738154Y-34549072D01*
X225794780Y-34534592D01*
X225845432Y-34506439D01*
X225893872Y-34460065D01*
X225943858Y-34390924D01*
X225999152Y-34294469D01*
X226063513Y-34166153D01*
X226140702Y-34001428D01*
X226234478Y-33795747D01*
X226252116Y-33756876D01*
X226330160Y-33586809D01*
X226402749Y-33432321D01*
X226466948Y-33299367D01*
X226519823Y-33193899D01*
X226558443Y-33121871D01*
X226579872Y-33089238D01*
X226581670Y-33088010D01*
X226590976Y-33096612D01*
X226598354Y-33132038D01*
X226603979Y-33198385D01*
X226608021Y-33299753D01*
X226610655Y-33440242D01*
X226612054Y-33623950D01*
X226612400Y-33816483D01*
X226612400Y-34555200D01*
X226798667Y-34555200D01*
X226891581Y-34553039D01*
X226963567Y-34547344D01*
X227000506Y-34539289D01*
X227001867Y-34538266D01*
X227007737Y-34507589D01*
X227012380Y-34433416D01*
X227015840Y-34323033D01*
X227018163Y-34183728D01*
X227019395Y-34022788D01*
X227019582Y-33847501D01*
X227018768Y-33665154D01*
X227017000Y-33483034D01*
X227014324Y-33308429D01*
X227010784Y-33148626D01*
X227006426Y-33010912D01*
X227001297Y-32902575D01*
X226995441Y-32830902D01*
X226991035Y-32806732D01*
X226960231Y-32749408D01*
X226907078Y-32714539D01*
X226857685Y-32698546D01*
X226765027Y-32683511D01*
X226650090Y-32678939D01*
X226528876Y-32683854D01*
G37*
X226528876Y-32683854D02*
X226417386Y-32697280D01*
X226331622Y-32718240D01*
X226301448Y-32732474D01*
X226275528Y-32760515D01*
X226239359Y-32818853D01*
X226191350Y-32910721D01*
X226129913Y-33039355D01*
X226053459Y-33207989D01*
X225960400Y-33419860D01*
X225934447Y-33479748D01*
X225851321Y-33669502D01*
X225775645Y-33837391D01*
X225709744Y-33978560D01*
X225655945Y-34088157D01*
X225616574Y-34161328D01*
X225593959Y-34193219D01*
X225592019Y-34194173D01*
X225573080Y-34179408D01*
X225541123Y-34128566D01*
X225495068Y-34039432D01*
X225433833Y-33909793D01*
X225356335Y-33737436D01*
X225261493Y-33520150D01*
X225253671Y-33502028D01*
X225173697Y-33319272D01*
X225098077Y-33151478D01*
X225029726Y-33004754D01*
X224971561Y-32885209D01*
X224926499Y-32798951D01*
X224897458Y-32752090D01*
X224893451Y-32747619D01*
X224850294Y-32717089D01*
X224791028Y-32697659D01*
X224701966Y-32685779D01*
X224637808Y-32681318D01*
X224459250Y-32680834D01*
X224326032Y-32702442D01*
X224238324Y-32746098D01*
X224203539Y-32790959D01*
X224194342Y-32832316D01*
X224186948Y-32913401D01*
X224181288Y-33036382D01*
X224177291Y-33203427D01*
X224174887Y-33416703D01*
X224174007Y-33678380D01*
X224174000Y-33706563D01*
X224174000Y-34557336D01*
X224567700Y-34542500D01*
X224574443Y-33810264D01*
X224577118Y-33583218D01*
X224580620Y-33403515D01*
X224585121Y-33267701D01*
X224590794Y-33172321D01*
X224597811Y-33113923D01*
X224606344Y-33089053D01*
X224610526Y-33087808D01*
X224628252Y-33112709D01*
X224663463Y-33178026D01*
X224713193Y-33277671D01*
X224774474Y-33405557D01*
X224844341Y-33555599D01*
X224919828Y-33721710D01*
X224924062Y-33731144D01*
X225029266Y-33962040D01*
X225117485Y-34147609D01*
X225189817Y-34289994D01*
X225247357Y-34391341D01*
X225291204Y-34453796D01*
X225296674Y-34459950D01*
X225342003Y-34506871D01*
X225380406Y-34535118D01*
X225426575Y-34549429D01*
X225495203Y-34554543D01*
X225591944Y-34555200D01*
X225671796Y-34554425D01*
X225738154Y-34549072D01*
X225794780Y-34534592D01*
X225845432Y-34506439D01*
X225893872Y-34460065D01*
X225943858Y-34390924D01*
X225999152Y-34294469D01*
X226063513Y-34166153D01*
X226140702Y-34001428D01*
X226234478Y-33795747D01*
X226252116Y-33756876D01*
X226330160Y-33586809D01*
X226402749Y-33432321D01*
X226466948Y-33299367D01*
X226519823Y-33193899D01*
X226558443Y-33121871D01*
X226579872Y-33089238D01*
X226581670Y-33088010D01*
X226590976Y-33096612D01*
X226598354Y-33132038D01*
X226603979Y-33198385D01*
X226608021Y-33299753D01*
X226610655Y-33440242D01*
X226612054Y-33623950D01*
X226612400Y-33816483D01*
X226612400Y-34555200D01*
X226798667Y-34555200D01*
X226891581Y-34553039D01*
X226963567Y-34547344D01*
X227000506Y-34539289D01*
X227001867Y-34538266D01*
X227007737Y-34507589D01*
X227012380Y-34433416D01*
X227015840Y-34323033D01*
X227018163Y-34183728D01*
X227019395Y-34022788D01*
X227019582Y-33847501D01*
X227018768Y-33665154D01*
X227017000Y-33483034D01*
X227014324Y-33308429D01*
X227010784Y-33148626D01*
X227006426Y-33010912D01*
X227001297Y-32902575D01*
X226995441Y-32830902D01*
X226991035Y-32806732D01*
X226960231Y-32749408D01*
X226907078Y-32714539D01*
X226857685Y-32698546D01*
X226765027Y-32683511D01*
X226650090Y-32678939D01*
X226528876Y-32683854D01*
G36*
X223484907Y-32688047D02*
G01*
X223439314Y-32688300D01*
X223312192Y-32689574D01*
X223225320Y-32694401D01*
X223168186Y-32704288D01*
X223130281Y-32720742D01*
X223111358Y-32735326D01*
X223095537Y-32752982D01*
X223076089Y-32782129D01*
X223051162Y-32826745D01*
X223018904Y-32890809D01*
X222977463Y-32978301D01*
X222924989Y-33093200D01*
X222859629Y-33239484D01*
X222779531Y-33421133D01*
X222682845Y-33642127D01*
X222586596Y-33863050D01*
X222532452Y-33982659D01*
X222482781Y-34083541D01*
X222441982Y-34157398D01*
X222414454Y-34195934D01*
X222408145Y-34199600D01*
X222385166Y-34177722D01*
X222348810Y-34118739D01*
X222304783Y-34032628D01*
X222273801Y-33964650D01*
X222156263Y-33695120D01*
X222057041Y-33468467D01*
X221974387Y-33280894D01*
X221906556Y-33128608D01*
X221851798Y-33007814D01*
X221808368Y-32914717D01*
X221774517Y-32845523D01*
X221748498Y-32796437D01*
X221728565Y-32763664D01*
X221712970Y-32743411D01*
X221710065Y-32740375D01*
X221681647Y-32717225D01*
X221644768Y-32702096D01*
X221588860Y-32693333D01*
X221503353Y-32689285D01*
X221377678Y-32688300D01*
X221377051Y-32688300D01*
X221281474Y-32687273D01*
X221203435Y-32687292D01*
X221141167Y-32693004D01*
X221092903Y-32709057D01*
X221056876Y-32740098D01*
X221031320Y-32790775D01*
X221014468Y-32865735D01*
X221004554Y-32969626D01*
X220999809Y-33107095D01*
X220998469Y-33282791D01*
X220998765Y-33501360D01*
X220999000Y-33682782D01*
X220999000Y-34557336D01*
X221392700Y-34542500D01*
X221399443Y-33810264D01*
X221402576Y-33566961D01*
X221407030Y-33372958D01*
X221412791Y-33228588D01*
X221419844Y-33134188D01*
X221428173Y-33090093D01*
X221432180Y-33086693D01*
X221448942Y-33111241D01*
X221483404Y-33176284D01*
X221532685Y-33275870D01*
X221593907Y-33404047D01*
X221664190Y-33554865D01*
X221740656Y-33722371D01*
X221753916Y-33751754D01*
X221853518Y-33969384D01*
X221940852Y-34153167D01*
X222014364Y-34300033D01*
X222072503Y-34406912D01*
X222113715Y-34470736D01*
X222123183Y-34481675D01*
X222162285Y-34517532D01*
X222200671Y-34539332D01*
X222252101Y-34550554D01*
X222330333Y-34554675D01*
X222414005Y-34555200D01*
X222520063Y-34554353D01*
X222589142Y-34549193D01*
X222635062Y-34535788D01*
X222671642Y-34510209D01*
X222710501Y-34470867D01*
X222749291Y-34415983D01*
X222805074Y-34316764D01*
X222876344Y-34176187D01*
X222961596Y-33997228D01*
X223059326Y-33782864D01*
X223066860Y-33766017D01*
X223155259Y-33568476D01*
X223225563Y-33412704D01*
X223280214Y-33294001D01*
X223321653Y-33207673D01*
X223352321Y-33149022D01*
X223374660Y-33113352D01*
X223391110Y-33095966D01*
X223404113Y-33092167D01*
X223414878Y-33096478D01*
X223420678Y-33124502D01*
X223425925Y-33196783D01*
X223430418Y-33306781D01*
X223433957Y-33447955D01*
X223436342Y-33613763D01*
X223437374Y-33797664D01*
X223437400Y-33832799D01*
X223437400Y-34555200D01*
X223628698Y-34555200D01*
X223738278Y-34551967D01*
X223803967Y-34541535D01*
X223832302Y-34522802D01*
X223833202Y-34520782D01*
X223836147Y-34487891D01*
X223838407Y-34410440D01*
X223839942Y-34294663D01*
X223840713Y-34146794D01*
X223840682Y-33973069D01*
X223839807Y-33779722D01*
X223838755Y-33645153D01*
X223836890Y-33399111D01*
X223834900Y-33199095D01*
X223830807Y-33040366D01*
X223822632Y-32918183D01*
X223808397Y-32827806D01*
X223786123Y-32764496D01*
X223753830Y-32723513D01*
X223709541Y-32700116D01*
X223651277Y-32689566D01*
X223577059Y-32687123D01*
X223484907Y-32688047D01*
G37*
X223484907Y-32688047D02*
X223439314Y-32688300D01*
X223312192Y-32689574D01*
X223225320Y-32694401D01*
X223168186Y-32704288D01*
X223130281Y-32720742D01*
X223111358Y-32735326D01*
X223095537Y-32752982D01*
X223076089Y-32782129D01*
X223051162Y-32826745D01*
X223018904Y-32890809D01*
X222977463Y-32978301D01*
X222924989Y-33093200D01*
X222859629Y-33239484D01*
X222779531Y-33421133D01*
X222682845Y-33642127D01*
X222586596Y-33863050D01*
X222532452Y-33982659D01*
X222482781Y-34083541D01*
X222441982Y-34157398D01*
X222414454Y-34195934D01*
X222408145Y-34199600D01*
X222385166Y-34177722D01*
X222348810Y-34118739D01*
X222304783Y-34032628D01*
X222273801Y-33964650D01*
X222156263Y-33695120D01*
X222057041Y-33468467D01*
X221974387Y-33280894D01*
X221906556Y-33128608D01*
X221851798Y-33007814D01*
X221808368Y-32914717D01*
X221774517Y-32845523D01*
X221748498Y-32796437D01*
X221728565Y-32763664D01*
X221712970Y-32743411D01*
X221710065Y-32740375D01*
X221681647Y-32717225D01*
X221644768Y-32702096D01*
X221588860Y-32693333D01*
X221503353Y-32689285D01*
X221377678Y-32688300D01*
X221377051Y-32688300D01*
X221281474Y-32687273D01*
X221203435Y-32687292D01*
X221141167Y-32693004D01*
X221092903Y-32709057D01*
X221056876Y-32740098D01*
X221031320Y-32790775D01*
X221014468Y-32865735D01*
X221004554Y-32969626D01*
X220999809Y-33107095D01*
X220998469Y-33282791D01*
X220998765Y-33501360D01*
X220999000Y-33682782D01*
X220999000Y-34557336D01*
X221392700Y-34542500D01*
X221399443Y-33810264D01*
X221402576Y-33566961D01*
X221407030Y-33372958D01*
X221412791Y-33228588D01*
X221419844Y-33134188D01*
X221428173Y-33090093D01*
X221432180Y-33086693D01*
X221448942Y-33111241D01*
X221483404Y-33176284D01*
X221532685Y-33275870D01*
X221593907Y-33404047D01*
X221664190Y-33554865D01*
X221740656Y-33722371D01*
X221753916Y-33751754D01*
X221853518Y-33969384D01*
X221940852Y-34153167D01*
X222014364Y-34300033D01*
X222072503Y-34406912D01*
X222113715Y-34470736D01*
X222123183Y-34481675D01*
X222162285Y-34517532D01*
X222200671Y-34539332D01*
X222252101Y-34550554D01*
X222330333Y-34554675D01*
X222414005Y-34555200D01*
X222520063Y-34554353D01*
X222589142Y-34549193D01*
X222635062Y-34535788D01*
X222671642Y-34510209D01*
X222710501Y-34470867D01*
X222749291Y-34415983D01*
X222805074Y-34316764D01*
X222876344Y-34176187D01*
X222961596Y-33997228D01*
X223059326Y-33782864D01*
X223066860Y-33766017D01*
X223155259Y-33568476D01*
X223225563Y-33412704D01*
X223280214Y-33294001D01*
X223321653Y-33207673D01*
X223352321Y-33149022D01*
X223374660Y-33113352D01*
X223391110Y-33095966D01*
X223404113Y-33092167D01*
X223414878Y-33096478D01*
X223420678Y-33124502D01*
X223425925Y-33196783D01*
X223430418Y-33306781D01*
X223433957Y-33447955D01*
X223436342Y-33613763D01*
X223437374Y-33797664D01*
X223437400Y-33832799D01*
X223437400Y-34555200D01*
X223628698Y-34555200D01*
X223738278Y-34551967D01*
X223803967Y-34541535D01*
X223832302Y-34522802D01*
X223833202Y-34520782D01*
X223836147Y-34487891D01*
X223838407Y-34410440D01*
X223839942Y-34294663D01*
X223840713Y-34146794D01*
X223840682Y-33973069D01*
X223839807Y-33779722D01*
X223838755Y-33645153D01*
X223836890Y-33399111D01*
X223834900Y-33199095D01*
X223830807Y-33040366D01*
X223822632Y-32918183D01*
X223808397Y-32827806D01*
X223786123Y-32764496D01*
X223753830Y-32723513D01*
X223709541Y-32700116D01*
X223651277Y-32689566D01*
X223577059Y-32687123D01*
X223484907Y-32688047D01*
G36*
X219481492Y-32680648D02*
G01*
X219361364Y-32708308D01*
X219262331Y-32762983D01*
X219237050Y-32786741D01*
X219212512Y-32821903D01*
X219167712Y-32894455D01*
X219105981Y-32998457D01*
X219030652Y-33127968D01*
X218945055Y-33277046D01*
X218852522Y-33439751D01*
X218756383Y-33610142D01*
X218659971Y-33782277D01*
X218566616Y-33950215D01*
X218479649Y-34108014D01*
X218402402Y-34249735D01*
X218338207Y-34369436D01*
X218290393Y-34461175D01*
X218262294Y-34519011D01*
X218256137Y-34536150D01*
X218279460Y-34544643D01*
X218342108Y-34551185D01*
X218432613Y-34554794D01*
X218478189Y-34555200D01*
X218700578Y-34555200D01*
X218802656Y-34371050D01*
X218904733Y-34186900D01*
X219519163Y-34180100D01*
X220133594Y-34173300D01*
X220343192Y-34555200D01*
X220569496Y-34555200D01*
X220669612Y-34553276D01*
X220747051Y-34548129D01*
X220790423Y-34540688D01*
X220795800Y-34536678D01*
X220783758Y-34506590D01*
X220749820Y-34438295D01*
X220697271Y-34337707D01*
X220629396Y-34210741D01*
X220549481Y-34063309D01*
X220460809Y-33901326D01*
X220435127Y-33854780D01*
X219957600Y-33854780D01*
X219933576Y-33859578D01*
X219867000Y-33863714D01*
X219766120Y-33866909D01*
X219639183Y-33868885D01*
X219525800Y-33869400D01*
X219384154Y-33868340D01*
X219262093Y-33865404D01*
X219167850Y-33860954D01*
X219109657Y-33855356D01*
X219094588Y-33850350D01*
X219106757Y-33818574D01*
X219139174Y-33752851D01*
X219186791Y-33662214D01*
X219244560Y-33555697D01*
X219307434Y-33442333D01*
X219370366Y-33331157D01*
X219428309Y-33231203D01*
X219476214Y-33151503D01*
X219509035Y-33101092D01*
X219520538Y-33087987D01*
X219538151Y-33106779D01*
X219574785Y-33161654D01*
X219625482Y-33243912D01*
X219685283Y-33344851D01*
X219749227Y-33455772D01*
X219812357Y-33567975D01*
X219869713Y-33672758D01*
X219916335Y-33761421D01*
X219947265Y-33825264D01*
X219957600Y-33854780D01*
X220435127Y-33854780D01*
X220366666Y-33730706D01*
X220270337Y-33557361D01*
X220175106Y-33387206D01*
X220084258Y-33226155D01*
X220001078Y-33080121D01*
X219928852Y-32955019D01*
X219870863Y-32856761D01*
X219830397Y-32791262D01*
X219812000Y-32765527D01*
X219722454Y-32708680D01*
X219607070Y-32680579D01*
X219481492Y-32680648D01*
G37*
X219481492Y-32680648D02*
X219361364Y-32708308D01*
X219262331Y-32762983D01*
X219237050Y-32786741D01*
X219212512Y-32821903D01*
X219167712Y-32894455D01*
X219105981Y-32998457D01*
X219030652Y-33127968D01*
X218945055Y-33277046D01*
X218852522Y-33439751D01*
X218756383Y-33610142D01*
X218659971Y-33782277D01*
X218566616Y-33950215D01*
X218479649Y-34108014D01*
X218402402Y-34249735D01*
X218338207Y-34369436D01*
X218290393Y-34461175D01*
X218262294Y-34519011D01*
X218256137Y-34536150D01*
X218279460Y-34544643D01*
X218342108Y-34551185D01*
X218432613Y-34554794D01*
X218478189Y-34555200D01*
X218700578Y-34555200D01*
X218802656Y-34371050D01*
X218904733Y-34186900D01*
X219519163Y-34180100D01*
X220133594Y-34173300D01*
X220343192Y-34555200D01*
X220569496Y-34555200D01*
X220669612Y-34553276D01*
X220747051Y-34548129D01*
X220790423Y-34540688D01*
X220795800Y-34536678D01*
X220783758Y-34506590D01*
X220749820Y-34438295D01*
X220697271Y-34337707D01*
X220629396Y-34210741D01*
X220549481Y-34063309D01*
X220460809Y-33901326D01*
X220435127Y-33854780D01*
X219957600Y-33854780D01*
X219933576Y-33859578D01*
X219867000Y-33863714D01*
X219766120Y-33866909D01*
X219639183Y-33868885D01*
X219525800Y-33869400D01*
X219384154Y-33868340D01*
X219262093Y-33865404D01*
X219167850Y-33860954D01*
X219109657Y-33855356D01*
X219094588Y-33850350D01*
X219106757Y-33818574D01*
X219139174Y-33752851D01*
X219186791Y-33662214D01*
X219244560Y-33555697D01*
X219307434Y-33442333D01*
X219370366Y-33331157D01*
X219428309Y-33231203D01*
X219476214Y-33151503D01*
X219509035Y-33101092D01*
X219520538Y-33087987D01*
X219538151Y-33106779D01*
X219574785Y-33161654D01*
X219625482Y-33243912D01*
X219685283Y-33344851D01*
X219749227Y-33455772D01*
X219812357Y-33567975D01*
X219869713Y-33672758D01*
X219916335Y-33761421D01*
X219947265Y-33825264D01*
X219957600Y-33854780D01*
X220435127Y-33854780D01*
X220366666Y-33730706D01*
X220270337Y-33557361D01*
X220175106Y-33387206D01*
X220084258Y-33226155D01*
X220001078Y-33080121D01*
X219928852Y-32955019D01*
X219870863Y-32856761D01*
X219830397Y-32791262D01*
X219812000Y-32765527D01*
X219722454Y-32708680D01*
X219607070Y-32680579D01*
X219481492Y-32680648D01*
G36*
X215876139Y-32683585D02*
G01*
X215825605Y-32695549D01*
X215822775Y-32697141D01*
X215813689Y-32712854D01*
X215806571Y-32750082D01*
X215801295Y-32813207D01*
X215797735Y-32906609D01*
X215795767Y-33034667D01*
X215795263Y-33201763D01*
X215796099Y-33412276D01*
X215797375Y-33583118D01*
X215799084Y-33831414D01*
X215800798Y-34033640D01*
X215804329Y-34194494D01*
X215811487Y-34318673D01*
X215824085Y-34410876D01*
X215843932Y-34475800D01*
X215872842Y-34518144D01*
X215912625Y-34542604D01*
X215965092Y-34553879D01*
X216032055Y-34556667D01*
X216115326Y-34555666D01*
X216172185Y-34555200D01*
X216292964Y-34554588D01*
X216374260Y-34551193D01*
X216427389Y-34542670D01*
X216463667Y-34526676D01*
X216494408Y-34500869D01*
X216509528Y-34485350D01*
X216540976Y-34448458D01*
X216598932Y-34376577D01*
X216679137Y-34275140D01*
X216777332Y-34149582D01*
X216889259Y-34005337D01*
X217010660Y-33847838D01*
X217080421Y-33756886D01*
X217203028Y-33597635D01*
X217316741Y-33451631D01*
X217417679Y-33323723D01*
X217501963Y-33218762D01*
X217565712Y-33141600D01*
X217605047Y-33097085D01*
X217615441Y-33088019D01*
X217624753Y-33096577D01*
X217632136Y-33131877D01*
X217637764Y-33198029D01*
X217641810Y-33299141D01*
X217644447Y-33439320D01*
X217645850Y-33622675D01*
X217646200Y-33816483D01*
X217646200Y-34555200D01*
X218052600Y-34555200D01*
X218052600Y-33705495D01*
X218051864Y-33439124D01*
X218049608Y-33221366D01*
X218045762Y-33050057D01*
X218040256Y-32923031D01*
X218033021Y-32838123D01*
X218023986Y-32793166D01*
X218023062Y-32790959D01*
X217971758Y-32732571D01*
X217889712Y-32697919D01*
X217806158Y-32684846D01*
X217698935Y-32680996D01*
X217584573Y-32685445D01*
X217479604Y-32697272D01*
X217400560Y-32715553D01*
X217376327Y-32726572D01*
X217350135Y-32753305D01*
X217297241Y-32815720D01*
X217221527Y-32908936D01*
X217126878Y-33028075D01*
X217017176Y-33168258D01*
X216896305Y-33324604D01*
X216793427Y-33459021D01*
X216667730Y-33622952D01*
X216551195Y-33772956D01*
X216447484Y-33904472D01*
X216360259Y-34012940D01*
X216293182Y-34093796D01*
X216249914Y-34142480D01*
X216234627Y-34155170D01*
X216227945Y-34128873D01*
X216221604Y-34057338D01*
X216215838Y-33946125D01*
X216210881Y-33800795D01*
X216206965Y-33626909D01*
X216204346Y-33432519D01*
X216201612Y-33206955D01*
X216197991Y-33028189D01*
X216193277Y-32892227D01*
X216187263Y-32795071D01*
X216179742Y-32732725D01*
X216170507Y-32701194D01*
X216166246Y-32696288D01*
X216120002Y-32683930D01*
X216043077Y-32677727D01*
X215955209Y-32677628D01*
X215876139Y-32683585D01*
G37*
X215876139Y-32683585D02*
X215825605Y-32695549D01*
X215822775Y-32697141D01*
X215813689Y-32712854D01*
X215806571Y-32750082D01*
X215801295Y-32813207D01*
X215797735Y-32906609D01*
X215795767Y-33034667D01*
X215795263Y-33201763D01*
X215796099Y-33412276D01*
X215797375Y-33583118D01*
X215799084Y-33831414D01*
X215800798Y-34033640D01*
X215804329Y-34194494D01*
X215811487Y-34318673D01*
X215824085Y-34410876D01*
X215843932Y-34475800D01*
X215872842Y-34518144D01*
X215912625Y-34542604D01*
X215965092Y-34553879D01*
X216032055Y-34556667D01*
X216115326Y-34555666D01*
X216172185Y-34555200D01*
X216292964Y-34554588D01*
X216374260Y-34551193D01*
X216427389Y-34542670D01*
X216463667Y-34526676D01*
X216494408Y-34500869D01*
X216509528Y-34485350D01*
X216540976Y-34448458D01*
X216598932Y-34376577D01*
X216679137Y-34275140D01*
X216777332Y-34149582D01*
X216889259Y-34005337D01*
X217010660Y-33847838D01*
X217080421Y-33756886D01*
X217203028Y-33597635D01*
X217316741Y-33451631D01*
X217417679Y-33323723D01*
X217501963Y-33218762D01*
X217565712Y-33141600D01*
X217605047Y-33097085D01*
X217615441Y-33088019D01*
X217624753Y-33096577D01*
X217632136Y-33131877D01*
X217637764Y-33198029D01*
X217641810Y-33299141D01*
X217644447Y-33439320D01*
X217645850Y-33622675D01*
X217646200Y-33816483D01*
X217646200Y-34555200D01*
X218052600Y-34555200D01*
X218052600Y-33705495D01*
X218051864Y-33439124D01*
X218049608Y-33221366D01*
X218045762Y-33050057D01*
X218040256Y-32923031D01*
X218033021Y-32838123D01*
X218023986Y-32793166D01*
X218023062Y-32790959D01*
X217971758Y-32732571D01*
X217889712Y-32697919D01*
X217806158Y-32684846D01*
X217698935Y-32680996D01*
X217584573Y-32685445D01*
X217479604Y-32697272D01*
X217400560Y-32715553D01*
X217376327Y-32726572D01*
X217350135Y-32753305D01*
X217297241Y-32815720D01*
X217221527Y-32908936D01*
X217126878Y-33028075D01*
X217017176Y-33168258D01*
X216896305Y-33324604D01*
X216793427Y-33459021D01*
X216667730Y-33622952D01*
X216551195Y-33772956D01*
X216447484Y-33904472D01*
X216360259Y-34012940D01*
X216293182Y-34093796D01*
X216249914Y-34142480D01*
X216234627Y-34155170D01*
X216227945Y-34128873D01*
X216221604Y-34057338D01*
X216215838Y-33946125D01*
X216210881Y-33800795D01*
X216206965Y-33626909D01*
X216204346Y-33432519D01*
X216201612Y-33206955D01*
X216197991Y-33028189D01*
X216193277Y-32892227D01*
X216187263Y-32795071D01*
X216179742Y-32732725D01*
X216170507Y-32701194D01*
X216166246Y-32696288D01*
X216120002Y-32683930D01*
X216043077Y-32677727D01*
X215955209Y-32677628D01*
X215876139Y-32683585D01*
G36*
X214742436Y-32676384D02*
G01*
X214555023Y-32677584D01*
X214373535Y-32680531D01*
X214207646Y-32684932D01*
X214067030Y-32690495D01*
X213961362Y-32696927D01*
X213916628Y-32701354D01*
X213718804Y-32745759D01*
X213559725Y-32822805D01*
X213438863Y-32932904D01*
X213355693Y-33076473D01*
X213326774Y-33166040D01*
X213315716Y-33241229D01*
X213308542Y-33358843D01*
X213305558Y-33510633D01*
X213307068Y-33688353D01*
X213307205Y-33694861D01*
X213313051Y-33878729D01*
X213323493Y-34020763D01*
X213341194Y-34129892D01*
X213368817Y-34215046D01*
X213409026Y-34285155D01*
X213464482Y-34349147D01*
X213516846Y-34397764D01*
X213567271Y-34438793D01*
X213619489Y-34472068D01*
X213679263Y-34498388D01*
X213752354Y-34518554D01*
X213844524Y-34533365D01*
X213961535Y-34543621D01*
X214109150Y-34550123D01*
X214293129Y-34553670D01*
X214519236Y-34555062D01*
X214650893Y-34555200D01*
X214872766Y-34554952D01*
X215049085Y-34554034D01*
X215185094Y-34552180D01*
X215286036Y-34549126D01*
X215357156Y-34544605D01*
X215403698Y-34538355D01*
X215430906Y-34530109D01*
X215444024Y-34519603D01*
X215446383Y-34515022D01*
X215450046Y-34480800D01*
X215453398Y-34401993D01*
X215456332Y-34284815D01*
X215458117Y-34174200D01*
X215030000Y-34174200D01*
X214490250Y-34173825D01*
X214280581Y-34172445D01*
X214118464Y-34168516D01*
X214000708Y-34161872D01*
X213924123Y-34152342D01*
X213889449Y-34142075D01*
X213830966Y-34099100D01*
X213775541Y-34039514D01*
X213775149Y-34038987D01*
X213753282Y-34004838D01*
X213738328Y-33965153D01*
X213729003Y-33910033D01*
X213724025Y-33829580D01*
X213722112Y-33713896D01*
X213721900Y-33628099D01*
X213722638Y-33487821D01*
X213725707Y-33388434D01*
X213732389Y-33320040D01*
X213743967Y-33272741D01*
X213761724Y-33236638D01*
X213775149Y-33217212D01*
X213809114Y-33174974D01*
X213844947Y-33142625D01*
X213889642Y-33118846D01*
X213950189Y-33102320D01*
X214033580Y-33091728D01*
X214146807Y-33085752D01*
X214296862Y-33083073D01*
X214490250Y-33082374D01*
X215030000Y-33082000D01*
X215030000Y-34174200D01*
X215458117Y-34174200D01*
X215458743Y-34135483D01*
X215460523Y-33960210D01*
X215461566Y-33765211D01*
X215461800Y-33615136D01*
X215461553Y-33379751D01*
X215460660Y-33190047D01*
X215458893Y-33040910D01*
X215456027Y-32927222D01*
X215451833Y-32843867D01*
X215446086Y-32785729D01*
X215438557Y-32747692D01*
X215429020Y-32724639D01*
X215421886Y-32715514D01*
X215403294Y-32703008D01*
X215371646Y-32693380D01*
X215320951Y-32686284D01*
X215245220Y-32681377D01*
X215138464Y-32678313D01*
X214994693Y-32676747D01*
X214807917Y-32676334D01*
X214742436Y-32676384D01*
G37*
X214742436Y-32676384D02*
X214555023Y-32677584D01*
X214373535Y-32680531D01*
X214207646Y-32684932D01*
X214067030Y-32690495D01*
X213961362Y-32696927D01*
X213916628Y-32701354D01*
X213718804Y-32745759D01*
X213559725Y-32822805D01*
X213438863Y-32932904D01*
X213355693Y-33076473D01*
X213326774Y-33166040D01*
X213315716Y-33241229D01*
X213308542Y-33358843D01*
X213305558Y-33510633D01*
X213307068Y-33688353D01*
X213307205Y-33694861D01*
X213313051Y-33878729D01*
X213323493Y-34020763D01*
X213341194Y-34129892D01*
X213368817Y-34215046D01*
X213409026Y-34285155D01*
X213464482Y-34349147D01*
X213516846Y-34397764D01*
X213567271Y-34438793D01*
X213619489Y-34472068D01*
X213679263Y-34498388D01*
X213752354Y-34518554D01*
X213844524Y-34533365D01*
X213961535Y-34543621D01*
X214109150Y-34550123D01*
X214293129Y-34553670D01*
X214519236Y-34555062D01*
X214650893Y-34555200D01*
X214872766Y-34554952D01*
X215049085Y-34554034D01*
X215185094Y-34552180D01*
X215286036Y-34549126D01*
X215357156Y-34544605D01*
X215403698Y-34538355D01*
X215430906Y-34530109D01*
X215444024Y-34519603D01*
X215446383Y-34515022D01*
X215450046Y-34480800D01*
X215453398Y-34401993D01*
X215456332Y-34284815D01*
X215458117Y-34174200D01*
X215030000Y-34174200D01*
X214490250Y-34173825D01*
X214280581Y-34172445D01*
X214118464Y-34168516D01*
X214000708Y-34161872D01*
X213924123Y-34152342D01*
X213889449Y-34142075D01*
X213830966Y-34099100D01*
X213775541Y-34039514D01*
X213775149Y-34038987D01*
X213753282Y-34004838D01*
X213738328Y-33965153D01*
X213729003Y-33910033D01*
X213724025Y-33829580D01*
X213722112Y-33713896D01*
X213721900Y-33628099D01*
X213722638Y-33487821D01*
X213725707Y-33388434D01*
X213732389Y-33320040D01*
X213743967Y-33272741D01*
X213761724Y-33236638D01*
X213775149Y-33217212D01*
X213809114Y-33174974D01*
X213844947Y-33142625D01*
X213889642Y-33118846D01*
X213950189Y-33102320D01*
X214033580Y-33091728D01*
X214146807Y-33085752D01*
X214296862Y-33083073D01*
X214490250Y-33082374D01*
X215030000Y-33082000D01*
X215030000Y-34174200D01*
X215458117Y-34174200D01*
X215458743Y-34135483D01*
X215460523Y-33960210D01*
X215461566Y-33765211D01*
X215461800Y-33615136D01*
X215461553Y-33379751D01*
X215460660Y-33190047D01*
X215458893Y-33040910D01*
X215456027Y-32927222D01*
X215451833Y-32843867D01*
X215446086Y-32785729D01*
X215438557Y-32747692D01*
X215429020Y-32724639D01*
X215421886Y-32715514D01*
X215403294Y-32703008D01*
X215371646Y-32693380D01*
X215320951Y-32686284D01*
X215245220Y-32681377D01*
X215138464Y-32678313D01*
X214994693Y-32676747D01*
X214807917Y-32676334D01*
X214742436Y-32676384D01*
G36*
X211029500Y-33069300D02*
G01*
X211743200Y-33082000D01*
X211962125Y-33086029D01*
X212135857Y-33090247D01*
X212269992Y-33095839D01*
X212370127Y-33103989D01*
X212441859Y-33115884D01*
X212490784Y-33132708D01*
X212522498Y-33155648D01*
X212542599Y-33185888D01*
X212556684Y-33224615D01*
X212565624Y-33256199D01*
X212580776Y-33307452D01*
X212591280Y-33348070D01*
X212592192Y-33379285D01*
X212578567Y-33402330D01*
X212545461Y-33418434D01*
X212487929Y-33428832D01*
X212401027Y-33434754D01*
X212279810Y-33437433D01*
X212119334Y-33438100D01*
X211914653Y-33437987D01*
X211835950Y-33437988D01*
X211643922Y-33438771D01*
X211467647Y-33440795D01*
X211313731Y-33443881D01*
X211188777Y-33447851D01*
X211099391Y-33452525D01*
X211052175Y-33457724D01*
X211047164Y-33459395D01*
X211026611Y-33497395D01*
X211020196Y-33578729D01*
X211021764Y-33630456D01*
X211029500Y-33780500D01*
X212591600Y-33793934D01*
X212591459Y-33850717D01*
X212579547Y-33948239D01*
X212548971Y-34040325D01*
X212506763Y-34108978D01*
X212482539Y-34129451D01*
X212444546Y-34140535D01*
X212370289Y-34150016D01*
X212256679Y-34158077D01*
X212100629Y-34164900D01*
X211899048Y-34170669D01*
X211728000Y-34174200D01*
X211029500Y-34186900D01*
X211022038Y-34371050D01*
X211014575Y-34555200D01*
X211758638Y-34552600D01*
X211952233Y-34551273D01*
X212132807Y-34548806D01*
X212293109Y-34545392D01*
X212425887Y-34541228D01*
X212523892Y-34536508D01*
X212579872Y-34531428D01*
X212585616Y-34530333D01*
X212723917Y-34472993D01*
X212842790Y-34376558D01*
X212925073Y-34258425D01*
X212945664Y-34214100D01*
X212960942Y-34171118D01*
X212971698Y-34121216D01*
X212978719Y-34056128D01*
X212982798Y-33967593D01*
X212984721Y-33847345D01*
X212985281Y-33687122D01*
X212985300Y-33628100D01*
X212985048Y-33454370D01*
X212983737Y-33323147D01*
X212980540Y-33226138D01*
X212974625Y-33155051D01*
X212965165Y-33101593D01*
X212951329Y-33057471D01*
X212932289Y-33014393D01*
X212921800Y-32993136D01*
X212833509Y-32865761D01*
X212711814Y-32773731D01*
X212581414Y-32721282D01*
X212514406Y-32710202D01*
X212397287Y-32701496D01*
X212229899Y-32695160D01*
X212012080Y-32691187D01*
X211753400Y-32689586D01*
X211029500Y-32688300D01*
X211029500Y-33069300D01*
G37*
X211029500Y-33069300D02*
X211743200Y-33082000D01*
X211962125Y-33086029D01*
X212135857Y-33090247D01*
X212269992Y-33095839D01*
X212370127Y-33103989D01*
X212441859Y-33115884D01*
X212490784Y-33132708D01*
X212522498Y-33155648D01*
X212542599Y-33185888D01*
X212556684Y-33224615D01*
X212565624Y-33256199D01*
X212580776Y-33307452D01*
X212591280Y-33348070D01*
X212592192Y-33379285D01*
X212578567Y-33402330D01*
X212545461Y-33418434D01*
X212487929Y-33428832D01*
X212401027Y-33434754D01*
X212279810Y-33437433D01*
X212119334Y-33438100D01*
X211914653Y-33437987D01*
X211835950Y-33437988D01*
X211643922Y-33438771D01*
X211467647Y-33440795D01*
X211313731Y-33443881D01*
X211188777Y-33447851D01*
X211099391Y-33452525D01*
X211052175Y-33457724D01*
X211047164Y-33459395D01*
X211026611Y-33497395D01*
X211020196Y-33578729D01*
X211021764Y-33630456D01*
X211029500Y-33780500D01*
X212591600Y-33793934D01*
X212591459Y-33850717D01*
X212579547Y-33948239D01*
X212548971Y-34040325D01*
X212506763Y-34108978D01*
X212482539Y-34129451D01*
X212444546Y-34140535D01*
X212370289Y-34150016D01*
X212256679Y-34158077D01*
X212100629Y-34164900D01*
X211899048Y-34170669D01*
X211728000Y-34174200D01*
X211029500Y-34186900D01*
X211022038Y-34371050D01*
X211014575Y-34555200D01*
X211758638Y-34552600D01*
X211952233Y-34551273D01*
X212132807Y-34548806D01*
X212293109Y-34545392D01*
X212425887Y-34541228D01*
X212523892Y-34536508D01*
X212579872Y-34531428D01*
X212585616Y-34530333D01*
X212723917Y-34472993D01*
X212842790Y-34376558D01*
X212925073Y-34258425D01*
X212945664Y-34214100D01*
X212960942Y-34171118D01*
X212971698Y-34121216D01*
X212978719Y-34056128D01*
X212982798Y-33967593D01*
X212984721Y-33847345D01*
X212985281Y-33687122D01*
X212985300Y-33628100D01*
X212985048Y-33454370D01*
X212983737Y-33323147D01*
X212980540Y-33226138D01*
X212974625Y-33155051D01*
X212965165Y-33101593D01*
X212951329Y-33057471D01*
X212932289Y-33014393D01*
X212921800Y-32993136D01*
X212833509Y-32865761D01*
X212711814Y-32773731D01*
X212581414Y-32721282D01*
X212514406Y-32710202D01*
X212397287Y-32701496D01*
X212229899Y-32695160D01*
X212012080Y-32691187D01*
X211753400Y-32689586D01*
X211029500Y-32688300D01*
X211029500Y-33069300D01*
G36*
X210030035Y-32677999D02*
G01*
X209817823Y-32679812D01*
X209592125Y-32682222D01*
X209411264Y-32684577D01*
X209269282Y-32687331D01*
X209160218Y-32690938D01*
X209078113Y-32695851D01*
X209017008Y-32702523D01*
X208970941Y-32711408D01*
X208933955Y-32722958D01*
X208900089Y-32737628D01*
X208871466Y-32751800D01*
X208777695Y-32809553D01*
X208710357Y-32879512D01*
X208665745Y-32970299D01*
X208640151Y-33090541D01*
X208629868Y-33248861D01*
X208629200Y-33315410D01*
X208636502Y-33500216D01*
X208660605Y-33642812D01*
X208704808Y-33749960D01*
X208772408Y-33828424D01*
X208866704Y-33884965D01*
X208916376Y-33904255D01*
X209005167Y-33934780D01*
X208779312Y-34213240D01*
X208697851Y-34315802D01*
X208629420Y-34406015D01*
X208579860Y-34475864D01*
X208555011Y-34517335D01*
X208553229Y-34523450D01*
X208569482Y-34539939D01*
X208622321Y-34550091D01*
X208717431Y-34554711D01*
X208777925Y-34555200D01*
X209002849Y-34555200D01*
X209225555Y-34263100D01*
X209448260Y-33971000D01*
X210280200Y-33971000D01*
X210280200Y-34222922D01*
X210281696Y-34334727D01*
X210285716Y-34430014D01*
X210291565Y-34495569D01*
X210295618Y-34515022D01*
X210314272Y-34536066D01*
X210356921Y-34548520D01*
X210433473Y-34554229D01*
X210511518Y-34555200D01*
X210712000Y-34555200D01*
X210712000Y-33643910D01*
X210711727Y-33399090D01*
X210710783Y-33200314D01*
X210709139Y-33056600D01*
X210280200Y-33056600D01*
X210280200Y-33643501D01*
X209709556Y-33635800D01*
X209521573Y-33632851D01*
X209377883Y-33629375D01*
X209271978Y-33624832D01*
X209197352Y-33618683D01*
X209147497Y-33610388D01*
X209115906Y-33599409D01*
X209096071Y-33585207D01*
X209095803Y-33584939D01*
X209065521Y-33527931D01*
X209045889Y-33439465D01*
X209038558Y-33338081D01*
X209045175Y-33242315D01*
X209060265Y-33185376D01*
X209081753Y-33145497D01*
X209113235Y-33114681D01*
X209160891Y-33091796D01*
X209230901Y-33075710D01*
X209329444Y-33065291D01*
X209462701Y-33059407D01*
X209636852Y-33056926D01*
X209763291Y-33056600D01*
X210280200Y-33056600D01*
X210709139Y-33056600D01*
X210708981Y-33042828D01*
X210706135Y-32921878D01*
X210702059Y-32832709D01*
X210696566Y-32770567D01*
X210689471Y-32730700D01*
X210680586Y-32708352D01*
X210675073Y-32701972D01*
X210650336Y-32693031D01*
X210597698Y-32686203D01*
X210513254Y-32681386D01*
X210393098Y-32678481D01*
X210233327Y-32677385D01*
X210030035Y-32677999D01*
G37*
X210030035Y-32677999D02*
X209817823Y-32679812D01*
X209592125Y-32682222D01*
X209411264Y-32684577D01*
X209269282Y-32687331D01*
X209160218Y-32690938D01*
X209078113Y-32695851D01*
X209017008Y-32702523D01*
X208970941Y-32711408D01*
X208933955Y-32722958D01*
X208900089Y-32737628D01*
X208871466Y-32751800D01*
X208777695Y-32809553D01*
X208710357Y-32879512D01*
X208665745Y-32970299D01*
X208640151Y-33090541D01*
X208629868Y-33248861D01*
X208629200Y-33315410D01*
X208636502Y-33500216D01*
X208660605Y-33642812D01*
X208704808Y-33749960D01*
X208772408Y-33828424D01*
X208866704Y-33884965D01*
X208916376Y-33904255D01*
X209005167Y-33934780D01*
X208779312Y-34213240D01*
X208697851Y-34315802D01*
X208629420Y-34406015D01*
X208579860Y-34475864D01*
X208555011Y-34517335D01*
X208553229Y-34523450D01*
X208569482Y-34539939D01*
X208622321Y-34550091D01*
X208717431Y-34554711D01*
X208777925Y-34555200D01*
X209002849Y-34555200D01*
X209225555Y-34263100D01*
X209448260Y-33971000D01*
X210280200Y-33971000D01*
X210280200Y-34222922D01*
X210281696Y-34334727D01*
X210285716Y-34430014D01*
X210291565Y-34495569D01*
X210295618Y-34515022D01*
X210314272Y-34536066D01*
X210356921Y-34548520D01*
X210433473Y-34554229D01*
X210511518Y-34555200D01*
X210712000Y-34555200D01*
X210712000Y-33643910D01*
X210711727Y-33399090D01*
X210710783Y-33200314D01*
X210709139Y-33056600D01*
X210280200Y-33056600D01*
X210280200Y-33643501D01*
X209709556Y-33635800D01*
X209521573Y-33632851D01*
X209377883Y-33629375D01*
X209271978Y-33624832D01*
X209197352Y-33618683D01*
X209147497Y-33610388D01*
X209115906Y-33599409D01*
X209096071Y-33585207D01*
X209095803Y-33584939D01*
X209065521Y-33527931D01*
X209045889Y-33439465D01*
X209038558Y-33338081D01*
X209045175Y-33242315D01*
X209060265Y-33185376D01*
X209081753Y-33145497D01*
X209113235Y-33114681D01*
X209160891Y-33091796D01*
X209230901Y-33075710D01*
X209329444Y-33065291D01*
X209462701Y-33059407D01*
X209636852Y-33056926D01*
X209763291Y-33056600D01*
X210280200Y-33056600D01*
X210709139Y-33056600D01*
X210708981Y-33042828D01*
X210706135Y-32921878D01*
X210702059Y-32832709D01*
X210696566Y-32770567D01*
X210689471Y-32730700D01*
X210680586Y-32708352D01*
X210675073Y-32701972D01*
X210650336Y-32693031D01*
X210597698Y-32686203D01*
X210513254Y-32681386D01*
X210393098Y-32678481D01*
X210233327Y-32677385D01*
X210030035Y-32677999D01*
G36*
X203182810Y-32698228D02*
G01*
X203089281Y-32734296D01*
X203064770Y-32753630D01*
X203051663Y-32769020D01*
X203041125Y-32789736D01*
X203032876Y-32821051D01*
X203026639Y-32868238D01*
X203022133Y-32936569D01*
X203019079Y-33031317D01*
X203017199Y-33157756D01*
X203016214Y-33321158D01*
X203015843Y-33526795D01*
X203015800Y-33678900D01*
X203015800Y-34555200D01*
X203202067Y-34555200D01*
X203294981Y-34553039D01*
X203366967Y-34547344D01*
X203403906Y-34539289D01*
X203405267Y-34538266D01*
X203409605Y-34509462D01*
X203413532Y-34436394D01*
X203416901Y-34325599D01*
X203419562Y-34183613D01*
X203421369Y-34016972D01*
X203422173Y-33832213D01*
X203422200Y-33790358D01*
X203422200Y-33059383D01*
X203542850Y-33051641D01*
X203663500Y-33043900D01*
X203663500Y-32688300D01*
X203498400Y-32680298D01*
X203320134Y-32680068D01*
X203182810Y-32698228D01*
G37*
X203182810Y-32698228D02*
X203089281Y-32734296D01*
X203064770Y-32753630D01*
X203051663Y-32769020D01*
X203041125Y-32789736D01*
X203032876Y-32821051D01*
X203026639Y-32868238D01*
X203022133Y-32936569D01*
X203019079Y-33031317D01*
X203017199Y-33157756D01*
X203016214Y-33321158D01*
X203015843Y-33526795D01*
X203015800Y-33678900D01*
X203015800Y-34555200D01*
X203202067Y-34555200D01*
X203294981Y-34553039D01*
X203366967Y-34547344D01*
X203403906Y-34539289D01*
X203405267Y-34538266D01*
X203409605Y-34509462D01*
X203413532Y-34436394D01*
X203416901Y-34325599D01*
X203419562Y-34183613D01*
X203421369Y-34016972D01*
X203422173Y-33832213D01*
X203422200Y-33790358D01*
X203422200Y-33059383D01*
X203542850Y-33051641D01*
X203663500Y-33043900D01*
X203663500Y-32688300D01*
X203498400Y-32680298D01*
X203320134Y-32680068D01*
X203182810Y-32698228D01*
G36*
X201031464Y-32680191D02*
G01*
X200909553Y-32683965D01*
X200820556Y-32690072D01*
X200772393Y-32698651D01*
X200767661Y-32701198D01*
X200740857Y-32752145D01*
X200729926Y-32841929D01*
X200729800Y-32854432D01*
X200729105Y-32914609D01*
X200730744Y-32961537D01*
X200740309Y-32996857D01*
X200763390Y-33022205D01*
X200805578Y-33039221D01*
X200872462Y-33049543D01*
X200969634Y-33054810D01*
X201102683Y-33056660D01*
X201277201Y-33056731D01*
X201419579Y-33056600D01*
X201627889Y-33057067D01*
X201791525Y-33058686D01*
X201916608Y-33061785D01*
X202009256Y-33066692D01*
X202075591Y-33073733D01*
X202121731Y-33083236D01*
X202153797Y-33095528D01*
X202154553Y-33095916D01*
X202227035Y-33155360D01*
X202267525Y-33245561D01*
X202279200Y-33363053D01*
X202279200Y-33463000D01*
X201625150Y-33463039D01*
X201405716Y-33463583D01*
X201230883Y-33466012D01*
X201094456Y-33471562D01*
X200990242Y-33481468D01*
X200912045Y-33496970D01*
X200853670Y-33519302D01*
X200808925Y-33549702D01*
X200771612Y-33589406D01*
X200735539Y-33639652D01*
X200734770Y-33640800D01*
X200709180Y-33682694D01*
X200692616Y-33724600D01*
X200683557Y-33777958D01*
X200680480Y-33854214D01*
X200681861Y-33964808D01*
X200683464Y-34026386D01*
X200688398Y-34159699D01*
X200695680Y-34253045D01*
X200707099Y-34317256D01*
X200724446Y-34363162D01*
X200744306Y-34394686D01*
X200781502Y-34441517D01*
X200820557Y-34478253D01*
X200867885Y-34506098D01*
X200929896Y-34526255D01*
X201013003Y-34539927D01*
X201123618Y-34548319D01*
X201268152Y-34552633D01*
X201453018Y-34554073D01*
X201593400Y-34554045D01*
X201809413Y-34552848D01*
X201980196Y-34549901D01*
X202111300Y-34544920D01*
X202208275Y-34537624D01*
X202276670Y-34527730D01*
X202315832Y-34517300D01*
X202446776Y-34455259D01*
X202544287Y-34369199D01*
X202609400Y-34273549D01*
X202632194Y-34230692D01*
X202648997Y-34188604D01*
X202660920Y-34138531D01*
X202669074Y-34071717D01*
X202674569Y-33979408D01*
X202678517Y-33852849D01*
X202680299Y-33767800D01*
X202285306Y-33767800D01*
X202274005Y-33924031D01*
X202263572Y-34018086D01*
X202244787Y-34078811D01*
X202211135Y-34123643D01*
X202193336Y-34139931D01*
X202167545Y-34160567D01*
X202139956Y-34175798D01*
X202102902Y-34186444D01*
X202048710Y-34193326D01*
X201969712Y-34197262D01*
X201858236Y-34199073D01*
X201706614Y-34199579D01*
X201635164Y-34199600D01*
X201443541Y-34198408D01*
X201299132Y-34194697D01*
X201198405Y-34188258D01*
X201137824Y-34178883D01*
X201115880Y-34169120D01*
X201099275Y-34128099D01*
X201088285Y-34053301D01*
X201085400Y-33983700D01*
X201090204Y-33894486D01*
X201102756Y-33826065D01*
X201115880Y-33798279D01*
X201144382Y-33787324D01*
X201207685Y-33778996D01*
X201309480Y-33773107D01*
X201453457Y-33769470D01*
X201643307Y-33767897D01*
X201715833Y-33767800D01*
X202285306Y-33767800D01*
X202680299Y-33767800D01*
X202681630Y-33704300D01*
X202684034Y-33494642D01*
X202681389Y-33328293D01*
X202672302Y-33197894D01*
X202655376Y-33096085D01*
X202629218Y-33015505D01*
X202592433Y-32948797D01*
X202543625Y-32888600D01*
X202522997Y-32867260D01*
X202413710Y-32779652D01*
X202303287Y-32728207D01*
X202241473Y-32717255D01*
X202141308Y-32707383D01*
X202010710Y-32698729D01*
X201857597Y-32691432D01*
X201689889Y-32685633D01*
X201515503Y-32681470D01*
X201342358Y-32679082D01*
X201178372Y-32678609D01*
X201031464Y-32680191D01*
G37*
X201031464Y-32680191D02*
X200909553Y-32683965D01*
X200820556Y-32690072D01*
X200772393Y-32698651D01*
X200767661Y-32701198D01*
X200740857Y-32752145D01*
X200729926Y-32841929D01*
X200729800Y-32854432D01*
X200729105Y-32914609D01*
X200730744Y-32961537D01*
X200740309Y-32996857D01*
X200763390Y-33022205D01*
X200805578Y-33039221D01*
X200872462Y-33049543D01*
X200969634Y-33054810D01*
X201102683Y-33056660D01*
X201277201Y-33056731D01*
X201419579Y-33056600D01*
X201627889Y-33057067D01*
X201791525Y-33058686D01*
X201916608Y-33061785D01*
X202009256Y-33066692D01*
X202075591Y-33073733D01*
X202121731Y-33083236D01*
X202153797Y-33095528D01*
X202154553Y-33095916D01*
X202227035Y-33155360D01*
X202267525Y-33245561D01*
X202279200Y-33363053D01*
X202279200Y-33463000D01*
X201625150Y-33463039D01*
X201405716Y-33463583D01*
X201230883Y-33466012D01*
X201094456Y-33471562D01*
X200990242Y-33481468D01*
X200912045Y-33496970D01*
X200853670Y-33519302D01*
X200808925Y-33549702D01*
X200771612Y-33589406D01*
X200735539Y-33639652D01*
X200734770Y-33640800D01*
X200709180Y-33682694D01*
X200692616Y-33724600D01*
X200683557Y-33777958D01*
X200680480Y-33854214D01*
X200681861Y-33964808D01*
X200683464Y-34026386D01*
X200688398Y-34159699D01*
X200695680Y-34253045D01*
X200707099Y-34317256D01*
X200724446Y-34363162D01*
X200744306Y-34394686D01*
X200781502Y-34441517D01*
X200820557Y-34478253D01*
X200867885Y-34506098D01*
X200929896Y-34526255D01*
X201013003Y-34539927D01*
X201123618Y-34548319D01*
X201268152Y-34552633D01*
X201453018Y-34554073D01*
X201593400Y-34554045D01*
X201809413Y-34552848D01*
X201980196Y-34549901D01*
X202111300Y-34544920D01*
X202208275Y-34537624D01*
X202276670Y-34527730D01*
X202315832Y-34517300D01*
X202446776Y-34455259D01*
X202544287Y-34369199D01*
X202609400Y-34273549D01*
X202632194Y-34230692D01*
X202648997Y-34188604D01*
X202660920Y-34138531D01*
X202669074Y-34071717D01*
X202674569Y-33979408D01*
X202678517Y-33852849D01*
X202680299Y-33767800D01*
X202285306Y-33767800D01*
X202274005Y-33924031D01*
X202263572Y-34018086D01*
X202244787Y-34078811D01*
X202211135Y-34123643D01*
X202193336Y-34139931D01*
X202167545Y-34160567D01*
X202139956Y-34175798D01*
X202102902Y-34186444D01*
X202048710Y-34193326D01*
X201969712Y-34197262D01*
X201858236Y-34199073D01*
X201706614Y-34199579D01*
X201635164Y-34199600D01*
X201443541Y-34198408D01*
X201299132Y-34194697D01*
X201198405Y-34188258D01*
X201137824Y-34178883D01*
X201115880Y-34169120D01*
X201099275Y-34128099D01*
X201088285Y-34053301D01*
X201085400Y-33983700D01*
X201090204Y-33894486D01*
X201102756Y-33826065D01*
X201115880Y-33798279D01*
X201144382Y-33787324D01*
X201207685Y-33778996D01*
X201309480Y-33773107D01*
X201453457Y-33769470D01*
X201643307Y-33767897D01*
X201715833Y-33767800D01*
X202285306Y-33767800D01*
X202680299Y-33767800D01*
X202681630Y-33704300D01*
X202684034Y-33494642D01*
X202681389Y-33328293D01*
X202672302Y-33197894D01*
X202655376Y-33096085D01*
X202629218Y-33015505D01*
X202592433Y-32948797D01*
X202543625Y-32888600D01*
X202522997Y-32867260D01*
X202413710Y-32779652D01*
X202303287Y-32728207D01*
X202241473Y-32717255D01*
X202141308Y-32707383D01*
X202010710Y-32698729D01*
X201857597Y-32691432D01*
X201689889Y-32685633D01*
X201515503Y-32681470D01*
X201342358Y-32679082D01*
X201178372Y-32678609D01*
X201031464Y-32680191D01*
%TO.C,C5*%
D10*
X183166666Y-30677142D02*
X183214285Y-30724761D01*
X183357142Y-30772380D01*
X183452380Y-30772380D01*
X183595238Y-30724761D01*
X183690476Y-30629523D01*
X183738095Y-30534285D01*
X183785714Y-30343809D01*
X183785714Y-30200952D01*
X183738095Y-30010476D01*
X183690476Y-29915238D01*
X183595238Y-29820000D01*
X183452380Y-29772380D01*
X183357142Y-29772380D01*
X183214285Y-29820000D01*
X183166666Y-29867619D01*
X182261904Y-29772380D02*
X182738095Y-29772380D01*
X182785714Y-30248571D01*
X182738095Y-30200952D01*
X182642857Y-30153333D01*
X182404761Y-30153333D01*
X182309523Y-30200952D01*
X182261904Y-30248571D01*
X182214285Y-30343809D01*
X182214285Y-30581904D01*
X182261904Y-30677142D01*
X182309523Y-30724761D01*
X182404761Y-30772380D01*
X182642857Y-30772380D01*
X182738095Y-30724761D01*
X182785714Y-30677142D01*
%TO.C,C6*%
X183366666Y-35857142D02*
X183414285Y-35904761D01*
X183557142Y-35952380D01*
X183652380Y-35952380D01*
X183795238Y-35904761D01*
X183890476Y-35809523D01*
X183938095Y-35714285D01*
X183985714Y-35523809D01*
X183985714Y-35380952D01*
X183938095Y-35190476D01*
X183890476Y-35095238D01*
X183795238Y-35000000D01*
X183652380Y-34952380D01*
X183557142Y-34952380D01*
X183414285Y-35000000D01*
X183366666Y-35047619D01*
X182509523Y-34952380D02*
X182700000Y-34952380D01*
X182795238Y-35000000D01*
X182842857Y-35047619D01*
X182938095Y-35190476D01*
X182985714Y-35380952D01*
X182985714Y-35761904D01*
X182938095Y-35857142D01*
X182890476Y-35904761D01*
X182795238Y-35952380D01*
X182604761Y-35952380D01*
X182509523Y-35904761D01*
X182461904Y-35857142D01*
X182414285Y-35761904D01*
X182414285Y-35523809D01*
X182461904Y-35428571D01*
X182509523Y-35380952D01*
X182604761Y-35333333D01*
X182795238Y-35333333D01*
X182890476Y-35380952D01*
X182938095Y-35428571D01*
X182985714Y-35523809D01*
%TO.C,C11*%
X188442857Y-30857142D02*
X188490476Y-30904761D01*
X188633333Y-30952380D01*
X188728571Y-30952380D01*
X188871428Y-30904761D01*
X188966666Y-30809523D01*
X189014285Y-30714285D01*
X189061904Y-30523809D01*
X189061904Y-30380952D01*
X189014285Y-30190476D01*
X188966666Y-30095238D01*
X188871428Y-30000000D01*
X188728571Y-29952380D01*
X188633333Y-29952380D01*
X188490476Y-30000000D01*
X188442857Y-30047619D01*
X187490476Y-30952380D02*
X188061904Y-30952380D01*
X187776190Y-30952380D02*
X187776190Y-29952380D01*
X187871428Y-30095238D01*
X187966666Y-30190476D01*
X188061904Y-30238095D01*
X186538095Y-30952380D02*
X187109523Y-30952380D01*
X186823809Y-30952380D02*
X186823809Y-29952380D01*
X186919047Y-30095238D01*
X187014285Y-30190476D01*
X187109523Y-30238095D01*
%TO.C,C12*%
X188642857Y-36037142D02*
X188690476Y-36084761D01*
X188833333Y-36132380D01*
X188928571Y-36132380D01*
X189071428Y-36084761D01*
X189166666Y-35989523D01*
X189214285Y-35894285D01*
X189261904Y-35703809D01*
X189261904Y-35560952D01*
X189214285Y-35370476D01*
X189166666Y-35275238D01*
X189071428Y-35180000D01*
X188928571Y-35132380D01*
X188833333Y-35132380D01*
X188690476Y-35180000D01*
X188642857Y-35227619D01*
X187690476Y-36132380D02*
X188261904Y-36132380D01*
X187976190Y-36132380D02*
X187976190Y-35132380D01*
X188071428Y-35275238D01*
X188166666Y-35370476D01*
X188261904Y-35418095D01*
X187309523Y-35227619D02*
X187261904Y-35180000D01*
X187166666Y-35132380D01*
X186928571Y-35132380D01*
X186833333Y-35180000D01*
X186785714Y-35227619D01*
X186738095Y-35322857D01*
X186738095Y-35418095D01*
X186785714Y-35560952D01*
X187357142Y-36132380D01*
X186738095Y-36132380D01*
%TO.C,C20*%
X196037142Y-39357142D02*
X196084761Y-39309523D01*
X196132380Y-39166666D01*
X196132380Y-39071428D01*
X196084761Y-38928571D01*
X195989523Y-38833333D01*
X195894285Y-38785714D01*
X195703809Y-38738095D01*
X195560952Y-38738095D01*
X195370476Y-38785714D01*
X195275238Y-38833333D01*
X195180000Y-38928571D01*
X195132380Y-39071428D01*
X195132380Y-39166666D01*
X195180000Y-39309523D01*
X195227619Y-39357142D01*
X195227619Y-39738095D02*
X195180000Y-39785714D01*
X195132380Y-39880952D01*
X195132380Y-40119047D01*
X195180000Y-40214285D01*
X195227619Y-40261904D01*
X195322857Y-40309523D01*
X195418095Y-40309523D01*
X195560952Y-40261904D01*
X196132380Y-39690476D01*
X196132380Y-40309523D01*
X195132380Y-40928571D02*
X195132380Y-41023809D01*
X195180000Y-41119047D01*
X195227619Y-41166666D01*
X195322857Y-41214285D01*
X195513333Y-41261904D01*
X195751428Y-41261904D01*
X195941904Y-41214285D01*
X196037142Y-41166666D01*
X196084761Y-41119047D01*
X196132380Y-41023809D01*
X196132380Y-40928571D01*
X196084761Y-40833333D01*
X196037142Y-40785714D01*
X195941904Y-40738095D01*
X195751428Y-40690476D01*
X195513333Y-40690476D01*
X195322857Y-40738095D01*
X195227619Y-40785714D01*
X195180000Y-40833333D01*
X195132380Y-40928571D01*
%TO.C,C21*%
X190797142Y-39347142D02*
X190844761Y-39299523D01*
X190892380Y-39156666D01*
X190892380Y-39061428D01*
X190844761Y-38918571D01*
X190749523Y-38823333D01*
X190654285Y-38775714D01*
X190463809Y-38728095D01*
X190320952Y-38728095D01*
X190130476Y-38775714D01*
X190035238Y-38823333D01*
X189940000Y-38918571D01*
X189892380Y-39061428D01*
X189892380Y-39156666D01*
X189940000Y-39299523D01*
X189987619Y-39347142D01*
X189987619Y-39728095D02*
X189940000Y-39775714D01*
X189892380Y-39870952D01*
X189892380Y-40109047D01*
X189940000Y-40204285D01*
X189987619Y-40251904D01*
X190082857Y-40299523D01*
X190178095Y-40299523D01*
X190320952Y-40251904D01*
X190892380Y-39680476D01*
X190892380Y-40299523D01*
X190892380Y-41251904D02*
X190892380Y-40680476D01*
X190892380Y-40966190D02*
X189892380Y-40966190D01*
X190035238Y-40870952D01*
X190130476Y-40775714D01*
X190178095Y-40680476D01*
%TO.C,C22*%
X196037142Y-35357142D02*
X196084761Y-35309523D01*
X196132380Y-35166666D01*
X196132380Y-35071428D01*
X196084761Y-34928571D01*
X195989523Y-34833333D01*
X195894285Y-34785714D01*
X195703809Y-34738095D01*
X195560952Y-34738095D01*
X195370476Y-34785714D01*
X195275238Y-34833333D01*
X195180000Y-34928571D01*
X195132380Y-35071428D01*
X195132380Y-35166666D01*
X195180000Y-35309523D01*
X195227619Y-35357142D01*
X195227619Y-35738095D02*
X195180000Y-35785714D01*
X195132380Y-35880952D01*
X195132380Y-36119047D01*
X195180000Y-36214285D01*
X195227619Y-36261904D01*
X195322857Y-36309523D01*
X195418095Y-36309523D01*
X195560952Y-36261904D01*
X196132380Y-35690476D01*
X196132380Y-36309523D01*
X195227619Y-36690476D02*
X195180000Y-36738095D01*
X195132380Y-36833333D01*
X195132380Y-37071428D01*
X195180000Y-37166666D01*
X195227619Y-37214285D01*
X195322857Y-37261904D01*
X195418095Y-37261904D01*
X195560952Y-37214285D01*
X196132380Y-36642857D01*
X196132380Y-37261904D01*
%TO.C,C23*%
X190867142Y-35407142D02*
X190914761Y-35359523D01*
X190962380Y-35216666D01*
X190962380Y-35121428D01*
X190914761Y-34978571D01*
X190819523Y-34883333D01*
X190724285Y-34835714D01*
X190533809Y-34788095D01*
X190390952Y-34788095D01*
X190200476Y-34835714D01*
X190105238Y-34883333D01*
X190010000Y-34978571D01*
X189962380Y-35121428D01*
X189962380Y-35216666D01*
X190010000Y-35359523D01*
X190057619Y-35407142D01*
X190057619Y-35788095D02*
X190010000Y-35835714D01*
X189962380Y-35930952D01*
X189962380Y-36169047D01*
X190010000Y-36264285D01*
X190057619Y-36311904D01*
X190152857Y-36359523D01*
X190248095Y-36359523D01*
X190390952Y-36311904D01*
X190962380Y-35740476D01*
X190962380Y-36359523D01*
X189962380Y-36692857D02*
X189962380Y-37311904D01*
X190343333Y-36978571D01*
X190343333Y-37121428D01*
X190390952Y-37216666D01*
X190438571Y-37264285D01*
X190533809Y-37311904D01*
X190771904Y-37311904D01*
X190867142Y-37264285D01*
X190914761Y-37216666D01*
X190962380Y-37121428D01*
X190962380Y-36835714D01*
X190914761Y-36740476D01*
X190867142Y-36692857D01*
%TO.C,C24*%
X180342857Y-47357142D02*
X180390476Y-47404761D01*
X180533333Y-47452380D01*
X180628571Y-47452380D01*
X180771428Y-47404761D01*
X180866666Y-47309523D01*
X180914285Y-47214285D01*
X180961904Y-47023809D01*
X180961904Y-46880952D01*
X180914285Y-46690476D01*
X180866666Y-46595238D01*
X180771428Y-46500000D01*
X180628571Y-46452380D01*
X180533333Y-46452380D01*
X180390476Y-46500000D01*
X180342857Y-46547619D01*
X179961904Y-46547619D02*
X179914285Y-46500000D01*
X179819047Y-46452380D01*
X179580952Y-46452380D01*
X179485714Y-46500000D01*
X179438095Y-46547619D01*
X179390476Y-46642857D01*
X179390476Y-46738095D01*
X179438095Y-46880952D01*
X180009523Y-47452380D01*
X179390476Y-47452380D01*
X178533333Y-46785714D02*
X178533333Y-47452380D01*
X178771428Y-46404761D02*
X179009523Y-47119047D01*
X178390476Y-47119047D01*
%TO.C,C25*%
X180442857Y-45957142D02*
X180490476Y-46004761D01*
X180633333Y-46052380D01*
X180728571Y-46052380D01*
X180871428Y-46004761D01*
X180966666Y-45909523D01*
X181014285Y-45814285D01*
X181061904Y-45623809D01*
X181061904Y-45480952D01*
X181014285Y-45290476D01*
X180966666Y-45195238D01*
X180871428Y-45100000D01*
X180728571Y-45052380D01*
X180633333Y-45052380D01*
X180490476Y-45100000D01*
X180442857Y-45147619D01*
X180061904Y-45147619D02*
X180014285Y-45100000D01*
X179919047Y-45052380D01*
X179680952Y-45052380D01*
X179585714Y-45100000D01*
X179538095Y-45147619D01*
X179490476Y-45242857D01*
X179490476Y-45338095D01*
X179538095Y-45480952D01*
X180109523Y-46052380D01*
X179490476Y-46052380D01*
X178585714Y-45052380D02*
X179061904Y-45052380D01*
X179109523Y-45528571D01*
X179061904Y-45480952D01*
X178966666Y-45433333D01*
X178728571Y-45433333D01*
X178633333Y-45480952D01*
X178585714Y-45528571D01*
X178538095Y-45623809D01*
X178538095Y-45861904D01*
X178585714Y-45957142D01*
X178633333Y-46004761D01*
X178728571Y-46052380D01*
X178966666Y-46052380D01*
X179061904Y-46004761D01*
X179109523Y-45957142D01*
%TO.C,C28*%
X192042857Y-47257142D02*
X192090476Y-47304761D01*
X192233333Y-47352380D01*
X192328571Y-47352380D01*
X192471428Y-47304761D01*
X192566666Y-47209523D01*
X192614285Y-47114285D01*
X192661904Y-46923809D01*
X192661904Y-46780952D01*
X192614285Y-46590476D01*
X192566666Y-46495238D01*
X192471428Y-46400000D01*
X192328571Y-46352380D01*
X192233333Y-46352380D01*
X192090476Y-46400000D01*
X192042857Y-46447619D01*
X191661904Y-46447619D02*
X191614285Y-46400000D01*
X191519047Y-46352380D01*
X191280952Y-46352380D01*
X191185714Y-46400000D01*
X191138095Y-46447619D01*
X191090476Y-46542857D01*
X191090476Y-46638095D01*
X191138095Y-46780952D01*
X191709523Y-47352380D01*
X191090476Y-47352380D01*
X190519047Y-46780952D02*
X190614285Y-46733333D01*
X190661904Y-46685714D01*
X190709523Y-46590476D01*
X190709523Y-46542857D01*
X190661904Y-46447619D01*
X190614285Y-46400000D01*
X190519047Y-46352380D01*
X190328571Y-46352380D01*
X190233333Y-46400000D01*
X190185714Y-46447619D01*
X190138095Y-46542857D01*
X190138095Y-46590476D01*
X190185714Y-46685714D01*
X190233333Y-46733333D01*
X190328571Y-46780952D01*
X190519047Y-46780952D01*
X190614285Y-46828571D01*
X190661904Y-46876190D01*
X190709523Y-46971428D01*
X190709523Y-47161904D01*
X190661904Y-47257142D01*
X190614285Y-47304761D01*
X190519047Y-47352380D01*
X190328571Y-47352380D01*
X190233333Y-47304761D01*
X190185714Y-47257142D01*
X190138095Y-47161904D01*
X190138095Y-46971428D01*
X190185714Y-46876190D01*
X190233333Y-46828571D01*
X190328571Y-46780952D01*
%TO.C,C29*%
X191942857Y-45557142D02*
X191990476Y-45604761D01*
X192133333Y-45652380D01*
X192228571Y-45652380D01*
X192371428Y-45604761D01*
X192466666Y-45509523D01*
X192514285Y-45414285D01*
X192561904Y-45223809D01*
X192561904Y-45080952D01*
X192514285Y-44890476D01*
X192466666Y-44795238D01*
X192371428Y-44700000D01*
X192228571Y-44652380D01*
X192133333Y-44652380D01*
X191990476Y-44700000D01*
X191942857Y-44747619D01*
X191561904Y-44747619D02*
X191514285Y-44700000D01*
X191419047Y-44652380D01*
X191180952Y-44652380D01*
X191085714Y-44700000D01*
X191038095Y-44747619D01*
X190990476Y-44842857D01*
X190990476Y-44938095D01*
X191038095Y-45080952D01*
X191609523Y-45652380D01*
X190990476Y-45652380D01*
X190514285Y-45652380D02*
X190323809Y-45652380D01*
X190228571Y-45604761D01*
X190180952Y-45557142D01*
X190085714Y-45414285D01*
X190038095Y-45223809D01*
X190038095Y-44842857D01*
X190085714Y-44747619D01*
X190133333Y-44700000D01*
X190228571Y-44652380D01*
X190419047Y-44652380D01*
X190514285Y-44700000D01*
X190561904Y-44747619D01*
X190609523Y-44842857D01*
X190609523Y-45080952D01*
X190561904Y-45176190D01*
X190514285Y-45223809D01*
X190419047Y-45271428D01*
X190228571Y-45271428D01*
X190133333Y-45223809D01*
X190085714Y-45176190D01*
X190038095Y-45080952D01*
%TO.C,C31*%
X194742857Y-28257142D02*
X194790476Y-28304761D01*
X194933333Y-28352380D01*
X195028571Y-28352380D01*
X195171428Y-28304761D01*
X195266666Y-28209523D01*
X195314285Y-28114285D01*
X195361904Y-27923809D01*
X195361904Y-27780952D01*
X195314285Y-27590476D01*
X195266666Y-27495238D01*
X195171428Y-27400000D01*
X195028571Y-27352380D01*
X194933333Y-27352380D01*
X194790476Y-27400000D01*
X194742857Y-27447619D01*
X194409523Y-27352380D02*
X193790476Y-27352380D01*
X194123809Y-27733333D01*
X193980952Y-27733333D01*
X193885714Y-27780952D01*
X193838095Y-27828571D01*
X193790476Y-27923809D01*
X193790476Y-28161904D01*
X193838095Y-28257142D01*
X193885714Y-28304761D01*
X193980952Y-28352380D01*
X194266666Y-28352380D01*
X194361904Y-28304761D01*
X194409523Y-28257142D01*
X192838095Y-28352380D02*
X193409523Y-28352380D01*
X193123809Y-28352380D02*
X193123809Y-27352380D01*
X193219047Y-27495238D01*
X193314285Y-27590476D01*
X193409523Y-27638095D01*
%TO.C,C32*%
X191642857Y-32037142D02*
X191690476Y-32084761D01*
X191833333Y-32132380D01*
X191928571Y-32132380D01*
X192071428Y-32084761D01*
X192166666Y-31989523D01*
X192214285Y-31894285D01*
X192261904Y-31703809D01*
X192261904Y-31560952D01*
X192214285Y-31370476D01*
X192166666Y-31275238D01*
X192071428Y-31180000D01*
X191928571Y-31132380D01*
X191833333Y-31132380D01*
X191690476Y-31180000D01*
X191642857Y-31227619D01*
X191309523Y-31132380D02*
X190690476Y-31132380D01*
X191023809Y-31513333D01*
X190880952Y-31513333D01*
X190785714Y-31560952D01*
X190738095Y-31608571D01*
X190690476Y-31703809D01*
X190690476Y-31941904D01*
X190738095Y-32037142D01*
X190785714Y-32084761D01*
X190880952Y-32132380D01*
X191166666Y-32132380D01*
X191261904Y-32084761D01*
X191309523Y-32037142D01*
X190309523Y-31227619D02*
X190261904Y-31180000D01*
X190166666Y-31132380D01*
X189928571Y-31132380D01*
X189833333Y-31180000D01*
X189785714Y-31227619D01*
X189738095Y-31322857D01*
X189738095Y-31418095D01*
X189785714Y-31560952D01*
X190357142Y-32132380D01*
X189738095Y-32132380D01*
%TO.C,C33*%
X177457142Y-39157142D02*
X177504761Y-39109523D01*
X177552380Y-38966666D01*
X177552380Y-38871428D01*
X177504761Y-38728571D01*
X177409523Y-38633333D01*
X177314285Y-38585714D01*
X177123809Y-38538095D01*
X176980952Y-38538095D01*
X176790476Y-38585714D01*
X176695238Y-38633333D01*
X176600000Y-38728571D01*
X176552380Y-38871428D01*
X176552380Y-38966666D01*
X176600000Y-39109523D01*
X176647619Y-39157142D01*
X176552380Y-39490476D02*
X176552380Y-40109523D01*
X176933333Y-39776190D01*
X176933333Y-39919047D01*
X176980952Y-40014285D01*
X177028571Y-40061904D01*
X177123809Y-40109523D01*
X177361904Y-40109523D01*
X177457142Y-40061904D01*
X177504761Y-40014285D01*
X177552380Y-39919047D01*
X177552380Y-39633333D01*
X177504761Y-39538095D01*
X177457142Y-39490476D01*
X176552380Y-40442857D02*
X176552380Y-41061904D01*
X176933333Y-40728571D01*
X176933333Y-40871428D01*
X176980952Y-40966666D01*
X177028571Y-41014285D01*
X177123809Y-41061904D01*
X177361904Y-41061904D01*
X177457142Y-41014285D01*
X177504761Y-40966666D01*
X177552380Y-40871428D01*
X177552380Y-40585714D01*
X177504761Y-40490476D01*
X177457142Y-40442857D01*
%TO.C,C34*%
X179557142Y-39157142D02*
X179604761Y-39109523D01*
X179652380Y-38966666D01*
X179652380Y-38871428D01*
X179604761Y-38728571D01*
X179509523Y-38633333D01*
X179414285Y-38585714D01*
X179223809Y-38538095D01*
X179080952Y-38538095D01*
X178890476Y-38585714D01*
X178795238Y-38633333D01*
X178700000Y-38728571D01*
X178652380Y-38871428D01*
X178652380Y-38966666D01*
X178700000Y-39109523D01*
X178747619Y-39157142D01*
X178652380Y-39490476D02*
X178652380Y-40109523D01*
X179033333Y-39776190D01*
X179033333Y-39919047D01*
X179080952Y-40014285D01*
X179128571Y-40061904D01*
X179223809Y-40109523D01*
X179461904Y-40109523D01*
X179557142Y-40061904D01*
X179604761Y-40014285D01*
X179652380Y-39919047D01*
X179652380Y-39633333D01*
X179604761Y-39538095D01*
X179557142Y-39490476D01*
X178985714Y-40966666D02*
X179652380Y-40966666D01*
X178604761Y-40728571D02*
X179319047Y-40490476D01*
X179319047Y-41109523D01*
%TO.C,R3*%
X230166666Y-55452380D02*
X230500000Y-54976190D01*
X230738095Y-55452380D02*
X230738095Y-54452380D01*
X230357142Y-54452380D01*
X230261904Y-54500000D01*
X230214285Y-54547619D01*
X230166666Y-54642857D01*
X230166666Y-54785714D01*
X230214285Y-54880952D01*
X230261904Y-54928571D01*
X230357142Y-54976190D01*
X230738095Y-54976190D01*
X229833333Y-54452380D02*
X229214285Y-54452380D01*
X229547619Y-54833333D01*
X229404761Y-54833333D01*
X229309523Y-54880952D01*
X229261904Y-54928571D01*
X229214285Y-55023809D01*
X229214285Y-55261904D01*
X229261904Y-55357142D01*
X229309523Y-55404761D01*
X229404761Y-55452380D01*
X229690476Y-55452380D01*
X229785714Y-55404761D01*
X229833333Y-55357142D01*
%TO.C,R4*%
X224166666Y-42802380D02*
X224500000Y-42326190D01*
X224738095Y-42802380D02*
X224738095Y-41802380D01*
X224357142Y-41802380D01*
X224261904Y-41850000D01*
X224214285Y-41897619D01*
X224166666Y-41992857D01*
X224166666Y-42135714D01*
X224214285Y-42230952D01*
X224261904Y-42278571D01*
X224357142Y-42326190D01*
X224738095Y-42326190D01*
X223309523Y-42135714D02*
X223309523Y-42802380D01*
X223547619Y-41754761D02*
X223785714Y-42469047D01*
X223166666Y-42469047D01*
%TO.C,R5*%
X219166666Y-55452380D02*
X219500000Y-54976190D01*
X219738095Y-55452380D02*
X219738095Y-54452380D01*
X219357142Y-54452380D01*
X219261904Y-54500000D01*
X219214285Y-54547619D01*
X219166666Y-54642857D01*
X219166666Y-54785714D01*
X219214285Y-54880952D01*
X219261904Y-54928571D01*
X219357142Y-54976190D01*
X219738095Y-54976190D01*
X218261904Y-54452380D02*
X218738095Y-54452380D01*
X218785714Y-54928571D01*
X218738095Y-54880952D01*
X218642857Y-54833333D01*
X218404761Y-54833333D01*
X218309523Y-54880952D01*
X218261904Y-54928571D01*
X218214285Y-55023809D01*
X218214285Y-55261904D01*
X218261904Y-55357142D01*
X218309523Y-55404761D01*
X218404761Y-55452380D01*
X218642857Y-55452380D01*
X218738095Y-55404761D01*
X218785714Y-55357142D01*
%TO.C,R6*%
X234166666Y-55452380D02*
X234500000Y-54976190D01*
X234738095Y-55452380D02*
X234738095Y-54452380D01*
X234357142Y-54452380D01*
X234261904Y-54500000D01*
X234214285Y-54547619D01*
X234166666Y-54642857D01*
X234166666Y-54785714D01*
X234214285Y-54880952D01*
X234261904Y-54928571D01*
X234357142Y-54976190D01*
X234738095Y-54976190D01*
X233309523Y-54452380D02*
X233500000Y-54452380D01*
X233595238Y-54500000D01*
X233642857Y-54547619D01*
X233738095Y-54690476D01*
X233785714Y-54880952D01*
X233785714Y-55261904D01*
X233738095Y-55357142D01*
X233690476Y-55404761D01*
X233595238Y-55452380D01*
X233404761Y-55452380D01*
X233309523Y-55404761D01*
X233261904Y-55357142D01*
X233214285Y-55261904D01*
X233214285Y-55023809D01*
X233261904Y-54928571D01*
X233309523Y-54880952D01*
X233404761Y-54833333D01*
X233595238Y-54833333D01*
X233690476Y-54880952D01*
X233738095Y-54928571D01*
X233785714Y-55023809D01*
%TO.C,R7*%
X191166666Y-25022380D02*
X191500000Y-24546190D01*
X191738095Y-25022380D02*
X191738095Y-24022380D01*
X191357142Y-24022380D01*
X191261904Y-24070000D01*
X191214285Y-24117619D01*
X191166666Y-24212857D01*
X191166666Y-24355714D01*
X191214285Y-24450952D01*
X191261904Y-24498571D01*
X191357142Y-24546190D01*
X191738095Y-24546190D01*
X190833333Y-24022380D02*
X190166666Y-24022380D01*
X190595238Y-25022380D01*
%TO.C,R8*%
X183166666Y-24452380D02*
X183500000Y-23976190D01*
X183738095Y-24452380D02*
X183738095Y-23452380D01*
X183357142Y-23452380D01*
X183261904Y-23500000D01*
X183214285Y-23547619D01*
X183166666Y-23642857D01*
X183166666Y-23785714D01*
X183214285Y-23880952D01*
X183261904Y-23928571D01*
X183357142Y-23976190D01*
X183738095Y-23976190D01*
X182595238Y-23880952D02*
X182690476Y-23833333D01*
X182738095Y-23785714D01*
X182785714Y-23690476D01*
X182785714Y-23642857D01*
X182738095Y-23547619D01*
X182690476Y-23500000D01*
X182595238Y-23452380D01*
X182404761Y-23452380D01*
X182309523Y-23500000D01*
X182261904Y-23547619D01*
X182214285Y-23642857D01*
X182214285Y-23690476D01*
X182261904Y-23785714D01*
X182309523Y-23833333D01*
X182404761Y-23880952D01*
X182595238Y-23880952D01*
X182690476Y-23928571D01*
X182738095Y-23976190D01*
X182785714Y-24071428D01*
X182785714Y-24261904D01*
X182738095Y-24357142D01*
X182690476Y-24404761D01*
X182595238Y-24452380D01*
X182404761Y-24452380D01*
X182309523Y-24404761D01*
X182261904Y-24357142D01*
X182214285Y-24261904D01*
X182214285Y-24071428D01*
X182261904Y-23976190D01*
X182309523Y-23928571D01*
X182404761Y-23880952D01*
%TO.C,R9*%
X240166666Y-44452380D02*
X240500000Y-43976190D01*
X240738095Y-44452380D02*
X240738095Y-43452380D01*
X240357142Y-43452380D01*
X240261904Y-43500000D01*
X240214285Y-43547619D01*
X240166666Y-43642857D01*
X240166666Y-43785714D01*
X240214285Y-43880952D01*
X240261904Y-43928571D01*
X240357142Y-43976190D01*
X240738095Y-43976190D01*
X239690476Y-44452380D02*
X239500000Y-44452380D01*
X239404761Y-44404761D01*
X239357142Y-44357142D01*
X239261904Y-44214285D01*
X239214285Y-44023809D01*
X239214285Y-43642857D01*
X239261904Y-43547619D01*
X239309523Y-43500000D01*
X239404761Y-43452380D01*
X239595238Y-43452380D01*
X239690476Y-43500000D01*
X239738095Y-43547619D01*
X239785714Y-43642857D01*
X239785714Y-43880952D01*
X239738095Y-43976190D01*
X239690476Y-44023809D01*
X239595238Y-44071428D01*
X239404761Y-44071428D01*
X239309523Y-44023809D01*
X239261904Y-43976190D01*
X239214285Y-43880952D01*
%TO.C,R10*%
X188452380Y-23357142D02*
X187976190Y-23023809D01*
X188452380Y-22785714D02*
X187452380Y-22785714D01*
X187452380Y-23166666D01*
X187500000Y-23261904D01*
X187547619Y-23309523D01*
X187642857Y-23357142D01*
X187785714Y-23357142D01*
X187880952Y-23309523D01*
X187928571Y-23261904D01*
X187976190Y-23166666D01*
X187976190Y-22785714D01*
X188452380Y-24309523D02*
X188452380Y-23738095D01*
X188452380Y-24023809D02*
X187452380Y-24023809D01*
X187595238Y-23928571D01*
X187690476Y-23833333D01*
X187738095Y-23738095D01*
X187452380Y-24928571D02*
X187452380Y-25023809D01*
X187500000Y-25119047D01*
X187547619Y-25166666D01*
X187642857Y-25214285D01*
X187833333Y-25261904D01*
X188071428Y-25261904D01*
X188261904Y-25214285D01*
X188357142Y-25166666D01*
X188404761Y-25119047D01*
X188452380Y-25023809D01*
X188452380Y-24928571D01*
X188404761Y-24833333D01*
X188357142Y-24785714D01*
X188261904Y-24738095D01*
X188071428Y-24690476D01*
X187833333Y-24690476D01*
X187642857Y-24738095D01*
X187547619Y-24785714D01*
X187500000Y-24833333D01*
X187452380Y-24928571D01*
%TO.C,R11*%
X245642857Y-55452380D02*
X245976190Y-54976190D01*
X246214285Y-55452380D02*
X246214285Y-54452380D01*
X245833333Y-54452380D01*
X245738095Y-54500000D01*
X245690476Y-54547619D01*
X245642857Y-54642857D01*
X245642857Y-54785714D01*
X245690476Y-54880952D01*
X245738095Y-54928571D01*
X245833333Y-54976190D01*
X246214285Y-54976190D01*
X244690476Y-55452380D02*
X245261904Y-55452380D01*
X244976190Y-55452380D02*
X244976190Y-54452380D01*
X245071428Y-54595238D01*
X245166666Y-54690476D01*
X245261904Y-54738095D01*
X243738095Y-55452380D02*
X244309523Y-55452380D01*
X244023809Y-55452380D02*
X244023809Y-54452380D01*
X244119047Y-54595238D01*
X244214285Y-54690476D01*
X244309523Y-54738095D01*
%TO.C,R12*%
X237642857Y-40452380D02*
X237976190Y-39976190D01*
X238214285Y-40452380D02*
X238214285Y-39452380D01*
X237833333Y-39452380D01*
X237738095Y-39500000D01*
X237690476Y-39547619D01*
X237642857Y-39642857D01*
X237642857Y-39785714D01*
X237690476Y-39880952D01*
X237738095Y-39928571D01*
X237833333Y-39976190D01*
X238214285Y-39976190D01*
X236690476Y-40452380D02*
X237261904Y-40452380D01*
X236976190Y-40452380D02*
X236976190Y-39452380D01*
X237071428Y-39595238D01*
X237166666Y-39690476D01*
X237261904Y-39738095D01*
X236309523Y-39547619D02*
X236261904Y-39500000D01*
X236166666Y-39452380D01*
X235928571Y-39452380D01*
X235833333Y-39500000D01*
X235785714Y-39547619D01*
X235738095Y-39642857D01*
X235738095Y-39738095D01*
X235785714Y-39880952D01*
X236357142Y-40452380D01*
X235738095Y-40452380D01*
%TO.C,R13*%
X186452380Y-23357142D02*
X185976190Y-23023809D01*
X186452380Y-22785714D02*
X185452380Y-22785714D01*
X185452380Y-23166666D01*
X185500000Y-23261904D01*
X185547619Y-23309523D01*
X185642857Y-23357142D01*
X185785714Y-23357142D01*
X185880952Y-23309523D01*
X185928571Y-23261904D01*
X185976190Y-23166666D01*
X185976190Y-22785714D01*
X186452380Y-24309523D02*
X186452380Y-23738095D01*
X186452380Y-24023809D02*
X185452380Y-24023809D01*
X185595238Y-23928571D01*
X185690476Y-23833333D01*
X185738095Y-23738095D01*
X185452380Y-24642857D02*
X185452380Y-25261904D01*
X185833333Y-24928571D01*
X185833333Y-25071428D01*
X185880952Y-25166666D01*
X185928571Y-25214285D01*
X186023809Y-25261904D01*
X186261904Y-25261904D01*
X186357142Y-25214285D01*
X186404761Y-25166666D01*
X186452380Y-25071428D01*
X186452380Y-24785714D01*
X186404761Y-24690476D01*
X186357142Y-24642857D01*
%TO.C,J2*%
X220172380Y-49056666D02*
X220886666Y-49056666D01*
X221029523Y-49009047D01*
X221124761Y-48913809D01*
X221172380Y-48770952D01*
X221172380Y-48675714D01*
X220267619Y-49485238D02*
X220220000Y-49532857D01*
X220172380Y-49628095D01*
X220172380Y-49866190D01*
X220220000Y-49961428D01*
X220267619Y-50009047D01*
X220362857Y-50056666D01*
X220458095Y-50056666D01*
X220600952Y-50009047D01*
X221172380Y-49437619D01*
X221172380Y-50056666D01*
%TD*%
M02*
