M48
; DRILL file {KiCad 5.1.9+dfsg1-1+deb11u1} date Mon Oct 27 09:59:14 2025
; FORMAT={-:-/ absolute / metric / decimal}
; #@! TF.CreationDate,2025-10-27T09:59:14+01:00
; #@! TF.GenerationSoftware,Kicad,Pcbnew,5.1.9+dfsg1-1+deb11u1
; #@! TF.FileFunction,Plated,1,4,PTH
FMAT,2
METRIC
T1C0.200
T2C0.400
T3C0.650
T4C1.000
T5C1.100
T6C3.250
%
G90
G05
T1
X205.33Y-85.4
X206.32Y-84.41
X206.32Y-86.39
X207.31Y-83.42
X207.31Y-85.4
X207.31Y-87.38
X208.3Y-82.43
X208.3Y-84.41
X208.3Y-86.39
X208.3Y-88.37
X209.29Y-83.42
X209.29Y-85.4
X209.29Y-87.38
X210.28Y-84.41
X210.28Y-86.39
X211.27Y-85.4
X242.73Y-117.57
X242.73Y-118.57
X242.73Y-119.57
X242.73Y-120.57
X242.73Y-121.57
X243.73Y-117.57
X243.73Y-118.57
X243.73Y-119.57
X243.73Y-120.57
X243.73Y-121.57
X244.73Y-117.57
X244.73Y-118.57
X244.73Y-119.57
X244.73Y-120.57
X244.73Y-121.57
X245.73Y-117.57
X245.73Y-118.57
X245.73Y-119.57
X245.73Y-120.57
X245.73Y-121.57
X246.73Y-117.57
X246.73Y-118.57
X246.73Y-119.57
X246.73Y-120.57
X246.73Y-121.57
T2
X134.1Y-68.55
X135.975Y-63.5
X136.125Y-76.4
X137.05Y-93.175
X138.0Y-53.025
X138.725Y-61.975
X139.025Y-82.375
X139.975Y-82.375
X140.3Y-90.1
X141.975Y-72.925
X143.525Y-82.0
X144.3Y-79.775
X144.575Y-70.325
X144.875Y-82.0
X144.875Y-83.4
X144.875Y-84.75
X144.875Y-85.925
X145.6Y-95.0
X146.05Y-82.0
X148.175Y-68.05
X149.525Y-76.975
X149.825Y-87.225
X149.95Y-91.75
X150.425Y-82.0
X150.8Y-66.0
X150.85Y-70.35
X152.1Y-61.0
X153.0Y-95.2
X153.1Y-65.975
X153.125Y-70.35
X153.3Y-83.1
X154.05Y-86.675
X155.0Y-59.075
X155.525Y-65.975
X155.65Y-68.0
X155.65Y-70.3
X156.18Y-55.14
X157.38Y-91.0
X157.59Y-50.85
X158.08Y-61.0
X158.1Y-58.025
X158.8Y-55.36
X158.9Y-96.1
X159.71Y-51.9
X160.31Y-60.76
X160.54Y-50.13
X160.9Y-65.0
X161.475Y-64.05
X162.218Y-75.262
X163.42Y-50.95
X163.59Y-71.28
X163.78Y-65.87
X164.192Y-58.411
X164.275Y-139.75
X164.425Y-78.625
X164.47Y-74.93
X164.79Y-94.2
X164.86Y-83.29
X165.0Y-59.0
X165.3Y-139.75
X165.97Y-151.75
X166.35Y-183.49
X166.35Y-200.85
X166.4Y-139.7
X166.45Y-202.6
X167.532Y-139.738
X167.63Y-178.27
X167.649Y-182.255
X167.927Y-70.863
X168.18Y-91.075
X168.3Y-100.475
X168.62Y-48.84
X168.627Y-139.75
X169.0Y-132.96
X169.215Y-61.0
X169.74Y-173.28
X169.975Y-139.75
X170.0Y-55.0
X170.0Y-76.1
X170.15Y-70.65
X170.47Y-184.97
X171.12Y-118.79
X171.37Y-88.89
X171.44Y-97.79
X171.85Y-139.75
X171.95Y-76.15
X172.1Y-70.7
X172.225Y-92.45
X172.325Y-94.75
X172.65Y-190.8
X173.091Y-183.218
X173.275Y-189.825
X174.319Y-183.421
X174.77Y-172.89
X174.978Y-68.1
X175.2Y-52.03
X175.29Y-203.1
X175.336Y-182.446
X175.53Y-100.99
X175.725Y-58.1
X175.8Y-60.35
X176.84Y-181.65
X177.29Y-77.49
X177.49Y-94.52
X178.04Y-188.75
X178.25Y-190.1
X178.4Y-193.15
X178.92Y-70.32
X179.0Y-131.0
X179.0Y-133.0
X179.0Y-135.0
X179.0Y-137.0
X179.04Y-175.62
X179.1Y-187.75
X179.75Y-202.55
X181.0Y-131.0
X181.0Y-133.0
X181.0Y-135.0
X181.0Y-137.0
X181.4Y-98.21
X181.9Y-188.95
X182.365Y-179.75
X182.49Y-182.38
X182.81Y-113.72
X183.0Y-131.0
X183.0Y-133.0
X183.0Y-135.0
X183.0Y-137.0
X183.16Y-192.12
X183.77Y-115.895
X183.815Y-179.75
X184.32Y-59.05
X184.57Y-62.89
X184.67Y-113.72
X185.0Y-131.0
X185.0Y-133.0
X185.0Y-135.0
X185.0Y-137.0
X185.675Y-76.6
X186.275Y-72.5
X186.875Y-68.6
X187.0Y-131.0
X187.0Y-133.0
X187.0Y-135.0
X187.0Y-137.0
X188.6Y-68.6
X188.6Y-76.0
X188.7Y-72.5
X189.55Y-90.0
X190.52Y-86.48
X190.8Y-182.38
X191.999Y-61.575
X193.06Y-118.54
X193.455Y-113.73
X194.13Y-138.53
X194.18Y-82.001
X194.92Y-113.69
X195.52Y-118.495
X195.9Y-80.5
X196.94Y-56.36
X197.68Y-99.88
X197.93Y-133.33
X198.58Y-92.76
X199.0Y-162.5
X199.695Y-68.23
X200.0Y-81.975
X200.001Y-89.721
X200.355Y-179.75
X200.408Y-90.634
X200.8Y-96.0
X200.9Y-115.6
X200.995Y-78.9
X201.147Y-91.308
X201.15Y-87.44
X201.535Y-76.53
X201.87Y-179.75
X202.015Y-73.5
X202.125Y-91.1
X202.445Y-78.975
X202.465Y-70.59
X202.6Y-92.4
X202.91Y-182.64
X202.93Y-81.98
X203.709Y-91.212
X204.307Y-74.563
X204.375Y-78.6
X204.43Y-70.38
X204.49Y-73.58
X204.56Y-185.77
X205.0Y-96.2
X205.65Y-98.025
X206.14Y-100.86
X206.25Y-90.65
X206.45Y-96.312
X206.55Y-118.51
X206.66Y-48.99
X206.67Y-113.71
X206.75Y-183.57
X206.79Y-182.35
X207.2Y-79.7
X207.449Y-96.268
X207.7Y-91.35
X208.456Y-96.205
X208.75Y-193.84
X208.756Y-99.925
X208.9Y-120.48
X209.53Y-113.72
X209.815Y-90.325
X209.85Y-122.77
X210.1Y-91.6
X210.748Y-90.683
X211.4Y-153.0
X211.692Y-91.014
X211.71Y-132.34
X211.845Y-183.6
X211.9Y-115.7
X212.0Y-98.0
X212.3Y-186.925
X212.32Y-77.469
X212.4Y-178.725
X212.51Y-103.9
X212.739Y-87.975
X212.955Y-62.57
X213.05Y-55.61
X213.25Y-120.48
X213.33Y-100.42
X213.663Y-203.263
X213.725Y-171.02
X214.191Y-183.519
X214.45Y-155.25
X214.601Y-188.375
X214.775Y-143.525
X214.88Y-175.95
X214.9Y-80.269
X214.96Y-126.62
X215.036Y-81.26
X215.23Y-96.33
X215.27Y-182.22
X215.45Y-68.7
X215.5Y-82.3
X215.5Y-171.76
X215.525Y-100.36
X215.525Y-113.06
X215.62Y-173.87
X215.77Y-120.47
X215.88Y-188.135
X215.91Y-117.77
X215.95Y-56.78
X216.0Y-89.2
X216.085Y-77.3
X216.16Y-122.32
X216.535Y-73.89
X216.67Y-127.11
X216.7Y-143.525
X216.92Y-91.92
X216.985Y-67.08
X217.1Y-130.37
X217.17Y-102.15
X217.374Y-177.953
X217.61Y-83.02
X217.75Y-124.975
X217.85Y-182.65
X218.234Y-177.442
X218.26Y-105.37
X218.64Y-66.98
X218.75Y-73.67
X218.84Y-77.34
X218.91Y-98.66
X218.93Y-78.41
X218.94Y-127.555
X219.085Y-133.24
X219.16Y-139.63
X219.32Y-173.43
X219.381Y-88.605
X219.56Y-116.62
X219.616Y-126.508
X220.085Y-174.377
X220.085Y-170.69
X220.233Y-88.081
X220.515Y-79.391
X220.535Y-133.24
X220.605Y-167.95
X220.845Y-122.7
X220.95Y-70.45
X220.966Y-78.499
X221.01Y-105.93
X221.535Y-173.64
X221.635Y-183.1
X221.825Y-172.54
X221.9Y-83.4
X221.9Y-84.7
X221.95Y-90.925
X221.97Y-130.38
X221.985Y-155.25
X222.0Y-82.1
X222.13Y-96.135
X222.52Y-106.52
X222.62Y-98.82
X222.7Y-182.5
X222.73Y-122.69
X222.73Y-122.69
X222.74Y-53.89
X222.8Y-64.425
X222.83Y-118.53
X222.895Y-176.44
X223.199Y-87.383
X223.29Y-103.34
X223.54Y-74.23
X223.63Y-183.15
X223.65Y-106.24
X223.8Y-182.0
X223.97Y-143.525
X224.11Y-155.24
X224.3Y-82.1
X224.39Y-84.7
X224.4Y-80.8
X224.4Y-83.3
X224.65Y-181.11
X224.735Y-169.27
X225.41Y-85.62
X225.43Y-108.572
X225.586Y-86.612
X225.695Y-163.13
X225.715Y-130.29
X225.72Y-183.05
X225.9Y-167.51
X225.96Y-193.44
X226.25Y-169.17
X226.45Y-92.7
X226.51Y-150.81
X226.775Y-56.175
X226.8Y-111.5
X226.82Y-87.98
X226.822Y-57.912
X226.855Y-166.865
X226.89Y-133.62
X227.02Y-177.63
X227.18Y-132.33
X227.38Y-127.11
X227.49Y-130.34
X227.5Y-149.47
X227.51Y-183.08
X227.775Y-60.375
X227.875Y-145.71
X227.9Y-58.3
X228.0Y-57.0
X228.357Y-132.648
X228.4Y-176.94
X228.446Y-83.755
X228.56Y-86.46
X228.62Y-75.75
X228.63Y-73.84
X228.66Y-124.22
X229.17Y-133.44
X229.26Y-120.44
X229.325Y-62.275
X229.459Y-87.185
X229.485Y-147.21
X229.5Y-48.7
X229.5Y-84.8
X229.53Y-145.0
X229.59Y-148.92
X229.921Y-177.2
X229.94Y-178.2
X229.941Y-78.578
X230.317Y-107.767
X230.398Y-124.172
X230.42Y-88.214
X230.5Y-59.38
X230.5Y-155.89
X230.66Y-64.55
X230.68Y-62.75
X230.913Y-127.54
X230.96Y-179.615
X231.1Y-165.45
X231.264Y-123.671
X231.369Y-107.0
X231.4Y-52.6
X231.425Y-61.725
X231.46Y-170.15
X231.46Y-173.59
X231.542Y-122.221
X231.638Y-126.558
X232.1Y-55.4
X232.125Y-63.075
X232.3Y-98.0
X232.437Y-120.219
X232.6Y-111.3
X232.6Y-180.88
X233.0Y-135.0
X233.08Y-131.01
X233.11Y-75.8
X233.32Y-125.623
X233.45Y-183.11
X233.579Y-129.296
X233.76Y-140.8
X233.934Y-107.89
X234.3Y-143.7
X234.418Y-128.012
X234.42Y-78.56
X234.475Y-54.975
X234.86Y-117.77
X234.939Y-123.57
X234.97Y-84.85
X235.075Y-127.258
X235.495Y-180.95
X235.596Y-109.149
X235.62Y-158.53
X235.66Y-124.309
X235.81Y-183.15
X236.075Y-133.0
X236.085Y-116.32
X236.09Y-125.213
X236.15Y-60.425
X236.152Y-127.914
X236.152Y-131.848
X236.17Y-164.19
X236.18Y-177.52
X236.2Y-57.95
X236.2Y-61.675
X236.315Y-175.34
X236.67Y-82.41
X236.9Y-55.5
X236.982Y-141.404
X237.0Y-134.0
X237.0Y-136.0
X237.075Y-125.043
X237.15Y-127.85
X237.195Y-63.0
X237.195Y-76.02
X237.195Y-80.1
X237.55Y-113.5
X237.61Y-132.01
X237.69Y-109.93
X237.91Y-131.03
X238.073Y-124.969
X238.178Y-127.381
X238.32Y-143.525
X238.55Y-155.51
X238.6Y-177.975
X238.863Y-118.077
X238.87Y-121.98
X238.9Y-176.525
X238.9Y-120.9
X238.912Y-119.076
X239.0Y-134.0
X239.0Y-136.0
X239.096Y-180.95
X239.187Y-161.13
X239.247Y-128.002
X239.505Y-131.01
X239.66Y-132.04
X239.69Y-183.16
X239.8Y-161.92
X239.8Y-170.34
X239.85Y-117.916
X239.9Y-167.85
X240.01Y-58.05
X240.23Y-127.73
X240.277Y-180.937
X240.55Y-202.2
X240.87Y-114.475
X241.0Y-134.0
X241.0Y-136.0
X241.0Y-138.0
X241.0Y-140.0
X241.62Y-74.91
X241.82Y-55.11
X241.9Y-182.86
X241.91Y-132.53
X242.35Y-114.38
X242.4Y-98.0
X242.69Y-103.14
X243.0Y-134.0
X243.0Y-136.0
X243.0Y-138.0
X243.0Y-140.0
X243.043Y-124.596
X243.45Y-104.87
X243.49Y-182.05
X243.92Y-175.15
X244.065Y-147.36
X244.17Y-197.35
X244.28Y-132.43
X244.283Y-105.894
X244.6Y-70.0
X244.71Y-49.26
X244.82Y-62.21
X245.0Y-134.0
X245.0Y-136.0
X245.0Y-138.0
X245.0Y-140.0
X245.0Y-146.68
X245.26Y-106.11
X245.535Y-56.175
X245.54Y-127.74
X245.7Y-51.75
X245.86Y-59.2
X245.94Y-87.35
X245.985Y-107.122
X246.195Y-125.99
X246.205Y-126.991
X246.48Y-146.91
X246.5Y-129.815
X246.57Y-140.58
X246.75Y-170.54
X246.9Y-107.525
X247.1Y-51.025
X247.1Y-74.8
X247.34Y-64.64
X247.758Y-124.817
X248.263Y-127.364
X248.33Y-62.697
X248.355Y-138.069
X248.355Y-132.79
X248.445Y-126.099
X248.45Y-107.84
X248.5Y-59.325
X248.555Y-106.48
X248.61Y-179.42
X249.0Y-53.225
X249.0Y-114.0
X249.02Y-111.21
X249.45Y-66.025
X249.7Y-59.025
X249.998Y-118.508
X250.03Y-144.82
X250.07Y-104.43
X250.08Y-132.29
X250.085Y-127.277
X250.268Y-149.938
X250.3Y-62.3
X250.325Y-65.5
X250.46Y-177.03
X250.725Y-68.3
X251.03Y-59.06
X251.036Y-119.636
X251.05Y-53.215
X251.5Y-110.66
X251.508Y-67.575
X251.775Y-65.96
X252.072Y-115.62
X252.075Y-116.62
X252.143Y-114.623
X252.3Y-53.795
X252.65Y-62.125
X252.79Y-113.49
X252.79Y-128.71
X252.8Y-117.48
X252.85Y-127.48
X253.02Y-50.175
X253.14Y-121.88
X253.15Y-118.9
X253.53Y-72.3
X253.921Y-56.191
X254.27Y-66.37
X254.38Y-126.51
X254.39Y-119.37
X254.95Y-144.5
X255.08Y-56.93
X255.18Y-108.19
X255.23Y-185.22
X255.825Y-170.14
X255.94Y-81.17
X256.22Y-65.24
X256.54Y-106.21
X256.76Y-59.67
X257.0Y-134.0
X257.4Y-79.925
X257.43Y-62.45
X258.99Y-61.225
X259.8Y-69.9
X262.32Y-93.97
X262.35Y-63.25
X262.4Y-77.4
X262.45Y-81.44
X262.57Y-83.71
X264.44Y-119.42
X264.56Y-90.88
X264.61Y-101.37
X264.79Y-88.7
X265.8Y-74.7
X266.3Y-76.5
X268.54Y-49.48
X269.21Y-53.98
X270.15Y-64.1
X270.3Y-81.13
X270.36Y-61.09
X270.53Y-107.8
X270.58Y-75.57
X271.63Y-87.44
X271.69Y-75.51
X272.4Y-129.17
X273.69Y-90.3
X273.72Y-96.46
T4
X232.6Y-49.99
X235.14Y-49.99
T5
X200.955Y-58.59
X202.1Y-56.05
X202.1Y-61.13
X203.245Y-58.59
X204.39Y-56.05
X204.39Y-61.13
X205.535Y-58.59
X206.68Y-56.05
X206.68Y-61.13
X207.825Y-58.59
X208.97Y-56.05
X208.97Y-61.13
X210.115Y-58.59
X211.26Y-56.05
X211.26Y-61.13
T6
X193.935Y-58.59
X218.925Y-58.59
T3
G00X156.18Y-50.05
M15
G01X156.18Y-48.75
M16
G05
G00X156.18Y-53.725
M15
G01X156.18Y-52.725
M16
G05
G00X164.82Y-50.05
M15
G01X164.82Y-48.75
M16
G05
G00X164.82Y-53.725
M15
G01X164.82Y-52.725
M16
G05
T0
M30
