%TF.GenerationSoftware,KiCad,Pcbnew,5.1.9+dfsg1-1+deb11u1*%
%TF.CreationDate,2025-09-17T16:16:59+02:00*%
%TF.ProjectId,VERA-MODULE-RBL,56455241-2d4d-44f4-9455-4c452d52424c,1.0*%
%TF.SameCoordinates,Original*%
%TF.FileFunction,Soldermask,Top*%
%TF.FilePolarity,Negative*%
%FSLAX46Y46*%
G04 Gerber Fmt 4.6, Leading zero omitted, Abs format (unit mm)*
G04 Created by KiCad (PCBNEW 5.1.9+dfsg1-1+deb11u1) date 2025-09-17 16:16:59*
%MOMM*%
%LPD*%
G01*
G04 APERTURE LIST*
%ADD10O,1.404000X2.604000*%
%ADD11O,1.362000X2.520000*%
%ADD12C,0.780000*%
%ADD13C,0.750000*%
%ADD14O,1.850000X1.850000*%
%ADD15C,2.150000*%
%ADD16C,1.000000*%
%ADD17C,1.950000*%
%ADD18C,1.850000*%
%ADD19C,4.470000*%
%ADD20C,1.854000*%
%ADD21C,1.750000*%
G04 APERTURE END LIST*
%TO.C,C41*%
G36*
G01*
X176603298Y-80825000D02*
X177996702Y-80825000D01*
G75*
G02*
X178275000Y-81103298I0J-278298D01*
G01*
X178275000Y-82021702D01*
G75*
G02*
X177996702Y-82300000I-278298J0D01*
G01*
X176603298Y-82300000D01*
G75*
G02*
X176325000Y-82021702I0J278298D01*
G01*
X176325000Y-81103298D01*
G75*
G02*
X176603298Y-80825000I278298J0D01*
G01*
G37*
G36*
G01*
X176603298Y-77700000D02*
X177996702Y-77700000D01*
G75*
G02*
X178275000Y-77978298I0J-278298D01*
G01*
X178275000Y-78896702D01*
G75*
G02*
X177996702Y-79175000I-278298J0D01*
G01*
X176603298Y-79175000D01*
G75*
G02*
X176325000Y-78896702I0J278298D01*
G01*
X176325000Y-77978298D01*
G75*
G02*
X176603298Y-77700000I278298J0D01*
G01*
G37*
%TD*%
%TO.C,U7*%
G36*
G01*
X241656600Y-117022000D02*
X240869200Y-117022000D01*
G75*
G02*
X240794200Y-116947000I0J75000D01*
G01*
X240794200Y-116693000D01*
G75*
G02*
X240869200Y-116618000I75000J0D01*
G01*
X241656600Y-116618000D01*
G75*
G02*
X241731600Y-116693000I0J-75000D01*
G01*
X241731600Y-116947000D01*
G75*
G02*
X241656600Y-117022000I-75000J0D01*
G01*
G37*
G36*
G01*
X241656600Y-117521999D02*
X240869200Y-117521999D01*
G75*
G02*
X240794200Y-117446999I0J75000D01*
G01*
X240794200Y-117192999D01*
G75*
G02*
X240869200Y-117117999I75000J0D01*
G01*
X241656600Y-117117999D01*
G75*
G02*
X241731600Y-117192999I0J-75000D01*
G01*
X241731600Y-117446999D01*
G75*
G02*
X241656600Y-117521999I-75000J0D01*
G01*
G37*
G36*
G01*
X241656600Y-118022001D02*
X240869200Y-118022001D01*
G75*
G02*
X240794200Y-117947001I0J75000D01*
G01*
X240794200Y-117693001D01*
G75*
G02*
X240869200Y-117618001I75000J0D01*
G01*
X241656600Y-117618001D01*
G75*
G02*
X241731600Y-117693001I0J-75000D01*
G01*
X241731600Y-117947001D01*
G75*
G02*
X241656600Y-118022001I-75000J0D01*
G01*
G37*
G36*
G01*
X241656600Y-118522000D02*
X240869200Y-118522000D01*
G75*
G02*
X240794200Y-118447000I0J75000D01*
G01*
X240794200Y-118193000D01*
G75*
G02*
X240869200Y-118118000I75000J0D01*
G01*
X241656600Y-118118000D01*
G75*
G02*
X241731600Y-118193000I0J-75000D01*
G01*
X241731600Y-118447000D01*
G75*
G02*
X241656600Y-118522000I-75000J0D01*
G01*
G37*
G36*
G01*
X241656600Y-119021999D02*
X240869200Y-119021999D01*
G75*
G02*
X240794200Y-118946999I0J75000D01*
G01*
X240794200Y-118692999D01*
G75*
G02*
X240869200Y-118617999I75000J0D01*
G01*
X241656600Y-118617999D01*
G75*
G02*
X241731600Y-118692999I0J-75000D01*
G01*
X241731600Y-118946999D01*
G75*
G02*
X241656600Y-119021999I-75000J0D01*
G01*
G37*
G36*
G01*
X241656600Y-119522000D02*
X240869200Y-119522000D01*
G75*
G02*
X240794200Y-119447000I0J75000D01*
G01*
X240794200Y-119193000D01*
G75*
G02*
X240869200Y-119118000I75000J0D01*
G01*
X241656600Y-119118000D01*
G75*
G02*
X241731600Y-119193000I0J-75000D01*
G01*
X241731600Y-119447000D01*
G75*
G02*
X241656600Y-119522000I-75000J0D01*
G01*
G37*
G36*
G01*
X241656600Y-120022000D02*
X240869200Y-120022000D01*
G75*
G02*
X240794200Y-119947000I0J75000D01*
G01*
X240794200Y-119693000D01*
G75*
G02*
X240869200Y-119618000I75000J0D01*
G01*
X241656600Y-119618000D01*
G75*
G02*
X241731600Y-119693000I0J-75000D01*
G01*
X241731600Y-119947000D01*
G75*
G02*
X241656600Y-120022000I-75000J0D01*
G01*
G37*
G36*
G01*
X241656600Y-120522001D02*
X240869200Y-120522001D01*
G75*
G02*
X240794200Y-120447001I0J75000D01*
G01*
X240794200Y-120193001D01*
G75*
G02*
X240869200Y-120118001I75000J0D01*
G01*
X241656600Y-120118001D01*
G75*
G02*
X241731600Y-120193001I0J-75000D01*
G01*
X241731600Y-120447001D01*
G75*
G02*
X241656600Y-120522001I-75000J0D01*
G01*
G37*
G36*
G01*
X241656600Y-121022000D02*
X240869200Y-121022000D01*
G75*
G02*
X240794200Y-120947000I0J75000D01*
G01*
X240794200Y-120693000D01*
G75*
G02*
X240869200Y-120618000I75000J0D01*
G01*
X241656600Y-120618000D01*
G75*
G02*
X241731600Y-120693000I0J-75000D01*
G01*
X241731600Y-120947000D01*
G75*
G02*
X241656600Y-121022000I-75000J0D01*
G01*
G37*
G36*
G01*
X241656600Y-121521999D02*
X240869200Y-121521999D01*
G75*
G02*
X240794200Y-121446999I0J75000D01*
G01*
X240794200Y-121192999D01*
G75*
G02*
X240869200Y-121117999I75000J0D01*
G01*
X241656600Y-121117999D01*
G75*
G02*
X241731600Y-121192999I0J-75000D01*
G01*
X241731600Y-121446999D01*
G75*
G02*
X241656600Y-121521999I-75000J0D01*
G01*
G37*
G36*
G01*
X241656600Y-122022001D02*
X240869200Y-122022001D01*
G75*
G02*
X240794200Y-121947001I0J75000D01*
G01*
X240794200Y-121693001D01*
G75*
G02*
X240869200Y-121618001I75000J0D01*
G01*
X241656600Y-121618001D01*
G75*
G02*
X241731600Y-121693001I0J-75000D01*
G01*
X241731600Y-121947001D01*
G75*
G02*
X241656600Y-122022001I-75000J0D01*
G01*
G37*
G36*
G01*
X241656600Y-122522000D02*
X240869200Y-122522000D01*
G75*
G02*
X240794200Y-122447000I0J75000D01*
G01*
X240794200Y-122193000D01*
G75*
G02*
X240869200Y-122118000I75000J0D01*
G01*
X241656600Y-122118000D01*
G75*
G02*
X241731600Y-122193000I0J-75000D01*
G01*
X241731600Y-122447000D01*
G75*
G02*
X241656600Y-122522000I-75000J0D01*
G01*
G37*
G36*
G01*
X241778000Y-123430800D02*
X241778000Y-122643400D01*
G75*
G02*
X241853000Y-122568400I75000J0D01*
G01*
X242107000Y-122568400D01*
G75*
G02*
X242182000Y-122643400I0J-75000D01*
G01*
X242182000Y-123430800D01*
G75*
G02*
X242107000Y-123505800I-75000J0D01*
G01*
X241853000Y-123505800D01*
G75*
G02*
X241778000Y-123430800I0J75000D01*
G01*
G37*
G36*
G01*
X242277999Y-123430800D02*
X242277999Y-122643400D01*
G75*
G02*
X242352999Y-122568400I75000J0D01*
G01*
X242606999Y-122568400D01*
G75*
G02*
X242681999Y-122643400I0J-75000D01*
G01*
X242681999Y-123430800D01*
G75*
G02*
X242606999Y-123505800I-75000J0D01*
G01*
X242352999Y-123505800D01*
G75*
G02*
X242277999Y-123430800I0J75000D01*
G01*
G37*
G36*
G01*
X242778001Y-123430800D02*
X242778001Y-122643400D01*
G75*
G02*
X242853001Y-122568400I75000J0D01*
G01*
X243107001Y-122568400D01*
G75*
G02*
X243182001Y-122643400I0J-75000D01*
G01*
X243182001Y-123430800D01*
G75*
G02*
X243107001Y-123505800I-75000J0D01*
G01*
X242853001Y-123505800D01*
G75*
G02*
X242778001Y-123430800I0J75000D01*
G01*
G37*
G36*
G01*
X243278000Y-123430800D02*
X243278000Y-122643400D01*
G75*
G02*
X243353000Y-122568400I75000J0D01*
G01*
X243607000Y-122568400D01*
G75*
G02*
X243682000Y-122643400I0J-75000D01*
G01*
X243682000Y-123430800D01*
G75*
G02*
X243607000Y-123505800I-75000J0D01*
G01*
X243353000Y-123505800D01*
G75*
G02*
X243278000Y-123430800I0J75000D01*
G01*
G37*
G36*
G01*
X243777999Y-123430800D02*
X243777999Y-122643400D01*
G75*
G02*
X243852999Y-122568400I75000J0D01*
G01*
X244106999Y-122568400D01*
G75*
G02*
X244181999Y-122643400I0J-75000D01*
G01*
X244181999Y-123430800D01*
G75*
G02*
X244106999Y-123505800I-75000J0D01*
G01*
X243852999Y-123505800D01*
G75*
G02*
X243777999Y-123430800I0J75000D01*
G01*
G37*
G36*
G01*
X244278000Y-123430800D02*
X244278000Y-122643400D01*
G75*
G02*
X244353000Y-122568400I75000J0D01*
G01*
X244607000Y-122568400D01*
G75*
G02*
X244682000Y-122643400I0J-75000D01*
G01*
X244682000Y-123430800D01*
G75*
G02*
X244607000Y-123505800I-75000J0D01*
G01*
X244353000Y-123505800D01*
G75*
G02*
X244278000Y-123430800I0J75000D01*
G01*
G37*
G36*
G01*
X244778000Y-123430800D02*
X244778000Y-122643400D01*
G75*
G02*
X244853000Y-122568400I75000J0D01*
G01*
X245107000Y-122568400D01*
G75*
G02*
X245182000Y-122643400I0J-75000D01*
G01*
X245182000Y-123430800D01*
G75*
G02*
X245107000Y-123505800I-75000J0D01*
G01*
X244853000Y-123505800D01*
G75*
G02*
X244778000Y-123430800I0J75000D01*
G01*
G37*
G36*
G01*
X245278001Y-123430800D02*
X245278001Y-122643400D01*
G75*
G02*
X245353001Y-122568400I75000J0D01*
G01*
X245607001Y-122568400D01*
G75*
G02*
X245682001Y-122643400I0J-75000D01*
G01*
X245682001Y-123430800D01*
G75*
G02*
X245607001Y-123505800I-75000J0D01*
G01*
X245353001Y-123505800D01*
G75*
G02*
X245278001Y-123430800I0J75000D01*
G01*
G37*
G36*
G01*
X245778000Y-123430800D02*
X245778000Y-122643400D01*
G75*
G02*
X245853000Y-122568400I75000J0D01*
G01*
X246107000Y-122568400D01*
G75*
G02*
X246182000Y-122643400I0J-75000D01*
G01*
X246182000Y-123430800D01*
G75*
G02*
X246107000Y-123505800I-75000J0D01*
G01*
X245853000Y-123505800D01*
G75*
G02*
X245778000Y-123430800I0J75000D01*
G01*
G37*
G36*
G01*
X246277999Y-123430800D02*
X246277999Y-122643400D01*
G75*
G02*
X246352999Y-122568400I75000J0D01*
G01*
X246606999Y-122568400D01*
G75*
G02*
X246681999Y-122643400I0J-75000D01*
G01*
X246681999Y-123430800D01*
G75*
G02*
X246606999Y-123505800I-75000J0D01*
G01*
X246352999Y-123505800D01*
G75*
G02*
X246277999Y-123430800I0J75000D01*
G01*
G37*
G36*
G01*
X246778001Y-123430800D02*
X246778001Y-122643400D01*
G75*
G02*
X246853001Y-122568400I75000J0D01*
G01*
X247107001Y-122568400D01*
G75*
G02*
X247182001Y-122643400I0J-75000D01*
G01*
X247182001Y-123430800D01*
G75*
G02*
X247107001Y-123505800I-75000J0D01*
G01*
X246853001Y-123505800D01*
G75*
G02*
X246778001Y-123430800I0J75000D01*
G01*
G37*
G36*
G01*
X247278000Y-123430800D02*
X247278000Y-122643400D01*
G75*
G02*
X247353000Y-122568400I75000J0D01*
G01*
X247607000Y-122568400D01*
G75*
G02*
X247682000Y-122643400I0J-75000D01*
G01*
X247682000Y-123430800D01*
G75*
G02*
X247607000Y-123505800I-75000J0D01*
G01*
X247353000Y-123505800D01*
G75*
G02*
X247278000Y-123430800I0J75000D01*
G01*
G37*
G36*
G01*
X248590800Y-122522000D02*
X247803400Y-122522000D01*
G75*
G02*
X247728400Y-122447000I0J75000D01*
G01*
X247728400Y-122193000D01*
G75*
G02*
X247803400Y-122118000I75000J0D01*
G01*
X248590800Y-122118000D01*
G75*
G02*
X248665800Y-122193000I0J-75000D01*
G01*
X248665800Y-122447000D01*
G75*
G02*
X248590800Y-122522000I-75000J0D01*
G01*
G37*
G36*
G01*
X248590800Y-122022001D02*
X247803400Y-122022001D01*
G75*
G02*
X247728400Y-121947001I0J75000D01*
G01*
X247728400Y-121693001D01*
G75*
G02*
X247803400Y-121618001I75000J0D01*
G01*
X248590800Y-121618001D01*
G75*
G02*
X248665800Y-121693001I0J-75000D01*
G01*
X248665800Y-121947001D01*
G75*
G02*
X248590800Y-122022001I-75000J0D01*
G01*
G37*
G36*
G01*
X248590800Y-121521999D02*
X247803400Y-121521999D01*
G75*
G02*
X247728400Y-121446999I0J75000D01*
G01*
X247728400Y-121192999D01*
G75*
G02*
X247803400Y-121117999I75000J0D01*
G01*
X248590800Y-121117999D01*
G75*
G02*
X248665800Y-121192999I0J-75000D01*
G01*
X248665800Y-121446999D01*
G75*
G02*
X248590800Y-121521999I-75000J0D01*
G01*
G37*
G36*
G01*
X248590800Y-121022000D02*
X247803400Y-121022000D01*
G75*
G02*
X247728400Y-120947000I0J75000D01*
G01*
X247728400Y-120693000D01*
G75*
G02*
X247803400Y-120618000I75000J0D01*
G01*
X248590800Y-120618000D01*
G75*
G02*
X248665800Y-120693000I0J-75000D01*
G01*
X248665800Y-120947000D01*
G75*
G02*
X248590800Y-121022000I-75000J0D01*
G01*
G37*
G36*
G01*
X248590800Y-120522001D02*
X247803400Y-120522001D01*
G75*
G02*
X247728400Y-120447001I0J75000D01*
G01*
X247728400Y-120193001D01*
G75*
G02*
X247803400Y-120118001I75000J0D01*
G01*
X248590800Y-120118001D01*
G75*
G02*
X248665800Y-120193001I0J-75000D01*
G01*
X248665800Y-120447001D01*
G75*
G02*
X248590800Y-120522001I-75000J0D01*
G01*
G37*
G36*
G01*
X248590800Y-120022000D02*
X247803400Y-120022000D01*
G75*
G02*
X247728400Y-119947000I0J75000D01*
G01*
X247728400Y-119693000D01*
G75*
G02*
X247803400Y-119618000I75000J0D01*
G01*
X248590800Y-119618000D01*
G75*
G02*
X248665800Y-119693000I0J-75000D01*
G01*
X248665800Y-119947000D01*
G75*
G02*
X248590800Y-120022000I-75000J0D01*
G01*
G37*
G36*
G01*
X248590800Y-119522000D02*
X247803400Y-119522000D01*
G75*
G02*
X247728400Y-119447000I0J75000D01*
G01*
X247728400Y-119193000D01*
G75*
G02*
X247803400Y-119118000I75000J0D01*
G01*
X248590800Y-119118000D01*
G75*
G02*
X248665800Y-119193000I0J-75000D01*
G01*
X248665800Y-119447000D01*
G75*
G02*
X248590800Y-119522000I-75000J0D01*
G01*
G37*
G36*
G01*
X248590800Y-119021999D02*
X247803400Y-119021999D01*
G75*
G02*
X247728400Y-118946999I0J75000D01*
G01*
X247728400Y-118692999D01*
G75*
G02*
X247803400Y-118617999I75000J0D01*
G01*
X248590800Y-118617999D01*
G75*
G02*
X248665800Y-118692999I0J-75000D01*
G01*
X248665800Y-118946999D01*
G75*
G02*
X248590800Y-119021999I-75000J0D01*
G01*
G37*
G36*
G01*
X248590800Y-118522000D02*
X247803400Y-118522000D01*
G75*
G02*
X247728400Y-118447000I0J75000D01*
G01*
X247728400Y-118193000D01*
G75*
G02*
X247803400Y-118118000I75000J0D01*
G01*
X248590800Y-118118000D01*
G75*
G02*
X248665800Y-118193000I0J-75000D01*
G01*
X248665800Y-118447000D01*
G75*
G02*
X248590800Y-118522000I-75000J0D01*
G01*
G37*
G36*
G01*
X248590800Y-118022001D02*
X247803400Y-118022001D01*
G75*
G02*
X247728400Y-117947001I0J75000D01*
G01*
X247728400Y-117693001D01*
G75*
G02*
X247803400Y-117618001I75000J0D01*
G01*
X248590800Y-117618001D01*
G75*
G02*
X248665800Y-117693001I0J-75000D01*
G01*
X248665800Y-117947001D01*
G75*
G02*
X248590800Y-118022001I-75000J0D01*
G01*
G37*
G36*
G01*
X248590800Y-117521999D02*
X247803400Y-117521999D01*
G75*
G02*
X247728400Y-117446999I0J75000D01*
G01*
X247728400Y-117192999D01*
G75*
G02*
X247803400Y-117117999I75000J0D01*
G01*
X248590800Y-117117999D01*
G75*
G02*
X248665800Y-117192999I0J-75000D01*
G01*
X248665800Y-117446999D01*
G75*
G02*
X248590800Y-117521999I-75000J0D01*
G01*
G37*
G36*
G01*
X248590800Y-117022000D02*
X247803400Y-117022000D01*
G75*
G02*
X247728400Y-116947000I0J75000D01*
G01*
X247728400Y-116693000D01*
G75*
G02*
X247803400Y-116618000I75000J0D01*
G01*
X248590800Y-116618000D01*
G75*
G02*
X248665800Y-116693000I0J-75000D01*
G01*
X248665800Y-116947000D01*
G75*
G02*
X248590800Y-117022000I-75000J0D01*
G01*
G37*
G36*
G01*
X247278000Y-116496600D02*
X247278000Y-115709200D01*
G75*
G02*
X247353000Y-115634200I75000J0D01*
G01*
X247607000Y-115634200D01*
G75*
G02*
X247682000Y-115709200I0J-75000D01*
G01*
X247682000Y-116496600D01*
G75*
G02*
X247607000Y-116571600I-75000J0D01*
G01*
X247353000Y-116571600D01*
G75*
G02*
X247278000Y-116496600I0J75000D01*
G01*
G37*
G36*
G01*
X246778001Y-116496600D02*
X246778001Y-115709200D01*
G75*
G02*
X246853001Y-115634200I75000J0D01*
G01*
X247107001Y-115634200D01*
G75*
G02*
X247182001Y-115709200I0J-75000D01*
G01*
X247182001Y-116496600D01*
G75*
G02*
X247107001Y-116571600I-75000J0D01*
G01*
X246853001Y-116571600D01*
G75*
G02*
X246778001Y-116496600I0J75000D01*
G01*
G37*
G36*
G01*
X246277999Y-116496600D02*
X246277999Y-115709200D01*
G75*
G02*
X246352999Y-115634200I75000J0D01*
G01*
X246606999Y-115634200D01*
G75*
G02*
X246681999Y-115709200I0J-75000D01*
G01*
X246681999Y-116496600D01*
G75*
G02*
X246606999Y-116571600I-75000J0D01*
G01*
X246352999Y-116571600D01*
G75*
G02*
X246277999Y-116496600I0J75000D01*
G01*
G37*
G36*
G01*
X245778000Y-116496600D02*
X245778000Y-115709200D01*
G75*
G02*
X245853000Y-115634200I75000J0D01*
G01*
X246107000Y-115634200D01*
G75*
G02*
X246182000Y-115709200I0J-75000D01*
G01*
X246182000Y-116496600D01*
G75*
G02*
X246107000Y-116571600I-75000J0D01*
G01*
X245853000Y-116571600D01*
G75*
G02*
X245778000Y-116496600I0J75000D01*
G01*
G37*
G36*
G01*
X245278001Y-116496600D02*
X245278001Y-115709200D01*
G75*
G02*
X245353001Y-115634200I75000J0D01*
G01*
X245607001Y-115634200D01*
G75*
G02*
X245682001Y-115709200I0J-75000D01*
G01*
X245682001Y-116496600D01*
G75*
G02*
X245607001Y-116571600I-75000J0D01*
G01*
X245353001Y-116571600D01*
G75*
G02*
X245278001Y-116496600I0J75000D01*
G01*
G37*
G36*
G01*
X244778000Y-116496600D02*
X244778000Y-115709200D01*
G75*
G02*
X244853000Y-115634200I75000J0D01*
G01*
X245107000Y-115634200D01*
G75*
G02*
X245182000Y-115709200I0J-75000D01*
G01*
X245182000Y-116496600D01*
G75*
G02*
X245107000Y-116571600I-75000J0D01*
G01*
X244853000Y-116571600D01*
G75*
G02*
X244778000Y-116496600I0J75000D01*
G01*
G37*
G36*
G01*
X244278000Y-116496600D02*
X244278000Y-115709200D01*
G75*
G02*
X244353000Y-115634200I75000J0D01*
G01*
X244607000Y-115634200D01*
G75*
G02*
X244682000Y-115709200I0J-75000D01*
G01*
X244682000Y-116496600D01*
G75*
G02*
X244607000Y-116571600I-75000J0D01*
G01*
X244353000Y-116571600D01*
G75*
G02*
X244278000Y-116496600I0J75000D01*
G01*
G37*
G36*
G01*
X243777999Y-116496600D02*
X243777999Y-115709200D01*
G75*
G02*
X243852999Y-115634200I75000J0D01*
G01*
X244106999Y-115634200D01*
G75*
G02*
X244181999Y-115709200I0J-75000D01*
G01*
X244181999Y-116496600D01*
G75*
G02*
X244106999Y-116571600I-75000J0D01*
G01*
X243852999Y-116571600D01*
G75*
G02*
X243777999Y-116496600I0J75000D01*
G01*
G37*
G36*
G01*
X243278000Y-116496600D02*
X243278000Y-115709200D01*
G75*
G02*
X243353000Y-115634200I75000J0D01*
G01*
X243607000Y-115634200D01*
G75*
G02*
X243682000Y-115709200I0J-75000D01*
G01*
X243682000Y-116496600D01*
G75*
G02*
X243607000Y-116571600I-75000J0D01*
G01*
X243353000Y-116571600D01*
G75*
G02*
X243278000Y-116496600I0J75000D01*
G01*
G37*
G36*
G01*
X242778001Y-116496600D02*
X242778001Y-115709200D01*
G75*
G02*
X242853001Y-115634200I75000J0D01*
G01*
X243107001Y-115634200D01*
G75*
G02*
X243182001Y-115709200I0J-75000D01*
G01*
X243182001Y-116496600D01*
G75*
G02*
X243107001Y-116571600I-75000J0D01*
G01*
X242853001Y-116571600D01*
G75*
G02*
X242778001Y-116496600I0J75000D01*
G01*
G37*
G36*
G01*
X242277999Y-116496600D02*
X242277999Y-115709200D01*
G75*
G02*
X242352999Y-115634200I75000J0D01*
G01*
X242606999Y-115634200D01*
G75*
G02*
X242681999Y-115709200I0J-75000D01*
G01*
X242681999Y-116496600D01*
G75*
G02*
X242606999Y-116571600I-75000J0D01*
G01*
X242352999Y-116571600D01*
G75*
G02*
X242277999Y-116496600I0J75000D01*
G01*
G37*
G36*
G01*
X241778000Y-116496600D02*
X241778000Y-115709200D01*
G75*
G02*
X241853000Y-115634200I75000J0D01*
G01*
X242107000Y-115634200D01*
G75*
G02*
X242182000Y-115709200I0J-75000D01*
G01*
X242182000Y-116496600D01*
G75*
G02*
X242107000Y-116571600I-75000J0D01*
G01*
X241853000Y-116571600D01*
G75*
G02*
X241778000Y-116496600I0J75000D01*
G01*
G37*
G36*
G01*
X241899100Y-122325900D02*
X241899100Y-116814100D01*
G75*
G02*
X241974100Y-116739100I75000J0D01*
G01*
X247485900Y-116739100D01*
G75*
G02*
X247560900Y-116814100I0J-75000D01*
G01*
X247560900Y-122325900D01*
G75*
G02*
X247485900Y-122400900I-75000J0D01*
G01*
X241974100Y-122400900D01*
G75*
G02*
X241899100Y-122325900I0J75000D01*
G01*
G37*
%TD*%
%TO.C,U6*%
G36*
G01*
X227237500Y-184300000D02*
X227512500Y-184300000D01*
G75*
G02*
X227650000Y-184437500I0J-137500D01*
G01*
X227650000Y-185787500D01*
G75*
G02*
X227512500Y-185925000I-137500J0D01*
G01*
X227237500Y-185925000D01*
G75*
G02*
X227100000Y-185787500I0J137500D01*
G01*
X227100000Y-184437500D01*
G75*
G02*
X227237500Y-184300000I137500J0D01*
G01*
G37*
G36*
G01*
X226587500Y-184300000D02*
X226862500Y-184300000D01*
G75*
G02*
X227000000Y-184437500I0J-137500D01*
G01*
X227000000Y-185787500D01*
G75*
G02*
X226862500Y-185925000I-137500J0D01*
G01*
X226587500Y-185925000D01*
G75*
G02*
X226450000Y-185787500I0J137500D01*
G01*
X226450000Y-184437500D01*
G75*
G02*
X226587500Y-184300000I137500J0D01*
G01*
G37*
G36*
G01*
X225937500Y-184300000D02*
X226212500Y-184300000D01*
G75*
G02*
X226350000Y-184437500I0J-137500D01*
G01*
X226350000Y-185787500D01*
G75*
G02*
X226212500Y-185925000I-137500J0D01*
G01*
X225937500Y-185925000D01*
G75*
G02*
X225800000Y-185787500I0J137500D01*
G01*
X225800000Y-184437500D01*
G75*
G02*
X225937500Y-184300000I137500J0D01*
G01*
G37*
G36*
G01*
X225287500Y-184300000D02*
X225562500Y-184300000D01*
G75*
G02*
X225700000Y-184437500I0J-137500D01*
G01*
X225700000Y-185787500D01*
G75*
G02*
X225562500Y-185925000I-137500J0D01*
G01*
X225287500Y-185925000D01*
G75*
G02*
X225150000Y-185787500I0J137500D01*
G01*
X225150000Y-184437500D01*
G75*
G02*
X225287500Y-184300000I137500J0D01*
G01*
G37*
G36*
G01*
X224637500Y-184300000D02*
X224912500Y-184300000D01*
G75*
G02*
X225050000Y-184437500I0J-137500D01*
G01*
X225050000Y-185787500D01*
G75*
G02*
X224912500Y-185925000I-137500J0D01*
G01*
X224637500Y-185925000D01*
G75*
G02*
X224500000Y-185787500I0J137500D01*
G01*
X224500000Y-184437500D01*
G75*
G02*
X224637500Y-184300000I137500J0D01*
G01*
G37*
G36*
G01*
X223987500Y-184300000D02*
X224262500Y-184300000D01*
G75*
G02*
X224400000Y-184437500I0J-137500D01*
G01*
X224400000Y-185787500D01*
G75*
G02*
X224262500Y-185925000I-137500J0D01*
G01*
X223987500Y-185925000D01*
G75*
G02*
X223850000Y-185787500I0J137500D01*
G01*
X223850000Y-184437500D01*
G75*
G02*
X223987500Y-184300000I137500J0D01*
G01*
G37*
G36*
G01*
X223337500Y-184300000D02*
X223612500Y-184300000D01*
G75*
G02*
X223750000Y-184437500I0J-137500D01*
G01*
X223750000Y-185787500D01*
G75*
G02*
X223612500Y-185925000I-137500J0D01*
G01*
X223337500Y-185925000D01*
G75*
G02*
X223200000Y-185787500I0J137500D01*
G01*
X223200000Y-184437500D01*
G75*
G02*
X223337500Y-184300000I137500J0D01*
G01*
G37*
G36*
G01*
X222687500Y-184300000D02*
X222962500Y-184300000D01*
G75*
G02*
X223100000Y-184437500I0J-137500D01*
G01*
X223100000Y-185787500D01*
G75*
G02*
X222962500Y-185925000I-137500J0D01*
G01*
X222687500Y-185925000D01*
G75*
G02*
X222550000Y-185787500I0J137500D01*
G01*
X222550000Y-184437500D01*
G75*
G02*
X222687500Y-184300000I137500J0D01*
G01*
G37*
G36*
G01*
X222037500Y-184300000D02*
X222312500Y-184300000D01*
G75*
G02*
X222450000Y-184437500I0J-137500D01*
G01*
X222450000Y-185787500D01*
G75*
G02*
X222312500Y-185925000I-137500J0D01*
G01*
X222037500Y-185925000D01*
G75*
G02*
X221900000Y-185787500I0J137500D01*
G01*
X221900000Y-184437500D01*
G75*
G02*
X222037500Y-184300000I137500J0D01*
G01*
G37*
G36*
G01*
X221387500Y-184300000D02*
X221662500Y-184300000D01*
G75*
G02*
X221800000Y-184437500I0J-137500D01*
G01*
X221800000Y-185787500D01*
G75*
G02*
X221662500Y-185925000I-137500J0D01*
G01*
X221387500Y-185925000D01*
G75*
G02*
X221250000Y-185787500I0J137500D01*
G01*
X221250000Y-184437500D01*
G75*
G02*
X221387500Y-184300000I137500J0D01*
G01*
G37*
G36*
G01*
X221387500Y-178575000D02*
X221662500Y-178575000D01*
G75*
G02*
X221800000Y-178712500I0J-137500D01*
G01*
X221800000Y-180062500D01*
G75*
G02*
X221662500Y-180200000I-137500J0D01*
G01*
X221387500Y-180200000D01*
G75*
G02*
X221250000Y-180062500I0J137500D01*
G01*
X221250000Y-178712500D01*
G75*
G02*
X221387500Y-178575000I137500J0D01*
G01*
G37*
G36*
G01*
X222037500Y-178575000D02*
X222312500Y-178575000D01*
G75*
G02*
X222450000Y-178712500I0J-137500D01*
G01*
X222450000Y-180062500D01*
G75*
G02*
X222312500Y-180200000I-137500J0D01*
G01*
X222037500Y-180200000D01*
G75*
G02*
X221900000Y-180062500I0J137500D01*
G01*
X221900000Y-178712500D01*
G75*
G02*
X222037500Y-178575000I137500J0D01*
G01*
G37*
G36*
G01*
X222687500Y-178575000D02*
X222962500Y-178575000D01*
G75*
G02*
X223100000Y-178712500I0J-137500D01*
G01*
X223100000Y-180062500D01*
G75*
G02*
X222962500Y-180200000I-137500J0D01*
G01*
X222687500Y-180200000D01*
G75*
G02*
X222550000Y-180062500I0J137500D01*
G01*
X222550000Y-178712500D01*
G75*
G02*
X222687500Y-178575000I137500J0D01*
G01*
G37*
G36*
G01*
X223337500Y-178575000D02*
X223612500Y-178575000D01*
G75*
G02*
X223750000Y-178712500I0J-137500D01*
G01*
X223750000Y-180062500D01*
G75*
G02*
X223612500Y-180200000I-137500J0D01*
G01*
X223337500Y-180200000D01*
G75*
G02*
X223200000Y-180062500I0J137500D01*
G01*
X223200000Y-178712500D01*
G75*
G02*
X223337500Y-178575000I137500J0D01*
G01*
G37*
G36*
G01*
X223987500Y-178575000D02*
X224262500Y-178575000D01*
G75*
G02*
X224400000Y-178712500I0J-137500D01*
G01*
X224400000Y-180062500D01*
G75*
G02*
X224262500Y-180200000I-137500J0D01*
G01*
X223987500Y-180200000D01*
G75*
G02*
X223850000Y-180062500I0J137500D01*
G01*
X223850000Y-178712500D01*
G75*
G02*
X223987500Y-178575000I137500J0D01*
G01*
G37*
G36*
G01*
X224637500Y-178575000D02*
X224912500Y-178575000D01*
G75*
G02*
X225050000Y-178712500I0J-137500D01*
G01*
X225050000Y-180062500D01*
G75*
G02*
X224912500Y-180200000I-137500J0D01*
G01*
X224637500Y-180200000D01*
G75*
G02*
X224500000Y-180062500I0J137500D01*
G01*
X224500000Y-178712500D01*
G75*
G02*
X224637500Y-178575000I137500J0D01*
G01*
G37*
G36*
G01*
X225287500Y-178575000D02*
X225562500Y-178575000D01*
G75*
G02*
X225700000Y-178712500I0J-137500D01*
G01*
X225700000Y-180062500D01*
G75*
G02*
X225562500Y-180200000I-137500J0D01*
G01*
X225287500Y-180200000D01*
G75*
G02*
X225150000Y-180062500I0J137500D01*
G01*
X225150000Y-178712500D01*
G75*
G02*
X225287500Y-178575000I137500J0D01*
G01*
G37*
G36*
G01*
X225937500Y-178575000D02*
X226212500Y-178575000D01*
G75*
G02*
X226350000Y-178712500I0J-137500D01*
G01*
X226350000Y-180062500D01*
G75*
G02*
X226212500Y-180200000I-137500J0D01*
G01*
X225937500Y-180200000D01*
G75*
G02*
X225800000Y-180062500I0J137500D01*
G01*
X225800000Y-178712500D01*
G75*
G02*
X225937500Y-178575000I137500J0D01*
G01*
G37*
G36*
G01*
X226587500Y-178575000D02*
X226862500Y-178575000D01*
G75*
G02*
X227000000Y-178712500I0J-137500D01*
G01*
X227000000Y-180062500D01*
G75*
G02*
X226862500Y-180200000I-137500J0D01*
G01*
X226587500Y-180200000D01*
G75*
G02*
X226450000Y-180062500I0J137500D01*
G01*
X226450000Y-178712500D01*
G75*
G02*
X226587500Y-178575000I137500J0D01*
G01*
G37*
G36*
G01*
X227237500Y-178575000D02*
X227512500Y-178575000D01*
G75*
G02*
X227650000Y-178712500I0J-137500D01*
G01*
X227650000Y-180062500D01*
G75*
G02*
X227512500Y-180200000I-137500J0D01*
G01*
X227237500Y-180200000D01*
G75*
G02*
X227100000Y-180062500I0J137500D01*
G01*
X227100000Y-178712500D01*
G75*
G02*
X227237500Y-178575000I137500J0D01*
G01*
G37*
%TD*%
%TO.C,U2*%
G36*
G01*
X204287169Y-85346967D02*
X208246967Y-81387169D01*
G75*
G02*
X208353033Y-81387169I53033J-53033D01*
G01*
X212312831Y-85346967D01*
G75*
G02*
X212312831Y-85453033I-53033J-53033D01*
G01*
X208353033Y-89412831D01*
G75*
G02*
X208246967Y-89412831I-53033J53033D01*
G01*
X204287169Y-85453033D01*
G75*
G02*
X204287169Y-85346967I53033J53033D01*
G01*
G37*
G36*
G01*
X208353033Y-81175037D02*
X208936396Y-80591674D01*
G75*
G02*
X209077818Y-80591674I70711J-70711D01*
G01*
X209219239Y-80733095D01*
G75*
G02*
X209219239Y-80874517I-70711J-70711D01*
G01*
X208635876Y-81457880D01*
G75*
G02*
X208494454Y-81457880I-70711J70711D01*
G01*
X208353033Y-81316459D01*
G75*
G02*
X208353033Y-81175037I70711J70711D01*
G01*
G37*
G36*
G01*
X208706586Y-81528590D02*
X209289949Y-80945227D01*
G75*
G02*
X209431371Y-80945227I70711J-70711D01*
G01*
X209572792Y-81086648D01*
G75*
G02*
X209572792Y-81228070I-70711J-70711D01*
G01*
X208989429Y-81811433D01*
G75*
G02*
X208848007Y-81811433I-70711J70711D01*
G01*
X208706586Y-81670012D01*
G75*
G02*
X208706586Y-81528590I70711J70711D01*
G01*
G37*
G36*
G01*
X209060140Y-81882144D02*
X209643503Y-81298781D01*
G75*
G02*
X209784925Y-81298781I70711J-70711D01*
G01*
X209926346Y-81440202D01*
G75*
G02*
X209926346Y-81581624I-70711J-70711D01*
G01*
X209342983Y-82164987D01*
G75*
G02*
X209201561Y-82164987I-70711J70711D01*
G01*
X209060140Y-82023566D01*
G75*
G02*
X209060140Y-81882144I70711J70711D01*
G01*
G37*
G36*
G01*
X209413693Y-82235697D02*
X209997056Y-81652334D01*
G75*
G02*
X210138478Y-81652334I70711J-70711D01*
G01*
X210279899Y-81793755D01*
G75*
G02*
X210279899Y-81935177I-70711J-70711D01*
G01*
X209696536Y-82518540D01*
G75*
G02*
X209555114Y-82518540I-70711J70711D01*
G01*
X209413693Y-82377119D01*
G75*
G02*
X209413693Y-82235697I70711J70711D01*
G01*
G37*
G36*
G01*
X209767246Y-82589250D02*
X210350609Y-82005887D01*
G75*
G02*
X210492031Y-82005887I70711J-70711D01*
G01*
X210633452Y-82147308D01*
G75*
G02*
X210633452Y-82288730I-70711J-70711D01*
G01*
X210050089Y-82872093D01*
G75*
G02*
X209908667Y-82872093I-70711J70711D01*
G01*
X209767246Y-82730672D01*
G75*
G02*
X209767246Y-82589250I70711J70711D01*
G01*
G37*
G36*
G01*
X210120800Y-82942804D02*
X210704163Y-82359441D01*
G75*
G02*
X210845585Y-82359441I70711J-70711D01*
G01*
X210987006Y-82500862D01*
G75*
G02*
X210987006Y-82642284I-70711J-70711D01*
G01*
X210403643Y-83225647D01*
G75*
G02*
X210262221Y-83225647I-70711J70711D01*
G01*
X210120800Y-83084226D01*
G75*
G02*
X210120800Y-82942804I70711J70711D01*
G01*
G37*
G36*
G01*
X210474353Y-83296357D02*
X211057716Y-82712994D01*
G75*
G02*
X211199138Y-82712994I70711J-70711D01*
G01*
X211340559Y-82854415D01*
G75*
G02*
X211340559Y-82995837I-70711J-70711D01*
G01*
X210757196Y-83579200D01*
G75*
G02*
X210615774Y-83579200I-70711J70711D01*
G01*
X210474353Y-83437779D01*
G75*
G02*
X210474353Y-83296357I70711J70711D01*
G01*
G37*
G36*
G01*
X210827907Y-83649911D02*
X211411270Y-83066548D01*
G75*
G02*
X211552692Y-83066548I70711J-70711D01*
G01*
X211694113Y-83207969D01*
G75*
G02*
X211694113Y-83349391I-70711J-70711D01*
G01*
X211110750Y-83932754D01*
G75*
G02*
X210969328Y-83932754I-70711J70711D01*
G01*
X210827907Y-83791333D01*
G75*
G02*
X210827907Y-83649911I70711J70711D01*
G01*
G37*
G36*
G01*
X211181460Y-84003464D02*
X211764823Y-83420101D01*
G75*
G02*
X211906245Y-83420101I70711J-70711D01*
G01*
X212047666Y-83561522D01*
G75*
G02*
X212047666Y-83702944I-70711J-70711D01*
G01*
X211464303Y-84286307D01*
G75*
G02*
X211322881Y-84286307I-70711J70711D01*
G01*
X211181460Y-84144886D01*
G75*
G02*
X211181460Y-84003464I70711J70711D01*
G01*
G37*
G36*
G01*
X211535013Y-84357017D02*
X212118376Y-83773654D01*
G75*
G02*
X212259798Y-83773654I70711J-70711D01*
G01*
X212401219Y-83915075D01*
G75*
G02*
X212401219Y-84056497I-70711J-70711D01*
G01*
X211817856Y-84639860D01*
G75*
G02*
X211676434Y-84639860I-70711J70711D01*
G01*
X211535013Y-84498439D01*
G75*
G02*
X211535013Y-84357017I70711J70711D01*
G01*
G37*
G36*
G01*
X211888567Y-84710571D02*
X212471930Y-84127208D01*
G75*
G02*
X212613352Y-84127208I70711J-70711D01*
G01*
X212754773Y-84268629D01*
G75*
G02*
X212754773Y-84410051I-70711J-70711D01*
G01*
X212171410Y-84993414D01*
G75*
G02*
X212029988Y-84993414I-70711J70711D01*
G01*
X211888567Y-84851993D01*
G75*
G02*
X211888567Y-84710571I70711J70711D01*
G01*
G37*
G36*
G01*
X212242120Y-85064124D02*
X212825483Y-84480761D01*
G75*
G02*
X212966905Y-84480761I70711J-70711D01*
G01*
X213108326Y-84622182D01*
G75*
G02*
X213108326Y-84763604I-70711J-70711D01*
G01*
X212524963Y-85346967D01*
G75*
G02*
X212383541Y-85346967I-70711J70711D01*
G01*
X212242120Y-85205546D01*
G75*
G02*
X212242120Y-85064124I70711J70711D01*
G01*
G37*
G36*
G01*
X212242120Y-85594454D02*
X212383541Y-85453033D01*
G75*
G02*
X212524963Y-85453033I70711J-70711D01*
G01*
X213108326Y-86036396D01*
G75*
G02*
X213108326Y-86177818I-70711J-70711D01*
G01*
X212966905Y-86319239D01*
G75*
G02*
X212825483Y-86319239I-70711J70711D01*
G01*
X212242120Y-85735876D01*
G75*
G02*
X212242120Y-85594454I70711J70711D01*
G01*
G37*
G36*
G01*
X211888567Y-85948007D02*
X212029988Y-85806586D01*
G75*
G02*
X212171410Y-85806586I70711J-70711D01*
G01*
X212754773Y-86389949D01*
G75*
G02*
X212754773Y-86531371I-70711J-70711D01*
G01*
X212613352Y-86672792D01*
G75*
G02*
X212471930Y-86672792I-70711J70711D01*
G01*
X211888567Y-86089429D01*
G75*
G02*
X211888567Y-85948007I70711J70711D01*
G01*
G37*
G36*
G01*
X211535013Y-86301561D02*
X211676434Y-86160140D01*
G75*
G02*
X211817856Y-86160140I70711J-70711D01*
G01*
X212401219Y-86743503D01*
G75*
G02*
X212401219Y-86884925I-70711J-70711D01*
G01*
X212259798Y-87026346D01*
G75*
G02*
X212118376Y-87026346I-70711J70711D01*
G01*
X211535013Y-86442983D01*
G75*
G02*
X211535013Y-86301561I70711J70711D01*
G01*
G37*
G36*
G01*
X211181460Y-86655114D02*
X211322881Y-86513693D01*
G75*
G02*
X211464303Y-86513693I70711J-70711D01*
G01*
X212047666Y-87097056D01*
G75*
G02*
X212047666Y-87238478I-70711J-70711D01*
G01*
X211906245Y-87379899D01*
G75*
G02*
X211764823Y-87379899I-70711J70711D01*
G01*
X211181460Y-86796536D01*
G75*
G02*
X211181460Y-86655114I70711J70711D01*
G01*
G37*
G36*
G01*
X210827907Y-87008667D02*
X210969328Y-86867246D01*
G75*
G02*
X211110750Y-86867246I70711J-70711D01*
G01*
X211694113Y-87450609D01*
G75*
G02*
X211694113Y-87592031I-70711J-70711D01*
G01*
X211552692Y-87733452D01*
G75*
G02*
X211411270Y-87733452I-70711J70711D01*
G01*
X210827907Y-87150089D01*
G75*
G02*
X210827907Y-87008667I70711J70711D01*
G01*
G37*
G36*
G01*
X210474353Y-87362221D02*
X210615774Y-87220800D01*
G75*
G02*
X210757196Y-87220800I70711J-70711D01*
G01*
X211340559Y-87804163D01*
G75*
G02*
X211340559Y-87945585I-70711J-70711D01*
G01*
X211199138Y-88087006D01*
G75*
G02*
X211057716Y-88087006I-70711J70711D01*
G01*
X210474353Y-87503643D01*
G75*
G02*
X210474353Y-87362221I70711J70711D01*
G01*
G37*
G36*
G01*
X210120800Y-87715774D02*
X210262221Y-87574353D01*
G75*
G02*
X210403643Y-87574353I70711J-70711D01*
G01*
X210987006Y-88157716D01*
G75*
G02*
X210987006Y-88299138I-70711J-70711D01*
G01*
X210845585Y-88440559D01*
G75*
G02*
X210704163Y-88440559I-70711J70711D01*
G01*
X210120800Y-87857196D01*
G75*
G02*
X210120800Y-87715774I70711J70711D01*
G01*
G37*
G36*
G01*
X209767246Y-88069328D02*
X209908667Y-87927907D01*
G75*
G02*
X210050089Y-87927907I70711J-70711D01*
G01*
X210633452Y-88511270D01*
G75*
G02*
X210633452Y-88652692I-70711J-70711D01*
G01*
X210492031Y-88794113D01*
G75*
G02*
X210350609Y-88794113I-70711J70711D01*
G01*
X209767246Y-88210750D01*
G75*
G02*
X209767246Y-88069328I70711J70711D01*
G01*
G37*
G36*
G01*
X209413693Y-88422881D02*
X209555114Y-88281460D01*
G75*
G02*
X209696536Y-88281460I70711J-70711D01*
G01*
X210279899Y-88864823D01*
G75*
G02*
X210279899Y-89006245I-70711J-70711D01*
G01*
X210138478Y-89147666D01*
G75*
G02*
X209997056Y-89147666I-70711J70711D01*
G01*
X209413693Y-88564303D01*
G75*
G02*
X209413693Y-88422881I70711J70711D01*
G01*
G37*
G36*
G01*
X209060140Y-88776434D02*
X209201561Y-88635013D01*
G75*
G02*
X209342983Y-88635013I70711J-70711D01*
G01*
X209926346Y-89218376D01*
G75*
G02*
X209926346Y-89359798I-70711J-70711D01*
G01*
X209784925Y-89501219D01*
G75*
G02*
X209643503Y-89501219I-70711J70711D01*
G01*
X209060140Y-88917856D01*
G75*
G02*
X209060140Y-88776434I70711J70711D01*
G01*
G37*
G36*
G01*
X208706586Y-89129988D02*
X208848007Y-88988567D01*
G75*
G02*
X208989429Y-88988567I70711J-70711D01*
G01*
X209572792Y-89571930D01*
G75*
G02*
X209572792Y-89713352I-70711J-70711D01*
G01*
X209431371Y-89854773D01*
G75*
G02*
X209289949Y-89854773I-70711J70711D01*
G01*
X208706586Y-89271410D01*
G75*
G02*
X208706586Y-89129988I70711J70711D01*
G01*
G37*
G36*
G01*
X208353033Y-89483541D02*
X208494454Y-89342120D01*
G75*
G02*
X208635876Y-89342120I70711J-70711D01*
G01*
X209219239Y-89925483D01*
G75*
G02*
X209219239Y-90066905I-70711J-70711D01*
G01*
X209077818Y-90208326D01*
G75*
G02*
X208936396Y-90208326I-70711J70711D01*
G01*
X208353033Y-89624963D01*
G75*
G02*
X208353033Y-89483541I70711J70711D01*
G01*
G37*
G36*
G01*
X207380761Y-89925483D02*
X207964124Y-89342120D01*
G75*
G02*
X208105546Y-89342120I70711J-70711D01*
G01*
X208246967Y-89483541D01*
G75*
G02*
X208246967Y-89624963I-70711J-70711D01*
G01*
X207663604Y-90208326D01*
G75*
G02*
X207522182Y-90208326I-70711J70711D01*
G01*
X207380761Y-90066905D01*
G75*
G02*
X207380761Y-89925483I70711J70711D01*
G01*
G37*
G36*
G01*
X207027208Y-89571930D02*
X207610571Y-88988567D01*
G75*
G02*
X207751993Y-88988567I70711J-70711D01*
G01*
X207893414Y-89129988D01*
G75*
G02*
X207893414Y-89271410I-70711J-70711D01*
G01*
X207310051Y-89854773D01*
G75*
G02*
X207168629Y-89854773I-70711J70711D01*
G01*
X207027208Y-89713352D01*
G75*
G02*
X207027208Y-89571930I70711J70711D01*
G01*
G37*
G36*
G01*
X206673654Y-89218376D02*
X207257017Y-88635013D01*
G75*
G02*
X207398439Y-88635013I70711J-70711D01*
G01*
X207539860Y-88776434D01*
G75*
G02*
X207539860Y-88917856I-70711J-70711D01*
G01*
X206956497Y-89501219D01*
G75*
G02*
X206815075Y-89501219I-70711J70711D01*
G01*
X206673654Y-89359798D01*
G75*
G02*
X206673654Y-89218376I70711J70711D01*
G01*
G37*
G36*
G01*
X206320101Y-88864823D02*
X206903464Y-88281460D01*
G75*
G02*
X207044886Y-88281460I70711J-70711D01*
G01*
X207186307Y-88422881D01*
G75*
G02*
X207186307Y-88564303I-70711J-70711D01*
G01*
X206602944Y-89147666D01*
G75*
G02*
X206461522Y-89147666I-70711J70711D01*
G01*
X206320101Y-89006245D01*
G75*
G02*
X206320101Y-88864823I70711J70711D01*
G01*
G37*
G36*
G01*
X205966548Y-88511270D02*
X206549911Y-87927907D01*
G75*
G02*
X206691333Y-87927907I70711J-70711D01*
G01*
X206832754Y-88069328D01*
G75*
G02*
X206832754Y-88210750I-70711J-70711D01*
G01*
X206249391Y-88794113D01*
G75*
G02*
X206107969Y-88794113I-70711J70711D01*
G01*
X205966548Y-88652692D01*
G75*
G02*
X205966548Y-88511270I70711J70711D01*
G01*
G37*
G36*
G01*
X205612994Y-88157716D02*
X206196357Y-87574353D01*
G75*
G02*
X206337779Y-87574353I70711J-70711D01*
G01*
X206479200Y-87715774D01*
G75*
G02*
X206479200Y-87857196I-70711J-70711D01*
G01*
X205895837Y-88440559D01*
G75*
G02*
X205754415Y-88440559I-70711J70711D01*
G01*
X205612994Y-88299138D01*
G75*
G02*
X205612994Y-88157716I70711J70711D01*
G01*
G37*
G36*
G01*
X205259441Y-87804163D02*
X205842804Y-87220800D01*
G75*
G02*
X205984226Y-87220800I70711J-70711D01*
G01*
X206125647Y-87362221D01*
G75*
G02*
X206125647Y-87503643I-70711J-70711D01*
G01*
X205542284Y-88087006D01*
G75*
G02*
X205400862Y-88087006I-70711J70711D01*
G01*
X205259441Y-87945585D01*
G75*
G02*
X205259441Y-87804163I70711J70711D01*
G01*
G37*
G36*
G01*
X204905887Y-87450609D02*
X205489250Y-86867246D01*
G75*
G02*
X205630672Y-86867246I70711J-70711D01*
G01*
X205772093Y-87008667D01*
G75*
G02*
X205772093Y-87150089I-70711J-70711D01*
G01*
X205188730Y-87733452D01*
G75*
G02*
X205047308Y-87733452I-70711J70711D01*
G01*
X204905887Y-87592031D01*
G75*
G02*
X204905887Y-87450609I70711J70711D01*
G01*
G37*
G36*
G01*
X204552334Y-87097056D02*
X205135697Y-86513693D01*
G75*
G02*
X205277119Y-86513693I70711J-70711D01*
G01*
X205418540Y-86655114D01*
G75*
G02*
X205418540Y-86796536I-70711J-70711D01*
G01*
X204835177Y-87379899D01*
G75*
G02*
X204693755Y-87379899I-70711J70711D01*
G01*
X204552334Y-87238478D01*
G75*
G02*
X204552334Y-87097056I70711J70711D01*
G01*
G37*
G36*
G01*
X204198781Y-86743503D02*
X204782144Y-86160140D01*
G75*
G02*
X204923566Y-86160140I70711J-70711D01*
G01*
X205064987Y-86301561D01*
G75*
G02*
X205064987Y-86442983I-70711J-70711D01*
G01*
X204481624Y-87026346D01*
G75*
G02*
X204340202Y-87026346I-70711J70711D01*
G01*
X204198781Y-86884925D01*
G75*
G02*
X204198781Y-86743503I70711J70711D01*
G01*
G37*
G36*
G01*
X203845227Y-86389949D02*
X204428590Y-85806586D01*
G75*
G02*
X204570012Y-85806586I70711J-70711D01*
G01*
X204711433Y-85948007D01*
G75*
G02*
X204711433Y-86089429I-70711J-70711D01*
G01*
X204128070Y-86672792D01*
G75*
G02*
X203986648Y-86672792I-70711J70711D01*
G01*
X203845227Y-86531371D01*
G75*
G02*
X203845227Y-86389949I70711J70711D01*
G01*
G37*
G36*
G01*
X203491674Y-86036396D02*
X204075037Y-85453033D01*
G75*
G02*
X204216459Y-85453033I70711J-70711D01*
G01*
X204357880Y-85594454D01*
G75*
G02*
X204357880Y-85735876I-70711J-70711D01*
G01*
X203774517Y-86319239D01*
G75*
G02*
X203633095Y-86319239I-70711J70711D01*
G01*
X203491674Y-86177818D01*
G75*
G02*
X203491674Y-86036396I70711J70711D01*
G01*
G37*
G36*
G01*
X203491674Y-84622182D02*
X203633095Y-84480761D01*
G75*
G02*
X203774517Y-84480761I70711J-70711D01*
G01*
X204357880Y-85064124D01*
G75*
G02*
X204357880Y-85205546I-70711J-70711D01*
G01*
X204216459Y-85346967D01*
G75*
G02*
X204075037Y-85346967I-70711J70711D01*
G01*
X203491674Y-84763604D01*
G75*
G02*
X203491674Y-84622182I70711J70711D01*
G01*
G37*
G36*
G01*
X203845227Y-84268629D02*
X203986648Y-84127208D01*
G75*
G02*
X204128070Y-84127208I70711J-70711D01*
G01*
X204711433Y-84710571D01*
G75*
G02*
X204711433Y-84851993I-70711J-70711D01*
G01*
X204570012Y-84993414D01*
G75*
G02*
X204428590Y-84993414I-70711J70711D01*
G01*
X203845227Y-84410051D01*
G75*
G02*
X203845227Y-84268629I70711J70711D01*
G01*
G37*
G36*
G01*
X204198781Y-83915075D02*
X204340202Y-83773654D01*
G75*
G02*
X204481624Y-83773654I70711J-70711D01*
G01*
X205064987Y-84357017D01*
G75*
G02*
X205064987Y-84498439I-70711J-70711D01*
G01*
X204923566Y-84639860D01*
G75*
G02*
X204782144Y-84639860I-70711J70711D01*
G01*
X204198781Y-84056497D01*
G75*
G02*
X204198781Y-83915075I70711J70711D01*
G01*
G37*
G36*
G01*
X204552334Y-83561522D02*
X204693755Y-83420101D01*
G75*
G02*
X204835177Y-83420101I70711J-70711D01*
G01*
X205418540Y-84003464D01*
G75*
G02*
X205418540Y-84144886I-70711J-70711D01*
G01*
X205277119Y-84286307D01*
G75*
G02*
X205135697Y-84286307I-70711J70711D01*
G01*
X204552334Y-83702944D01*
G75*
G02*
X204552334Y-83561522I70711J70711D01*
G01*
G37*
G36*
G01*
X204905887Y-83207969D02*
X205047308Y-83066548D01*
G75*
G02*
X205188730Y-83066548I70711J-70711D01*
G01*
X205772093Y-83649911D01*
G75*
G02*
X205772093Y-83791333I-70711J-70711D01*
G01*
X205630672Y-83932754D01*
G75*
G02*
X205489250Y-83932754I-70711J70711D01*
G01*
X204905887Y-83349391D01*
G75*
G02*
X204905887Y-83207969I70711J70711D01*
G01*
G37*
G36*
G01*
X205259441Y-82854415D02*
X205400862Y-82712994D01*
G75*
G02*
X205542284Y-82712994I70711J-70711D01*
G01*
X206125647Y-83296357D01*
G75*
G02*
X206125647Y-83437779I-70711J-70711D01*
G01*
X205984226Y-83579200D01*
G75*
G02*
X205842804Y-83579200I-70711J70711D01*
G01*
X205259441Y-82995837D01*
G75*
G02*
X205259441Y-82854415I70711J70711D01*
G01*
G37*
G36*
G01*
X205612994Y-82500862D02*
X205754415Y-82359441D01*
G75*
G02*
X205895837Y-82359441I70711J-70711D01*
G01*
X206479200Y-82942804D01*
G75*
G02*
X206479200Y-83084226I-70711J-70711D01*
G01*
X206337779Y-83225647D01*
G75*
G02*
X206196357Y-83225647I-70711J70711D01*
G01*
X205612994Y-82642284D01*
G75*
G02*
X205612994Y-82500862I70711J70711D01*
G01*
G37*
G36*
G01*
X205966548Y-82147308D02*
X206107969Y-82005887D01*
G75*
G02*
X206249391Y-82005887I70711J-70711D01*
G01*
X206832754Y-82589250D01*
G75*
G02*
X206832754Y-82730672I-70711J-70711D01*
G01*
X206691333Y-82872093D01*
G75*
G02*
X206549911Y-82872093I-70711J70711D01*
G01*
X205966548Y-82288730D01*
G75*
G02*
X205966548Y-82147308I70711J70711D01*
G01*
G37*
G36*
G01*
X206320101Y-81793755D02*
X206461522Y-81652334D01*
G75*
G02*
X206602944Y-81652334I70711J-70711D01*
G01*
X207186307Y-82235697D01*
G75*
G02*
X207186307Y-82377119I-70711J-70711D01*
G01*
X207044886Y-82518540D01*
G75*
G02*
X206903464Y-82518540I-70711J70711D01*
G01*
X206320101Y-81935177D01*
G75*
G02*
X206320101Y-81793755I70711J70711D01*
G01*
G37*
G36*
G01*
X206673654Y-81440202D02*
X206815075Y-81298781D01*
G75*
G02*
X206956497Y-81298781I70711J-70711D01*
G01*
X207539860Y-81882144D01*
G75*
G02*
X207539860Y-82023566I-70711J-70711D01*
G01*
X207398439Y-82164987D01*
G75*
G02*
X207257017Y-82164987I-70711J70711D01*
G01*
X206673654Y-81581624D01*
G75*
G02*
X206673654Y-81440202I70711J70711D01*
G01*
G37*
G36*
G01*
X207027208Y-81086648D02*
X207168629Y-80945227D01*
G75*
G02*
X207310051Y-80945227I70711J-70711D01*
G01*
X207893414Y-81528590D01*
G75*
G02*
X207893414Y-81670012I-70711J-70711D01*
G01*
X207751993Y-81811433D01*
G75*
G02*
X207610571Y-81811433I-70711J70711D01*
G01*
X207027208Y-81228070D01*
G75*
G02*
X207027208Y-81086648I70711J70711D01*
G01*
G37*
G36*
G01*
X207380761Y-80733095D02*
X207522182Y-80591674D01*
G75*
G02*
X207663604Y-80591674I70711J-70711D01*
G01*
X208246967Y-81175037D01*
G75*
G02*
X208246967Y-81316459I-70711J-70711D01*
G01*
X208105546Y-81457880D01*
G75*
G02*
X207964124Y-81457880I-70711J70711D01*
G01*
X207380761Y-80874517D01*
G75*
G02*
X207380761Y-80733095I70711J70711D01*
G01*
G37*
%TD*%
%TO.C,R59*%
G36*
G01*
X219881155Y-181715000D02*
X218538845Y-181715000D01*
G75*
G02*
X218260000Y-181436155I0J278845D01*
G01*
X218260000Y-180543845D01*
G75*
G02*
X218538845Y-180265000I278845J0D01*
G01*
X219881155Y-180265000D01*
G75*
G02*
X220160000Y-180543845I0J-278845D01*
G01*
X220160000Y-181436155D01*
G75*
G02*
X219881155Y-181715000I-278845J0D01*
G01*
G37*
G36*
G01*
X219881155Y-184815000D02*
X218538845Y-184815000D01*
G75*
G02*
X218260000Y-184536155I0J278845D01*
G01*
X218260000Y-183643845D01*
G75*
G02*
X218538845Y-183365000I278845J0D01*
G01*
X219881155Y-183365000D01*
G75*
G02*
X220160000Y-183643845I0J-278845D01*
G01*
X220160000Y-184536155D01*
G75*
G02*
X219881155Y-184815000I-278845J0D01*
G01*
G37*
%TD*%
%TO.C,U5*%
G36*
G01*
X206867500Y-181345000D02*
X206492500Y-181345000D01*
G75*
G02*
X206305000Y-181157500I0J187500D01*
G01*
X206305000Y-179432500D01*
G75*
G02*
X206492500Y-179245000I187500J0D01*
G01*
X206867500Y-179245000D01*
G75*
G02*
X207055000Y-179432500I0J-187500D01*
G01*
X207055000Y-181157500D01*
G75*
G02*
X206867500Y-181345000I-187500J0D01*
G01*
G37*
G36*
G01*
X208137500Y-181345000D02*
X207762500Y-181345000D01*
G75*
G02*
X207575000Y-181157500I0J187500D01*
G01*
X207575000Y-179432500D01*
G75*
G02*
X207762500Y-179245000I187500J0D01*
G01*
X208137500Y-179245000D01*
G75*
G02*
X208325000Y-179432500I0J-187500D01*
G01*
X208325000Y-181157500D01*
G75*
G02*
X208137500Y-181345000I-187500J0D01*
G01*
G37*
G36*
G01*
X209407500Y-181345000D02*
X209032500Y-181345000D01*
G75*
G02*
X208845000Y-181157500I0J187500D01*
G01*
X208845000Y-179432500D01*
G75*
G02*
X209032500Y-179245000I187500J0D01*
G01*
X209407500Y-179245000D01*
G75*
G02*
X209595000Y-179432500I0J-187500D01*
G01*
X209595000Y-181157500D01*
G75*
G02*
X209407500Y-181345000I-187500J0D01*
G01*
G37*
G36*
G01*
X210677500Y-181345000D02*
X210302500Y-181345000D01*
G75*
G02*
X210115000Y-181157500I0J187500D01*
G01*
X210115000Y-179432500D01*
G75*
G02*
X210302500Y-179245000I187500J0D01*
G01*
X210677500Y-179245000D01*
G75*
G02*
X210865000Y-179432500I0J-187500D01*
G01*
X210865000Y-181157500D01*
G75*
G02*
X210677500Y-181345000I-187500J0D01*
G01*
G37*
G36*
G01*
X211947500Y-181345000D02*
X211572500Y-181345000D01*
G75*
G02*
X211385000Y-181157500I0J187500D01*
G01*
X211385000Y-179432500D01*
G75*
G02*
X211572500Y-179245000I187500J0D01*
G01*
X211947500Y-179245000D01*
G75*
G02*
X212135000Y-179432500I0J-187500D01*
G01*
X212135000Y-181157500D01*
G75*
G02*
X211947500Y-181345000I-187500J0D01*
G01*
G37*
G36*
G01*
X213217500Y-181345000D02*
X212842500Y-181345000D01*
G75*
G02*
X212655000Y-181157500I0J187500D01*
G01*
X212655000Y-179432500D01*
G75*
G02*
X212842500Y-179245000I187500J0D01*
G01*
X213217500Y-179245000D01*
G75*
G02*
X213405000Y-179432500I0J-187500D01*
G01*
X213405000Y-181157500D01*
G75*
G02*
X213217500Y-181345000I-187500J0D01*
G01*
G37*
G36*
G01*
X214487500Y-181345000D02*
X214112500Y-181345000D01*
G75*
G02*
X213925000Y-181157500I0J187500D01*
G01*
X213925000Y-179432500D01*
G75*
G02*
X214112500Y-179245000I187500J0D01*
G01*
X214487500Y-179245000D01*
G75*
G02*
X214675000Y-179432500I0J-187500D01*
G01*
X214675000Y-181157500D01*
G75*
G02*
X214487500Y-181345000I-187500J0D01*
G01*
G37*
G36*
G01*
X214487500Y-186295000D02*
X214112500Y-186295000D01*
G75*
G02*
X213925000Y-186107500I0J187500D01*
G01*
X213925000Y-184382500D01*
G75*
G02*
X214112500Y-184195000I187500J0D01*
G01*
X214487500Y-184195000D01*
G75*
G02*
X214675000Y-184382500I0J-187500D01*
G01*
X214675000Y-186107500D01*
G75*
G02*
X214487500Y-186295000I-187500J0D01*
G01*
G37*
G36*
G01*
X213217500Y-186295000D02*
X212842500Y-186295000D01*
G75*
G02*
X212655000Y-186107500I0J187500D01*
G01*
X212655000Y-184382500D01*
G75*
G02*
X212842500Y-184195000I187500J0D01*
G01*
X213217500Y-184195000D01*
G75*
G02*
X213405000Y-184382500I0J-187500D01*
G01*
X213405000Y-186107500D01*
G75*
G02*
X213217500Y-186295000I-187500J0D01*
G01*
G37*
G36*
G01*
X211947500Y-186295000D02*
X211572500Y-186295000D01*
G75*
G02*
X211385000Y-186107500I0J187500D01*
G01*
X211385000Y-184382500D01*
G75*
G02*
X211572500Y-184195000I187500J0D01*
G01*
X211947500Y-184195000D01*
G75*
G02*
X212135000Y-184382500I0J-187500D01*
G01*
X212135000Y-186107500D01*
G75*
G02*
X211947500Y-186295000I-187500J0D01*
G01*
G37*
G36*
G01*
X210677500Y-186295000D02*
X210302500Y-186295000D01*
G75*
G02*
X210115000Y-186107500I0J187500D01*
G01*
X210115000Y-184382500D01*
G75*
G02*
X210302500Y-184195000I187500J0D01*
G01*
X210677500Y-184195000D01*
G75*
G02*
X210865000Y-184382500I0J-187500D01*
G01*
X210865000Y-186107500D01*
G75*
G02*
X210677500Y-186295000I-187500J0D01*
G01*
G37*
G36*
G01*
X209407500Y-186295000D02*
X209032500Y-186295000D01*
G75*
G02*
X208845000Y-186107500I0J187500D01*
G01*
X208845000Y-184382500D01*
G75*
G02*
X209032500Y-184195000I187500J0D01*
G01*
X209407500Y-184195000D01*
G75*
G02*
X209595000Y-184382500I0J-187500D01*
G01*
X209595000Y-186107500D01*
G75*
G02*
X209407500Y-186295000I-187500J0D01*
G01*
G37*
G36*
G01*
X208137500Y-186295000D02*
X207762500Y-186295000D01*
G75*
G02*
X207575000Y-186107500I0J187500D01*
G01*
X207575000Y-184382500D01*
G75*
G02*
X207762500Y-184195000I187500J0D01*
G01*
X208137500Y-184195000D01*
G75*
G02*
X208325000Y-184382500I0J-187500D01*
G01*
X208325000Y-186107500D01*
G75*
G02*
X208137500Y-186295000I-187500J0D01*
G01*
G37*
G36*
G01*
X206867500Y-186295000D02*
X206492500Y-186295000D01*
G75*
G02*
X206305000Y-186107500I0J187500D01*
G01*
X206305000Y-184382500D01*
G75*
G02*
X206492500Y-184195000I187500J0D01*
G01*
X206867500Y-184195000D01*
G75*
G02*
X207055000Y-184382500I0J-187500D01*
G01*
X207055000Y-186107500D01*
G75*
G02*
X206867500Y-186295000I-187500J0D01*
G01*
G37*
%TD*%
%TO.C,R60*%
G36*
G01*
X216078845Y-183395000D02*
X217421155Y-183395000D01*
G75*
G02*
X217700000Y-183673845I0J-278845D01*
G01*
X217700000Y-184566155D01*
G75*
G02*
X217421155Y-184845000I-278845J0D01*
G01*
X216078845Y-184845000D01*
G75*
G02*
X215800000Y-184566155I0J278845D01*
G01*
X215800000Y-183673845D01*
G75*
G02*
X216078845Y-183395000I278845J0D01*
G01*
G37*
G36*
G01*
X216078845Y-180295000D02*
X217421155Y-180295000D01*
G75*
G02*
X217700000Y-180573845I0J-278845D01*
G01*
X217700000Y-181466155D01*
G75*
G02*
X217421155Y-181745000I-278845J0D01*
G01*
X216078845Y-181745000D01*
G75*
G02*
X215800000Y-181466155I0J278845D01*
G01*
X215800000Y-180573845D01*
G75*
G02*
X216078845Y-180295000I278845J0D01*
G01*
G37*
%TD*%
%TO.C,U15*%
G36*
G01*
X149825000Y-70900000D02*
X149825000Y-65100000D01*
G75*
G02*
X149900000Y-65025000I75000J0D01*
G01*
X156300000Y-65025000D01*
G75*
G02*
X156375000Y-65100000I0J-75000D01*
G01*
X156375000Y-70900000D01*
G75*
G02*
X156300000Y-70975000I-75000J0D01*
G01*
X149900000Y-70975000D01*
G75*
G02*
X149825000Y-70900000I0J75000D01*
G01*
G37*
G36*
G01*
X145625000Y-70880000D02*
X145625000Y-69680000D01*
G75*
G02*
X145700000Y-69605000I75000J0D01*
G01*
X147900000Y-69605000D01*
G75*
G02*
X147975000Y-69680000I0J-75000D01*
G01*
X147975000Y-70880000D01*
G75*
G02*
X147900000Y-70955000I-75000J0D01*
G01*
X145700000Y-70955000D01*
G75*
G02*
X145625000Y-70880000I0J75000D01*
G01*
G37*
G36*
G01*
X145625000Y-66320000D02*
X145625000Y-65120000D01*
G75*
G02*
X145700000Y-65045000I75000J0D01*
G01*
X147900000Y-65045000D01*
G75*
G02*
X147975000Y-65120000I0J-75000D01*
G01*
X147975000Y-66320000D01*
G75*
G02*
X147900000Y-66395000I-75000J0D01*
G01*
X145700000Y-66395000D01*
G75*
G02*
X145625000Y-66320000I0J75000D01*
G01*
G37*
%TD*%
%TO.C,U13*%
G36*
G01*
X140775000Y-80450000D02*
X140775000Y-78950000D01*
G75*
G02*
X140850000Y-78875000I75000J0D01*
G01*
X142850000Y-78875000D01*
G75*
G02*
X142925000Y-78950000I0J-75000D01*
G01*
X142925000Y-80450000D01*
G75*
G02*
X142850000Y-80525000I-75000J0D01*
G01*
X140850000Y-80525000D01*
G75*
G02*
X140775000Y-80450000I0J75000D01*
G01*
G37*
G36*
G01*
X140775000Y-85050000D02*
X140775000Y-83550000D01*
G75*
G02*
X140850000Y-83475000I75000J0D01*
G01*
X142850000Y-83475000D01*
G75*
G02*
X142925000Y-83550000I0J-75000D01*
G01*
X142925000Y-85050000D01*
G75*
G02*
X142850000Y-85125000I-75000J0D01*
G01*
X140850000Y-85125000D01*
G75*
G02*
X140775000Y-85050000I0J75000D01*
G01*
G37*
G36*
G01*
X140775000Y-82750000D02*
X140775000Y-81250000D01*
G75*
G02*
X140850000Y-81175000I75000J0D01*
G01*
X142850000Y-81175000D01*
G75*
G02*
X142925000Y-81250000I0J-75000D01*
G01*
X142925000Y-82750000D01*
G75*
G02*
X142850000Y-82825000I-75000J0D01*
G01*
X140850000Y-82825000D01*
G75*
G02*
X140775000Y-82750000I0J75000D01*
G01*
G37*
G36*
G01*
X147075000Y-83900000D02*
X147075000Y-80100000D01*
G75*
G02*
X147150000Y-80025000I75000J0D01*
G01*
X149150000Y-80025000D01*
G75*
G02*
X149225000Y-80100000I0J-75000D01*
G01*
X149225000Y-83900000D01*
G75*
G02*
X149150000Y-83975000I-75000J0D01*
G01*
X147150000Y-83975000D01*
G75*
G02*
X147075000Y-83900000I0J75000D01*
G01*
G37*
%TD*%
%TO.C,U12*%
G36*
G01*
X164862500Y-68475000D02*
X165187500Y-68475000D01*
G75*
G02*
X165350000Y-68637500I0J-162500D01*
G01*
X165350000Y-70362500D01*
G75*
G02*
X165187500Y-70525000I-162500J0D01*
G01*
X164862500Y-70525000D01*
G75*
G02*
X164700000Y-70362500I0J162500D01*
G01*
X164700000Y-68637500D01*
G75*
G02*
X164862500Y-68475000I162500J0D01*
G01*
G37*
G36*
G01*
X164212500Y-68475000D02*
X164537500Y-68475000D01*
G75*
G02*
X164700000Y-68637500I0J-162500D01*
G01*
X164700000Y-70362500D01*
G75*
G02*
X164537500Y-70525000I-162500J0D01*
G01*
X164212500Y-70525000D01*
G75*
G02*
X164050000Y-70362500I0J162500D01*
G01*
X164050000Y-68637500D01*
G75*
G02*
X164212500Y-68475000I162500J0D01*
G01*
G37*
G36*
G01*
X163562500Y-68475000D02*
X163887500Y-68475000D01*
G75*
G02*
X164050000Y-68637500I0J-162500D01*
G01*
X164050000Y-70362500D01*
G75*
G02*
X163887500Y-70525000I-162500J0D01*
G01*
X163562500Y-70525000D01*
G75*
G02*
X163400000Y-70362500I0J162500D01*
G01*
X163400000Y-68637500D01*
G75*
G02*
X163562500Y-68475000I162500J0D01*
G01*
G37*
G36*
G01*
X162912500Y-68475000D02*
X163237500Y-68475000D01*
G75*
G02*
X163400000Y-68637500I0J-162500D01*
G01*
X163400000Y-70362500D01*
G75*
G02*
X163237500Y-70525000I-162500J0D01*
G01*
X162912500Y-70525000D01*
G75*
G02*
X162750000Y-70362500I0J162500D01*
G01*
X162750000Y-68637500D01*
G75*
G02*
X162912500Y-68475000I162500J0D01*
G01*
G37*
G36*
G01*
X162262500Y-68475000D02*
X162587500Y-68475000D01*
G75*
G02*
X162750000Y-68637500I0J-162500D01*
G01*
X162750000Y-70362500D01*
G75*
G02*
X162587500Y-70525000I-162500J0D01*
G01*
X162262500Y-70525000D01*
G75*
G02*
X162100000Y-70362500I0J162500D01*
G01*
X162100000Y-68637500D01*
G75*
G02*
X162262500Y-68475000I162500J0D01*
G01*
G37*
G36*
G01*
X161612500Y-68475000D02*
X161937500Y-68475000D01*
G75*
G02*
X162100000Y-68637500I0J-162500D01*
G01*
X162100000Y-70362500D01*
G75*
G02*
X161937500Y-70525000I-162500J0D01*
G01*
X161612500Y-70525000D01*
G75*
G02*
X161450000Y-70362500I0J162500D01*
G01*
X161450000Y-68637500D01*
G75*
G02*
X161612500Y-68475000I162500J0D01*
G01*
G37*
G36*
G01*
X160962500Y-68475000D02*
X161287500Y-68475000D01*
G75*
G02*
X161450000Y-68637500I0J-162500D01*
G01*
X161450000Y-70362500D01*
G75*
G02*
X161287500Y-70525000I-162500J0D01*
G01*
X160962500Y-70525000D01*
G75*
G02*
X160800000Y-70362500I0J162500D01*
G01*
X160800000Y-68637500D01*
G75*
G02*
X160962500Y-68475000I162500J0D01*
G01*
G37*
G36*
G01*
X160312500Y-68475000D02*
X160637500Y-68475000D01*
G75*
G02*
X160800000Y-68637500I0J-162500D01*
G01*
X160800000Y-70362500D01*
G75*
G02*
X160637500Y-70525000I-162500J0D01*
G01*
X160312500Y-70525000D01*
G75*
G02*
X160150000Y-70362500I0J162500D01*
G01*
X160150000Y-68637500D01*
G75*
G02*
X160312500Y-68475000I162500J0D01*
G01*
G37*
G36*
G01*
X159662500Y-68475000D02*
X159987500Y-68475000D01*
G75*
G02*
X160150000Y-68637500I0J-162500D01*
G01*
X160150000Y-70362500D01*
G75*
G02*
X159987500Y-70525000I-162500J0D01*
G01*
X159662500Y-70525000D01*
G75*
G02*
X159500000Y-70362500I0J162500D01*
G01*
X159500000Y-68637500D01*
G75*
G02*
X159662500Y-68475000I162500J0D01*
G01*
G37*
G36*
G01*
X159012500Y-68475000D02*
X159337500Y-68475000D01*
G75*
G02*
X159500000Y-68637500I0J-162500D01*
G01*
X159500000Y-70362500D01*
G75*
G02*
X159337500Y-70525000I-162500J0D01*
G01*
X159012500Y-70525000D01*
G75*
G02*
X158850000Y-70362500I0J162500D01*
G01*
X158850000Y-68637500D01*
G75*
G02*
X159012500Y-68475000I162500J0D01*
G01*
G37*
G36*
G01*
X159012500Y-61475000D02*
X159337500Y-61475000D01*
G75*
G02*
X159500000Y-61637500I0J-162500D01*
G01*
X159500000Y-63362500D01*
G75*
G02*
X159337500Y-63525000I-162500J0D01*
G01*
X159012500Y-63525000D01*
G75*
G02*
X158850000Y-63362500I0J162500D01*
G01*
X158850000Y-61637500D01*
G75*
G02*
X159012500Y-61475000I162500J0D01*
G01*
G37*
G36*
G01*
X159662500Y-61475000D02*
X159987500Y-61475000D01*
G75*
G02*
X160150000Y-61637500I0J-162500D01*
G01*
X160150000Y-63362500D01*
G75*
G02*
X159987500Y-63525000I-162500J0D01*
G01*
X159662500Y-63525000D01*
G75*
G02*
X159500000Y-63362500I0J162500D01*
G01*
X159500000Y-61637500D01*
G75*
G02*
X159662500Y-61475000I162500J0D01*
G01*
G37*
G36*
G01*
X160312500Y-61475000D02*
X160637500Y-61475000D01*
G75*
G02*
X160800000Y-61637500I0J-162500D01*
G01*
X160800000Y-63362500D01*
G75*
G02*
X160637500Y-63525000I-162500J0D01*
G01*
X160312500Y-63525000D01*
G75*
G02*
X160150000Y-63362500I0J162500D01*
G01*
X160150000Y-61637500D01*
G75*
G02*
X160312500Y-61475000I162500J0D01*
G01*
G37*
G36*
G01*
X160962500Y-61475000D02*
X161287500Y-61475000D01*
G75*
G02*
X161450000Y-61637500I0J-162500D01*
G01*
X161450000Y-63362500D01*
G75*
G02*
X161287500Y-63525000I-162500J0D01*
G01*
X160962500Y-63525000D01*
G75*
G02*
X160800000Y-63362500I0J162500D01*
G01*
X160800000Y-61637500D01*
G75*
G02*
X160962500Y-61475000I162500J0D01*
G01*
G37*
G36*
G01*
X161612500Y-61475000D02*
X161937500Y-61475000D01*
G75*
G02*
X162100000Y-61637500I0J-162500D01*
G01*
X162100000Y-63362500D01*
G75*
G02*
X161937500Y-63525000I-162500J0D01*
G01*
X161612500Y-63525000D01*
G75*
G02*
X161450000Y-63362500I0J162500D01*
G01*
X161450000Y-61637500D01*
G75*
G02*
X161612500Y-61475000I162500J0D01*
G01*
G37*
G36*
G01*
X162262500Y-61475000D02*
X162587500Y-61475000D01*
G75*
G02*
X162750000Y-61637500I0J-162500D01*
G01*
X162750000Y-63362500D01*
G75*
G02*
X162587500Y-63525000I-162500J0D01*
G01*
X162262500Y-63525000D01*
G75*
G02*
X162100000Y-63362500I0J162500D01*
G01*
X162100000Y-61637500D01*
G75*
G02*
X162262500Y-61475000I162500J0D01*
G01*
G37*
G36*
G01*
X162912500Y-61475000D02*
X163237500Y-61475000D01*
G75*
G02*
X163400000Y-61637500I0J-162500D01*
G01*
X163400000Y-63362500D01*
G75*
G02*
X163237500Y-63525000I-162500J0D01*
G01*
X162912500Y-63525000D01*
G75*
G02*
X162750000Y-63362500I0J162500D01*
G01*
X162750000Y-61637500D01*
G75*
G02*
X162912500Y-61475000I162500J0D01*
G01*
G37*
G36*
G01*
X163562500Y-61475000D02*
X163887500Y-61475000D01*
G75*
G02*
X164050000Y-61637500I0J-162500D01*
G01*
X164050000Y-63362500D01*
G75*
G02*
X163887500Y-63525000I-162500J0D01*
G01*
X163562500Y-63525000D01*
G75*
G02*
X163400000Y-63362500I0J162500D01*
G01*
X163400000Y-61637500D01*
G75*
G02*
X163562500Y-61475000I162500J0D01*
G01*
G37*
G36*
G01*
X164212500Y-61475000D02*
X164537500Y-61475000D01*
G75*
G02*
X164700000Y-61637500I0J-162500D01*
G01*
X164700000Y-63362500D01*
G75*
G02*
X164537500Y-63525000I-162500J0D01*
G01*
X164212500Y-63525000D01*
G75*
G02*
X164050000Y-63362500I0J162500D01*
G01*
X164050000Y-61637500D01*
G75*
G02*
X164212500Y-61475000I162500J0D01*
G01*
G37*
G36*
G01*
X164862500Y-61475000D02*
X165187500Y-61475000D01*
G75*
G02*
X165350000Y-61637500I0J-162500D01*
G01*
X165350000Y-63362500D01*
G75*
G02*
X165187500Y-63525000I-162500J0D01*
G01*
X164862500Y-63525000D01*
G75*
G02*
X164700000Y-63362500I0J162500D01*
G01*
X164700000Y-61637500D01*
G75*
G02*
X164862500Y-61475000I162500J0D01*
G01*
G37*
%TD*%
%TO.C,U9*%
G36*
G01*
X228325000Y-50377500D02*
X228325000Y-50002500D01*
G75*
G02*
X228512500Y-49815000I187500J0D01*
G01*
X230237500Y-49815000D01*
G75*
G02*
X230425000Y-50002500I0J-187500D01*
G01*
X230425000Y-50377500D01*
G75*
G02*
X230237500Y-50565000I-187500J0D01*
G01*
X228512500Y-50565000D01*
G75*
G02*
X228325000Y-50377500I0J187500D01*
G01*
G37*
G36*
G01*
X228325000Y-51647500D02*
X228325000Y-51272500D01*
G75*
G02*
X228512500Y-51085000I187500J0D01*
G01*
X230237500Y-51085000D01*
G75*
G02*
X230425000Y-51272500I0J-187500D01*
G01*
X230425000Y-51647500D01*
G75*
G02*
X230237500Y-51835000I-187500J0D01*
G01*
X228512500Y-51835000D01*
G75*
G02*
X228325000Y-51647500I0J187500D01*
G01*
G37*
G36*
G01*
X228325000Y-52917500D02*
X228325000Y-52542500D01*
G75*
G02*
X228512500Y-52355000I187500J0D01*
G01*
X230237500Y-52355000D01*
G75*
G02*
X230425000Y-52542500I0J-187500D01*
G01*
X230425000Y-52917500D01*
G75*
G02*
X230237500Y-53105000I-187500J0D01*
G01*
X228512500Y-53105000D01*
G75*
G02*
X228325000Y-52917500I0J187500D01*
G01*
G37*
G36*
G01*
X228325000Y-54187500D02*
X228325000Y-53812500D01*
G75*
G02*
X228512500Y-53625000I187500J0D01*
G01*
X230237500Y-53625000D01*
G75*
G02*
X230425000Y-53812500I0J-187500D01*
G01*
X230425000Y-54187500D01*
G75*
G02*
X230237500Y-54375000I-187500J0D01*
G01*
X228512500Y-54375000D01*
G75*
G02*
X228325000Y-54187500I0J187500D01*
G01*
G37*
G36*
G01*
X228325000Y-55457500D02*
X228325000Y-55082500D01*
G75*
G02*
X228512500Y-54895000I187500J0D01*
G01*
X230237500Y-54895000D01*
G75*
G02*
X230425000Y-55082500I0J-187500D01*
G01*
X230425000Y-55457500D01*
G75*
G02*
X230237500Y-55645000I-187500J0D01*
G01*
X228512500Y-55645000D01*
G75*
G02*
X228325000Y-55457500I0J187500D01*
G01*
G37*
G36*
G01*
X228325000Y-56727500D02*
X228325000Y-56352500D01*
G75*
G02*
X228512500Y-56165000I187500J0D01*
G01*
X230237500Y-56165000D01*
G75*
G02*
X230425000Y-56352500I0J-187500D01*
G01*
X230425000Y-56727500D01*
G75*
G02*
X230237500Y-56915000I-187500J0D01*
G01*
X228512500Y-56915000D01*
G75*
G02*
X228325000Y-56727500I0J187500D01*
G01*
G37*
G36*
G01*
X228325000Y-57997500D02*
X228325000Y-57622500D01*
G75*
G02*
X228512500Y-57435000I187500J0D01*
G01*
X230237500Y-57435000D01*
G75*
G02*
X230425000Y-57622500I0J-187500D01*
G01*
X230425000Y-57997500D01*
G75*
G02*
X230237500Y-58185000I-187500J0D01*
G01*
X228512500Y-58185000D01*
G75*
G02*
X228325000Y-57997500I0J187500D01*
G01*
G37*
G36*
G01*
X223375000Y-57997500D02*
X223375000Y-57622500D01*
G75*
G02*
X223562500Y-57435000I187500J0D01*
G01*
X225287500Y-57435000D01*
G75*
G02*
X225475000Y-57622500I0J-187500D01*
G01*
X225475000Y-57997500D01*
G75*
G02*
X225287500Y-58185000I-187500J0D01*
G01*
X223562500Y-58185000D01*
G75*
G02*
X223375000Y-57997500I0J187500D01*
G01*
G37*
G36*
G01*
X223375000Y-56727500D02*
X223375000Y-56352500D01*
G75*
G02*
X223562500Y-56165000I187500J0D01*
G01*
X225287500Y-56165000D01*
G75*
G02*
X225475000Y-56352500I0J-187500D01*
G01*
X225475000Y-56727500D01*
G75*
G02*
X225287500Y-56915000I-187500J0D01*
G01*
X223562500Y-56915000D01*
G75*
G02*
X223375000Y-56727500I0J187500D01*
G01*
G37*
G36*
G01*
X223375000Y-55457500D02*
X223375000Y-55082500D01*
G75*
G02*
X223562500Y-54895000I187500J0D01*
G01*
X225287500Y-54895000D01*
G75*
G02*
X225475000Y-55082500I0J-187500D01*
G01*
X225475000Y-55457500D01*
G75*
G02*
X225287500Y-55645000I-187500J0D01*
G01*
X223562500Y-55645000D01*
G75*
G02*
X223375000Y-55457500I0J187500D01*
G01*
G37*
G36*
G01*
X223375000Y-54187500D02*
X223375000Y-53812500D01*
G75*
G02*
X223562500Y-53625000I187500J0D01*
G01*
X225287500Y-53625000D01*
G75*
G02*
X225475000Y-53812500I0J-187500D01*
G01*
X225475000Y-54187500D01*
G75*
G02*
X225287500Y-54375000I-187500J0D01*
G01*
X223562500Y-54375000D01*
G75*
G02*
X223375000Y-54187500I0J187500D01*
G01*
G37*
G36*
G01*
X223375000Y-52917500D02*
X223375000Y-52542500D01*
G75*
G02*
X223562500Y-52355000I187500J0D01*
G01*
X225287500Y-52355000D01*
G75*
G02*
X225475000Y-52542500I0J-187500D01*
G01*
X225475000Y-52917500D01*
G75*
G02*
X225287500Y-53105000I-187500J0D01*
G01*
X223562500Y-53105000D01*
G75*
G02*
X223375000Y-52917500I0J187500D01*
G01*
G37*
G36*
G01*
X223375000Y-51647500D02*
X223375000Y-51272500D01*
G75*
G02*
X223562500Y-51085000I187500J0D01*
G01*
X225287500Y-51085000D01*
G75*
G02*
X225475000Y-51272500I0J-187500D01*
G01*
X225475000Y-51647500D01*
G75*
G02*
X225287500Y-51835000I-187500J0D01*
G01*
X223562500Y-51835000D01*
G75*
G02*
X223375000Y-51647500I0J187500D01*
G01*
G37*
G36*
G01*
X223375000Y-50377500D02*
X223375000Y-50002500D01*
G75*
G02*
X223562500Y-49815000I187500J0D01*
G01*
X225287500Y-49815000D01*
G75*
G02*
X225475000Y-50002500I0J-187500D01*
G01*
X225475000Y-50377500D01*
G75*
G02*
X225287500Y-50565000I-187500J0D01*
G01*
X223562500Y-50565000D01*
G75*
G02*
X223375000Y-50377500I0J187500D01*
G01*
G37*
%TD*%
%TO.C,SW2*%
G36*
G01*
X162850000Y-100075000D02*
X162850000Y-100835000D01*
G75*
G02*
X162775000Y-100910000I-75000J0D01*
G01*
X161525000Y-100910000D01*
G75*
G02*
X161450000Y-100835000I0J75000D01*
G01*
X161450000Y-100075000D01*
G75*
G02*
X161525000Y-100000000I75000J0D01*
G01*
X162775000Y-100000000D01*
G75*
G02*
X162850000Y-100075000I0J-75000D01*
G01*
G37*
G36*
G01*
X170450000Y-98805000D02*
X170450000Y-99565000D01*
G75*
G02*
X170375000Y-99640000I-75000J0D01*
G01*
X169125000Y-99640000D01*
G75*
G02*
X169050000Y-99565000I0J75000D01*
G01*
X169050000Y-98805000D01*
G75*
G02*
X169125000Y-98730000I75000J0D01*
G01*
X170375000Y-98730000D01*
G75*
G02*
X170450000Y-98805000I0J-75000D01*
G01*
G37*
G36*
G01*
X162850000Y-98805000D02*
X162850000Y-99565000D01*
G75*
G02*
X162775000Y-99640000I-75000J0D01*
G01*
X161525000Y-99640000D01*
G75*
G02*
X161450000Y-99565000I0J75000D01*
G01*
X161450000Y-98805000D01*
G75*
G02*
X161525000Y-98730000I75000J0D01*
G01*
X162775000Y-98730000D01*
G75*
G02*
X162850000Y-98805000I0J-75000D01*
G01*
G37*
G36*
G01*
X170450000Y-100075000D02*
X170450000Y-100835000D01*
G75*
G02*
X170375000Y-100910000I-75000J0D01*
G01*
X169125000Y-100910000D01*
G75*
G02*
X169050000Y-100835000I0J75000D01*
G01*
X169050000Y-100075000D01*
G75*
G02*
X169125000Y-100000000I75000J0D01*
G01*
X170375000Y-100000000D01*
G75*
G02*
X170450000Y-100075000I0J-75000D01*
G01*
G37*
%TD*%
%TO.C,SW1*%
G36*
G01*
X185775000Y-89275000D02*
X185775000Y-90775000D01*
G75*
G02*
X185700000Y-90850000I-75000J0D01*
G01*
X184000000Y-90850000D01*
G75*
G02*
X183925000Y-90775000I0J75000D01*
G01*
X183925000Y-89275000D01*
G75*
G02*
X184000000Y-89200000I75000J0D01*
G01*
X185700000Y-89200000D01*
G75*
G02*
X185775000Y-89275000I0J-75000D01*
G01*
G37*
G36*
G01*
X192275000Y-89275000D02*
X192275000Y-90775000D01*
G75*
G02*
X192200000Y-90850000I-75000J0D01*
G01*
X190500000Y-90850000D01*
G75*
G02*
X190425000Y-90775000I0J75000D01*
G01*
X190425000Y-89275000D01*
G75*
G02*
X190500000Y-89200000I75000J0D01*
G01*
X192200000Y-89200000D01*
G75*
G02*
X192275000Y-89275000I0J-75000D01*
G01*
G37*
%TD*%
%TO.C,R55*%
G36*
G01*
X162175000Y-96751155D02*
X162175000Y-95408845D01*
G75*
G02*
X162453845Y-95130000I278845J0D01*
G01*
X163346155Y-95130000D01*
G75*
G02*
X163625000Y-95408845I0J-278845D01*
G01*
X163625000Y-96751155D01*
G75*
G02*
X163346155Y-97030000I-278845J0D01*
G01*
X162453845Y-97030000D01*
G75*
G02*
X162175000Y-96751155I0J278845D01*
G01*
G37*
G36*
G01*
X159075000Y-96751155D02*
X159075000Y-95408845D01*
G75*
G02*
X159353845Y-95130000I278845J0D01*
G01*
X160246155Y-95130000D01*
G75*
G02*
X160525000Y-95408845I0J-278845D01*
G01*
X160525000Y-96751155D01*
G75*
G02*
X160246155Y-97030000I-278845J0D01*
G01*
X159353845Y-97030000D01*
G75*
G02*
X159075000Y-96751155I0J278845D01*
G01*
G37*
%TD*%
%TO.C,R54*%
G36*
G01*
X173075000Y-97118845D02*
X173075000Y-98461155D01*
G75*
G02*
X172796155Y-98740000I-278845J0D01*
G01*
X171903845Y-98740000D01*
G75*
G02*
X171625000Y-98461155I0J278845D01*
G01*
X171625000Y-97118845D01*
G75*
G02*
X171903845Y-96840000I278845J0D01*
G01*
X172796155Y-96840000D01*
G75*
G02*
X173075000Y-97118845I0J-278845D01*
G01*
G37*
G36*
G01*
X176175000Y-97118845D02*
X176175000Y-98461155D01*
G75*
G02*
X175896155Y-98740000I-278845J0D01*
G01*
X175003845Y-98740000D01*
G75*
G02*
X174725000Y-98461155I0J278845D01*
G01*
X174725000Y-97118845D01*
G75*
G02*
X175003845Y-96840000I278845J0D01*
G01*
X175896155Y-96840000D01*
G75*
G02*
X176175000Y-97118845I0J-278845D01*
G01*
G37*
%TD*%
%TO.C,R53*%
G36*
G01*
X154765000Y-94568845D02*
X154765000Y-95911155D01*
G75*
G02*
X154486155Y-96190000I-278845J0D01*
G01*
X153593845Y-96190000D01*
G75*
G02*
X153315000Y-95911155I0J278845D01*
G01*
X153315000Y-94568845D01*
G75*
G02*
X153593845Y-94290000I278845J0D01*
G01*
X154486155Y-94290000D01*
G75*
G02*
X154765000Y-94568845I0J-278845D01*
G01*
G37*
G36*
G01*
X157865000Y-94568845D02*
X157865000Y-95911155D01*
G75*
G02*
X157586155Y-96190000I-278845J0D01*
G01*
X156693845Y-96190000D01*
G75*
G02*
X156415000Y-95911155I0J278845D01*
G01*
X156415000Y-94568845D01*
G75*
G02*
X156693845Y-94290000I278845J0D01*
G01*
X157586155Y-94290000D01*
G75*
G02*
X157865000Y-94568845I0J-278845D01*
G01*
G37*
%TD*%
%TO.C,R52*%
G36*
G01*
X162165000Y-93011155D02*
X162165000Y-91668845D01*
G75*
G02*
X162443845Y-91390000I278845J0D01*
G01*
X163336155Y-91390000D01*
G75*
G02*
X163615000Y-91668845I0J-278845D01*
G01*
X163615000Y-93011155D01*
G75*
G02*
X163336155Y-93290000I-278845J0D01*
G01*
X162443845Y-93290000D01*
G75*
G02*
X162165000Y-93011155I0J278845D01*
G01*
G37*
G36*
G01*
X159065000Y-93011155D02*
X159065000Y-91668845D01*
G75*
G02*
X159343845Y-91390000I278845J0D01*
G01*
X160236155Y-91390000D01*
G75*
G02*
X160515000Y-91668845I0J-278845D01*
G01*
X160515000Y-93011155D01*
G75*
G02*
X160236155Y-93290000I-278845J0D01*
G01*
X159343845Y-93290000D01*
G75*
G02*
X159065000Y-93011155I0J278845D01*
G01*
G37*
%TD*%
%TO.C,R51*%
G36*
G01*
X155675000Y-55828845D02*
X155675000Y-57171155D01*
G75*
G02*
X155396155Y-57450000I-278845J0D01*
G01*
X154503845Y-57450000D01*
G75*
G02*
X154225000Y-57171155I0J278845D01*
G01*
X154225000Y-55828845D01*
G75*
G02*
X154503845Y-55550000I278845J0D01*
G01*
X155396155Y-55550000D01*
G75*
G02*
X155675000Y-55828845I0J-278845D01*
G01*
G37*
G36*
G01*
X158775000Y-55828845D02*
X158775000Y-57171155D01*
G75*
G02*
X158496155Y-57450000I-278845J0D01*
G01*
X157603845Y-57450000D01*
G75*
G02*
X157325000Y-57171155I0J278845D01*
G01*
X157325000Y-55828845D01*
G75*
G02*
X157603845Y-55550000I278845J0D01*
G01*
X158496155Y-55550000D01*
G75*
G02*
X158775000Y-55828845I0J-278845D01*
G01*
G37*
%TD*%
%TO.C,R50*%
G36*
G01*
X165825000Y-57171155D02*
X165825000Y-55828845D01*
G75*
G02*
X166103845Y-55550000I278845J0D01*
G01*
X166996155Y-55550000D01*
G75*
G02*
X167275000Y-55828845I0J-278845D01*
G01*
X167275000Y-57171155D01*
G75*
G02*
X166996155Y-57450000I-278845J0D01*
G01*
X166103845Y-57450000D01*
G75*
G02*
X165825000Y-57171155I0J278845D01*
G01*
G37*
G36*
G01*
X162725000Y-57171155D02*
X162725000Y-55828845D01*
G75*
G02*
X163003845Y-55550000I278845J0D01*
G01*
X163896155Y-55550000D01*
G75*
G02*
X164175000Y-55828845I0J-278845D01*
G01*
X164175000Y-57171155D01*
G75*
G02*
X163896155Y-57450000I-278845J0D01*
G01*
X163003845Y-57450000D01*
G75*
G02*
X162725000Y-57171155I0J278845D01*
G01*
G37*
%TD*%
%TO.C,R48*%
G36*
G01*
X166355000Y-74051155D02*
X166355000Y-72708845D01*
G75*
G02*
X166633845Y-72430000I278845J0D01*
G01*
X167526155Y-72430000D01*
G75*
G02*
X167805000Y-72708845I0J-278845D01*
G01*
X167805000Y-74051155D01*
G75*
G02*
X167526155Y-74330000I-278845J0D01*
G01*
X166633845Y-74330000D01*
G75*
G02*
X166355000Y-74051155I0J278845D01*
G01*
G37*
G36*
G01*
X163255000Y-74051155D02*
X163255000Y-72708845D01*
G75*
G02*
X163533845Y-72430000I278845J0D01*
G01*
X164426155Y-72430000D01*
G75*
G02*
X164705000Y-72708845I0J-278845D01*
G01*
X164705000Y-74051155D01*
G75*
G02*
X164426155Y-74330000I-278845J0D01*
G01*
X163533845Y-74330000D01*
G75*
G02*
X163255000Y-74051155I0J278845D01*
G01*
G37*
%TD*%
%TO.C,R47*%
G36*
G01*
X160955000Y-74071155D02*
X160955000Y-72728845D01*
G75*
G02*
X161233845Y-72450000I278845J0D01*
G01*
X162126155Y-72450000D01*
G75*
G02*
X162405000Y-72728845I0J-278845D01*
G01*
X162405000Y-74071155D01*
G75*
G02*
X162126155Y-74350000I-278845J0D01*
G01*
X161233845Y-74350000D01*
G75*
G02*
X160955000Y-74071155I0J278845D01*
G01*
G37*
G36*
G01*
X157855000Y-74071155D02*
X157855000Y-72728845D01*
G75*
G02*
X158133845Y-72450000I278845J0D01*
G01*
X159026155Y-72450000D01*
G75*
G02*
X159305000Y-72728845I0J-278845D01*
G01*
X159305000Y-74071155D01*
G75*
G02*
X159026155Y-74350000I-278845J0D01*
G01*
X158133845Y-74350000D01*
G75*
G02*
X157855000Y-74071155I0J278845D01*
G01*
G37*
%TD*%
%TO.C,R46*%
G36*
G01*
X229375000Y-79328845D02*
X229375000Y-80671155D01*
G75*
G02*
X229096155Y-80950000I-278845J0D01*
G01*
X228203845Y-80950000D01*
G75*
G02*
X227925000Y-80671155I0J278845D01*
G01*
X227925000Y-79328845D01*
G75*
G02*
X228203845Y-79050000I278845J0D01*
G01*
X229096155Y-79050000D01*
G75*
G02*
X229375000Y-79328845I0J-278845D01*
G01*
G37*
G36*
G01*
X232475000Y-79328845D02*
X232475000Y-80671155D01*
G75*
G02*
X232196155Y-80950000I-278845J0D01*
G01*
X231303845Y-80950000D01*
G75*
G02*
X231025000Y-80671155I0J278845D01*
G01*
X231025000Y-79328845D01*
G75*
G02*
X231303845Y-79050000I278845J0D01*
G01*
X232196155Y-79050000D01*
G75*
G02*
X232475000Y-79328845I0J-278845D01*
G01*
G37*
%TD*%
%TO.C,R44*%
G36*
G01*
X234600000Y-66953845D02*
X234600000Y-68296155D01*
G75*
G02*
X234321155Y-68575000I-278845J0D01*
G01*
X233428845Y-68575000D01*
G75*
G02*
X233150000Y-68296155I0J278845D01*
G01*
X233150000Y-66953845D01*
G75*
G02*
X233428845Y-66675000I278845J0D01*
G01*
X234321155Y-66675000D01*
G75*
G02*
X234600000Y-66953845I0J-278845D01*
G01*
G37*
G36*
G01*
X237700000Y-66953845D02*
X237700000Y-68296155D01*
G75*
G02*
X237421155Y-68575000I-278845J0D01*
G01*
X236528845Y-68575000D01*
G75*
G02*
X236250000Y-68296155I0J278845D01*
G01*
X236250000Y-66953845D01*
G75*
G02*
X236528845Y-66675000I278845J0D01*
G01*
X237421155Y-66675000D01*
G75*
G02*
X237700000Y-66953845I0J-278845D01*
G01*
G37*
%TD*%
%TO.C,R43*%
G36*
G01*
X234600000Y-63303845D02*
X234600000Y-64646155D01*
G75*
G02*
X234321155Y-64925000I-278845J0D01*
G01*
X233428845Y-64925000D01*
G75*
G02*
X233150000Y-64646155I0J278845D01*
G01*
X233150000Y-63303845D01*
G75*
G02*
X233428845Y-63025000I278845J0D01*
G01*
X234321155Y-63025000D01*
G75*
G02*
X234600000Y-63303845I0J-278845D01*
G01*
G37*
G36*
G01*
X237700000Y-63303845D02*
X237700000Y-64646155D01*
G75*
G02*
X237421155Y-64925000I-278845J0D01*
G01*
X236528845Y-64925000D01*
G75*
G02*
X236250000Y-64646155I0J278845D01*
G01*
X236250000Y-63303845D01*
G75*
G02*
X236528845Y-63025000I278845J0D01*
G01*
X237421155Y-63025000D01*
G75*
G02*
X237700000Y-63303845I0J-278845D01*
G01*
G37*
%TD*%
%TO.C,R41*%
G36*
G01*
X273846155Y-71325000D02*
X272503845Y-71325000D01*
G75*
G02*
X272225000Y-71046155I0J278845D01*
G01*
X272225000Y-70153845D01*
G75*
G02*
X272503845Y-69875000I278845J0D01*
G01*
X273846155Y-69875000D01*
G75*
G02*
X274125000Y-70153845I0J-278845D01*
G01*
X274125000Y-71046155D01*
G75*
G02*
X273846155Y-71325000I-278845J0D01*
G01*
G37*
G36*
G01*
X273846155Y-74425000D02*
X272503845Y-74425000D01*
G75*
G02*
X272225000Y-74146155I0J278845D01*
G01*
X272225000Y-73253845D01*
G75*
G02*
X272503845Y-72975000I278845J0D01*
G01*
X273846155Y-72975000D01*
G75*
G02*
X274125000Y-73253845I0J-278845D01*
G01*
X274125000Y-74146155D01*
G75*
G02*
X273846155Y-74425000I-278845J0D01*
G01*
G37*
%TD*%
%TO.C,R40*%
G36*
G01*
X271321155Y-71350000D02*
X269978845Y-71350000D01*
G75*
G02*
X269700000Y-71071155I0J278845D01*
G01*
X269700000Y-70178845D01*
G75*
G02*
X269978845Y-69900000I278845J0D01*
G01*
X271321155Y-69900000D01*
G75*
G02*
X271600000Y-70178845I0J-278845D01*
G01*
X271600000Y-71071155D01*
G75*
G02*
X271321155Y-71350000I-278845J0D01*
G01*
G37*
G36*
G01*
X271321155Y-74450000D02*
X269978845Y-74450000D01*
G75*
G02*
X269700000Y-74171155I0J278845D01*
G01*
X269700000Y-73278845D01*
G75*
G02*
X269978845Y-73000000I278845J0D01*
G01*
X271321155Y-73000000D01*
G75*
G02*
X271600000Y-73278845I0J-278845D01*
G01*
X271600000Y-74171155D01*
G75*
G02*
X271321155Y-74450000I-278845J0D01*
G01*
G37*
%TD*%
%TO.C,R39*%
G36*
G01*
X268821155Y-71325000D02*
X267478845Y-71325000D01*
G75*
G02*
X267200000Y-71046155I0J278845D01*
G01*
X267200000Y-70153845D01*
G75*
G02*
X267478845Y-69875000I278845J0D01*
G01*
X268821155Y-69875000D01*
G75*
G02*
X269100000Y-70153845I0J-278845D01*
G01*
X269100000Y-71046155D01*
G75*
G02*
X268821155Y-71325000I-278845J0D01*
G01*
G37*
G36*
G01*
X268821155Y-74425000D02*
X267478845Y-74425000D01*
G75*
G02*
X267200000Y-74146155I0J278845D01*
G01*
X267200000Y-73253845D01*
G75*
G02*
X267478845Y-72975000I278845J0D01*
G01*
X268821155Y-72975000D01*
G75*
G02*
X269100000Y-73253845I0J-278845D01*
G01*
X269100000Y-74146155D01*
G75*
G02*
X268821155Y-74425000I-278845J0D01*
G01*
G37*
%TD*%
%TO.C,R38*%
G36*
G01*
X266321155Y-71300000D02*
X264978845Y-71300000D01*
G75*
G02*
X264700000Y-71021155I0J278845D01*
G01*
X264700000Y-70128845D01*
G75*
G02*
X264978845Y-69850000I278845J0D01*
G01*
X266321155Y-69850000D01*
G75*
G02*
X266600000Y-70128845I0J-278845D01*
G01*
X266600000Y-71021155D01*
G75*
G02*
X266321155Y-71300000I-278845J0D01*
G01*
G37*
G36*
G01*
X266321155Y-74400000D02*
X264978845Y-74400000D01*
G75*
G02*
X264700000Y-74121155I0J278845D01*
G01*
X264700000Y-73228845D01*
G75*
G02*
X264978845Y-72950000I278845J0D01*
G01*
X266321155Y-72950000D01*
G75*
G02*
X266600000Y-73228845I0J-278845D01*
G01*
X266600000Y-74121155D01*
G75*
G02*
X266321155Y-74400000I-278845J0D01*
G01*
G37*
%TD*%
%TO.C,R37*%
G36*
G01*
X263921155Y-71300000D02*
X262578845Y-71300000D01*
G75*
G02*
X262300000Y-71021155I0J278845D01*
G01*
X262300000Y-70128845D01*
G75*
G02*
X262578845Y-69850000I278845J0D01*
G01*
X263921155Y-69850000D01*
G75*
G02*
X264200000Y-70128845I0J-278845D01*
G01*
X264200000Y-71021155D01*
G75*
G02*
X263921155Y-71300000I-278845J0D01*
G01*
G37*
G36*
G01*
X263921155Y-74400000D02*
X262578845Y-74400000D01*
G75*
G02*
X262300000Y-74121155I0J278845D01*
G01*
X262300000Y-73228845D01*
G75*
G02*
X262578845Y-72950000I278845J0D01*
G01*
X263921155Y-72950000D01*
G75*
G02*
X264200000Y-73228845I0J-278845D01*
G01*
X264200000Y-74121155D01*
G75*
G02*
X263921155Y-74400000I-278845J0D01*
G01*
G37*
%TD*%
%TO.C,R32*%
G36*
G01*
X261075000Y-118728845D02*
X261075000Y-120071155D01*
G75*
G02*
X260796155Y-120350000I-278845J0D01*
G01*
X259903845Y-120350000D01*
G75*
G02*
X259625000Y-120071155I0J278845D01*
G01*
X259625000Y-118728845D01*
G75*
G02*
X259903845Y-118450000I278845J0D01*
G01*
X260796155Y-118450000D01*
G75*
G02*
X261075000Y-118728845I0J-278845D01*
G01*
G37*
G36*
G01*
X264175000Y-118728845D02*
X264175000Y-120071155D01*
G75*
G02*
X263896155Y-120350000I-278845J0D01*
G01*
X263003845Y-120350000D01*
G75*
G02*
X262725000Y-120071155I0J278845D01*
G01*
X262725000Y-118728845D01*
G75*
G02*
X263003845Y-118450000I278845J0D01*
G01*
X263896155Y-118450000D01*
G75*
G02*
X264175000Y-118728845I0J-278845D01*
G01*
G37*
%TD*%
%TO.C,R31*%
G36*
G01*
X187235000Y-85808845D02*
X187235000Y-87151155D01*
G75*
G02*
X186956155Y-87430000I-278845J0D01*
G01*
X186063845Y-87430000D01*
G75*
G02*
X185785000Y-87151155I0J278845D01*
G01*
X185785000Y-85808845D01*
G75*
G02*
X186063845Y-85530000I278845J0D01*
G01*
X186956155Y-85530000D01*
G75*
G02*
X187235000Y-85808845I0J-278845D01*
G01*
G37*
G36*
G01*
X190335000Y-85808845D02*
X190335000Y-87151155D01*
G75*
G02*
X190056155Y-87430000I-278845J0D01*
G01*
X189163845Y-87430000D01*
G75*
G02*
X188885000Y-87151155I0J278845D01*
G01*
X188885000Y-85808845D01*
G75*
G02*
X189163845Y-85530000I278845J0D01*
G01*
X190056155Y-85530000D01*
G75*
G02*
X190335000Y-85808845I0J-278845D01*
G01*
G37*
%TD*%
%TO.C,Q4*%
G36*
G01*
X171960000Y-95125000D02*
X172760000Y-95125000D01*
G75*
G02*
X172835000Y-95200000I0J-75000D01*
G01*
X172835000Y-96100000D01*
G75*
G02*
X172760000Y-96175000I-75000J0D01*
G01*
X171960000Y-96175000D01*
G75*
G02*
X171885000Y-96100000I0J75000D01*
G01*
X171885000Y-95200000D01*
G75*
G02*
X171960000Y-95125000I75000J0D01*
G01*
G37*
G36*
G01*
X171010000Y-93125000D02*
X171810000Y-93125000D01*
G75*
G02*
X171885000Y-93200000I0J-75000D01*
G01*
X171885000Y-94100000D01*
G75*
G02*
X171810000Y-94175000I-75000J0D01*
G01*
X171010000Y-94175000D01*
G75*
G02*
X170935000Y-94100000I0J75000D01*
G01*
X170935000Y-93200000D01*
G75*
G02*
X171010000Y-93125000I75000J0D01*
G01*
G37*
G36*
G01*
X172910000Y-93125000D02*
X173710000Y-93125000D01*
G75*
G02*
X173785000Y-93200000I0J-75000D01*
G01*
X173785000Y-94100000D01*
G75*
G02*
X173710000Y-94175000I-75000J0D01*
G01*
X172910000Y-94175000D01*
G75*
G02*
X172835000Y-94100000I0J75000D01*
G01*
X172835000Y-93200000D01*
G75*
G02*
X172910000Y-93125000I75000J0D01*
G01*
G37*
%TD*%
%TO.C,Q3*%
G36*
G01*
X166620000Y-95165000D02*
X167420000Y-95165000D01*
G75*
G02*
X167495000Y-95240000I0J-75000D01*
G01*
X167495000Y-96140000D01*
G75*
G02*
X167420000Y-96215000I-75000J0D01*
G01*
X166620000Y-96215000D01*
G75*
G02*
X166545000Y-96140000I0J75000D01*
G01*
X166545000Y-95240000D01*
G75*
G02*
X166620000Y-95165000I75000J0D01*
G01*
G37*
G36*
G01*
X165670000Y-93165000D02*
X166470000Y-93165000D01*
G75*
G02*
X166545000Y-93240000I0J-75000D01*
G01*
X166545000Y-94140000D01*
G75*
G02*
X166470000Y-94215000I-75000J0D01*
G01*
X165670000Y-94215000D01*
G75*
G02*
X165595000Y-94140000I0J75000D01*
G01*
X165595000Y-93240000D01*
G75*
G02*
X165670000Y-93165000I75000J0D01*
G01*
G37*
G36*
G01*
X167570000Y-93165000D02*
X168370000Y-93165000D01*
G75*
G02*
X168445000Y-93240000I0J-75000D01*
G01*
X168445000Y-94140000D01*
G75*
G02*
X168370000Y-94215000I-75000J0D01*
G01*
X167570000Y-94215000D01*
G75*
G02*
X167495000Y-94140000I0J75000D01*
G01*
X167495000Y-93240000D01*
G75*
G02*
X167570000Y-93165000I75000J0D01*
G01*
G37*
%TD*%
%TO.C,LD1*%
G36*
G01*
X261203685Y-122440000D02*
X259856315Y-122440000D01*
G75*
G02*
X259580000Y-122163685I0J276315D01*
G01*
X259580000Y-121141315D01*
G75*
G02*
X259856315Y-120865000I276315J0D01*
G01*
X261203685Y-120865000D01*
G75*
G02*
X261480000Y-121141315I0J-276315D01*
G01*
X261480000Y-122163685D01*
G75*
G02*
X261203685Y-122440000I-276315J0D01*
G01*
G37*
G36*
G01*
X261203685Y-125415000D02*
X259856315Y-125415000D01*
G75*
G02*
X259580000Y-125138685I0J276315D01*
G01*
X259580000Y-124116315D01*
G75*
G02*
X259856315Y-123840000I276315J0D01*
G01*
X261203685Y-123840000D01*
G75*
G02*
X261480000Y-124116315I0J-276315D01*
G01*
X261480000Y-125138685D01*
G75*
G02*
X261203685Y-125415000I-276315J0D01*
G01*
G37*
%TD*%
D10*
%TO.C,J4*%
X156180000Y-49400000D03*
X164820000Y-49400000D03*
D11*
X156180000Y-53225000D03*
X164820000Y-53225000D03*
D12*
X163500000Y-52500000D03*
G36*
G01*
X159702000Y-48400000D02*
X159702000Y-50400000D01*
G75*
G02*
X159600000Y-50502000I-102000J0D01*
G01*
X158600000Y-50502000D01*
G75*
G02*
X158498000Y-50400000I0J102000D01*
G01*
X158498000Y-48400000D01*
G75*
G02*
X158600000Y-48298000I102000J0D01*
G01*
X159600000Y-48298000D01*
G75*
G02*
X159702000Y-48400000I0J-102000D01*
G01*
G37*
G36*
G01*
X162502000Y-48400000D02*
X162502000Y-50400000D01*
G75*
G02*
X162400000Y-50502000I-102000J0D01*
G01*
X161400000Y-50502000D01*
G75*
G02*
X161298000Y-50400000I0J102000D01*
G01*
X161298000Y-48400000D01*
G75*
G02*
X161400000Y-48298000I102000J0D01*
G01*
X162400000Y-48298000D01*
G75*
G02*
X162502000Y-48400000I0J-102000D01*
G01*
G37*
X157500000Y-52500000D03*
D13*
X157500000Y-52500000D03*
G36*
G01*
X159487000Y-53100000D02*
X159487000Y-54100000D01*
G75*
G02*
X159385000Y-54202000I-102000J0D01*
G01*
X159115000Y-54202000D01*
G75*
G02*
X159013000Y-54100000I0J102000D01*
G01*
X159013000Y-53100000D01*
G75*
G02*
X159115000Y-52998000I102000J0D01*
G01*
X159385000Y-52998000D01*
G75*
G02*
X159487000Y-53100000I0J-102000D01*
G01*
G37*
G36*
G01*
X159987000Y-53100000D02*
X159987000Y-54100000D01*
G75*
G02*
X159885000Y-54202000I-102000J0D01*
G01*
X159615000Y-54202000D01*
G75*
G02*
X159513000Y-54100000I0J102000D01*
G01*
X159513000Y-53100000D01*
G75*
G02*
X159615000Y-52998000I102000J0D01*
G01*
X159885000Y-52998000D01*
G75*
G02*
X159987000Y-53100000I0J-102000D01*
G01*
G37*
G36*
G01*
X160487000Y-53100000D02*
X160487000Y-54100000D01*
G75*
G02*
X160385000Y-54202000I-102000J0D01*
G01*
X160115000Y-54202000D01*
G75*
G02*
X160013000Y-54100000I0J102000D01*
G01*
X160013000Y-53100000D01*
G75*
G02*
X160115000Y-52998000I102000J0D01*
G01*
X160385000Y-52998000D01*
G75*
G02*
X160487000Y-53100000I0J-102000D01*
G01*
G37*
G36*
G01*
X160987000Y-53100000D02*
X160987000Y-54100000D01*
G75*
G02*
X160885000Y-54202000I-102000J0D01*
G01*
X160615000Y-54202000D01*
G75*
G02*
X160513000Y-54100000I0J102000D01*
G01*
X160513000Y-53100000D01*
G75*
G02*
X160615000Y-52998000I102000J0D01*
G01*
X160885000Y-52998000D01*
G75*
G02*
X160987000Y-53100000I0J-102000D01*
G01*
G37*
G36*
G01*
X161487000Y-53100000D02*
X161487000Y-54100000D01*
G75*
G02*
X161385000Y-54202000I-102000J0D01*
G01*
X161115000Y-54202000D01*
G75*
G02*
X161013000Y-54100000I0J102000D01*
G01*
X161013000Y-53100000D01*
G75*
G02*
X161115000Y-52998000I102000J0D01*
G01*
X161385000Y-52998000D01*
G75*
G02*
X161487000Y-53100000I0J-102000D01*
G01*
G37*
G36*
G01*
X161987000Y-53100000D02*
X161987000Y-54100000D01*
G75*
G02*
X161885000Y-54202000I-102000J0D01*
G01*
X161615000Y-54202000D01*
G75*
G02*
X161513000Y-54100000I0J102000D01*
G01*
X161513000Y-53100000D01*
G75*
G02*
X161615000Y-52998000I102000J0D01*
G01*
X161885000Y-52998000D01*
G75*
G02*
X161987000Y-53100000I0J-102000D01*
G01*
G37*
G36*
G01*
X158987000Y-53100000D02*
X158987000Y-54100000D01*
G75*
G02*
X158885000Y-54202000I-102000J0D01*
G01*
X158615000Y-54202000D01*
G75*
G02*
X158513000Y-54100000I0J102000D01*
G01*
X158513000Y-53100000D01*
G75*
G02*
X158615000Y-52998000I102000J0D01*
G01*
X158885000Y-52998000D01*
G75*
G02*
X158987000Y-53100000I0J-102000D01*
G01*
G37*
G36*
G01*
X162487000Y-53100000D02*
X162487000Y-54100000D01*
G75*
G02*
X162385000Y-54202000I-102000J0D01*
G01*
X162115000Y-54202000D01*
G75*
G02*
X162013000Y-54100000I0J102000D01*
G01*
X162013000Y-53100000D01*
G75*
G02*
X162115000Y-52998000I102000J0D01*
G01*
X162385000Y-52998000D01*
G75*
G02*
X162487000Y-53100000I0J-102000D01*
G01*
G37*
G36*
G01*
X158512000Y-53100000D02*
X158512000Y-54100000D01*
G75*
G02*
X158410000Y-54202000I-102000J0D01*
G01*
X157890000Y-54202000D01*
G75*
G02*
X157788000Y-54100000I0J102000D01*
G01*
X157788000Y-53100000D01*
G75*
G02*
X157890000Y-52998000I102000J0D01*
G01*
X158410000Y-52998000D01*
G75*
G02*
X158512000Y-53100000I0J-102000D01*
G01*
G37*
G36*
G01*
X163212000Y-53100000D02*
X163212000Y-54100000D01*
G75*
G02*
X163110000Y-54202000I-102000J0D01*
G01*
X162590000Y-54202000D01*
G75*
G02*
X162488000Y-54100000I0J102000D01*
G01*
X162488000Y-53100000D01*
G75*
G02*
X162590000Y-52998000I102000J0D01*
G01*
X163110000Y-52998000D01*
G75*
G02*
X163212000Y-53100000I0J-102000D01*
G01*
G37*
G36*
G01*
X157762000Y-53100000D02*
X157762000Y-54100000D01*
G75*
G02*
X157660000Y-54202000I-102000J0D01*
G01*
X157140000Y-54202000D01*
G75*
G02*
X157038000Y-54100000I0J102000D01*
G01*
X157038000Y-53100000D01*
G75*
G02*
X157140000Y-52998000I102000J0D01*
G01*
X157660000Y-52998000D01*
G75*
G02*
X157762000Y-53100000I0J-102000D01*
G01*
G37*
G36*
G01*
X163962000Y-53100000D02*
X163962000Y-54100000D01*
G75*
G02*
X163860000Y-54202000I-102000J0D01*
G01*
X163340000Y-54202000D01*
G75*
G02*
X163238000Y-54100000I0J102000D01*
G01*
X163238000Y-53100000D01*
G75*
G02*
X163340000Y-52998000I102000J0D01*
G01*
X163860000Y-52998000D01*
G75*
G02*
X163962000Y-53100000I0J-102000D01*
G01*
G37*
%TD*%
%TO.C,J3*%
G36*
G01*
X247677000Y-63575000D02*
X247677000Y-64775000D01*
G75*
G02*
X247575000Y-64877000I-102000J0D01*
G01*
X246875000Y-64877000D01*
G75*
G02*
X246773000Y-64775000I0J102000D01*
G01*
X246773000Y-63575000D01*
G75*
G02*
X246875000Y-63473000I102000J0D01*
G01*
X247575000Y-63473000D01*
G75*
G02*
X247677000Y-63575000I0J-102000D01*
G01*
G37*
G36*
G01*
X248777000Y-63575000D02*
X248777000Y-64775000D01*
G75*
G02*
X248675000Y-64877000I-102000J0D01*
G01*
X247975000Y-64877000D01*
G75*
G02*
X247873000Y-64775000I0J102000D01*
G01*
X247873000Y-63575000D01*
G75*
G02*
X247975000Y-63473000I102000J0D01*
G01*
X248675000Y-63473000D01*
G75*
G02*
X248777000Y-63575000I0J-102000D01*
G01*
G37*
G36*
G01*
X249877000Y-63575000D02*
X249877000Y-64775000D01*
G75*
G02*
X249775000Y-64877000I-102000J0D01*
G01*
X249075000Y-64877000D01*
G75*
G02*
X248973000Y-64775000I0J102000D01*
G01*
X248973000Y-63575000D01*
G75*
G02*
X249075000Y-63473000I102000J0D01*
G01*
X249775000Y-63473000D01*
G75*
G02*
X249877000Y-63575000I0J-102000D01*
G01*
G37*
G36*
G01*
X250977000Y-63575000D02*
X250977000Y-64775000D01*
G75*
G02*
X250875000Y-64877000I-102000J0D01*
G01*
X250175000Y-64877000D01*
G75*
G02*
X250073000Y-64775000I0J102000D01*
G01*
X250073000Y-63575000D01*
G75*
G02*
X250175000Y-63473000I102000J0D01*
G01*
X250875000Y-63473000D01*
G75*
G02*
X250977000Y-63575000I0J-102000D01*
G01*
G37*
G36*
G01*
X252077000Y-63575000D02*
X252077000Y-64775000D01*
G75*
G02*
X251975000Y-64877000I-102000J0D01*
G01*
X251275000Y-64877000D01*
G75*
G02*
X251173000Y-64775000I0J102000D01*
G01*
X251173000Y-63575000D01*
G75*
G02*
X251275000Y-63473000I102000J0D01*
G01*
X251975000Y-63473000D01*
G75*
G02*
X252077000Y-63575000I0J-102000D01*
G01*
G37*
G36*
G01*
X253177000Y-63575000D02*
X253177000Y-64775000D01*
G75*
G02*
X253075000Y-64877000I-102000J0D01*
G01*
X252375000Y-64877000D01*
G75*
G02*
X252273000Y-64775000I0J102000D01*
G01*
X252273000Y-63575000D01*
G75*
G02*
X252375000Y-63473000I102000J0D01*
G01*
X253075000Y-63473000D01*
G75*
G02*
X253177000Y-63575000I0J-102000D01*
G01*
G37*
G36*
G01*
X254277000Y-63575000D02*
X254277000Y-64775000D01*
G75*
G02*
X254175000Y-64877000I-102000J0D01*
G01*
X253475000Y-64877000D01*
G75*
G02*
X253373000Y-64775000I0J102000D01*
G01*
X253373000Y-63575000D01*
G75*
G02*
X253475000Y-63473000I102000J0D01*
G01*
X254175000Y-63473000D01*
G75*
G02*
X254277000Y-63575000I0J-102000D01*
G01*
G37*
G36*
G01*
X255377000Y-63575000D02*
X255377000Y-64775000D01*
G75*
G02*
X255275000Y-64877000I-102000J0D01*
G01*
X254575000Y-64877000D01*
G75*
G02*
X254473000Y-64775000I0J102000D01*
G01*
X254473000Y-63575000D01*
G75*
G02*
X254575000Y-63473000I102000J0D01*
G01*
X255275000Y-63473000D01*
G75*
G02*
X255377000Y-63575000I0J-102000D01*
G01*
G37*
G36*
G01*
X256327000Y-63575000D02*
X256327000Y-64775000D01*
G75*
G02*
X256225000Y-64877000I-102000J0D01*
G01*
X255525000Y-64877000D01*
G75*
G02*
X255423000Y-64775000I0J102000D01*
G01*
X255423000Y-63575000D01*
G75*
G02*
X255525000Y-63473000I102000J0D01*
G01*
X256225000Y-63473000D01*
G75*
G02*
X256327000Y-63575000I0J-102000D01*
G01*
G37*
G36*
G01*
X246277000Y-63575000D02*
X246277000Y-64775000D01*
G75*
G02*
X246175000Y-64877000I-102000J0D01*
G01*
X245175000Y-64877000D01*
G75*
G02*
X245073000Y-64775000I0J102000D01*
G01*
X245073000Y-63575000D01*
G75*
G02*
X245175000Y-63473000I102000J0D01*
G01*
X246175000Y-63473000D01*
G75*
G02*
X246277000Y-63575000I0J-102000D01*
G01*
G37*
G36*
G01*
X257427000Y-59275000D02*
X257427000Y-60475000D01*
G75*
G02*
X257325000Y-60577000I-102000J0D01*
G01*
X256325000Y-60577000D01*
G75*
G02*
X256223000Y-60475000I0J102000D01*
G01*
X256223000Y-59275000D01*
G75*
G02*
X256325000Y-59173000I102000J0D01*
G01*
X257325000Y-59173000D01*
G75*
G02*
X257427000Y-59275000I0J-102000D01*
G01*
G37*
G36*
G01*
X257427000Y-53275000D02*
X257427000Y-54075000D01*
G75*
G02*
X257325000Y-54177000I-102000J0D01*
G01*
X256325000Y-54177000D01*
G75*
G02*
X256223000Y-54075000I0J102000D01*
G01*
X256223000Y-53275000D01*
G75*
G02*
X256325000Y-53173000I102000J0D01*
G01*
X257325000Y-53173000D01*
G75*
G02*
X257427000Y-53275000I0J-102000D01*
G01*
G37*
G36*
G01*
X257427000Y-48125000D02*
X257427000Y-50925000D01*
G75*
G02*
X257325000Y-51027000I-102000J0D01*
G01*
X256325000Y-51027000D01*
G75*
G02*
X256223000Y-50925000I0J102000D01*
G01*
X256223000Y-48125000D01*
G75*
G02*
X256325000Y-48023000I102000J0D01*
G01*
X257325000Y-48023000D01*
G75*
G02*
X257427000Y-48125000I0J-102000D01*
G01*
G37*
G36*
G01*
X244077000Y-48124999D02*
X244077000Y-50025001D01*
G75*
G02*
X243975001Y-50127000I-101999J0D01*
G01*
X242674999Y-50127000D01*
G75*
G02*
X242573000Y-50025001I0J101999D01*
G01*
X242573000Y-48124999D01*
G75*
G02*
X242674999Y-48023000I101999J0D01*
G01*
X243975001Y-48023000D01*
G75*
G02*
X244077000Y-48124999I0J-101999D01*
G01*
G37*
%TD*%
%TO.C,D4*%
G36*
G01*
X161075000Y-76000000D02*
X161075000Y-80500000D01*
G75*
G02*
X161000000Y-80575000I-75000J0D01*
G01*
X157700000Y-80575000D01*
G75*
G02*
X157625000Y-80500000I0J75000D01*
G01*
X157625000Y-76000000D01*
G75*
G02*
X157700000Y-75925000I75000J0D01*
G01*
X161000000Y-75925000D01*
G75*
G02*
X161075000Y-76000000I0J-75000D01*
G01*
G37*
G36*
G01*
X161075000Y-84800000D02*
X161075000Y-89300000D01*
G75*
G02*
X161000000Y-89375000I-75000J0D01*
G01*
X157700000Y-89375000D01*
G75*
G02*
X157625000Y-89300000I0J75000D01*
G01*
X157625000Y-84800000D01*
G75*
G02*
X157700000Y-84725000I75000J0D01*
G01*
X161000000Y-84725000D01*
G75*
G02*
X161075000Y-84800000I0J-75000D01*
G01*
G37*
%TD*%
%TO.C,D3*%
G36*
G01*
X177930000Y-90325000D02*
X173430000Y-90325000D01*
G75*
G02*
X173355000Y-90250000I0J75000D01*
G01*
X173355000Y-86950000D01*
G75*
G02*
X173430000Y-86875000I75000J0D01*
G01*
X177930000Y-86875000D01*
G75*
G02*
X178005000Y-86950000I0J-75000D01*
G01*
X178005000Y-90250000D01*
G75*
G02*
X177930000Y-90325000I-75000J0D01*
G01*
G37*
G36*
G01*
X169130000Y-90325000D02*
X164630000Y-90325000D01*
G75*
G02*
X164555000Y-90250000I0J75000D01*
G01*
X164555000Y-86950000D01*
G75*
G02*
X164630000Y-86875000I75000J0D01*
G01*
X169130000Y-86875000D01*
G75*
G02*
X169205000Y-86950000I0J-75000D01*
G01*
X169205000Y-90250000D01*
G75*
G02*
X169130000Y-90325000I-75000J0D01*
G01*
G37*
%TD*%
%TO.C,C52*%
G36*
G01*
X258753298Y-57025000D02*
X260146702Y-57025000D01*
G75*
G02*
X260425000Y-57303298I0J-278298D01*
G01*
X260425000Y-58221702D01*
G75*
G02*
X260146702Y-58500000I-278298J0D01*
G01*
X258753298Y-58500000D01*
G75*
G02*
X258475000Y-58221702I0J278298D01*
G01*
X258475000Y-57303298D01*
G75*
G02*
X258753298Y-57025000I278298J0D01*
G01*
G37*
G36*
G01*
X258753298Y-53900000D02*
X260146702Y-53900000D01*
G75*
G02*
X260425000Y-54178298I0J-278298D01*
G01*
X260425000Y-55096702D01*
G75*
G02*
X260146702Y-55375000I-278298J0D01*
G01*
X258753298Y-55375000D01*
G75*
G02*
X258475000Y-55096702I0J278298D01*
G01*
X258475000Y-54178298D01*
G75*
G02*
X258753298Y-53900000I278298J0D01*
G01*
G37*
%TD*%
%TO.C,C51*%
G36*
G01*
X141200000Y-92025000D02*
X141200000Y-93975000D01*
G75*
G02*
X140925000Y-94250000I-275000J0D01*
G01*
X139825000Y-94250000D01*
G75*
G02*
X139550000Y-93975000I0J275000D01*
G01*
X139550000Y-92025000D01*
G75*
G02*
X139825000Y-91750000I275000J0D01*
G01*
X140925000Y-91750000D01*
G75*
G02*
X141200000Y-92025000I0J-275000D01*
G01*
G37*
G36*
G01*
X144450000Y-92025000D02*
X144450000Y-93975000D01*
G75*
G02*
X144175000Y-94250000I-275000J0D01*
G01*
X143075000Y-94250000D01*
G75*
G02*
X142800000Y-93975000I0J275000D01*
G01*
X142800000Y-92025000D01*
G75*
G02*
X143075000Y-91750000I275000J0D01*
G01*
X144175000Y-91750000D01*
G75*
G02*
X144450000Y-92025000I0J-275000D01*
G01*
G37*
%TD*%
%TO.C,C50*%
G36*
G01*
X137696702Y-89175000D02*
X136303298Y-89175000D01*
G75*
G02*
X136025000Y-88896702I0J278298D01*
G01*
X136025000Y-87978298D01*
G75*
G02*
X136303298Y-87700000I278298J0D01*
G01*
X137696702Y-87700000D01*
G75*
G02*
X137975000Y-87978298I0J-278298D01*
G01*
X137975000Y-88896702D01*
G75*
G02*
X137696702Y-89175000I-278298J0D01*
G01*
G37*
G36*
G01*
X137696702Y-92300000D02*
X136303298Y-92300000D01*
G75*
G02*
X136025000Y-92021702I0J278298D01*
G01*
X136025000Y-91103298D01*
G75*
G02*
X136303298Y-90825000I278298J0D01*
G01*
X137696702Y-90825000D01*
G75*
G02*
X137975000Y-91103298I0J-278298D01*
G01*
X137975000Y-92021702D01*
G75*
G02*
X137696702Y-92300000I-278298J0D01*
G01*
G37*
%TD*%
%TO.C,C49*%
G36*
G01*
X148825000Y-75696702D02*
X148825000Y-74303298D01*
G75*
G02*
X149103298Y-74025000I278298J0D01*
G01*
X150021702Y-74025000D01*
G75*
G02*
X150300000Y-74303298I0J-278298D01*
G01*
X150300000Y-75696702D01*
G75*
G02*
X150021702Y-75975000I-278298J0D01*
G01*
X149103298Y-75975000D01*
G75*
G02*
X148825000Y-75696702I0J278298D01*
G01*
G37*
G36*
G01*
X145700000Y-75696702D02*
X145700000Y-74303298D01*
G75*
G02*
X145978298Y-74025000I278298J0D01*
G01*
X146896702Y-74025000D01*
G75*
G02*
X147175000Y-74303298I0J-278298D01*
G01*
X147175000Y-75696702D01*
G75*
G02*
X146896702Y-75975000I-278298J0D01*
G01*
X145978298Y-75975000D01*
G75*
G02*
X145700000Y-75696702I0J278298D01*
G01*
G37*
%TD*%
%TO.C,C48*%
G36*
G01*
X140200000Y-69025000D02*
X140200000Y-70975000D01*
G75*
G02*
X139925000Y-71250000I-275000J0D01*
G01*
X138825000Y-71250000D01*
G75*
G02*
X138550000Y-70975000I0J275000D01*
G01*
X138550000Y-69025000D01*
G75*
G02*
X138825000Y-68750000I275000J0D01*
G01*
X139925000Y-68750000D01*
G75*
G02*
X140200000Y-69025000I0J-275000D01*
G01*
G37*
G36*
G01*
X143450000Y-69025000D02*
X143450000Y-70975000D01*
G75*
G02*
X143175000Y-71250000I-275000J0D01*
G01*
X142075000Y-71250000D01*
G75*
G02*
X141800000Y-70975000I0J275000D01*
G01*
X141800000Y-69025000D01*
G75*
G02*
X142075000Y-68750000I275000J0D01*
G01*
X143175000Y-68750000D01*
G75*
G02*
X143450000Y-69025000I0J-275000D01*
G01*
G37*
%TD*%
%TO.C,C47*%
G36*
G01*
X140200000Y-64025000D02*
X140200000Y-65975000D01*
G75*
G02*
X139925000Y-66250000I-275000J0D01*
G01*
X138825000Y-66250000D01*
G75*
G02*
X138550000Y-65975000I0J275000D01*
G01*
X138550000Y-64025000D01*
G75*
G02*
X138825000Y-63750000I275000J0D01*
G01*
X139925000Y-63750000D01*
G75*
G02*
X140200000Y-64025000I0J-275000D01*
G01*
G37*
G36*
G01*
X143450000Y-64025000D02*
X143450000Y-65975000D01*
G75*
G02*
X143175000Y-66250000I-275000J0D01*
G01*
X142075000Y-66250000D01*
G75*
G02*
X141800000Y-65975000I0J275000D01*
G01*
X141800000Y-64025000D01*
G75*
G02*
X142075000Y-63750000I275000J0D01*
G01*
X143175000Y-63750000D01*
G75*
G02*
X143450000Y-64025000I0J-275000D01*
G01*
G37*
%TD*%
%TO.C,C46*%
G36*
G01*
X141175000Y-87303298D02*
X141175000Y-88696702D01*
G75*
G02*
X140896702Y-88975000I-278298J0D01*
G01*
X139978298Y-88975000D01*
G75*
G02*
X139700000Y-88696702I0J278298D01*
G01*
X139700000Y-87303298D01*
G75*
G02*
X139978298Y-87025000I278298J0D01*
G01*
X140896702Y-87025000D01*
G75*
G02*
X141175000Y-87303298I0J-278298D01*
G01*
G37*
G36*
G01*
X144300000Y-87303298D02*
X144300000Y-88696702D01*
G75*
G02*
X144021702Y-88975000I-278298J0D01*
G01*
X143103298Y-88975000D01*
G75*
G02*
X142825000Y-88696702I0J278298D01*
G01*
X142825000Y-87303298D01*
G75*
G02*
X143103298Y-87025000I278298J0D01*
G01*
X144021702Y-87025000D01*
G75*
G02*
X144300000Y-87303298I0J-278298D01*
G01*
G37*
%TD*%
%TO.C,C45*%
G36*
G01*
X136025000Y-84800000D02*
X137975000Y-84800000D01*
G75*
G02*
X138250000Y-85075000I0J-275000D01*
G01*
X138250000Y-86175000D01*
G75*
G02*
X137975000Y-86450000I-275000J0D01*
G01*
X136025000Y-86450000D01*
G75*
G02*
X135750000Y-86175000I0J275000D01*
G01*
X135750000Y-85075000D01*
G75*
G02*
X136025000Y-84800000I275000J0D01*
G01*
G37*
G36*
G01*
X136025000Y-81550000D02*
X137975000Y-81550000D01*
G75*
G02*
X138250000Y-81825000I0J-275000D01*
G01*
X138250000Y-82925000D01*
G75*
G02*
X137975000Y-83200000I-275000J0D01*
G01*
X136025000Y-83200000D01*
G75*
G02*
X135750000Y-82925000I0J275000D01*
G01*
X135750000Y-81825000D01*
G75*
G02*
X136025000Y-81550000I275000J0D01*
G01*
G37*
%TD*%
%TO.C,C44*%
G36*
G01*
X137825000Y-79696702D02*
X137825000Y-78303298D01*
G75*
G02*
X138103298Y-78025000I278298J0D01*
G01*
X139021702Y-78025000D01*
G75*
G02*
X139300000Y-78303298I0J-278298D01*
G01*
X139300000Y-79696702D01*
G75*
G02*
X139021702Y-79975000I-278298J0D01*
G01*
X138103298Y-79975000D01*
G75*
G02*
X137825000Y-79696702I0J278298D01*
G01*
G37*
G36*
G01*
X134700000Y-79696702D02*
X134700000Y-78303298D01*
G75*
G02*
X134978298Y-78025000I278298J0D01*
G01*
X135896702Y-78025000D01*
G75*
G02*
X136175000Y-78303298I0J-278298D01*
G01*
X136175000Y-79696702D01*
G75*
G02*
X135896702Y-79975000I-278298J0D01*
G01*
X134978298Y-79975000D01*
G75*
G02*
X134700000Y-79696702I0J278298D01*
G01*
G37*
%TD*%
%TO.C,C43*%
G36*
G01*
X147175000Y-94303298D02*
X147175000Y-95696702D01*
G75*
G02*
X146896702Y-95975000I-278298J0D01*
G01*
X145978298Y-95975000D01*
G75*
G02*
X145700000Y-95696702I0J278298D01*
G01*
X145700000Y-94303298D01*
G75*
G02*
X145978298Y-94025000I278298J0D01*
G01*
X146896702Y-94025000D01*
G75*
G02*
X147175000Y-94303298I0J-278298D01*
G01*
G37*
G36*
G01*
X150300000Y-94303298D02*
X150300000Y-95696702D01*
G75*
G02*
X150021702Y-95975000I-278298J0D01*
G01*
X149103298Y-95975000D01*
G75*
G02*
X148825000Y-95696702I0J278298D01*
G01*
X148825000Y-94303298D01*
G75*
G02*
X149103298Y-94025000I278298J0D01*
G01*
X150021702Y-94025000D01*
G75*
G02*
X150300000Y-94303298I0J-278298D01*
G01*
G37*
%TD*%
%TO.C,C42*%
G36*
G01*
X166803298Y-53325000D02*
X168196702Y-53325000D01*
G75*
G02*
X168475000Y-53603298I0J-278298D01*
G01*
X168475000Y-54521702D01*
G75*
G02*
X168196702Y-54800000I-278298J0D01*
G01*
X166803298Y-54800000D01*
G75*
G02*
X166525000Y-54521702I0J278298D01*
G01*
X166525000Y-53603298D01*
G75*
G02*
X166803298Y-53325000I278298J0D01*
G01*
G37*
G36*
G01*
X166803298Y-50200000D02*
X168196702Y-50200000D01*
G75*
G02*
X168475000Y-50478298I0J-278298D01*
G01*
X168475000Y-51396702D01*
G75*
G02*
X168196702Y-51675000I-278298J0D01*
G01*
X166803298Y-51675000D01*
G75*
G02*
X166525000Y-51396702I0J278298D01*
G01*
X166525000Y-50478298D01*
G75*
G02*
X166803298Y-50200000I278298J0D01*
G01*
G37*
%TD*%
%TO.C,C40*%
G36*
G01*
X161887500Y-59696702D02*
X161887500Y-58303298D01*
G75*
G02*
X162165798Y-58025000I278298J0D01*
G01*
X163084202Y-58025000D01*
G75*
G02*
X163362500Y-58303298I0J-278298D01*
G01*
X163362500Y-59696702D01*
G75*
G02*
X163084202Y-59975000I-278298J0D01*
G01*
X162165798Y-59975000D01*
G75*
G02*
X161887500Y-59696702I0J278298D01*
G01*
G37*
G36*
G01*
X158762500Y-59696702D02*
X158762500Y-58303298D01*
G75*
G02*
X159040798Y-58025000I278298J0D01*
G01*
X159959202Y-58025000D01*
G75*
G02*
X160237500Y-58303298I0J-278298D01*
G01*
X160237500Y-59696702D01*
G75*
G02*
X159959202Y-59975000I-278298J0D01*
G01*
X159040798Y-59975000D01*
G75*
G02*
X158762500Y-59696702I0J278298D01*
G01*
G37*
%TD*%
%TO.C,C38*%
G36*
G01*
X169825000Y-61696702D02*
X169825000Y-60303298D01*
G75*
G02*
X170103298Y-60025000I278298J0D01*
G01*
X171021702Y-60025000D01*
G75*
G02*
X171300000Y-60303298I0J-278298D01*
G01*
X171300000Y-61696702D01*
G75*
G02*
X171021702Y-61975000I-278298J0D01*
G01*
X170103298Y-61975000D01*
G75*
G02*
X169825000Y-61696702I0J278298D01*
G01*
G37*
G36*
G01*
X166700000Y-61696702D02*
X166700000Y-60303298D01*
G75*
G02*
X166978298Y-60025000I278298J0D01*
G01*
X167896702Y-60025000D01*
G75*
G02*
X168175000Y-60303298I0J-278298D01*
G01*
X168175000Y-61696702D01*
G75*
G02*
X167896702Y-61975000I-278298J0D01*
G01*
X166978298Y-61975000D01*
G75*
G02*
X166700000Y-61696702I0J278298D01*
G01*
G37*
%TD*%
%TO.C,C37*%
G36*
G01*
X154175000Y-59803298D02*
X154175000Y-61196702D01*
G75*
G02*
X153896702Y-61475000I-278298J0D01*
G01*
X152978298Y-61475000D01*
G75*
G02*
X152700000Y-61196702I0J278298D01*
G01*
X152700000Y-59803298D01*
G75*
G02*
X152978298Y-59525000I278298J0D01*
G01*
X153896702Y-59525000D01*
G75*
G02*
X154175000Y-59803298I0J-278298D01*
G01*
G37*
G36*
G01*
X157300000Y-59803298D02*
X157300000Y-61196702D01*
G75*
G02*
X157021702Y-61475000I-278298J0D01*
G01*
X156103298Y-61475000D01*
G75*
G02*
X155825000Y-61196702I0J278298D01*
G01*
X155825000Y-59803298D01*
G75*
G02*
X156103298Y-59525000I278298J0D01*
G01*
X157021702Y-59525000D01*
G75*
G02*
X157300000Y-59803298I0J-278298D01*
G01*
G37*
%TD*%
%TO.C,C36*%
G36*
G01*
X235050000Y-83096702D02*
X235050000Y-81703298D01*
G75*
G02*
X235328298Y-81425000I278298J0D01*
G01*
X236246702Y-81425000D01*
G75*
G02*
X236525000Y-81703298I0J-278298D01*
G01*
X236525000Y-83096702D01*
G75*
G02*
X236246702Y-83375000I-278298J0D01*
G01*
X235328298Y-83375000D01*
G75*
G02*
X235050000Y-83096702I0J278298D01*
G01*
G37*
G36*
G01*
X231925000Y-83096702D02*
X231925000Y-81703298D01*
G75*
G02*
X232203298Y-81425000I278298J0D01*
G01*
X233121702Y-81425000D01*
G75*
G02*
X233400000Y-81703298I0J-278298D01*
G01*
X233400000Y-83096702D01*
G75*
G02*
X233121702Y-83375000I-278298J0D01*
G01*
X232203298Y-83375000D01*
G75*
G02*
X231925000Y-83096702I0J278298D01*
G01*
G37*
%TD*%
%TO.C,C34*%
G36*
G01*
X232800000Y-85571702D02*
X232800000Y-84178298D01*
G75*
G02*
X233078298Y-83900000I278298J0D01*
G01*
X233996702Y-83900000D01*
G75*
G02*
X234275000Y-84178298I0J-278298D01*
G01*
X234275000Y-85571702D01*
G75*
G02*
X233996702Y-85850000I-278298J0D01*
G01*
X233078298Y-85850000D01*
G75*
G02*
X232800000Y-85571702I0J278298D01*
G01*
G37*
G36*
G01*
X229675000Y-85571702D02*
X229675000Y-84178298D01*
G75*
G02*
X229953298Y-83900000I278298J0D01*
G01*
X230871702Y-83900000D01*
G75*
G02*
X231150000Y-84178298I0J-278298D01*
G01*
X231150000Y-85571702D01*
G75*
G02*
X230871702Y-85850000I-278298J0D01*
G01*
X229953298Y-85850000D01*
G75*
G02*
X229675000Y-85571702I0J278298D01*
G01*
G37*
%TD*%
%TO.C,C30*%
G36*
G01*
X236225000Y-80696702D02*
X236225000Y-79303298D01*
G75*
G02*
X236503298Y-79025000I278298J0D01*
G01*
X237421702Y-79025000D01*
G75*
G02*
X237700000Y-79303298I0J-278298D01*
G01*
X237700000Y-80696702D01*
G75*
G02*
X237421702Y-80975000I-278298J0D01*
G01*
X236503298Y-80975000D01*
G75*
G02*
X236225000Y-80696702I0J278298D01*
G01*
G37*
G36*
G01*
X233100000Y-80696702D02*
X233100000Y-79303298D01*
G75*
G02*
X233378298Y-79025000I278298J0D01*
G01*
X234296702Y-79025000D01*
G75*
G02*
X234575000Y-79303298I0J-278298D01*
G01*
X234575000Y-80696702D01*
G75*
G02*
X234296702Y-80975000I-278298J0D01*
G01*
X233378298Y-80975000D01*
G75*
G02*
X233100000Y-80696702I0J278298D01*
G01*
G37*
%TD*%
%TO.C,C28*%
G36*
G01*
X260146702Y-60695000D02*
X258753298Y-60695000D01*
G75*
G02*
X258475000Y-60416702I0J278298D01*
G01*
X258475000Y-59498298D01*
G75*
G02*
X258753298Y-59220000I278298J0D01*
G01*
X260146702Y-59220000D01*
G75*
G02*
X260425000Y-59498298I0J-278298D01*
G01*
X260425000Y-60416702D01*
G75*
G02*
X260146702Y-60695000I-278298J0D01*
G01*
G37*
G36*
G01*
X260146702Y-63820000D02*
X258753298Y-63820000D01*
G75*
G02*
X258475000Y-63541702I0J278298D01*
G01*
X258475000Y-62623298D01*
G75*
G02*
X258753298Y-62345000I278298J0D01*
G01*
X260146702Y-62345000D01*
G75*
G02*
X260425000Y-62623298I0J-278298D01*
G01*
X260425000Y-63541702D01*
G75*
G02*
X260146702Y-63820000I-278298J0D01*
G01*
G37*
%TD*%
%TO.C,C25*%
G36*
G01*
X210385000Y-98716702D02*
X210385000Y-97323298D01*
G75*
G02*
X210663298Y-97045000I278298J0D01*
G01*
X211581702Y-97045000D01*
G75*
G02*
X211860000Y-97323298I0J-278298D01*
G01*
X211860000Y-98716702D01*
G75*
G02*
X211581702Y-98995000I-278298J0D01*
G01*
X210663298Y-98995000D01*
G75*
G02*
X210385000Y-98716702I0J278298D01*
G01*
G37*
G36*
G01*
X207260000Y-98716702D02*
X207260000Y-97323298D01*
G75*
G02*
X207538298Y-97045000I278298J0D01*
G01*
X208456702Y-97045000D01*
G75*
G02*
X208735000Y-97323298I0J-278298D01*
G01*
X208735000Y-98716702D01*
G75*
G02*
X208456702Y-98995000I-278298J0D01*
G01*
X207538298Y-98995000D01*
G75*
G02*
X207260000Y-98716702I0J278298D01*
G01*
G37*
%TD*%
%TO.C,U11*%
G36*
G01*
X225150000Y-80262500D02*
X225150000Y-79987500D01*
G75*
G02*
X225287500Y-79850000I137500J0D01*
G01*
X226637500Y-79850000D01*
G75*
G02*
X226775000Y-79987500I0J-137500D01*
G01*
X226775000Y-80262500D01*
G75*
G02*
X226637500Y-80400000I-137500J0D01*
G01*
X225287500Y-80400000D01*
G75*
G02*
X225150000Y-80262500I0J137500D01*
G01*
G37*
G36*
G01*
X225150000Y-80912500D02*
X225150000Y-80637500D01*
G75*
G02*
X225287500Y-80500000I137500J0D01*
G01*
X226637500Y-80500000D01*
G75*
G02*
X226775000Y-80637500I0J-137500D01*
G01*
X226775000Y-80912500D01*
G75*
G02*
X226637500Y-81050000I-137500J0D01*
G01*
X225287500Y-81050000D01*
G75*
G02*
X225150000Y-80912500I0J137500D01*
G01*
G37*
G36*
G01*
X225150000Y-81562500D02*
X225150000Y-81287500D01*
G75*
G02*
X225287500Y-81150000I137500J0D01*
G01*
X226637500Y-81150000D01*
G75*
G02*
X226775000Y-81287500I0J-137500D01*
G01*
X226775000Y-81562500D01*
G75*
G02*
X226637500Y-81700000I-137500J0D01*
G01*
X225287500Y-81700000D01*
G75*
G02*
X225150000Y-81562500I0J137500D01*
G01*
G37*
G36*
G01*
X225150000Y-82212500D02*
X225150000Y-81937500D01*
G75*
G02*
X225287500Y-81800000I137500J0D01*
G01*
X226637500Y-81800000D01*
G75*
G02*
X226775000Y-81937500I0J-137500D01*
G01*
X226775000Y-82212500D01*
G75*
G02*
X226637500Y-82350000I-137500J0D01*
G01*
X225287500Y-82350000D01*
G75*
G02*
X225150000Y-82212500I0J137500D01*
G01*
G37*
G36*
G01*
X225150000Y-82862500D02*
X225150000Y-82587500D01*
G75*
G02*
X225287500Y-82450000I137500J0D01*
G01*
X226637500Y-82450000D01*
G75*
G02*
X226775000Y-82587500I0J-137500D01*
G01*
X226775000Y-82862500D01*
G75*
G02*
X226637500Y-83000000I-137500J0D01*
G01*
X225287500Y-83000000D01*
G75*
G02*
X225150000Y-82862500I0J137500D01*
G01*
G37*
G36*
G01*
X225150000Y-83512500D02*
X225150000Y-83237500D01*
G75*
G02*
X225287500Y-83100000I137500J0D01*
G01*
X226637500Y-83100000D01*
G75*
G02*
X226775000Y-83237500I0J-137500D01*
G01*
X226775000Y-83512500D01*
G75*
G02*
X226637500Y-83650000I-137500J0D01*
G01*
X225287500Y-83650000D01*
G75*
G02*
X225150000Y-83512500I0J137500D01*
G01*
G37*
G36*
G01*
X225150000Y-84162500D02*
X225150000Y-83887500D01*
G75*
G02*
X225287500Y-83750000I137500J0D01*
G01*
X226637500Y-83750000D01*
G75*
G02*
X226775000Y-83887500I0J-137500D01*
G01*
X226775000Y-84162500D01*
G75*
G02*
X226637500Y-84300000I-137500J0D01*
G01*
X225287500Y-84300000D01*
G75*
G02*
X225150000Y-84162500I0J137500D01*
G01*
G37*
G36*
G01*
X225150000Y-84812500D02*
X225150000Y-84537500D01*
G75*
G02*
X225287500Y-84400000I137500J0D01*
G01*
X226637500Y-84400000D01*
G75*
G02*
X226775000Y-84537500I0J-137500D01*
G01*
X226775000Y-84812500D01*
G75*
G02*
X226637500Y-84950000I-137500J0D01*
G01*
X225287500Y-84950000D01*
G75*
G02*
X225150000Y-84812500I0J137500D01*
G01*
G37*
G36*
G01*
X219425000Y-84812500D02*
X219425000Y-84537500D01*
G75*
G02*
X219562500Y-84400000I137500J0D01*
G01*
X220912500Y-84400000D01*
G75*
G02*
X221050000Y-84537500I0J-137500D01*
G01*
X221050000Y-84812500D01*
G75*
G02*
X220912500Y-84950000I-137500J0D01*
G01*
X219562500Y-84950000D01*
G75*
G02*
X219425000Y-84812500I0J137500D01*
G01*
G37*
G36*
G01*
X219425000Y-84162500D02*
X219425000Y-83887500D01*
G75*
G02*
X219562500Y-83750000I137500J0D01*
G01*
X220912500Y-83750000D01*
G75*
G02*
X221050000Y-83887500I0J-137500D01*
G01*
X221050000Y-84162500D01*
G75*
G02*
X220912500Y-84300000I-137500J0D01*
G01*
X219562500Y-84300000D01*
G75*
G02*
X219425000Y-84162500I0J137500D01*
G01*
G37*
G36*
G01*
X219425000Y-83512500D02*
X219425000Y-83237500D01*
G75*
G02*
X219562500Y-83100000I137500J0D01*
G01*
X220912500Y-83100000D01*
G75*
G02*
X221050000Y-83237500I0J-137500D01*
G01*
X221050000Y-83512500D01*
G75*
G02*
X220912500Y-83650000I-137500J0D01*
G01*
X219562500Y-83650000D01*
G75*
G02*
X219425000Y-83512500I0J137500D01*
G01*
G37*
G36*
G01*
X219425000Y-82862500D02*
X219425000Y-82587500D01*
G75*
G02*
X219562500Y-82450000I137500J0D01*
G01*
X220912500Y-82450000D01*
G75*
G02*
X221050000Y-82587500I0J-137500D01*
G01*
X221050000Y-82862500D01*
G75*
G02*
X220912500Y-83000000I-137500J0D01*
G01*
X219562500Y-83000000D01*
G75*
G02*
X219425000Y-82862500I0J137500D01*
G01*
G37*
G36*
G01*
X219425000Y-82212500D02*
X219425000Y-81937500D01*
G75*
G02*
X219562500Y-81800000I137500J0D01*
G01*
X220912500Y-81800000D01*
G75*
G02*
X221050000Y-81937500I0J-137500D01*
G01*
X221050000Y-82212500D01*
G75*
G02*
X220912500Y-82350000I-137500J0D01*
G01*
X219562500Y-82350000D01*
G75*
G02*
X219425000Y-82212500I0J137500D01*
G01*
G37*
G36*
G01*
X219425000Y-81562500D02*
X219425000Y-81287500D01*
G75*
G02*
X219562500Y-81150000I137500J0D01*
G01*
X220912500Y-81150000D01*
G75*
G02*
X221050000Y-81287500I0J-137500D01*
G01*
X221050000Y-81562500D01*
G75*
G02*
X220912500Y-81700000I-137500J0D01*
G01*
X219562500Y-81700000D01*
G75*
G02*
X219425000Y-81562500I0J137500D01*
G01*
G37*
G36*
G01*
X219425000Y-80912500D02*
X219425000Y-80637500D01*
G75*
G02*
X219562500Y-80500000I137500J0D01*
G01*
X220912500Y-80500000D01*
G75*
G02*
X221050000Y-80637500I0J-137500D01*
G01*
X221050000Y-80912500D01*
G75*
G02*
X220912500Y-81050000I-137500J0D01*
G01*
X219562500Y-81050000D01*
G75*
G02*
X219425000Y-80912500I0J137500D01*
G01*
G37*
G36*
G01*
X219425000Y-80262500D02*
X219425000Y-79987500D01*
G75*
G02*
X219562500Y-79850000I137500J0D01*
G01*
X220912500Y-79850000D01*
G75*
G02*
X221050000Y-79987500I0J-137500D01*
G01*
X221050000Y-80262500D01*
G75*
G02*
X220912500Y-80400000I-137500J0D01*
G01*
X219562500Y-80400000D01*
G75*
G02*
X219425000Y-80262500I0J137500D01*
G01*
G37*
%TD*%
%TO.C,C4*%
G36*
G01*
X212581012Y-88766298D02*
X213566298Y-87781012D01*
G75*
G02*
X213959870Y-87781012I196786J-196786D01*
G01*
X214609280Y-88430422D01*
G75*
G02*
X214609280Y-88823994I-196786J-196786D01*
G01*
X213623994Y-89809280D01*
G75*
G02*
X213230422Y-89809280I-196786J196786D01*
G01*
X212581012Y-89159870D01*
G75*
G02*
X212581012Y-88766298I196786J196786D01*
G01*
G37*
G36*
G01*
X214790720Y-90976006D02*
X215776006Y-89990720D01*
G75*
G02*
X216169578Y-89990720I196786J-196786D01*
G01*
X216818988Y-90640130D01*
G75*
G02*
X216818988Y-91033702I-196786J-196786D01*
G01*
X215833702Y-92018988D01*
G75*
G02*
X215440130Y-92018988I-196786J196786D01*
G01*
X214790720Y-91369578D01*
G75*
G02*
X214790720Y-90976006I196786J196786D01*
G01*
G37*
%TD*%
%TO.C,C5*%
G36*
G01*
X201923994Y-94090720D02*
X202909280Y-95076006D01*
G75*
G02*
X202909280Y-95469578I-196786J-196786D01*
G01*
X202259870Y-96118988D01*
G75*
G02*
X201866298Y-96118988I-196786J196786D01*
G01*
X200881012Y-95133702D01*
G75*
G02*
X200881012Y-94740130I196786J196786D01*
G01*
X201530422Y-94090720D01*
G75*
G02*
X201923994Y-94090720I196786J-196786D01*
G01*
G37*
G36*
G01*
X204133702Y-91881012D02*
X205118988Y-92866298D01*
G75*
G02*
X205118988Y-93259870I-196786J-196786D01*
G01*
X204469578Y-93909280D01*
G75*
G02*
X204076006Y-93909280I-196786J196786D01*
G01*
X203090720Y-92923994D01*
G75*
G02*
X203090720Y-92530422I196786J196786D01*
G01*
X203740130Y-91881012D01*
G75*
G02*
X204133702Y-91881012I196786J-196786D01*
G01*
G37*
%TD*%
%TO.C,C8*%
G36*
G01*
X211081012Y-93066298D02*
X212066298Y-92081012D01*
G75*
G02*
X212459870Y-92081012I196786J-196786D01*
G01*
X213109280Y-92730422D01*
G75*
G02*
X213109280Y-93123994I-196786J-196786D01*
G01*
X212123994Y-94109280D01*
G75*
G02*
X211730422Y-94109280I-196786J196786D01*
G01*
X211081012Y-93459870D01*
G75*
G02*
X211081012Y-93066298I196786J196786D01*
G01*
G37*
G36*
G01*
X213290720Y-95276006D02*
X214276006Y-94290720D01*
G75*
G02*
X214669578Y-94290720I196786J-196786D01*
G01*
X215318988Y-94940130D01*
G75*
G02*
X215318988Y-95333702I-196786J-196786D01*
G01*
X214333702Y-96318988D01*
G75*
G02*
X213940130Y-96318988I-196786J196786D01*
G01*
X213290720Y-95669578D01*
G75*
G02*
X213290720Y-95276006I196786J196786D01*
G01*
G37*
%TD*%
%TO.C,C15*%
G36*
G01*
X234143298Y-120885000D02*
X235536702Y-120885000D01*
G75*
G02*
X235815000Y-121163298I0J-278298D01*
G01*
X235815000Y-122081702D01*
G75*
G02*
X235536702Y-122360000I-278298J0D01*
G01*
X234143298Y-122360000D01*
G75*
G02*
X233865000Y-122081702I0J278298D01*
G01*
X233865000Y-121163298D01*
G75*
G02*
X234143298Y-120885000I278298J0D01*
G01*
G37*
G36*
G01*
X234143298Y-117760000D02*
X235536702Y-117760000D01*
G75*
G02*
X235815000Y-118038298I0J-278298D01*
G01*
X235815000Y-118956702D01*
G75*
G02*
X235536702Y-119235000I-278298J0D01*
G01*
X234143298Y-119235000D01*
G75*
G02*
X233865000Y-118956702I0J278298D01*
G01*
X233865000Y-118038298D01*
G75*
G02*
X234143298Y-117760000I278298J0D01*
G01*
G37*
%TD*%
%TO.C,C16*%
G36*
G01*
X236633298Y-120905000D02*
X238026702Y-120905000D01*
G75*
G02*
X238305000Y-121183298I0J-278298D01*
G01*
X238305000Y-122101702D01*
G75*
G02*
X238026702Y-122380000I-278298J0D01*
G01*
X236633298Y-122380000D01*
G75*
G02*
X236355000Y-122101702I0J278298D01*
G01*
X236355000Y-121183298D01*
G75*
G02*
X236633298Y-120905000I278298J0D01*
G01*
G37*
G36*
G01*
X236633298Y-117780000D02*
X238026702Y-117780000D01*
G75*
G02*
X238305000Y-118058298I0J-278298D01*
G01*
X238305000Y-118976702D01*
G75*
G02*
X238026702Y-119255000I-278298J0D01*
G01*
X236633298Y-119255000D01*
G75*
G02*
X236355000Y-118976702I0J278298D01*
G01*
X236355000Y-118058298D01*
G75*
G02*
X236633298Y-117780000I278298J0D01*
G01*
G37*
%TD*%
%TO.C,C17*%
G36*
G01*
X223873298Y-120865000D02*
X225266702Y-120865000D01*
G75*
G02*
X225545000Y-121143298I0J-278298D01*
G01*
X225545000Y-122061702D01*
G75*
G02*
X225266702Y-122340000I-278298J0D01*
G01*
X223873298Y-122340000D01*
G75*
G02*
X223595000Y-122061702I0J278298D01*
G01*
X223595000Y-121143298D01*
G75*
G02*
X223873298Y-120865000I278298J0D01*
G01*
G37*
G36*
G01*
X223873298Y-117740000D02*
X225266702Y-117740000D01*
G75*
G02*
X225545000Y-118018298I0J-278298D01*
G01*
X225545000Y-118936702D01*
G75*
G02*
X225266702Y-119215000I-278298J0D01*
G01*
X223873298Y-119215000D01*
G75*
G02*
X223595000Y-118936702I0J278298D01*
G01*
X223595000Y-118018298D01*
G75*
G02*
X223873298Y-117740000I278298J0D01*
G01*
G37*
%TD*%
%TO.C,C18*%
G36*
G01*
X226523298Y-117740000D02*
X227916702Y-117740000D01*
G75*
G02*
X228195000Y-118018298I0J-278298D01*
G01*
X228195000Y-118936702D01*
G75*
G02*
X227916702Y-119215000I-278298J0D01*
G01*
X226523298Y-119215000D01*
G75*
G02*
X226245000Y-118936702I0J278298D01*
G01*
X226245000Y-118018298D01*
G75*
G02*
X226523298Y-117740000I278298J0D01*
G01*
G37*
G36*
G01*
X226523298Y-120865000D02*
X227916702Y-120865000D01*
G75*
G02*
X228195000Y-121143298I0J-278298D01*
G01*
X228195000Y-122061702D01*
G75*
G02*
X227916702Y-122340000I-278298J0D01*
G01*
X226523298Y-122340000D01*
G75*
G02*
X226245000Y-122061702I0J278298D01*
G01*
X226245000Y-121143298D01*
G75*
G02*
X226523298Y-120865000I278298J0D01*
G01*
G37*
%TD*%
%TO.C,C19*%
G36*
G01*
X240256702Y-113167500D02*
X238863298Y-113167500D01*
G75*
G02*
X238585000Y-112889202I0J278298D01*
G01*
X238585000Y-111970798D01*
G75*
G02*
X238863298Y-111692500I278298J0D01*
G01*
X240256702Y-111692500D01*
G75*
G02*
X240535000Y-111970798I0J-278298D01*
G01*
X240535000Y-112889202D01*
G75*
G02*
X240256702Y-113167500I-278298J0D01*
G01*
G37*
G36*
G01*
X240256702Y-110042500D02*
X238863298Y-110042500D01*
G75*
G02*
X238585000Y-109764202I0J278298D01*
G01*
X238585000Y-108845798D01*
G75*
G02*
X238863298Y-108567500I278298J0D01*
G01*
X240256702Y-108567500D01*
G75*
G02*
X240535000Y-108845798I0J-278298D01*
G01*
X240535000Y-109764202D01*
G75*
G02*
X240256702Y-110042500I-278298J0D01*
G01*
G37*
%TD*%
%TO.C,C20*%
G36*
G01*
X242756702Y-113190000D02*
X241363298Y-113190000D01*
G75*
G02*
X241085000Y-112911702I0J278298D01*
G01*
X241085000Y-111993298D01*
G75*
G02*
X241363298Y-111715000I278298J0D01*
G01*
X242756702Y-111715000D01*
G75*
G02*
X243035000Y-111993298I0J-278298D01*
G01*
X243035000Y-112911702D01*
G75*
G02*
X242756702Y-113190000I-278298J0D01*
G01*
G37*
G36*
G01*
X242756702Y-110065000D02*
X241363298Y-110065000D01*
G75*
G02*
X241085000Y-109786702I0J278298D01*
G01*
X241085000Y-108868298D01*
G75*
G02*
X241363298Y-108590000I278298J0D01*
G01*
X242756702Y-108590000D01*
G75*
G02*
X243035000Y-108868298I0J-278298D01*
G01*
X243035000Y-109786702D01*
G75*
G02*
X242756702Y-110065000I-278298J0D01*
G01*
G37*
%TD*%
%TO.C,C21*%
G36*
G01*
X249895000Y-110646702D02*
X249895000Y-109253298D01*
G75*
G02*
X250173298Y-108975000I278298J0D01*
G01*
X251091702Y-108975000D01*
G75*
G02*
X251370000Y-109253298I0J-278298D01*
G01*
X251370000Y-110646702D01*
G75*
G02*
X251091702Y-110925000I-278298J0D01*
G01*
X250173298Y-110925000D01*
G75*
G02*
X249895000Y-110646702I0J278298D01*
G01*
G37*
G36*
G01*
X246770000Y-110646702D02*
X246770000Y-109253298D01*
G75*
G02*
X247048298Y-108975000I278298J0D01*
G01*
X247966702Y-108975000D01*
G75*
G02*
X248245000Y-109253298I0J-278298D01*
G01*
X248245000Y-110646702D01*
G75*
G02*
X247966702Y-110925000I-278298J0D01*
G01*
X247048298Y-110925000D01*
G75*
G02*
X246770000Y-110646702I0J278298D01*
G01*
G37*
%TD*%
%TO.C,C22*%
G36*
G01*
X246770000Y-113236702D02*
X246770000Y-111843298D01*
G75*
G02*
X247048298Y-111565000I278298J0D01*
G01*
X247966702Y-111565000D01*
G75*
G02*
X248245000Y-111843298I0J-278298D01*
G01*
X248245000Y-113236702D01*
G75*
G02*
X247966702Y-113515000I-278298J0D01*
G01*
X247048298Y-113515000D01*
G75*
G02*
X246770000Y-113236702I0J278298D01*
G01*
G37*
G36*
G01*
X249895000Y-113236702D02*
X249895000Y-111843298D01*
G75*
G02*
X250173298Y-111565000I278298J0D01*
G01*
X251091702Y-111565000D01*
G75*
G02*
X251370000Y-111843298I0J-278298D01*
G01*
X251370000Y-113236702D01*
G75*
G02*
X251091702Y-113515000I-278298J0D01*
G01*
X250173298Y-113515000D01*
G75*
G02*
X249895000Y-113236702I0J278298D01*
G01*
G37*
%TD*%
%TO.C,C23*%
G36*
G01*
X244045000Y-131686702D02*
X244045000Y-130293298D01*
G75*
G02*
X244323298Y-130015000I278298J0D01*
G01*
X245241702Y-130015000D01*
G75*
G02*
X245520000Y-130293298I0J-278298D01*
G01*
X245520000Y-131686702D01*
G75*
G02*
X245241702Y-131965000I-278298J0D01*
G01*
X244323298Y-131965000D01*
G75*
G02*
X244045000Y-131686702I0J278298D01*
G01*
G37*
G36*
G01*
X240920000Y-131686702D02*
X240920000Y-130293298D01*
G75*
G02*
X241198298Y-130015000I278298J0D01*
G01*
X242116702Y-130015000D01*
G75*
G02*
X242395000Y-130293298I0J-278298D01*
G01*
X242395000Y-131686702D01*
G75*
G02*
X242116702Y-131965000I-278298J0D01*
G01*
X241198298Y-131965000D01*
G75*
G02*
X240920000Y-131686702I0J278298D01*
G01*
G37*
%TD*%
%TO.C,C24*%
G36*
G01*
X240930000Y-128086702D02*
X240930000Y-126693298D01*
G75*
G02*
X241208298Y-126415000I278298J0D01*
G01*
X242126702Y-126415000D01*
G75*
G02*
X242405000Y-126693298I0J-278298D01*
G01*
X242405000Y-128086702D01*
G75*
G02*
X242126702Y-128365000I-278298J0D01*
G01*
X241208298Y-128365000D01*
G75*
G02*
X240930000Y-128086702I0J278298D01*
G01*
G37*
G36*
G01*
X244055000Y-128086702D02*
X244055000Y-126693298D01*
G75*
G02*
X244333298Y-126415000I278298J0D01*
G01*
X245251702Y-126415000D01*
G75*
G02*
X245530000Y-126693298I0J-278298D01*
G01*
X245530000Y-128086702D01*
G75*
G02*
X245251702Y-128365000I-278298J0D01*
G01*
X244333298Y-128365000D01*
G75*
G02*
X244055000Y-128086702I0J278298D01*
G01*
G37*
%TD*%
%TO.C,CART1*%
G36*
G01*
X243464800Y-204131000D02*
X245395200Y-204131000D01*
G75*
G02*
X245470200Y-204206000I0J-75000D01*
G01*
X245470200Y-209794000D01*
G75*
G02*
X245395200Y-209869000I-75000J0D01*
G01*
X243464800Y-209869000D01*
G75*
G02*
X243389800Y-209794000I0J75000D01*
G01*
X243389800Y-204206000D01*
G75*
G02*
X243464800Y-204131000I75000J0D01*
G01*
G37*
G36*
G01*
X240924800Y-204131000D02*
X242855200Y-204131000D01*
G75*
G02*
X242930200Y-204206000I0J-75000D01*
G01*
X242930200Y-209794000D01*
G75*
G02*
X242855200Y-209869000I-75000J0D01*
G01*
X240924800Y-209869000D01*
G75*
G02*
X240849800Y-209794000I0J75000D01*
G01*
X240849800Y-204206000D01*
G75*
G02*
X240924800Y-204131000I75000J0D01*
G01*
G37*
G36*
G01*
X238384800Y-204131000D02*
X240315200Y-204131000D01*
G75*
G02*
X240390200Y-204206000I0J-75000D01*
G01*
X240390200Y-209794000D01*
G75*
G02*
X240315200Y-209869000I-75000J0D01*
G01*
X238384800Y-209869000D01*
G75*
G02*
X238309800Y-209794000I0J75000D01*
G01*
X238309800Y-204206000D01*
G75*
G02*
X238384800Y-204131000I75000J0D01*
G01*
G37*
G36*
G01*
X235844800Y-204131000D02*
X237775200Y-204131000D01*
G75*
G02*
X237850200Y-204206000I0J-75000D01*
G01*
X237850200Y-209794000D01*
G75*
G02*
X237775200Y-209869000I-75000J0D01*
G01*
X235844800Y-209869000D01*
G75*
G02*
X235769800Y-209794000I0J75000D01*
G01*
X235769800Y-204206000D01*
G75*
G02*
X235844800Y-204131000I75000J0D01*
G01*
G37*
G36*
G01*
X233304800Y-204131000D02*
X235235200Y-204131000D01*
G75*
G02*
X235310200Y-204206000I0J-75000D01*
G01*
X235310200Y-209794000D01*
G75*
G02*
X235235200Y-209869000I-75000J0D01*
G01*
X233304800Y-209869000D01*
G75*
G02*
X233229800Y-209794000I0J75000D01*
G01*
X233229800Y-204206000D01*
G75*
G02*
X233304800Y-204131000I75000J0D01*
G01*
G37*
G36*
G01*
X230764800Y-204131000D02*
X232695200Y-204131000D01*
G75*
G02*
X232770200Y-204206000I0J-75000D01*
G01*
X232770200Y-209794000D01*
G75*
G02*
X232695200Y-209869000I-75000J0D01*
G01*
X230764800Y-209869000D01*
G75*
G02*
X230689800Y-209794000I0J75000D01*
G01*
X230689800Y-204206000D01*
G75*
G02*
X230764800Y-204131000I75000J0D01*
G01*
G37*
G36*
G01*
X228224800Y-204131000D02*
X230155200Y-204131000D01*
G75*
G02*
X230230200Y-204206000I0J-75000D01*
G01*
X230230200Y-209794000D01*
G75*
G02*
X230155200Y-209869000I-75000J0D01*
G01*
X228224800Y-209869000D01*
G75*
G02*
X228149800Y-209794000I0J75000D01*
G01*
X228149800Y-204206000D01*
G75*
G02*
X228224800Y-204131000I75000J0D01*
G01*
G37*
G36*
G01*
X225684800Y-204131000D02*
X227615200Y-204131000D01*
G75*
G02*
X227690200Y-204206000I0J-75000D01*
G01*
X227690200Y-209794000D01*
G75*
G02*
X227615200Y-209869000I-75000J0D01*
G01*
X225684800Y-209869000D01*
G75*
G02*
X225609800Y-209794000I0J75000D01*
G01*
X225609800Y-204206000D01*
G75*
G02*
X225684800Y-204131000I75000J0D01*
G01*
G37*
G36*
G01*
X223144800Y-204131000D02*
X225075200Y-204131000D01*
G75*
G02*
X225150200Y-204206000I0J-75000D01*
G01*
X225150200Y-209794000D01*
G75*
G02*
X225075200Y-209869000I-75000J0D01*
G01*
X223144800Y-209869000D01*
G75*
G02*
X223069800Y-209794000I0J75000D01*
G01*
X223069800Y-204206000D01*
G75*
G02*
X223144800Y-204131000I75000J0D01*
G01*
G37*
G36*
G01*
X220604800Y-204131000D02*
X222535200Y-204131000D01*
G75*
G02*
X222610200Y-204206000I0J-75000D01*
G01*
X222610200Y-209794000D01*
G75*
G02*
X222535200Y-209869000I-75000J0D01*
G01*
X220604800Y-209869000D01*
G75*
G02*
X220529800Y-209794000I0J75000D01*
G01*
X220529800Y-204206000D01*
G75*
G02*
X220604800Y-204131000I75000J0D01*
G01*
G37*
G36*
G01*
X218064800Y-204131000D02*
X219995200Y-204131000D01*
G75*
G02*
X220070200Y-204206000I0J-75000D01*
G01*
X220070200Y-209794000D01*
G75*
G02*
X219995200Y-209869000I-75000J0D01*
G01*
X218064800Y-209869000D01*
G75*
G02*
X217989800Y-209794000I0J75000D01*
G01*
X217989800Y-204206000D01*
G75*
G02*
X218064800Y-204131000I75000J0D01*
G01*
G37*
G36*
G01*
X215524800Y-204131000D02*
X217455200Y-204131000D01*
G75*
G02*
X217530200Y-204206000I0J-75000D01*
G01*
X217530200Y-209794000D01*
G75*
G02*
X217455200Y-209869000I-75000J0D01*
G01*
X215524800Y-209869000D01*
G75*
G02*
X215449800Y-209794000I0J75000D01*
G01*
X215449800Y-204206000D01*
G75*
G02*
X215524800Y-204131000I75000J0D01*
G01*
G37*
G36*
G01*
X212984800Y-204131000D02*
X214915200Y-204131000D01*
G75*
G02*
X214990200Y-204206000I0J-75000D01*
G01*
X214990200Y-209794000D01*
G75*
G02*
X214915200Y-209869000I-75000J0D01*
G01*
X212984800Y-209869000D01*
G75*
G02*
X212909800Y-209794000I0J75000D01*
G01*
X212909800Y-204206000D01*
G75*
G02*
X212984800Y-204131000I75000J0D01*
G01*
G37*
G36*
G01*
X210444800Y-204131000D02*
X212375200Y-204131000D01*
G75*
G02*
X212450200Y-204206000I0J-75000D01*
G01*
X212450200Y-209794000D01*
G75*
G02*
X212375200Y-209869000I-75000J0D01*
G01*
X210444800Y-209869000D01*
G75*
G02*
X210369800Y-209794000I0J75000D01*
G01*
X210369800Y-204206000D01*
G75*
G02*
X210444800Y-204131000I75000J0D01*
G01*
G37*
G36*
G01*
X207904800Y-204131000D02*
X209835200Y-204131000D01*
G75*
G02*
X209910200Y-204206000I0J-75000D01*
G01*
X209910200Y-209794000D01*
G75*
G02*
X209835200Y-209869000I-75000J0D01*
G01*
X207904800Y-209869000D01*
G75*
G02*
X207829800Y-209794000I0J75000D01*
G01*
X207829800Y-204206000D01*
G75*
G02*
X207904800Y-204131000I75000J0D01*
G01*
G37*
%TD*%
%TO.C,ECI1*%
G36*
G01*
X182074800Y-204131000D02*
X184005200Y-204131000D01*
G75*
G02*
X184080200Y-204206000I0J-75000D01*
G01*
X184080200Y-209794000D01*
G75*
G02*
X184005200Y-209869000I-75000J0D01*
G01*
X182074800Y-209869000D01*
G75*
G02*
X181999800Y-209794000I0J75000D01*
G01*
X181999800Y-204206000D01*
G75*
G02*
X182074800Y-204131000I75000J0D01*
G01*
G37*
G36*
G01*
X179534800Y-204131000D02*
X181465200Y-204131000D01*
G75*
G02*
X181540200Y-204206000I0J-75000D01*
G01*
X181540200Y-209794000D01*
G75*
G02*
X181465200Y-209869000I-75000J0D01*
G01*
X179534800Y-209869000D01*
G75*
G02*
X179459800Y-209794000I0J75000D01*
G01*
X179459800Y-204206000D01*
G75*
G02*
X179534800Y-204131000I75000J0D01*
G01*
G37*
G36*
G01*
X176994800Y-204131000D02*
X178925200Y-204131000D01*
G75*
G02*
X179000200Y-204206000I0J-75000D01*
G01*
X179000200Y-209794000D01*
G75*
G02*
X178925200Y-209869000I-75000J0D01*
G01*
X176994800Y-209869000D01*
G75*
G02*
X176919800Y-209794000I0J75000D01*
G01*
X176919800Y-204206000D01*
G75*
G02*
X176994800Y-204131000I75000J0D01*
G01*
G37*
G36*
G01*
X174454800Y-204131000D02*
X176385200Y-204131000D01*
G75*
G02*
X176460200Y-204206000I0J-75000D01*
G01*
X176460200Y-209794000D01*
G75*
G02*
X176385200Y-209869000I-75000J0D01*
G01*
X174454800Y-209869000D01*
G75*
G02*
X174379800Y-209794000I0J75000D01*
G01*
X174379800Y-204206000D01*
G75*
G02*
X174454800Y-204131000I75000J0D01*
G01*
G37*
G36*
G01*
X171914800Y-204131000D02*
X173845200Y-204131000D01*
G75*
G02*
X173920200Y-204206000I0J-75000D01*
G01*
X173920200Y-209794000D01*
G75*
G02*
X173845200Y-209869000I-75000J0D01*
G01*
X171914800Y-209869000D01*
G75*
G02*
X171839800Y-209794000I0J75000D01*
G01*
X171839800Y-204206000D01*
G75*
G02*
X171914800Y-204131000I75000J0D01*
G01*
G37*
G36*
G01*
X169374800Y-204131000D02*
X171305200Y-204131000D01*
G75*
G02*
X171380200Y-204206000I0J-75000D01*
G01*
X171380200Y-209794000D01*
G75*
G02*
X171305200Y-209869000I-75000J0D01*
G01*
X169374800Y-209869000D01*
G75*
G02*
X169299800Y-209794000I0J75000D01*
G01*
X169299800Y-204206000D01*
G75*
G02*
X169374800Y-204131000I75000J0D01*
G01*
G37*
G36*
G01*
X166834800Y-204131000D02*
X168765200Y-204131000D01*
G75*
G02*
X168840200Y-204206000I0J-75000D01*
G01*
X168840200Y-209794000D01*
G75*
G02*
X168765200Y-209869000I-75000J0D01*
G01*
X166834800Y-209869000D01*
G75*
G02*
X166759800Y-209794000I0J75000D01*
G01*
X166759800Y-204206000D01*
G75*
G02*
X166834800Y-204131000I75000J0D01*
G01*
G37*
%TD*%
%TO.C,JP2*%
G36*
G01*
X234550000Y-49075000D02*
X236250000Y-49075000D01*
G75*
G02*
X236325000Y-49150000I0J-75000D01*
G01*
X236325000Y-50850000D01*
G75*
G02*
X236250000Y-50925000I-75000J0D01*
G01*
X234550000Y-50925000D01*
G75*
G02*
X234475000Y-50850000I0J75000D01*
G01*
X234475000Y-49150000D01*
G75*
G02*
X234550000Y-49075000I75000J0D01*
G01*
G37*
D14*
X232860000Y-50000000D03*
%TD*%
%TO.C,LD3*%
G36*
G01*
X136673685Y-75275000D02*
X135326315Y-75275000D01*
G75*
G02*
X135050000Y-74998685I0J276315D01*
G01*
X135050000Y-73976315D01*
G75*
G02*
X135326315Y-73700000I276315J0D01*
G01*
X136673685Y-73700000D01*
G75*
G02*
X136950000Y-73976315I0J-276315D01*
G01*
X136950000Y-74998685D01*
G75*
G02*
X136673685Y-75275000I-276315J0D01*
G01*
G37*
G36*
G01*
X136673685Y-72300000D02*
X135326315Y-72300000D01*
G75*
G02*
X135050000Y-72023685I0J276315D01*
G01*
X135050000Y-71001315D01*
G75*
G02*
X135326315Y-70725000I276315J0D01*
G01*
X136673685Y-70725000D01*
G75*
G02*
X136950000Y-71001315I0J-276315D01*
G01*
X136950000Y-72023685D01*
G75*
G02*
X136673685Y-72300000I-276315J0D01*
G01*
G37*
%TD*%
%TO.C,Q1*%
G36*
G01*
X178750000Y-53125000D02*
X177950000Y-53125000D01*
G75*
G02*
X177875000Y-53050000I0J75000D01*
G01*
X177875000Y-52150000D01*
G75*
G02*
X177950000Y-52075000I75000J0D01*
G01*
X178750000Y-52075000D01*
G75*
G02*
X178825000Y-52150000I0J-75000D01*
G01*
X178825000Y-53050000D01*
G75*
G02*
X178750000Y-53125000I-75000J0D01*
G01*
G37*
G36*
G01*
X180650000Y-53125000D02*
X179850000Y-53125000D01*
G75*
G02*
X179775000Y-53050000I0J75000D01*
G01*
X179775000Y-52150000D01*
G75*
G02*
X179850000Y-52075000I75000J0D01*
G01*
X180650000Y-52075000D01*
G75*
G02*
X180725000Y-52150000I0J-75000D01*
G01*
X180725000Y-53050000D01*
G75*
G02*
X180650000Y-53125000I-75000J0D01*
G01*
G37*
G36*
G01*
X179700000Y-51125000D02*
X178900000Y-51125000D01*
G75*
G02*
X178825000Y-51050000I0J75000D01*
G01*
X178825000Y-50150000D01*
G75*
G02*
X178900000Y-50075000I75000J0D01*
G01*
X179700000Y-50075000D01*
G75*
G02*
X179775000Y-50150000I0J-75000D01*
G01*
X179775000Y-51050000D01*
G75*
G02*
X179700000Y-51125000I-75000J0D01*
G01*
G37*
%TD*%
%TO.C,R1*%
G36*
G01*
X183075000Y-48728845D02*
X183075000Y-50071155D01*
G75*
G02*
X182796155Y-50350000I-278845J0D01*
G01*
X181903845Y-50350000D01*
G75*
G02*
X181625000Y-50071155I0J278845D01*
G01*
X181625000Y-48728845D01*
G75*
G02*
X181903845Y-48450000I278845J0D01*
G01*
X182796155Y-48450000D01*
G75*
G02*
X183075000Y-48728845I0J-278845D01*
G01*
G37*
G36*
G01*
X186175000Y-48728845D02*
X186175000Y-50071155D01*
G75*
G02*
X185896155Y-50350000I-278845J0D01*
G01*
X185003845Y-50350000D01*
G75*
G02*
X184725000Y-50071155I0J278845D01*
G01*
X184725000Y-48728845D01*
G75*
G02*
X185003845Y-48450000I278845J0D01*
G01*
X185896155Y-48450000D01*
G75*
G02*
X186175000Y-48728845I0J-278845D01*
G01*
G37*
%TD*%
%TO.C,R3*%
G36*
G01*
X221150000Y-89371155D02*
X221150000Y-88028845D01*
G75*
G02*
X221428845Y-87750000I278845J0D01*
G01*
X222321155Y-87750000D01*
G75*
G02*
X222600000Y-88028845I0J-278845D01*
G01*
X222600000Y-89371155D01*
G75*
G02*
X222321155Y-89650000I-278845J0D01*
G01*
X221428845Y-89650000D01*
G75*
G02*
X221150000Y-89371155I0J278845D01*
G01*
G37*
G36*
G01*
X224250000Y-89371155D02*
X224250000Y-88028845D01*
G75*
G02*
X224528845Y-87750000I278845J0D01*
G01*
X225421155Y-87750000D01*
G75*
G02*
X225700000Y-88028845I0J-278845D01*
G01*
X225700000Y-89371155D01*
G75*
G02*
X225421155Y-89650000I-278845J0D01*
G01*
X224528845Y-89650000D01*
G75*
G02*
X224250000Y-89371155I0J278845D01*
G01*
G37*
%TD*%
%TO.C,R4*%
G36*
G01*
X224225000Y-95121155D02*
X224225000Y-93778845D01*
G75*
G02*
X224503845Y-93500000I278845J0D01*
G01*
X225396155Y-93500000D01*
G75*
G02*
X225675000Y-93778845I0J-278845D01*
G01*
X225675000Y-95121155D01*
G75*
G02*
X225396155Y-95400000I-278845J0D01*
G01*
X224503845Y-95400000D01*
G75*
G02*
X224225000Y-95121155I0J278845D01*
G01*
G37*
G36*
G01*
X221125000Y-95121155D02*
X221125000Y-93778845D01*
G75*
G02*
X221403845Y-93500000I278845J0D01*
G01*
X222296155Y-93500000D01*
G75*
G02*
X222575000Y-93778845I0J-278845D01*
G01*
X222575000Y-95121155D01*
G75*
G02*
X222296155Y-95400000I-278845J0D01*
G01*
X221403845Y-95400000D01*
G75*
G02*
X221125000Y-95121155I0J278845D01*
G01*
G37*
%TD*%
%TO.C,R5*%
G36*
G01*
X199025000Y-81146155D02*
X199025000Y-79803845D01*
G75*
G02*
X199303845Y-79525000I278845J0D01*
G01*
X200196155Y-79525000D01*
G75*
G02*
X200475000Y-79803845I0J-278845D01*
G01*
X200475000Y-81146155D01*
G75*
G02*
X200196155Y-81425000I-278845J0D01*
G01*
X199303845Y-81425000D01*
G75*
G02*
X199025000Y-81146155I0J278845D01*
G01*
G37*
G36*
G01*
X195925000Y-81146155D02*
X195925000Y-79803845D01*
G75*
G02*
X196203845Y-79525000I278845J0D01*
G01*
X197096155Y-79525000D01*
G75*
G02*
X197375000Y-79803845I0J-278845D01*
G01*
X197375000Y-81146155D01*
G75*
G02*
X197096155Y-81425000I-278845J0D01*
G01*
X196203845Y-81425000D01*
G75*
G02*
X195925000Y-81146155I0J278845D01*
G01*
G37*
%TD*%
%TO.C,R8*%
G36*
G01*
X219075000Y-64428845D02*
X219075000Y-65771155D01*
G75*
G02*
X218796155Y-66050000I-278845J0D01*
G01*
X217903845Y-66050000D01*
G75*
G02*
X217625000Y-65771155I0J278845D01*
G01*
X217625000Y-64428845D01*
G75*
G02*
X217903845Y-64150000I278845J0D01*
G01*
X218796155Y-64150000D01*
G75*
G02*
X219075000Y-64428845I0J-278845D01*
G01*
G37*
G36*
G01*
X222175000Y-64428845D02*
X222175000Y-65771155D01*
G75*
G02*
X221896155Y-66050000I-278845J0D01*
G01*
X221003845Y-66050000D01*
G75*
G02*
X220725000Y-65771155I0J278845D01*
G01*
X220725000Y-64428845D01*
G75*
G02*
X221003845Y-64150000I278845J0D01*
G01*
X221896155Y-64150000D01*
G75*
G02*
X222175000Y-64428845I0J-278845D01*
G01*
G37*
%TD*%
%TO.C,R9*%
G36*
G01*
X207875000Y-64528845D02*
X207875000Y-65871155D01*
G75*
G02*
X207596155Y-66150000I-278845J0D01*
G01*
X206703845Y-66150000D01*
G75*
G02*
X206425000Y-65871155I0J278845D01*
G01*
X206425000Y-64528845D01*
G75*
G02*
X206703845Y-64250000I278845J0D01*
G01*
X207596155Y-64250000D01*
G75*
G02*
X207875000Y-64528845I0J-278845D01*
G01*
G37*
G36*
G01*
X204775000Y-64528845D02*
X204775000Y-65871155D01*
G75*
G02*
X204496155Y-66150000I-278845J0D01*
G01*
X203603845Y-66150000D01*
G75*
G02*
X203325000Y-65871155I0J278845D01*
G01*
X203325000Y-64528845D01*
G75*
G02*
X203603845Y-64250000I278845J0D01*
G01*
X204496155Y-64250000D01*
G75*
G02*
X204775000Y-64528845I0J-278845D01*
G01*
G37*
%TD*%
%TO.C,R10*%
G36*
G01*
X190175000Y-64268845D02*
X190175000Y-65611155D01*
G75*
G02*
X189896155Y-65890000I-278845J0D01*
G01*
X189003845Y-65890000D01*
G75*
G02*
X188725000Y-65611155I0J278845D01*
G01*
X188725000Y-64268845D01*
G75*
G02*
X189003845Y-63990000I278845J0D01*
G01*
X189896155Y-63990000D01*
G75*
G02*
X190175000Y-64268845I0J-278845D01*
G01*
G37*
G36*
G01*
X193275000Y-64268845D02*
X193275000Y-65611155D01*
G75*
G02*
X192996155Y-65890000I-278845J0D01*
G01*
X192103845Y-65890000D01*
G75*
G02*
X191825000Y-65611155I0J278845D01*
G01*
X191825000Y-64268845D01*
G75*
G02*
X192103845Y-63990000I278845J0D01*
G01*
X192996155Y-63990000D01*
G75*
G02*
X193275000Y-64268845I0J-278845D01*
G01*
G37*
%TD*%
%TO.C,R11*%
G36*
G01*
X222175000Y-67928845D02*
X222175000Y-69271155D01*
G75*
G02*
X221896155Y-69550000I-278845J0D01*
G01*
X221003845Y-69550000D01*
G75*
G02*
X220725000Y-69271155I0J278845D01*
G01*
X220725000Y-67928845D01*
G75*
G02*
X221003845Y-67650000I278845J0D01*
G01*
X221896155Y-67650000D01*
G75*
G02*
X222175000Y-67928845I0J-278845D01*
G01*
G37*
G36*
G01*
X219075000Y-67928845D02*
X219075000Y-69271155D01*
G75*
G02*
X218796155Y-69550000I-278845J0D01*
G01*
X217903845Y-69550000D01*
G75*
G02*
X217625000Y-69271155I0J278845D01*
G01*
X217625000Y-67928845D01*
G75*
G02*
X217903845Y-67650000I278845J0D01*
G01*
X218796155Y-67650000D01*
G75*
G02*
X219075000Y-67928845I0J-278845D01*
G01*
G37*
%TD*%
%TO.C,R12*%
G36*
G01*
X227675000Y-67928845D02*
X227675000Y-69271155D01*
G75*
G02*
X227396155Y-69550000I-278845J0D01*
G01*
X226503845Y-69550000D01*
G75*
G02*
X226225000Y-69271155I0J278845D01*
G01*
X226225000Y-67928845D01*
G75*
G02*
X226503845Y-67650000I278845J0D01*
G01*
X227396155Y-67650000D01*
G75*
G02*
X227675000Y-67928845I0J-278845D01*
G01*
G37*
G36*
G01*
X224575000Y-67928845D02*
X224575000Y-69271155D01*
G75*
G02*
X224296155Y-69550000I-278845J0D01*
G01*
X223403845Y-69550000D01*
G75*
G02*
X223125000Y-69271155I0J278845D01*
G01*
X223125000Y-67928845D01*
G75*
G02*
X223403845Y-67650000I278845J0D01*
G01*
X224296155Y-67650000D01*
G75*
G02*
X224575000Y-67928845I0J-278845D01*
G01*
G37*
%TD*%
%TO.C,R13*%
G36*
G01*
X207875000Y-68028845D02*
X207875000Y-69371155D01*
G75*
G02*
X207596155Y-69650000I-278845J0D01*
G01*
X206703845Y-69650000D01*
G75*
G02*
X206425000Y-69371155I0J278845D01*
G01*
X206425000Y-68028845D01*
G75*
G02*
X206703845Y-67750000I278845J0D01*
G01*
X207596155Y-67750000D01*
G75*
G02*
X207875000Y-68028845I0J-278845D01*
G01*
G37*
G36*
G01*
X204775000Y-68028845D02*
X204775000Y-69371155D01*
G75*
G02*
X204496155Y-69650000I-278845J0D01*
G01*
X203603845Y-69650000D01*
G75*
G02*
X203325000Y-69371155I0J278845D01*
G01*
X203325000Y-68028845D01*
G75*
G02*
X203603845Y-67750000I278845J0D01*
G01*
X204496155Y-67750000D01*
G75*
G02*
X204775000Y-68028845I0J-278845D01*
G01*
G37*
%TD*%
%TO.C,R14*%
G36*
G01*
X213375000Y-68028845D02*
X213375000Y-69371155D01*
G75*
G02*
X213096155Y-69650000I-278845J0D01*
G01*
X212203845Y-69650000D01*
G75*
G02*
X211925000Y-69371155I0J278845D01*
G01*
X211925000Y-68028845D01*
G75*
G02*
X212203845Y-67750000I278845J0D01*
G01*
X213096155Y-67750000D01*
G75*
G02*
X213375000Y-68028845I0J-278845D01*
G01*
G37*
G36*
G01*
X210275000Y-68028845D02*
X210275000Y-69371155D01*
G75*
G02*
X209996155Y-69650000I-278845J0D01*
G01*
X209103845Y-69650000D01*
G75*
G02*
X208825000Y-69371155I0J278845D01*
G01*
X208825000Y-68028845D01*
G75*
G02*
X209103845Y-67750000I278845J0D01*
G01*
X209996155Y-67750000D01*
G75*
G02*
X210275000Y-68028845I0J-278845D01*
G01*
G37*
%TD*%
%TO.C,R15*%
G36*
G01*
X190175000Y-67958845D02*
X190175000Y-69301155D01*
G75*
G02*
X189896155Y-69580000I-278845J0D01*
G01*
X189003845Y-69580000D01*
G75*
G02*
X188725000Y-69301155I0J278845D01*
G01*
X188725000Y-67958845D01*
G75*
G02*
X189003845Y-67680000I278845J0D01*
G01*
X189896155Y-67680000D01*
G75*
G02*
X190175000Y-67958845I0J-278845D01*
G01*
G37*
G36*
G01*
X193275000Y-67958845D02*
X193275000Y-69301155D01*
G75*
G02*
X192996155Y-69580000I-278845J0D01*
G01*
X192103845Y-69580000D01*
G75*
G02*
X191825000Y-69301155I0J278845D01*
G01*
X191825000Y-67958845D01*
G75*
G02*
X192103845Y-67680000I278845J0D01*
G01*
X192996155Y-67680000D01*
G75*
G02*
X193275000Y-67958845I0J-278845D01*
G01*
G37*
%TD*%
%TO.C,R16*%
G36*
G01*
X195675000Y-67958845D02*
X195675000Y-69301155D01*
G75*
G02*
X195396155Y-69580000I-278845J0D01*
G01*
X194503845Y-69580000D01*
G75*
G02*
X194225000Y-69301155I0J278845D01*
G01*
X194225000Y-67958845D01*
G75*
G02*
X194503845Y-67680000I278845J0D01*
G01*
X195396155Y-67680000D01*
G75*
G02*
X195675000Y-67958845I0J-278845D01*
G01*
G37*
G36*
G01*
X198775000Y-67958845D02*
X198775000Y-69301155D01*
G75*
G02*
X198496155Y-69580000I-278845J0D01*
G01*
X197603845Y-69580000D01*
G75*
G02*
X197325000Y-69301155I0J278845D01*
G01*
X197325000Y-67958845D01*
G75*
G02*
X197603845Y-67680000I278845J0D01*
G01*
X198496155Y-67680000D01*
G75*
G02*
X198775000Y-67958845I0J-278845D01*
G01*
G37*
%TD*%
%TO.C,R17*%
G36*
G01*
X219075000Y-71428845D02*
X219075000Y-72771155D01*
G75*
G02*
X218796155Y-73050000I-278845J0D01*
G01*
X217903845Y-73050000D01*
G75*
G02*
X217625000Y-72771155I0J278845D01*
G01*
X217625000Y-71428845D01*
G75*
G02*
X217903845Y-71150000I278845J0D01*
G01*
X218796155Y-71150000D01*
G75*
G02*
X219075000Y-71428845I0J-278845D01*
G01*
G37*
G36*
G01*
X222175000Y-71428845D02*
X222175000Y-72771155D01*
G75*
G02*
X221896155Y-73050000I-278845J0D01*
G01*
X221003845Y-73050000D01*
G75*
G02*
X220725000Y-72771155I0J278845D01*
G01*
X220725000Y-71428845D01*
G75*
G02*
X221003845Y-71150000I278845J0D01*
G01*
X221896155Y-71150000D01*
G75*
G02*
X222175000Y-71428845I0J-278845D01*
G01*
G37*
%TD*%
%TO.C,R18*%
G36*
G01*
X224675000Y-71428845D02*
X224675000Y-72771155D01*
G75*
G02*
X224396155Y-73050000I-278845J0D01*
G01*
X223503845Y-73050000D01*
G75*
G02*
X223225000Y-72771155I0J278845D01*
G01*
X223225000Y-71428845D01*
G75*
G02*
X223503845Y-71150000I278845J0D01*
G01*
X224396155Y-71150000D01*
G75*
G02*
X224675000Y-71428845I0J-278845D01*
G01*
G37*
G36*
G01*
X227775000Y-71428845D02*
X227775000Y-72771155D01*
G75*
G02*
X227496155Y-73050000I-278845J0D01*
G01*
X226603845Y-73050000D01*
G75*
G02*
X226325000Y-72771155I0J278845D01*
G01*
X226325000Y-71428845D01*
G75*
G02*
X226603845Y-71150000I278845J0D01*
G01*
X227496155Y-71150000D01*
G75*
G02*
X227775000Y-71428845I0J-278845D01*
G01*
G37*
%TD*%
%TO.C,R19*%
G36*
G01*
X207875000Y-71528845D02*
X207875000Y-72871155D01*
G75*
G02*
X207596155Y-73150000I-278845J0D01*
G01*
X206703845Y-73150000D01*
G75*
G02*
X206425000Y-72871155I0J278845D01*
G01*
X206425000Y-71528845D01*
G75*
G02*
X206703845Y-71250000I278845J0D01*
G01*
X207596155Y-71250000D01*
G75*
G02*
X207875000Y-71528845I0J-278845D01*
G01*
G37*
G36*
G01*
X204775000Y-71528845D02*
X204775000Y-72871155D01*
G75*
G02*
X204496155Y-73150000I-278845J0D01*
G01*
X203603845Y-73150000D01*
G75*
G02*
X203325000Y-72871155I0J278845D01*
G01*
X203325000Y-71528845D01*
G75*
G02*
X203603845Y-71250000I278845J0D01*
G01*
X204496155Y-71250000D01*
G75*
G02*
X204775000Y-71528845I0J-278845D01*
G01*
G37*
%TD*%
%TO.C,R20*%
G36*
G01*
X213375000Y-71528845D02*
X213375000Y-72871155D01*
G75*
G02*
X213096155Y-73150000I-278845J0D01*
G01*
X212203845Y-73150000D01*
G75*
G02*
X211925000Y-72871155I0J278845D01*
G01*
X211925000Y-71528845D01*
G75*
G02*
X212203845Y-71250000I278845J0D01*
G01*
X213096155Y-71250000D01*
G75*
G02*
X213375000Y-71528845I0J-278845D01*
G01*
G37*
G36*
G01*
X210275000Y-71528845D02*
X210275000Y-72871155D01*
G75*
G02*
X209996155Y-73150000I-278845J0D01*
G01*
X209103845Y-73150000D01*
G75*
G02*
X208825000Y-72871155I0J278845D01*
G01*
X208825000Y-71528845D01*
G75*
G02*
X209103845Y-71250000I278845J0D01*
G01*
X209996155Y-71250000D01*
G75*
G02*
X210275000Y-71528845I0J-278845D01*
G01*
G37*
%TD*%
%TO.C,R21*%
G36*
G01*
X193275000Y-71528845D02*
X193275000Y-72871155D01*
G75*
G02*
X192996155Y-73150000I-278845J0D01*
G01*
X192103845Y-73150000D01*
G75*
G02*
X191825000Y-72871155I0J278845D01*
G01*
X191825000Y-71528845D01*
G75*
G02*
X192103845Y-71250000I278845J0D01*
G01*
X192996155Y-71250000D01*
G75*
G02*
X193275000Y-71528845I0J-278845D01*
G01*
G37*
G36*
G01*
X190175000Y-71528845D02*
X190175000Y-72871155D01*
G75*
G02*
X189896155Y-73150000I-278845J0D01*
G01*
X189003845Y-73150000D01*
G75*
G02*
X188725000Y-72871155I0J278845D01*
G01*
X188725000Y-71528845D01*
G75*
G02*
X189003845Y-71250000I278845J0D01*
G01*
X189896155Y-71250000D01*
G75*
G02*
X190175000Y-71528845I0J-278845D01*
G01*
G37*
%TD*%
%TO.C,R22*%
G36*
G01*
X195675000Y-71528845D02*
X195675000Y-72871155D01*
G75*
G02*
X195396155Y-73150000I-278845J0D01*
G01*
X194503845Y-73150000D01*
G75*
G02*
X194225000Y-72871155I0J278845D01*
G01*
X194225000Y-71528845D01*
G75*
G02*
X194503845Y-71250000I278845J0D01*
G01*
X195396155Y-71250000D01*
G75*
G02*
X195675000Y-71528845I0J-278845D01*
G01*
G37*
G36*
G01*
X198775000Y-71528845D02*
X198775000Y-72871155D01*
G75*
G02*
X198496155Y-73150000I-278845J0D01*
G01*
X197603845Y-73150000D01*
G75*
G02*
X197325000Y-72871155I0J278845D01*
G01*
X197325000Y-71528845D01*
G75*
G02*
X197603845Y-71250000I278845J0D01*
G01*
X198496155Y-71250000D01*
G75*
G02*
X198775000Y-71528845I0J-278845D01*
G01*
G37*
%TD*%
%TO.C,R23*%
G36*
G01*
X219075000Y-75128845D02*
X219075000Y-76471155D01*
G75*
G02*
X218796155Y-76750000I-278845J0D01*
G01*
X217903845Y-76750000D01*
G75*
G02*
X217625000Y-76471155I0J278845D01*
G01*
X217625000Y-75128845D01*
G75*
G02*
X217903845Y-74850000I278845J0D01*
G01*
X218796155Y-74850000D01*
G75*
G02*
X219075000Y-75128845I0J-278845D01*
G01*
G37*
G36*
G01*
X222175000Y-75128845D02*
X222175000Y-76471155D01*
G75*
G02*
X221896155Y-76750000I-278845J0D01*
G01*
X221003845Y-76750000D01*
G75*
G02*
X220725000Y-76471155I0J278845D01*
G01*
X220725000Y-75128845D01*
G75*
G02*
X221003845Y-74850000I278845J0D01*
G01*
X221896155Y-74850000D01*
G75*
G02*
X222175000Y-75128845I0J-278845D01*
G01*
G37*
%TD*%
%TO.C,R24*%
G36*
G01*
X224675000Y-75128845D02*
X224675000Y-76471155D01*
G75*
G02*
X224396155Y-76750000I-278845J0D01*
G01*
X223503845Y-76750000D01*
G75*
G02*
X223225000Y-76471155I0J278845D01*
G01*
X223225000Y-75128845D01*
G75*
G02*
X223503845Y-74850000I278845J0D01*
G01*
X224396155Y-74850000D01*
G75*
G02*
X224675000Y-75128845I0J-278845D01*
G01*
G37*
G36*
G01*
X227775000Y-75128845D02*
X227775000Y-76471155D01*
G75*
G02*
X227496155Y-76750000I-278845J0D01*
G01*
X226603845Y-76750000D01*
G75*
G02*
X226325000Y-76471155I0J278845D01*
G01*
X226325000Y-75128845D01*
G75*
G02*
X226603845Y-74850000I278845J0D01*
G01*
X227496155Y-74850000D01*
G75*
G02*
X227775000Y-75128845I0J-278845D01*
G01*
G37*
%TD*%
%TO.C,R25*%
G36*
G01*
X204775000Y-75228845D02*
X204775000Y-76571155D01*
G75*
G02*
X204496155Y-76850000I-278845J0D01*
G01*
X203603845Y-76850000D01*
G75*
G02*
X203325000Y-76571155I0J278845D01*
G01*
X203325000Y-75228845D01*
G75*
G02*
X203603845Y-74950000I278845J0D01*
G01*
X204496155Y-74950000D01*
G75*
G02*
X204775000Y-75228845I0J-278845D01*
G01*
G37*
G36*
G01*
X207875000Y-75228845D02*
X207875000Y-76571155D01*
G75*
G02*
X207596155Y-76850000I-278845J0D01*
G01*
X206703845Y-76850000D01*
G75*
G02*
X206425000Y-76571155I0J278845D01*
G01*
X206425000Y-75228845D01*
G75*
G02*
X206703845Y-74950000I278845J0D01*
G01*
X207596155Y-74950000D01*
G75*
G02*
X207875000Y-75228845I0J-278845D01*
G01*
G37*
%TD*%
%TO.C,R26*%
G36*
G01*
X213375000Y-75228845D02*
X213375000Y-76571155D01*
G75*
G02*
X213096155Y-76850000I-278845J0D01*
G01*
X212203845Y-76850000D01*
G75*
G02*
X211925000Y-76571155I0J278845D01*
G01*
X211925000Y-75228845D01*
G75*
G02*
X212203845Y-74950000I278845J0D01*
G01*
X213096155Y-74950000D01*
G75*
G02*
X213375000Y-75228845I0J-278845D01*
G01*
G37*
G36*
G01*
X210275000Y-75228845D02*
X210275000Y-76571155D01*
G75*
G02*
X209996155Y-76850000I-278845J0D01*
G01*
X209103845Y-76850000D01*
G75*
G02*
X208825000Y-76571155I0J278845D01*
G01*
X208825000Y-75228845D01*
G75*
G02*
X209103845Y-74950000I278845J0D01*
G01*
X209996155Y-74950000D01*
G75*
G02*
X210275000Y-75228845I0J-278845D01*
G01*
G37*
%TD*%
%TO.C,R27*%
G36*
G01*
X190175000Y-75198845D02*
X190175000Y-76541155D01*
G75*
G02*
X189896155Y-76820000I-278845J0D01*
G01*
X189003845Y-76820000D01*
G75*
G02*
X188725000Y-76541155I0J278845D01*
G01*
X188725000Y-75198845D01*
G75*
G02*
X189003845Y-74920000I278845J0D01*
G01*
X189896155Y-74920000D01*
G75*
G02*
X190175000Y-75198845I0J-278845D01*
G01*
G37*
G36*
G01*
X193275000Y-75198845D02*
X193275000Y-76541155D01*
G75*
G02*
X192996155Y-76820000I-278845J0D01*
G01*
X192103845Y-76820000D01*
G75*
G02*
X191825000Y-76541155I0J278845D01*
G01*
X191825000Y-75198845D01*
G75*
G02*
X192103845Y-74920000I278845J0D01*
G01*
X192996155Y-74920000D01*
G75*
G02*
X193275000Y-75198845I0J-278845D01*
G01*
G37*
%TD*%
%TO.C,R28*%
G36*
G01*
X198775000Y-75198845D02*
X198775000Y-76541155D01*
G75*
G02*
X198496155Y-76820000I-278845J0D01*
G01*
X197603845Y-76820000D01*
G75*
G02*
X197325000Y-76541155I0J278845D01*
G01*
X197325000Y-75198845D01*
G75*
G02*
X197603845Y-74920000I278845J0D01*
G01*
X198496155Y-74920000D01*
G75*
G02*
X198775000Y-75198845I0J-278845D01*
G01*
G37*
G36*
G01*
X195675000Y-75198845D02*
X195675000Y-76541155D01*
G75*
G02*
X195396155Y-76820000I-278845J0D01*
G01*
X194503845Y-76820000D01*
G75*
G02*
X194225000Y-76541155I0J278845D01*
G01*
X194225000Y-75198845D01*
G75*
G02*
X194503845Y-74920000I278845J0D01*
G01*
X195396155Y-74920000D01*
G75*
G02*
X195675000Y-75198845I0J-278845D01*
G01*
G37*
%TD*%
%TO.C,R49*%
G36*
G01*
X168125000Y-76328845D02*
X168125000Y-77671155D01*
G75*
G02*
X167846155Y-77950000I-278845J0D01*
G01*
X166953845Y-77950000D01*
G75*
G02*
X166675000Y-77671155I0J278845D01*
G01*
X166675000Y-76328845D01*
G75*
G02*
X166953845Y-76050000I278845J0D01*
G01*
X167846155Y-76050000D01*
G75*
G02*
X168125000Y-76328845I0J-278845D01*
G01*
G37*
G36*
G01*
X165025000Y-76328845D02*
X165025000Y-77671155D01*
G75*
G02*
X164746155Y-77950000I-278845J0D01*
G01*
X163853845Y-77950000D01*
G75*
G02*
X163575000Y-77671155I0J278845D01*
G01*
X163575000Y-76328845D01*
G75*
G02*
X163853845Y-76050000I278845J0D01*
G01*
X164746155Y-76050000D01*
G75*
G02*
X165025000Y-76328845I0J-278845D01*
G01*
G37*
%TD*%
%TO.C,R56*%
G36*
G01*
X136671155Y-69275000D02*
X135328845Y-69275000D01*
G75*
G02*
X135050000Y-68996155I0J278845D01*
G01*
X135050000Y-68103845D01*
G75*
G02*
X135328845Y-67825000I278845J0D01*
G01*
X136671155Y-67825000D01*
G75*
G02*
X136950000Y-68103845I0J-278845D01*
G01*
X136950000Y-68996155D01*
G75*
G02*
X136671155Y-69275000I-278845J0D01*
G01*
G37*
G36*
G01*
X136671155Y-66175000D02*
X135328845Y-66175000D01*
G75*
G02*
X135050000Y-65896155I0J278845D01*
G01*
X135050000Y-65003845D01*
G75*
G02*
X135328845Y-64725000I278845J0D01*
G01*
X136671155Y-64725000D01*
G75*
G02*
X136950000Y-65003845I0J-278845D01*
G01*
X136950000Y-65896155D01*
G75*
G02*
X136671155Y-66175000I-278845J0D01*
G01*
G37*
%TD*%
%TO.C,R57*%
G36*
G01*
X140175000Y-74328845D02*
X140175000Y-75671155D01*
G75*
G02*
X139896155Y-75950000I-278845J0D01*
G01*
X139003845Y-75950000D01*
G75*
G02*
X138725000Y-75671155I0J278845D01*
G01*
X138725000Y-74328845D01*
G75*
G02*
X139003845Y-74050000I278845J0D01*
G01*
X139896155Y-74050000D01*
G75*
G02*
X140175000Y-74328845I0J-278845D01*
G01*
G37*
G36*
G01*
X143275000Y-74328845D02*
X143275000Y-75671155D01*
G75*
G02*
X142996155Y-75950000I-278845J0D01*
G01*
X142103845Y-75950000D01*
G75*
G02*
X141825000Y-75671155I0J278845D01*
G01*
X141825000Y-74328845D01*
G75*
G02*
X142103845Y-74050000I278845J0D01*
G01*
X142996155Y-74050000D01*
G75*
G02*
X143275000Y-74328845I0J-278845D01*
G01*
G37*
%TD*%
%TO.C,R58*%
G36*
G01*
X153275000Y-76475000D02*
X152725000Y-76475000D01*
G75*
G02*
X152450000Y-76200000I0J275000D01*
G01*
X152450000Y-75625000D01*
G75*
G02*
X152725000Y-75350000I275000J0D01*
G01*
X153275000Y-75350000D01*
G75*
G02*
X153550000Y-75625000I0J-275000D01*
G01*
X153550000Y-76200000D01*
G75*
G02*
X153275000Y-76475000I-275000J0D01*
G01*
G37*
G36*
G01*
X153275000Y-74650000D02*
X152725000Y-74650000D01*
G75*
G02*
X152450000Y-74375000I0J275000D01*
G01*
X152450000Y-73800000D01*
G75*
G02*
X152725000Y-73525000I275000J0D01*
G01*
X153275000Y-73525000D01*
G75*
G02*
X153550000Y-73800000I0J-275000D01*
G01*
X153550000Y-74375000D01*
G75*
G02*
X153275000Y-74650000I-275000J0D01*
G01*
G37*
%TD*%
%TO.C,U10*%
G36*
G01*
X231875000Y-58082500D02*
X231875000Y-57707500D01*
G75*
G02*
X232062500Y-57520000I187500J0D01*
G01*
X233787500Y-57520000D01*
G75*
G02*
X233975000Y-57707500I0J-187500D01*
G01*
X233975000Y-58082500D01*
G75*
G02*
X233787500Y-58270000I-187500J0D01*
G01*
X232062500Y-58270000D01*
G75*
G02*
X231875000Y-58082500I0J187500D01*
G01*
G37*
G36*
G01*
X231875000Y-59352500D02*
X231875000Y-58977500D01*
G75*
G02*
X232062500Y-58790000I187500J0D01*
G01*
X233787500Y-58790000D01*
G75*
G02*
X233975000Y-58977500I0J-187500D01*
G01*
X233975000Y-59352500D01*
G75*
G02*
X233787500Y-59540000I-187500J0D01*
G01*
X232062500Y-59540000D01*
G75*
G02*
X231875000Y-59352500I0J187500D01*
G01*
G37*
G36*
G01*
X231875000Y-60622500D02*
X231875000Y-60247500D01*
G75*
G02*
X232062500Y-60060000I187500J0D01*
G01*
X233787500Y-60060000D01*
G75*
G02*
X233975000Y-60247500I0J-187500D01*
G01*
X233975000Y-60622500D01*
G75*
G02*
X233787500Y-60810000I-187500J0D01*
G01*
X232062500Y-60810000D01*
G75*
G02*
X231875000Y-60622500I0J187500D01*
G01*
G37*
G36*
G01*
X231875000Y-61892500D02*
X231875000Y-61517500D01*
G75*
G02*
X232062500Y-61330000I187500J0D01*
G01*
X233787500Y-61330000D01*
G75*
G02*
X233975000Y-61517500I0J-187500D01*
G01*
X233975000Y-61892500D01*
G75*
G02*
X233787500Y-62080000I-187500J0D01*
G01*
X232062500Y-62080000D01*
G75*
G02*
X231875000Y-61892500I0J187500D01*
G01*
G37*
G36*
G01*
X236825000Y-61892500D02*
X236825000Y-61517500D01*
G75*
G02*
X237012500Y-61330000I187500J0D01*
G01*
X238737500Y-61330000D01*
G75*
G02*
X238925000Y-61517500I0J-187500D01*
G01*
X238925000Y-61892500D01*
G75*
G02*
X238737500Y-62080000I-187500J0D01*
G01*
X237012500Y-62080000D01*
G75*
G02*
X236825000Y-61892500I0J187500D01*
G01*
G37*
G36*
G01*
X236825000Y-60622500D02*
X236825000Y-60247500D01*
G75*
G02*
X237012500Y-60060000I187500J0D01*
G01*
X238737500Y-60060000D01*
G75*
G02*
X238925000Y-60247500I0J-187500D01*
G01*
X238925000Y-60622500D01*
G75*
G02*
X238737500Y-60810000I-187500J0D01*
G01*
X237012500Y-60810000D01*
G75*
G02*
X236825000Y-60622500I0J187500D01*
G01*
G37*
G36*
G01*
X236825000Y-59352500D02*
X236825000Y-58977500D01*
G75*
G02*
X237012500Y-58790000I187500J0D01*
G01*
X238737500Y-58790000D01*
G75*
G02*
X238925000Y-58977500I0J-187500D01*
G01*
X238925000Y-59352500D01*
G75*
G02*
X238737500Y-59540000I-187500J0D01*
G01*
X237012500Y-59540000D01*
G75*
G02*
X236825000Y-59352500I0J187500D01*
G01*
G37*
G36*
G01*
X236825000Y-58082500D02*
X236825000Y-57707500D01*
G75*
G02*
X237012500Y-57520000I187500J0D01*
G01*
X238737500Y-57520000D01*
G75*
G02*
X238925000Y-57707500I0J-187500D01*
G01*
X238925000Y-58082500D01*
G75*
G02*
X238737500Y-58270000I-187500J0D01*
G01*
X237012500Y-58270000D01*
G75*
G02*
X236825000Y-58082500I0J187500D01*
G01*
G37*
%TD*%
%TO.C,LD5*%
G36*
G01*
X261353685Y-106855000D02*
X260006315Y-106855000D01*
G75*
G02*
X259730000Y-106578685I0J276315D01*
G01*
X259730000Y-105556315D01*
G75*
G02*
X260006315Y-105280000I276315J0D01*
G01*
X261353685Y-105280000D01*
G75*
G02*
X261630000Y-105556315I0J-276315D01*
G01*
X261630000Y-106578685D01*
G75*
G02*
X261353685Y-106855000I-276315J0D01*
G01*
G37*
G36*
G01*
X261353685Y-103880000D02*
X260006315Y-103880000D01*
G75*
G02*
X259730000Y-103603685I0J276315D01*
G01*
X259730000Y-102581315D01*
G75*
G02*
X260006315Y-102305000I276315J0D01*
G01*
X261353685Y-102305000D01*
G75*
G02*
X261630000Y-102581315I0J-276315D01*
G01*
X261630000Y-103603685D01*
G75*
G02*
X261353685Y-103880000I-276315J0D01*
G01*
G37*
%TD*%
%TO.C,R61*%
G36*
G01*
X261145000Y-100138845D02*
X261145000Y-101481155D01*
G75*
G02*
X260866155Y-101760000I-278845J0D01*
G01*
X259973845Y-101760000D01*
G75*
G02*
X259695000Y-101481155I0J278845D01*
G01*
X259695000Y-100138845D01*
G75*
G02*
X259973845Y-99860000I278845J0D01*
G01*
X260866155Y-99860000D01*
G75*
G02*
X261145000Y-100138845I0J-278845D01*
G01*
G37*
G36*
G01*
X264245000Y-100138845D02*
X264245000Y-101481155D01*
G75*
G02*
X263966155Y-101760000I-278845J0D01*
G01*
X263073845Y-101760000D01*
G75*
G02*
X262795000Y-101481155I0J278845D01*
G01*
X262795000Y-100138845D01*
G75*
G02*
X263073845Y-99860000I278845J0D01*
G01*
X263966155Y-99860000D01*
G75*
G02*
X264245000Y-100138845I0J-278845D01*
G01*
G37*
%TD*%
D15*
%TO.C,TP1*%
X172290000Y-55070000D03*
%TD*%
%TO.C,U17*%
G36*
G01*
X175065000Y-59825000D02*
X174415000Y-59825000D01*
G75*
G02*
X174340000Y-59750000I0J75000D01*
G01*
X174340000Y-58690000D01*
G75*
G02*
X174415000Y-58615000I75000J0D01*
G01*
X175065000Y-58615000D01*
G75*
G02*
X175140000Y-58690000I0J-75000D01*
G01*
X175140000Y-59750000D01*
G75*
G02*
X175065000Y-59825000I-75000J0D01*
G01*
G37*
G36*
G01*
X176015000Y-59825000D02*
X175365000Y-59825000D01*
G75*
G02*
X175290000Y-59750000I0J75000D01*
G01*
X175290000Y-58690000D01*
G75*
G02*
X175365000Y-58615000I75000J0D01*
G01*
X176015000Y-58615000D01*
G75*
G02*
X176090000Y-58690000I0J-75000D01*
G01*
X176090000Y-59750000D01*
G75*
G02*
X176015000Y-59825000I-75000J0D01*
G01*
G37*
G36*
G01*
X176965000Y-59825000D02*
X176315000Y-59825000D01*
G75*
G02*
X176240000Y-59750000I0J75000D01*
G01*
X176240000Y-58690000D01*
G75*
G02*
X176315000Y-58615000I75000J0D01*
G01*
X176965000Y-58615000D01*
G75*
G02*
X177040000Y-58690000I0J-75000D01*
G01*
X177040000Y-59750000D01*
G75*
G02*
X176965000Y-59825000I-75000J0D01*
G01*
G37*
G36*
G01*
X176965000Y-57625000D02*
X176315000Y-57625000D01*
G75*
G02*
X176240000Y-57550000I0J75000D01*
G01*
X176240000Y-56490000D01*
G75*
G02*
X176315000Y-56415000I75000J0D01*
G01*
X176965000Y-56415000D01*
G75*
G02*
X177040000Y-56490000I0J-75000D01*
G01*
X177040000Y-57550000D01*
G75*
G02*
X176965000Y-57625000I-75000J0D01*
G01*
G37*
G36*
G01*
X175065000Y-57625000D02*
X174415000Y-57625000D01*
G75*
G02*
X174340000Y-57550000I0J75000D01*
G01*
X174340000Y-56490000D01*
G75*
G02*
X174415000Y-56415000I75000J0D01*
G01*
X175065000Y-56415000D01*
G75*
G02*
X175140000Y-56490000I0J-75000D01*
G01*
X175140000Y-57550000D01*
G75*
G02*
X175065000Y-57625000I-75000J0D01*
G01*
G37*
%TD*%
%TO.C,C2*%
G36*
G01*
X236500000Y-184278298D02*
X236500000Y-185671702D01*
G75*
G02*
X236221702Y-185950000I-278298J0D01*
G01*
X235303298Y-185950000D01*
G75*
G02*
X235025000Y-185671702I0J278298D01*
G01*
X235025000Y-184278298D01*
G75*
G02*
X235303298Y-184000000I278298J0D01*
G01*
X236221702Y-184000000D01*
G75*
G02*
X236500000Y-184278298I0J-278298D01*
G01*
G37*
G36*
G01*
X233375000Y-184278298D02*
X233375000Y-185671702D01*
G75*
G02*
X233096702Y-185950000I-278298J0D01*
G01*
X232178298Y-185950000D01*
G75*
G02*
X231900000Y-185671702I0J278298D01*
G01*
X231900000Y-184278298D01*
G75*
G02*
X232178298Y-184000000I278298J0D01*
G01*
X233096702Y-184000000D01*
G75*
G02*
X233375000Y-184278298I0J-278298D01*
G01*
G37*
%TD*%
%TO.C,C9*%
G36*
G01*
X176725000Y-176296702D02*
X176725000Y-174903298D01*
G75*
G02*
X177003298Y-174625000I278298J0D01*
G01*
X177921702Y-174625000D01*
G75*
G02*
X178200000Y-174903298I0J-278298D01*
G01*
X178200000Y-176296702D01*
G75*
G02*
X177921702Y-176575000I-278298J0D01*
G01*
X177003298Y-176575000D01*
G75*
G02*
X176725000Y-176296702I0J278298D01*
G01*
G37*
G36*
G01*
X173600000Y-176296702D02*
X173600000Y-174903298D01*
G75*
G02*
X173878298Y-174625000I278298J0D01*
G01*
X174796702Y-174625000D01*
G75*
G02*
X175075000Y-174903298I0J-278298D01*
G01*
X175075000Y-176296702D01*
G75*
G02*
X174796702Y-176575000I-278298J0D01*
G01*
X173878298Y-176575000D01*
G75*
G02*
X173600000Y-176296702I0J278298D01*
G01*
G37*
%TD*%
%TO.C,C10*%
G36*
G01*
X221000000Y-186428298D02*
X221000000Y-187821702D01*
G75*
G02*
X220721702Y-188100000I-278298J0D01*
G01*
X219803298Y-188100000D01*
G75*
G02*
X219525000Y-187821702I0J278298D01*
G01*
X219525000Y-186428298D01*
G75*
G02*
X219803298Y-186150000I278298J0D01*
G01*
X220721702Y-186150000D01*
G75*
G02*
X221000000Y-186428298I0J-278298D01*
G01*
G37*
G36*
G01*
X217875000Y-186428298D02*
X217875000Y-187821702D01*
G75*
G02*
X217596702Y-188100000I-278298J0D01*
G01*
X216678298Y-188100000D01*
G75*
G02*
X216400000Y-187821702I0J278298D01*
G01*
X216400000Y-186428298D01*
G75*
G02*
X216678298Y-186150000I278298J0D01*
G01*
X217596702Y-186150000D01*
G75*
G02*
X217875000Y-186428298I0J-278298D01*
G01*
G37*
%TD*%
%TO.C,C12*%
G36*
G01*
X234900000Y-176071702D02*
X234900000Y-174678298D01*
G75*
G02*
X235178298Y-174400000I278298J0D01*
G01*
X236096702Y-174400000D01*
G75*
G02*
X236375000Y-174678298I0J-278298D01*
G01*
X236375000Y-176071702D01*
G75*
G02*
X236096702Y-176350000I-278298J0D01*
G01*
X235178298Y-176350000D01*
G75*
G02*
X234900000Y-176071702I0J278298D01*
G01*
G37*
G36*
G01*
X231775000Y-176071702D02*
X231775000Y-174678298D01*
G75*
G02*
X232053298Y-174400000I278298J0D01*
G01*
X232971702Y-174400000D01*
G75*
G02*
X233250000Y-174678298I0J-278298D01*
G01*
X233250000Y-176071702D01*
G75*
G02*
X232971702Y-176350000I-278298J0D01*
G01*
X232053298Y-176350000D01*
G75*
G02*
X231775000Y-176071702I0J278298D01*
G01*
G37*
%TD*%
%TO.C,C57*%
G36*
G01*
X228000000Y-174678298D02*
X228000000Y-176071702D01*
G75*
G02*
X227721702Y-176350000I-278298J0D01*
G01*
X226803298Y-176350000D01*
G75*
G02*
X226525000Y-176071702I0J278298D01*
G01*
X226525000Y-174678298D01*
G75*
G02*
X226803298Y-174400000I278298J0D01*
G01*
X227721702Y-174400000D01*
G75*
G02*
X228000000Y-174678298I0J-278298D01*
G01*
G37*
G36*
G01*
X231125000Y-174678298D02*
X231125000Y-176071702D01*
G75*
G02*
X230846702Y-176350000I-278298J0D01*
G01*
X229928298Y-176350000D01*
G75*
G02*
X229650000Y-176071702I0J278298D01*
G01*
X229650000Y-174678298D01*
G75*
G02*
X229928298Y-174400000I278298J0D01*
G01*
X230846702Y-174400000D01*
G75*
G02*
X231125000Y-174678298I0J-278298D01*
G01*
G37*
%TD*%
%TO.C,mRD4*%
X244225000Y-167350000D03*
%TD*%
%TO.C,mRD5*%
X233175000Y-165375000D03*
%TD*%
%TO.C,R2*%
G36*
G01*
X234900000Y-180046155D02*
X234900000Y-178703845D01*
G75*
G02*
X235178845Y-178425000I278845J0D01*
G01*
X236071155Y-178425000D01*
G75*
G02*
X236350000Y-178703845I0J-278845D01*
G01*
X236350000Y-180046155D01*
G75*
G02*
X236071155Y-180325000I-278845J0D01*
G01*
X235178845Y-180325000D01*
G75*
G02*
X234900000Y-180046155I0J278845D01*
G01*
G37*
G36*
G01*
X231800000Y-180046155D02*
X231800000Y-178703845D01*
G75*
G02*
X232078845Y-178425000I278845J0D01*
G01*
X232971155Y-178425000D01*
G75*
G02*
X233250000Y-178703845I0J-278845D01*
G01*
X233250000Y-180046155D01*
G75*
G02*
X232971155Y-180325000I-278845J0D01*
G01*
X232078845Y-180325000D01*
G75*
G02*
X231800000Y-180046155I0J278845D01*
G01*
G37*
%TD*%
%TO.C,R7*%
G36*
G01*
X169078845Y-176400000D02*
X170421155Y-176400000D01*
G75*
G02*
X170700000Y-176678845I0J-278845D01*
G01*
X170700000Y-177571155D01*
G75*
G02*
X170421155Y-177850000I-278845J0D01*
G01*
X169078845Y-177850000D01*
G75*
G02*
X168800000Y-177571155I0J278845D01*
G01*
X168800000Y-176678845D01*
G75*
G02*
X169078845Y-176400000I278845J0D01*
G01*
G37*
G36*
G01*
X169078845Y-173300000D02*
X170421155Y-173300000D01*
G75*
G02*
X170700000Y-173578845I0J-278845D01*
G01*
X170700000Y-174471155D01*
G75*
G02*
X170421155Y-174750000I-278845J0D01*
G01*
X169078845Y-174750000D01*
G75*
G02*
X168800000Y-174471155I0J278845D01*
G01*
X168800000Y-173578845D01*
G75*
G02*
X169078845Y-173300000I278845J0D01*
G01*
G37*
%TD*%
%TO.C,R64*%
G36*
G01*
X215925000Y-176321155D02*
X215925000Y-174978845D01*
G75*
G02*
X216203845Y-174700000I278845J0D01*
G01*
X217096155Y-174700000D01*
G75*
G02*
X217375000Y-174978845I0J-278845D01*
G01*
X217375000Y-176321155D01*
G75*
G02*
X217096155Y-176600000I-278845J0D01*
G01*
X216203845Y-176600000D01*
G75*
G02*
X215925000Y-176321155I0J278845D01*
G01*
G37*
G36*
G01*
X219025000Y-176321155D02*
X219025000Y-174978845D01*
G75*
G02*
X219303845Y-174700000I278845J0D01*
G01*
X220196155Y-174700000D01*
G75*
G02*
X220475000Y-174978845I0J-278845D01*
G01*
X220475000Y-176321155D01*
G75*
G02*
X220196155Y-176600000I-278845J0D01*
G01*
X219303845Y-176600000D01*
G75*
G02*
X219025000Y-176321155I0J278845D01*
G01*
G37*
%TD*%
%TO.C,U1*%
G36*
G01*
X242987500Y-184350000D02*
X243262500Y-184350000D01*
G75*
G02*
X243400000Y-184487500I0J-137500D01*
G01*
X243400000Y-185837500D01*
G75*
G02*
X243262500Y-185975000I-137500J0D01*
G01*
X242987500Y-185975000D01*
G75*
G02*
X242850000Y-185837500I0J137500D01*
G01*
X242850000Y-184487500D01*
G75*
G02*
X242987500Y-184350000I137500J0D01*
G01*
G37*
G36*
G01*
X242337500Y-184350000D02*
X242612500Y-184350000D01*
G75*
G02*
X242750000Y-184487500I0J-137500D01*
G01*
X242750000Y-185837500D01*
G75*
G02*
X242612500Y-185975000I-137500J0D01*
G01*
X242337500Y-185975000D01*
G75*
G02*
X242200000Y-185837500I0J137500D01*
G01*
X242200000Y-184487500D01*
G75*
G02*
X242337500Y-184350000I137500J0D01*
G01*
G37*
G36*
G01*
X241687500Y-184350000D02*
X241962500Y-184350000D01*
G75*
G02*
X242100000Y-184487500I0J-137500D01*
G01*
X242100000Y-185837500D01*
G75*
G02*
X241962500Y-185975000I-137500J0D01*
G01*
X241687500Y-185975000D01*
G75*
G02*
X241550000Y-185837500I0J137500D01*
G01*
X241550000Y-184487500D01*
G75*
G02*
X241687500Y-184350000I137500J0D01*
G01*
G37*
G36*
G01*
X241037500Y-184350000D02*
X241312500Y-184350000D01*
G75*
G02*
X241450000Y-184487500I0J-137500D01*
G01*
X241450000Y-185837500D01*
G75*
G02*
X241312500Y-185975000I-137500J0D01*
G01*
X241037500Y-185975000D01*
G75*
G02*
X240900000Y-185837500I0J137500D01*
G01*
X240900000Y-184487500D01*
G75*
G02*
X241037500Y-184350000I137500J0D01*
G01*
G37*
G36*
G01*
X240387500Y-184350000D02*
X240662500Y-184350000D01*
G75*
G02*
X240800000Y-184487500I0J-137500D01*
G01*
X240800000Y-185837500D01*
G75*
G02*
X240662500Y-185975000I-137500J0D01*
G01*
X240387500Y-185975000D01*
G75*
G02*
X240250000Y-185837500I0J137500D01*
G01*
X240250000Y-184487500D01*
G75*
G02*
X240387500Y-184350000I137500J0D01*
G01*
G37*
G36*
G01*
X239737500Y-184350000D02*
X240012500Y-184350000D01*
G75*
G02*
X240150000Y-184487500I0J-137500D01*
G01*
X240150000Y-185837500D01*
G75*
G02*
X240012500Y-185975000I-137500J0D01*
G01*
X239737500Y-185975000D01*
G75*
G02*
X239600000Y-185837500I0J137500D01*
G01*
X239600000Y-184487500D01*
G75*
G02*
X239737500Y-184350000I137500J0D01*
G01*
G37*
G36*
G01*
X239087500Y-184350000D02*
X239362500Y-184350000D01*
G75*
G02*
X239500000Y-184487500I0J-137500D01*
G01*
X239500000Y-185837500D01*
G75*
G02*
X239362500Y-185975000I-137500J0D01*
G01*
X239087500Y-185975000D01*
G75*
G02*
X238950000Y-185837500I0J137500D01*
G01*
X238950000Y-184487500D01*
G75*
G02*
X239087500Y-184350000I137500J0D01*
G01*
G37*
G36*
G01*
X238437500Y-184350000D02*
X238712500Y-184350000D01*
G75*
G02*
X238850000Y-184487500I0J-137500D01*
G01*
X238850000Y-185837500D01*
G75*
G02*
X238712500Y-185975000I-137500J0D01*
G01*
X238437500Y-185975000D01*
G75*
G02*
X238300000Y-185837500I0J137500D01*
G01*
X238300000Y-184487500D01*
G75*
G02*
X238437500Y-184350000I137500J0D01*
G01*
G37*
G36*
G01*
X237787500Y-184350000D02*
X238062500Y-184350000D01*
G75*
G02*
X238200000Y-184487500I0J-137500D01*
G01*
X238200000Y-185837500D01*
G75*
G02*
X238062500Y-185975000I-137500J0D01*
G01*
X237787500Y-185975000D01*
G75*
G02*
X237650000Y-185837500I0J137500D01*
G01*
X237650000Y-184487500D01*
G75*
G02*
X237787500Y-184350000I137500J0D01*
G01*
G37*
G36*
G01*
X237137500Y-184350000D02*
X237412500Y-184350000D01*
G75*
G02*
X237550000Y-184487500I0J-137500D01*
G01*
X237550000Y-185837500D01*
G75*
G02*
X237412500Y-185975000I-137500J0D01*
G01*
X237137500Y-185975000D01*
G75*
G02*
X237000000Y-185837500I0J137500D01*
G01*
X237000000Y-184487500D01*
G75*
G02*
X237137500Y-184350000I137500J0D01*
G01*
G37*
G36*
G01*
X237137500Y-178625000D02*
X237412500Y-178625000D01*
G75*
G02*
X237550000Y-178762500I0J-137500D01*
G01*
X237550000Y-180112500D01*
G75*
G02*
X237412500Y-180250000I-137500J0D01*
G01*
X237137500Y-180250000D01*
G75*
G02*
X237000000Y-180112500I0J137500D01*
G01*
X237000000Y-178762500D01*
G75*
G02*
X237137500Y-178625000I137500J0D01*
G01*
G37*
G36*
G01*
X237787500Y-178625000D02*
X238062500Y-178625000D01*
G75*
G02*
X238200000Y-178762500I0J-137500D01*
G01*
X238200000Y-180112500D01*
G75*
G02*
X238062500Y-180250000I-137500J0D01*
G01*
X237787500Y-180250000D01*
G75*
G02*
X237650000Y-180112500I0J137500D01*
G01*
X237650000Y-178762500D01*
G75*
G02*
X237787500Y-178625000I137500J0D01*
G01*
G37*
G36*
G01*
X238437500Y-178625000D02*
X238712500Y-178625000D01*
G75*
G02*
X238850000Y-178762500I0J-137500D01*
G01*
X238850000Y-180112500D01*
G75*
G02*
X238712500Y-180250000I-137500J0D01*
G01*
X238437500Y-180250000D01*
G75*
G02*
X238300000Y-180112500I0J137500D01*
G01*
X238300000Y-178762500D01*
G75*
G02*
X238437500Y-178625000I137500J0D01*
G01*
G37*
G36*
G01*
X239087500Y-178625000D02*
X239362500Y-178625000D01*
G75*
G02*
X239500000Y-178762500I0J-137500D01*
G01*
X239500000Y-180112500D01*
G75*
G02*
X239362500Y-180250000I-137500J0D01*
G01*
X239087500Y-180250000D01*
G75*
G02*
X238950000Y-180112500I0J137500D01*
G01*
X238950000Y-178762500D01*
G75*
G02*
X239087500Y-178625000I137500J0D01*
G01*
G37*
G36*
G01*
X239737500Y-178625000D02*
X240012500Y-178625000D01*
G75*
G02*
X240150000Y-178762500I0J-137500D01*
G01*
X240150000Y-180112500D01*
G75*
G02*
X240012500Y-180250000I-137500J0D01*
G01*
X239737500Y-180250000D01*
G75*
G02*
X239600000Y-180112500I0J137500D01*
G01*
X239600000Y-178762500D01*
G75*
G02*
X239737500Y-178625000I137500J0D01*
G01*
G37*
G36*
G01*
X240387500Y-178625000D02*
X240662500Y-178625000D01*
G75*
G02*
X240800000Y-178762500I0J-137500D01*
G01*
X240800000Y-180112500D01*
G75*
G02*
X240662500Y-180250000I-137500J0D01*
G01*
X240387500Y-180250000D01*
G75*
G02*
X240250000Y-180112500I0J137500D01*
G01*
X240250000Y-178762500D01*
G75*
G02*
X240387500Y-178625000I137500J0D01*
G01*
G37*
G36*
G01*
X241037500Y-178625000D02*
X241312500Y-178625000D01*
G75*
G02*
X241450000Y-178762500I0J-137500D01*
G01*
X241450000Y-180112500D01*
G75*
G02*
X241312500Y-180250000I-137500J0D01*
G01*
X241037500Y-180250000D01*
G75*
G02*
X240900000Y-180112500I0J137500D01*
G01*
X240900000Y-178762500D01*
G75*
G02*
X241037500Y-178625000I137500J0D01*
G01*
G37*
G36*
G01*
X241687500Y-178625000D02*
X241962500Y-178625000D01*
G75*
G02*
X242100000Y-178762500I0J-137500D01*
G01*
X242100000Y-180112500D01*
G75*
G02*
X241962500Y-180250000I-137500J0D01*
G01*
X241687500Y-180250000D01*
G75*
G02*
X241550000Y-180112500I0J137500D01*
G01*
X241550000Y-178762500D01*
G75*
G02*
X241687500Y-178625000I137500J0D01*
G01*
G37*
G36*
G01*
X242337500Y-178625000D02*
X242612500Y-178625000D01*
G75*
G02*
X242750000Y-178762500I0J-137500D01*
G01*
X242750000Y-180112500D01*
G75*
G02*
X242612500Y-180250000I-137500J0D01*
G01*
X242337500Y-180250000D01*
G75*
G02*
X242200000Y-180112500I0J137500D01*
G01*
X242200000Y-178762500D01*
G75*
G02*
X242337500Y-178625000I137500J0D01*
G01*
G37*
G36*
G01*
X242987500Y-178625000D02*
X243262500Y-178625000D01*
G75*
G02*
X243400000Y-178762500I0J-137500D01*
G01*
X243400000Y-180112500D01*
G75*
G02*
X243262500Y-180250000I-137500J0D01*
G01*
X242987500Y-180250000D01*
G75*
G02*
X242850000Y-180112500I0J137500D01*
G01*
X242850000Y-178762500D01*
G75*
G02*
X242987500Y-178625000I137500J0D01*
G01*
G37*
%TD*%
%TO.C,U4*%
G36*
G01*
X177187500Y-178325000D02*
X177462500Y-178325000D01*
G75*
G02*
X177600000Y-178462500I0J-137500D01*
G01*
X177600000Y-179812500D01*
G75*
G02*
X177462500Y-179950000I-137500J0D01*
G01*
X177187500Y-179950000D01*
G75*
G02*
X177050000Y-179812500I0J137500D01*
G01*
X177050000Y-178462500D01*
G75*
G02*
X177187500Y-178325000I137500J0D01*
G01*
G37*
G36*
G01*
X176537500Y-178325000D02*
X176812500Y-178325000D01*
G75*
G02*
X176950000Y-178462500I0J-137500D01*
G01*
X176950000Y-179812500D01*
G75*
G02*
X176812500Y-179950000I-137500J0D01*
G01*
X176537500Y-179950000D01*
G75*
G02*
X176400000Y-179812500I0J137500D01*
G01*
X176400000Y-178462500D01*
G75*
G02*
X176537500Y-178325000I137500J0D01*
G01*
G37*
G36*
G01*
X175887500Y-178325000D02*
X176162500Y-178325000D01*
G75*
G02*
X176300000Y-178462500I0J-137500D01*
G01*
X176300000Y-179812500D01*
G75*
G02*
X176162500Y-179950000I-137500J0D01*
G01*
X175887500Y-179950000D01*
G75*
G02*
X175750000Y-179812500I0J137500D01*
G01*
X175750000Y-178462500D01*
G75*
G02*
X175887500Y-178325000I137500J0D01*
G01*
G37*
G36*
G01*
X175237500Y-178325000D02*
X175512500Y-178325000D01*
G75*
G02*
X175650000Y-178462500I0J-137500D01*
G01*
X175650000Y-179812500D01*
G75*
G02*
X175512500Y-179950000I-137500J0D01*
G01*
X175237500Y-179950000D01*
G75*
G02*
X175100000Y-179812500I0J137500D01*
G01*
X175100000Y-178462500D01*
G75*
G02*
X175237500Y-178325000I137500J0D01*
G01*
G37*
G36*
G01*
X174587500Y-178325000D02*
X174862500Y-178325000D01*
G75*
G02*
X175000000Y-178462500I0J-137500D01*
G01*
X175000000Y-179812500D01*
G75*
G02*
X174862500Y-179950000I-137500J0D01*
G01*
X174587500Y-179950000D01*
G75*
G02*
X174450000Y-179812500I0J137500D01*
G01*
X174450000Y-178462500D01*
G75*
G02*
X174587500Y-178325000I137500J0D01*
G01*
G37*
G36*
G01*
X173937500Y-178325000D02*
X174212500Y-178325000D01*
G75*
G02*
X174350000Y-178462500I0J-137500D01*
G01*
X174350000Y-179812500D01*
G75*
G02*
X174212500Y-179950000I-137500J0D01*
G01*
X173937500Y-179950000D01*
G75*
G02*
X173800000Y-179812500I0J137500D01*
G01*
X173800000Y-178462500D01*
G75*
G02*
X173937500Y-178325000I137500J0D01*
G01*
G37*
G36*
G01*
X173287500Y-178325000D02*
X173562500Y-178325000D01*
G75*
G02*
X173700000Y-178462500I0J-137500D01*
G01*
X173700000Y-179812500D01*
G75*
G02*
X173562500Y-179950000I-137500J0D01*
G01*
X173287500Y-179950000D01*
G75*
G02*
X173150000Y-179812500I0J137500D01*
G01*
X173150000Y-178462500D01*
G75*
G02*
X173287500Y-178325000I137500J0D01*
G01*
G37*
G36*
G01*
X172637500Y-178325000D02*
X172912500Y-178325000D01*
G75*
G02*
X173050000Y-178462500I0J-137500D01*
G01*
X173050000Y-179812500D01*
G75*
G02*
X172912500Y-179950000I-137500J0D01*
G01*
X172637500Y-179950000D01*
G75*
G02*
X172500000Y-179812500I0J137500D01*
G01*
X172500000Y-178462500D01*
G75*
G02*
X172637500Y-178325000I137500J0D01*
G01*
G37*
G36*
G01*
X171987500Y-178325000D02*
X172262500Y-178325000D01*
G75*
G02*
X172400000Y-178462500I0J-137500D01*
G01*
X172400000Y-179812500D01*
G75*
G02*
X172262500Y-179950000I-137500J0D01*
G01*
X171987500Y-179950000D01*
G75*
G02*
X171850000Y-179812500I0J137500D01*
G01*
X171850000Y-178462500D01*
G75*
G02*
X171987500Y-178325000I137500J0D01*
G01*
G37*
G36*
G01*
X171337500Y-178325000D02*
X171612500Y-178325000D01*
G75*
G02*
X171750000Y-178462500I0J-137500D01*
G01*
X171750000Y-179812500D01*
G75*
G02*
X171612500Y-179950000I-137500J0D01*
G01*
X171337500Y-179950000D01*
G75*
G02*
X171200000Y-179812500I0J137500D01*
G01*
X171200000Y-178462500D01*
G75*
G02*
X171337500Y-178325000I137500J0D01*
G01*
G37*
G36*
G01*
X171337500Y-184050000D02*
X171612500Y-184050000D01*
G75*
G02*
X171750000Y-184187500I0J-137500D01*
G01*
X171750000Y-185537500D01*
G75*
G02*
X171612500Y-185675000I-137500J0D01*
G01*
X171337500Y-185675000D01*
G75*
G02*
X171200000Y-185537500I0J137500D01*
G01*
X171200000Y-184187500D01*
G75*
G02*
X171337500Y-184050000I137500J0D01*
G01*
G37*
G36*
G01*
X171987500Y-184050000D02*
X172262500Y-184050000D01*
G75*
G02*
X172400000Y-184187500I0J-137500D01*
G01*
X172400000Y-185537500D01*
G75*
G02*
X172262500Y-185675000I-137500J0D01*
G01*
X171987500Y-185675000D01*
G75*
G02*
X171850000Y-185537500I0J137500D01*
G01*
X171850000Y-184187500D01*
G75*
G02*
X171987500Y-184050000I137500J0D01*
G01*
G37*
G36*
G01*
X172637500Y-184050000D02*
X172912500Y-184050000D01*
G75*
G02*
X173050000Y-184187500I0J-137500D01*
G01*
X173050000Y-185537500D01*
G75*
G02*
X172912500Y-185675000I-137500J0D01*
G01*
X172637500Y-185675000D01*
G75*
G02*
X172500000Y-185537500I0J137500D01*
G01*
X172500000Y-184187500D01*
G75*
G02*
X172637500Y-184050000I137500J0D01*
G01*
G37*
G36*
G01*
X173287500Y-184050000D02*
X173562500Y-184050000D01*
G75*
G02*
X173700000Y-184187500I0J-137500D01*
G01*
X173700000Y-185537500D01*
G75*
G02*
X173562500Y-185675000I-137500J0D01*
G01*
X173287500Y-185675000D01*
G75*
G02*
X173150000Y-185537500I0J137500D01*
G01*
X173150000Y-184187500D01*
G75*
G02*
X173287500Y-184050000I137500J0D01*
G01*
G37*
G36*
G01*
X173937500Y-184050000D02*
X174212500Y-184050000D01*
G75*
G02*
X174350000Y-184187500I0J-137500D01*
G01*
X174350000Y-185537500D01*
G75*
G02*
X174212500Y-185675000I-137500J0D01*
G01*
X173937500Y-185675000D01*
G75*
G02*
X173800000Y-185537500I0J137500D01*
G01*
X173800000Y-184187500D01*
G75*
G02*
X173937500Y-184050000I137500J0D01*
G01*
G37*
G36*
G01*
X174587500Y-184050000D02*
X174862500Y-184050000D01*
G75*
G02*
X175000000Y-184187500I0J-137500D01*
G01*
X175000000Y-185537500D01*
G75*
G02*
X174862500Y-185675000I-137500J0D01*
G01*
X174587500Y-185675000D01*
G75*
G02*
X174450000Y-185537500I0J137500D01*
G01*
X174450000Y-184187500D01*
G75*
G02*
X174587500Y-184050000I137500J0D01*
G01*
G37*
G36*
G01*
X175237500Y-184050000D02*
X175512500Y-184050000D01*
G75*
G02*
X175650000Y-184187500I0J-137500D01*
G01*
X175650000Y-185537500D01*
G75*
G02*
X175512500Y-185675000I-137500J0D01*
G01*
X175237500Y-185675000D01*
G75*
G02*
X175100000Y-185537500I0J137500D01*
G01*
X175100000Y-184187500D01*
G75*
G02*
X175237500Y-184050000I137500J0D01*
G01*
G37*
G36*
G01*
X175887500Y-184050000D02*
X176162500Y-184050000D01*
G75*
G02*
X176300000Y-184187500I0J-137500D01*
G01*
X176300000Y-185537500D01*
G75*
G02*
X176162500Y-185675000I-137500J0D01*
G01*
X175887500Y-185675000D01*
G75*
G02*
X175750000Y-185537500I0J137500D01*
G01*
X175750000Y-184187500D01*
G75*
G02*
X175887500Y-184050000I137500J0D01*
G01*
G37*
G36*
G01*
X176537500Y-184050000D02*
X176812500Y-184050000D01*
G75*
G02*
X176950000Y-184187500I0J-137500D01*
G01*
X176950000Y-185537500D01*
G75*
G02*
X176812500Y-185675000I-137500J0D01*
G01*
X176537500Y-185675000D01*
G75*
G02*
X176400000Y-185537500I0J137500D01*
G01*
X176400000Y-184187500D01*
G75*
G02*
X176537500Y-184050000I137500J0D01*
G01*
G37*
G36*
G01*
X177187500Y-184050000D02*
X177462500Y-184050000D01*
G75*
G02*
X177600000Y-184187500I0J-137500D01*
G01*
X177600000Y-185537500D01*
G75*
G02*
X177462500Y-185675000I-137500J0D01*
G01*
X177187500Y-185675000D01*
G75*
G02*
X177050000Y-185537500I0J137500D01*
G01*
X177050000Y-184187500D01*
G75*
G02*
X177187500Y-184050000I137500J0D01*
G01*
G37*
%TD*%
%TO.C,~mHALT1*%
X183375000Y-169275000D03*
%TD*%
%TO.C,~mRSVD1*%
X225850000Y-165500000D03*
%TD*%
%TO.C,~mS4*%
X239900000Y-165550000D03*
%TD*%
%TO.C,~mS5*%
X219975000Y-165325000D03*
%TD*%
%TO.C,X1*%
G36*
G01*
X222623000Y-91375000D02*
X222623000Y-90475000D01*
G75*
G02*
X222725000Y-90373000I102000J0D01*
G01*
X223825000Y-90373000D01*
G75*
G02*
X223927000Y-90475000I0J-102000D01*
G01*
X223927000Y-91375000D01*
G75*
G02*
X223825000Y-91477000I-102000J0D01*
G01*
X222725000Y-91477000D01*
G75*
G02*
X222623000Y-91375000I0J102000D01*
G01*
G37*
G36*
G01*
X224423000Y-91375000D02*
X224423000Y-90475000D01*
G75*
G02*
X224525000Y-90373000I102000J0D01*
G01*
X225625000Y-90373000D01*
G75*
G02*
X225727000Y-90475000I0J-102000D01*
G01*
X225727000Y-91375000D01*
G75*
G02*
X225625000Y-91477000I-102000J0D01*
G01*
X224525000Y-91477000D01*
G75*
G02*
X224423000Y-91375000I0J102000D01*
G01*
G37*
G36*
G01*
X224423000Y-92775000D02*
X224423000Y-91875000D01*
G75*
G02*
X224525000Y-91773000I102000J0D01*
G01*
X225625000Y-91773000D01*
G75*
G02*
X225727000Y-91875000I0J-102000D01*
G01*
X225727000Y-92775000D01*
G75*
G02*
X225625000Y-92877000I-102000J0D01*
G01*
X224525000Y-92877000D01*
G75*
G02*
X224423000Y-92775000I0J102000D01*
G01*
G37*
G36*
G01*
X222623000Y-92775000D02*
X222623000Y-91875000D01*
G75*
G02*
X222725000Y-91773000I102000J0D01*
G01*
X223825000Y-91773000D01*
G75*
G02*
X223927000Y-91875000I0J-102000D01*
G01*
X223927000Y-92775000D01*
G75*
G02*
X223825000Y-92877000I-102000J0D01*
G01*
X222725000Y-92877000D01*
G75*
G02*
X222623000Y-92775000I0J102000D01*
G01*
G37*
%TD*%
D16*
%TO.C,FID3*%
X139000000Y-127000000D03*
%TD*%
%TO.C,FID4*%
X253000000Y-185000000D03*
%TD*%
%TO.C,U18*%
G36*
G01*
X153005000Y-55225000D02*
X153005000Y-55875000D01*
G75*
G02*
X152930000Y-55950000I-75000J0D01*
G01*
X151870000Y-55950000D01*
G75*
G02*
X151795000Y-55875000I0J75000D01*
G01*
X151795000Y-55225000D01*
G75*
G02*
X151870000Y-55150000I75000J0D01*
G01*
X152930000Y-55150000D01*
G75*
G02*
X153005000Y-55225000I0J-75000D01*
G01*
G37*
G36*
G01*
X153005000Y-54275000D02*
X153005000Y-54925000D01*
G75*
G02*
X152930000Y-55000000I-75000J0D01*
G01*
X151870000Y-55000000D01*
G75*
G02*
X151795000Y-54925000I0J75000D01*
G01*
X151795000Y-54275000D01*
G75*
G02*
X151870000Y-54200000I75000J0D01*
G01*
X152930000Y-54200000D01*
G75*
G02*
X153005000Y-54275000I0J-75000D01*
G01*
G37*
G36*
G01*
X153005000Y-53325000D02*
X153005000Y-53975000D01*
G75*
G02*
X152930000Y-54050000I-75000J0D01*
G01*
X151870000Y-54050000D01*
G75*
G02*
X151795000Y-53975000I0J75000D01*
G01*
X151795000Y-53325000D01*
G75*
G02*
X151870000Y-53250000I75000J0D01*
G01*
X152930000Y-53250000D01*
G75*
G02*
X153005000Y-53325000I0J-75000D01*
G01*
G37*
G36*
G01*
X150805000Y-53325000D02*
X150805000Y-53975000D01*
G75*
G02*
X150730000Y-54050000I-75000J0D01*
G01*
X149670000Y-54050000D01*
G75*
G02*
X149595000Y-53975000I0J75000D01*
G01*
X149595000Y-53325000D01*
G75*
G02*
X149670000Y-53250000I75000J0D01*
G01*
X150730000Y-53250000D01*
G75*
G02*
X150805000Y-53325000I0J-75000D01*
G01*
G37*
G36*
G01*
X150805000Y-55225000D02*
X150805000Y-55875000D01*
G75*
G02*
X150730000Y-55950000I-75000J0D01*
G01*
X149670000Y-55950000D01*
G75*
G02*
X149595000Y-55875000I0J75000D01*
G01*
X149595000Y-55225000D01*
G75*
G02*
X149670000Y-55150000I75000J0D01*
G01*
X150730000Y-55150000D01*
G75*
G02*
X150805000Y-55225000I0J-75000D01*
G01*
G37*
%TD*%
%TO.C,C39*%
G36*
G01*
X177796702Y-72600000D02*
X176403298Y-72600000D01*
G75*
G02*
X176125000Y-72321702I0J278298D01*
G01*
X176125000Y-71403298D01*
G75*
G02*
X176403298Y-71125000I278298J0D01*
G01*
X177796702Y-71125000D01*
G75*
G02*
X178075000Y-71403298I0J-278298D01*
G01*
X178075000Y-72321702D01*
G75*
G02*
X177796702Y-72600000I-278298J0D01*
G01*
G37*
G36*
G01*
X177796702Y-69475000D02*
X176403298Y-69475000D01*
G75*
G02*
X176125000Y-69196702I0J278298D01*
G01*
X176125000Y-68278298D01*
G75*
G02*
X176403298Y-68000000I278298J0D01*
G01*
X177796702Y-68000000D01*
G75*
G02*
X178075000Y-68278298I0J-278298D01*
G01*
X178075000Y-69196702D01*
G75*
G02*
X177796702Y-69475000I-278298J0D01*
G01*
G37*
%TD*%
D17*
%TO.C,J5*%
X141300000Y-57400000D03*
D18*
X141300000Y-52900000D03*
G36*
G01*
X134399999Y-57498000D02*
X136800001Y-57498000D01*
G75*
G02*
X136902000Y-57599999I0J-101999D01*
G01*
X136902000Y-60400001D01*
G75*
G02*
X136800001Y-60502000I-101999J0D01*
G01*
X134399999Y-60502000D01*
G75*
G02*
X134298000Y-60400001I0J101999D01*
G01*
X134298000Y-57599999D01*
G75*
G02*
X134399999Y-57498000I101999J0D01*
G01*
G37*
G36*
G01*
X134399999Y-51398000D02*
X136800001Y-51398000D01*
G75*
G02*
X136902000Y-51499999I0J-101999D01*
G01*
X136902000Y-54300001D01*
G75*
G02*
X136800001Y-54402000I-101999J0D01*
G01*
X134399999Y-54402000D01*
G75*
G02*
X134298000Y-54300001I0J101999D01*
G01*
X134298000Y-51499999D01*
G75*
G02*
X134399999Y-51398000I101999J0D01*
G01*
G37*
G36*
G01*
X145799999Y-51398000D02*
X148200001Y-51398000D01*
G75*
G02*
X148302000Y-51499999I0J-101999D01*
G01*
X148302000Y-54300001D01*
G75*
G02*
X148200001Y-54402000I-101999J0D01*
G01*
X145799999Y-54402000D01*
G75*
G02*
X145698000Y-54300001I0J101999D01*
G01*
X145698000Y-51499999D01*
G75*
G02*
X145799999Y-51398000I101999J0D01*
G01*
G37*
G36*
G01*
X145799999Y-57498000D02*
X148200001Y-57498000D01*
G75*
G02*
X148302000Y-57599999I0J-101999D01*
G01*
X148302000Y-60400001D01*
G75*
G02*
X148200001Y-60502000I-101999J0D01*
G01*
X145799999Y-60502000D01*
G75*
G02*
X145698000Y-60400001I0J101999D01*
G01*
X145698000Y-57599999D01*
G75*
G02*
X145799999Y-57498000I101999J0D01*
G01*
G37*
%TD*%
%TO.C,L1*%
G36*
G01*
X229025000Y-119192393D02*
X229025000Y-118207607D01*
G75*
G02*
X229307607Y-117925000I282607J0D01*
G01*
X230042393Y-117925000D01*
G75*
G02*
X230325000Y-118207607I0J-282607D01*
G01*
X230325000Y-119192393D01*
G75*
G02*
X230042393Y-119475000I-282607J0D01*
G01*
X229307607Y-119475000D01*
G75*
G02*
X229025000Y-119192393I0J282607D01*
G01*
G37*
G36*
G01*
X231075000Y-119192393D02*
X231075000Y-118207607D01*
G75*
G02*
X231357607Y-117925000I282607J0D01*
G01*
X232092393Y-117925000D01*
G75*
G02*
X232375000Y-118207607I0J-282607D01*
G01*
X232375000Y-119192393D01*
G75*
G02*
X232092393Y-119475000I-282607J0D01*
G01*
X231357607Y-119475000D01*
G75*
G02*
X231075000Y-119192393I0J282607D01*
G01*
G37*
%TD*%
%TO.C,LD2*%
G36*
G01*
X185675000Y-52407607D02*
X185675000Y-53392393D01*
G75*
G02*
X185392393Y-53675000I-282607J0D01*
G01*
X184657607Y-53675000D01*
G75*
G02*
X184375000Y-53392393I0J282607D01*
G01*
X184375000Y-52407607D01*
G75*
G02*
X184657607Y-52125000I282607J0D01*
G01*
X185392393Y-52125000D01*
G75*
G02*
X185675000Y-52407607I0J-282607D01*
G01*
G37*
G36*
G01*
X183625000Y-52407607D02*
X183625000Y-53392393D01*
G75*
G02*
X183342393Y-53675000I-282607J0D01*
G01*
X182607607Y-53675000D01*
G75*
G02*
X182325000Y-53392393I0J282607D01*
G01*
X182325000Y-52407607D01*
G75*
G02*
X182607607Y-52125000I282607J0D01*
G01*
X183342393Y-52125000D01*
G75*
G02*
X183625000Y-52407607I0J-282607D01*
G01*
G37*
%TD*%
%TO.C,LD4*%
G36*
G01*
X151507607Y-79975000D02*
X152492393Y-79975000D01*
G75*
G02*
X152775000Y-80257607I0J-282607D01*
G01*
X152775000Y-80992393D01*
G75*
G02*
X152492393Y-81275000I-282607J0D01*
G01*
X151507607Y-81275000D01*
G75*
G02*
X151225000Y-80992393I0J282607D01*
G01*
X151225000Y-80257607D01*
G75*
G02*
X151507607Y-79975000I282607J0D01*
G01*
G37*
G36*
G01*
X151507607Y-77925000D02*
X152492393Y-77925000D01*
G75*
G02*
X152775000Y-78207607I0J-282607D01*
G01*
X152775000Y-78942393D01*
G75*
G02*
X152492393Y-79225000I-282607J0D01*
G01*
X151507607Y-79225000D01*
G75*
G02*
X151225000Y-78942393I0J282607D01*
G01*
X151225000Y-78207607D01*
G75*
G02*
X151507607Y-77925000I282607J0D01*
G01*
G37*
%TD*%
%TO.C,Y1*%
G36*
G01*
X169650000Y-71465000D02*
X170650000Y-71465000D01*
G75*
G02*
X170725000Y-71540000I0J-75000D01*
G01*
X170725000Y-72840000D01*
G75*
G02*
X170650000Y-72915000I-75000J0D01*
G01*
X169650000Y-72915000D01*
G75*
G02*
X169575000Y-72840000I0J75000D01*
G01*
X169575000Y-71540000D01*
G75*
G02*
X169650000Y-71465000I75000J0D01*
G01*
G37*
G36*
G01*
X169650000Y-73665000D02*
X170650000Y-73665000D01*
G75*
G02*
X170725000Y-73740000I0J-75000D01*
G01*
X170725000Y-75040000D01*
G75*
G02*
X170650000Y-75115000I-75000J0D01*
G01*
X169650000Y-75115000D01*
G75*
G02*
X169575000Y-75040000I0J75000D01*
G01*
X169575000Y-73740000D01*
G75*
G02*
X169650000Y-73665000I75000J0D01*
G01*
G37*
G36*
G01*
X171450000Y-73665000D02*
X172450000Y-73665000D01*
G75*
G02*
X172525000Y-73740000I0J-75000D01*
G01*
X172525000Y-75040000D01*
G75*
G02*
X172450000Y-75115000I-75000J0D01*
G01*
X171450000Y-75115000D01*
G75*
G02*
X171375000Y-75040000I0J75000D01*
G01*
X171375000Y-73740000D01*
G75*
G02*
X171450000Y-73665000I75000J0D01*
G01*
G37*
G36*
G01*
X171450000Y-71465000D02*
X172450000Y-71465000D01*
G75*
G02*
X172525000Y-71540000I0J-75000D01*
G01*
X172525000Y-72840000D01*
G75*
G02*
X172450000Y-72915000I-75000J0D01*
G01*
X171450000Y-72915000D01*
G75*
G02*
X171375000Y-72840000I0J75000D01*
G01*
X171375000Y-71540000D01*
G75*
G02*
X171450000Y-71465000I75000J0D01*
G01*
G37*
%TD*%
D19*
%TO.C,J2*%
X193905000Y-58600000D03*
X218895000Y-58600000D03*
D20*
X211230000Y-56060000D03*
X208940000Y-56060000D03*
X206650000Y-56060000D03*
X204360000Y-56060000D03*
X202070000Y-56060000D03*
X210085000Y-58600000D03*
X207795000Y-58600000D03*
X205505000Y-58600000D03*
X203215000Y-58600000D03*
X200925000Y-58600000D03*
X211230000Y-61140000D03*
X208940000Y-61140000D03*
X206650000Y-61140000D03*
X204360000Y-61140000D03*
G36*
G01*
X202997000Y-60315000D02*
X202997000Y-61965000D01*
G75*
G02*
X202895000Y-62067000I-102000J0D01*
G01*
X201245000Y-62067000D01*
G75*
G02*
X201143000Y-61965000I0J102000D01*
G01*
X201143000Y-60315000D01*
G75*
G02*
X201245000Y-60213000I102000J0D01*
G01*
X202895000Y-60213000D01*
G75*
G02*
X202997000Y-60315000I0J-102000D01*
G01*
G37*
%TD*%
%TO.C,J1*%
G36*
G01*
X242510000Y-73855000D02*
X241510000Y-73855000D01*
G75*
G02*
X241435000Y-73780000I0J75000D01*
G01*
X241435000Y-70780000D01*
G75*
G02*
X241510000Y-70705000I75000J0D01*
G01*
X242510000Y-70705000D01*
G75*
G02*
X242585000Y-70780000I0J-75000D01*
G01*
X242585000Y-73780000D01*
G75*
G02*
X242510000Y-73855000I-75000J0D01*
G01*
G37*
G36*
G01*
X242510000Y-78895000D02*
X241510000Y-78895000D01*
G75*
G02*
X241435000Y-78820000I0J75000D01*
G01*
X241435000Y-75820000D01*
G75*
G02*
X241510000Y-75745000I75000J0D01*
G01*
X242510000Y-75745000D01*
G75*
G02*
X242585000Y-75820000I0J-75000D01*
G01*
X242585000Y-78820000D01*
G75*
G02*
X242510000Y-78895000I-75000J0D01*
G01*
G37*
G36*
G01*
X245050000Y-73855000D02*
X244050000Y-73855000D01*
G75*
G02*
X243975000Y-73780000I0J75000D01*
G01*
X243975000Y-70780000D01*
G75*
G02*
X244050000Y-70705000I75000J0D01*
G01*
X245050000Y-70705000D01*
G75*
G02*
X245125000Y-70780000I0J-75000D01*
G01*
X245125000Y-73780000D01*
G75*
G02*
X245050000Y-73855000I-75000J0D01*
G01*
G37*
G36*
G01*
X245050000Y-78895000D02*
X244050000Y-78895000D01*
G75*
G02*
X243975000Y-78820000I0J75000D01*
G01*
X243975000Y-75820000D01*
G75*
G02*
X244050000Y-75745000I75000J0D01*
G01*
X245050000Y-75745000D01*
G75*
G02*
X245125000Y-75820000I0J-75000D01*
G01*
X245125000Y-78820000D01*
G75*
G02*
X245050000Y-78895000I-75000J0D01*
G01*
G37*
G36*
G01*
X247590000Y-73855000D02*
X246590000Y-73855000D01*
G75*
G02*
X246515000Y-73780000I0J75000D01*
G01*
X246515000Y-70780000D01*
G75*
G02*
X246590000Y-70705000I75000J0D01*
G01*
X247590000Y-70705000D01*
G75*
G02*
X247665000Y-70780000I0J-75000D01*
G01*
X247665000Y-73780000D01*
G75*
G02*
X247590000Y-73855000I-75000J0D01*
G01*
G37*
G36*
G01*
X247590000Y-78895000D02*
X246590000Y-78895000D01*
G75*
G02*
X246515000Y-78820000I0J75000D01*
G01*
X246515000Y-75820000D01*
G75*
G02*
X246590000Y-75745000I75000J0D01*
G01*
X247590000Y-75745000D01*
G75*
G02*
X247665000Y-75820000I0J-75000D01*
G01*
X247665000Y-78820000D01*
G75*
G02*
X247590000Y-78895000I-75000J0D01*
G01*
G37*
G36*
G01*
X250130000Y-73855000D02*
X249130000Y-73855000D01*
G75*
G02*
X249055000Y-73780000I0J75000D01*
G01*
X249055000Y-70780000D01*
G75*
G02*
X249130000Y-70705000I75000J0D01*
G01*
X250130000Y-70705000D01*
G75*
G02*
X250205000Y-70780000I0J-75000D01*
G01*
X250205000Y-73780000D01*
G75*
G02*
X250130000Y-73855000I-75000J0D01*
G01*
G37*
G36*
G01*
X250130000Y-78895000D02*
X249130000Y-78895000D01*
G75*
G02*
X249055000Y-78820000I0J75000D01*
G01*
X249055000Y-75820000D01*
G75*
G02*
X249130000Y-75745000I75000J0D01*
G01*
X250130000Y-75745000D01*
G75*
G02*
X250205000Y-75820000I0J-75000D01*
G01*
X250205000Y-78820000D01*
G75*
G02*
X250130000Y-78895000I-75000J0D01*
G01*
G37*
G36*
G01*
X252670000Y-73855000D02*
X251670000Y-73855000D01*
G75*
G02*
X251595000Y-73780000I0J75000D01*
G01*
X251595000Y-70780000D01*
G75*
G02*
X251670000Y-70705000I75000J0D01*
G01*
X252670000Y-70705000D01*
G75*
G02*
X252745000Y-70780000I0J-75000D01*
G01*
X252745000Y-73780000D01*
G75*
G02*
X252670000Y-73855000I-75000J0D01*
G01*
G37*
G36*
G01*
X252670000Y-78895000D02*
X251670000Y-78895000D01*
G75*
G02*
X251595000Y-78820000I0J75000D01*
G01*
X251595000Y-75820000D01*
G75*
G02*
X251670000Y-75745000I75000J0D01*
G01*
X252670000Y-75745000D01*
G75*
G02*
X252745000Y-75820000I0J-75000D01*
G01*
X252745000Y-78820000D01*
G75*
G02*
X252670000Y-78895000I-75000J0D01*
G01*
G37*
G36*
G01*
X255210000Y-73855000D02*
X254210000Y-73855000D01*
G75*
G02*
X254135000Y-73780000I0J75000D01*
G01*
X254135000Y-70780000D01*
G75*
G02*
X254210000Y-70705000I75000J0D01*
G01*
X255210000Y-70705000D01*
G75*
G02*
X255285000Y-70780000I0J-75000D01*
G01*
X255285000Y-73780000D01*
G75*
G02*
X255210000Y-73855000I-75000J0D01*
G01*
G37*
G36*
G01*
X255210000Y-78895000D02*
X254210000Y-78895000D01*
G75*
G02*
X254135000Y-78820000I0J75000D01*
G01*
X254135000Y-75820000D01*
G75*
G02*
X254210000Y-75745000I75000J0D01*
G01*
X255210000Y-75745000D01*
G75*
G02*
X255285000Y-75820000I0J-75000D01*
G01*
X255285000Y-78820000D01*
G75*
G02*
X255210000Y-78895000I-75000J0D01*
G01*
G37*
G36*
G01*
X257750000Y-73855000D02*
X256750000Y-73855000D01*
G75*
G02*
X256675000Y-73780000I0J75000D01*
G01*
X256675000Y-70780000D01*
G75*
G02*
X256750000Y-70705000I75000J0D01*
G01*
X257750000Y-70705000D01*
G75*
G02*
X257825000Y-70780000I0J-75000D01*
G01*
X257825000Y-73780000D01*
G75*
G02*
X257750000Y-73855000I-75000J0D01*
G01*
G37*
G36*
G01*
X257750000Y-78895000D02*
X256750000Y-78895000D01*
G75*
G02*
X256675000Y-78820000I0J75000D01*
G01*
X256675000Y-75820000D01*
G75*
G02*
X256750000Y-75745000I75000J0D01*
G01*
X257750000Y-75745000D01*
G75*
G02*
X257825000Y-75820000I0J-75000D01*
G01*
X257825000Y-78820000D01*
G75*
G02*
X257750000Y-78895000I-75000J0D01*
G01*
G37*
G36*
G01*
X260290000Y-73855000D02*
X259290000Y-73855000D01*
G75*
G02*
X259215000Y-73780000I0J75000D01*
G01*
X259215000Y-70780000D01*
G75*
G02*
X259290000Y-70705000I75000J0D01*
G01*
X260290000Y-70705000D01*
G75*
G02*
X260365000Y-70780000I0J-75000D01*
G01*
X260365000Y-73780000D01*
G75*
G02*
X260290000Y-73855000I-75000J0D01*
G01*
G37*
G36*
G01*
X260290000Y-78895000D02*
X259290000Y-78895000D01*
G75*
G02*
X259215000Y-78820000I0J75000D01*
G01*
X259215000Y-75820000D01*
G75*
G02*
X259290000Y-75745000I75000J0D01*
G01*
X260290000Y-75745000D01*
G75*
G02*
X260365000Y-75820000I0J-75000D01*
G01*
X260365000Y-78820000D01*
G75*
G02*
X260290000Y-78895000I-75000J0D01*
G01*
G37*
%TD*%
%TO.C,R63*%
G36*
G01*
X184855000Y-57671155D02*
X184855000Y-56328845D01*
G75*
G02*
X185133845Y-56050000I278845J0D01*
G01*
X186026155Y-56050000D01*
G75*
G02*
X186305000Y-56328845I0J-278845D01*
G01*
X186305000Y-57671155D01*
G75*
G02*
X186026155Y-57950000I-278845J0D01*
G01*
X185133845Y-57950000D01*
G75*
G02*
X184855000Y-57671155I0J278845D01*
G01*
G37*
G36*
G01*
X181755000Y-57671155D02*
X181755000Y-56328845D01*
G75*
G02*
X182033845Y-56050000I278845J0D01*
G01*
X182926155Y-56050000D01*
G75*
G02*
X183205000Y-56328845I0J-278845D01*
G01*
X183205000Y-57671155D01*
G75*
G02*
X182926155Y-57950000I-278845J0D01*
G01*
X182033845Y-57950000D01*
G75*
G02*
X181755000Y-57671155I0J278845D01*
G01*
G37*
%TD*%
%TO.C,U14*%
G36*
G01*
X152735000Y-91380000D02*
X152735000Y-87580000D01*
G75*
G02*
X152810000Y-87505000I75000J0D01*
G01*
X154810000Y-87505000D01*
G75*
G02*
X154885000Y-87580000I0J-75000D01*
G01*
X154885000Y-91380000D01*
G75*
G02*
X154810000Y-91455000I-75000J0D01*
G01*
X152810000Y-91455000D01*
G75*
G02*
X152735000Y-91380000I0J75000D01*
G01*
G37*
G36*
G01*
X146435000Y-90230000D02*
X146435000Y-88730000D01*
G75*
G02*
X146510000Y-88655000I75000J0D01*
G01*
X148510000Y-88655000D01*
G75*
G02*
X148585000Y-88730000I0J-75000D01*
G01*
X148585000Y-90230000D01*
G75*
G02*
X148510000Y-90305000I-75000J0D01*
G01*
X146510000Y-90305000D01*
G75*
G02*
X146435000Y-90230000I0J75000D01*
G01*
G37*
G36*
G01*
X146435000Y-92530000D02*
X146435000Y-91030000D01*
G75*
G02*
X146510000Y-90955000I75000J0D01*
G01*
X148510000Y-90955000D01*
G75*
G02*
X148585000Y-91030000I0J-75000D01*
G01*
X148585000Y-92530000D01*
G75*
G02*
X148510000Y-92605000I-75000J0D01*
G01*
X146510000Y-92605000D01*
G75*
G02*
X146435000Y-92530000I0J75000D01*
G01*
G37*
G36*
G01*
X146435000Y-87930000D02*
X146435000Y-86430000D01*
G75*
G02*
X146510000Y-86355000I75000J0D01*
G01*
X148510000Y-86355000D01*
G75*
G02*
X148585000Y-86430000I0J-75000D01*
G01*
X148585000Y-87930000D01*
G75*
G02*
X148510000Y-88005000I-75000J0D01*
G01*
X146510000Y-88005000D01*
G75*
G02*
X146435000Y-87930000I0J75000D01*
G01*
G37*
%TD*%
D21*
%TO.C,J7*%
X267500000Y-58160000D03*
X267500000Y-51160000D03*
G36*
G01*
X269899999Y-50658000D02*
X272450001Y-50658000D01*
G75*
G02*
X272552000Y-50759999I0J-101999D01*
G01*
X272552000Y-53160001D01*
G75*
G02*
X272450001Y-53262000I-101999J0D01*
G01*
X269899999Y-53262000D01*
G75*
G02*
X269798000Y-53160001I0J101999D01*
G01*
X269798000Y-50759999D01*
G75*
G02*
X269899999Y-50658000I101999J0D01*
G01*
G37*
G36*
G01*
X262550000Y-57808000D02*
X265100000Y-57808000D01*
G75*
G02*
X265202000Y-57910000I0J-102000D01*
G01*
X265202000Y-60810000D01*
G75*
G02*
X265100000Y-60912000I-102000J0D01*
G01*
X262550000Y-60912000D01*
G75*
G02*
X262448000Y-60810000I0J102000D01*
G01*
X262448000Y-57910000D01*
G75*
G02*
X262550000Y-57808000I102000J0D01*
G01*
G37*
G36*
G01*
X262549999Y-48758000D02*
X265100001Y-48758000D01*
G75*
G02*
X265202000Y-48859999I0J-101999D01*
G01*
X265202000Y-51260001D01*
G75*
G02*
X265100001Y-51362000I-101999J0D01*
G01*
X262549999Y-51362000D01*
G75*
G02*
X262448000Y-51260001I0J101999D01*
G01*
X262448000Y-48859999D01*
G75*
G02*
X262549999Y-48758000I101999J0D01*
G01*
G37*
%TD*%
%TO.C,J6*%
G36*
G01*
X267435000Y-81600000D02*
X267435000Y-80600000D01*
G75*
G02*
X267510000Y-80525000I75000J0D01*
G01*
X269410000Y-80525000D01*
G75*
G02*
X269485000Y-80600000I0J-75000D01*
G01*
X269485000Y-81600000D01*
G75*
G02*
X269410000Y-81675000I-75000J0D01*
G01*
X267510000Y-81675000D01*
G75*
G02*
X267435000Y-81600000I0J75000D01*
G01*
G37*
G36*
G01*
X267435000Y-86680000D02*
X267435000Y-85680000D01*
G75*
G02*
X267510000Y-85605000I75000J0D01*
G01*
X269410000Y-85605000D01*
G75*
G02*
X269485000Y-85680000I0J-75000D01*
G01*
X269485000Y-86680000D01*
G75*
G02*
X269410000Y-86755000I-75000J0D01*
G01*
X267510000Y-86755000D01*
G75*
G02*
X267435000Y-86680000I0J75000D01*
G01*
G37*
G36*
G01*
X267435000Y-91760000D02*
X267435000Y-90760000D01*
G75*
G02*
X267510000Y-90685000I75000J0D01*
G01*
X269410000Y-90685000D01*
G75*
G02*
X269485000Y-90760000I0J-75000D01*
G01*
X269485000Y-91760000D01*
G75*
G02*
X269410000Y-91835000I-75000J0D01*
G01*
X267510000Y-91835000D01*
G75*
G02*
X267435000Y-91760000I0J75000D01*
G01*
G37*
G36*
G01*
X267435000Y-96840000D02*
X267435000Y-95840000D01*
G75*
G02*
X267510000Y-95765000I75000J0D01*
G01*
X269410000Y-95765000D01*
G75*
G02*
X269485000Y-95840000I0J-75000D01*
G01*
X269485000Y-96840000D01*
G75*
G02*
X269410000Y-96915000I-75000J0D01*
G01*
X267510000Y-96915000D01*
G75*
G02*
X267435000Y-96840000I0J75000D01*
G01*
G37*
G36*
G01*
X270735000Y-79060000D02*
X270735000Y-78060000D01*
G75*
G02*
X270810000Y-77985000I75000J0D01*
G01*
X272710000Y-77985000D01*
G75*
G02*
X272785000Y-78060000I0J-75000D01*
G01*
X272785000Y-79060000D01*
G75*
G02*
X272710000Y-79135000I-75000J0D01*
G01*
X270810000Y-79135000D01*
G75*
G02*
X270735000Y-79060000I0J75000D01*
G01*
G37*
G36*
G01*
X270735000Y-84140000D02*
X270735000Y-83140000D01*
G75*
G02*
X270810000Y-83065000I75000J0D01*
G01*
X272710000Y-83065000D01*
G75*
G02*
X272785000Y-83140000I0J-75000D01*
G01*
X272785000Y-84140000D01*
G75*
G02*
X272710000Y-84215000I-75000J0D01*
G01*
X270810000Y-84215000D01*
G75*
G02*
X270735000Y-84140000I0J75000D01*
G01*
G37*
G36*
G01*
X270735000Y-89220000D02*
X270735000Y-88220000D01*
G75*
G02*
X270810000Y-88145000I75000J0D01*
G01*
X272710000Y-88145000D01*
G75*
G02*
X272785000Y-88220000I0J-75000D01*
G01*
X272785000Y-89220000D01*
G75*
G02*
X272710000Y-89295000I-75000J0D01*
G01*
X270810000Y-89295000D01*
G75*
G02*
X270735000Y-89220000I0J75000D01*
G01*
G37*
G36*
G01*
X270735000Y-94300000D02*
X270735000Y-93300000D01*
G75*
G02*
X270810000Y-93225000I75000J0D01*
G01*
X272710000Y-93225000D01*
G75*
G02*
X272785000Y-93300000I0J-75000D01*
G01*
X272785000Y-94300000D01*
G75*
G02*
X272710000Y-94375000I-75000J0D01*
G01*
X270810000Y-94375000D01*
G75*
G02*
X270735000Y-94300000I0J75000D01*
G01*
G37*
%TD*%
%TO.C,R33*%
G36*
G01*
X263435000Y-84233752D02*
X263435000Y-83246248D01*
G75*
G02*
X263716248Y-82965000I281248J0D01*
G01*
X264503752Y-82965000D01*
G75*
G02*
X264785000Y-83246248I0J-281248D01*
G01*
X264785000Y-84233752D01*
G75*
G02*
X264503752Y-84515000I-281248J0D01*
G01*
X263716248Y-84515000D01*
G75*
G02*
X263435000Y-84233752I0J281248D01*
G01*
G37*
G36*
G01*
X265435000Y-84233752D02*
X265435000Y-83246248D01*
G75*
G02*
X265716248Y-82965000I281248J0D01*
G01*
X266503752Y-82965000D01*
G75*
G02*
X266785000Y-83246248I0J-281248D01*
G01*
X266785000Y-84233752D01*
G75*
G02*
X266503752Y-84515000I-281248J0D01*
G01*
X265716248Y-84515000D01*
G75*
G02*
X265435000Y-84233752I0J281248D01*
G01*
G37*
%TD*%
%TO.C,R34*%
G36*
G01*
X263635000Y-81903752D02*
X263635000Y-80916248D01*
G75*
G02*
X263916248Y-80635000I281248J0D01*
G01*
X264703752Y-80635000D01*
G75*
G02*
X264985000Y-80916248I0J-281248D01*
G01*
X264985000Y-81903752D01*
G75*
G02*
X264703752Y-82185000I-281248J0D01*
G01*
X263916248Y-82185000D01*
G75*
G02*
X263635000Y-81903752I0J281248D01*
G01*
G37*
G36*
G01*
X265635000Y-81903752D02*
X265635000Y-80916248D01*
G75*
G02*
X265916248Y-80635000I281248J0D01*
G01*
X266703752Y-80635000D01*
G75*
G02*
X266985000Y-80916248I0J-281248D01*
G01*
X266985000Y-81903752D01*
G75*
G02*
X266703752Y-82185000I-281248J0D01*
G01*
X265916248Y-82185000D01*
G75*
G02*
X265635000Y-81903752I0J281248D01*
G01*
G37*
%TD*%
%TO.C,R62*%
G36*
G01*
X265255000Y-94443752D02*
X265255000Y-93456248D01*
G75*
G02*
X265536248Y-93175000I281248J0D01*
G01*
X266323752Y-93175000D01*
G75*
G02*
X266605000Y-93456248I0J-281248D01*
G01*
X266605000Y-94443752D01*
G75*
G02*
X266323752Y-94725000I-281248J0D01*
G01*
X265536248Y-94725000D01*
G75*
G02*
X265255000Y-94443752I0J281248D01*
G01*
G37*
G36*
G01*
X263255000Y-94443752D02*
X263255000Y-93456248D01*
G75*
G02*
X263536248Y-93175000I281248J0D01*
G01*
X264323752Y-93175000D01*
G75*
G02*
X264605000Y-93456248I0J-281248D01*
G01*
X264605000Y-94443752D01*
G75*
G02*
X264323752Y-94725000I-281248J0D01*
G01*
X263536248Y-94725000D01*
G75*
G02*
X263255000Y-94443752I0J281248D01*
G01*
G37*
%TD*%
M02*
