%TF.GenerationSoftware,KiCad,Pcbnew,5.1.9+dfsg1-1+deb11u1*%
%TF.CreationDate,2025-10-22T16:24:07+02:00*%
%TF.ProjectId,VERA-MODULE-RBL,56455241-2d4d-44f4-9455-4c452d52424c,1.0*%
%TF.SameCoordinates,Original*%
%TF.FileFunction,Soldermask,Top*%
%TF.FilePolarity,Negative*%
%FSLAX46Y46*%
G04 Gerber Fmt 4.6, Leading zero omitted, Abs format (unit mm)*
G04 Created by KiCad (PCBNEW 5.1.9+dfsg1-1+deb11u1) date 2025-10-22 16:24:07*
%MOMM*%
%LPD*%
G01*
G04 APERTURE LIST*
%ADD10C,0.750000*%
%ADD11C,0.780000*%
%ADD12O,1.362000X2.520000*%
%ADD13O,1.404000X2.604000*%
%ADD14O,1.850000X1.850000*%
%ADD15C,2.150000*%
%ADD16C,1.000000*%
%ADD17C,1.850000*%
%ADD18C,1.950000*%
%ADD19C,1.750000*%
%ADD20C,1.854000*%
%ADD21C,4.470000*%
%ADD22C,3.350000*%
G04 APERTURE END LIST*
%TO.C,U7*%
G36*
G01*
X241899100Y-122325900D02*
X241899100Y-116814100D01*
G75*
G02*
X241974100Y-116739100I75000J0D01*
G01*
X247485900Y-116739100D01*
G75*
G02*
X247560900Y-116814100I0J-75000D01*
G01*
X247560900Y-122325900D01*
G75*
G02*
X247485900Y-122400900I-75000J0D01*
G01*
X241974100Y-122400900D01*
G75*
G02*
X241899100Y-122325900I0J75000D01*
G01*
G37*
G36*
G01*
X241778000Y-116496600D02*
X241778000Y-115709200D01*
G75*
G02*
X241853000Y-115634200I75000J0D01*
G01*
X242107000Y-115634200D01*
G75*
G02*
X242182000Y-115709200I0J-75000D01*
G01*
X242182000Y-116496600D01*
G75*
G02*
X242107000Y-116571600I-75000J0D01*
G01*
X241853000Y-116571600D01*
G75*
G02*
X241778000Y-116496600I0J75000D01*
G01*
G37*
G36*
G01*
X242277999Y-116496600D02*
X242277999Y-115709200D01*
G75*
G02*
X242352999Y-115634200I75000J0D01*
G01*
X242606999Y-115634200D01*
G75*
G02*
X242681999Y-115709200I0J-75000D01*
G01*
X242681999Y-116496600D01*
G75*
G02*
X242606999Y-116571600I-75000J0D01*
G01*
X242352999Y-116571600D01*
G75*
G02*
X242277999Y-116496600I0J75000D01*
G01*
G37*
G36*
G01*
X242778001Y-116496600D02*
X242778001Y-115709200D01*
G75*
G02*
X242853001Y-115634200I75000J0D01*
G01*
X243107001Y-115634200D01*
G75*
G02*
X243182001Y-115709200I0J-75000D01*
G01*
X243182001Y-116496600D01*
G75*
G02*
X243107001Y-116571600I-75000J0D01*
G01*
X242853001Y-116571600D01*
G75*
G02*
X242778001Y-116496600I0J75000D01*
G01*
G37*
G36*
G01*
X243278000Y-116496600D02*
X243278000Y-115709200D01*
G75*
G02*
X243353000Y-115634200I75000J0D01*
G01*
X243607000Y-115634200D01*
G75*
G02*
X243682000Y-115709200I0J-75000D01*
G01*
X243682000Y-116496600D01*
G75*
G02*
X243607000Y-116571600I-75000J0D01*
G01*
X243353000Y-116571600D01*
G75*
G02*
X243278000Y-116496600I0J75000D01*
G01*
G37*
G36*
G01*
X243777999Y-116496600D02*
X243777999Y-115709200D01*
G75*
G02*
X243852999Y-115634200I75000J0D01*
G01*
X244106999Y-115634200D01*
G75*
G02*
X244181999Y-115709200I0J-75000D01*
G01*
X244181999Y-116496600D01*
G75*
G02*
X244106999Y-116571600I-75000J0D01*
G01*
X243852999Y-116571600D01*
G75*
G02*
X243777999Y-116496600I0J75000D01*
G01*
G37*
G36*
G01*
X244278000Y-116496600D02*
X244278000Y-115709200D01*
G75*
G02*
X244353000Y-115634200I75000J0D01*
G01*
X244607000Y-115634200D01*
G75*
G02*
X244682000Y-115709200I0J-75000D01*
G01*
X244682000Y-116496600D01*
G75*
G02*
X244607000Y-116571600I-75000J0D01*
G01*
X244353000Y-116571600D01*
G75*
G02*
X244278000Y-116496600I0J75000D01*
G01*
G37*
G36*
G01*
X244778000Y-116496600D02*
X244778000Y-115709200D01*
G75*
G02*
X244853000Y-115634200I75000J0D01*
G01*
X245107000Y-115634200D01*
G75*
G02*
X245182000Y-115709200I0J-75000D01*
G01*
X245182000Y-116496600D01*
G75*
G02*
X245107000Y-116571600I-75000J0D01*
G01*
X244853000Y-116571600D01*
G75*
G02*
X244778000Y-116496600I0J75000D01*
G01*
G37*
G36*
G01*
X245278001Y-116496600D02*
X245278001Y-115709200D01*
G75*
G02*
X245353001Y-115634200I75000J0D01*
G01*
X245607001Y-115634200D01*
G75*
G02*
X245682001Y-115709200I0J-75000D01*
G01*
X245682001Y-116496600D01*
G75*
G02*
X245607001Y-116571600I-75000J0D01*
G01*
X245353001Y-116571600D01*
G75*
G02*
X245278001Y-116496600I0J75000D01*
G01*
G37*
G36*
G01*
X245778000Y-116496600D02*
X245778000Y-115709200D01*
G75*
G02*
X245853000Y-115634200I75000J0D01*
G01*
X246107000Y-115634200D01*
G75*
G02*
X246182000Y-115709200I0J-75000D01*
G01*
X246182000Y-116496600D01*
G75*
G02*
X246107000Y-116571600I-75000J0D01*
G01*
X245853000Y-116571600D01*
G75*
G02*
X245778000Y-116496600I0J75000D01*
G01*
G37*
G36*
G01*
X246277999Y-116496600D02*
X246277999Y-115709200D01*
G75*
G02*
X246352999Y-115634200I75000J0D01*
G01*
X246606999Y-115634200D01*
G75*
G02*
X246681999Y-115709200I0J-75000D01*
G01*
X246681999Y-116496600D01*
G75*
G02*
X246606999Y-116571600I-75000J0D01*
G01*
X246352999Y-116571600D01*
G75*
G02*
X246277999Y-116496600I0J75000D01*
G01*
G37*
G36*
G01*
X246778001Y-116496600D02*
X246778001Y-115709200D01*
G75*
G02*
X246853001Y-115634200I75000J0D01*
G01*
X247107001Y-115634200D01*
G75*
G02*
X247182001Y-115709200I0J-75000D01*
G01*
X247182001Y-116496600D01*
G75*
G02*
X247107001Y-116571600I-75000J0D01*
G01*
X246853001Y-116571600D01*
G75*
G02*
X246778001Y-116496600I0J75000D01*
G01*
G37*
G36*
G01*
X247278000Y-116496600D02*
X247278000Y-115709200D01*
G75*
G02*
X247353000Y-115634200I75000J0D01*
G01*
X247607000Y-115634200D01*
G75*
G02*
X247682000Y-115709200I0J-75000D01*
G01*
X247682000Y-116496600D01*
G75*
G02*
X247607000Y-116571600I-75000J0D01*
G01*
X247353000Y-116571600D01*
G75*
G02*
X247278000Y-116496600I0J75000D01*
G01*
G37*
G36*
G01*
X248590800Y-117022000D02*
X247803400Y-117022000D01*
G75*
G02*
X247728400Y-116947000I0J75000D01*
G01*
X247728400Y-116693000D01*
G75*
G02*
X247803400Y-116618000I75000J0D01*
G01*
X248590800Y-116618000D01*
G75*
G02*
X248665800Y-116693000I0J-75000D01*
G01*
X248665800Y-116947000D01*
G75*
G02*
X248590800Y-117022000I-75000J0D01*
G01*
G37*
G36*
G01*
X248590800Y-117521999D02*
X247803400Y-117521999D01*
G75*
G02*
X247728400Y-117446999I0J75000D01*
G01*
X247728400Y-117192999D01*
G75*
G02*
X247803400Y-117117999I75000J0D01*
G01*
X248590800Y-117117999D01*
G75*
G02*
X248665800Y-117192999I0J-75000D01*
G01*
X248665800Y-117446999D01*
G75*
G02*
X248590800Y-117521999I-75000J0D01*
G01*
G37*
G36*
G01*
X248590800Y-118022001D02*
X247803400Y-118022001D01*
G75*
G02*
X247728400Y-117947001I0J75000D01*
G01*
X247728400Y-117693001D01*
G75*
G02*
X247803400Y-117618001I75000J0D01*
G01*
X248590800Y-117618001D01*
G75*
G02*
X248665800Y-117693001I0J-75000D01*
G01*
X248665800Y-117947001D01*
G75*
G02*
X248590800Y-118022001I-75000J0D01*
G01*
G37*
G36*
G01*
X248590800Y-118522000D02*
X247803400Y-118522000D01*
G75*
G02*
X247728400Y-118447000I0J75000D01*
G01*
X247728400Y-118193000D01*
G75*
G02*
X247803400Y-118118000I75000J0D01*
G01*
X248590800Y-118118000D01*
G75*
G02*
X248665800Y-118193000I0J-75000D01*
G01*
X248665800Y-118447000D01*
G75*
G02*
X248590800Y-118522000I-75000J0D01*
G01*
G37*
G36*
G01*
X248590800Y-119021999D02*
X247803400Y-119021999D01*
G75*
G02*
X247728400Y-118946999I0J75000D01*
G01*
X247728400Y-118692999D01*
G75*
G02*
X247803400Y-118617999I75000J0D01*
G01*
X248590800Y-118617999D01*
G75*
G02*
X248665800Y-118692999I0J-75000D01*
G01*
X248665800Y-118946999D01*
G75*
G02*
X248590800Y-119021999I-75000J0D01*
G01*
G37*
G36*
G01*
X248590800Y-119522000D02*
X247803400Y-119522000D01*
G75*
G02*
X247728400Y-119447000I0J75000D01*
G01*
X247728400Y-119193000D01*
G75*
G02*
X247803400Y-119118000I75000J0D01*
G01*
X248590800Y-119118000D01*
G75*
G02*
X248665800Y-119193000I0J-75000D01*
G01*
X248665800Y-119447000D01*
G75*
G02*
X248590800Y-119522000I-75000J0D01*
G01*
G37*
G36*
G01*
X248590800Y-120022000D02*
X247803400Y-120022000D01*
G75*
G02*
X247728400Y-119947000I0J75000D01*
G01*
X247728400Y-119693000D01*
G75*
G02*
X247803400Y-119618000I75000J0D01*
G01*
X248590800Y-119618000D01*
G75*
G02*
X248665800Y-119693000I0J-75000D01*
G01*
X248665800Y-119947000D01*
G75*
G02*
X248590800Y-120022000I-75000J0D01*
G01*
G37*
G36*
G01*
X248590800Y-120522001D02*
X247803400Y-120522001D01*
G75*
G02*
X247728400Y-120447001I0J75000D01*
G01*
X247728400Y-120193001D01*
G75*
G02*
X247803400Y-120118001I75000J0D01*
G01*
X248590800Y-120118001D01*
G75*
G02*
X248665800Y-120193001I0J-75000D01*
G01*
X248665800Y-120447001D01*
G75*
G02*
X248590800Y-120522001I-75000J0D01*
G01*
G37*
G36*
G01*
X248590800Y-121022000D02*
X247803400Y-121022000D01*
G75*
G02*
X247728400Y-120947000I0J75000D01*
G01*
X247728400Y-120693000D01*
G75*
G02*
X247803400Y-120618000I75000J0D01*
G01*
X248590800Y-120618000D01*
G75*
G02*
X248665800Y-120693000I0J-75000D01*
G01*
X248665800Y-120947000D01*
G75*
G02*
X248590800Y-121022000I-75000J0D01*
G01*
G37*
G36*
G01*
X248590800Y-121521999D02*
X247803400Y-121521999D01*
G75*
G02*
X247728400Y-121446999I0J75000D01*
G01*
X247728400Y-121192999D01*
G75*
G02*
X247803400Y-121117999I75000J0D01*
G01*
X248590800Y-121117999D01*
G75*
G02*
X248665800Y-121192999I0J-75000D01*
G01*
X248665800Y-121446999D01*
G75*
G02*
X248590800Y-121521999I-75000J0D01*
G01*
G37*
G36*
G01*
X248590800Y-122022001D02*
X247803400Y-122022001D01*
G75*
G02*
X247728400Y-121947001I0J75000D01*
G01*
X247728400Y-121693001D01*
G75*
G02*
X247803400Y-121618001I75000J0D01*
G01*
X248590800Y-121618001D01*
G75*
G02*
X248665800Y-121693001I0J-75000D01*
G01*
X248665800Y-121947001D01*
G75*
G02*
X248590800Y-122022001I-75000J0D01*
G01*
G37*
G36*
G01*
X248590800Y-122522000D02*
X247803400Y-122522000D01*
G75*
G02*
X247728400Y-122447000I0J75000D01*
G01*
X247728400Y-122193000D01*
G75*
G02*
X247803400Y-122118000I75000J0D01*
G01*
X248590800Y-122118000D01*
G75*
G02*
X248665800Y-122193000I0J-75000D01*
G01*
X248665800Y-122447000D01*
G75*
G02*
X248590800Y-122522000I-75000J0D01*
G01*
G37*
G36*
G01*
X247278000Y-123430800D02*
X247278000Y-122643400D01*
G75*
G02*
X247353000Y-122568400I75000J0D01*
G01*
X247607000Y-122568400D01*
G75*
G02*
X247682000Y-122643400I0J-75000D01*
G01*
X247682000Y-123430800D01*
G75*
G02*
X247607000Y-123505800I-75000J0D01*
G01*
X247353000Y-123505800D01*
G75*
G02*
X247278000Y-123430800I0J75000D01*
G01*
G37*
G36*
G01*
X246778001Y-123430800D02*
X246778001Y-122643400D01*
G75*
G02*
X246853001Y-122568400I75000J0D01*
G01*
X247107001Y-122568400D01*
G75*
G02*
X247182001Y-122643400I0J-75000D01*
G01*
X247182001Y-123430800D01*
G75*
G02*
X247107001Y-123505800I-75000J0D01*
G01*
X246853001Y-123505800D01*
G75*
G02*
X246778001Y-123430800I0J75000D01*
G01*
G37*
G36*
G01*
X246277999Y-123430800D02*
X246277999Y-122643400D01*
G75*
G02*
X246352999Y-122568400I75000J0D01*
G01*
X246606999Y-122568400D01*
G75*
G02*
X246681999Y-122643400I0J-75000D01*
G01*
X246681999Y-123430800D01*
G75*
G02*
X246606999Y-123505800I-75000J0D01*
G01*
X246352999Y-123505800D01*
G75*
G02*
X246277999Y-123430800I0J75000D01*
G01*
G37*
G36*
G01*
X245778000Y-123430800D02*
X245778000Y-122643400D01*
G75*
G02*
X245853000Y-122568400I75000J0D01*
G01*
X246107000Y-122568400D01*
G75*
G02*
X246182000Y-122643400I0J-75000D01*
G01*
X246182000Y-123430800D01*
G75*
G02*
X246107000Y-123505800I-75000J0D01*
G01*
X245853000Y-123505800D01*
G75*
G02*
X245778000Y-123430800I0J75000D01*
G01*
G37*
G36*
G01*
X245278001Y-123430800D02*
X245278001Y-122643400D01*
G75*
G02*
X245353001Y-122568400I75000J0D01*
G01*
X245607001Y-122568400D01*
G75*
G02*
X245682001Y-122643400I0J-75000D01*
G01*
X245682001Y-123430800D01*
G75*
G02*
X245607001Y-123505800I-75000J0D01*
G01*
X245353001Y-123505800D01*
G75*
G02*
X245278001Y-123430800I0J75000D01*
G01*
G37*
G36*
G01*
X244778000Y-123430800D02*
X244778000Y-122643400D01*
G75*
G02*
X244853000Y-122568400I75000J0D01*
G01*
X245107000Y-122568400D01*
G75*
G02*
X245182000Y-122643400I0J-75000D01*
G01*
X245182000Y-123430800D01*
G75*
G02*
X245107000Y-123505800I-75000J0D01*
G01*
X244853000Y-123505800D01*
G75*
G02*
X244778000Y-123430800I0J75000D01*
G01*
G37*
G36*
G01*
X244278000Y-123430800D02*
X244278000Y-122643400D01*
G75*
G02*
X244353000Y-122568400I75000J0D01*
G01*
X244607000Y-122568400D01*
G75*
G02*
X244682000Y-122643400I0J-75000D01*
G01*
X244682000Y-123430800D01*
G75*
G02*
X244607000Y-123505800I-75000J0D01*
G01*
X244353000Y-123505800D01*
G75*
G02*
X244278000Y-123430800I0J75000D01*
G01*
G37*
G36*
G01*
X243777999Y-123430800D02*
X243777999Y-122643400D01*
G75*
G02*
X243852999Y-122568400I75000J0D01*
G01*
X244106999Y-122568400D01*
G75*
G02*
X244181999Y-122643400I0J-75000D01*
G01*
X244181999Y-123430800D01*
G75*
G02*
X244106999Y-123505800I-75000J0D01*
G01*
X243852999Y-123505800D01*
G75*
G02*
X243777999Y-123430800I0J75000D01*
G01*
G37*
G36*
G01*
X243278000Y-123430800D02*
X243278000Y-122643400D01*
G75*
G02*
X243353000Y-122568400I75000J0D01*
G01*
X243607000Y-122568400D01*
G75*
G02*
X243682000Y-122643400I0J-75000D01*
G01*
X243682000Y-123430800D01*
G75*
G02*
X243607000Y-123505800I-75000J0D01*
G01*
X243353000Y-123505800D01*
G75*
G02*
X243278000Y-123430800I0J75000D01*
G01*
G37*
G36*
G01*
X242778001Y-123430800D02*
X242778001Y-122643400D01*
G75*
G02*
X242853001Y-122568400I75000J0D01*
G01*
X243107001Y-122568400D01*
G75*
G02*
X243182001Y-122643400I0J-75000D01*
G01*
X243182001Y-123430800D01*
G75*
G02*
X243107001Y-123505800I-75000J0D01*
G01*
X242853001Y-123505800D01*
G75*
G02*
X242778001Y-123430800I0J75000D01*
G01*
G37*
G36*
G01*
X242277999Y-123430800D02*
X242277999Y-122643400D01*
G75*
G02*
X242352999Y-122568400I75000J0D01*
G01*
X242606999Y-122568400D01*
G75*
G02*
X242681999Y-122643400I0J-75000D01*
G01*
X242681999Y-123430800D01*
G75*
G02*
X242606999Y-123505800I-75000J0D01*
G01*
X242352999Y-123505800D01*
G75*
G02*
X242277999Y-123430800I0J75000D01*
G01*
G37*
G36*
G01*
X241778000Y-123430800D02*
X241778000Y-122643400D01*
G75*
G02*
X241853000Y-122568400I75000J0D01*
G01*
X242107000Y-122568400D01*
G75*
G02*
X242182000Y-122643400I0J-75000D01*
G01*
X242182000Y-123430800D01*
G75*
G02*
X242107000Y-123505800I-75000J0D01*
G01*
X241853000Y-123505800D01*
G75*
G02*
X241778000Y-123430800I0J75000D01*
G01*
G37*
G36*
G01*
X241656600Y-122522000D02*
X240869200Y-122522000D01*
G75*
G02*
X240794200Y-122447000I0J75000D01*
G01*
X240794200Y-122193000D01*
G75*
G02*
X240869200Y-122118000I75000J0D01*
G01*
X241656600Y-122118000D01*
G75*
G02*
X241731600Y-122193000I0J-75000D01*
G01*
X241731600Y-122447000D01*
G75*
G02*
X241656600Y-122522000I-75000J0D01*
G01*
G37*
G36*
G01*
X241656600Y-122022001D02*
X240869200Y-122022001D01*
G75*
G02*
X240794200Y-121947001I0J75000D01*
G01*
X240794200Y-121693001D01*
G75*
G02*
X240869200Y-121618001I75000J0D01*
G01*
X241656600Y-121618001D01*
G75*
G02*
X241731600Y-121693001I0J-75000D01*
G01*
X241731600Y-121947001D01*
G75*
G02*
X241656600Y-122022001I-75000J0D01*
G01*
G37*
G36*
G01*
X241656600Y-121521999D02*
X240869200Y-121521999D01*
G75*
G02*
X240794200Y-121446999I0J75000D01*
G01*
X240794200Y-121192999D01*
G75*
G02*
X240869200Y-121117999I75000J0D01*
G01*
X241656600Y-121117999D01*
G75*
G02*
X241731600Y-121192999I0J-75000D01*
G01*
X241731600Y-121446999D01*
G75*
G02*
X241656600Y-121521999I-75000J0D01*
G01*
G37*
G36*
G01*
X241656600Y-121022000D02*
X240869200Y-121022000D01*
G75*
G02*
X240794200Y-120947000I0J75000D01*
G01*
X240794200Y-120693000D01*
G75*
G02*
X240869200Y-120618000I75000J0D01*
G01*
X241656600Y-120618000D01*
G75*
G02*
X241731600Y-120693000I0J-75000D01*
G01*
X241731600Y-120947000D01*
G75*
G02*
X241656600Y-121022000I-75000J0D01*
G01*
G37*
G36*
G01*
X241656600Y-120522001D02*
X240869200Y-120522001D01*
G75*
G02*
X240794200Y-120447001I0J75000D01*
G01*
X240794200Y-120193001D01*
G75*
G02*
X240869200Y-120118001I75000J0D01*
G01*
X241656600Y-120118001D01*
G75*
G02*
X241731600Y-120193001I0J-75000D01*
G01*
X241731600Y-120447001D01*
G75*
G02*
X241656600Y-120522001I-75000J0D01*
G01*
G37*
G36*
G01*
X241656600Y-120022000D02*
X240869200Y-120022000D01*
G75*
G02*
X240794200Y-119947000I0J75000D01*
G01*
X240794200Y-119693000D01*
G75*
G02*
X240869200Y-119618000I75000J0D01*
G01*
X241656600Y-119618000D01*
G75*
G02*
X241731600Y-119693000I0J-75000D01*
G01*
X241731600Y-119947000D01*
G75*
G02*
X241656600Y-120022000I-75000J0D01*
G01*
G37*
G36*
G01*
X241656600Y-119522000D02*
X240869200Y-119522000D01*
G75*
G02*
X240794200Y-119447000I0J75000D01*
G01*
X240794200Y-119193000D01*
G75*
G02*
X240869200Y-119118000I75000J0D01*
G01*
X241656600Y-119118000D01*
G75*
G02*
X241731600Y-119193000I0J-75000D01*
G01*
X241731600Y-119447000D01*
G75*
G02*
X241656600Y-119522000I-75000J0D01*
G01*
G37*
G36*
G01*
X241656600Y-119021999D02*
X240869200Y-119021999D01*
G75*
G02*
X240794200Y-118946999I0J75000D01*
G01*
X240794200Y-118692999D01*
G75*
G02*
X240869200Y-118617999I75000J0D01*
G01*
X241656600Y-118617999D01*
G75*
G02*
X241731600Y-118692999I0J-75000D01*
G01*
X241731600Y-118946999D01*
G75*
G02*
X241656600Y-119021999I-75000J0D01*
G01*
G37*
G36*
G01*
X241656600Y-118522000D02*
X240869200Y-118522000D01*
G75*
G02*
X240794200Y-118447000I0J75000D01*
G01*
X240794200Y-118193000D01*
G75*
G02*
X240869200Y-118118000I75000J0D01*
G01*
X241656600Y-118118000D01*
G75*
G02*
X241731600Y-118193000I0J-75000D01*
G01*
X241731600Y-118447000D01*
G75*
G02*
X241656600Y-118522000I-75000J0D01*
G01*
G37*
G36*
G01*
X241656600Y-118022001D02*
X240869200Y-118022001D01*
G75*
G02*
X240794200Y-117947001I0J75000D01*
G01*
X240794200Y-117693001D01*
G75*
G02*
X240869200Y-117618001I75000J0D01*
G01*
X241656600Y-117618001D01*
G75*
G02*
X241731600Y-117693001I0J-75000D01*
G01*
X241731600Y-117947001D01*
G75*
G02*
X241656600Y-118022001I-75000J0D01*
G01*
G37*
G36*
G01*
X241656600Y-117521999D02*
X240869200Y-117521999D01*
G75*
G02*
X240794200Y-117446999I0J75000D01*
G01*
X240794200Y-117192999D01*
G75*
G02*
X240869200Y-117117999I75000J0D01*
G01*
X241656600Y-117117999D01*
G75*
G02*
X241731600Y-117192999I0J-75000D01*
G01*
X241731600Y-117446999D01*
G75*
G02*
X241656600Y-117521999I-75000J0D01*
G01*
G37*
G36*
G01*
X241656600Y-117022000D02*
X240869200Y-117022000D01*
G75*
G02*
X240794200Y-116947000I0J75000D01*
G01*
X240794200Y-116693000D01*
G75*
G02*
X240869200Y-116618000I75000J0D01*
G01*
X241656600Y-116618000D01*
G75*
G02*
X241731600Y-116693000I0J-75000D01*
G01*
X241731600Y-116947000D01*
G75*
G02*
X241656600Y-117022000I-75000J0D01*
G01*
G37*
%TD*%
%TO.C,U6*%
G36*
G01*
X227237500Y-178575000D02*
X227512500Y-178575000D01*
G75*
G02*
X227650000Y-178712500I0J-137500D01*
G01*
X227650000Y-180062500D01*
G75*
G02*
X227512500Y-180200000I-137500J0D01*
G01*
X227237500Y-180200000D01*
G75*
G02*
X227100000Y-180062500I0J137500D01*
G01*
X227100000Y-178712500D01*
G75*
G02*
X227237500Y-178575000I137500J0D01*
G01*
G37*
G36*
G01*
X226587500Y-178575000D02*
X226862500Y-178575000D01*
G75*
G02*
X227000000Y-178712500I0J-137500D01*
G01*
X227000000Y-180062500D01*
G75*
G02*
X226862500Y-180200000I-137500J0D01*
G01*
X226587500Y-180200000D01*
G75*
G02*
X226450000Y-180062500I0J137500D01*
G01*
X226450000Y-178712500D01*
G75*
G02*
X226587500Y-178575000I137500J0D01*
G01*
G37*
G36*
G01*
X225937500Y-178575000D02*
X226212500Y-178575000D01*
G75*
G02*
X226350000Y-178712500I0J-137500D01*
G01*
X226350000Y-180062500D01*
G75*
G02*
X226212500Y-180200000I-137500J0D01*
G01*
X225937500Y-180200000D01*
G75*
G02*
X225800000Y-180062500I0J137500D01*
G01*
X225800000Y-178712500D01*
G75*
G02*
X225937500Y-178575000I137500J0D01*
G01*
G37*
G36*
G01*
X225287500Y-178575000D02*
X225562500Y-178575000D01*
G75*
G02*
X225700000Y-178712500I0J-137500D01*
G01*
X225700000Y-180062500D01*
G75*
G02*
X225562500Y-180200000I-137500J0D01*
G01*
X225287500Y-180200000D01*
G75*
G02*
X225150000Y-180062500I0J137500D01*
G01*
X225150000Y-178712500D01*
G75*
G02*
X225287500Y-178575000I137500J0D01*
G01*
G37*
G36*
G01*
X224637500Y-178575000D02*
X224912500Y-178575000D01*
G75*
G02*
X225050000Y-178712500I0J-137500D01*
G01*
X225050000Y-180062500D01*
G75*
G02*
X224912500Y-180200000I-137500J0D01*
G01*
X224637500Y-180200000D01*
G75*
G02*
X224500000Y-180062500I0J137500D01*
G01*
X224500000Y-178712500D01*
G75*
G02*
X224637500Y-178575000I137500J0D01*
G01*
G37*
G36*
G01*
X223987500Y-178575000D02*
X224262500Y-178575000D01*
G75*
G02*
X224400000Y-178712500I0J-137500D01*
G01*
X224400000Y-180062500D01*
G75*
G02*
X224262500Y-180200000I-137500J0D01*
G01*
X223987500Y-180200000D01*
G75*
G02*
X223850000Y-180062500I0J137500D01*
G01*
X223850000Y-178712500D01*
G75*
G02*
X223987500Y-178575000I137500J0D01*
G01*
G37*
G36*
G01*
X223337500Y-178575000D02*
X223612500Y-178575000D01*
G75*
G02*
X223750000Y-178712500I0J-137500D01*
G01*
X223750000Y-180062500D01*
G75*
G02*
X223612500Y-180200000I-137500J0D01*
G01*
X223337500Y-180200000D01*
G75*
G02*
X223200000Y-180062500I0J137500D01*
G01*
X223200000Y-178712500D01*
G75*
G02*
X223337500Y-178575000I137500J0D01*
G01*
G37*
G36*
G01*
X222687500Y-178575000D02*
X222962500Y-178575000D01*
G75*
G02*
X223100000Y-178712500I0J-137500D01*
G01*
X223100000Y-180062500D01*
G75*
G02*
X222962500Y-180200000I-137500J0D01*
G01*
X222687500Y-180200000D01*
G75*
G02*
X222550000Y-180062500I0J137500D01*
G01*
X222550000Y-178712500D01*
G75*
G02*
X222687500Y-178575000I137500J0D01*
G01*
G37*
G36*
G01*
X222037500Y-178575000D02*
X222312500Y-178575000D01*
G75*
G02*
X222450000Y-178712500I0J-137500D01*
G01*
X222450000Y-180062500D01*
G75*
G02*
X222312500Y-180200000I-137500J0D01*
G01*
X222037500Y-180200000D01*
G75*
G02*
X221900000Y-180062500I0J137500D01*
G01*
X221900000Y-178712500D01*
G75*
G02*
X222037500Y-178575000I137500J0D01*
G01*
G37*
G36*
G01*
X221387500Y-178575000D02*
X221662500Y-178575000D01*
G75*
G02*
X221800000Y-178712500I0J-137500D01*
G01*
X221800000Y-180062500D01*
G75*
G02*
X221662500Y-180200000I-137500J0D01*
G01*
X221387500Y-180200000D01*
G75*
G02*
X221250000Y-180062500I0J137500D01*
G01*
X221250000Y-178712500D01*
G75*
G02*
X221387500Y-178575000I137500J0D01*
G01*
G37*
G36*
G01*
X221387500Y-184300000D02*
X221662500Y-184300000D01*
G75*
G02*
X221800000Y-184437500I0J-137500D01*
G01*
X221800000Y-185787500D01*
G75*
G02*
X221662500Y-185925000I-137500J0D01*
G01*
X221387500Y-185925000D01*
G75*
G02*
X221250000Y-185787500I0J137500D01*
G01*
X221250000Y-184437500D01*
G75*
G02*
X221387500Y-184300000I137500J0D01*
G01*
G37*
G36*
G01*
X222037500Y-184300000D02*
X222312500Y-184300000D01*
G75*
G02*
X222450000Y-184437500I0J-137500D01*
G01*
X222450000Y-185787500D01*
G75*
G02*
X222312500Y-185925000I-137500J0D01*
G01*
X222037500Y-185925000D01*
G75*
G02*
X221900000Y-185787500I0J137500D01*
G01*
X221900000Y-184437500D01*
G75*
G02*
X222037500Y-184300000I137500J0D01*
G01*
G37*
G36*
G01*
X222687500Y-184300000D02*
X222962500Y-184300000D01*
G75*
G02*
X223100000Y-184437500I0J-137500D01*
G01*
X223100000Y-185787500D01*
G75*
G02*
X222962500Y-185925000I-137500J0D01*
G01*
X222687500Y-185925000D01*
G75*
G02*
X222550000Y-185787500I0J137500D01*
G01*
X222550000Y-184437500D01*
G75*
G02*
X222687500Y-184300000I137500J0D01*
G01*
G37*
G36*
G01*
X223337500Y-184300000D02*
X223612500Y-184300000D01*
G75*
G02*
X223750000Y-184437500I0J-137500D01*
G01*
X223750000Y-185787500D01*
G75*
G02*
X223612500Y-185925000I-137500J0D01*
G01*
X223337500Y-185925000D01*
G75*
G02*
X223200000Y-185787500I0J137500D01*
G01*
X223200000Y-184437500D01*
G75*
G02*
X223337500Y-184300000I137500J0D01*
G01*
G37*
G36*
G01*
X223987500Y-184300000D02*
X224262500Y-184300000D01*
G75*
G02*
X224400000Y-184437500I0J-137500D01*
G01*
X224400000Y-185787500D01*
G75*
G02*
X224262500Y-185925000I-137500J0D01*
G01*
X223987500Y-185925000D01*
G75*
G02*
X223850000Y-185787500I0J137500D01*
G01*
X223850000Y-184437500D01*
G75*
G02*
X223987500Y-184300000I137500J0D01*
G01*
G37*
G36*
G01*
X224637500Y-184300000D02*
X224912500Y-184300000D01*
G75*
G02*
X225050000Y-184437500I0J-137500D01*
G01*
X225050000Y-185787500D01*
G75*
G02*
X224912500Y-185925000I-137500J0D01*
G01*
X224637500Y-185925000D01*
G75*
G02*
X224500000Y-185787500I0J137500D01*
G01*
X224500000Y-184437500D01*
G75*
G02*
X224637500Y-184300000I137500J0D01*
G01*
G37*
G36*
G01*
X225287500Y-184300000D02*
X225562500Y-184300000D01*
G75*
G02*
X225700000Y-184437500I0J-137500D01*
G01*
X225700000Y-185787500D01*
G75*
G02*
X225562500Y-185925000I-137500J0D01*
G01*
X225287500Y-185925000D01*
G75*
G02*
X225150000Y-185787500I0J137500D01*
G01*
X225150000Y-184437500D01*
G75*
G02*
X225287500Y-184300000I137500J0D01*
G01*
G37*
G36*
G01*
X225937500Y-184300000D02*
X226212500Y-184300000D01*
G75*
G02*
X226350000Y-184437500I0J-137500D01*
G01*
X226350000Y-185787500D01*
G75*
G02*
X226212500Y-185925000I-137500J0D01*
G01*
X225937500Y-185925000D01*
G75*
G02*
X225800000Y-185787500I0J137500D01*
G01*
X225800000Y-184437500D01*
G75*
G02*
X225937500Y-184300000I137500J0D01*
G01*
G37*
G36*
G01*
X226587500Y-184300000D02*
X226862500Y-184300000D01*
G75*
G02*
X227000000Y-184437500I0J-137500D01*
G01*
X227000000Y-185787500D01*
G75*
G02*
X226862500Y-185925000I-137500J0D01*
G01*
X226587500Y-185925000D01*
G75*
G02*
X226450000Y-185787500I0J137500D01*
G01*
X226450000Y-184437500D01*
G75*
G02*
X226587500Y-184300000I137500J0D01*
G01*
G37*
G36*
G01*
X227237500Y-184300000D02*
X227512500Y-184300000D01*
G75*
G02*
X227650000Y-184437500I0J-137500D01*
G01*
X227650000Y-185787500D01*
G75*
G02*
X227512500Y-185925000I-137500J0D01*
G01*
X227237500Y-185925000D01*
G75*
G02*
X227100000Y-185787500I0J137500D01*
G01*
X227100000Y-184437500D01*
G75*
G02*
X227237500Y-184300000I137500J0D01*
G01*
G37*
%TD*%
%TO.C,U2*%
G36*
G01*
X207380761Y-80733095D02*
X207522182Y-80591674D01*
G75*
G02*
X207663604Y-80591674I70711J-70711D01*
G01*
X208246967Y-81175037D01*
G75*
G02*
X208246967Y-81316459I-70711J-70711D01*
G01*
X208105546Y-81457880D01*
G75*
G02*
X207964124Y-81457880I-70711J70711D01*
G01*
X207380761Y-80874517D01*
G75*
G02*
X207380761Y-80733095I70711J70711D01*
G01*
G37*
G36*
G01*
X207027208Y-81086648D02*
X207168629Y-80945227D01*
G75*
G02*
X207310051Y-80945227I70711J-70711D01*
G01*
X207893414Y-81528590D01*
G75*
G02*
X207893414Y-81670012I-70711J-70711D01*
G01*
X207751993Y-81811433D01*
G75*
G02*
X207610571Y-81811433I-70711J70711D01*
G01*
X207027208Y-81228070D01*
G75*
G02*
X207027208Y-81086648I70711J70711D01*
G01*
G37*
G36*
G01*
X206673654Y-81440202D02*
X206815075Y-81298781D01*
G75*
G02*
X206956497Y-81298781I70711J-70711D01*
G01*
X207539860Y-81882144D01*
G75*
G02*
X207539860Y-82023566I-70711J-70711D01*
G01*
X207398439Y-82164987D01*
G75*
G02*
X207257017Y-82164987I-70711J70711D01*
G01*
X206673654Y-81581624D01*
G75*
G02*
X206673654Y-81440202I70711J70711D01*
G01*
G37*
G36*
G01*
X206320101Y-81793755D02*
X206461522Y-81652334D01*
G75*
G02*
X206602944Y-81652334I70711J-70711D01*
G01*
X207186307Y-82235697D01*
G75*
G02*
X207186307Y-82377119I-70711J-70711D01*
G01*
X207044886Y-82518540D01*
G75*
G02*
X206903464Y-82518540I-70711J70711D01*
G01*
X206320101Y-81935177D01*
G75*
G02*
X206320101Y-81793755I70711J70711D01*
G01*
G37*
G36*
G01*
X205966548Y-82147308D02*
X206107969Y-82005887D01*
G75*
G02*
X206249391Y-82005887I70711J-70711D01*
G01*
X206832754Y-82589250D01*
G75*
G02*
X206832754Y-82730672I-70711J-70711D01*
G01*
X206691333Y-82872093D01*
G75*
G02*
X206549911Y-82872093I-70711J70711D01*
G01*
X205966548Y-82288730D01*
G75*
G02*
X205966548Y-82147308I70711J70711D01*
G01*
G37*
G36*
G01*
X205612994Y-82500862D02*
X205754415Y-82359441D01*
G75*
G02*
X205895837Y-82359441I70711J-70711D01*
G01*
X206479200Y-82942804D01*
G75*
G02*
X206479200Y-83084226I-70711J-70711D01*
G01*
X206337779Y-83225647D01*
G75*
G02*
X206196357Y-83225647I-70711J70711D01*
G01*
X205612994Y-82642284D01*
G75*
G02*
X205612994Y-82500862I70711J70711D01*
G01*
G37*
G36*
G01*
X205259441Y-82854415D02*
X205400862Y-82712994D01*
G75*
G02*
X205542284Y-82712994I70711J-70711D01*
G01*
X206125647Y-83296357D01*
G75*
G02*
X206125647Y-83437779I-70711J-70711D01*
G01*
X205984226Y-83579200D01*
G75*
G02*
X205842804Y-83579200I-70711J70711D01*
G01*
X205259441Y-82995837D01*
G75*
G02*
X205259441Y-82854415I70711J70711D01*
G01*
G37*
G36*
G01*
X204905887Y-83207969D02*
X205047308Y-83066548D01*
G75*
G02*
X205188730Y-83066548I70711J-70711D01*
G01*
X205772093Y-83649911D01*
G75*
G02*
X205772093Y-83791333I-70711J-70711D01*
G01*
X205630672Y-83932754D01*
G75*
G02*
X205489250Y-83932754I-70711J70711D01*
G01*
X204905887Y-83349391D01*
G75*
G02*
X204905887Y-83207969I70711J70711D01*
G01*
G37*
G36*
G01*
X204552334Y-83561522D02*
X204693755Y-83420101D01*
G75*
G02*
X204835177Y-83420101I70711J-70711D01*
G01*
X205418540Y-84003464D01*
G75*
G02*
X205418540Y-84144886I-70711J-70711D01*
G01*
X205277119Y-84286307D01*
G75*
G02*
X205135697Y-84286307I-70711J70711D01*
G01*
X204552334Y-83702944D01*
G75*
G02*
X204552334Y-83561522I70711J70711D01*
G01*
G37*
G36*
G01*
X204198781Y-83915075D02*
X204340202Y-83773654D01*
G75*
G02*
X204481624Y-83773654I70711J-70711D01*
G01*
X205064987Y-84357017D01*
G75*
G02*
X205064987Y-84498439I-70711J-70711D01*
G01*
X204923566Y-84639860D01*
G75*
G02*
X204782144Y-84639860I-70711J70711D01*
G01*
X204198781Y-84056497D01*
G75*
G02*
X204198781Y-83915075I70711J70711D01*
G01*
G37*
G36*
G01*
X203845227Y-84268629D02*
X203986648Y-84127208D01*
G75*
G02*
X204128070Y-84127208I70711J-70711D01*
G01*
X204711433Y-84710571D01*
G75*
G02*
X204711433Y-84851993I-70711J-70711D01*
G01*
X204570012Y-84993414D01*
G75*
G02*
X204428590Y-84993414I-70711J70711D01*
G01*
X203845227Y-84410051D01*
G75*
G02*
X203845227Y-84268629I70711J70711D01*
G01*
G37*
G36*
G01*
X203491674Y-84622182D02*
X203633095Y-84480761D01*
G75*
G02*
X203774517Y-84480761I70711J-70711D01*
G01*
X204357880Y-85064124D01*
G75*
G02*
X204357880Y-85205546I-70711J-70711D01*
G01*
X204216459Y-85346967D01*
G75*
G02*
X204075037Y-85346967I-70711J70711D01*
G01*
X203491674Y-84763604D01*
G75*
G02*
X203491674Y-84622182I70711J70711D01*
G01*
G37*
G36*
G01*
X203491674Y-86036396D02*
X204075037Y-85453033D01*
G75*
G02*
X204216459Y-85453033I70711J-70711D01*
G01*
X204357880Y-85594454D01*
G75*
G02*
X204357880Y-85735876I-70711J-70711D01*
G01*
X203774517Y-86319239D01*
G75*
G02*
X203633095Y-86319239I-70711J70711D01*
G01*
X203491674Y-86177818D01*
G75*
G02*
X203491674Y-86036396I70711J70711D01*
G01*
G37*
G36*
G01*
X203845227Y-86389949D02*
X204428590Y-85806586D01*
G75*
G02*
X204570012Y-85806586I70711J-70711D01*
G01*
X204711433Y-85948007D01*
G75*
G02*
X204711433Y-86089429I-70711J-70711D01*
G01*
X204128070Y-86672792D01*
G75*
G02*
X203986648Y-86672792I-70711J70711D01*
G01*
X203845227Y-86531371D01*
G75*
G02*
X203845227Y-86389949I70711J70711D01*
G01*
G37*
G36*
G01*
X204198781Y-86743503D02*
X204782144Y-86160140D01*
G75*
G02*
X204923566Y-86160140I70711J-70711D01*
G01*
X205064987Y-86301561D01*
G75*
G02*
X205064987Y-86442983I-70711J-70711D01*
G01*
X204481624Y-87026346D01*
G75*
G02*
X204340202Y-87026346I-70711J70711D01*
G01*
X204198781Y-86884925D01*
G75*
G02*
X204198781Y-86743503I70711J70711D01*
G01*
G37*
G36*
G01*
X204552334Y-87097056D02*
X205135697Y-86513693D01*
G75*
G02*
X205277119Y-86513693I70711J-70711D01*
G01*
X205418540Y-86655114D01*
G75*
G02*
X205418540Y-86796536I-70711J-70711D01*
G01*
X204835177Y-87379899D01*
G75*
G02*
X204693755Y-87379899I-70711J70711D01*
G01*
X204552334Y-87238478D01*
G75*
G02*
X204552334Y-87097056I70711J70711D01*
G01*
G37*
G36*
G01*
X204905887Y-87450609D02*
X205489250Y-86867246D01*
G75*
G02*
X205630672Y-86867246I70711J-70711D01*
G01*
X205772093Y-87008667D01*
G75*
G02*
X205772093Y-87150089I-70711J-70711D01*
G01*
X205188730Y-87733452D01*
G75*
G02*
X205047308Y-87733452I-70711J70711D01*
G01*
X204905887Y-87592031D01*
G75*
G02*
X204905887Y-87450609I70711J70711D01*
G01*
G37*
G36*
G01*
X205259441Y-87804163D02*
X205842804Y-87220800D01*
G75*
G02*
X205984226Y-87220800I70711J-70711D01*
G01*
X206125647Y-87362221D01*
G75*
G02*
X206125647Y-87503643I-70711J-70711D01*
G01*
X205542284Y-88087006D01*
G75*
G02*
X205400862Y-88087006I-70711J70711D01*
G01*
X205259441Y-87945585D01*
G75*
G02*
X205259441Y-87804163I70711J70711D01*
G01*
G37*
G36*
G01*
X205612994Y-88157716D02*
X206196357Y-87574353D01*
G75*
G02*
X206337779Y-87574353I70711J-70711D01*
G01*
X206479200Y-87715774D01*
G75*
G02*
X206479200Y-87857196I-70711J-70711D01*
G01*
X205895837Y-88440559D01*
G75*
G02*
X205754415Y-88440559I-70711J70711D01*
G01*
X205612994Y-88299138D01*
G75*
G02*
X205612994Y-88157716I70711J70711D01*
G01*
G37*
G36*
G01*
X205966548Y-88511270D02*
X206549911Y-87927907D01*
G75*
G02*
X206691333Y-87927907I70711J-70711D01*
G01*
X206832754Y-88069328D01*
G75*
G02*
X206832754Y-88210750I-70711J-70711D01*
G01*
X206249391Y-88794113D01*
G75*
G02*
X206107969Y-88794113I-70711J70711D01*
G01*
X205966548Y-88652692D01*
G75*
G02*
X205966548Y-88511270I70711J70711D01*
G01*
G37*
G36*
G01*
X206320101Y-88864823D02*
X206903464Y-88281460D01*
G75*
G02*
X207044886Y-88281460I70711J-70711D01*
G01*
X207186307Y-88422881D01*
G75*
G02*
X207186307Y-88564303I-70711J-70711D01*
G01*
X206602944Y-89147666D01*
G75*
G02*
X206461522Y-89147666I-70711J70711D01*
G01*
X206320101Y-89006245D01*
G75*
G02*
X206320101Y-88864823I70711J70711D01*
G01*
G37*
G36*
G01*
X206673654Y-89218376D02*
X207257017Y-88635013D01*
G75*
G02*
X207398439Y-88635013I70711J-70711D01*
G01*
X207539860Y-88776434D01*
G75*
G02*
X207539860Y-88917856I-70711J-70711D01*
G01*
X206956497Y-89501219D01*
G75*
G02*
X206815075Y-89501219I-70711J70711D01*
G01*
X206673654Y-89359798D01*
G75*
G02*
X206673654Y-89218376I70711J70711D01*
G01*
G37*
G36*
G01*
X207027208Y-89571930D02*
X207610571Y-88988567D01*
G75*
G02*
X207751993Y-88988567I70711J-70711D01*
G01*
X207893414Y-89129988D01*
G75*
G02*
X207893414Y-89271410I-70711J-70711D01*
G01*
X207310051Y-89854773D01*
G75*
G02*
X207168629Y-89854773I-70711J70711D01*
G01*
X207027208Y-89713352D01*
G75*
G02*
X207027208Y-89571930I70711J70711D01*
G01*
G37*
G36*
G01*
X207380761Y-89925483D02*
X207964124Y-89342120D01*
G75*
G02*
X208105546Y-89342120I70711J-70711D01*
G01*
X208246967Y-89483541D01*
G75*
G02*
X208246967Y-89624963I-70711J-70711D01*
G01*
X207663604Y-90208326D01*
G75*
G02*
X207522182Y-90208326I-70711J70711D01*
G01*
X207380761Y-90066905D01*
G75*
G02*
X207380761Y-89925483I70711J70711D01*
G01*
G37*
G36*
G01*
X208353033Y-89483541D02*
X208494454Y-89342120D01*
G75*
G02*
X208635876Y-89342120I70711J-70711D01*
G01*
X209219239Y-89925483D01*
G75*
G02*
X209219239Y-90066905I-70711J-70711D01*
G01*
X209077818Y-90208326D01*
G75*
G02*
X208936396Y-90208326I-70711J70711D01*
G01*
X208353033Y-89624963D01*
G75*
G02*
X208353033Y-89483541I70711J70711D01*
G01*
G37*
G36*
G01*
X208706586Y-89129988D02*
X208848007Y-88988567D01*
G75*
G02*
X208989429Y-88988567I70711J-70711D01*
G01*
X209572792Y-89571930D01*
G75*
G02*
X209572792Y-89713352I-70711J-70711D01*
G01*
X209431371Y-89854773D01*
G75*
G02*
X209289949Y-89854773I-70711J70711D01*
G01*
X208706586Y-89271410D01*
G75*
G02*
X208706586Y-89129988I70711J70711D01*
G01*
G37*
G36*
G01*
X209060140Y-88776434D02*
X209201561Y-88635013D01*
G75*
G02*
X209342983Y-88635013I70711J-70711D01*
G01*
X209926346Y-89218376D01*
G75*
G02*
X209926346Y-89359798I-70711J-70711D01*
G01*
X209784925Y-89501219D01*
G75*
G02*
X209643503Y-89501219I-70711J70711D01*
G01*
X209060140Y-88917856D01*
G75*
G02*
X209060140Y-88776434I70711J70711D01*
G01*
G37*
G36*
G01*
X209413693Y-88422881D02*
X209555114Y-88281460D01*
G75*
G02*
X209696536Y-88281460I70711J-70711D01*
G01*
X210279899Y-88864823D01*
G75*
G02*
X210279899Y-89006245I-70711J-70711D01*
G01*
X210138478Y-89147666D01*
G75*
G02*
X209997056Y-89147666I-70711J70711D01*
G01*
X209413693Y-88564303D01*
G75*
G02*
X209413693Y-88422881I70711J70711D01*
G01*
G37*
G36*
G01*
X209767246Y-88069328D02*
X209908667Y-87927907D01*
G75*
G02*
X210050089Y-87927907I70711J-70711D01*
G01*
X210633452Y-88511270D01*
G75*
G02*
X210633452Y-88652692I-70711J-70711D01*
G01*
X210492031Y-88794113D01*
G75*
G02*
X210350609Y-88794113I-70711J70711D01*
G01*
X209767246Y-88210750D01*
G75*
G02*
X209767246Y-88069328I70711J70711D01*
G01*
G37*
G36*
G01*
X210120800Y-87715774D02*
X210262221Y-87574353D01*
G75*
G02*
X210403643Y-87574353I70711J-70711D01*
G01*
X210987006Y-88157716D01*
G75*
G02*
X210987006Y-88299138I-70711J-70711D01*
G01*
X210845585Y-88440559D01*
G75*
G02*
X210704163Y-88440559I-70711J70711D01*
G01*
X210120800Y-87857196D01*
G75*
G02*
X210120800Y-87715774I70711J70711D01*
G01*
G37*
G36*
G01*
X210474353Y-87362221D02*
X210615774Y-87220800D01*
G75*
G02*
X210757196Y-87220800I70711J-70711D01*
G01*
X211340559Y-87804163D01*
G75*
G02*
X211340559Y-87945585I-70711J-70711D01*
G01*
X211199138Y-88087006D01*
G75*
G02*
X211057716Y-88087006I-70711J70711D01*
G01*
X210474353Y-87503643D01*
G75*
G02*
X210474353Y-87362221I70711J70711D01*
G01*
G37*
G36*
G01*
X210827907Y-87008667D02*
X210969328Y-86867246D01*
G75*
G02*
X211110750Y-86867246I70711J-70711D01*
G01*
X211694113Y-87450609D01*
G75*
G02*
X211694113Y-87592031I-70711J-70711D01*
G01*
X211552692Y-87733452D01*
G75*
G02*
X211411270Y-87733452I-70711J70711D01*
G01*
X210827907Y-87150089D01*
G75*
G02*
X210827907Y-87008667I70711J70711D01*
G01*
G37*
G36*
G01*
X211181460Y-86655114D02*
X211322881Y-86513693D01*
G75*
G02*
X211464303Y-86513693I70711J-70711D01*
G01*
X212047666Y-87097056D01*
G75*
G02*
X212047666Y-87238478I-70711J-70711D01*
G01*
X211906245Y-87379899D01*
G75*
G02*
X211764823Y-87379899I-70711J70711D01*
G01*
X211181460Y-86796536D01*
G75*
G02*
X211181460Y-86655114I70711J70711D01*
G01*
G37*
G36*
G01*
X211535013Y-86301561D02*
X211676434Y-86160140D01*
G75*
G02*
X211817856Y-86160140I70711J-70711D01*
G01*
X212401219Y-86743503D01*
G75*
G02*
X212401219Y-86884925I-70711J-70711D01*
G01*
X212259798Y-87026346D01*
G75*
G02*
X212118376Y-87026346I-70711J70711D01*
G01*
X211535013Y-86442983D01*
G75*
G02*
X211535013Y-86301561I70711J70711D01*
G01*
G37*
G36*
G01*
X211888567Y-85948007D02*
X212029988Y-85806586D01*
G75*
G02*
X212171410Y-85806586I70711J-70711D01*
G01*
X212754773Y-86389949D01*
G75*
G02*
X212754773Y-86531371I-70711J-70711D01*
G01*
X212613352Y-86672792D01*
G75*
G02*
X212471930Y-86672792I-70711J70711D01*
G01*
X211888567Y-86089429D01*
G75*
G02*
X211888567Y-85948007I70711J70711D01*
G01*
G37*
G36*
G01*
X212242120Y-85594454D02*
X212383541Y-85453033D01*
G75*
G02*
X212524963Y-85453033I70711J-70711D01*
G01*
X213108326Y-86036396D01*
G75*
G02*
X213108326Y-86177818I-70711J-70711D01*
G01*
X212966905Y-86319239D01*
G75*
G02*
X212825483Y-86319239I-70711J70711D01*
G01*
X212242120Y-85735876D01*
G75*
G02*
X212242120Y-85594454I70711J70711D01*
G01*
G37*
G36*
G01*
X212242120Y-85064124D02*
X212825483Y-84480761D01*
G75*
G02*
X212966905Y-84480761I70711J-70711D01*
G01*
X213108326Y-84622182D01*
G75*
G02*
X213108326Y-84763604I-70711J-70711D01*
G01*
X212524963Y-85346967D01*
G75*
G02*
X212383541Y-85346967I-70711J70711D01*
G01*
X212242120Y-85205546D01*
G75*
G02*
X212242120Y-85064124I70711J70711D01*
G01*
G37*
G36*
G01*
X211888567Y-84710571D02*
X212471930Y-84127208D01*
G75*
G02*
X212613352Y-84127208I70711J-70711D01*
G01*
X212754773Y-84268629D01*
G75*
G02*
X212754773Y-84410051I-70711J-70711D01*
G01*
X212171410Y-84993414D01*
G75*
G02*
X212029988Y-84993414I-70711J70711D01*
G01*
X211888567Y-84851993D01*
G75*
G02*
X211888567Y-84710571I70711J70711D01*
G01*
G37*
G36*
G01*
X211535013Y-84357017D02*
X212118376Y-83773654D01*
G75*
G02*
X212259798Y-83773654I70711J-70711D01*
G01*
X212401219Y-83915075D01*
G75*
G02*
X212401219Y-84056497I-70711J-70711D01*
G01*
X211817856Y-84639860D01*
G75*
G02*
X211676434Y-84639860I-70711J70711D01*
G01*
X211535013Y-84498439D01*
G75*
G02*
X211535013Y-84357017I70711J70711D01*
G01*
G37*
G36*
G01*
X211181460Y-84003464D02*
X211764823Y-83420101D01*
G75*
G02*
X211906245Y-83420101I70711J-70711D01*
G01*
X212047666Y-83561522D01*
G75*
G02*
X212047666Y-83702944I-70711J-70711D01*
G01*
X211464303Y-84286307D01*
G75*
G02*
X211322881Y-84286307I-70711J70711D01*
G01*
X211181460Y-84144886D01*
G75*
G02*
X211181460Y-84003464I70711J70711D01*
G01*
G37*
G36*
G01*
X210827907Y-83649911D02*
X211411270Y-83066548D01*
G75*
G02*
X211552692Y-83066548I70711J-70711D01*
G01*
X211694113Y-83207969D01*
G75*
G02*
X211694113Y-83349391I-70711J-70711D01*
G01*
X211110750Y-83932754D01*
G75*
G02*
X210969328Y-83932754I-70711J70711D01*
G01*
X210827907Y-83791333D01*
G75*
G02*
X210827907Y-83649911I70711J70711D01*
G01*
G37*
G36*
G01*
X210474353Y-83296357D02*
X211057716Y-82712994D01*
G75*
G02*
X211199138Y-82712994I70711J-70711D01*
G01*
X211340559Y-82854415D01*
G75*
G02*
X211340559Y-82995837I-70711J-70711D01*
G01*
X210757196Y-83579200D01*
G75*
G02*
X210615774Y-83579200I-70711J70711D01*
G01*
X210474353Y-83437779D01*
G75*
G02*
X210474353Y-83296357I70711J70711D01*
G01*
G37*
G36*
G01*
X210120800Y-82942804D02*
X210704163Y-82359441D01*
G75*
G02*
X210845585Y-82359441I70711J-70711D01*
G01*
X210987006Y-82500862D01*
G75*
G02*
X210987006Y-82642284I-70711J-70711D01*
G01*
X210403643Y-83225647D01*
G75*
G02*
X210262221Y-83225647I-70711J70711D01*
G01*
X210120800Y-83084226D01*
G75*
G02*
X210120800Y-82942804I70711J70711D01*
G01*
G37*
G36*
G01*
X209767246Y-82589250D02*
X210350609Y-82005887D01*
G75*
G02*
X210492031Y-82005887I70711J-70711D01*
G01*
X210633452Y-82147308D01*
G75*
G02*
X210633452Y-82288730I-70711J-70711D01*
G01*
X210050089Y-82872093D01*
G75*
G02*
X209908667Y-82872093I-70711J70711D01*
G01*
X209767246Y-82730672D01*
G75*
G02*
X209767246Y-82589250I70711J70711D01*
G01*
G37*
G36*
G01*
X209413693Y-82235697D02*
X209997056Y-81652334D01*
G75*
G02*
X210138478Y-81652334I70711J-70711D01*
G01*
X210279899Y-81793755D01*
G75*
G02*
X210279899Y-81935177I-70711J-70711D01*
G01*
X209696536Y-82518540D01*
G75*
G02*
X209555114Y-82518540I-70711J70711D01*
G01*
X209413693Y-82377119D01*
G75*
G02*
X209413693Y-82235697I70711J70711D01*
G01*
G37*
G36*
G01*
X209060140Y-81882144D02*
X209643503Y-81298781D01*
G75*
G02*
X209784925Y-81298781I70711J-70711D01*
G01*
X209926346Y-81440202D01*
G75*
G02*
X209926346Y-81581624I-70711J-70711D01*
G01*
X209342983Y-82164987D01*
G75*
G02*
X209201561Y-82164987I-70711J70711D01*
G01*
X209060140Y-82023566D01*
G75*
G02*
X209060140Y-81882144I70711J70711D01*
G01*
G37*
G36*
G01*
X208706586Y-81528590D02*
X209289949Y-80945227D01*
G75*
G02*
X209431371Y-80945227I70711J-70711D01*
G01*
X209572792Y-81086648D01*
G75*
G02*
X209572792Y-81228070I-70711J-70711D01*
G01*
X208989429Y-81811433D01*
G75*
G02*
X208848007Y-81811433I-70711J70711D01*
G01*
X208706586Y-81670012D01*
G75*
G02*
X208706586Y-81528590I70711J70711D01*
G01*
G37*
G36*
G01*
X208353033Y-81175037D02*
X208936396Y-80591674D01*
G75*
G02*
X209077818Y-80591674I70711J-70711D01*
G01*
X209219239Y-80733095D01*
G75*
G02*
X209219239Y-80874517I-70711J-70711D01*
G01*
X208635876Y-81457880D01*
G75*
G02*
X208494454Y-81457880I-70711J70711D01*
G01*
X208353033Y-81316459D01*
G75*
G02*
X208353033Y-81175037I70711J70711D01*
G01*
G37*
G36*
G01*
X204287169Y-85346967D02*
X208246967Y-81387169D01*
G75*
G02*
X208353033Y-81387169I53033J-53033D01*
G01*
X212312831Y-85346967D01*
G75*
G02*
X212312831Y-85453033I-53033J-53033D01*
G01*
X208353033Y-89412831D01*
G75*
G02*
X208246967Y-89412831I-53033J53033D01*
G01*
X204287169Y-85453033D01*
G75*
G02*
X204287169Y-85346967I53033J53033D01*
G01*
G37*
%TD*%
%TO.C,U15*%
G36*
G01*
X145625000Y-66320000D02*
X145625000Y-65120000D01*
G75*
G02*
X145700000Y-65045000I75000J0D01*
G01*
X147900000Y-65045000D01*
G75*
G02*
X147975000Y-65120000I0J-75000D01*
G01*
X147975000Y-66320000D01*
G75*
G02*
X147900000Y-66395000I-75000J0D01*
G01*
X145700000Y-66395000D01*
G75*
G02*
X145625000Y-66320000I0J75000D01*
G01*
G37*
G36*
G01*
X145625000Y-70880000D02*
X145625000Y-69680000D01*
G75*
G02*
X145700000Y-69605000I75000J0D01*
G01*
X147900000Y-69605000D01*
G75*
G02*
X147975000Y-69680000I0J-75000D01*
G01*
X147975000Y-70880000D01*
G75*
G02*
X147900000Y-70955000I-75000J0D01*
G01*
X145700000Y-70955000D01*
G75*
G02*
X145625000Y-70880000I0J75000D01*
G01*
G37*
G36*
G01*
X149825000Y-70900000D02*
X149825000Y-65100000D01*
G75*
G02*
X149900000Y-65025000I75000J0D01*
G01*
X156300000Y-65025000D01*
G75*
G02*
X156375000Y-65100000I0J-75000D01*
G01*
X156375000Y-70900000D01*
G75*
G02*
X156300000Y-70975000I-75000J0D01*
G01*
X149900000Y-70975000D01*
G75*
G02*
X149825000Y-70900000I0J75000D01*
G01*
G37*
%TD*%
%TO.C,U13*%
G36*
G01*
X147075000Y-83900000D02*
X147075000Y-80100000D01*
G75*
G02*
X147150000Y-80025000I75000J0D01*
G01*
X149150000Y-80025000D01*
G75*
G02*
X149225000Y-80100000I0J-75000D01*
G01*
X149225000Y-83900000D01*
G75*
G02*
X149150000Y-83975000I-75000J0D01*
G01*
X147150000Y-83975000D01*
G75*
G02*
X147075000Y-83900000I0J75000D01*
G01*
G37*
G36*
G01*
X140775000Y-82750000D02*
X140775000Y-81250000D01*
G75*
G02*
X140850000Y-81175000I75000J0D01*
G01*
X142850000Y-81175000D01*
G75*
G02*
X142925000Y-81250000I0J-75000D01*
G01*
X142925000Y-82750000D01*
G75*
G02*
X142850000Y-82825000I-75000J0D01*
G01*
X140850000Y-82825000D01*
G75*
G02*
X140775000Y-82750000I0J75000D01*
G01*
G37*
G36*
G01*
X140775000Y-85050000D02*
X140775000Y-83550000D01*
G75*
G02*
X140850000Y-83475000I75000J0D01*
G01*
X142850000Y-83475000D01*
G75*
G02*
X142925000Y-83550000I0J-75000D01*
G01*
X142925000Y-85050000D01*
G75*
G02*
X142850000Y-85125000I-75000J0D01*
G01*
X140850000Y-85125000D01*
G75*
G02*
X140775000Y-85050000I0J75000D01*
G01*
G37*
G36*
G01*
X140775000Y-80450000D02*
X140775000Y-78950000D01*
G75*
G02*
X140850000Y-78875000I75000J0D01*
G01*
X142850000Y-78875000D01*
G75*
G02*
X142925000Y-78950000I0J-75000D01*
G01*
X142925000Y-80450000D01*
G75*
G02*
X142850000Y-80525000I-75000J0D01*
G01*
X140850000Y-80525000D01*
G75*
G02*
X140775000Y-80450000I0J75000D01*
G01*
G37*
%TD*%
%TO.C,U12*%
G36*
G01*
X164862500Y-61475000D02*
X165187500Y-61475000D01*
G75*
G02*
X165350000Y-61637500I0J-162500D01*
G01*
X165350000Y-63362500D01*
G75*
G02*
X165187500Y-63525000I-162500J0D01*
G01*
X164862500Y-63525000D01*
G75*
G02*
X164700000Y-63362500I0J162500D01*
G01*
X164700000Y-61637500D01*
G75*
G02*
X164862500Y-61475000I162500J0D01*
G01*
G37*
G36*
G01*
X164212500Y-61475000D02*
X164537500Y-61475000D01*
G75*
G02*
X164700000Y-61637500I0J-162500D01*
G01*
X164700000Y-63362500D01*
G75*
G02*
X164537500Y-63525000I-162500J0D01*
G01*
X164212500Y-63525000D01*
G75*
G02*
X164050000Y-63362500I0J162500D01*
G01*
X164050000Y-61637500D01*
G75*
G02*
X164212500Y-61475000I162500J0D01*
G01*
G37*
G36*
G01*
X163562500Y-61475000D02*
X163887500Y-61475000D01*
G75*
G02*
X164050000Y-61637500I0J-162500D01*
G01*
X164050000Y-63362500D01*
G75*
G02*
X163887500Y-63525000I-162500J0D01*
G01*
X163562500Y-63525000D01*
G75*
G02*
X163400000Y-63362500I0J162500D01*
G01*
X163400000Y-61637500D01*
G75*
G02*
X163562500Y-61475000I162500J0D01*
G01*
G37*
G36*
G01*
X162912500Y-61475000D02*
X163237500Y-61475000D01*
G75*
G02*
X163400000Y-61637500I0J-162500D01*
G01*
X163400000Y-63362500D01*
G75*
G02*
X163237500Y-63525000I-162500J0D01*
G01*
X162912500Y-63525000D01*
G75*
G02*
X162750000Y-63362500I0J162500D01*
G01*
X162750000Y-61637500D01*
G75*
G02*
X162912500Y-61475000I162500J0D01*
G01*
G37*
G36*
G01*
X162262500Y-61475000D02*
X162587500Y-61475000D01*
G75*
G02*
X162750000Y-61637500I0J-162500D01*
G01*
X162750000Y-63362500D01*
G75*
G02*
X162587500Y-63525000I-162500J0D01*
G01*
X162262500Y-63525000D01*
G75*
G02*
X162100000Y-63362500I0J162500D01*
G01*
X162100000Y-61637500D01*
G75*
G02*
X162262500Y-61475000I162500J0D01*
G01*
G37*
G36*
G01*
X161612500Y-61475000D02*
X161937500Y-61475000D01*
G75*
G02*
X162100000Y-61637500I0J-162500D01*
G01*
X162100000Y-63362500D01*
G75*
G02*
X161937500Y-63525000I-162500J0D01*
G01*
X161612500Y-63525000D01*
G75*
G02*
X161450000Y-63362500I0J162500D01*
G01*
X161450000Y-61637500D01*
G75*
G02*
X161612500Y-61475000I162500J0D01*
G01*
G37*
G36*
G01*
X160962500Y-61475000D02*
X161287500Y-61475000D01*
G75*
G02*
X161450000Y-61637500I0J-162500D01*
G01*
X161450000Y-63362500D01*
G75*
G02*
X161287500Y-63525000I-162500J0D01*
G01*
X160962500Y-63525000D01*
G75*
G02*
X160800000Y-63362500I0J162500D01*
G01*
X160800000Y-61637500D01*
G75*
G02*
X160962500Y-61475000I162500J0D01*
G01*
G37*
G36*
G01*
X160312500Y-61475000D02*
X160637500Y-61475000D01*
G75*
G02*
X160800000Y-61637500I0J-162500D01*
G01*
X160800000Y-63362500D01*
G75*
G02*
X160637500Y-63525000I-162500J0D01*
G01*
X160312500Y-63525000D01*
G75*
G02*
X160150000Y-63362500I0J162500D01*
G01*
X160150000Y-61637500D01*
G75*
G02*
X160312500Y-61475000I162500J0D01*
G01*
G37*
G36*
G01*
X159662500Y-61475000D02*
X159987500Y-61475000D01*
G75*
G02*
X160150000Y-61637500I0J-162500D01*
G01*
X160150000Y-63362500D01*
G75*
G02*
X159987500Y-63525000I-162500J0D01*
G01*
X159662500Y-63525000D01*
G75*
G02*
X159500000Y-63362500I0J162500D01*
G01*
X159500000Y-61637500D01*
G75*
G02*
X159662500Y-61475000I162500J0D01*
G01*
G37*
G36*
G01*
X159012500Y-61475000D02*
X159337500Y-61475000D01*
G75*
G02*
X159500000Y-61637500I0J-162500D01*
G01*
X159500000Y-63362500D01*
G75*
G02*
X159337500Y-63525000I-162500J0D01*
G01*
X159012500Y-63525000D01*
G75*
G02*
X158850000Y-63362500I0J162500D01*
G01*
X158850000Y-61637500D01*
G75*
G02*
X159012500Y-61475000I162500J0D01*
G01*
G37*
G36*
G01*
X159012500Y-68475000D02*
X159337500Y-68475000D01*
G75*
G02*
X159500000Y-68637500I0J-162500D01*
G01*
X159500000Y-70362500D01*
G75*
G02*
X159337500Y-70525000I-162500J0D01*
G01*
X159012500Y-70525000D01*
G75*
G02*
X158850000Y-70362500I0J162500D01*
G01*
X158850000Y-68637500D01*
G75*
G02*
X159012500Y-68475000I162500J0D01*
G01*
G37*
G36*
G01*
X159662500Y-68475000D02*
X159987500Y-68475000D01*
G75*
G02*
X160150000Y-68637500I0J-162500D01*
G01*
X160150000Y-70362500D01*
G75*
G02*
X159987500Y-70525000I-162500J0D01*
G01*
X159662500Y-70525000D01*
G75*
G02*
X159500000Y-70362500I0J162500D01*
G01*
X159500000Y-68637500D01*
G75*
G02*
X159662500Y-68475000I162500J0D01*
G01*
G37*
G36*
G01*
X160312500Y-68475000D02*
X160637500Y-68475000D01*
G75*
G02*
X160800000Y-68637500I0J-162500D01*
G01*
X160800000Y-70362500D01*
G75*
G02*
X160637500Y-70525000I-162500J0D01*
G01*
X160312500Y-70525000D01*
G75*
G02*
X160150000Y-70362500I0J162500D01*
G01*
X160150000Y-68637500D01*
G75*
G02*
X160312500Y-68475000I162500J0D01*
G01*
G37*
G36*
G01*
X160962500Y-68475000D02*
X161287500Y-68475000D01*
G75*
G02*
X161450000Y-68637500I0J-162500D01*
G01*
X161450000Y-70362500D01*
G75*
G02*
X161287500Y-70525000I-162500J0D01*
G01*
X160962500Y-70525000D01*
G75*
G02*
X160800000Y-70362500I0J162500D01*
G01*
X160800000Y-68637500D01*
G75*
G02*
X160962500Y-68475000I162500J0D01*
G01*
G37*
G36*
G01*
X161612500Y-68475000D02*
X161937500Y-68475000D01*
G75*
G02*
X162100000Y-68637500I0J-162500D01*
G01*
X162100000Y-70362500D01*
G75*
G02*
X161937500Y-70525000I-162500J0D01*
G01*
X161612500Y-70525000D01*
G75*
G02*
X161450000Y-70362500I0J162500D01*
G01*
X161450000Y-68637500D01*
G75*
G02*
X161612500Y-68475000I162500J0D01*
G01*
G37*
G36*
G01*
X162262500Y-68475000D02*
X162587500Y-68475000D01*
G75*
G02*
X162750000Y-68637500I0J-162500D01*
G01*
X162750000Y-70362500D01*
G75*
G02*
X162587500Y-70525000I-162500J0D01*
G01*
X162262500Y-70525000D01*
G75*
G02*
X162100000Y-70362500I0J162500D01*
G01*
X162100000Y-68637500D01*
G75*
G02*
X162262500Y-68475000I162500J0D01*
G01*
G37*
G36*
G01*
X162912500Y-68475000D02*
X163237500Y-68475000D01*
G75*
G02*
X163400000Y-68637500I0J-162500D01*
G01*
X163400000Y-70362500D01*
G75*
G02*
X163237500Y-70525000I-162500J0D01*
G01*
X162912500Y-70525000D01*
G75*
G02*
X162750000Y-70362500I0J162500D01*
G01*
X162750000Y-68637500D01*
G75*
G02*
X162912500Y-68475000I162500J0D01*
G01*
G37*
G36*
G01*
X163562500Y-68475000D02*
X163887500Y-68475000D01*
G75*
G02*
X164050000Y-68637500I0J-162500D01*
G01*
X164050000Y-70362500D01*
G75*
G02*
X163887500Y-70525000I-162500J0D01*
G01*
X163562500Y-70525000D01*
G75*
G02*
X163400000Y-70362500I0J162500D01*
G01*
X163400000Y-68637500D01*
G75*
G02*
X163562500Y-68475000I162500J0D01*
G01*
G37*
G36*
G01*
X164212500Y-68475000D02*
X164537500Y-68475000D01*
G75*
G02*
X164700000Y-68637500I0J-162500D01*
G01*
X164700000Y-70362500D01*
G75*
G02*
X164537500Y-70525000I-162500J0D01*
G01*
X164212500Y-70525000D01*
G75*
G02*
X164050000Y-70362500I0J162500D01*
G01*
X164050000Y-68637500D01*
G75*
G02*
X164212500Y-68475000I162500J0D01*
G01*
G37*
G36*
G01*
X164862500Y-68475000D02*
X165187500Y-68475000D01*
G75*
G02*
X165350000Y-68637500I0J-162500D01*
G01*
X165350000Y-70362500D01*
G75*
G02*
X165187500Y-70525000I-162500J0D01*
G01*
X164862500Y-70525000D01*
G75*
G02*
X164700000Y-70362500I0J162500D01*
G01*
X164700000Y-68637500D01*
G75*
G02*
X164862500Y-68475000I162500J0D01*
G01*
G37*
%TD*%
%TO.C,SW2*%
G36*
G01*
X170450000Y-100075000D02*
X170450000Y-100835000D01*
G75*
G02*
X170375000Y-100910000I-75000J0D01*
G01*
X169125000Y-100910000D01*
G75*
G02*
X169050000Y-100835000I0J75000D01*
G01*
X169050000Y-100075000D01*
G75*
G02*
X169125000Y-100000000I75000J0D01*
G01*
X170375000Y-100000000D01*
G75*
G02*
X170450000Y-100075000I0J-75000D01*
G01*
G37*
G36*
G01*
X162850000Y-98805000D02*
X162850000Y-99565000D01*
G75*
G02*
X162775000Y-99640000I-75000J0D01*
G01*
X161525000Y-99640000D01*
G75*
G02*
X161450000Y-99565000I0J75000D01*
G01*
X161450000Y-98805000D01*
G75*
G02*
X161525000Y-98730000I75000J0D01*
G01*
X162775000Y-98730000D01*
G75*
G02*
X162850000Y-98805000I0J-75000D01*
G01*
G37*
G36*
G01*
X170450000Y-98805000D02*
X170450000Y-99565000D01*
G75*
G02*
X170375000Y-99640000I-75000J0D01*
G01*
X169125000Y-99640000D01*
G75*
G02*
X169050000Y-99565000I0J75000D01*
G01*
X169050000Y-98805000D01*
G75*
G02*
X169125000Y-98730000I75000J0D01*
G01*
X170375000Y-98730000D01*
G75*
G02*
X170450000Y-98805000I0J-75000D01*
G01*
G37*
G36*
G01*
X162850000Y-100075000D02*
X162850000Y-100835000D01*
G75*
G02*
X162775000Y-100910000I-75000J0D01*
G01*
X161525000Y-100910000D01*
G75*
G02*
X161450000Y-100835000I0J75000D01*
G01*
X161450000Y-100075000D01*
G75*
G02*
X161525000Y-100000000I75000J0D01*
G01*
X162775000Y-100000000D01*
G75*
G02*
X162850000Y-100075000I0J-75000D01*
G01*
G37*
%TD*%
%TO.C,SW1*%
G36*
G01*
X192275000Y-89275000D02*
X192275000Y-90775000D01*
G75*
G02*
X192200000Y-90850000I-75000J0D01*
G01*
X190500000Y-90850000D01*
G75*
G02*
X190425000Y-90775000I0J75000D01*
G01*
X190425000Y-89275000D01*
G75*
G02*
X190500000Y-89200000I75000J0D01*
G01*
X192200000Y-89200000D01*
G75*
G02*
X192275000Y-89275000I0J-75000D01*
G01*
G37*
G36*
G01*
X185775000Y-89275000D02*
X185775000Y-90775000D01*
G75*
G02*
X185700000Y-90850000I-75000J0D01*
G01*
X184000000Y-90850000D01*
G75*
G02*
X183925000Y-90775000I0J75000D01*
G01*
X183925000Y-89275000D01*
G75*
G02*
X184000000Y-89200000I75000J0D01*
G01*
X185700000Y-89200000D01*
G75*
G02*
X185775000Y-89275000I0J-75000D01*
G01*
G37*
%TD*%
%TO.C,Q4*%
G36*
G01*
X172910000Y-93125000D02*
X173710000Y-93125000D01*
G75*
G02*
X173785000Y-93200000I0J-75000D01*
G01*
X173785000Y-94100000D01*
G75*
G02*
X173710000Y-94175000I-75000J0D01*
G01*
X172910000Y-94175000D01*
G75*
G02*
X172835000Y-94100000I0J75000D01*
G01*
X172835000Y-93200000D01*
G75*
G02*
X172910000Y-93125000I75000J0D01*
G01*
G37*
G36*
G01*
X171010000Y-93125000D02*
X171810000Y-93125000D01*
G75*
G02*
X171885000Y-93200000I0J-75000D01*
G01*
X171885000Y-94100000D01*
G75*
G02*
X171810000Y-94175000I-75000J0D01*
G01*
X171010000Y-94175000D01*
G75*
G02*
X170935000Y-94100000I0J75000D01*
G01*
X170935000Y-93200000D01*
G75*
G02*
X171010000Y-93125000I75000J0D01*
G01*
G37*
G36*
G01*
X171960000Y-95125000D02*
X172760000Y-95125000D01*
G75*
G02*
X172835000Y-95200000I0J-75000D01*
G01*
X172835000Y-96100000D01*
G75*
G02*
X172760000Y-96175000I-75000J0D01*
G01*
X171960000Y-96175000D01*
G75*
G02*
X171885000Y-96100000I0J75000D01*
G01*
X171885000Y-95200000D01*
G75*
G02*
X171960000Y-95125000I75000J0D01*
G01*
G37*
%TD*%
%TO.C,Q3*%
G36*
G01*
X167570000Y-93165000D02*
X168370000Y-93165000D01*
G75*
G02*
X168445000Y-93240000I0J-75000D01*
G01*
X168445000Y-94140000D01*
G75*
G02*
X168370000Y-94215000I-75000J0D01*
G01*
X167570000Y-94215000D01*
G75*
G02*
X167495000Y-94140000I0J75000D01*
G01*
X167495000Y-93240000D01*
G75*
G02*
X167570000Y-93165000I75000J0D01*
G01*
G37*
G36*
G01*
X165670000Y-93165000D02*
X166470000Y-93165000D01*
G75*
G02*
X166545000Y-93240000I0J-75000D01*
G01*
X166545000Y-94140000D01*
G75*
G02*
X166470000Y-94215000I-75000J0D01*
G01*
X165670000Y-94215000D01*
G75*
G02*
X165595000Y-94140000I0J75000D01*
G01*
X165595000Y-93240000D01*
G75*
G02*
X165670000Y-93165000I75000J0D01*
G01*
G37*
G36*
G01*
X166620000Y-95165000D02*
X167420000Y-95165000D01*
G75*
G02*
X167495000Y-95240000I0J-75000D01*
G01*
X167495000Y-96140000D01*
G75*
G02*
X167420000Y-96215000I-75000J0D01*
G01*
X166620000Y-96215000D01*
G75*
G02*
X166545000Y-96140000I0J75000D01*
G01*
X166545000Y-95240000D01*
G75*
G02*
X166620000Y-95165000I75000J0D01*
G01*
G37*
%TD*%
%TO.C,LD1*%
G36*
G01*
X261203685Y-125415000D02*
X259856315Y-125415000D01*
G75*
G02*
X259580000Y-125138685I0J276315D01*
G01*
X259580000Y-124116315D01*
G75*
G02*
X259856315Y-123840000I276315J0D01*
G01*
X261203685Y-123840000D01*
G75*
G02*
X261480000Y-124116315I0J-276315D01*
G01*
X261480000Y-125138685D01*
G75*
G02*
X261203685Y-125415000I-276315J0D01*
G01*
G37*
G36*
G01*
X261203685Y-122440000D02*
X259856315Y-122440000D01*
G75*
G02*
X259580000Y-122163685I0J276315D01*
G01*
X259580000Y-121141315D01*
G75*
G02*
X259856315Y-120865000I276315J0D01*
G01*
X261203685Y-120865000D01*
G75*
G02*
X261480000Y-121141315I0J-276315D01*
G01*
X261480000Y-122163685D01*
G75*
G02*
X261203685Y-122440000I-276315J0D01*
G01*
G37*
%TD*%
%TO.C,J4*%
G36*
G01*
X163962000Y-53100000D02*
X163962000Y-54100000D01*
G75*
G02*
X163860000Y-54202000I-102000J0D01*
G01*
X163340000Y-54202000D01*
G75*
G02*
X163238000Y-54100000I0J102000D01*
G01*
X163238000Y-53100000D01*
G75*
G02*
X163340000Y-52998000I102000J0D01*
G01*
X163860000Y-52998000D01*
G75*
G02*
X163962000Y-53100000I0J-102000D01*
G01*
G37*
G36*
G01*
X157762000Y-53100000D02*
X157762000Y-54100000D01*
G75*
G02*
X157660000Y-54202000I-102000J0D01*
G01*
X157140000Y-54202000D01*
G75*
G02*
X157038000Y-54100000I0J102000D01*
G01*
X157038000Y-53100000D01*
G75*
G02*
X157140000Y-52998000I102000J0D01*
G01*
X157660000Y-52998000D01*
G75*
G02*
X157762000Y-53100000I0J-102000D01*
G01*
G37*
G36*
G01*
X163212000Y-53100000D02*
X163212000Y-54100000D01*
G75*
G02*
X163110000Y-54202000I-102000J0D01*
G01*
X162590000Y-54202000D01*
G75*
G02*
X162488000Y-54100000I0J102000D01*
G01*
X162488000Y-53100000D01*
G75*
G02*
X162590000Y-52998000I102000J0D01*
G01*
X163110000Y-52998000D01*
G75*
G02*
X163212000Y-53100000I0J-102000D01*
G01*
G37*
G36*
G01*
X158512000Y-53100000D02*
X158512000Y-54100000D01*
G75*
G02*
X158410000Y-54202000I-102000J0D01*
G01*
X157890000Y-54202000D01*
G75*
G02*
X157788000Y-54100000I0J102000D01*
G01*
X157788000Y-53100000D01*
G75*
G02*
X157890000Y-52998000I102000J0D01*
G01*
X158410000Y-52998000D01*
G75*
G02*
X158512000Y-53100000I0J-102000D01*
G01*
G37*
G36*
G01*
X162487000Y-53100000D02*
X162487000Y-54100000D01*
G75*
G02*
X162385000Y-54202000I-102000J0D01*
G01*
X162115000Y-54202000D01*
G75*
G02*
X162013000Y-54100000I0J102000D01*
G01*
X162013000Y-53100000D01*
G75*
G02*
X162115000Y-52998000I102000J0D01*
G01*
X162385000Y-52998000D01*
G75*
G02*
X162487000Y-53100000I0J-102000D01*
G01*
G37*
G36*
G01*
X158987000Y-53100000D02*
X158987000Y-54100000D01*
G75*
G02*
X158885000Y-54202000I-102000J0D01*
G01*
X158615000Y-54202000D01*
G75*
G02*
X158513000Y-54100000I0J102000D01*
G01*
X158513000Y-53100000D01*
G75*
G02*
X158615000Y-52998000I102000J0D01*
G01*
X158885000Y-52998000D01*
G75*
G02*
X158987000Y-53100000I0J-102000D01*
G01*
G37*
G36*
G01*
X161987000Y-53100000D02*
X161987000Y-54100000D01*
G75*
G02*
X161885000Y-54202000I-102000J0D01*
G01*
X161615000Y-54202000D01*
G75*
G02*
X161513000Y-54100000I0J102000D01*
G01*
X161513000Y-53100000D01*
G75*
G02*
X161615000Y-52998000I102000J0D01*
G01*
X161885000Y-52998000D01*
G75*
G02*
X161987000Y-53100000I0J-102000D01*
G01*
G37*
G36*
G01*
X161487000Y-53100000D02*
X161487000Y-54100000D01*
G75*
G02*
X161385000Y-54202000I-102000J0D01*
G01*
X161115000Y-54202000D01*
G75*
G02*
X161013000Y-54100000I0J102000D01*
G01*
X161013000Y-53100000D01*
G75*
G02*
X161115000Y-52998000I102000J0D01*
G01*
X161385000Y-52998000D01*
G75*
G02*
X161487000Y-53100000I0J-102000D01*
G01*
G37*
G36*
G01*
X160987000Y-53100000D02*
X160987000Y-54100000D01*
G75*
G02*
X160885000Y-54202000I-102000J0D01*
G01*
X160615000Y-54202000D01*
G75*
G02*
X160513000Y-54100000I0J102000D01*
G01*
X160513000Y-53100000D01*
G75*
G02*
X160615000Y-52998000I102000J0D01*
G01*
X160885000Y-52998000D01*
G75*
G02*
X160987000Y-53100000I0J-102000D01*
G01*
G37*
G36*
G01*
X160487000Y-53100000D02*
X160487000Y-54100000D01*
G75*
G02*
X160385000Y-54202000I-102000J0D01*
G01*
X160115000Y-54202000D01*
G75*
G02*
X160013000Y-54100000I0J102000D01*
G01*
X160013000Y-53100000D01*
G75*
G02*
X160115000Y-52998000I102000J0D01*
G01*
X160385000Y-52998000D01*
G75*
G02*
X160487000Y-53100000I0J-102000D01*
G01*
G37*
G36*
G01*
X159987000Y-53100000D02*
X159987000Y-54100000D01*
G75*
G02*
X159885000Y-54202000I-102000J0D01*
G01*
X159615000Y-54202000D01*
G75*
G02*
X159513000Y-54100000I0J102000D01*
G01*
X159513000Y-53100000D01*
G75*
G02*
X159615000Y-52998000I102000J0D01*
G01*
X159885000Y-52998000D01*
G75*
G02*
X159987000Y-53100000I0J-102000D01*
G01*
G37*
G36*
G01*
X159487000Y-53100000D02*
X159487000Y-54100000D01*
G75*
G02*
X159385000Y-54202000I-102000J0D01*
G01*
X159115000Y-54202000D01*
G75*
G02*
X159013000Y-54100000I0J102000D01*
G01*
X159013000Y-53100000D01*
G75*
G02*
X159115000Y-52998000I102000J0D01*
G01*
X159385000Y-52998000D01*
G75*
G02*
X159487000Y-53100000I0J-102000D01*
G01*
G37*
D10*
X157500000Y-52500000D03*
D11*
X157500000Y-52500000D03*
G36*
G01*
X162502000Y-48400000D02*
X162502000Y-50400000D01*
G75*
G02*
X162400000Y-50502000I-102000J0D01*
G01*
X161400000Y-50502000D01*
G75*
G02*
X161298000Y-50400000I0J102000D01*
G01*
X161298000Y-48400000D01*
G75*
G02*
X161400000Y-48298000I102000J0D01*
G01*
X162400000Y-48298000D01*
G75*
G02*
X162502000Y-48400000I0J-102000D01*
G01*
G37*
G36*
G01*
X159702000Y-48400000D02*
X159702000Y-50400000D01*
G75*
G02*
X159600000Y-50502000I-102000J0D01*
G01*
X158600000Y-50502000D01*
G75*
G02*
X158498000Y-50400000I0J102000D01*
G01*
X158498000Y-48400000D01*
G75*
G02*
X158600000Y-48298000I102000J0D01*
G01*
X159600000Y-48298000D01*
G75*
G02*
X159702000Y-48400000I0J-102000D01*
G01*
G37*
X163500000Y-52500000D03*
D12*
X164820000Y-53225000D03*
X156180000Y-53225000D03*
D13*
X164820000Y-49400000D03*
X156180000Y-49400000D03*
%TD*%
%TO.C,J3*%
G36*
G01*
X244077000Y-48124999D02*
X244077000Y-50025001D01*
G75*
G02*
X243975001Y-50127000I-101999J0D01*
G01*
X242674999Y-50127000D01*
G75*
G02*
X242573000Y-50025001I0J101999D01*
G01*
X242573000Y-48124999D01*
G75*
G02*
X242674999Y-48023000I101999J0D01*
G01*
X243975001Y-48023000D01*
G75*
G02*
X244077000Y-48124999I0J-101999D01*
G01*
G37*
G36*
G01*
X257427000Y-48125000D02*
X257427000Y-50925000D01*
G75*
G02*
X257325000Y-51027000I-102000J0D01*
G01*
X256325000Y-51027000D01*
G75*
G02*
X256223000Y-50925000I0J102000D01*
G01*
X256223000Y-48125000D01*
G75*
G02*
X256325000Y-48023000I102000J0D01*
G01*
X257325000Y-48023000D01*
G75*
G02*
X257427000Y-48125000I0J-102000D01*
G01*
G37*
G36*
G01*
X257427000Y-53275000D02*
X257427000Y-54075000D01*
G75*
G02*
X257325000Y-54177000I-102000J0D01*
G01*
X256325000Y-54177000D01*
G75*
G02*
X256223000Y-54075000I0J102000D01*
G01*
X256223000Y-53275000D01*
G75*
G02*
X256325000Y-53173000I102000J0D01*
G01*
X257325000Y-53173000D01*
G75*
G02*
X257427000Y-53275000I0J-102000D01*
G01*
G37*
G36*
G01*
X257427000Y-59275000D02*
X257427000Y-60475000D01*
G75*
G02*
X257325000Y-60577000I-102000J0D01*
G01*
X256325000Y-60577000D01*
G75*
G02*
X256223000Y-60475000I0J102000D01*
G01*
X256223000Y-59275000D01*
G75*
G02*
X256325000Y-59173000I102000J0D01*
G01*
X257325000Y-59173000D01*
G75*
G02*
X257427000Y-59275000I0J-102000D01*
G01*
G37*
G36*
G01*
X246277000Y-63575000D02*
X246277000Y-64775000D01*
G75*
G02*
X246175000Y-64877000I-102000J0D01*
G01*
X245175000Y-64877000D01*
G75*
G02*
X245073000Y-64775000I0J102000D01*
G01*
X245073000Y-63575000D01*
G75*
G02*
X245175000Y-63473000I102000J0D01*
G01*
X246175000Y-63473000D01*
G75*
G02*
X246277000Y-63575000I0J-102000D01*
G01*
G37*
G36*
G01*
X256327000Y-63575000D02*
X256327000Y-64775000D01*
G75*
G02*
X256225000Y-64877000I-102000J0D01*
G01*
X255525000Y-64877000D01*
G75*
G02*
X255423000Y-64775000I0J102000D01*
G01*
X255423000Y-63575000D01*
G75*
G02*
X255525000Y-63473000I102000J0D01*
G01*
X256225000Y-63473000D01*
G75*
G02*
X256327000Y-63575000I0J-102000D01*
G01*
G37*
G36*
G01*
X255377000Y-63575000D02*
X255377000Y-64775000D01*
G75*
G02*
X255275000Y-64877000I-102000J0D01*
G01*
X254575000Y-64877000D01*
G75*
G02*
X254473000Y-64775000I0J102000D01*
G01*
X254473000Y-63575000D01*
G75*
G02*
X254575000Y-63473000I102000J0D01*
G01*
X255275000Y-63473000D01*
G75*
G02*
X255377000Y-63575000I0J-102000D01*
G01*
G37*
G36*
G01*
X254277000Y-63575000D02*
X254277000Y-64775000D01*
G75*
G02*
X254175000Y-64877000I-102000J0D01*
G01*
X253475000Y-64877000D01*
G75*
G02*
X253373000Y-64775000I0J102000D01*
G01*
X253373000Y-63575000D01*
G75*
G02*
X253475000Y-63473000I102000J0D01*
G01*
X254175000Y-63473000D01*
G75*
G02*
X254277000Y-63575000I0J-102000D01*
G01*
G37*
G36*
G01*
X253177000Y-63575000D02*
X253177000Y-64775000D01*
G75*
G02*
X253075000Y-64877000I-102000J0D01*
G01*
X252375000Y-64877000D01*
G75*
G02*
X252273000Y-64775000I0J102000D01*
G01*
X252273000Y-63575000D01*
G75*
G02*
X252375000Y-63473000I102000J0D01*
G01*
X253075000Y-63473000D01*
G75*
G02*
X253177000Y-63575000I0J-102000D01*
G01*
G37*
G36*
G01*
X252077000Y-63575000D02*
X252077000Y-64775000D01*
G75*
G02*
X251975000Y-64877000I-102000J0D01*
G01*
X251275000Y-64877000D01*
G75*
G02*
X251173000Y-64775000I0J102000D01*
G01*
X251173000Y-63575000D01*
G75*
G02*
X251275000Y-63473000I102000J0D01*
G01*
X251975000Y-63473000D01*
G75*
G02*
X252077000Y-63575000I0J-102000D01*
G01*
G37*
G36*
G01*
X250977000Y-63575000D02*
X250977000Y-64775000D01*
G75*
G02*
X250875000Y-64877000I-102000J0D01*
G01*
X250175000Y-64877000D01*
G75*
G02*
X250073000Y-64775000I0J102000D01*
G01*
X250073000Y-63575000D01*
G75*
G02*
X250175000Y-63473000I102000J0D01*
G01*
X250875000Y-63473000D01*
G75*
G02*
X250977000Y-63575000I0J-102000D01*
G01*
G37*
G36*
G01*
X249877000Y-63575000D02*
X249877000Y-64775000D01*
G75*
G02*
X249775000Y-64877000I-102000J0D01*
G01*
X249075000Y-64877000D01*
G75*
G02*
X248973000Y-64775000I0J102000D01*
G01*
X248973000Y-63575000D01*
G75*
G02*
X249075000Y-63473000I102000J0D01*
G01*
X249775000Y-63473000D01*
G75*
G02*
X249877000Y-63575000I0J-102000D01*
G01*
G37*
G36*
G01*
X248777000Y-63575000D02*
X248777000Y-64775000D01*
G75*
G02*
X248675000Y-64877000I-102000J0D01*
G01*
X247975000Y-64877000D01*
G75*
G02*
X247873000Y-64775000I0J102000D01*
G01*
X247873000Y-63575000D01*
G75*
G02*
X247975000Y-63473000I102000J0D01*
G01*
X248675000Y-63473000D01*
G75*
G02*
X248777000Y-63575000I0J-102000D01*
G01*
G37*
G36*
G01*
X247677000Y-63575000D02*
X247677000Y-64775000D01*
G75*
G02*
X247575000Y-64877000I-102000J0D01*
G01*
X246875000Y-64877000D01*
G75*
G02*
X246773000Y-64775000I0J102000D01*
G01*
X246773000Y-63575000D01*
G75*
G02*
X246875000Y-63473000I102000J0D01*
G01*
X247575000Y-63473000D01*
G75*
G02*
X247677000Y-63575000I0J-102000D01*
G01*
G37*
%TD*%
%TO.C,D4*%
G36*
G01*
X161075000Y-84800000D02*
X161075000Y-89300000D01*
G75*
G02*
X161000000Y-89375000I-75000J0D01*
G01*
X157700000Y-89375000D01*
G75*
G02*
X157625000Y-89300000I0J75000D01*
G01*
X157625000Y-84800000D01*
G75*
G02*
X157700000Y-84725000I75000J0D01*
G01*
X161000000Y-84725000D01*
G75*
G02*
X161075000Y-84800000I0J-75000D01*
G01*
G37*
G36*
G01*
X161075000Y-76000000D02*
X161075000Y-80500000D01*
G75*
G02*
X161000000Y-80575000I-75000J0D01*
G01*
X157700000Y-80575000D01*
G75*
G02*
X157625000Y-80500000I0J75000D01*
G01*
X157625000Y-76000000D01*
G75*
G02*
X157700000Y-75925000I75000J0D01*
G01*
X161000000Y-75925000D01*
G75*
G02*
X161075000Y-76000000I0J-75000D01*
G01*
G37*
%TD*%
%TO.C,D3*%
G36*
G01*
X169130000Y-90325000D02*
X164630000Y-90325000D01*
G75*
G02*
X164555000Y-90250000I0J75000D01*
G01*
X164555000Y-86950000D01*
G75*
G02*
X164630000Y-86875000I75000J0D01*
G01*
X169130000Y-86875000D01*
G75*
G02*
X169205000Y-86950000I0J-75000D01*
G01*
X169205000Y-90250000D01*
G75*
G02*
X169130000Y-90325000I-75000J0D01*
G01*
G37*
G36*
G01*
X177930000Y-90325000D02*
X173430000Y-90325000D01*
G75*
G02*
X173355000Y-90250000I0J75000D01*
G01*
X173355000Y-86950000D01*
G75*
G02*
X173430000Y-86875000I75000J0D01*
G01*
X177930000Y-86875000D01*
G75*
G02*
X178005000Y-86950000I0J-75000D01*
G01*
X178005000Y-90250000D01*
G75*
G02*
X177930000Y-90325000I-75000J0D01*
G01*
G37*
%TD*%
%TO.C,C51*%
G36*
G01*
X144450000Y-92025000D02*
X144450000Y-93975000D01*
G75*
G02*
X144175000Y-94250000I-275000J0D01*
G01*
X143075000Y-94250000D01*
G75*
G02*
X142800000Y-93975000I0J275000D01*
G01*
X142800000Y-92025000D01*
G75*
G02*
X143075000Y-91750000I275000J0D01*
G01*
X144175000Y-91750000D01*
G75*
G02*
X144450000Y-92025000I0J-275000D01*
G01*
G37*
G36*
G01*
X141200000Y-92025000D02*
X141200000Y-93975000D01*
G75*
G02*
X140925000Y-94250000I-275000J0D01*
G01*
X139825000Y-94250000D01*
G75*
G02*
X139550000Y-93975000I0J275000D01*
G01*
X139550000Y-92025000D01*
G75*
G02*
X139825000Y-91750000I275000J0D01*
G01*
X140925000Y-91750000D01*
G75*
G02*
X141200000Y-92025000I0J-275000D01*
G01*
G37*
%TD*%
%TO.C,C48*%
G36*
G01*
X143450000Y-69025000D02*
X143450000Y-70975000D01*
G75*
G02*
X143175000Y-71250000I-275000J0D01*
G01*
X142075000Y-71250000D01*
G75*
G02*
X141800000Y-70975000I0J275000D01*
G01*
X141800000Y-69025000D01*
G75*
G02*
X142075000Y-68750000I275000J0D01*
G01*
X143175000Y-68750000D01*
G75*
G02*
X143450000Y-69025000I0J-275000D01*
G01*
G37*
G36*
G01*
X140200000Y-69025000D02*
X140200000Y-70975000D01*
G75*
G02*
X139925000Y-71250000I-275000J0D01*
G01*
X138825000Y-71250000D01*
G75*
G02*
X138550000Y-70975000I0J275000D01*
G01*
X138550000Y-69025000D01*
G75*
G02*
X138825000Y-68750000I275000J0D01*
G01*
X139925000Y-68750000D01*
G75*
G02*
X140200000Y-69025000I0J-275000D01*
G01*
G37*
%TD*%
%TO.C,C47*%
G36*
G01*
X143450000Y-64025000D02*
X143450000Y-65975000D01*
G75*
G02*
X143175000Y-66250000I-275000J0D01*
G01*
X142075000Y-66250000D01*
G75*
G02*
X141800000Y-65975000I0J275000D01*
G01*
X141800000Y-64025000D01*
G75*
G02*
X142075000Y-63750000I275000J0D01*
G01*
X143175000Y-63750000D01*
G75*
G02*
X143450000Y-64025000I0J-275000D01*
G01*
G37*
G36*
G01*
X140200000Y-64025000D02*
X140200000Y-65975000D01*
G75*
G02*
X139925000Y-66250000I-275000J0D01*
G01*
X138825000Y-66250000D01*
G75*
G02*
X138550000Y-65975000I0J275000D01*
G01*
X138550000Y-64025000D01*
G75*
G02*
X138825000Y-63750000I275000J0D01*
G01*
X139925000Y-63750000D01*
G75*
G02*
X140200000Y-64025000I0J-275000D01*
G01*
G37*
%TD*%
%TO.C,C45*%
G36*
G01*
X136025000Y-81550000D02*
X137975000Y-81550000D01*
G75*
G02*
X138250000Y-81825000I0J-275000D01*
G01*
X138250000Y-82925000D01*
G75*
G02*
X137975000Y-83200000I-275000J0D01*
G01*
X136025000Y-83200000D01*
G75*
G02*
X135750000Y-82925000I0J275000D01*
G01*
X135750000Y-81825000D01*
G75*
G02*
X136025000Y-81550000I275000J0D01*
G01*
G37*
G36*
G01*
X136025000Y-84800000D02*
X137975000Y-84800000D01*
G75*
G02*
X138250000Y-85075000I0J-275000D01*
G01*
X138250000Y-86175000D01*
G75*
G02*
X137975000Y-86450000I-275000J0D01*
G01*
X136025000Y-86450000D01*
G75*
G02*
X135750000Y-86175000I0J275000D01*
G01*
X135750000Y-85075000D01*
G75*
G02*
X136025000Y-84800000I275000J0D01*
G01*
G37*
%TD*%
%TO.C,U11*%
G36*
G01*
X219425000Y-80262500D02*
X219425000Y-79987500D01*
G75*
G02*
X219562500Y-79850000I137500J0D01*
G01*
X220912500Y-79850000D01*
G75*
G02*
X221050000Y-79987500I0J-137500D01*
G01*
X221050000Y-80262500D01*
G75*
G02*
X220912500Y-80400000I-137500J0D01*
G01*
X219562500Y-80400000D01*
G75*
G02*
X219425000Y-80262500I0J137500D01*
G01*
G37*
G36*
G01*
X219425000Y-80912500D02*
X219425000Y-80637500D01*
G75*
G02*
X219562500Y-80500000I137500J0D01*
G01*
X220912500Y-80500000D01*
G75*
G02*
X221050000Y-80637500I0J-137500D01*
G01*
X221050000Y-80912500D01*
G75*
G02*
X220912500Y-81050000I-137500J0D01*
G01*
X219562500Y-81050000D01*
G75*
G02*
X219425000Y-80912500I0J137500D01*
G01*
G37*
G36*
G01*
X219425000Y-81562500D02*
X219425000Y-81287500D01*
G75*
G02*
X219562500Y-81150000I137500J0D01*
G01*
X220912500Y-81150000D01*
G75*
G02*
X221050000Y-81287500I0J-137500D01*
G01*
X221050000Y-81562500D01*
G75*
G02*
X220912500Y-81700000I-137500J0D01*
G01*
X219562500Y-81700000D01*
G75*
G02*
X219425000Y-81562500I0J137500D01*
G01*
G37*
G36*
G01*
X219425000Y-82212500D02*
X219425000Y-81937500D01*
G75*
G02*
X219562500Y-81800000I137500J0D01*
G01*
X220912500Y-81800000D01*
G75*
G02*
X221050000Y-81937500I0J-137500D01*
G01*
X221050000Y-82212500D01*
G75*
G02*
X220912500Y-82350000I-137500J0D01*
G01*
X219562500Y-82350000D01*
G75*
G02*
X219425000Y-82212500I0J137500D01*
G01*
G37*
G36*
G01*
X219425000Y-82862500D02*
X219425000Y-82587500D01*
G75*
G02*
X219562500Y-82450000I137500J0D01*
G01*
X220912500Y-82450000D01*
G75*
G02*
X221050000Y-82587500I0J-137500D01*
G01*
X221050000Y-82862500D01*
G75*
G02*
X220912500Y-83000000I-137500J0D01*
G01*
X219562500Y-83000000D01*
G75*
G02*
X219425000Y-82862500I0J137500D01*
G01*
G37*
G36*
G01*
X219425000Y-83512500D02*
X219425000Y-83237500D01*
G75*
G02*
X219562500Y-83100000I137500J0D01*
G01*
X220912500Y-83100000D01*
G75*
G02*
X221050000Y-83237500I0J-137500D01*
G01*
X221050000Y-83512500D01*
G75*
G02*
X220912500Y-83650000I-137500J0D01*
G01*
X219562500Y-83650000D01*
G75*
G02*
X219425000Y-83512500I0J137500D01*
G01*
G37*
G36*
G01*
X219425000Y-84162500D02*
X219425000Y-83887500D01*
G75*
G02*
X219562500Y-83750000I137500J0D01*
G01*
X220912500Y-83750000D01*
G75*
G02*
X221050000Y-83887500I0J-137500D01*
G01*
X221050000Y-84162500D01*
G75*
G02*
X220912500Y-84300000I-137500J0D01*
G01*
X219562500Y-84300000D01*
G75*
G02*
X219425000Y-84162500I0J137500D01*
G01*
G37*
G36*
G01*
X219425000Y-84812500D02*
X219425000Y-84537500D01*
G75*
G02*
X219562500Y-84400000I137500J0D01*
G01*
X220912500Y-84400000D01*
G75*
G02*
X221050000Y-84537500I0J-137500D01*
G01*
X221050000Y-84812500D01*
G75*
G02*
X220912500Y-84950000I-137500J0D01*
G01*
X219562500Y-84950000D01*
G75*
G02*
X219425000Y-84812500I0J137500D01*
G01*
G37*
G36*
G01*
X225150000Y-84812500D02*
X225150000Y-84537500D01*
G75*
G02*
X225287500Y-84400000I137500J0D01*
G01*
X226637500Y-84400000D01*
G75*
G02*
X226775000Y-84537500I0J-137500D01*
G01*
X226775000Y-84812500D01*
G75*
G02*
X226637500Y-84950000I-137500J0D01*
G01*
X225287500Y-84950000D01*
G75*
G02*
X225150000Y-84812500I0J137500D01*
G01*
G37*
G36*
G01*
X225150000Y-84162500D02*
X225150000Y-83887500D01*
G75*
G02*
X225287500Y-83750000I137500J0D01*
G01*
X226637500Y-83750000D01*
G75*
G02*
X226775000Y-83887500I0J-137500D01*
G01*
X226775000Y-84162500D01*
G75*
G02*
X226637500Y-84300000I-137500J0D01*
G01*
X225287500Y-84300000D01*
G75*
G02*
X225150000Y-84162500I0J137500D01*
G01*
G37*
G36*
G01*
X225150000Y-83512500D02*
X225150000Y-83237500D01*
G75*
G02*
X225287500Y-83100000I137500J0D01*
G01*
X226637500Y-83100000D01*
G75*
G02*
X226775000Y-83237500I0J-137500D01*
G01*
X226775000Y-83512500D01*
G75*
G02*
X226637500Y-83650000I-137500J0D01*
G01*
X225287500Y-83650000D01*
G75*
G02*
X225150000Y-83512500I0J137500D01*
G01*
G37*
G36*
G01*
X225150000Y-82862500D02*
X225150000Y-82587500D01*
G75*
G02*
X225287500Y-82450000I137500J0D01*
G01*
X226637500Y-82450000D01*
G75*
G02*
X226775000Y-82587500I0J-137500D01*
G01*
X226775000Y-82862500D01*
G75*
G02*
X226637500Y-83000000I-137500J0D01*
G01*
X225287500Y-83000000D01*
G75*
G02*
X225150000Y-82862500I0J137500D01*
G01*
G37*
G36*
G01*
X225150000Y-82212500D02*
X225150000Y-81937500D01*
G75*
G02*
X225287500Y-81800000I137500J0D01*
G01*
X226637500Y-81800000D01*
G75*
G02*
X226775000Y-81937500I0J-137500D01*
G01*
X226775000Y-82212500D01*
G75*
G02*
X226637500Y-82350000I-137500J0D01*
G01*
X225287500Y-82350000D01*
G75*
G02*
X225150000Y-82212500I0J137500D01*
G01*
G37*
G36*
G01*
X225150000Y-81562500D02*
X225150000Y-81287500D01*
G75*
G02*
X225287500Y-81150000I137500J0D01*
G01*
X226637500Y-81150000D01*
G75*
G02*
X226775000Y-81287500I0J-137500D01*
G01*
X226775000Y-81562500D01*
G75*
G02*
X226637500Y-81700000I-137500J0D01*
G01*
X225287500Y-81700000D01*
G75*
G02*
X225150000Y-81562500I0J137500D01*
G01*
G37*
G36*
G01*
X225150000Y-80912500D02*
X225150000Y-80637500D01*
G75*
G02*
X225287500Y-80500000I137500J0D01*
G01*
X226637500Y-80500000D01*
G75*
G02*
X226775000Y-80637500I0J-137500D01*
G01*
X226775000Y-80912500D01*
G75*
G02*
X226637500Y-81050000I-137500J0D01*
G01*
X225287500Y-81050000D01*
G75*
G02*
X225150000Y-80912500I0J137500D01*
G01*
G37*
G36*
G01*
X225150000Y-80262500D02*
X225150000Y-79987500D01*
G75*
G02*
X225287500Y-79850000I137500J0D01*
G01*
X226637500Y-79850000D01*
G75*
G02*
X226775000Y-79987500I0J-137500D01*
G01*
X226775000Y-80262500D01*
G75*
G02*
X226637500Y-80400000I-137500J0D01*
G01*
X225287500Y-80400000D01*
G75*
G02*
X225150000Y-80262500I0J137500D01*
G01*
G37*
%TD*%
%TO.C,CART1*%
G36*
G01*
X207904800Y-204131000D02*
X209835200Y-204131000D01*
G75*
G02*
X209910200Y-204206000I0J-75000D01*
G01*
X209910200Y-209794000D01*
G75*
G02*
X209835200Y-209869000I-75000J0D01*
G01*
X207904800Y-209869000D01*
G75*
G02*
X207829800Y-209794000I0J75000D01*
G01*
X207829800Y-204206000D01*
G75*
G02*
X207904800Y-204131000I75000J0D01*
G01*
G37*
G36*
G01*
X210444800Y-204131000D02*
X212375200Y-204131000D01*
G75*
G02*
X212450200Y-204206000I0J-75000D01*
G01*
X212450200Y-209794000D01*
G75*
G02*
X212375200Y-209869000I-75000J0D01*
G01*
X210444800Y-209869000D01*
G75*
G02*
X210369800Y-209794000I0J75000D01*
G01*
X210369800Y-204206000D01*
G75*
G02*
X210444800Y-204131000I75000J0D01*
G01*
G37*
G36*
G01*
X212984800Y-204131000D02*
X214915200Y-204131000D01*
G75*
G02*
X214990200Y-204206000I0J-75000D01*
G01*
X214990200Y-209794000D01*
G75*
G02*
X214915200Y-209869000I-75000J0D01*
G01*
X212984800Y-209869000D01*
G75*
G02*
X212909800Y-209794000I0J75000D01*
G01*
X212909800Y-204206000D01*
G75*
G02*
X212984800Y-204131000I75000J0D01*
G01*
G37*
G36*
G01*
X215524800Y-204131000D02*
X217455200Y-204131000D01*
G75*
G02*
X217530200Y-204206000I0J-75000D01*
G01*
X217530200Y-209794000D01*
G75*
G02*
X217455200Y-209869000I-75000J0D01*
G01*
X215524800Y-209869000D01*
G75*
G02*
X215449800Y-209794000I0J75000D01*
G01*
X215449800Y-204206000D01*
G75*
G02*
X215524800Y-204131000I75000J0D01*
G01*
G37*
G36*
G01*
X218064800Y-204131000D02*
X219995200Y-204131000D01*
G75*
G02*
X220070200Y-204206000I0J-75000D01*
G01*
X220070200Y-209794000D01*
G75*
G02*
X219995200Y-209869000I-75000J0D01*
G01*
X218064800Y-209869000D01*
G75*
G02*
X217989800Y-209794000I0J75000D01*
G01*
X217989800Y-204206000D01*
G75*
G02*
X218064800Y-204131000I75000J0D01*
G01*
G37*
G36*
G01*
X220604800Y-204131000D02*
X222535200Y-204131000D01*
G75*
G02*
X222610200Y-204206000I0J-75000D01*
G01*
X222610200Y-209794000D01*
G75*
G02*
X222535200Y-209869000I-75000J0D01*
G01*
X220604800Y-209869000D01*
G75*
G02*
X220529800Y-209794000I0J75000D01*
G01*
X220529800Y-204206000D01*
G75*
G02*
X220604800Y-204131000I75000J0D01*
G01*
G37*
G36*
G01*
X223144800Y-204131000D02*
X225075200Y-204131000D01*
G75*
G02*
X225150200Y-204206000I0J-75000D01*
G01*
X225150200Y-209794000D01*
G75*
G02*
X225075200Y-209869000I-75000J0D01*
G01*
X223144800Y-209869000D01*
G75*
G02*
X223069800Y-209794000I0J75000D01*
G01*
X223069800Y-204206000D01*
G75*
G02*
X223144800Y-204131000I75000J0D01*
G01*
G37*
G36*
G01*
X225684800Y-204131000D02*
X227615200Y-204131000D01*
G75*
G02*
X227690200Y-204206000I0J-75000D01*
G01*
X227690200Y-209794000D01*
G75*
G02*
X227615200Y-209869000I-75000J0D01*
G01*
X225684800Y-209869000D01*
G75*
G02*
X225609800Y-209794000I0J75000D01*
G01*
X225609800Y-204206000D01*
G75*
G02*
X225684800Y-204131000I75000J0D01*
G01*
G37*
G36*
G01*
X228224800Y-204131000D02*
X230155200Y-204131000D01*
G75*
G02*
X230230200Y-204206000I0J-75000D01*
G01*
X230230200Y-209794000D01*
G75*
G02*
X230155200Y-209869000I-75000J0D01*
G01*
X228224800Y-209869000D01*
G75*
G02*
X228149800Y-209794000I0J75000D01*
G01*
X228149800Y-204206000D01*
G75*
G02*
X228224800Y-204131000I75000J0D01*
G01*
G37*
G36*
G01*
X230764800Y-204131000D02*
X232695200Y-204131000D01*
G75*
G02*
X232770200Y-204206000I0J-75000D01*
G01*
X232770200Y-209794000D01*
G75*
G02*
X232695200Y-209869000I-75000J0D01*
G01*
X230764800Y-209869000D01*
G75*
G02*
X230689800Y-209794000I0J75000D01*
G01*
X230689800Y-204206000D01*
G75*
G02*
X230764800Y-204131000I75000J0D01*
G01*
G37*
G36*
G01*
X233304800Y-204131000D02*
X235235200Y-204131000D01*
G75*
G02*
X235310200Y-204206000I0J-75000D01*
G01*
X235310200Y-209794000D01*
G75*
G02*
X235235200Y-209869000I-75000J0D01*
G01*
X233304800Y-209869000D01*
G75*
G02*
X233229800Y-209794000I0J75000D01*
G01*
X233229800Y-204206000D01*
G75*
G02*
X233304800Y-204131000I75000J0D01*
G01*
G37*
G36*
G01*
X235844800Y-204131000D02*
X237775200Y-204131000D01*
G75*
G02*
X237850200Y-204206000I0J-75000D01*
G01*
X237850200Y-209794000D01*
G75*
G02*
X237775200Y-209869000I-75000J0D01*
G01*
X235844800Y-209869000D01*
G75*
G02*
X235769800Y-209794000I0J75000D01*
G01*
X235769800Y-204206000D01*
G75*
G02*
X235844800Y-204131000I75000J0D01*
G01*
G37*
G36*
G01*
X238384800Y-204131000D02*
X240315200Y-204131000D01*
G75*
G02*
X240390200Y-204206000I0J-75000D01*
G01*
X240390200Y-209794000D01*
G75*
G02*
X240315200Y-209869000I-75000J0D01*
G01*
X238384800Y-209869000D01*
G75*
G02*
X238309800Y-209794000I0J75000D01*
G01*
X238309800Y-204206000D01*
G75*
G02*
X238384800Y-204131000I75000J0D01*
G01*
G37*
G36*
G01*
X240924800Y-204131000D02*
X242855200Y-204131000D01*
G75*
G02*
X242930200Y-204206000I0J-75000D01*
G01*
X242930200Y-209794000D01*
G75*
G02*
X242855200Y-209869000I-75000J0D01*
G01*
X240924800Y-209869000D01*
G75*
G02*
X240849800Y-209794000I0J75000D01*
G01*
X240849800Y-204206000D01*
G75*
G02*
X240924800Y-204131000I75000J0D01*
G01*
G37*
G36*
G01*
X243464800Y-204131000D02*
X245395200Y-204131000D01*
G75*
G02*
X245470200Y-204206000I0J-75000D01*
G01*
X245470200Y-209794000D01*
G75*
G02*
X245395200Y-209869000I-75000J0D01*
G01*
X243464800Y-209869000D01*
G75*
G02*
X243389800Y-209794000I0J75000D01*
G01*
X243389800Y-204206000D01*
G75*
G02*
X243464800Y-204131000I75000J0D01*
G01*
G37*
%TD*%
%TO.C,ECI1*%
G36*
G01*
X166834800Y-204131000D02*
X168765200Y-204131000D01*
G75*
G02*
X168840200Y-204206000I0J-75000D01*
G01*
X168840200Y-209794000D01*
G75*
G02*
X168765200Y-209869000I-75000J0D01*
G01*
X166834800Y-209869000D01*
G75*
G02*
X166759800Y-209794000I0J75000D01*
G01*
X166759800Y-204206000D01*
G75*
G02*
X166834800Y-204131000I75000J0D01*
G01*
G37*
G36*
G01*
X169374800Y-204131000D02*
X171305200Y-204131000D01*
G75*
G02*
X171380200Y-204206000I0J-75000D01*
G01*
X171380200Y-209794000D01*
G75*
G02*
X171305200Y-209869000I-75000J0D01*
G01*
X169374800Y-209869000D01*
G75*
G02*
X169299800Y-209794000I0J75000D01*
G01*
X169299800Y-204206000D01*
G75*
G02*
X169374800Y-204131000I75000J0D01*
G01*
G37*
G36*
G01*
X171914800Y-204131000D02*
X173845200Y-204131000D01*
G75*
G02*
X173920200Y-204206000I0J-75000D01*
G01*
X173920200Y-209794000D01*
G75*
G02*
X173845200Y-209869000I-75000J0D01*
G01*
X171914800Y-209869000D01*
G75*
G02*
X171839800Y-209794000I0J75000D01*
G01*
X171839800Y-204206000D01*
G75*
G02*
X171914800Y-204131000I75000J0D01*
G01*
G37*
G36*
G01*
X174454800Y-204131000D02*
X176385200Y-204131000D01*
G75*
G02*
X176460200Y-204206000I0J-75000D01*
G01*
X176460200Y-209794000D01*
G75*
G02*
X176385200Y-209869000I-75000J0D01*
G01*
X174454800Y-209869000D01*
G75*
G02*
X174379800Y-209794000I0J75000D01*
G01*
X174379800Y-204206000D01*
G75*
G02*
X174454800Y-204131000I75000J0D01*
G01*
G37*
G36*
G01*
X176994800Y-204131000D02*
X178925200Y-204131000D01*
G75*
G02*
X179000200Y-204206000I0J-75000D01*
G01*
X179000200Y-209794000D01*
G75*
G02*
X178925200Y-209869000I-75000J0D01*
G01*
X176994800Y-209869000D01*
G75*
G02*
X176919800Y-209794000I0J75000D01*
G01*
X176919800Y-204206000D01*
G75*
G02*
X176994800Y-204131000I75000J0D01*
G01*
G37*
G36*
G01*
X179534800Y-204131000D02*
X181465200Y-204131000D01*
G75*
G02*
X181540200Y-204206000I0J-75000D01*
G01*
X181540200Y-209794000D01*
G75*
G02*
X181465200Y-209869000I-75000J0D01*
G01*
X179534800Y-209869000D01*
G75*
G02*
X179459800Y-209794000I0J75000D01*
G01*
X179459800Y-204206000D01*
G75*
G02*
X179534800Y-204131000I75000J0D01*
G01*
G37*
G36*
G01*
X182074800Y-204131000D02*
X184005200Y-204131000D01*
G75*
G02*
X184080200Y-204206000I0J-75000D01*
G01*
X184080200Y-209794000D01*
G75*
G02*
X184005200Y-209869000I-75000J0D01*
G01*
X182074800Y-209869000D01*
G75*
G02*
X181999800Y-209794000I0J75000D01*
G01*
X181999800Y-204206000D01*
G75*
G02*
X182074800Y-204131000I75000J0D01*
G01*
G37*
%TD*%
D14*
%TO.C,JP2*%
X232860000Y-50000000D03*
G36*
G01*
X234550000Y-49075000D02*
X236250000Y-49075000D01*
G75*
G02*
X236325000Y-49150000I0J-75000D01*
G01*
X236325000Y-50850000D01*
G75*
G02*
X236250000Y-50925000I-75000J0D01*
G01*
X234550000Y-50925000D01*
G75*
G02*
X234475000Y-50850000I0J75000D01*
G01*
X234475000Y-49150000D01*
G75*
G02*
X234550000Y-49075000I75000J0D01*
G01*
G37*
%TD*%
%TO.C,LD3*%
G36*
G01*
X136673685Y-72300000D02*
X135326315Y-72300000D01*
G75*
G02*
X135050000Y-72023685I0J276315D01*
G01*
X135050000Y-71001315D01*
G75*
G02*
X135326315Y-70725000I276315J0D01*
G01*
X136673685Y-70725000D01*
G75*
G02*
X136950000Y-71001315I0J-276315D01*
G01*
X136950000Y-72023685D01*
G75*
G02*
X136673685Y-72300000I-276315J0D01*
G01*
G37*
G36*
G01*
X136673685Y-75275000D02*
X135326315Y-75275000D01*
G75*
G02*
X135050000Y-74998685I0J276315D01*
G01*
X135050000Y-73976315D01*
G75*
G02*
X135326315Y-73700000I276315J0D01*
G01*
X136673685Y-73700000D01*
G75*
G02*
X136950000Y-73976315I0J-276315D01*
G01*
X136950000Y-74998685D01*
G75*
G02*
X136673685Y-75275000I-276315J0D01*
G01*
G37*
%TD*%
%TO.C,Q1*%
G36*
G01*
X179700000Y-51125000D02*
X178900000Y-51125000D01*
G75*
G02*
X178825000Y-51050000I0J75000D01*
G01*
X178825000Y-50150000D01*
G75*
G02*
X178900000Y-50075000I75000J0D01*
G01*
X179700000Y-50075000D01*
G75*
G02*
X179775000Y-50150000I0J-75000D01*
G01*
X179775000Y-51050000D01*
G75*
G02*
X179700000Y-51125000I-75000J0D01*
G01*
G37*
G36*
G01*
X180650000Y-53125000D02*
X179850000Y-53125000D01*
G75*
G02*
X179775000Y-53050000I0J75000D01*
G01*
X179775000Y-52150000D01*
G75*
G02*
X179850000Y-52075000I75000J0D01*
G01*
X180650000Y-52075000D01*
G75*
G02*
X180725000Y-52150000I0J-75000D01*
G01*
X180725000Y-53050000D01*
G75*
G02*
X180650000Y-53125000I-75000J0D01*
G01*
G37*
G36*
G01*
X178750000Y-53125000D02*
X177950000Y-53125000D01*
G75*
G02*
X177875000Y-53050000I0J75000D01*
G01*
X177875000Y-52150000D01*
G75*
G02*
X177950000Y-52075000I75000J0D01*
G01*
X178750000Y-52075000D01*
G75*
G02*
X178825000Y-52150000I0J-75000D01*
G01*
X178825000Y-53050000D01*
G75*
G02*
X178750000Y-53125000I-75000J0D01*
G01*
G37*
%TD*%
%TO.C,R49*%
G36*
G01*
X165025000Y-76328845D02*
X165025000Y-77671155D01*
G75*
G02*
X164746155Y-77950000I-278845J0D01*
G01*
X163853845Y-77950000D01*
G75*
G02*
X163575000Y-77671155I0J278845D01*
G01*
X163575000Y-76328845D01*
G75*
G02*
X163853845Y-76050000I278845J0D01*
G01*
X164746155Y-76050000D01*
G75*
G02*
X165025000Y-76328845I0J-278845D01*
G01*
G37*
G36*
G01*
X168125000Y-76328845D02*
X168125000Y-77671155D01*
G75*
G02*
X167846155Y-77950000I-278845J0D01*
G01*
X166953845Y-77950000D01*
G75*
G02*
X166675000Y-77671155I0J278845D01*
G01*
X166675000Y-76328845D01*
G75*
G02*
X166953845Y-76050000I278845J0D01*
G01*
X167846155Y-76050000D01*
G75*
G02*
X168125000Y-76328845I0J-278845D01*
G01*
G37*
%TD*%
%TO.C,R58*%
G36*
G01*
X153275000Y-74650000D02*
X152725000Y-74650000D01*
G75*
G02*
X152450000Y-74375000I0J275000D01*
G01*
X152450000Y-73800000D01*
G75*
G02*
X152725000Y-73525000I275000J0D01*
G01*
X153275000Y-73525000D01*
G75*
G02*
X153550000Y-73800000I0J-275000D01*
G01*
X153550000Y-74375000D01*
G75*
G02*
X153275000Y-74650000I-275000J0D01*
G01*
G37*
G36*
G01*
X153275000Y-76475000D02*
X152725000Y-76475000D01*
G75*
G02*
X152450000Y-76200000I0J275000D01*
G01*
X152450000Y-75625000D01*
G75*
G02*
X152725000Y-75350000I275000J0D01*
G01*
X153275000Y-75350000D01*
G75*
G02*
X153550000Y-75625000I0J-275000D01*
G01*
X153550000Y-76200000D01*
G75*
G02*
X153275000Y-76475000I-275000J0D01*
G01*
G37*
%TD*%
%TO.C,U10*%
G36*
G01*
X236825000Y-58082500D02*
X236825000Y-57707500D01*
G75*
G02*
X237012500Y-57520000I187500J0D01*
G01*
X238737500Y-57520000D01*
G75*
G02*
X238925000Y-57707500I0J-187500D01*
G01*
X238925000Y-58082500D01*
G75*
G02*
X238737500Y-58270000I-187500J0D01*
G01*
X237012500Y-58270000D01*
G75*
G02*
X236825000Y-58082500I0J187500D01*
G01*
G37*
G36*
G01*
X236825000Y-59352500D02*
X236825000Y-58977500D01*
G75*
G02*
X237012500Y-58790000I187500J0D01*
G01*
X238737500Y-58790000D01*
G75*
G02*
X238925000Y-58977500I0J-187500D01*
G01*
X238925000Y-59352500D01*
G75*
G02*
X238737500Y-59540000I-187500J0D01*
G01*
X237012500Y-59540000D01*
G75*
G02*
X236825000Y-59352500I0J187500D01*
G01*
G37*
G36*
G01*
X236825000Y-60622500D02*
X236825000Y-60247500D01*
G75*
G02*
X237012500Y-60060000I187500J0D01*
G01*
X238737500Y-60060000D01*
G75*
G02*
X238925000Y-60247500I0J-187500D01*
G01*
X238925000Y-60622500D01*
G75*
G02*
X238737500Y-60810000I-187500J0D01*
G01*
X237012500Y-60810000D01*
G75*
G02*
X236825000Y-60622500I0J187500D01*
G01*
G37*
G36*
G01*
X236825000Y-61892500D02*
X236825000Y-61517500D01*
G75*
G02*
X237012500Y-61330000I187500J0D01*
G01*
X238737500Y-61330000D01*
G75*
G02*
X238925000Y-61517500I0J-187500D01*
G01*
X238925000Y-61892500D01*
G75*
G02*
X238737500Y-62080000I-187500J0D01*
G01*
X237012500Y-62080000D01*
G75*
G02*
X236825000Y-61892500I0J187500D01*
G01*
G37*
G36*
G01*
X231875000Y-61892500D02*
X231875000Y-61517500D01*
G75*
G02*
X232062500Y-61330000I187500J0D01*
G01*
X233787500Y-61330000D01*
G75*
G02*
X233975000Y-61517500I0J-187500D01*
G01*
X233975000Y-61892500D01*
G75*
G02*
X233787500Y-62080000I-187500J0D01*
G01*
X232062500Y-62080000D01*
G75*
G02*
X231875000Y-61892500I0J187500D01*
G01*
G37*
G36*
G01*
X231875000Y-60622500D02*
X231875000Y-60247500D01*
G75*
G02*
X232062500Y-60060000I187500J0D01*
G01*
X233787500Y-60060000D01*
G75*
G02*
X233975000Y-60247500I0J-187500D01*
G01*
X233975000Y-60622500D01*
G75*
G02*
X233787500Y-60810000I-187500J0D01*
G01*
X232062500Y-60810000D01*
G75*
G02*
X231875000Y-60622500I0J187500D01*
G01*
G37*
G36*
G01*
X231875000Y-59352500D02*
X231875000Y-58977500D01*
G75*
G02*
X232062500Y-58790000I187500J0D01*
G01*
X233787500Y-58790000D01*
G75*
G02*
X233975000Y-58977500I0J-187500D01*
G01*
X233975000Y-59352500D01*
G75*
G02*
X233787500Y-59540000I-187500J0D01*
G01*
X232062500Y-59540000D01*
G75*
G02*
X231875000Y-59352500I0J187500D01*
G01*
G37*
G36*
G01*
X231875000Y-58082500D02*
X231875000Y-57707500D01*
G75*
G02*
X232062500Y-57520000I187500J0D01*
G01*
X233787500Y-57520000D01*
G75*
G02*
X233975000Y-57707500I0J-187500D01*
G01*
X233975000Y-58082500D01*
G75*
G02*
X233787500Y-58270000I-187500J0D01*
G01*
X232062500Y-58270000D01*
G75*
G02*
X231875000Y-58082500I0J187500D01*
G01*
G37*
%TD*%
%TO.C,LD5*%
G36*
G01*
X261353685Y-103880000D02*
X260006315Y-103880000D01*
G75*
G02*
X259730000Y-103603685I0J276315D01*
G01*
X259730000Y-102581315D01*
G75*
G02*
X260006315Y-102305000I276315J0D01*
G01*
X261353685Y-102305000D01*
G75*
G02*
X261630000Y-102581315I0J-276315D01*
G01*
X261630000Y-103603685D01*
G75*
G02*
X261353685Y-103880000I-276315J0D01*
G01*
G37*
G36*
G01*
X261353685Y-106855000D02*
X260006315Y-106855000D01*
G75*
G02*
X259730000Y-106578685I0J276315D01*
G01*
X259730000Y-105556315D01*
G75*
G02*
X260006315Y-105280000I276315J0D01*
G01*
X261353685Y-105280000D01*
G75*
G02*
X261630000Y-105556315I0J-276315D01*
G01*
X261630000Y-106578685D01*
G75*
G02*
X261353685Y-106855000I-276315J0D01*
G01*
G37*
%TD*%
D15*
%TO.C,TP1*%
X172290000Y-55070000D03*
%TD*%
%TO.C,U17*%
G36*
G01*
X175065000Y-57625000D02*
X174415000Y-57625000D01*
G75*
G02*
X174340000Y-57550000I0J75000D01*
G01*
X174340000Y-56490000D01*
G75*
G02*
X174415000Y-56415000I75000J0D01*
G01*
X175065000Y-56415000D01*
G75*
G02*
X175140000Y-56490000I0J-75000D01*
G01*
X175140000Y-57550000D01*
G75*
G02*
X175065000Y-57625000I-75000J0D01*
G01*
G37*
G36*
G01*
X176965000Y-57625000D02*
X176315000Y-57625000D01*
G75*
G02*
X176240000Y-57550000I0J75000D01*
G01*
X176240000Y-56490000D01*
G75*
G02*
X176315000Y-56415000I75000J0D01*
G01*
X176965000Y-56415000D01*
G75*
G02*
X177040000Y-56490000I0J-75000D01*
G01*
X177040000Y-57550000D01*
G75*
G02*
X176965000Y-57625000I-75000J0D01*
G01*
G37*
G36*
G01*
X176965000Y-59825000D02*
X176315000Y-59825000D01*
G75*
G02*
X176240000Y-59750000I0J75000D01*
G01*
X176240000Y-58690000D01*
G75*
G02*
X176315000Y-58615000I75000J0D01*
G01*
X176965000Y-58615000D01*
G75*
G02*
X177040000Y-58690000I0J-75000D01*
G01*
X177040000Y-59750000D01*
G75*
G02*
X176965000Y-59825000I-75000J0D01*
G01*
G37*
G36*
G01*
X176015000Y-59825000D02*
X175365000Y-59825000D01*
G75*
G02*
X175290000Y-59750000I0J75000D01*
G01*
X175290000Y-58690000D01*
G75*
G02*
X175365000Y-58615000I75000J0D01*
G01*
X176015000Y-58615000D01*
G75*
G02*
X176090000Y-58690000I0J-75000D01*
G01*
X176090000Y-59750000D01*
G75*
G02*
X176015000Y-59825000I-75000J0D01*
G01*
G37*
G36*
G01*
X175065000Y-59825000D02*
X174415000Y-59825000D01*
G75*
G02*
X174340000Y-59750000I0J75000D01*
G01*
X174340000Y-58690000D01*
G75*
G02*
X174415000Y-58615000I75000J0D01*
G01*
X175065000Y-58615000D01*
G75*
G02*
X175140000Y-58690000I0J-75000D01*
G01*
X175140000Y-59750000D01*
G75*
G02*
X175065000Y-59825000I-75000J0D01*
G01*
G37*
%TD*%
%TO.C,mRD4*%
X244225000Y-167350000D03*
%TD*%
%TO.C,mRD5*%
X233175000Y-165375000D03*
%TD*%
%TO.C,U1*%
G36*
G01*
X242987500Y-178625000D02*
X243262500Y-178625000D01*
G75*
G02*
X243400000Y-178762500I0J-137500D01*
G01*
X243400000Y-180112500D01*
G75*
G02*
X243262500Y-180250000I-137500J0D01*
G01*
X242987500Y-180250000D01*
G75*
G02*
X242850000Y-180112500I0J137500D01*
G01*
X242850000Y-178762500D01*
G75*
G02*
X242987500Y-178625000I137500J0D01*
G01*
G37*
G36*
G01*
X242337500Y-178625000D02*
X242612500Y-178625000D01*
G75*
G02*
X242750000Y-178762500I0J-137500D01*
G01*
X242750000Y-180112500D01*
G75*
G02*
X242612500Y-180250000I-137500J0D01*
G01*
X242337500Y-180250000D01*
G75*
G02*
X242200000Y-180112500I0J137500D01*
G01*
X242200000Y-178762500D01*
G75*
G02*
X242337500Y-178625000I137500J0D01*
G01*
G37*
G36*
G01*
X241687500Y-178625000D02*
X241962500Y-178625000D01*
G75*
G02*
X242100000Y-178762500I0J-137500D01*
G01*
X242100000Y-180112500D01*
G75*
G02*
X241962500Y-180250000I-137500J0D01*
G01*
X241687500Y-180250000D01*
G75*
G02*
X241550000Y-180112500I0J137500D01*
G01*
X241550000Y-178762500D01*
G75*
G02*
X241687500Y-178625000I137500J0D01*
G01*
G37*
G36*
G01*
X241037500Y-178625000D02*
X241312500Y-178625000D01*
G75*
G02*
X241450000Y-178762500I0J-137500D01*
G01*
X241450000Y-180112500D01*
G75*
G02*
X241312500Y-180250000I-137500J0D01*
G01*
X241037500Y-180250000D01*
G75*
G02*
X240900000Y-180112500I0J137500D01*
G01*
X240900000Y-178762500D01*
G75*
G02*
X241037500Y-178625000I137500J0D01*
G01*
G37*
G36*
G01*
X240387500Y-178625000D02*
X240662500Y-178625000D01*
G75*
G02*
X240800000Y-178762500I0J-137500D01*
G01*
X240800000Y-180112500D01*
G75*
G02*
X240662500Y-180250000I-137500J0D01*
G01*
X240387500Y-180250000D01*
G75*
G02*
X240250000Y-180112500I0J137500D01*
G01*
X240250000Y-178762500D01*
G75*
G02*
X240387500Y-178625000I137500J0D01*
G01*
G37*
G36*
G01*
X239737500Y-178625000D02*
X240012500Y-178625000D01*
G75*
G02*
X240150000Y-178762500I0J-137500D01*
G01*
X240150000Y-180112500D01*
G75*
G02*
X240012500Y-180250000I-137500J0D01*
G01*
X239737500Y-180250000D01*
G75*
G02*
X239600000Y-180112500I0J137500D01*
G01*
X239600000Y-178762500D01*
G75*
G02*
X239737500Y-178625000I137500J0D01*
G01*
G37*
G36*
G01*
X239087500Y-178625000D02*
X239362500Y-178625000D01*
G75*
G02*
X239500000Y-178762500I0J-137500D01*
G01*
X239500000Y-180112500D01*
G75*
G02*
X239362500Y-180250000I-137500J0D01*
G01*
X239087500Y-180250000D01*
G75*
G02*
X238950000Y-180112500I0J137500D01*
G01*
X238950000Y-178762500D01*
G75*
G02*
X239087500Y-178625000I137500J0D01*
G01*
G37*
G36*
G01*
X238437500Y-178625000D02*
X238712500Y-178625000D01*
G75*
G02*
X238850000Y-178762500I0J-137500D01*
G01*
X238850000Y-180112500D01*
G75*
G02*
X238712500Y-180250000I-137500J0D01*
G01*
X238437500Y-180250000D01*
G75*
G02*
X238300000Y-180112500I0J137500D01*
G01*
X238300000Y-178762500D01*
G75*
G02*
X238437500Y-178625000I137500J0D01*
G01*
G37*
G36*
G01*
X237787500Y-178625000D02*
X238062500Y-178625000D01*
G75*
G02*
X238200000Y-178762500I0J-137500D01*
G01*
X238200000Y-180112500D01*
G75*
G02*
X238062500Y-180250000I-137500J0D01*
G01*
X237787500Y-180250000D01*
G75*
G02*
X237650000Y-180112500I0J137500D01*
G01*
X237650000Y-178762500D01*
G75*
G02*
X237787500Y-178625000I137500J0D01*
G01*
G37*
G36*
G01*
X237137500Y-178625000D02*
X237412500Y-178625000D01*
G75*
G02*
X237550000Y-178762500I0J-137500D01*
G01*
X237550000Y-180112500D01*
G75*
G02*
X237412500Y-180250000I-137500J0D01*
G01*
X237137500Y-180250000D01*
G75*
G02*
X237000000Y-180112500I0J137500D01*
G01*
X237000000Y-178762500D01*
G75*
G02*
X237137500Y-178625000I137500J0D01*
G01*
G37*
G36*
G01*
X237137500Y-184350000D02*
X237412500Y-184350000D01*
G75*
G02*
X237550000Y-184487500I0J-137500D01*
G01*
X237550000Y-185837500D01*
G75*
G02*
X237412500Y-185975000I-137500J0D01*
G01*
X237137500Y-185975000D01*
G75*
G02*
X237000000Y-185837500I0J137500D01*
G01*
X237000000Y-184487500D01*
G75*
G02*
X237137500Y-184350000I137500J0D01*
G01*
G37*
G36*
G01*
X237787500Y-184350000D02*
X238062500Y-184350000D01*
G75*
G02*
X238200000Y-184487500I0J-137500D01*
G01*
X238200000Y-185837500D01*
G75*
G02*
X238062500Y-185975000I-137500J0D01*
G01*
X237787500Y-185975000D01*
G75*
G02*
X237650000Y-185837500I0J137500D01*
G01*
X237650000Y-184487500D01*
G75*
G02*
X237787500Y-184350000I137500J0D01*
G01*
G37*
G36*
G01*
X238437500Y-184350000D02*
X238712500Y-184350000D01*
G75*
G02*
X238850000Y-184487500I0J-137500D01*
G01*
X238850000Y-185837500D01*
G75*
G02*
X238712500Y-185975000I-137500J0D01*
G01*
X238437500Y-185975000D01*
G75*
G02*
X238300000Y-185837500I0J137500D01*
G01*
X238300000Y-184487500D01*
G75*
G02*
X238437500Y-184350000I137500J0D01*
G01*
G37*
G36*
G01*
X239087500Y-184350000D02*
X239362500Y-184350000D01*
G75*
G02*
X239500000Y-184487500I0J-137500D01*
G01*
X239500000Y-185837500D01*
G75*
G02*
X239362500Y-185975000I-137500J0D01*
G01*
X239087500Y-185975000D01*
G75*
G02*
X238950000Y-185837500I0J137500D01*
G01*
X238950000Y-184487500D01*
G75*
G02*
X239087500Y-184350000I137500J0D01*
G01*
G37*
G36*
G01*
X239737500Y-184350000D02*
X240012500Y-184350000D01*
G75*
G02*
X240150000Y-184487500I0J-137500D01*
G01*
X240150000Y-185837500D01*
G75*
G02*
X240012500Y-185975000I-137500J0D01*
G01*
X239737500Y-185975000D01*
G75*
G02*
X239600000Y-185837500I0J137500D01*
G01*
X239600000Y-184487500D01*
G75*
G02*
X239737500Y-184350000I137500J0D01*
G01*
G37*
G36*
G01*
X240387500Y-184350000D02*
X240662500Y-184350000D01*
G75*
G02*
X240800000Y-184487500I0J-137500D01*
G01*
X240800000Y-185837500D01*
G75*
G02*
X240662500Y-185975000I-137500J0D01*
G01*
X240387500Y-185975000D01*
G75*
G02*
X240250000Y-185837500I0J137500D01*
G01*
X240250000Y-184487500D01*
G75*
G02*
X240387500Y-184350000I137500J0D01*
G01*
G37*
G36*
G01*
X241037500Y-184350000D02*
X241312500Y-184350000D01*
G75*
G02*
X241450000Y-184487500I0J-137500D01*
G01*
X241450000Y-185837500D01*
G75*
G02*
X241312500Y-185975000I-137500J0D01*
G01*
X241037500Y-185975000D01*
G75*
G02*
X240900000Y-185837500I0J137500D01*
G01*
X240900000Y-184487500D01*
G75*
G02*
X241037500Y-184350000I137500J0D01*
G01*
G37*
G36*
G01*
X241687500Y-184350000D02*
X241962500Y-184350000D01*
G75*
G02*
X242100000Y-184487500I0J-137500D01*
G01*
X242100000Y-185837500D01*
G75*
G02*
X241962500Y-185975000I-137500J0D01*
G01*
X241687500Y-185975000D01*
G75*
G02*
X241550000Y-185837500I0J137500D01*
G01*
X241550000Y-184487500D01*
G75*
G02*
X241687500Y-184350000I137500J0D01*
G01*
G37*
G36*
G01*
X242337500Y-184350000D02*
X242612500Y-184350000D01*
G75*
G02*
X242750000Y-184487500I0J-137500D01*
G01*
X242750000Y-185837500D01*
G75*
G02*
X242612500Y-185975000I-137500J0D01*
G01*
X242337500Y-185975000D01*
G75*
G02*
X242200000Y-185837500I0J137500D01*
G01*
X242200000Y-184487500D01*
G75*
G02*
X242337500Y-184350000I137500J0D01*
G01*
G37*
G36*
G01*
X242987500Y-184350000D02*
X243262500Y-184350000D01*
G75*
G02*
X243400000Y-184487500I0J-137500D01*
G01*
X243400000Y-185837500D01*
G75*
G02*
X243262500Y-185975000I-137500J0D01*
G01*
X242987500Y-185975000D01*
G75*
G02*
X242850000Y-185837500I0J137500D01*
G01*
X242850000Y-184487500D01*
G75*
G02*
X242987500Y-184350000I137500J0D01*
G01*
G37*
%TD*%
%TO.C,U4*%
G36*
G01*
X177187500Y-184050000D02*
X177462500Y-184050000D01*
G75*
G02*
X177600000Y-184187500I0J-137500D01*
G01*
X177600000Y-185537500D01*
G75*
G02*
X177462500Y-185675000I-137500J0D01*
G01*
X177187500Y-185675000D01*
G75*
G02*
X177050000Y-185537500I0J137500D01*
G01*
X177050000Y-184187500D01*
G75*
G02*
X177187500Y-184050000I137500J0D01*
G01*
G37*
G36*
G01*
X176537500Y-184050000D02*
X176812500Y-184050000D01*
G75*
G02*
X176950000Y-184187500I0J-137500D01*
G01*
X176950000Y-185537500D01*
G75*
G02*
X176812500Y-185675000I-137500J0D01*
G01*
X176537500Y-185675000D01*
G75*
G02*
X176400000Y-185537500I0J137500D01*
G01*
X176400000Y-184187500D01*
G75*
G02*
X176537500Y-184050000I137500J0D01*
G01*
G37*
G36*
G01*
X175887500Y-184050000D02*
X176162500Y-184050000D01*
G75*
G02*
X176300000Y-184187500I0J-137500D01*
G01*
X176300000Y-185537500D01*
G75*
G02*
X176162500Y-185675000I-137500J0D01*
G01*
X175887500Y-185675000D01*
G75*
G02*
X175750000Y-185537500I0J137500D01*
G01*
X175750000Y-184187500D01*
G75*
G02*
X175887500Y-184050000I137500J0D01*
G01*
G37*
G36*
G01*
X175237500Y-184050000D02*
X175512500Y-184050000D01*
G75*
G02*
X175650000Y-184187500I0J-137500D01*
G01*
X175650000Y-185537500D01*
G75*
G02*
X175512500Y-185675000I-137500J0D01*
G01*
X175237500Y-185675000D01*
G75*
G02*
X175100000Y-185537500I0J137500D01*
G01*
X175100000Y-184187500D01*
G75*
G02*
X175237500Y-184050000I137500J0D01*
G01*
G37*
G36*
G01*
X174587500Y-184050000D02*
X174862500Y-184050000D01*
G75*
G02*
X175000000Y-184187500I0J-137500D01*
G01*
X175000000Y-185537500D01*
G75*
G02*
X174862500Y-185675000I-137500J0D01*
G01*
X174587500Y-185675000D01*
G75*
G02*
X174450000Y-185537500I0J137500D01*
G01*
X174450000Y-184187500D01*
G75*
G02*
X174587500Y-184050000I137500J0D01*
G01*
G37*
G36*
G01*
X173937500Y-184050000D02*
X174212500Y-184050000D01*
G75*
G02*
X174350000Y-184187500I0J-137500D01*
G01*
X174350000Y-185537500D01*
G75*
G02*
X174212500Y-185675000I-137500J0D01*
G01*
X173937500Y-185675000D01*
G75*
G02*
X173800000Y-185537500I0J137500D01*
G01*
X173800000Y-184187500D01*
G75*
G02*
X173937500Y-184050000I137500J0D01*
G01*
G37*
G36*
G01*
X173287500Y-184050000D02*
X173562500Y-184050000D01*
G75*
G02*
X173700000Y-184187500I0J-137500D01*
G01*
X173700000Y-185537500D01*
G75*
G02*
X173562500Y-185675000I-137500J0D01*
G01*
X173287500Y-185675000D01*
G75*
G02*
X173150000Y-185537500I0J137500D01*
G01*
X173150000Y-184187500D01*
G75*
G02*
X173287500Y-184050000I137500J0D01*
G01*
G37*
G36*
G01*
X172637500Y-184050000D02*
X172912500Y-184050000D01*
G75*
G02*
X173050000Y-184187500I0J-137500D01*
G01*
X173050000Y-185537500D01*
G75*
G02*
X172912500Y-185675000I-137500J0D01*
G01*
X172637500Y-185675000D01*
G75*
G02*
X172500000Y-185537500I0J137500D01*
G01*
X172500000Y-184187500D01*
G75*
G02*
X172637500Y-184050000I137500J0D01*
G01*
G37*
G36*
G01*
X171987500Y-184050000D02*
X172262500Y-184050000D01*
G75*
G02*
X172400000Y-184187500I0J-137500D01*
G01*
X172400000Y-185537500D01*
G75*
G02*
X172262500Y-185675000I-137500J0D01*
G01*
X171987500Y-185675000D01*
G75*
G02*
X171850000Y-185537500I0J137500D01*
G01*
X171850000Y-184187500D01*
G75*
G02*
X171987500Y-184050000I137500J0D01*
G01*
G37*
G36*
G01*
X171337500Y-184050000D02*
X171612500Y-184050000D01*
G75*
G02*
X171750000Y-184187500I0J-137500D01*
G01*
X171750000Y-185537500D01*
G75*
G02*
X171612500Y-185675000I-137500J0D01*
G01*
X171337500Y-185675000D01*
G75*
G02*
X171200000Y-185537500I0J137500D01*
G01*
X171200000Y-184187500D01*
G75*
G02*
X171337500Y-184050000I137500J0D01*
G01*
G37*
G36*
G01*
X171337500Y-178325000D02*
X171612500Y-178325000D01*
G75*
G02*
X171750000Y-178462500I0J-137500D01*
G01*
X171750000Y-179812500D01*
G75*
G02*
X171612500Y-179950000I-137500J0D01*
G01*
X171337500Y-179950000D01*
G75*
G02*
X171200000Y-179812500I0J137500D01*
G01*
X171200000Y-178462500D01*
G75*
G02*
X171337500Y-178325000I137500J0D01*
G01*
G37*
G36*
G01*
X171987500Y-178325000D02*
X172262500Y-178325000D01*
G75*
G02*
X172400000Y-178462500I0J-137500D01*
G01*
X172400000Y-179812500D01*
G75*
G02*
X172262500Y-179950000I-137500J0D01*
G01*
X171987500Y-179950000D01*
G75*
G02*
X171850000Y-179812500I0J137500D01*
G01*
X171850000Y-178462500D01*
G75*
G02*
X171987500Y-178325000I137500J0D01*
G01*
G37*
G36*
G01*
X172637500Y-178325000D02*
X172912500Y-178325000D01*
G75*
G02*
X173050000Y-178462500I0J-137500D01*
G01*
X173050000Y-179812500D01*
G75*
G02*
X172912500Y-179950000I-137500J0D01*
G01*
X172637500Y-179950000D01*
G75*
G02*
X172500000Y-179812500I0J137500D01*
G01*
X172500000Y-178462500D01*
G75*
G02*
X172637500Y-178325000I137500J0D01*
G01*
G37*
G36*
G01*
X173287500Y-178325000D02*
X173562500Y-178325000D01*
G75*
G02*
X173700000Y-178462500I0J-137500D01*
G01*
X173700000Y-179812500D01*
G75*
G02*
X173562500Y-179950000I-137500J0D01*
G01*
X173287500Y-179950000D01*
G75*
G02*
X173150000Y-179812500I0J137500D01*
G01*
X173150000Y-178462500D01*
G75*
G02*
X173287500Y-178325000I137500J0D01*
G01*
G37*
G36*
G01*
X173937500Y-178325000D02*
X174212500Y-178325000D01*
G75*
G02*
X174350000Y-178462500I0J-137500D01*
G01*
X174350000Y-179812500D01*
G75*
G02*
X174212500Y-179950000I-137500J0D01*
G01*
X173937500Y-179950000D01*
G75*
G02*
X173800000Y-179812500I0J137500D01*
G01*
X173800000Y-178462500D01*
G75*
G02*
X173937500Y-178325000I137500J0D01*
G01*
G37*
G36*
G01*
X174587500Y-178325000D02*
X174862500Y-178325000D01*
G75*
G02*
X175000000Y-178462500I0J-137500D01*
G01*
X175000000Y-179812500D01*
G75*
G02*
X174862500Y-179950000I-137500J0D01*
G01*
X174587500Y-179950000D01*
G75*
G02*
X174450000Y-179812500I0J137500D01*
G01*
X174450000Y-178462500D01*
G75*
G02*
X174587500Y-178325000I137500J0D01*
G01*
G37*
G36*
G01*
X175237500Y-178325000D02*
X175512500Y-178325000D01*
G75*
G02*
X175650000Y-178462500I0J-137500D01*
G01*
X175650000Y-179812500D01*
G75*
G02*
X175512500Y-179950000I-137500J0D01*
G01*
X175237500Y-179950000D01*
G75*
G02*
X175100000Y-179812500I0J137500D01*
G01*
X175100000Y-178462500D01*
G75*
G02*
X175237500Y-178325000I137500J0D01*
G01*
G37*
G36*
G01*
X175887500Y-178325000D02*
X176162500Y-178325000D01*
G75*
G02*
X176300000Y-178462500I0J-137500D01*
G01*
X176300000Y-179812500D01*
G75*
G02*
X176162500Y-179950000I-137500J0D01*
G01*
X175887500Y-179950000D01*
G75*
G02*
X175750000Y-179812500I0J137500D01*
G01*
X175750000Y-178462500D01*
G75*
G02*
X175887500Y-178325000I137500J0D01*
G01*
G37*
G36*
G01*
X176537500Y-178325000D02*
X176812500Y-178325000D01*
G75*
G02*
X176950000Y-178462500I0J-137500D01*
G01*
X176950000Y-179812500D01*
G75*
G02*
X176812500Y-179950000I-137500J0D01*
G01*
X176537500Y-179950000D01*
G75*
G02*
X176400000Y-179812500I0J137500D01*
G01*
X176400000Y-178462500D01*
G75*
G02*
X176537500Y-178325000I137500J0D01*
G01*
G37*
G36*
G01*
X177187500Y-178325000D02*
X177462500Y-178325000D01*
G75*
G02*
X177600000Y-178462500I0J-137500D01*
G01*
X177600000Y-179812500D01*
G75*
G02*
X177462500Y-179950000I-137500J0D01*
G01*
X177187500Y-179950000D01*
G75*
G02*
X177050000Y-179812500I0J137500D01*
G01*
X177050000Y-178462500D01*
G75*
G02*
X177187500Y-178325000I137500J0D01*
G01*
G37*
%TD*%
%TO.C,~mHALT1*%
X183375000Y-169275000D03*
%TD*%
%TO.C,~mRSVD1*%
X225850000Y-165500000D03*
%TD*%
%TO.C,~mS4*%
X239900000Y-165550000D03*
%TD*%
%TO.C,~mS5*%
X219975000Y-165325000D03*
%TD*%
%TO.C,X1*%
G36*
G01*
X222623000Y-92775000D02*
X222623000Y-91875000D01*
G75*
G02*
X222725000Y-91773000I102000J0D01*
G01*
X223825000Y-91773000D01*
G75*
G02*
X223927000Y-91875000I0J-102000D01*
G01*
X223927000Y-92775000D01*
G75*
G02*
X223825000Y-92877000I-102000J0D01*
G01*
X222725000Y-92877000D01*
G75*
G02*
X222623000Y-92775000I0J102000D01*
G01*
G37*
G36*
G01*
X224423000Y-92775000D02*
X224423000Y-91875000D01*
G75*
G02*
X224525000Y-91773000I102000J0D01*
G01*
X225625000Y-91773000D01*
G75*
G02*
X225727000Y-91875000I0J-102000D01*
G01*
X225727000Y-92775000D01*
G75*
G02*
X225625000Y-92877000I-102000J0D01*
G01*
X224525000Y-92877000D01*
G75*
G02*
X224423000Y-92775000I0J102000D01*
G01*
G37*
G36*
G01*
X224423000Y-91375000D02*
X224423000Y-90475000D01*
G75*
G02*
X224525000Y-90373000I102000J0D01*
G01*
X225625000Y-90373000D01*
G75*
G02*
X225727000Y-90475000I0J-102000D01*
G01*
X225727000Y-91375000D01*
G75*
G02*
X225625000Y-91477000I-102000J0D01*
G01*
X224525000Y-91477000D01*
G75*
G02*
X224423000Y-91375000I0J102000D01*
G01*
G37*
G36*
G01*
X222623000Y-91375000D02*
X222623000Y-90475000D01*
G75*
G02*
X222725000Y-90373000I102000J0D01*
G01*
X223825000Y-90373000D01*
G75*
G02*
X223927000Y-90475000I0J-102000D01*
G01*
X223927000Y-91375000D01*
G75*
G02*
X223825000Y-91477000I-102000J0D01*
G01*
X222725000Y-91477000D01*
G75*
G02*
X222623000Y-91375000I0J102000D01*
G01*
G37*
%TD*%
D16*
%TO.C,FID3*%
X139000000Y-127000000D03*
%TD*%
%TO.C,FID4*%
X253000000Y-185000000D03*
%TD*%
%TO.C,U18*%
G36*
G01*
X150805000Y-55225000D02*
X150805000Y-55875000D01*
G75*
G02*
X150730000Y-55950000I-75000J0D01*
G01*
X149670000Y-55950000D01*
G75*
G02*
X149595000Y-55875000I0J75000D01*
G01*
X149595000Y-55225000D01*
G75*
G02*
X149670000Y-55150000I75000J0D01*
G01*
X150730000Y-55150000D01*
G75*
G02*
X150805000Y-55225000I0J-75000D01*
G01*
G37*
G36*
G01*
X150805000Y-53325000D02*
X150805000Y-53975000D01*
G75*
G02*
X150730000Y-54050000I-75000J0D01*
G01*
X149670000Y-54050000D01*
G75*
G02*
X149595000Y-53975000I0J75000D01*
G01*
X149595000Y-53325000D01*
G75*
G02*
X149670000Y-53250000I75000J0D01*
G01*
X150730000Y-53250000D01*
G75*
G02*
X150805000Y-53325000I0J-75000D01*
G01*
G37*
G36*
G01*
X153005000Y-53325000D02*
X153005000Y-53975000D01*
G75*
G02*
X152930000Y-54050000I-75000J0D01*
G01*
X151870000Y-54050000D01*
G75*
G02*
X151795000Y-53975000I0J75000D01*
G01*
X151795000Y-53325000D01*
G75*
G02*
X151870000Y-53250000I75000J0D01*
G01*
X152930000Y-53250000D01*
G75*
G02*
X153005000Y-53325000I0J-75000D01*
G01*
G37*
G36*
G01*
X153005000Y-54275000D02*
X153005000Y-54925000D01*
G75*
G02*
X152930000Y-55000000I-75000J0D01*
G01*
X151870000Y-55000000D01*
G75*
G02*
X151795000Y-54925000I0J75000D01*
G01*
X151795000Y-54275000D01*
G75*
G02*
X151870000Y-54200000I75000J0D01*
G01*
X152930000Y-54200000D01*
G75*
G02*
X153005000Y-54275000I0J-75000D01*
G01*
G37*
G36*
G01*
X153005000Y-55225000D02*
X153005000Y-55875000D01*
G75*
G02*
X152930000Y-55950000I-75000J0D01*
G01*
X151870000Y-55950000D01*
G75*
G02*
X151795000Y-55875000I0J75000D01*
G01*
X151795000Y-55225000D01*
G75*
G02*
X151870000Y-55150000I75000J0D01*
G01*
X152930000Y-55150000D01*
G75*
G02*
X153005000Y-55225000I0J-75000D01*
G01*
G37*
%TD*%
%TO.C,J5*%
G36*
G01*
X145799999Y-57498000D02*
X148200001Y-57498000D01*
G75*
G02*
X148302000Y-57599999I0J-101999D01*
G01*
X148302000Y-60400001D01*
G75*
G02*
X148200001Y-60502000I-101999J0D01*
G01*
X145799999Y-60502000D01*
G75*
G02*
X145698000Y-60400001I0J101999D01*
G01*
X145698000Y-57599999D01*
G75*
G02*
X145799999Y-57498000I101999J0D01*
G01*
G37*
G36*
G01*
X145799999Y-51398000D02*
X148200001Y-51398000D01*
G75*
G02*
X148302000Y-51499999I0J-101999D01*
G01*
X148302000Y-54300001D01*
G75*
G02*
X148200001Y-54402000I-101999J0D01*
G01*
X145799999Y-54402000D01*
G75*
G02*
X145698000Y-54300001I0J101999D01*
G01*
X145698000Y-51499999D01*
G75*
G02*
X145799999Y-51398000I101999J0D01*
G01*
G37*
G36*
G01*
X134399999Y-51398000D02*
X136800001Y-51398000D01*
G75*
G02*
X136902000Y-51499999I0J-101999D01*
G01*
X136902000Y-54300001D01*
G75*
G02*
X136800001Y-54402000I-101999J0D01*
G01*
X134399999Y-54402000D01*
G75*
G02*
X134298000Y-54300001I0J101999D01*
G01*
X134298000Y-51499999D01*
G75*
G02*
X134399999Y-51398000I101999J0D01*
G01*
G37*
G36*
G01*
X134399999Y-57498000D02*
X136800001Y-57498000D01*
G75*
G02*
X136902000Y-57599999I0J-101999D01*
G01*
X136902000Y-60400001D01*
G75*
G02*
X136800001Y-60502000I-101999J0D01*
G01*
X134399999Y-60502000D01*
G75*
G02*
X134298000Y-60400001I0J101999D01*
G01*
X134298000Y-57599999D01*
G75*
G02*
X134399999Y-57498000I101999J0D01*
G01*
G37*
D17*
X141300000Y-52900000D03*
D18*
X141300000Y-57400000D03*
%TD*%
%TO.C,L1*%
G36*
G01*
X231075000Y-119192393D02*
X231075000Y-118207607D01*
G75*
G02*
X231357607Y-117925000I282607J0D01*
G01*
X232092393Y-117925000D01*
G75*
G02*
X232375000Y-118207607I0J-282607D01*
G01*
X232375000Y-119192393D01*
G75*
G02*
X232092393Y-119475000I-282607J0D01*
G01*
X231357607Y-119475000D01*
G75*
G02*
X231075000Y-119192393I0J282607D01*
G01*
G37*
G36*
G01*
X229025000Y-119192393D02*
X229025000Y-118207607D01*
G75*
G02*
X229307607Y-117925000I282607J0D01*
G01*
X230042393Y-117925000D01*
G75*
G02*
X230325000Y-118207607I0J-282607D01*
G01*
X230325000Y-119192393D01*
G75*
G02*
X230042393Y-119475000I-282607J0D01*
G01*
X229307607Y-119475000D01*
G75*
G02*
X229025000Y-119192393I0J282607D01*
G01*
G37*
%TD*%
%TO.C,LD2*%
G36*
G01*
X183625000Y-52407607D02*
X183625000Y-53392393D01*
G75*
G02*
X183342393Y-53675000I-282607J0D01*
G01*
X182607607Y-53675000D01*
G75*
G02*
X182325000Y-53392393I0J282607D01*
G01*
X182325000Y-52407607D01*
G75*
G02*
X182607607Y-52125000I282607J0D01*
G01*
X183342393Y-52125000D01*
G75*
G02*
X183625000Y-52407607I0J-282607D01*
G01*
G37*
G36*
G01*
X185675000Y-52407607D02*
X185675000Y-53392393D01*
G75*
G02*
X185392393Y-53675000I-282607J0D01*
G01*
X184657607Y-53675000D01*
G75*
G02*
X184375000Y-53392393I0J282607D01*
G01*
X184375000Y-52407607D01*
G75*
G02*
X184657607Y-52125000I282607J0D01*
G01*
X185392393Y-52125000D01*
G75*
G02*
X185675000Y-52407607I0J-282607D01*
G01*
G37*
%TD*%
%TO.C,LD4*%
G36*
G01*
X151507607Y-77925000D02*
X152492393Y-77925000D01*
G75*
G02*
X152775000Y-78207607I0J-282607D01*
G01*
X152775000Y-78942393D01*
G75*
G02*
X152492393Y-79225000I-282607J0D01*
G01*
X151507607Y-79225000D01*
G75*
G02*
X151225000Y-78942393I0J282607D01*
G01*
X151225000Y-78207607D01*
G75*
G02*
X151507607Y-77925000I282607J0D01*
G01*
G37*
G36*
G01*
X151507607Y-79975000D02*
X152492393Y-79975000D01*
G75*
G02*
X152775000Y-80257607I0J-282607D01*
G01*
X152775000Y-80992393D01*
G75*
G02*
X152492393Y-81275000I-282607J0D01*
G01*
X151507607Y-81275000D01*
G75*
G02*
X151225000Y-80992393I0J282607D01*
G01*
X151225000Y-80257607D01*
G75*
G02*
X151507607Y-79975000I282607J0D01*
G01*
G37*
%TD*%
%TO.C,Y1*%
G36*
G01*
X171450000Y-71465000D02*
X172450000Y-71465000D01*
G75*
G02*
X172525000Y-71540000I0J-75000D01*
G01*
X172525000Y-72840000D01*
G75*
G02*
X172450000Y-72915000I-75000J0D01*
G01*
X171450000Y-72915000D01*
G75*
G02*
X171375000Y-72840000I0J75000D01*
G01*
X171375000Y-71540000D01*
G75*
G02*
X171450000Y-71465000I75000J0D01*
G01*
G37*
G36*
G01*
X171450000Y-73665000D02*
X172450000Y-73665000D01*
G75*
G02*
X172525000Y-73740000I0J-75000D01*
G01*
X172525000Y-75040000D01*
G75*
G02*
X172450000Y-75115000I-75000J0D01*
G01*
X171450000Y-75115000D01*
G75*
G02*
X171375000Y-75040000I0J75000D01*
G01*
X171375000Y-73740000D01*
G75*
G02*
X171450000Y-73665000I75000J0D01*
G01*
G37*
G36*
G01*
X169650000Y-73665000D02*
X170650000Y-73665000D01*
G75*
G02*
X170725000Y-73740000I0J-75000D01*
G01*
X170725000Y-75040000D01*
G75*
G02*
X170650000Y-75115000I-75000J0D01*
G01*
X169650000Y-75115000D01*
G75*
G02*
X169575000Y-75040000I0J75000D01*
G01*
X169575000Y-73740000D01*
G75*
G02*
X169650000Y-73665000I75000J0D01*
G01*
G37*
G36*
G01*
X169650000Y-71465000D02*
X170650000Y-71465000D01*
G75*
G02*
X170725000Y-71540000I0J-75000D01*
G01*
X170725000Y-72840000D01*
G75*
G02*
X170650000Y-72915000I-75000J0D01*
G01*
X169650000Y-72915000D01*
G75*
G02*
X169575000Y-72840000I0J75000D01*
G01*
X169575000Y-71540000D01*
G75*
G02*
X169650000Y-71465000I75000J0D01*
G01*
G37*
%TD*%
%TO.C,U14*%
G36*
G01*
X146435000Y-87930000D02*
X146435000Y-86430000D01*
G75*
G02*
X146510000Y-86355000I75000J0D01*
G01*
X148510000Y-86355000D01*
G75*
G02*
X148585000Y-86430000I0J-75000D01*
G01*
X148585000Y-87930000D01*
G75*
G02*
X148510000Y-88005000I-75000J0D01*
G01*
X146510000Y-88005000D01*
G75*
G02*
X146435000Y-87930000I0J75000D01*
G01*
G37*
G36*
G01*
X146435000Y-92530000D02*
X146435000Y-91030000D01*
G75*
G02*
X146510000Y-90955000I75000J0D01*
G01*
X148510000Y-90955000D01*
G75*
G02*
X148585000Y-91030000I0J-75000D01*
G01*
X148585000Y-92530000D01*
G75*
G02*
X148510000Y-92605000I-75000J0D01*
G01*
X146510000Y-92605000D01*
G75*
G02*
X146435000Y-92530000I0J75000D01*
G01*
G37*
G36*
G01*
X146435000Y-90230000D02*
X146435000Y-88730000D01*
G75*
G02*
X146510000Y-88655000I75000J0D01*
G01*
X148510000Y-88655000D01*
G75*
G02*
X148585000Y-88730000I0J-75000D01*
G01*
X148585000Y-90230000D01*
G75*
G02*
X148510000Y-90305000I-75000J0D01*
G01*
X146510000Y-90305000D01*
G75*
G02*
X146435000Y-90230000I0J75000D01*
G01*
G37*
G36*
G01*
X152735000Y-91380000D02*
X152735000Y-87580000D01*
G75*
G02*
X152810000Y-87505000I75000J0D01*
G01*
X154810000Y-87505000D01*
G75*
G02*
X154885000Y-87580000I0J-75000D01*
G01*
X154885000Y-91380000D01*
G75*
G02*
X154810000Y-91455000I-75000J0D01*
G01*
X152810000Y-91455000D01*
G75*
G02*
X152735000Y-91380000I0J75000D01*
G01*
G37*
%TD*%
%TO.C,J7*%
G36*
G01*
X262549999Y-48758000D02*
X265100001Y-48758000D01*
G75*
G02*
X265202000Y-48859999I0J-101999D01*
G01*
X265202000Y-51260001D01*
G75*
G02*
X265100001Y-51362000I-101999J0D01*
G01*
X262549999Y-51362000D01*
G75*
G02*
X262448000Y-51260001I0J101999D01*
G01*
X262448000Y-48859999D01*
G75*
G02*
X262549999Y-48758000I101999J0D01*
G01*
G37*
G36*
G01*
X262550000Y-57808000D02*
X265100000Y-57808000D01*
G75*
G02*
X265202000Y-57910000I0J-102000D01*
G01*
X265202000Y-60810000D01*
G75*
G02*
X265100000Y-60912000I-102000J0D01*
G01*
X262550000Y-60912000D01*
G75*
G02*
X262448000Y-60810000I0J102000D01*
G01*
X262448000Y-57910000D01*
G75*
G02*
X262550000Y-57808000I102000J0D01*
G01*
G37*
G36*
G01*
X269899999Y-50658000D02*
X272450001Y-50658000D01*
G75*
G02*
X272552000Y-50759999I0J-101999D01*
G01*
X272552000Y-53160001D01*
G75*
G02*
X272450001Y-53262000I-101999J0D01*
G01*
X269899999Y-53262000D01*
G75*
G02*
X269798000Y-53160001I0J101999D01*
G01*
X269798000Y-50759999D01*
G75*
G02*
X269899999Y-50658000I101999J0D01*
G01*
G37*
D19*
X267500000Y-51160000D03*
X267500000Y-58160000D03*
%TD*%
%TO.C,J6*%
G36*
G01*
X270735000Y-94300000D02*
X270735000Y-93300000D01*
G75*
G02*
X270810000Y-93225000I75000J0D01*
G01*
X272710000Y-93225000D01*
G75*
G02*
X272785000Y-93300000I0J-75000D01*
G01*
X272785000Y-94300000D01*
G75*
G02*
X272710000Y-94375000I-75000J0D01*
G01*
X270810000Y-94375000D01*
G75*
G02*
X270735000Y-94300000I0J75000D01*
G01*
G37*
G36*
G01*
X270735000Y-89220000D02*
X270735000Y-88220000D01*
G75*
G02*
X270810000Y-88145000I75000J0D01*
G01*
X272710000Y-88145000D01*
G75*
G02*
X272785000Y-88220000I0J-75000D01*
G01*
X272785000Y-89220000D01*
G75*
G02*
X272710000Y-89295000I-75000J0D01*
G01*
X270810000Y-89295000D01*
G75*
G02*
X270735000Y-89220000I0J75000D01*
G01*
G37*
G36*
G01*
X270735000Y-84140000D02*
X270735000Y-83140000D01*
G75*
G02*
X270810000Y-83065000I75000J0D01*
G01*
X272710000Y-83065000D01*
G75*
G02*
X272785000Y-83140000I0J-75000D01*
G01*
X272785000Y-84140000D01*
G75*
G02*
X272710000Y-84215000I-75000J0D01*
G01*
X270810000Y-84215000D01*
G75*
G02*
X270735000Y-84140000I0J75000D01*
G01*
G37*
G36*
G01*
X270735000Y-79060000D02*
X270735000Y-78060000D01*
G75*
G02*
X270810000Y-77985000I75000J0D01*
G01*
X272710000Y-77985000D01*
G75*
G02*
X272785000Y-78060000I0J-75000D01*
G01*
X272785000Y-79060000D01*
G75*
G02*
X272710000Y-79135000I-75000J0D01*
G01*
X270810000Y-79135000D01*
G75*
G02*
X270735000Y-79060000I0J75000D01*
G01*
G37*
G36*
G01*
X267435000Y-96840000D02*
X267435000Y-95840000D01*
G75*
G02*
X267510000Y-95765000I75000J0D01*
G01*
X269410000Y-95765000D01*
G75*
G02*
X269485000Y-95840000I0J-75000D01*
G01*
X269485000Y-96840000D01*
G75*
G02*
X269410000Y-96915000I-75000J0D01*
G01*
X267510000Y-96915000D01*
G75*
G02*
X267435000Y-96840000I0J75000D01*
G01*
G37*
G36*
G01*
X267435000Y-91760000D02*
X267435000Y-90760000D01*
G75*
G02*
X267510000Y-90685000I75000J0D01*
G01*
X269410000Y-90685000D01*
G75*
G02*
X269485000Y-90760000I0J-75000D01*
G01*
X269485000Y-91760000D01*
G75*
G02*
X269410000Y-91835000I-75000J0D01*
G01*
X267510000Y-91835000D01*
G75*
G02*
X267435000Y-91760000I0J75000D01*
G01*
G37*
G36*
G01*
X267435000Y-86680000D02*
X267435000Y-85680000D01*
G75*
G02*
X267510000Y-85605000I75000J0D01*
G01*
X269410000Y-85605000D01*
G75*
G02*
X269485000Y-85680000I0J-75000D01*
G01*
X269485000Y-86680000D01*
G75*
G02*
X269410000Y-86755000I-75000J0D01*
G01*
X267510000Y-86755000D01*
G75*
G02*
X267435000Y-86680000I0J75000D01*
G01*
G37*
G36*
G01*
X267435000Y-81600000D02*
X267435000Y-80600000D01*
G75*
G02*
X267510000Y-80525000I75000J0D01*
G01*
X269410000Y-80525000D01*
G75*
G02*
X269485000Y-80600000I0J-75000D01*
G01*
X269485000Y-81600000D01*
G75*
G02*
X269410000Y-81675000I-75000J0D01*
G01*
X267510000Y-81675000D01*
G75*
G02*
X267435000Y-81600000I0J75000D01*
G01*
G37*
%TD*%
%TO.C,R33*%
G36*
G01*
X265435000Y-84233752D02*
X265435000Y-83246248D01*
G75*
G02*
X265716248Y-82965000I281248J0D01*
G01*
X266503752Y-82965000D01*
G75*
G02*
X266785000Y-83246248I0J-281248D01*
G01*
X266785000Y-84233752D01*
G75*
G02*
X266503752Y-84515000I-281248J0D01*
G01*
X265716248Y-84515000D01*
G75*
G02*
X265435000Y-84233752I0J281248D01*
G01*
G37*
G36*
G01*
X263435000Y-84233752D02*
X263435000Y-83246248D01*
G75*
G02*
X263716248Y-82965000I281248J0D01*
G01*
X264503752Y-82965000D01*
G75*
G02*
X264785000Y-83246248I0J-281248D01*
G01*
X264785000Y-84233752D01*
G75*
G02*
X264503752Y-84515000I-281248J0D01*
G01*
X263716248Y-84515000D01*
G75*
G02*
X263435000Y-84233752I0J281248D01*
G01*
G37*
%TD*%
%TO.C,R34*%
G36*
G01*
X265635000Y-81903752D02*
X265635000Y-80916248D01*
G75*
G02*
X265916248Y-80635000I281248J0D01*
G01*
X266703752Y-80635000D01*
G75*
G02*
X266985000Y-80916248I0J-281248D01*
G01*
X266985000Y-81903752D01*
G75*
G02*
X266703752Y-82185000I-281248J0D01*
G01*
X265916248Y-82185000D01*
G75*
G02*
X265635000Y-81903752I0J281248D01*
G01*
G37*
G36*
G01*
X263635000Y-81903752D02*
X263635000Y-80916248D01*
G75*
G02*
X263916248Y-80635000I281248J0D01*
G01*
X264703752Y-80635000D01*
G75*
G02*
X264985000Y-80916248I0J-281248D01*
G01*
X264985000Y-81903752D01*
G75*
G02*
X264703752Y-82185000I-281248J0D01*
G01*
X263916248Y-82185000D01*
G75*
G02*
X263635000Y-81903752I0J281248D01*
G01*
G37*
%TD*%
%TO.C,R62*%
G36*
G01*
X263255000Y-94443752D02*
X263255000Y-93456248D01*
G75*
G02*
X263536248Y-93175000I281248J0D01*
G01*
X264323752Y-93175000D01*
G75*
G02*
X264605000Y-93456248I0J-281248D01*
G01*
X264605000Y-94443752D01*
G75*
G02*
X264323752Y-94725000I-281248J0D01*
G01*
X263536248Y-94725000D01*
G75*
G02*
X263255000Y-94443752I0J281248D01*
G01*
G37*
G36*
G01*
X265255000Y-94443752D02*
X265255000Y-93456248D01*
G75*
G02*
X265536248Y-93175000I281248J0D01*
G01*
X266323752Y-93175000D01*
G75*
G02*
X266605000Y-93456248I0J-281248D01*
G01*
X266605000Y-94443752D01*
G75*
G02*
X266323752Y-94725000I-281248J0D01*
G01*
X265536248Y-94725000D01*
G75*
G02*
X265255000Y-94443752I0J281248D01*
G01*
G37*
%TD*%
%TO.C,U5*%
G36*
G01*
X206227500Y-186195000D02*
X205852500Y-186195000D01*
G75*
G02*
X205665000Y-186007500I0J187500D01*
G01*
X205665000Y-184282500D01*
G75*
G02*
X205852500Y-184095000I187500J0D01*
G01*
X206227500Y-184095000D01*
G75*
G02*
X206415000Y-184282500I0J-187500D01*
G01*
X206415000Y-186007500D01*
G75*
G02*
X206227500Y-186195000I-187500J0D01*
G01*
G37*
G36*
G01*
X207497500Y-186195000D02*
X207122500Y-186195000D01*
G75*
G02*
X206935000Y-186007500I0J187500D01*
G01*
X206935000Y-184282500D01*
G75*
G02*
X207122500Y-184095000I187500J0D01*
G01*
X207497500Y-184095000D01*
G75*
G02*
X207685000Y-184282500I0J-187500D01*
G01*
X207685000Y-186007500D01*
G75*
G02*
X207497500Y-186195000I-187500J0D01*
G01*
G37*
G36*
G01*
X208767500Y-186195000D02*
X208392500Y-186195000D01*
G75*
G02*
X208205000Y-186007500I0J187500D01*
G01*
X208205000Y-184282500D01*
G75*
G02*
X208392500Y-184095000I187500J0D01*
G01*
X208767500Y-184095000D01*
G75*
G02*
X208955000Y-184282500I0J-187500D01*
G01*
X208955000Y-186007500D01*
G75*
G02*
X208767500Y-186195000I-187500J0D01*
G01*
G37*
G36*
G01*
X210037500Y-186195000D02*
X209662500Y-186195000D01*
G75*
G02*
X209475000Y-186007500I0J187500D01*
G01*
X209475000Y-184282500D01*
G75*
G02*
X209662500Y-184095000I187500J0D01*
G01*
X210037500Y-184095000D01*
G75*
G02*
X210225000Y-184282500I0J-187500D01*
G01*
X210225000Y-186007500D01*
G75*
G02*
X210037500Y-186195000I-187500J0D01*
G01*
G37*
G36*
G01*
X211307500Y-186195000D02*
X210932500Y-186195000D01*
G75*
G02*
X210745000Y-186007500I0J187500D01*
G01*
X210745000Y-184282500D01*
G75*
G02*
X210932500Y-184095000I187500J0D01*
G01*
X211307500Y-184095000D01*
G75*
G02*
X211495000Y-184282500I0J-187500D01*
G01*
X211495000Y-186007500D01*
G75*
G02*
X211307500Y-186195000I-187500J0D01*
G01*
G37*
G36*
G01*
X212577500Y-186195000D02*
X212202500Y-186195000D01*
G75*
G02*
X212015000Y-186007500I0J187500D01*
G01*
X212015000Y-184282500D01*
G75*
G02*
X212202500Y-184095000I187500J0D01*
G01*
X212577500Y-184095000D01*
G75*
G02*
X212765000Y-184282500I0J-187500D01*
G01*
X212765000Y-186007500D01*
G75*
G02*
X212577500Y-186195000I-187500J0D01*
G01*
G37*
G36*
G01*
X213847500Y-186195000D02*
X213472500Y-186195000D01*
G75*
G02*
X213285000Y-186007500I0J187500D01*
G01*
X213285000Y-184282500D01*
G75*
G02*
X213472500Y-184095000I187500J0D01*
G01*
X213847500Y-184095000D01*
G75*
G02*
X214035000Y-184282500I0J-187500D01*
G01*
X214035000Y-186007500D01*
G75*
G02*
X213847500Y-186195000I-187500J0D01*
G01*
G37*
G36*
G01*
X213847500Y-181245000D02*
X213472500Y-181245000D01*
G75*
G02*
X213285000Y-181057500I0J187500D01*
G01*
X213285000Y-179332500D01*
G75*
G02*
X213472500Y-179145000I187500J0D01*
G01*
X213847500Y-179145000D01*
G75*
G02*
X214035000Y-179332500I0J-187500D01*
G01*
X214035000Y-181057500D01*
G75*
G02*
X213847500Y-181245000I-187500J0D01*
G01*
G37*
G36*
G01*
X212577500Y-181245000D02*
X212202500Y-181245000D01*
G75*
G02*
X212015000Y-181057500I0J187500D01*
G01*
X212015000Y-179332500D01*
G75*
G02*
X212202500Y-179145000I187500J0D01*
G01*
X212577500Y-179145000D01*
G75*
G02*
X212765000Y-179332500I0J-187500D01*
G01*
X212765000Y-181057500D01*
G75*
G02*
X212577500Y-181245000I-187500J0D01*
G01*
G37*
G36*
G01*
X211307500Y-181245000D02*
X210932500Y-181245000D01*
G75*
G02*
X210745000Y-181057500I0J187500D01*
G01*
X210745000Y-179332500D01*
G75*
G02*
X210932500Y-179145000I187500J0D01*
G01*
X211307500Y-179145000D01*
G75*
G02*
X211495000Y-179332500I0J-187500D01*
G01*
X211495000Y-181057500D01*
G75*
G02*
X211307500Y-181245000I-187500J0D01*
G01*
G37*
G36*
G01*
X210037500Y-181245000D02*
X209662500Y-181245000D01*
G75*
G02*
X209475000Y-181057500I0J187500D01*
G01*
X209475000Y-179332500D01*
G75*
G02*
X209662500Y-179145000I187500J0D01*
G01*
X210037500Y-179145000D01*
G75*
G02*
X210225000Y-179332500I0J-187500D01*
G01*
X210225000Y-181057500D01*
G75*
G02*
X210037500Y-181245000I-187500J0D01*
G01*
G37*
G36*
G01*
X208767500Y-181245000D02*
X208392500Y-181245000D01*
G75*
G02*
X208205000Y-181057500I0J187500D01*
G01*
X208205000Y-179332500D01*
G75*
G02*
X208392500Y-179145000I187500J0D01*
G01*
X208767500Y-179145000D01*
G75*
G02*
X208955000Y-179332500I0J-187500D01*
G01*
X208955000Y-181057500D01*
G75*
G02*
X208767500Y-181245000I-187500J0D01*
G01*
G37*
G36*
G01*
X207497500Y-181245000D02*
X207122500Y-181245000D01*
G75*
G02*
X206935000Y-181057500I0J187500D01*
G01*
X206935000Y-179332500D01*
G75*
G02*
X207122500Y-179145000I187500J0D01*
G01*
X207497500Y-179145000D01*
G75*
G02*
X207685000Y-179332500I0J-187500D01*
G01*
X207685000Y-181057500D01*
G75*
G02*
X207497500Y-181245000I-187500J0D01*
G01*
G37*
G36*
G01*
X206227500Y-181245000D02*
X205852500Y-181245000D01*
G75*
G02*
X205665000Y-181057500I0J187500D01*
G01*
X205665000Y-179332500D01*
G75*
G02*
X205852500Y-179145000I187500J0D01*
G01*
X206227500Y-179145000D01*
G75*
G02*
X206415000Y-179332500I0J-187500D01*
G01*
X206415000Y-181057500D01*
G75*
G02*
X206227500Y-181245000I-187500J0D01*
G01*
G37*
%TD*%
%TO.C,U9*%
G36*
G01*
X228625000Y-50277500D02*
X228625000Y-49902500D01*
G75*
G02*
X228812500Y-49715000I187500J0D01*
G01*
X230537500Y-49715000D01*
G75*
G02*
X230725000Y-49902500I0J-187500D01*
G01*
X230725000Y-50277500D01*
G75*
G02*
X230537500Y-50465000I-187500J0D01*
G01*
X228812500Y-50465000D01*
G75*
G02*
X228625000Y-50277500I0J187500D01*
G01*
G37*
G36*
G01*
X228625000Y-51547500D02*
X228625000Y-51172500D01*
G75*
G02*
X228812500Y-50985000I187500J0D01*
G01*
X230537500Y-50985000D01*
G75*
G02*
X230725000Y-51172500I0J-187500D01*
G01*
X230725000Y-51547500D01*
G75*
G02*
X230537500Y-51735000I-187500J0D01*
G01*
X228812500Y-51735000D01*
G75*
G02*
X228625000Y-51547500I0J187500D01*
G01*
G37*
G36*
G01*
X228625000Y-52817500D02*
X228625000Y-52442500D01*
G75*
G02*
X228812500Y-52255000I187500J0D01*
G01*
X230537500Y-52255000D01*
G75*
G02*
X230725000Y-52442500I0J-187500D01*
G01*
X230725000Y-52817500D01*
G75*
G02*
X230537500Y-53005000I-187500J0D01*
G01*
X228812500Y-53005000D01*
G75*
G02*
X228625000Y-52817500I0J187500D01*
G01*
G37*
G36*
G01*
X228625000Y-54087500D02*
X228625000Y-53712500D01*
G75*
G02*
X228812500Y-53525000I187500J0D01*
G01*
X230537500Y-53525000D01*
G75*
G02*
X230725000Y-53712500I0J-187500D01*
G01*
X230725000Y-54087500D01*
G75*
G02*
X230537500Y-54275000I-187500J0D01*
G01*
X228812500Y-54275000D01*
G75*
G02*
X228625000Y-54087500I0J187500D01*
G01*
G37*
G36*
G01*
X228625000Y-55357500D02*
X228625000Y-54982500D01*
G75*
G02*
X228812500Y-54795000I187500J0D01*
G01*
X230537500Y-54795000D01*
G75*
G02*
X230725000Y-54982500I0J-187500D01*
G01*
X230725000Y-55357500D01*
G75*
G02*
X230537500Y-55545000I-187500J0D01*
G01*
X228812500Y-55545000D01*
G75*
G02*
X228625000Y-55357500I0J187500D01*
G01*
G37*
G36*
G01*
X228625000Y-56627500D02*
X228625000Y-56252500D01*
G75*
G02*
X228812500Y-56065000I187500J0D01*
G01*
X230537500Y-56065000D01*
G75*
G02*
X230725000Y-56252500I0J-187500D01*
G01*
X230725000Y-56627500D01*
G75*
G02*
X230537500Y-56815000I-187500J0D01*
G01*
X228812500Y-56815000D01*
G75*
G02*
X228625000Y-56627500I0J187500D01*
G01*
G37*
G36*
G01*
X228625000Y-57897500D02*
X228625000Y-57522500D01*
G75*
G02*
X228812500Y-57335000I187500J0D01*
G01*
X230537500Y-57335000D01*
G75*
G02*
X230725000Y-57522500I0J-187500D01*
G01*
X230725000Y-57897500D01*
G75*
G02*
X230537500Y-58085000I-187500J0D01*
G01*
X228812500Y-58085000D01*
G75*
G02*
X228625000Y-57897500I0J187500D01*
G01*
G37*
G36*
G01*
X223675000Y-57897500D02*
X223675000Y-57522500D01*
G75*
G02*
X223862500Y-57335000I187500J0D01*
G01*
X225587500Y-57335000D01*
G75*
G02*
X225775000Y-57522500I0J-187500D01*
G01*
X225775000Y-57897500D01*
G75*
G02*
X225587500Y-58085000I-187500J0D01*
G01*
X223862500Y-58085000D01*
G75*
G02*
X223675000Y-57897500I0J187500D01*
G01*
G37*
G36*
G01*
X223675000Y-56627500D02*
X223675000Y-56252500D01*
G75*
G02*
X223862500Y-56065000I187500J0D01*
G01*
X225587500Y-56065000D01*
G75*
G02*
X225775000Y-56252500I0J-187500D01*
G01*
X225775000Y-56627500D01*
G75*
G02*
X225587500Y-56815000I-187500J0D01*
G01*
X223862500Y-56815000D01*
G75*
G02*
X223675000Y-56627500I0J187500D01*
G01*
G37*
G36*
G01*
X223675000Y-55357500D02*
X223675000Y-54982500D01*
G75*
G02*
X223862500Y-54795000I187500J0D01*
G01*
X225587500Y-54795000D01*
G75*
G02*
X225775000Y-54982500I0J-187500D01*
G01*
X225775000Y-55357500D01*
G75*
G02*
X225587500Y-55545000I-187500J0D01*
G01*
X223862500Y-55545000D01*
G75*
G02*
X223675000Y-55357500I0J187500D01*
G01*
G37*
G36*
G01*
X223675000Y-54087500D02*
X223675000Y-53712500D01*
G75*
G02*
X223862500Y-53525000I187500J0D01*
G01*
X225587500Y-53525000D01*
G75*
G02*
X225775000Y-53712500I0J-187500D01*
G01*
X225775000Y-54087500D01*
G75*
G02*
X225587500Y-54275000I-187500J0D01*
G01*
X223862500Y-54275000D01*
G75*
G02*
X223675000Y-54087500I0J187500D01*
G01*
G37*
G36*
G01*
X223675000Y-52817500D02*
X223675000Y-52442500D01*
G75*
G02*
X223862500Y-52255000I187500J0D01*
G01*
X225587500Y-52255000D01*
G75*
G02*
X225775000Y-52442500I0J-187500D01*
G01*
X225775000Y-52817500D01*
G75*
G02*
X225587500Y-53005000I-187500J0D01*
G01*
X223862500Y-53005000D01*
G75*
G02*
X223675000Y-52817500I0J187500D01*
G01*
G37*
G36*
G01*
X223675000Y-51547500D02*
X223675000Y-51172500D01*
G75*
G02*
X223862500Y-50985000I187500J0D01*
G01*
X225587500Y-50985000D01*
G75*
G02*
X225775000Y-51172500I0J-187500D01*
G01*
X225775000Y-51547500D01*
G75*
G02*
X225587500Y-51735000I-187500J0D01*
G01*
X223862500Y-51735000D01*
G75*
G02*
X223675000Y-51547500I0J187500D01*
G01*
G37*
G36*
G01*
X223675000Y-50277500D02*
X223675000Y-49902500D01*
G75*
G02*
X223862500Y-49715000I187500J0D01*
G01*
X225587500Y-49715000D01*
G75*
G02*
X225775000Y-49902500I0J-187500D01*
G01*
X225775000Y-50277500D01*
G75*
G02*
X225587500Y-50465000I-187500J0D01*
G01*
X223862500Y-50465000D01*
G75*
G02*
X223675000Y-50277500I0J187500D01*
G01*
G37*
%TD*%
%TO.C,J2*%
G36*
G01*
X203027000Y-60305000D02*
X203027000Y-61955000D01*
G75*
G02*
X202925000Y-62057000I-102000J0D01*
G01*
X201275000Y-62057000D01*
G75*
G02*
X201173000Y-61955000I0J102000D01*
G01*
X201173000Y-60305000D01*
G75*
G02*
X201275000Y-60203000I102000J0D01*
G01*
X202925000Y-60203000D01*
G75*
G02*
X203027000Y-60305000I0J-102000D01*
G01*
G37*
D20*
X204390000Y-61130000D03*
X206680000Y-61130000D03*
X208970000Y-61130000D03*
X211260000Y-61130000D03*
X200955000Y-58590000D03*
X203245000Y-58590000D03*
X205535000Y-58590000D03*
X207825000Y-58590000D03*
X210115000Y-58590000D03*
X202100000Y-56050000D03*
X204390000Y-56050000D03*
X206680000Y-56050000D03*
X208970000Y-56050000D03*
X211260000Y-56050000D03*
D21*
X218925000Y-58590000D03*
X193935000Y-58590000D03*
%TD*%
%TO.C,J1*%
G36*
G01*
X260290000Y-78795000D02*
X259290000Y-78795000D01*
G75*
G02*
X259215000Y-78720000I0J75000D01*
G01*
X259215000Y-75720000D01*
G75*
G02*
X259290000Y-75645000I75000J0D01*
G01*
X260290000Y-75645000D01*
G75*
G02*
X260365000Y-75720000I0J-75000D01*
G01*
X260365000Y-78720000D01*
G75*
G02*
X260290000Y-78795000I-75000J0D01*
G01*
G37*
G36*
G01*
X260290000Y-73755000D02*
X259290000Y-73755000D01*
G75*
G02*
X259215000Y-73680000I0J75000D01*
G01*
X259215000Y-70680000D01*
G75*
G02*
X259290000Y-70605000I75000J0D01*
G01*
X260290000Y-70605000D01*
G75*
G02*
X260365000Y-70680000I0J-75000D01*
G01*
X260365000Y-73680000D01*
G75*
G02*
X260290000Y-73755000I-75000J0D01*
G01*
G37*
G36*
G01*
X257750000Y-78795000D02*
X256750000Y-78795000D01*
G75*
G02*
X256675000Y-78720000I0J75000D01*
G01*
X256675000Y-75720000D01*
G75*
G02*
X256750000Y-75645000I75000J0D01*
G01*
X257750000Y-75645000D01*
G75*
G02*
X257825000Y-75720000I0J-75000D01*
G01*
X257825000Y-78720000D01*
G75*
G02*
X257750000Y-78795000I-75000J0D01*
G01*
G37*
G36*
G01*
X257750000Y-73755000D02*
X256750000Y-73755000D01*
G75*
G02*
X256675000Y-73680000I0J75000D01*
G01*
X256675000Y-70680000D01*
G75*
G02*
X256750000Y-70605000I75000J0D01*
G01*
X257750000Y-70605000D01*
G75*
G02*
X257825000Y-70680000I0J-75000D01*
G01*
X257825000Y-73680000D01*
G75*
G02*
X257750000Y-73755000I-75000J0D01*
G01*
G37*
G36*
G01*
X255210000Y-78795000D02*
X254210000Y-78795000D01*
G75*
G02*
X254135000Y-78720000I0J75000D01*
G01*
X254135000Y-75720000D01*
G75*
G02*
X254210000Y-75645000I75000J0D01*
G01*
X255210000Y-75645000D01*
G75*
G02*
X255285000Y-75720000I0J-75000D01*
G01*
X255285000Y-78720000D01*
G75*
G02*
X255210000Y-78795000I-75000J0D01*
G01*
G37*
G36*
G01*
X255210000Y-73755000D02*
X254210000Y-73755000D01*
G75*
G02*
X254135000Y-73680000I0J75000D01*
G01*
X254135000Y-70680000D01*
G75*
G02*
X254210000Y-70605000I75000J0D01*
G01*
X255210000Y-70605000D01*
G75*
G02*
X255285000Y-70680000I0J-75000D01*
G01*
X255285000Y-73680000D01*
G75*
G02*
X255210000Y-73755000I-75000J0D01*
G01*
G37*
G36*
G01*
X252670000Y-78795000D02*
X251670000Y-78795000D01*
G75*
G02*
X251595000Y-78720000I0J75000D01*
G01*
X251595000Y-75720000D01*
G75*
G02*
X251670000Y-75645000I75000J0D01*
G01*
X252670000Y-75645000D01*
G75*
G02*
X252745000Y-75720000I0J-75000D01*
G01*
X252745000Y-78720000D01*
G75*
G02*
X252670000Y-78795000I-75000J0D01*
G01*
G37*
G36*
G01*
X252670000Y-73755000D02*
X251670000Y-73755000D01*
G75*
G02*
X251595000Y-73680000I0J75000D01*
G01*
X251595000Y-70680000D01*
G75*
G02*
X251670000Y-70605000I75000J0D01*
G01*
X252670000Y-70605000D01*
G75*
G02*
X252745000Y-70680000I0J-75000D01*
G01*
X252745000Y-73680000D01*
G75*
G02*
X252670000Y-73755000I-75000J0D01*
G01*
G37*
G36*
G01*
X250130000Y-78795000D02*
X249130000Y-78795000D01*
G75*
G02*
X249055000Y-78720000I0J75000D01*
G01*
X249055000Y-75720000D01*
G75*
G02*
X249130000Y-75645000I75000J0D01*
G01*
X250130000Y-75645000D01*
G75*
G02*
X250205000Y-75720000I0J-75000D01*
G01*
X250205000Y-78720000D01*
G75*
G02*
X250130000Y-78795000I-75000J0D01*
G01*
G37*
G36*
G01*
X250130000Y-73755000D02*
X249130000Y-73755000D01*
G75*
G02*
X249055000Y-73680000I0J75000D01*
G01*
X249055000Y-70680000D01*
G75*
G02*
X249130000Y-70605000I75000J0D01*
G01*
X250130000Y-70605000D01*
G75*
G02*
X250205000Y-70680000I0J-75000D01*
G01*
X250205000Y-73680000D01*
G75*
G02*
X250130000Y-73755000I-75000J0D01*
G01*
G37*
G36*
G01*
X247590000Y-78795000D02*
X246590000Y-78795000D01*
G75*
G02*
X246515000Y-78720000I0J75000D01*
G01*
X246515000Y-75720000D01*
G75*
G02*
X246590000Y-75645000I75000J0D01*
G01*
X247590000Y-75645000D01*
G75*
G02*
X247665000Y-75720000I0J-75000D01*
G01*
X247665000Y-78720000D01*
G75*
G02*
X247590000Y-78795000I-75000J0D01*
G01*
G37*
G36*
G01*
X247590000Y-73755000D02*
X246590000Y-73755000D01*
G75*
G02*
X246515000Y-73680000I0J75000D01*
G01*
X246515000Y-70680000D01*
G75*
G02*
X246590000Y-70605000I75000J0D01*
G01*
X247590000Y-70605000D01*
G75*
G02*
X247665000Y-70680000I0J-75000D01*
G01*
X247665000Y-73680000D01*
G75*
G02*
X247590000Y-73755000I-75000J0D01*
G01*
G37*
G36*
G01*
X245050000Y-78795000D02*
X244050000Y-78795000D01*
G75*
G02*
X243975000Y-78720000I0J75000D01*
G01*
X243975000Y-75720000D01*
G75*
G02*
X244050000Y-75645000I75000J0D01*
G01*
X245050000Y-75645000D01*
G75*
G02*
X245125000Y-75720000I0J-75000D01*
G01*
X245125000Y-78720000D01*
G75*
G02*
X245050000Y-78795000I-75000J0D01*
G01*
G37*
G36*
G01*
X245050000Y-73755000D02*
X244050000Y-73755000D01*
G75*
G02*
X243975000Y-73680000I0J75000D01*
G01*
X243975000Y-70680000D01*
G75*
G02*
X244050000Y-70605000I75000J0D01*
G01*
X245050000Y-70605000D01*
G75*
G02*
X245125000Y-70680000I0J-75000D01*
G01*
X245125000Y-73680000D01*
G75*
G02*
X245050000Y-73755000I-75000J0D01*
G01*
G37*
G36*
G01*
X242510000Y-78795000D02*
X241510000Y-78795000D01*
G75*
G02*
X241435000Y-78720000I0J75000D01*
G01*
X241435000Y-75720000D01*
G75*
G02*
X241510000Y-75645000I75000J0D01*
G01*
X242510000Y-75645000D01*
G75*
G02*
X242585000Y-75720000I0J-75000D01*
G01*
X242585000Y-78720000D01*
G75*
G02*
X242510000Y-78795000I-75000J0D01*
G01*
G37*
G36*
G01*
X242510000Y-73755000D02*
X241510000Y-73755000D01*
G75*
G02*
X241435000Y-73680000I0J75000D01*
G01*
X241435000Y-70680000D01*
G75*
G02*
X241510000Y-70605000I75000J0D01*
G01*
X242510000Y-70605000D01*
G75*
G02*
X242585000Y-70680000I0J-75000D01*
G01*
X242585000Y-73680000D01*
G75*
G02*
X242510000Y-73755000I-75000J0D01*
G01*
G37*
%TD*%
D22*
%TO.C,H1*%
X187910000Y-54290000D03*
%TD*%
%TO.C,H2*%
X239910000Y-50290000D03*
%TD*%
%TO.C,C2*%
G36*
G01*
X233825000Y-184456914D02*
X233825000Y-185493086D01*
G75*
G02*
X233543086Y-185775000I-281914J0D01*
G01*
X232781914Y-185775000D01*
G75*
G02*
X232500000Y-185493086I0J281914D01*
G01*
X232500000Y-184456914D01*
G75*
G02*
X232781914Y-184175000I281914J0D01*
G01*
X233543086Y-184175000D01*
G75*
G02*
X233825000Y-184456914I0J-281914D01*
G01*
G37*
G36*
G01*
X235900000Y-184456914D02*
X235900000Y-185493086D01*
G75*
G02*
X235618086Y-185775000I-281914J0D01*
G01*
X234856914Y-185775000D01*
G75*
G02*
X234575000Y-185493086I0J281914D01*
G01*
X234575000Y-184456914D01*
G75*
G02*
X234856914Y-184175000I281914J0D01*
G01*
X235618086Y-184175000D01*
G75*
G02*
X235900000Y-184456914I0J-281914D01*
G01*
G37*
%TD*%
%TO.C,C4*%
G36*
G01*
X214598823Y-90531507D02*
X215331507Y-89798823D01*
G75*
G02*
X215730193Y-89798823I199343J-199343D01*
G01*
X216268423Y-90337053D01*
G75*
G02*
X216268423Y-90735739I-199343J-199343D01*
G01*
X215535739Y-91468423D01*
G75*
G02*
X215137053Y-91468423I-199343J199343D01*
G01*
X214598823Y-90930193D01*
G75*
G02*
X214598823Y-90531507I199343J199343D01*
G01*
G37*
G36*
G01*
X213131577Y-89064261D02*
X213864261Y-88331577D01*
G75*
G02*
X214262947Y-88331577I199343J-199343D01*
G01*
X214801177Y-88869807D01*
G75*
G02*
X214801177Y-89268493I-199343J-199343D01*
G01*
X214068493Y-90001177D01*
G75*
G02*
X213669807Y-90001177I-199343J199343D01*
G01*
X213131577Y-89462947D01*
G75*
G02*
X213131577Y-89064261I199343J199343D01*
G01*
G37*
%TD*%
%TO.C,C5*%
G36*
G01*
X203835739Y-92431577D02*
X204568423Y-93164261D01*
G75*
G02*
X204568423Y-93562947I-199343J-199343D01*
G01*
X204030193Y-94101177D01*
G75*
G02*
X203631507Y-94101177I-199343J199343D01*
G01*
X202898823Y-93368493D01*
G75*
G02*
X202898823Y-92969807I199343J199343D01*
G01*
X203437053Y-92431577D01*
G75*
G02*
X203835739Y-92431577I199343J-199343D01*
G01*
G37*
G36*
G01*
X202368493Y-93898823D02*
X203101177Y-94631507D01*
G75*
G02*
X203101177Y-95030193I-199343J-199343D01*
G01*
X202562947Y-95568423D01*
G75*
G02*
X202164261Y-95568423I-199343J199343D01*
G01*
X201431577Y-94835739D01*
G75*
G02*
X201431577Y-94437053I199343J199343D01*
G01*
X201969807Y-93898823D01*
G75*
G02*
X202368493Y-93898823I199343J-199343D01*
G01*
G37*
%TD*%
%TO.C,C8*%
G36*
G01*
X211631577Y-93364261D02*
X212364261Y-92631577D01*
G75*
G02*
X212762947Y-92631577I199343J-199343D01*
G01*
X213301177Y-93169807D01*
G75*
G02*
X213301177Y-93568493I-199343J-199343D01*
G01*
X212568493Y-94301177D01*
G75*
G02*
X212169807Y-94301177I-199343J199343D01*
G01*
X211631577Y-93762947D01*
G75*
G02*
X211631577Y-93364261I199343J199343D01*
G01*
G37*
G36*
G01*
X213098823Y-94831507D02*
X213831507Y-94098823D01*
G75*
G02*
X214230193Y-94098823I199343J-199343D01*
G01*
X214768423Y-94637053D01*
G75*
G02*
X214768423Y-95035739I-199343J-199343D01*
G01*
X214035739Y-95768423D01*
G75*
G02*
X213637053Y-95768423I-199343J199343D01*
G01*
X213098823Y-95230193D01*
G75*
G02*
X213098823Y-94831507I199343J199343D01*
G01*
G37*
%TD*%
%TO.C,C9*%
G36*
G01*
X174200000Y-176118086D02*
X174200000Y-175081914D01*
G75*
G02*
X174481914Y-174800000I281914J0D01*
G01*
X175243086Y-174800000D01*
G75*
G02*
X175525000Y-175081914I0J-281914D01*
G01*
X175525000Y-176118086D01*
G75*
G02*
X175243086Y-176400000I-281914J0D01*
G01*
X174481914Y-176400000D01*
G75*
G02*
X174200000Y-176118086I0J281914D01*
G01*
G37*
G36*
G01*
X176275000Y-176118086D02*
X176275000Y-175081914D01*
G75*
G02*
X176556914Y-174800000I281914J0D01*
G01*
X177318086Y-174800000D01*
G75*
G02*
X177600000Y-175081914I0J-281914D01*
G01*
X177600000Y-176118086D01*
G75*
G02*
X177318086Y-176400000I-281914J0D01*
G01*
X176556914Y-176400000D01*
G75*
G02*
X176275000Y-176118086I0J281914D01*
G01*
G37*
%TD*%
%TO.C,C10*%
G36*
G01*
X218325000Y-186606914D02*
X218325000Y-187643086D01*
G75*
G02*
X218043086Y-187925000I-281914J0D01*
G01*
X217281914Y-187925000D01*
G75*
G02*
X217000000Y-187643086I0J281914D01*
G01*
X217000000Y-186606914D01*
G75*
G02*
X217281914Y-186325000I281914J0D01*
G01*
X218043086Y-186325000D01*
G75*
G02*
X218325000Y-186606914I0J-281914D01*
G01*
G37*
G36*
G01*
X220400000Y-186606914D02*
X220400000Y-187643086D01*
G75*
G02*
X220118086Y-187925000I-281914J0D01*
G01*
X219356914Y-187925000D01*
G75*
G02*
X219075000Y-187643086I0J281914D01*
G01*
X219075000Y-186606914D01*
G75*
G02*
X219356914Y-186325000I281914J0D01*
G01*
X220118086Y-186325000D01*
G75*
G02*
X220400000Y-186606914I0J-281914D01*
G01*
G37*
%TD*%
%TO.C,C12*%
G36*
G01*
X232375000Y-175893086D02*
X232375000Y-174856914D01*
G75*
G02*
X232656914Y-174575000I281914J0D01*
G01*
X233418086Y-174575000D01*
G75*
G02*
X233700000Y-174856914I0J-281914D01*
G01*
X233700000Y-175893086D01*
G75*
G02*
X233418086Y-176175000I-281914J0D01*
G01*
X232656914Y-176175000D01*
G75*
G02*
X232375000Y-175893086I0J281914D01*
G01*
G37*
G36*
G01*
X234450000Y-175893086D02*
X234450000Y-174856914D01*
G75*
G02*
X234731914Y-174575000I281914J0D01*
G01*
X235493086Y-174575000D01*
G75*
G02*
X235775000Y-174856914I0J-281914D01*
G01*
X235775000Y-175893086D01*
G75*
G02*
X235493086Y-176175000I-281914J0D01*
G01*
X234731914Y-176175000D01*
G75*
G02*
X234450000Y-175893086I0J281914D01*
G01*
G37*
%TD*%
%TO.C,C15*%
G36*
G01*
X234321914Y-118360000D02*
X235358086Y-118360000D01*
G75*
G02*
X235640000Y-118641914I0J-281914D01*
G01*
X235640000Y-119403086D01*
G75*
G02*
X235358086Y-119685000I-281914J0D01*
G01*
X234321914Y-119685000D01*
G75*
G02*
X234040000Y-119403086I0J281914D01*
G01*
X234040000Y-118641914D01*
G75*
G02*
X234321914Y-118360000I281914J0D01*
G01*
G37*
G36*
G01*
X234321914Y-120435000D02*
X235358086Y-120435000D01*
G75*
G02*
X235640000Y-120716914I0J-281914D01*
G01*
X235640000Y-121478086D01*
G75*
G02*
X235358086Y-121760000I-281914J0D01*
G01*
X234321914Y-121760000D01*
G75*
G02*
X234040000Y-121478086I0J281914D01*
G01*
X234040000Y-120716914D01*
G75*
G02*
X234321914Y-120435000I281914J0D01*
G01*
G37*
%TD*%
%TO.C,C16*%
G36*
G01*
X236811914Y-118380000D02*
X237848086Y-118380000D01*
G75*
G02*
X238130000Y-118661914I0J-281914D01*
G01*
X238130000Y-119423086D01*
G75*
G02*
X237848086Y-119705000I-281914J0D01*
G01*
X236811914Y-119705000D01*
G75*
G02*
X236530000Y-119423086I0J281914D01*
G01*
X236530000Y-118661914D01*
G75*
G02*
X236811914Y-118380000I281914J0D01*
G01*
G37*
G36*
G01*
X236811914Y-120455000D02*
X237848086Y-120455000D01*
G75*
G02*
X238130000Y-120736914I0J-281914D01*
G01*
X238130000Y-121498086D01*
G75*
G02*
X237848086Y-121780000I-281914J0D01*
G01*
X236811914Y-121780000D01*
G75*
G02*
X236530000Y-121498086I0J281914D01*
G01*
X236530000Y-120736914D01*
G75*
G02*
X236811914Y-120455000I281914J0D01*
G01*
G37*
%TD*%
%TO.C,C17*%
G36*
G01*
X224051914Y-120415000D02*
X225088086Y-120415000D01*
G75*
G02*
X225370000Y-120696914I0J-281914D01*
G01*
X225370000Y-121458086D01*
G75*
G02*
X225088086Y-121740000I-281914J0D01*
G01*
X224051914Y-121740000D01*
G75*
G02*
X223770000Y-121458086I0J281914D01*
G01*
X223770000Y-120696914D01*
G75*
G02*
X224051914Y-120415000I281914J0D01*
G01*
G37*
G36*
G01*
X224051914Y-118340000D02*
X225088086Y-118340000D01*
G75*
G02*
X225370000Y-118621914I0J-281914D01*
G01*
X225370000Y-119383086D01*
G75*
G02*
X225088086Y-119665000I-281914J0D01*
G01*
X224051914Y-119665000D01*
G75*
G02*
X223770000Y-119383086I0J281914D01*
G01*
X223770000Y-118621914D01*
G75*
G02*
X224051914Y-118340000I281914J0D01*
G01*
G37*
%TD*%
%TO.C,C18*%
G36*
G01*
X226701914Y-120415000D02*
X227738086Y-120415000D01*
G75*
G02*
X228020000Y-120696914I0J-281914D01*
G01*
X228020000Y-121458086D01*
G75*
G02*
X227738086Y-121740000I-281914J0D01*
G01*
X226701914Y-121740000D01*
G75*
G02*
X226420000Y-121458086I0J281914D01*
G01*
X226420000Y-120696914D01*
G75*
G02*
X226701914Y-120415000I281914J0D01*
G01*
G37*
G36*
G01*
X226701914Y-118340000D02*
X227738086Y-118340000D01*
G75*
G02*
X228020000Y-118621914I0J-281914D01*
G01*
X228020000Y-119383086D01*
G75*
G02*
X227738086Y-119665000I-281914J0D01*
G01*
X226701914Y-119665000D01*
G75*
G02*
X226420000Y-119383086I0J281914D01*
G01*
X226420000Y-118621914D01*
G75*
G02*
X226701914Y-118340000I281914J0D01*
G01*
G37*
%TD*%
%TO.C,C19*%
G36*
G01*
X240078086Y-112567500D02*
X239041914Y-112567500D01*
G75*
G02*
X238760000Y-112285586I0J281914D01*
G01*
X238760000Y-111524414D01*
G75*
G02*
X239041914Y-111242500I281914J0D01*
G01*
X240078086Y-111242500D01*
G75*
G02*
X240360000Y-111524414I0J-281914D01*
G01*
X240360000Y-112285586D01*
G75*
G02*
X240078086Y-112567500I-281914J0D01*
G01*
G37*
G36*
G01*
X240078086Y-110492500D02*
X239041914Y-110492500D01*
G75*
G02*
X238760000Y-110210586I0J281914D01*
G01*
X238760000Y-109449414D01*
G75*
G02*
X239041914Y-109167500I281914J0D01*
G01*
X240078086Y-109167500D01*
G75*
G02*
X240360000Y-109449414I0J-281914D01*
G01*
X240360000Y-110210586D01*
G75*
G02*
X240078086Y-110492500I-281914J0D01*
G01*
G37*
%TD*%
%TO.C,C20*%
G36*
G01*
X242578086Y-112590000D02*
X241541914Y-112590000D01*
G75*
G02*
X241260000Y-112308086I0J281914D01*
G01*
X241260000Y-111546914D01*
G75*
G02*
X241541914Y-111265000I281914J0D01*
G01*
X242578086Y-111265000D01*
G75*
G02*
X242860000Y-111546914I0J-281914D01*
G01*
X242860000Y-112308086D01*
G75*
G02*
X242578086Y-112590000I-281914J0D01*
G01*
G37*
G36*
G01*
X242578086Y-110515000D02*
X241541914Y-110515000D01*
G75*
G02*
X241260000Y-110233086I0J281914D01*
G01*
X241260000Y-109471914D01*
G75*
G02*
X241541914Y-109190000I281914J0D01*
G01*
X242578086Y-109190000D01*
G75*
G02*
X242860000Y-109471914I0J-281914D01*
G01*
X242860000Y-110233086D01*
G75*
G02*
X242578086Y-110515000I-281914J0D01*
G01*
G37*
%TD*%
%TO.C,C21*%
G36*
G01*
X249445000Y-110468086D02*
X249445000Y-109431914D01*
G75*
G02*
X249726914Y-109150000I281914J0D01*
G01*
X250488086Y-109150000D01*
G75*
G02*
X250770000Y-109431914I0J-281914D01*
G01*
X250770000Y-110468086D01*
G75*
G02*
X250488086Y-110750000I-281914J0D01*
G01*
X249726914Y-110750000D01*
G75*
G02*
X249445000Y-110468086I0J281914D01*
G01*
G37*
G36*
G01*
X247370000Y-110468086D02*
X247370000Y-109431914D01*
G75*
G02*
X247651914Y-109150000I281914J0D01*
G01*
X248413086Y-109150000D01*
G75*
G02*
X248695000Y-109431914I0J-281914D01*
G01*
X248695000Y-110468086D01*
G75*
G02*
X248413086Y-110750000I-281914J0D01*
G01*
X247651914Y-110750000D01*
G75*
G02*
X247370000Y-110468086I0J281914D01*
G01*
G37*
%TD*%
%TO.C,C22*%
G36*
G01*
X247370000Y-113058086D02*
X247370000Y-112021914D01*
G75*
G02*
X247651914Y-111740000I281914J0D01*
G01*
X248413086Y-111740000D01*
G75*
G02*
X248695000Y-112021914I0J-281914D01*
G01*
X248695000Y-113058086D01*
G75*
G02*
X248413086Y-113340000I-281914J0D01*
G01*
X247651914Y-113340000D01*
G75*
G02*
X247370000Y-113058086I0J281914D01*
G01*
G37*
G36*
G01*
X249445000Y-113058086D02*
X249445000Y-112021914D01*
G75*
G02*
X249726914Y-111740000I281914J0D01*
G01*
X250488086Y-111740000D01*
G75*
G02*
X250770000Y-112021914I0J-281914D01*
G01*
X250770000Y-113058086D01*
G75*
G02*
X250488086Y-113340000I-281914J0D01*
G01*
X249726914Y-113340000D01*
G75*
G02*
X249445000Y-113058086I0J281914D01*
G01*
G37*
%TD*%
%TO.C,C23*%
G36*
G01*
X241520000Y-131508086D02*
X241520000Y-130471914D01*
G75*
G02*
X241801914Y-130190000I281914J0D01*
G01*
X242563086Y-130190000D01*
G75*
G02*
X242845000Y-130471914I0J-281914D01*
G01*
X242845000Y-131508086D01*
G75*
G02*
X242563086Y-131790000I-281914J0D01*
G01*
X241801914Y-131790000D01*
G75*
G02*
X241520000Y-131508086I0J281914D01*
G01*
G37*
G36*
G01*
X243595000Y-131508086D02*
X243595000Y-130471914D01*
G75*
G02*
X243876914Y-130190000I281914J0D01*
G01*
X244638086Y-130190000D01*
G75*
G02*
X244920000Y-130471914I0J-281914D01*
G01*
X244920000Y-131508086D01*
G75*
G02*
X244638086Y-131790000I-281914J0D01*
G01*
X243876914Y-131790000D01*
G75*
G02*
X243595000Y-131508086I0J281914D01*
G01*
G37*
%TD*%
%TO.C,C24*%
G36*
G01*
X241530000Y-127908086D02*
X241530000Y-126871914D01*
G75*
G02*
X241811914Y-126590000I281914J0D01*
G01*
X242573086Y-126590000D01*
G75*
G02*
X242855000Y-126871914I0J-281914D01*
G01*
X242855000Y-127908086D01*
G75*
G02*
X242573086Y-128190000I-281914J0D01*
G01*
X241811914Y-128190000D01*
G75*
G02*
X241530000Y-127908086I0J281914D01*
G01*
G37*
G36*
G01*
X243605000Y-127908086D02*
X243605000Y-126871914D01*
G75*
G02*
X243886914Y-126590000I281914J0D01*
G01*
X244648086Y-126590000D01*
G75*
G02*
X244930000Y-126871914I0J-281914D01*
G01*
X244930000Y-127908086D01*
G75*
G02*
X244648086Y-128190000I-281914J0D01*
G01*
X243886914Y-128190000D01*
G75*
G02*
X243605000Y-127908086I0J281914D01*
G01*
G37*
%TD*%
%TO.C,C25*%
G36*
G01*
X207860000Y-98538086D02*
X207860000Y-97501914D01*
G75*
G02*
X208141914Y-97220000I281914J0D01*
G01*
X208903086Y-97220000D01*
G75*
G02*
X209185000Y-97501914I0J-281914D01*
G01*
X209185000Y-98538086D01*
G75*
G02*
X208903086Y-98820000I-281914J0D01*
G01*
X208141914Y-98820000D01*
G75*
G02*
X207860000Y-98538086I0J281914D01*
G01*
G37*
G36*
G01*
X209935000Y-98538086D02*
X209935000Y-97501914D01*
G75*
G02*
X210216914Y-97220000I281914J0D01*
G01*
X210978086Y-97220000D01*
G75*
G02*
X211260000Y-97501914I0J-281914D01*
G01*
X211260000Y-98538086D01*
G75*
G02*
X210978086Y-98820000I-281914J0D01*
G01*
X210216914Y-98820000D01*
G75*
G02*
X209935000Y-98538086I0J281914D01*
G01*
G37*
%TD*%
%TO.C,C28*%
G36*
G01*
X259968086Y-63220000D02*
X258931914Y-63220000D01*
G75*
G02*
X258650000Y-62938086I0J281914D01*
G01*
X258650000Y-62176914D01*
G75*
G02*
X258931914Y-61895000I281914J0D01*
G01*
X259968086Y-61895000D01*
G75*
G02*
X260250000Y-62176914I0J-281914D01*
G01*
X260250000Y-62938086D01*
G75*
G02*
X259968086Y-63220000I-281914J0D01*
G01*
G37*
G36*
G01*
X259968086Y-61145000D02*
X258931914Y-61145000D01*
G75*
G02*
X258650000Y-60863086I0J281914D01*
G01*
X258650000Y-60101914D01*
G75*
G02*
X258931914Y-59820000I281914J0D01*
G01*
X259968086Y-59820000D01*
G75*
G02*
X260250000Y-60101914I0J-281914D01*
G01*
X260250000Y-60863086D01*
G75*
G02*
X259968086Y-61145000I-281914J0D01*
G01*
G37*
%TD*%
%TO.C,C30*%
G36*
G01*
X235775000Y-80518086D02*
X235775000Y-79481914D01*
G75*
G02*
X236056914Y-79200000I281914J0D01*
G01*
X236818086Y-79200000D01*
G75*
G02*
X237100000Y-79481914I0J-281914D01*
G01*
X237100000Y-80518086D01*
G75*
G02*
X236818086Y-80800000I-281914J0D01*
G01*
X236056914Y-80800000D01*
G75*
G02*
X235775000Y-80518086I0J281914D01*
G01*
G37*
G36*
G01*
X233700000Y-80518086D02*
X233700000Y-79481914D01*
G75*
G02*
X233981914Y-79200000I281914J0D01*
G01*
X234743086Y-79200000D01*
G75*
G02*
X235025000Y-79481914I0J-281914D01*
G01*
X235025000Y-80518086D01*
G75*
G02*
X234743086Y-80800000I-281914J0D01*
G01*
X233981914Y-80800000D01*
G75*
G02*
X233700000Y-80518086I0J281914D01*
G01*
G37*
%TD*%
%TO.C,C34*%
G36*
G01*
X232350000Y-85393086D02*
X232350000Y-84356914D01*
G75*
G02*
X232631914Y-84075000I281914J0D01*
G01*
X233393086Y-84075000D01*
G75*
G02*
X233675000Y-84356914I0J-281914D01*
G01*
X233675000Y-85393086D01*
G75*
G02*
X233393086Y-85675000I-281914J0D01*
G01*
X232631914Y-85675000D01*
G75*
G02*
X232350000Y-85393086I0J281914D01*
G01*
G37*
G36*
G01*
X230275000Y-85393086D02*
X230275000Y-84356914D01*
G75*
G02*
X230556914Y-84075000I281914J0D01*
G01*
X231318086Y-84075000D01*
G75*
G02*
X231600000Y-84356914I0J-281914D01*
G01*
X231600000Y-85393086D01*
G75*
G02*
X231318086Y-85675000I-281914J0D01*
G01*
X230556914Y-85675000D01*
G75*
G02*
X230275000Y-85393086I0J281914D01*
G01*
G37*
%TD*%
%TO.C,C36*%
G36*
G01*
X232525000Y-82918086D02*
X232525000Y-81881914D01*
G75*
G02*
X232806914Y-81600000I281914J0D01*
G01*
X233568086Y-81600000D01*
G75*
G02*
X233850000Y-81881914I0J-281914D01*
G01*
X233850000Y-82918086D01*
G75*
G02*
X233568086Y-83200000I-281914J0D01*
G01*
X232806914Y-83200000D01*
G75*
G02*
X232525000Y-82918086I0J281914D01*
G01*
G37*
G36*
G01*
X234600000Y-82918086D02*
X234600000Y-81881914D01*
G75*
G02*
X234881914Y-81600000I281914J0D01*
G01*
X235643086Y-81600000D01*
G75*
G02*
X235925000Y-81881914I0J-281914D01*
G01*
X235925000Y-82918086D01*
G75*
G02*
X235643086Y-83200000I-281914J0D01*
G01*
X234881914Y-83200000D01*
G75*
G02*
X234600000Y-82918086I0J281914D01*
G01*
G37*
%TD*%
%TO.C,C37*%
G36*
G01*
X154625000Y-59981914D02*
X154625000Y-61018086D01*
G75*
G02*
X154343086Y-61300000I-281914J0D01*
G01*
X153581914Y-61300000D01*
G75*
G02*
X153300000Y-61018086I0J281914D01*
G01*
X153300000Y-59981914D01*
G75*
G02*
X153581914Y-59700000I281914J0D01*
G01*
X154343086Y-59700000D01*
G75*
G02*
X154625000Y-59981914I0J-281914D01*
G01*
G37*
G36*
G01*
X156700000Y-59981914D02*
X156700000Y-61018086D01*
G75*
G02*
X156418086Y-61300000I-281914J0D01*
G01*
X155656914Y-61300000D01*
G75*
G02*
X155375000Y-61018086I0J281914D01*
G01*
X155375000Y-59981914D01*
G75*
G02*
X155656914Y-59700000I281914J0D01*
G01*
X156418086Y-59700000D01*
G75*
G02*
X156700000Y-59981914I0J-281914D01*
G01*
G37*
%TD*%
%TO.C,C38*%
G36*
G01*
X169375000Y-61518086D02*
X169375000Y-60481914D01*
G75*
G02*
X169656914Y-60200000I281914J0D01*
G01*
X170418086Y-60200000D01*
G75*
G02*
X170700000Y-60481914I0J-281914D01*
G01*
X170700000Y-61518086D01*
G75*
G02*
X170418086Y-61800000I-281914J0D01*
G01*
X169656914Y-61800000D01*
G75*
G02*
X169375000Y-61518086I0J281914D01*
G01*
G37*
G36*
G01*
X167300000Y-61518086D02*
X167300000Y-60481914D01*
G75*
G02*
X167581914Y-60200000I281914J0D01*
G01*
X168343086Y-60200000D01*
G75*
G02*
X168625000Y-60481914I0J-281914D01*
G01*
X168625000Y-61518086D01*
G75*
G02*
X168343086Y-61800000I-281914J0D01*
G01*
X167581914Y-61800000D01*
G75*
G02*
X167300000Y-61518086I0J281914D01*
G01*
G37*
%TD*%
%TO.C,C39*%
G36*
G01*
X177618086Y-72000000D02*
X176581914Y-72000000D01*
G75*
G02*
X176300000Y-71718086I0J281914D01*
G01*
X176300000Y-70956914D01*
G75*
G02*
X176581914Y-70675000I281914J0D01*
G01*
X177618086Y-70675000D01*
G75*
G02*
X177900000Y-70956914I0J-281914D01*
G01*
X177900000Y-71718086D01*
G75*
G02*
X177618086Y-72000000I-281914J0D01*
G01*
G37*
G36*
G01*
X177618086Y-69925000D02*
X176581914Y-69925000D01*
G75*
G02*
X176300000Y-69643086I0J281914D01*
G01*
X176300000Y-68881914D01*
G75*
G02*
X176581914Y-68600000I281914J0D01*
G01*
X177618086Y-68600000D01*
G75*
G02*
X177900000Y-68881914I0J-281914D01*
G01*
X177900000Y-69643086D01*
G75*
G02*
X177618086Y-69925000I-281914J0D01*
G01*
G37*
%TD*%
%TO.C,C40*%
G36*
G01*
X160028086Y-58025000D02*
X158991914Y-58025000D01*
G75*
G02*
X158710000Y-57743086I0J281914D01*
G01*
X158710000Y-56981914D01*
G75*
G02*
X158991914Y-56700000I281914J0D01*
G01*
X160028086Y-56700000D01*
G75*
G02*
X160310000Y-56981914I0J-281914D01*
G01*
X160310000Y-57743086D01*
G75*
G02*
X160028086Y-58025000I-281914J0D01*
G01*
G37*
G36*
G01*
X160028086Y-60100000D02*
X158991914Y-60100000D01*
G75*
G02*
X158710000Y-59818086I0J281914D01*
G01*
X158710000Y-59056914D01*
G75*
G02*
X158991914Y-58775000I281914J0D01*
G01*
X160028086Y-58775000D01*
G75*
G02*
X160310000Y-59056914I0J-281914D01*
G01*
X160310000Y-59818086D01*
G75*
G02*
X160028086Y-60100000I-281914J0D01*
G01*
G37*
%TD*%
%TO.C,C41*%
G36*
G01*
X176781914Y-80375000D02*
X177818086Y-80375000D01*
G75*
G02*
X178100000Y-80656914I0J-281914D01*
G01*
X178100000Y-81418086D01*
G75*
G02*
X177818086Y-81700000I-281914J0D01*
G01*
X176781914Y-81700000D01*
G75*
G02*
X176500000Y-81418086I0J281914D01*
G01*
X176500000Y-80656914D01*
G75*
G02*
X176781914Y-80375000I281914J0D01*
G01*
G37*
G36*
G01*
X176781914Y-78300000D02*
X177818086Y-78300000D01*
G75*
G02*
X178100000Y-78581914I0J-281914D01*
G01*
X178100000Y-79343086D01*
G75*
G02*
X177818086Y-79625000I-281914J0D01*
G01*
X176781914Y-79625000D01*
G75*
G02*
X176500000Y-79343086I0J281914D01*
G01*
X176500000Y-78581914D01*
G75*
G02*
X176781914Y-78300000I281914J0D01*
G01*
G37*
%TD*%
%TO.C,C42*%
G36*
G01*
X166981914Y-50800000D02*
X168018086Y-50800000D01*
G75*
G02*
X168300000Y-51081914I0J-281914D01*
G01*
X168300000Y-51843086D01*
G75*
G02*
X168018086Y-52125000I-281914J0D01*
G01*
X166981914Y-52125000D01*
G75*
G02*
X166700000Y-51843086I0J281914D01*
G01*
X166700000Y-51081914D01*
G75*
G02*
X166981914Y-50800000I281914J0D01*
G01*
G37*
G36*
G01*
X166981914Y-52875000D02*
X168018086Y-52875000D01*
G75*
G02*
X168300000Y-53156914I0J-281914D01*
G01*
X168300000Y-53918086D01*
G75*
G02*
X168018086Y-54200000I-281914J0D01*
G01*
X166981914Y-54200000D01*
G75*
G02*
X166700000Y-53918086I0J281914D01*
G01*
X166700000Y-53156914D01*
G75*
G02*
X166981914Y-52875000I281914J0D01*
G01*
G37*
%TD*%
%TO.C,C43*%
G36*
G01*
X147625000Y-94481914D02*
X147625000Y-95518086D01*
G75*
G02*
X147343086Y-95800000I-281914J0D01*
G01*
X146581914Y-95800000D01*
G75*
G02*
X146300000Y-95518086I0J281914D01*
G01*
X146300000Y-94481914D01*
G75*
G02*
X146581914Y-94200000I281914J0D01*
G01*
X147343086Y-94200000D01*
G75*
G02*
X147625000Y-94481914I0J-281914D01*
G01*
G37*
G36*
G01*
X149700000Y-94481914D02*
X149700000Y-95518086D01*
G75*
G02*
X149418086Y-95800000I-281914J0D01*
G01*
X148656914Y-95800000D01*
G75*
G02*
X148375000Y-95518086I0J281914D01*
G01*
X148375000Y-94481914D01*
G75*
G02*
X148656914Y-94200000I281914J0D01*
G01*
X149418086Y-94200000D01*
G75*
G02*
X149700000Y-94481914I0J-281914D01*
G01*
G37*
%TD*%
%TO.C,C44*%
G36*
G01*
X135300000Y-79518086D02*
X135300000Y-78481914D01*
G75*
G02*
X135581914Y-78200000I281914J0D01*
G01*
X136343086Y-78200000D01*
G75*
G02*
X136625000Y-78481914I0J-281914D01*
G01*
X136625000Y-79518086D01*
G75*
G02*
X136343086Y-79800000I-281914J0D01*
G01*
X135581914Y-79800000D01*
G75*
G02*
X135300000Y-79518086I0J281914D01*
G01*
G37*
G36*
G01*
X137375000Y-79518086D02*
X137375000Y-78481914D01*
G75*
G02*
X137656914Y-78200000I281914J0D01*
G01*
X138418086Y-78200000D01*
G75*
G02*
X138700000Y-78481914I0J-281914D01*
G01*
X138700000Y-79518086D01*
G75*
G02*
X138418086Y-79800000I-281914J0D01*
G01*
X137656914Y-79800000D01*
G75*
G02*
X137375000Y-79518086I0J281914D01*
G01*
G37*
%TD*%
%TO.C,C46*%
G36*
G01*
X141625000Y-87481914D02*
X141625000Y-88518086D01*
G75*
G02*
X141343086Y-88800000I-281914J0D01*
G01*
X140581914Y-88800000D01*
G75*
G02*
X140300000Y-88518086I0J281914D01*
G01*
X140300000Y-87481914D01*
G75*
G02*
X140581914Y-87200000I281914J0D01*
G01*
X141343086Y-87200000D01*
G75*
G02*
X141625000Y-87481914I0J-281914D01*
G01*
G37*
G36*
G01*
X143700000Y-87481914D02*
X143700000Y-88518086D01*
G75*
G02*
X143418086Y-88800000I-281914J0D01*
G01*
X142656914Y-88800000D01*
G75*
G02*
X142375000Y-88518086I0J281914D01*
G01*
X142375000Y-87481914D01*
G75*
G02*
X142656914Y-87200000I281914J0D01*
G01*
X143418086Y-87200000D01*
G75*
G02*
X143700000Y-87481914I0J-281914D01*
G01*
G37*
%TD*%
%TO.C,C49*%
G36*
G01*
X148375000Y-75518086D02*
X148375000Y-74481914D01*
G75*
G02*
X148656914Y-74200000I281914J0D01*
G01*
X149418086Y-74200000D01*
G75*
G02*
X149700000Y-74481914I0J-281914D01*
G01*
X149700000Y-75518086D01*
G75*
G02*
X149418086Y-75800000I-281914J0D01*
G01*
X148656914Y-75800000D01*
G75*
G02*
X148375000Y-75518086I0J281914D01*
G01*
G37*
G36*
G01*
X146300000Y-75518086D02*
X146300000Y-74481914D01*
G75*
G02*
X146581914Y-74200000I281914J0D01*
G01*
X147343086Y-74200000D01*
G75*
G02*
X147625000Y-74481914I0J-281914D01*
G01*
X147625000Y-75518086D01*
G75*
G02*
X147343086Y-75800000I-281914J0D01*
G01*
X146581914Y-75800000D01*
G75*
G02*
X146300000Y-75518086I0J281914D01*
G01*
G37*
%TD*%
%TO.C,C50*%
G36*
G01*
X137518086Y-91700000D02*
X136481914Y-91700000D01*
G75*
G02*
X136200000Y-91418086I0J281914D01*
G01*
X136200000Y-90656914D01*
G75*
G02*
X136481914Y-90375000I281914J0D01*
G01*
X137518086Y-90375000D01*
G75*
G02*
X137800000Y-90656914I0J-281914D01*
G01*
X137800000Y-91418086D01*
G75*
G02*
X137518086Y-91700000I-281914J0D01*
G01*
G37*
G36*
G01*
X137518086Y-89625000D02*
X136481914Y-89625000D01*
G75*
G02*
X136200000Y-89343086I0J281914D01*
G01*
X136200000Y-88581914D01*
G75*
G02*
X136481914Y-88300000I281914J0D01*
G01*
X137518086Y-88300000D01*
G75*
G02*
X137800000Y-88581914I0J-281914D01*
G01*
X137800000Y-89343086D01*
G75*
G02*
X137518086Y-89625000I-281914J0D01*
G01*
G37*
%TD*%
%TO.C,C52*%
G36*
G01*
X258931914Y-54500000D02*
X259968086Y-54500000D01*
G75*
G02*
X260250000Y-54781914I0J-281914D01*
G01*
X260250000Y-55543086D01*
G75*
G02*
X259968086Y-55825000I-281914J0D01*
G01*
X258931914Y-55825000D01*
G75*
G02*
X258650000Y-55543086I0J281914D01*
G01*
X258650000Y-54781914D01*
G75*
G02*
X258931914Y-54500000I281914J0D01*
G01*
G37*
G36*
G01*
X258931914Y-56575000D02*
X259968086Y-56575000D01*
G75*
G02*
X260250000Y-56856914I0J-281914D01*
G01*
X260250000Y-57618086D01*
G75*
G02*
X259968086Y-57900000I-281914J0D01*
G01*
X258931914Y-57900000D01*
G75*
G02*
X258650000Y-57618086I0J281914D01*
G01*
X258650000Y-56856914D01*
G75*
G02*
X258931914Y-56575000I281914J0D01*
G01*
G37*
%TD*%
%TO.C,C57*%
G36*
G01*
X228450000Y-174856914D02*
X228450000Y-175893086D01*
G75*
G02*
X228168086Y-176175000I-281914J0D01*
G01*
X227406914Y-176175000D01*
G75*
G02*
X227125000Y-175893086I0J281914D01*
G01*
X227125000Y-174856914D01*
G75*
G02*
X227406914Y-174575000I281914J0D01*
G01*
X228168086Y-174575000D01*
G75*
G02*
X228450000Y-174856914I0J-281914D01*
G01*
G37*
G36*
G01*
X230525000Y-174856914D02*
X230525000Y-175893086D01*
G75*
G02*
X230243086Y-176175000I-281914J0D01*
G01*
X229481914Y-176175000D01*
G75*
G02*
X229200000Y-175893086I0J281914D01*
G01*
X229200000Y-174856914D01*
G75*
G02*
X229481914Y-174575000I281914J0D01*
G01*
X230243086Y-174575000D01*
G75*
G02*
X230525000Y-174856914I0J-281914D01*
G01*
G37*
%TD*%
%TO.C,R1*%
G36*
G01*
X185575000Y-48906248D02*
X185575000Y-49893752D01*
G75*
G02*
X185293752Y-50175000I-281248J0D01*
G01*
X184506248Y-50175000D01*
G75*
G02*
X184225000Y-49893752I0J281248D01*
G01*
X184225000Y-48906248D01*
G75*
G02*
X184506248Y-48625000I281248J0D01*
G01*
X185293752Y-48625000D01*
G75*
G02*
X185575000Y-48906248I0J-281248D01*
G01*
G37*
G36*
G01*
X183575000Y-48906248D02*
X183575000Y-49893752D01*
G75*
G02*
X183293752Y-50175000I-281248J0D01*
G01*
X182506248Y-50175000D01*
G75*
G02*
X182225000Y-49893752I0J281248D01*
G01*
X182225000Y-48906248D01*
G75*
G02*
X182506248Y-48625000I281248J0D01*
G01*
X183293752Y-48625000D01*
G75*
G02*
X183575000Y-48906248I0J-281248D01*
G01*
G37*
%TD*%
%TO.C,R2*%
G36*
G01*
X234400000Y-179868752D02*
X234400000Y-178881248D01*
G75*
G02*
X234681248Y-178600000I281248J0D01*
G01*
X235468752Y-178600000D01*
G75*
G02*
X235750000Y-178881248I0J-281248D01*
G01*
X235750000Y-179868752D01*
G75*
G02*
X235468752Y-180150000I-281248J0D01*
G01*
X234681248Y-180150000D01*
G75*
G02*
X234400000Y-179868752I0J281248D01*
G01*
G37*
G36*
G01*
X232400000Y-179868752D02*
X232400000Y-178881248D01*
G75*
G02*
X232681248Y-178600000I281248J0D01*
G01*
X233468752Y-178600000D01*
G75*
G02*
X233750000Y-178881248I0J-281248D01*
G01*
X233750000Y-179868752D01*
G75*
G02*
X233468752Y-180150000I-281248J0D01*
G01*
X232681248Y-180150000D01*
G75*
G02*
X232400000Y-179868752I0J281248D01*
G01*
G37*
%TD*%
%TO.C,R3*%
G36*
G01*
X223750000Y-89193752D02*
X223750000Y-88206248D01*
G75*
G02*
X224031248Y-87925000I281248J0D01*
G01*
X224818752Y-87925000D01*
G75*
G02*
X225100000Y-88206248I0J-281248D01*
G01*
X225100000Y-89193752D01*
G75*
G02*
X224818752Y-89475000I-281248J0D01*
G01*
X224031248Y-89475000D01*
G75*
G02*
X223750000Y-89193752I0J281248D01*
G01*
G37*
G36*
G01*
X221750000Y-89193752D02*
X221750000Y-88206248D01*
G75*
G02*
X222031248Y-87925000I281248J0D01*
G01*
X222818752Y-87925000D01*
G75*
G02*
X223100000Y-88206248I0J-281248D01*
G01*
X223100000Y-89193752D01*
G75*
G02*
X222818752Y-89475000I-281248J0D01*
G01*
X222031248Y-89475000D01*
G75*
G02*
X221750000Y-89193752I0J281248D01*
G01*
G37*
%TD*%
%TO.C,R4*%
G36*
G01*
X221725000Y-94943752D02*
X221725000Y-93956248D01*
G75*
G02*
X222006248Y-93675000I281248J0D01*
G01*
X222793752Y-93675000D01*
G75*
G02*
X223075000Y-93956248I0J-281248D01*
G01*
X223075000Y-94943752D01*
G75*
G02*
X222793752Y-95225000I-281248J0D01*
G01*
X222006248Y-95225000D01*
G75*
G02*
X221725000Y-94943752I0J281248D01*
G01*
G37*
G36*
G01*
X223725000Y-94943752D02*
X223725000Y-93956248D01*
G75*
G02*
X224006248Y-93675000I281248J0D01*
G01*
X224793752Y-93675000D01*
G75*
G02*
X225075000Y-93956248I0J-281248D01*
G01*
X225075000Y-94943752D01*
G75*
G02*
X224793752Y-95225000I-281248J0D01*
G01*
X224006248Y-95225000D01*
G75*
G02*
X223725000Y-94943752I0J281248D01*
G01*
G37*
%TD*%
%TO.C,R5*%
G36*
G01*
X196525000Y-80968752D02*
X196525000Y-79981248D01*
G75*
G02*
X196806248Y-79700000I281248J0D01*
G01*
X197593752Y-79700000D01*
G75*
G02*
X197875000Y-79981248I0J-281248D01*
G01*
X197875000Y-80968752D01*
G75*
G02*
X197593752Y-81250000I-281248J0D01*
G01*
X196806248Y-81250000D01*
G75*
G02*
X196525000Y-80968752I0J281248D01*
G01*
G37*
G36*
G01*
X198525000Y-80968752D02*
X198525000Y-79981248D01*
G75*
G02*
X198806248Y-79700000I281248J0D01*
G01*
X199593752Y-79700000D01*
G75*
G02*
X199875000Y-79981248I0J-281248D01*
G01*
X199875000Y-80968752D01*
G75*
G02*
X199593752Y-81250000I-281248J0D01*
G01*
X198806248Y-81250000D01*
G75*
G02*
X198525000Y-80968752I0J281248D01*
G01*
G37*
%TD*%
%TO.C,R7*%
G36*
G01*
X169256248Y-173900000D02*
X170243752Y-173900000D01*
G75*
G02*
X170525000Y-174181248I0J-281248D01*
G01*
X170525000Y-174968752D01*
G75*
G02*
X170243752Y-175250000I-281248J0D01*
G01*
X169256248Y-175250000D01*
G75*
G02*
X168975000Y-174968752I0J281248D01*
G01*
X168975000Y-174181248D01*
G75*
G02*
X169256248Y-173900000I281248J0D01*
G01*
G37*
G36*
G01*
X169256248Y-175900000D02*
X170243752Y-175900000D01*
G75*
G02*
X170525000Y-176181248I0J-281248D01*
G01*
X170525000Y-176968752D01*
G75*
G02*
X170243752Y-177250000I-281248J0D01*
G01*
X169256248Y-177250000D01*
G75*
G02*
X168975000Y-176968752I0J281248D01*
G01*
X168975000Y-176181248D01*
G75*
G02*
X169256248Y-175900000I281248J0D01*
G01*
G37*
%TD*%
%TO.C,R8*%
G36*
G01*
X219475000Y-64606248D02*
X219475000Y-65593752D01*
G75*
G02*
X219193752Y-65875000I-281248J0D01*
G01*
X218406248Y-65875000D01*
G75*
G02*
X218125000Y-65593752I0J281248D01*
G01*
X218125000Y-64606248D01*
G75*
G02*
X218406248Y-64325000I281248J0D01*
G01*
X219193752Y-64325000D01*
G75*
G02*
X219475000Y-64606248I0J-281248D01*
G01*
G37*
G36*
G01*
X221475000Y-64606248D02*
X221475000Y-65593752D01*
G75*
G02*
X221193752Y-65875000I-281248J0D01*
G01*
X220406248Y-65875000D01*
G75*
G02*
X220125000Y-65593752I0J281248D01*
G01*
X220125000Y-64606248D01*
G75*
G02*
X220406248Y-64325000I281248J0D01*
G01*
X221193752Y-64325000D01*
G75*
G02*
X221475000Y-64606248I0J-281248D01*
G01*
G37*
%TD*%
%TO.C,R9*%
G36*
G01*
X207075000Y-64806248D02*
X207075000Y-65793752D01*
G75*
G02*
X206793752Y-66075000I-281248J0D01*
G01*
X206006248Y-66075000D01*
G75*
G02*
X205725000Y-65793752I0J281248D01*
G01*
X205725000Y-64806248D01*
G75*
G02*
X206006248Y-64525000I281248J0D01*
G01*
X206793752Y-64525000D01*
G75*
G02*
X207075000Y-64806248I0J-281248D01*
G01*
G37*
G36*
G01*
X205075000Y-64806248D02*
X205075000Y-65793752D01*
G75*
G02*
X204793752Y-66075000I-281248J0D01*
G01*
X204006248Y-66075000D01*
G75*
G02*
X203725000Y-65793752I0J281248D01*
G01*
X203725000Y-64806248D01*
G75*
G02*
X204006248Y-64525000I281248J0D01*
G01*
X204793752Y-64525000D01*
G75*
G02*
X205075000Y-64806248I0J-281248D01*
G01*
G37*
%TD*%
%TO.C,R10*%
G36*
G01*
X190575000Y-64406248D02*
X190575000Y-65393752D01*
G75*
G02*
X190293752Y-65675000I-281248J0D01*
G01*
X189506248Y-65675000D01*
G75*
G02*
X189225000Y-65393752I0J281248D01*
G01*
X189225000Y-64406248D01*
G75*
G02*
X189506248Y-64125000I281248J0D01*
G01*
X190293752Y-64125000D01*
G75*
G02*
X190575000Y-64406248I0J-281248D01*
G01*
G37*
G36*
G01*
X192575000Y-64406248D02*
X192575000Y-65393752D01*
G75*
G02*
X192293752Y-65675000I-281248J0D01*
G01*
X191506248Y-65675000D01*
G75*
G02*
X191225000Y-65393752I0J281248D01*
G01*
X191225000Y-64406248D01*
G75*
G02*
X191506248Y-64125000I281248J0D01*
G01*
X192293752Y-64125000D01*
G75*
G02*
X192575000Y-64406248I0J-281248D01*
G01*
G37*
%TD*%
%TO.C,R11*%
G36*
G01*
X221475000Y-68106248D02*
X221475000Y-69093752D01*
G75*
G02*
X221193752Y-69375000I-281248J0D01*
G01*
X220406248Y-69375000D01*
G75*
G02*
X220125000Y-69093752I0J281248D01*
G01*
X220125000Y-68106248D01*
G75*
G02*
X220406248Y-67825000I281248J0D01*
G01*
X221193752Y-67825000D01*
G75*
G02*
X221475000Y-68106248I0J-281248D01*
G01*
G37*
G36*
G01*
X219475000Y-68106248D02*
X219475000Y-69093752D01*
G75*
G02*
X219193752Y-69375000I-281248J0D01*
G01*
X218406248Y-69375000D01*
G75*
G02*
X218125000Y-69093752I0J281248D01*
G01*
X218125000Y-68106248D01*
G75*
G02*
X218406248Y-67825000I281248J0D01*
G01*
X219193752Y-67825000D01*
G75*
G02*
X219475000Y-68106248I0J-281248D01*
G01*
G37*
%TD*%
%TO.C,R12*%
G36*
G01*
X225175000Y-68106248D02*
X225175000Y-69093752D01*
G75*
G02*
X224893752Y-69375000I-281248J0D01*
G01*
X224106248Y-69375000D01*
G75*
G02*
X223825000Y-69093752I0J281248D01*
G01*
X223825000Y-68106248D01*
G75*
G02*
X224106248Y-67825000I281248J0D01*
G01*
X224893752Y-67825000D01*
G75*
G02*
X225175000Y-68106248I0J-281248D01*
G01*
G37*
G36*
G01*
X227175000Y-68106248D02*
X227175000Y-69093752D01*
G75*
G02*
X226893752Y-69375000I-281248J0D01*
G01*
X226106248Y-69375000D01*
G75*
G02*
X225825000Y-69093752I0J281248D01*
G01*
X225825000Y-68106248D01*
G75*
G02*
X226106248Y-67825000I281248J0D01*
G01*
X226893752Y-67825000D01*
G75*
G02*
X227175000Y-68106248I0J-281248D01*
G01*
G37*
%TD*%
%TO.C,R13*%
G36*
G01*
X205075000Y-68206248D02*
X205075000Y-69193752D01*
G75*
G02*
X204793752Y-69475000I-281248J0D01*
G01*
X204006248Y-69475000D01*
G75*
G02*
X203725000Y-69193752I0J281248D01*
G01*
X203725000Y-68206248D01*
G75*
G02*
X204006248Y-67925000I281248J0D01*
G01*
X204793752Y-67925000D01*
G75*
G02*
X205075000Y-68206248I0J-281248D01*
G01*
G37*
G36*
G01*
X207075000Y-68206248D02*
X207075000Y-69193752D01*
G75*
G02*
X206793752Y-69475000I-281248J0D01*
G01*
X206006248Y-69475000D01*
G75*
G02*
X205725000Y-69193752I0J281248D01*
G01*
X205725000Y-68206248D01*
G75*
G02*
X206006248Y-67925000I281248J0D01*
G01*
X206793752Y-67925000D01*
G75*
G02*
X207075000Y-68206248I0J-281248D01*
G01*
G37*
%TD*%
%TO.C,R14*%
G36*
G01*
X212775000Y-68206248D02*
X212775000Y-69193752D01*
G75*
G02*
X212493752Y-69475000I-281248J0D01*
G01*
X211706248Y-69475000D01*
G75*
G02*
X211425000Y-69193752I0J281248D01*
G01*
X211425000Y-68206248D01*
G75*
G02*
X211706248Y-67925000I281248J0D01*
G01*
X212493752Y-67925000D01*
G75*
G02*
X212775000Y-68206248I0J-281248D01*
G01*
G37*
G36*
G01*
X210775000Y-68206248D02*
X210775000Y-69193752D01*
G75*
G02*
X210493752Y-69475000I-281248J0D01*
G01*
X209706248Y-69475000D01*
G75*
G02*
X209425000Y-69193752I0J281248D01*
G01*
X209425000Y-68206248D01*
G75*
G02*
X209706248Y-67925000I281248J0D01*
G01*
X210493752Y-67925000D01*
G75*
G02*
X210775000Y-68206248I0J-281248D01*
G01*
G37*
%TD*%
%TO.C,R15*%
G36*
G01*
X192575000Y-68106248D02*
X192575000Y-69093752D01*
G75*
G02*
X192293752Y-69375000I-281248J0D01*
G01*
X191506248Y-69375000D01*
G75*
G02*
X191225000Y-69093752I0J281248D01*
G01*
X191225000Y-68106248D01*
G75*
G02*
X191506248Y-67825000I281248J0D01*
G01*
X192293752Y-67825000D01*
G75*
G02*
X192575000Y-68106248I0J-281248D01*
G01*
G37*
G36*
G01*
X190575000Y-68106248D02*
X190575000Y-69093752D01*
G75*
G02*
X190293752Y-69375000I-281248J0D01*
G01*
X189506248Y-69375000D01*
G75*
G02*
X189225000Y-69093752I0J281248D01*
G01*
X189225000Y-68106248D01*
G75*
G02*
X189506248Y-67825000I281248J0D01*
G01*
X190293752Y-67825000D01*
G75*
G02*
X190575000Y-68106248I0J-281248D01*
G01*
G37*
%TD*%
%TO.C,R16*%
G36*
G01*
X196175000Y-68106248D02*
X196175000Y-69093752D01*
G75*
G02*
X195893752Y-69375000I-281248J0D01*
G01*
X195106248Y-69375000D01*
G75*
G02*
X194825000Y-69093752I0J281248D01*
G01*
X194825000Y-68106248D01*
G75*
G02*
X195106248Y-67825000I281248J0D01*
G01*
X195893752Y-67825000D01*
G75*
G02*
X196175000Y-68106248I0J-281248D01*
G01*
G37*
G36*
G01*
X198175000Y-68106248D02*
X198175000Y-69093752D01*
G75*
G02*
X197893752Y-69375000I-281248J0D01*
G01*
X197106248Y-69375000D01*
G75*
G02*
X196825000Y-69093752I0J281248D01*
G01*
X196825000Y-68106248D01*
G75*
G02*
X197106248Y-67825000I281248J0D01*
G01*
X197893752Y-67825000D01*
G75*
G02*
X198175000Y-68106248I0J-281248D01*
G01*
G37*
%TD*%
%TO.C,R17*%
G36*
G01*
X221475000Y-71606248D02*
X221475000Y-72593752D01*
G75*
G02*
X221193752Y-72875000I-281248J0D01*
G01*
X220406248Y-72875000D01*
G75*
G02*
X220125000Y-72593752I0J281248D01*
G01*
X220125000Y-71606248D01*
G75*
G02*
X220406248Y-71325000I281248J0D01*
G01*
X221193752Y-71325000D01*
G75*
G02*
X221475000Y-71606248I0J-281248D01*
G01*
G37*
G36*
G01*
X219475000Y-71606248D02*
X219475000Y-72593752D01*
G75*
G02*
X219193752Y-72875000I-281248J0D01*
G01*
X218406248Y-72875000D01*
G75*
G02*
X218125000Y-72593752I0J281248D01*
G01*
X218125000Y-71606248D01*
G75*
G02*
X218406248Y-71325000I281248J0D01*
G01*
X219193752Y-71325000D01*
G75*
G02*
X219475000Y-71606248I0J-281248D01*
G01*
G37*
%TD*%
%TO.C,R18*%
G36*
G01*
X227175000Y-71606248D02*
X227175000Y-72593752D01*
G75*
G02*
X226893752Y-72875000I-281248J0D01*
G01*
X226106248Y-72875000D01*
G75*
G02*
X225825000Y-72593752I0J281248D01*
G01*
X225825000Y-71606248D01*
G75*
G02*
X226106248Y-71325000I281248J0D01*
G01*
X226893752Y-71325000D01*
G75*
G02*
X227175000Y-71606248I0J-281248D01*
G01*
G37*
G36*
G01*
X225175000Y-71606248D02*
X225175000Y-72593752D01*
G75*
G02*
X224893752Y-72875000I-281248J0D01*
G01*
X224106248Y-72875000D01*
G75*
G02*
X223825000Y-72593752I0J281248D01*
G01*
X223825000Y-71606248D01*
G75*
G02*
X224106248Y-71325000I281248J0D01*
G01*
X224893752Y-71325000D01*
G75*
G02*
X225175000Y-71606248I0J-281248D01*
G01*
G37*
%TD*%
%TO.C,R19*%
G36*
G01*
X205075000Y-71706248D02*
X205075000Y-72693752D01*
G75*
G02*
X204793752Y-72975000I-281248J0D01*
G01*
X204006248Y-72975000D01*
G75*
G02*
X203725000Y-72693752I0J281248D01*
G01*
X203725000Y-71706248D01*
G75*
G02*
X204006248Y-71425000I281248J0D01*
G01*
X204793752Y-71425000D01*
G75*
G02*
X205075000Y-71706248I0J-281248D01*
G01*
G37*
G36*
G01*
X207075000Y-71706248D02*
X207075000Y-72693752D01*
G75*
G02*
X206793752Y-72975000I-281248J0D01*
G01*
X206006248Y-72975000D01*
G75*
G02*
X205725000Y-72693752I0J281248D01*
G01*
X205725000Y-71706248D01*
G75*
G02*
X206006248Y-71425000I281248J0D01*
G01*
X206793752Y-71425000D01*
G75*
G02*
X207075000Y-71706248I0J-281248D01*
G01*
G37*
%TD*%
%TO.C,R20*%
G36*
G01*
X210775000Y-71706248D02*
X210775000Y-72693752D01*
G75*
G02*
X210493752Y-72975000I-281248J0D01*
G01*
X209706248Y-72975000D01*
G75*
G02*
X209425000Y-72693752I0J281248D01*
G01*
X209425000Y-71706248D01*
G75*
G02*
X209706248Y-71425000I281248J0D01*
G01*
X210493752Y-71425000D01*
G75*
G02*
X210775000Y-71706248I0J-281248D01*
G01*
G37*
G36*
G01*
X212775000Y-71706248D02*
X212775000Y-72693752D01*
G75*
G02*
X212493752Y-72975000I-281248J0D01*
G01*
X211706248Y-72975000D01*
G75*
G02*
X211425000Y-72693752I0J281248D01*
G01*
X211425000Y-71706248D01*
G75*
G02*
X211706248Y-71425000I281248J0D01*
G01*
X212493752Y-71425000D01*
G75*
G02*
X212775000Y-71706248I0J-281248D01*
G01*
G37*
%TD*%
%TO.C,R21*%
G36*
G01*
X192575000Y-71706248D02*
X192575000Y-72693752D01*
G75*
G02*
X192293752Y-72975000I-281248J0D01*
G01*
X191506248Y-72975000D01*
G75*
G02*
X191225000Y-72693752I0J281248D01*
G01*
X191225000Y-71706248D01*
G75*
G02*
X191506248Y-71425000I281248J0D01*
G01*
X192293752Y-71425000D01*
G75*
G02*
X192575000Y-71706248I0J-281248D01*
G01*
G37*
G36*
G01*
X190575000Y-71706248D02*
X190575000Y-72693752D01*
G75*
G02*
X190293752Y-72975000I-281248J0D01*
G01*
X189506248Y-72975000D01*
G75*
G02*
X189225000Y-72693752I0J281248D01*
G01*
X189225000Y-71706248D01*
G75*
G02*
X189506248Y-71425000I281248J0D01*
G01*
X190293752Y-71425000D01*
G75*
G02*
X190575000Y-71706248I0J-281248D01*
G01*
G37*
%TD*%
%TO.C,R22*%
G36*
G01*
X198175000Y-71706248D02*
X198175000Y-72693752D01*
G75*
G02*
X197893752Y-72975000I-281248J0D01*
G01*
X197106248Y-72975000D01*
G75*
G02*
X196825000Y-72693752I0J281248D01*
G01*
X196825000Y-71706248D01*
G75*
G02*
X197106248Y-71425000I281248J0D01*
G01*
X197893752Y-71425000D01*
G75*
G02*
X198175000Y-71706248I0J-281248D01*
G01*
G37*
G36*
G01*
X196175000Y-71706248D02*
X196175000Y-72693752D01*
G75*
G02*
X195893752Y-72975000I-281248J0D01*
G01*
X195106248Y-72975000D01*
G75*
G02*
X194825000Y-72693752I0J281248D01*
G01*
X194825000Y-71706248D01*
G75*
G02*
X195106248Y-71425000I281248J0D01*
G01*
X195893752Y-71425000D01*
G75*
G02*
X196175000Y-71706248I0J-281248D01*
G01*
G37*
%TD*%
%TO.C,R23*%
G36*
G01*
X219475000Y-75306248D02*
X219475000Y-76293752D01*
G75*
G02*
X219193752Y-76575000I-281248J0D01*
G01*
X218406248Y-76575000D01*
G75*
G02*
X218125000Y-76293752I0J281248D01*
G01*
X218125000Y-75306248D01*
G75*
G02*
X218406248Y-75025000I281248J0D01*
G01*
X219193752Y-75025000D01*
G75*
G02*
X219475000Y-75306248I0J-281248D01*
G01*
G37*
G36*
G01*
X221475000Y-75306248D02*
X221475000Y-76293752D01*
G75*
G02*
X221193752Y-76575000I-281248J0D01*
G01*
X220406248Y-76575000D01*
G75*
G02*
X220125000Y-76293752I0J281248D01*
G01*
X220125000Y-75306248D01*
G75*
G02*
X220406248Y-75025000I281248J0D01*
G01*
X221193752Y-75025000D01*
G75*
G02*
X221475000Y-75306248I0J-281248D01*
G01*
G37*
%TD*%
%TO.C,R24*%
G36*
G01*
X227225000Y-75306248D02*
X227225000Y-76293752D01*
G75*
G02*
X226943752Y-76575000I-281248J0D01*
G01*
X226156248Y-76575000D01*
G75*
G02*
X225875000Y-76293752I0J281248D01*
G01*
X225875000Y-75306248D01*
G75*
G02*
X226156248Y-75025000I281248J0D01*
G01*
X226943752Y-75025000D01*
G75*
G02*
X227225000Y-75306248I0J-281248D01*
G01*
G37*
G36*
G01*
X225225000Y-75306248D02*
X225225000Y-76293752D01*
G75*
G02*
X224943752Y-76575000I-281248J0D01*
G01*
X224156248Y-76575000D01*
G75*
G02*
X223875000Y-76293752I0J281248D01*
G01*
X223875000Y-75306248D01*
G75*
G02*
X224156248Y-75025000I281248J0D01*
G01*
X224943752Y-75025000D01*
G75*
G02*
X225225000Y-75306248I0J-281248D01*
G01*
G37*
%TD*%
%TO.C,R25*%
G36*
G01*
X205075000Y-75406248D02*
X205075000Y-76393752D01*
G75*
G02*
X204793752Y-76675000I-281248J0D01*
G01*
X204006248Y-76675000D01*
G75*
G02*
X203725000Y-76393752I0J281248D01*
G01*
X203725000Y-75406248D01*
G75*
G02*
X204006248Y-75125000I281248J0D01*
G01*
X204793752Y-75125000D01*
G75*
G02*
X205075000Y-75406248I0J-281248D01*
G01*
G37*
G36*
G01*
X207075000Y-75406248D02*
X207075000Y-76393752D01*
G75*
G02*
X206793752Y-76675000I-281248J0D01*
G01*
X206006248Y-76675000D01*
G75*
G02*
X205725000Y-76393752I0J281248D01*
G01*
X205725000Y-75406248D01*
G75*
G02*
X206006248Y-75125000I281248J0D01*
G01*
X206793752Y-75125000D01*
G75*
G02*
X207075000Y-75406248I0J-281248D01*
G01*
G37*
%TD*%
%TO.C,R26*%
G36*
G01*
X210775000Y-75406248D02*
X210775000Y-76393752D01*
G75*
G02*
X210493752Y-76675000I-281248J0D01*
G01*
X209706248Y-76675000D01*
G75*
G02*
X209425000Y-76393752I0J281248D01*
G01*
X209425000Y-75406248D01*
G75*
G02*
X209706248Y-75125000I281248J0D01*
G01*
X210493752Y-75125000D01*
G75*
G02*
X210775000Y-75406248I0J-281248D01*
G01*
G37*
G36*
G01*
X212775000Y-75406248D02*
X212775000Y-76393752D01*
G75*
G02*
X212493752Y-76675000I-281248J0D01*
G01*
X211706248Y-76675000D01*
G75*
G02*
X211425000Y-76393752I0J281248D01*
G01*
X211425000Y-75406248D01*
G75*
G02*
X211706248Y-75125000I281248J0D01*
G01*
X212493752Y-75125000D01*
G75*
G02*
X212775000Y-75406248I0J-281248D01*
G01*
G37*
%TD*%
%TO.C,R27*%
G36*
G01*
X192575000Y-75406248D02*
X192575000Y-76393752D01*
G75*
G02*
X192293752Y-76675000I-281248J0D01*
G01*
X191506248Y-76675000D01*
G75*
G02*
X191225000Y-76393752I0J281248D01*
G01*
X191225000Y-75406248D01*
G75*
G02*
X191506248Y-75125000I281248J0D01*
G01*
X192293752Y-75125000D01*
G75*
G02*
X192575000Y-75406248I0J-281248D01*
G01*
G37*
G36*
G01*
X190575000Y-75406248D02*
X190575000Y-76393752D01*
G75*
G02*
X190293752Y-76675000I-281248J0D01*
G01*
X189506248Y-76675000D01*
G75*
G02*
X189225000Y-76393752I0J281248D01*
G01*
X189225000Y-75406248D01*
G75*
G02*
X189506248Y-75125000I281248J0D01*
G01*
X190293752Y-75125000D01*
G75*
G02*
X190575000Y-75406248I0J-281248D01*
G01*
G37*
%TD*%
%TO.C,R28*%
G36*
G01*
X198175000Y-75406248D02*
X198175000Y-76393752D01*
G75*
G02*
X197893752Y-76675000I-281248J0D01*
G01*
X197106248Y-76675000D01*
G75*
G02*
X196825000Y-76393752I0J281248D01*
G01*
X196825000Y-75406248D01*
G75*
G02*
X197106248Y-75125000I281248J0D01*
G01*
X197893752Y-75125000D01*
G75*
G02*
X198175000Y-75406248I0J-281248D01*
G01*
G37*
G36*
G01*
X196175000Y-75406248D02*
X196175000Y-76393752D01*
G75*
G02*
X195893752Y-76675000I-281248J0D01*
G01*
X195106248Y-76675000D01*
G75*
G02*
X194825000Y-76393752I0J281248D01*
G01*
X194825000Y-75406248D01*
G75*
G02*
X195106248Y-75125000I281248J0D01*
G01*
X195893752Y-75125000D01*
G75*
G02*
X196175000Y-75406248I0J-281248D01*
G01*
G37*
%TD*%
%TO.C,R31*%
G36*
G01*
X187735000Y-85986248D02*
X187735000Y-86973752D01*
G75*
G02*
X187453752Y-87255000I-281248J0D01*
G01*
X186666248Y-87255000D01*
G75*
G02*
X186385000Y-86973752I0J281248D01*
G01*
X186385000Y-85986248D01*
G75*
G02*
X186666248Y-85705000I281248J0D01*
G01*
X187453752Y-85705000D01*
G75*
G02*
X187735000Y-85986248I0J-281248D01*
G01*
G37*
G36*
G01*
X189735000Y-85986248D02*
X189735000Y-86973752D01*
G75*
G02*
X189453752Y-87255000I-281248J0D01*
G01*
X188666248Y-87255000D01*
G75*
G02*
X188385000Y-86973752I0J281248D01*
G01*
X188385000Y-85986248D01*
G75*
G02*
X188666248Y-85705000I281248J0D01*
G01*
X189453752Y-85705000D01*
G75*
G02*
X189735000Y-85986248I0J-281248D01*
G01*
G37*
%TD*%
%TO.C,R32*%
G36*
G01*
X263575000Y-118906248D02*
X263575000Y-119893752D01*
G75*
G02*
X263293752Y-120175000I-281248J0D01*
G01*
X262506248Y-120175000D01*
G75*
G02*
X262225000Y-119893752I0J281248D01*
G01*
X262225000Y-118906248D01*
G75*
G02*
X262506248Y-118625000I281248J0D01*
G01*
X263293752Y-118625000D01*
G75*
G02*
X263575000Y-118906248I0J-281248D01*
G01*
G37*
G36*
G01*
X261575000Y-118906248D02*
X261575000Y-119893752D01*
G75*
G02*
X261293752Y-120175000I-281248J0D01*
G01*
X260506248Y-120175000D01*
G75*
G02*
X260225000Y-119893752I0J281248D01*
G01*
X260225000Y-118906248D01*
G75*
G02*
X260506248Y-118625000I281248J0D01*
G01*
X261293752Y-118625000D01*
G75*
G02*
X261575000Y-118906248I0J-281248D01*
G01*
G37*
%TD*%
%TO.C,R37*%
G36*
G01*
X263743752Y-71800000D02*
X262756248Y-71800000D01*
G75*
G02*
X262475000Y-71518752I0J281248D01*
G01*
X262475000Y-70731248D01*
G75*
G02*
X262756248Y-70450000I281248J0D01*
G01*
X263743752Y-70450000D01*
G75*
G02*
X264025000Y-70731248I0J-281248D01*
G01*
X264025000Y-71518752D01*
G75*
G02*
X263743752Y-71800000I-281248J0D01*
G01*
G37*
G36*
G01*
X263743752Y-73800000D02*
X262756248Y-73800000D01*
G75*
G02*
X262475000Y-73518752I0J281248D01*
G01*
X262475000Y-72731248D01*
G75*
G02*
X262756248Y-72450000I281248J0D01*
G01*
X263743752Y-72450000D01*
G75*
G02*
X264025000Y-72731248I0J-281248D01*
G01*
X264025000Y-73518752D01*
G75*
G02*
X263743752Y-73800000I-281248J0D01*
G01*
G37*
%TD*%
%TO.C,R38*%
G36*
G01*
X266143752Y-73800000D02*
X265156248Y-73800000D01*
G75*
G02*
X264875000Y-73518752I0J281248D01*
G01*
X264875000Y-72731248D01*
G75*
G02*
X265156248Y-72450000I281248J0D01*
G01*
X266143752Y-72450000D01*
G75*
G02*
X266425000Y-72731248I0J-281248D01*
G01*
X266425000Y-73518752D01*
G75*
G02*
X266143752Y-73800000I-281248J0D01*
G01*
G37*
G36*
G01*
X266143752Y-71800000D02*
X265156248Y-71800000D01*
G75*
G02*
X264875000Y-71518752I0J281248D01*
G01*
X264875000Y-70731248D01*
G75*
G02*
X265156248Y-70450000I281248J0D01*
G01*
X266143752Y-70450000D01*
G75*
G02*
X266425000Y-70731248I0J-281248D01*
G01*
X266425000Y-71518752D01*
G75*
G02*
X266143752Y-71800000I-281248J0D01*
G01*
G37*
%TD*%
%TO.C,R39*%
G36*
G01*
X268643752Y-71825000D02*
X267656248Y-71825000D01*
G75*
G02*
X267375000Y-71543752I0J281248D01*
G01*
X267375000Y-70756248D01*
G75*
G02*
X267656248Y-70475000I281248J0D01*
G01*
X268643752Y-70475000D01*
G75*
G02*
X268925000Y-70756248I0J-281248D01*
G01*
X268925000Y-71543752D01*
G75*
G02*
X268643752Y-71825000I-281248J0D01*
G01*
G37*
G36*
G01*
X268643752Y-73825000D02*
X267656248Y-73825000D01*
G75*
G02*
X267375000Y-73543752I0J281248D01*
G01*
X267375000Y-72756248D01*
G75*
G02*
X267656248Y-72475000I281248J0D01*
G01*
X268643752Y-72475000D01*
G75*
G02*
X268925000Y-72756248I0J-281248D01*
G01*
X268925000Y-73543752D01*
G75*
G02*
X268643752Y-73825000I-281248J0D01*
G01*
G37*
%TD*%
%TO.C,R40*%
G36*
G01*
X271143752Y-73850000D02*
X270156248Y-73850000D01*
G75*
G02*
X269875000Y-73568752I0J281248D01*
G01*
X269875000Y-72781248D01*
G75*
G02*
X270156248Y-72500000I281248J0D01*
G01*
X271143752Y-72500000D01*
G75*
G02*
X271425000Y-72781248I0J-281248D01*
G01*
X271425000Y-73568752D01*
G75*
G02*
X271143752Y-73850000I-281248J0D01*
G01*
G37*
G36*
G01*
X271143752Y-71850000D02*
X270156248Y-71850000D01*
G75*
G02*
X269875000Y-71568752I0J281248D01*
G01*
X269875000Y-70781248D01*
G75*
G02*
X270156248Y-70500000I281248J0D01*
G01*
X271143752Y-70500000D01*
G75*
G02*
X271425000Y-70781248I0J-281248D01*
G01*
X271425000Y-71568752D01*
G75*
G02*
X271143752Y-71850000I-281248J0D01*
G01*
G37*
%TD*%
%TO.C,R41*%
G36*
G01*
X273668752Y-71825000D02*
X272681248Y-71825000D01*
G75*
G02*
X272400000Y-71543752I0J281248D01*
G01*
X272400000Y-70756248D01*
G75*
G02*
X272681248Y-70475000I281248J0D01*
G01*
X273668752Y-70475000D01*
G75*
G02*
X273950000Y-70756248I0J-281248D01*
G01*
X273950000Y-71543752D01*
G75*
G02*
X273668752Y-71825000I-281248J0D01*
G01*
G37*
G36*
G01*
X273668752Y-73825000D02*
X272681248Y-73825000D01*
G75*
G02*
X272400000Y-73543752I0J281248D01*
G01*
X272400000Y-72756248D01*
G75*
G02*
X272681248Y-72475000I281248J0D01*
G01*
X273668752Y-72475000D01*
G75*
G02*
X273950000Y-72756248I0J-281248D01*
G01*
X273950000Y-73543752D01*
G75*
G02*
X273668752Y-73825000I-281248J0D01*
G01*
G37*
%TD*%
%TO.C,R43*%
G36*
G01*
X237100000Y-63481248D02*
X237100000Y-64468752D01*
G75*
G02*
X236818752Y-64750000I-281248J0D01*
G01*
X236031248Y-64750000D01*
G75*
G02*
X235750000Y-64468752I0J281248D01*
G01*
X235750000Y-63481248D01*
G75*
G02*
X236031248Y-63200000I281248J0D01*
G01*
X236818752Y-63200000D01*
G75*
G02*
X237100000Y-63481248I0J-281248D01*
G01*
G37*
G36*
G01*
X235100000Y-63481248D02*
X235100000Y-64468752D01*
G75*
G02*
X234818752Y-64750000I-281248J0D01*
G01*
X234031248Y-64750000D01*
G75*
G02*
X233750000Y-64468752I0J281248D01*
G01*
X233750000Y-63481248D01*
G75*
G02*
X234031248Y-63200000I281248J0D01*
G01*
X234818752Y-63200000D01*
G75*
G02*
X235100000Y-63481248I0J-281248D01*
G01*
G37*
%TD*%
%TO.C,R44*%
G36*
G01*
X235100000Y-67131248D02*
X235100000Y-68118752D01*
G75*
G02*
X234818752Y-68400000I-281248J0D01*
G01*
X234031248Y-68400000D01*
G75*
G02*
X233750000Y-68118752I0J281248D01*
G01*
X233750000Y-67131248D01*
G75*
G02*
X234031248Y-66850000I281248J0D01*
G01*
X234818752Y-66850000D01*
G75*
G02*
X235100000Y-67131248I0J-281248D01*
G01*
G37*
G36*
G01*
X237100000Y-67131248D02*
X237100000Y-68118752D01*
G75*
G02*
X236818752Y-68400000I-281248J0D01*
G01*
X236031248Y-68400000D01*
G75*
G02*
X235750000Y-68118752I0J281248D01*
G01*
X235750000Y-67131248D01*
G75*
G02*
X236031248Y-66850000I281248J0D01*
G01*
X236818752Y-66850000D01*
G75*
G02*
X237100000Y-67131248I0J-281248D01*
G01*
G37*
%TD*%
%TO.C,R46*%
G36*
G01*
X229875000Y-79506248D02*
X229875000Y-80493752D01*
G75*
G02*
X229593752Y-80775000I-281248J0D01*
G01*
X228806248Y-80775000D01*
G75*
G02*
X228525000Y-80493752I0J281248D01*
G01*
X228525000Y-79506248D01*
G75*
G02*
X228806248Y-79225000I281248J0D01*
G01*
X229593752Y-79225000D01*
G75*
G02*
X229875000Y-79506248I0J-281248D01*
G01*
G37*
G36*
G01*
X231875000Y-79506248D02*
X231875000Y-80493752D01*
G75*
G02*
X231593752Y-80775000I-281248J0D01*
G01*
X230806248Y-80775000D01*
G75*
G02*
X230525000Y-80493752I0J281248D01*
G01*
X230525000Y-79506248D01*
G75*
G02*
X230806248Y-79225000I281248J0D01*
G01*
X231593752Y-79225000D01*
G75*
G02*
X231875000Y-79506248I0J-281248D01*
G01*
G37*
%TD*%
%TO.C,R47*%
G36*
G01*
X160455000Y-73893752D02*
X160455000Y-72906248D01*
G75*
G02*
X160736248Y-72625000I281248J0D01*
G01*
X161523752Y-72625000D01*
G75*
G02*
X161805000Y-72906248I0J-281248D01*
G01*
X161805000Y-73893752D01*
G75*
G02*
X161523752Y-74175000I-281248J0D01*
G01*
X160736248Y-74175000D01*
G75*
G02*
X160455000Y-73893752I0J281248D01*
G01*
G37*
G36*
G01*
X158455000Y-73893752D02*
X158455000Y-72906248D01*
G75*
G02*
X158736248Y-72625000I281248J0D01*
G01*
X159523752Y-72625000D01*
G75*
G02*
X159805000Y-72906248I0J-281248D01*
G01*
X159805000Y-73893752D01*
G75*
G02*
X159523752Y-74175000I-281248J0D01*
G01*
X158736248Y-74175000D01*
G75*
G02*
X158455000Y-73893752I0J281248D01*
G01*
G37*
%TD*%
%TO.C,R48*%
G36*
G01*
X163855000Y-73873752D02*
X163855000Y-72886248D01*
G75*
G02*
X164136248Y-72605000I281248J0D01*
G01*
X164923752Y-72605000D01*
G75*
G02*
X165205000Y-72886248I0J-281248D01*
G01*
X165205000Y-73873752D01*
G75*
G02*
X164923752Y-74155000I-281248J0D01*
G01*
X164136248Y-74155000D01*
G75*
G02*
X163855000Y-73873752I0J281248D01*
G01*
G37*
G36*
G01*
X165855000Y-73873752D02*
X165855000Y-72886248D01*
G75*
G02*
X166136248Y-72605000I281248J0D01*
G01*
X166923752Y-72605000D01*
G75*
G02*
X167205000Y-72886248I0J-281248D01*
G01*
X167205000Y-73873752D01*
G75*
G02*
X166923752Y-74155000I-281248J0D01*
G01*
X166136248Y-74155000D01*
G75*
G02*
X165855000Y-73873752I0J281248D01*
G01*
G37*
%TD*%
%TO.C,R50*%
G36*
G01*
X163325000Y-56993752D02*
X163325000Y-56006248D01*
G75*
G02*
X163606248Y-55725000I281248J0D01*
G01*
X164393752Y-55725000D01*
G75*
G02*
X164675000Y-56006248I0J-281248D01*
G01*
X164675000Y-56993752D01*
G75*
G02*
X164393752Y-57275000I-281248J0D01*
G01*
X163606248Y-57275000D01*
G75*
G02*
X163325000Y-56993752I0J281248D01*
G01*
G37*
G36*
G01*
X165325000Y-56993752D02*
X165325000Y-56006248D01*
G75*
G02*
X165606248Y-55725000I281248J0D01*
G01*
X166393752Y-55725000D01*
G75*
G02*
X166675000Y-56006248I0J-281248D01*
G01*
X166675000Y-56993752D01*
G75*
G02*
X166393752Y-57275000I-281248J0D01*
G01*
X165606248Y-57275000D01*
G75*
G02*
X165325000Y-56993752I0J281248D01*
G01*
G37*
%TD*%
%TO.C,R51*%
G36*
G01*
X156175000Y-56006248D02*
X156175000Y-56993752D01*
G75*
G02*
X155893752Y-57275000I-281248J0D01*
G01*
X155106248Y-57275000D01*
G75*
G02*
X154825000Y-56993752I0J281248D01*
G01*
X154825000Y-56006248D01*
G75*
G02*
X155106248Y-55725000I281248J0D01*
G01*
X155893752Y-55725000D01*
G75*
G02*
X156175000Y-56006248I0J-281248D01*
G01*
G37*
G36*
G01*
X158175000Y-56006248D02*
X158175000Y-56993752D01*
G75*
G02*
X157893752Y-57275000I-281248J0D01*
G01*
X157106248Y-57275000D01*
G75*
G02*
X156825000Y-56993752I0J281248D01*
G01*
X156825000Y-56006248D01*
G75*
G02*
X157106248Y-55725000I281248J0D01*
G01*
X157893752Y-55725000D01*
G75*
G02*
X158175000Y-56006248I0J-281248D01*
G01*
G37*
%TD*%
%TO.C,R52*%
G36*
G01*
X159665000Y-92833752D02*
X159665000Y-91846248D01*
G75*
G02*
X159946248Y-91565000I281248J0D01*
G01*
X160733752Y-91565000D01*
G75*
G02*
X161015000Y-91846248I0J-281248D01*
G01*
X161015000Y-92833752D01*
G75*
G02*
X160733752Y-93115000I-281248J0D01*
G01*
X159946248Y-93115000D01*
G75*
G02*
X159665000Y-92833752I0J281248D01*
G01*
G37*
G36*
G01*
X161665000Y-92833752D02*
X161665000Y-91846248D01*
G75*
G02*
X161946248Y-91565000I281248J0D01*
G01*
X162733752Y-91565000D01*
G75*
G02*
X163015000Y-91846248I0J-281248D01*
G01*
X163015000Y-92833752D01*
G75*
G02*
X162733752Y-93115000I-281248J0D01*
G01*
X161946248Y-93115000D01*
G75*
G02*
X161665000Y-92833752I0J281248D01*
G01*
G37*
%TD*%
%TO.C,R53*%
G36*
G01*
X155265000Y-94746248D02*
X155265000Y-95733752D01*
G75*
G02*
X154983752Y-96015000I-281248J0D01*
G01*
X154196248Y-96015000D01*
G75*
G02*
X153915000Y-95733752I0J281248D01*
G01*
X153915000Y-94746248D01*
G75*
G02*
X154196248Y-94465000I281248J0D01*
G01*
X154983752Y-94465000D01*
G75*
G02*
X155265000Y-94746248I0J-281248D01*
G01*
G37*
G36*
G01*
X157265000Y-94746248D02*
X157265000Y-95733752D01*
G75*
G02*
X156983752Y-96015000I-281248J0D01*
G01*
X156196248Y-96015000D01*
G75*
G02*
X155915000Y-95733752I0J281248D01*
G01*
X155915000Y-94746248D01*
G75*
G02*
X156196248Y-94465000I281248J0D01*
G01*
X156983752Y-94465000D01*
G75*
G02*
X157265000Y-94746248I0J-281248D01*
G01*
G37*
%TD*%
%TO.C,R54*%
G36*
G01*
X173575000Y-97296248D02*
X173575000Y-98283752D01*
G75*
G02*
X173293752Y-98565000I-281248J0D01*
G01*
X172506248Y-98565000D01*
G75*
G02*
X172225000Y-98283752I0J281248D01*
G01*
X172225000Y-97296248D01*
G75*
G02*
X172506248Y-97015000I281248J0D01*
G01*
X173293752Y-97015000D01*
G75*
G02*
X173575000Y-97296248I0J-281248D01*
G01*
G37*
G36*
G01*
X175575000Y-97296248D02*
X175575000Y-98283752D01*
G75*
G02*
X175293752Y-98565000I-281248J0D01*
G01*
X174506248Y-98565000D01*
G75*
G02*
X174225000Y-98283752I0J281248D01*
G01*
X174225000Y-97296248D01*
G75*
G02*
X174506248Y-97015000I281248J0D01*
G01*
X175293752Y-97015000D01*
G75*
G02*
X175575000Y-97296248I0J-281248D01*
G01*
G37*
%TD*%
%TO.C,R55*%
G36*
G01*
X161675000Y-96573752D02*
X161675000Y-95586248D01*
G75*
G02*
X161956248Y-95305000I281248J0D01*
G01*
X162743752Y-95305000D01*
G75*
G02*
X163025000Y-95586248I0J-281248D01*
G01*
X163025000Y-96573752D01*
G75*
G02*
X162743752Y-96855000I-281248J0D01*
G01*
X161956248Y-96855000D01*
G75*
G02*
X161675000Y-96573752I0J281248D01*
G01*
G37*
G36*
G01*
X159675000Y-96573752D02*
X159675000Y-95586248D01*
G75*
G02*
X159956248Y-95305000I281248J0D01*
G01*
X160743752Y-95305000D01*
G75*
G02*
X161025000Y-95586248I0J-281248D01*
G01*
X161025000Y-96573752D01*
G75*
G02*
X160743752Y-96855000I-281248J0D01*
G01*
X159956248Y-96855000D01*
G75*
G02*
X159675000Y-96573752I0J281248D01*
G01*
G37*
%TD*%
%TO.C,R56*%
G36*
G01*
X136493752Y-68675000D02*
X135506248Y-68675000D01*
G75*
G02*
X135225000Y-68393752I0J281248D01*
G01*
X135225000Y-67606248D01*
G75*
G02*
X135506248Y-67325000I281248J0D01*
G01*
X136493752Y-67325000D01*
G75*
G02*
X136775000Y-67606248I0J-281248D01*
G01*
X136775000Y-68393752D01*
G75*
G02*
X136493752Y-68675000I-281248J0D01*
G01*
G37*
G36*
G01*
X136493752Y-66675000D02*
X135506248Y-66675000D01*
G75*
G02*
X135225000Y-66393752I0J281248D01*
G01*
X135225000Y-65606248D01*
G75*
G02*
X135506248Y-65325000I281248J0D01*
G01*
X136493752Y-65325000D01*
G75*
G02*
X136775000Y-65606248I0J-281248D01*
G01*
X136775000Y-66393752D01*
G75*
G02*
X136493752Y-66675000I-281248J0D01*
G01*
G37*
%TD*%
%TO.C,R57*%
G36*
G01*
X140675000Y-74506248D02*
X140675000Y-75493752D01*
G75*
G02*
X140393752Y-75775000I-281248J0D01*
G01*
X139606248Y-75775000D01*
G75*
G02*
X139325000Y-75493752I0J281248D01*
G01*
X139325000Y-74506248D01*
G75*
G02*
X139606248Y-74225000I281248J0D01*
G01*
X140393752Y-74225000D01*
G75*
G02*
X140675000Y-74506248I0J-281248D01*
G01*
G37*
G36*
G01*
X142675000Y-74506248D02*
X142675000Y-75493752D01*
G75*
G02*
X142393752Y-75775000I-281248J0D01*
G01*
X141606248Y-75775000D01*
G75*
G02*
X141325000Y-75493752I0J281248D01*
G01*
X141325000Y-74506248D01*
G75*
G02*
X141606248Y-74225000I281248J0D01*
G01*
X142393752Y-74225000D01*
G75*
G02*
X142675000Y-74506248I0J-281248D01*
G01*
G37*
%TD*%
%TO.C,R59*%
G36*
G01*
X219703752Y-184215000D02*
X218716248Y-184215000D01*
G75*
G02*
X218435000Y-183933752I0J281248D01*
G01*
X218435000Y-183146248D01*
G75*
G02*
X218716248Y-182865000I281248J0D01*
G01*
X219703752Y-182865000D01*
G75*
G02*
X219985000Y-183146248I0J-281248D01*
G01*
X219985000Y-183933752D01*
G75*
G02*
X219703752Y-184215000I-281248J0D01*
G01*
G37*
G36*
G01*
X219703752Y-182215000D02*
X218716248Y-182215000D01*
G75*
G02*
X218435000Y-181933752I0J281248D01*
G01*
X218435000Y-181146248D01*
G75*
G02*
X218716248Y-180865000I281248J0D01*
G01*
X219703752Y-180865000D01*
G75*
G02*
X219985000Y-181146248I0J-281248D01*
G01*
X219985000Y-181933752D01*
G75*
G02*
X219703752Y-182215000I-281248J0D01*
G01*
G37*
%TD*%
%TO.C,R60*%
G36*
G01*
X216256248Y-182895000D02*
X217243752Y-182895000D01*
G75*
G02*
X217525000Y-183176248I0J-281248D01*
G01*
X217525000Y-183963752D01*
G75*
G02*
X217243752Y-184245000I-281248J0D01*
G01*
X216256248Y-184245000D01*
G75*
G02*
X215975000Y-183963752I0J281248D01*
G01*
X215975000Y-183176248D01*
G75*
G02*
X216256248Y-182895000I281248J0D01*
G01*
G37*
G36*
G01*
X216256248Y-180895000D02*
X217243752Y-180895000D01*
G75*
G02*
X217525000Y-181176248I0J-281248D01*
G01*
X217525000Y-181963752D01*
G75*
G02*
X217243752Y-182245000I-281248J0D01*
G01*
X216256248Y-182245000D01*
G75*
G02*
X215975000Y-181963752I0J281248D01*
G01*
X215975000Y-181176248D01*
G75*
G02*
X216256248Y-180895000I281248J0D01*
G01*
G37*
%TD*%
%TO.C,R61*%
G36*
G01*
X263645000Y-100316248D02*
X263645000Y-101303752D01*
G75*
G02*
X263363752Y-101585000I-281248J0D01*
G01*
X262576248Y-101585000D01*
G75*
G02*
X262295000Y-101303752I0J281248D01*
G01*
X262295000Y-100316248D01*
G75*
G02*
X262576248Y-100035000I281248J0D01*
G01*
X263363752Y-100035000D01*
G75*
G02*
X263645000Y-100316248I0J-281248D01*
G01*
G37*
G36*
G01*
X261645000Y-100316248D02*
X261645000Y-101303752D01*
G75*
G02*
X261363752Y-101585000I-281248J0D01*
G01*
X260576248Y-101585000D01*
G75*
G02*
X260295000Y-101303752I0J281248D01*
G01*
X260295000Y-100316248D01*
G75*
G02*
X260576248Y-100035000I281248J0D01*
G01*
X261363752Y-100035000D01*
G75*
G02*
X261645000Y-100316248I0J-281248D01*
G01*
G37*
%TD*%
%TO.C,R63*%
G36*
G01*
X184355000Y-57493752D02*
X184355000Y-56506248D01*
G75*
G02*
X184636248Y-56225000I281248J0D01*
G01*
X185423752Y-56225000D01*
G75*
G02*
X185705000Y-56506248I0J-281248D01*
G01*
X185705000Y-57493752D01*
G75*
G02*
X185423752Y-57775000I-281248J0D01*
G01*
X184636248Y-57775000D01*
G75*
G02*
X184355000Y-57493752I0J281248D01*
G01*
G37*
G36*
G01*
X182355000Y-57493752D02*
X182355000Y-56506248D01*
G75*
G02*
X182636248Y-56225000I281248J0D01*
G01*
X183423752Y-56225000D01*
G75*
G02*
X183705000Y-56506248I0J-281248D01*
G01*
X183705000Y-57493752D01*
G75*
G02*
X183423752Y-57775000I-281248J0D01*
G01*
X182636248Y-57775000D01*
G75*
G02*
X182355000Y-57493752I0J281248D01*
G01*
G37*
%TD*%
%TO.C,R64*%
G36*
G01*
X216525000Y-176143752D02*
X216525000Y-175156248D01*
G75*
G02*
X216806248Y-174875000I281248J0D01*
G01*
X217593752Y-174875000D01*
G75*
G02*
X217875000Y-175156248I0J-281248D01*
G01*
X217875000Y-176143752D01*
G75*
G02*
X217593752Y-176425000I-281248J0D01*
G01*
X216806248Y-176425000D01*
G75*
G02*
X216525000Y-176143752I0J281248D01*
G01*
G37*
G36*
G01*
X218525000Y-176143752D02*
X218525000Y-175156248D01*
G75*
G02*
X218806248Y-174875000I281248J0D01*
G01*
X219593752Y-174875000D01*
G75*
G02*
X219875000Y-175156248I0J-281248D01*
G01*
X219875000Y-176143752D01*
G75*
G02*
X219593752Y-176425000I-281248J0D01*
G01*
X218806248Y-176425000D01*
G75*
G02*
X218525000Y-176143752I0J281248D01*
G01*
G37*
%TD*%
M02*
