%TF.GenerationSoftware,KiCad,Pcbnew,5.1.9+dfsg1-1+deb11u1*%
%TF.CreationDate,2025-09-09T09:24:01+02:00*%
%TF.ProjectId,VERA-MODULE-RBL,56455241-2d4d-44f4-9455-4c452d52424c,1.0*%
%TF.SameCoordinates,Original*%
%TF.FileFunction,Paste,Top*%
%TF.FilePolarity,Positive*%
%FSLAX46Y46*%
G04 Gerber Fmt 4.6, Leading zero omitted, Abs format (unit mm)*
G04 Created by KiCad (PCBNEW 5.1.9+dfsg1-1+deb11u1) date 2025-09-09 09:24:01*
%MOMM*%
%LPD*%
G01*
G04 APERTURE LIST*
%ADD10R,0.787400X0.254000*%
%ADD11R,0.254000X0.787400*%
%ADD12R,5.511800X5.511800*%
%ADD13R,2.000000X7.875000*%
%ADD14R,3.050000X2.750000*%
%ADD15R,2.200000X1.200000*%
%ADD16R,2.000000X1.500000*%
%ADD17R,2.000000X3.800000*%
%ADD18R,1.250000X0.760000*%
%ADD19R,1.700000X1.500000*%
%ADD20R,0.800000X0.900000*%
%ADD21R,2.400000X2.800000*%
%ADD22R,1.000000X2.000000*%
%ADD23R,0.270000X1.000000*%
%ADD24R,0.520000X1.000000*%
%ADD25R,0.700000X1.200000*%
%ADD26R,1.000000X1.200000*%
%ADD27R,1.000000X0.800000*%
%ADD28R,1.000000X2.800000*%
%ADD29R,1.300000X1.900000*%
%ADD30R,3.300000X4.500000*%
%ADD31R,4.500000X3.300000*%
%ADD32R,1.930400X5.588000*%
%ADD33R,1.000000X3.150000*%
%ADD34R,0.650000X1.060000*%
%ADD35R,1.100000X0.900000*%
G04 APERTURE END LIST*
D10*
%TO.C,U7*%
X241262900Y-116820000D03*
X241262900Y-117319999D03*
X241262900Y-117820001D03*
X241262900Y-118320000D03*
X241262900Y-118819999D03*
X241262900Y-119320000D03*
X241262900Y-119820000D03*
X241262900Y-120320001D03*
X241262900Y-120820000D03*
X241262900Y-121319999D03*
X241262900Y-121820001D03*
X241262900Y-122320000D03*
D11*
X241980000Y-123037100D03*
X242479999Y-123037100D03*
X242980001Y-123037100D03*
X243480000Y-123037100D03*
X243979999Y-123037100D03*
X244480000Y-123037100D03*
X244980000Y-123037100D03*
X245480001Y-123037100D03*
X245980000Y-123037100D03*
X246479999Y-123037100D03*
X246980001Y-123037100D03*
X247480000Y-123037100D03*
D10*
X248197100Y-122320000D03*
X248197100Y-121820001D03*
X248197100Y-121319999D03*
X248197100Y-120820000D03*
X248197100Y-120320001D03*
X248197100Y-119820000D03*
X248197100Y-119320000D03*
X248197100Y-118819999D03*
X248197100Y-118320000D03*
X248197100Y-117820001D03*
X248197100Y-117319999D03*
X248197100Y-116820000D03*
D11*
X247480000Y-116102900D03*
X246980001Y-116102900D03*
X246479999Y-116102900D03*
X245980000Y-116102900D03*
X245480001Y-116102900D03*
X244980000Y-116102900D03*
X244480000Y-116102900D03*
X243979999Y-116102900D03*
X243480000Y-116102900D03*
X242980001Y-116102900D03*
X242479999Y-116102900D03*
X241980000Y-116102900D03*
D12*
X244730000Y-119570000D03*
%TD*%
%TO.C,U6*%
G36*
G01*
X227275000Y-184375000D02*
X227475000Y-184375000D01*
G75*
G02*
X227575000Y-184475000I0J-100000D01*
G01*
X227575000Y-185750000D01*
G75*
G02*
X227475000Y-185850000I-100000J0D01*
G01*
X227275000Y-185850000D01*
G75*
G02*
X227175000Y-185750000I0J100000D01*
G01*
X227175000Y-184475000D01*
G75*
G02*
X227275000Y-184375000I100000J0D01*
G01*
G37*
G36*
G01*
X226625000Y-184375000D02*
X226825000Y-184375000D01*
G75*
G02*
X226925000Y-184475000I0J-100000D01*
G01*
X226925000Y-185750000D01*
G75*
G02*
X226825000Y-185850000I-100000J0D01*
G01*
X226625000Y-185850000D01*
G75*
G02*
X226525000Y-185750000I0J100000D01*
G01*
X226525000Y-184475000D01*
G75*
G02*
X226625000Y-184375000I100000J0D01*
G01*
G37*
G36*
G01*
X225975000Y-184375000D02*
X226175000Y-184375000D01*
G75*
G02*
X226275000Y-184475000I0J-100000D01*
G01*
X226275000Y-185750000D01*
G75*
G02*
X226175000Y-185850000I-100000J0D01*
G01*
X225975000Y-185850000D01*
G75*
G02*
X225875000Y-185750000I0J100000D01*
G01*
X225875000Y-184475000D01*
G75*
G02*
X225975000Y-184375000I100000J0D01*
G01*
G37*
G36*
G01*
X225325000Y-184375000D02*
X225525000Y-184375000D01*
G75*
G02*
X225625000Y-184475000I0J-100000D01*
G01*
X225625000Y-185750000D01*
G75*
G02*
X225525000Y-185850000I-100000J0D01*
G01*
X225325000Y-185850000D01*
G75*
G02*
X225225000Y-185750000I0J100000D01*
G01*
X225225000Y-184475000D01*
G75*
G02*
X225325000Y-184375000I100000J0D01*
G01*
G37*
G36*
G01*
X224675000Y-184375000D02*
X224875000Y-184375000D01*
G75*
G02*
X224975000Y-184475000I0J-100000D01*
G01*
X224975000Y-185750000D01*
G75*
G02*
X224875000Y-185850000I-100000J0D01*
G01*
X224675000Y-185850000D01*
G75*
G02*
X224575000Y-185750000I0J100000D01*
G01*
X224575000Y-184475000D01*
G75*
G02*
X224675000Y-184375000I100000J0D01*
G01*
G37*
G36*
G01*
X224025000Y-184375000D02*
X224225000Y-184375000D01*
G75*
G02*
X224325000Y-184475000I0J-100000D01*
G01*
X224325000Y-185750000D01*
G75*
G02*
X224225000Y-185850000I-100000J0D01*
G01*
X224025000Y-185850000D01*
G75*
G02*
X223925000Y-185750000I0J100000D01*
G01*
X223925000Y-184475000D01*
G75*
G02*
X224025000Y-184375000I100000J0D01*
G01*
G37*
G36*
G01*
X223375000Y-184375000D02*
X223575000Y-184375000D01*
G75*
G02*
X223675000Y-184475000I0J-100000D01*
G01*
X223675000Y-185750000D01*
G75*
G02*
X223575000Y-185850000I-100000J0D01*
G01*
X223375000Y-185850000D01*
G75*
G02*
X223275000Y-185750000I0J100000D01*
G01*
X223275000Y-184475000D01*
G75*
G02*
X223375000Y-184375000I100000J0D01*
G01*
G37*
G36*
G01*
X222725000Y-184375000D02*
X222925000Y-184375000D01*
G75*
G02*
X223025000Y-184475000I0J-100000D01*
G01*
X223025000Y-185750000D01*
G75*
G02*
X222925000Y-185850000I-100000J0D01*
G01*
X222725000Y-185850000D01*
G75*
G02*
X222625000Y-185750000I0J100000D01*
G01*
X222625000Y-184475000D01*
G75*
G02*
X222725000Y-184375000I100000J0D01*
G01*
G37*
G36*
G01*
X222075000Y-184375000D02*
X222275000Y-184375000D01*
G75*
G02*
X222375000Y-184475000I0J-100000D01*
G01*
X222375000Y-185750000D01*
G75*
G02*
X222275000Y-185850000I-100000J0D01*
G01*
X222075000Y-185850000D01*
G75*
G02*
X221975000Y-185750000I0J100000D01*
G01*
X221975000Y-184475000D01*
G75*
G02*
X222075000Y-184375000I100000J0D01*
G01*
G37*
G36*
G01*
X221425000Y-184375000D02*
X221625000Y-184375000D01*
G75*
G02*
X221725000Y-184475000I0J-100000D01*
G01*
X221725000Y-185750000D01*
G75*
G02*
X221625000Y-185850000I-100000J0D01*
G01*
X221425000Y-185850000D01*
G75*
G02*
X221325000Y-185750000I0J100000D01*
G01*
X221325000Y-184475000D01*
G75*
G02*
X221425000Y-184375000I100000J0D01*
G01*
G37*
G36*
G01*
X221425000Y-178650000D02*
X221625000Y-178650000D01*
G75*
G02*
X221725000Y-178750000I0J-100000D01*
G01*
X221725000Y-180025000D01*
G75*
G02*
X221625000Y-180125000I-100000J0D01*
G01*
X221425000Y-180125000D01*
G75*
G02*
X221325000Y-180025000I0J100000D01*
G01*
X221325000Y-178750000D01*
G75*
G02*
X221425000Y-178650000I100000J0D01*
G01*
G37*
G36*
G01*
X222075000Y-178650000D02*
X222275000Y-178650000D01*
G75*
G02*
X222375000Y-178750000I0J-100000D01*
G01*
X222375000Y-180025000D01*
G75*
G02*
X222275000Y-180125000I-100000J0D01*
G01*
X222075000Y-180125000D01*
G75*
G02*
X221975000Y-180025000I0J100000D01*
G01*
X221975000Y-178750000D01*
G75*
G02*
X222075000Y-178650000I100000J0D01*
G01*
G37*
G36*
G01*
X222725000Y-178650000D02*
X222925000Y-178650000D01*
G75*
G02*
X223025000Y-178750000I0J-100000D01*
G01*
X223025000Y-180025000D01*
G75*
G02*
X222925000Y-180125000I-100000J0D01*
G01*
X222725000Y-180125000D01*
G75*
G02*
X222625000Y-180025000I0J100000D01*
G01*
X222625000Y-178750000D01*
G75*
G02*
X222725000Y-178650000I100000J0D01*
G01*
G37*
G36*
G01*
X223375000Y-178650000D02*
X223575000Y-178650000D01*
G75*
G02*
X223675000Y-178750000I0J-100000D01*
G01*
X223675000Y-180025000D01*
G75*
G02*
X223575000Y-180125000I-100000J0D01*
G01*
X223375000Y-180125000D01*
G75*
G02*
X223275000Y-180025000I0J100000D01*
G01*
X223275000Y-178750000D01*
G75*
G02*
X223375000Y-178650000I100000J0D01*
G01*
G37*
G36*
G01*
X224025000Y-178650000D02*
X224225000Y-178650000D01*
G75*
G02*
X224325000Y-178750000I0J-100000D01*
G01*
X224325000Y-180025000D01*
G75*
G02*
X224225000Y-180125000I-100000J0D01*
G01*
X224025000Y-180125000D01*
G75*
G02*
X223925000Y-180025000I0J100000D01*
G01*
X223925000Y-178750000D01*
G75*
G02*
X224025000Y-178650000I100000J0D01*
G01*
G37*
G36*
G01*
X224675000Y-178650000D02*
X224875000Y-178650000D01*
G75*
G02*
X224975000Y-178750000I0J-100000D01*
G01*
X224975000Y-180025000D01*
G75*
G02*
X224875000Y-180125000I-100000J0D01*
G01*
X224675000Y-180125000D01*
G75*
G02*
X224575000Y-180025000I0J100000D01*
G01*
X224575000Y-178750000D01*
G75*
G02*
X224675000Y-178650000I100000J0D01*
G01*
G37*
G36*
G01*
X225325000Y-178650000D02*
X225525000Y-178650000D01*
G75*
G02*
X225625000Y-178750000I0J-100000D01*
G01*
X225625000Y-180025000D01*
G75*
G02*
X225525000Y-180125000I-100000J0D01*
G01*
X225325000Y-180125000D01*
G75*
G02*
X225225000Y-180025000I0J100000D01*
G01*
X225225000Y-178750000D01*
G75*
G02*
X225325000Y-178650000I100000J0D01*
G01*
G37*
G36*
G01*
X225975000Y-178650000D02*
X226175000Y-178650000D01*
G75*
G02*
X226275000Y-178750000I0J-100000D01*
G01*
X226275000Y-180025000D01*
G75*
G02*
X226175000Y-180125000I-100000J0D01*
G01*
X225975000Y-180125000D01*
G75*
G02*
X225875000Y-180025000I0J100000D01*
G01*
X225875000Y-178750000D01*
G75*
G02*
X225975000Y-178650000I100000J0D01*
G01*
G37*
G36*
G01*
X226625000Y-178650000D02*
X226825000Y-178650000D01*
G75*
G02*
X226925000Y-178750000I0J-100000D01*
G01*
X226925000Y-180025000D01*
G75*
G02*
X226825000Y-180125000I-100000J0D01*
G01*
X226625000Y-180125000D01*
G75*
G02*
X226525000Y-180025000I0J100000D01*
G01*
X226525000Y-178750000D01*
G75*
G02*
X226625000Y-178650000I100000J0D01*
G01*
G37*
G36*
G01*
X227275000Y-178650000D02*
X227475000Y-178650000D01*
G75*
G02*
X227575000Y-178750000I0J-100000D01*
G01*
X227575000Y-180025000D01*
G75*
G02*
X227475000Y-180125000I-100000J0D01*
G01*
X227275000Y-180125000D01*
G75*
G02*
X227175000Y-180025000I0J100000D01*
G01*
X227175000Y-178750000D01*
G75*
G02*
X227275000Y-178650000I100000J0D01*
G01*
G37*
%TD*%
%TO.C,U2*%
G36*
G01*
X207677746Y-88193071D02*
X208123223Y-87747594D01*
G75*
G02*
X208476777Y-87747594I176777J-176777D01*
G01*
X208922254Y-88193071D01*
G75*
G02*
X208922254Y-88546625I-176777J-176777D01*
G01*
X208476777Y-88992102D01*
G75*
G02*
X208123223Y-88992102I-176777J176777D01*
G01*
X207677746Y-88546625D01*
G75*
G02*
X207677746Y-88193071I176777J176777D01*
G01*
G37*
G36*
G01*
X208667695Y-87203122D02*
X209113172Y-86757645D01*
G75*
G02*
X209466726Y-86757645I176777J-176777D01*
G01*
X209912203Y-87203122D01*
G75*
G02*
X209912203Y-87556676I-176777J-176777D01*
G01*
X209466726Y-88002153D01*
G75*
G02*
X209113172Y-88002153I-176777J176777D01*
G01*
X208667695Y-87556676D01*
G75*
G02*
X208667695Y-87203122I176777J176777D01*
G01*
G37*
G36*
G01*
X209657645Y-86213172D02*
X210103122Y-85767695D01*
G75*
G02*
X210456676Y-85767695I176777J-176777D01*
G01*
X210902153Y-86213172D01*
G75*
G02*
X210902153Y-86566726I-176777J-176777D01*
G01*
X210456676Y-87012203D01*
G75*
G02*
X210103122Y-87012203I-176777J176777D01*
G01*
X209657645Y-86566726D01*
G75*
G02*
X209657645Y-86213172I176777J176777D01*
G01*
G37*
G36*
G01*
X210647594Y-85223223D02*
X211093071Y-84777746D01*
G75*
G02*
X211446625Y-84777746I176777J-176777D01*
G01*
X211892102Y-85223223D01*
G75*
G02*
X211892102Y-85576777I-176777J-176777D01*
G01*
X211446625Y-86022254D01*
G75*
G02*
X211093071Y-86022254I-176777J176777D01*
G01*
X210647594Y-85576777D01*
G75*
G02*
X210647594Y-85223223I176777J176777D01*
G01*
G37*
G36*
G01*
X206687797Y-87203122D02*
X207133274Y-86757645D01*
G75*
G02*
X207486828Y-86757645I176777J-176777D01*
G01*
X207932305Y-87203122D01*
G75*
G02*
X207932305Y-87556676I-176777J-176777D01*
G01*
X207486828Y-88002153D01*
G75*
G02*
X207133274Y-88002153I-176777J176777D01*
G01*
X206687797Y-87556676D01*
G75*
G02*
X206687797Y-87203122I176777J176777D01*
G01*
G37*
G36*
G01*
X207677746Y-86213172D02*
X208123223Y-85767695D01*
G75*
G02*
X208476777Y-85767695I176777J-176777D01*
G01*
X208922254Y-86213172D01*
G75*
G02*
X208922254Y-86566726I-176777J-176777D01*
G01*
X208476777Y-87012203D01*
G75*
G02*
X208123223Y-87012203I-176777J176777D01*
G01*
X207677746Y-86566726D01*
G75*
G02*
X207677746Y-86213172I176777J176777D01*
G01*
G37*
G36*
G01*
X208667695Y-85223223D02*
X209113172Y-84777746D01*
G75*
G02*
X209466726Y-84777746I176777J-176777D01*
G01*
X209912203Y-85223223D01*
G75*
G02*
X209912203Y-85576777I-176777J-176777D01*
G01*
X209466726Y-86022254D01*
G75*
G02*
X209113172Y-86022254I-176777J176777D01*
G01*
X208667695Y-85576777D01*
G75*
G02*
X208667695Y-85223223I176777J176777D01*
G01*
G37*
G36*
G01*
X209657645Y-84233274D02*
X210103122Y-83787797D01*
G75*
G02*
X210456676Y-83787797I176777J-176777D01*
G01*
X210902153Y-84233274D01*
G75*
G02*
X210902153Y-84586828I-176777J-176777D01*
G01*
X210456676Y-85032305D01*
G75*
G02*
X210103122Y-85032305I-176777J176777D01*
G01*
X209657645Y-84586828D01*
G75*
G02*
X209657645Y-84233274I176777J176777D01*
G01*
G37*
G36*
G01*
X205697847Y-86213172D02*
X206143324Y-85767695D01*
G75*
G02*
X206496878Y-85767695I176777J-176777D01*
G01*
X206942355Y-86213172D01*
G75*
G02*
X206942355Y-86566726I-176777J-176777D01*
G01*
X206496878Y-87012203D01*
G75*
G02*
X206143324Y-87012203I-176777J176777D01*
G01*
X205697847Y-86566726D01*
G75*
G02*
X205697847Y-86213172I176777J176777D01*
G01*
G37*
G36*
G01*
X206687797Y-85223223D02*
X207133274Y-84777746D01*
G75*
G02*
X207486828Y-84777746I176777J-176777D01*
G01*
X207932305Y-85223223D01*
G75*
G02*
X207932305Y-85576777I-176777J-176777D01*
G01*
X207486828Y-86022254D01*
G75*
G02*
X207133274Y-86022254I-176777J176777D01*
G01*
X206687797Y-85576777D01*
G75*
G02*
X206687797Y-85223223I176777J176777D01*
G01*
G37*
G36*
G01*
X207677746Y-84233274D02*
X208123223Y-83787797D01*
G75*
G02*
X208476777Y-83787797I176777J-176777D01*
G01*
X208922254Y-84233274D01*
G75*
G02*
X208922254Y-84586828I-176777J-176777D01*
G01*
X208476777Y-85032305D01*
G75*
G02*
X208123223Y-85032305I-176777J176777D01*
G01*
X207677746Y-84586828D01*
G75*
G02*
X207677746Y-84233274I176777J176777D01*
G01*
G37*
G36*
G01*
X208667695Y-83243324D02*
X209113172Y-82797847D01*
G75*
G02*
X209466726Y-82797847I176777J-176777D01*
G01*
X209912203Y-83243324D01*
G75*
G02*
X209912203Y-83596878I-176777J-176777D01*
G01*
X209466726Y-84042355D01*
G75*
G02*
X209113172Y-84042355I-176777J176777D01*
G01*
X208667695Y-83596878D01*
G75*
G02*
X208667695Y-83243324I176777J176777D01*
G01*
G37*
G36*
G01*
X204707898Y-85223223D02*
X205153375Y-84777746D01*
G75*
G02*
X205506929Y-84777746I176777J-176777D01*
G01*
X205952406Y-85223223D01*
G75*
G02*
X205952406Y-85576777I-176777J-176777D01*
G01*
X205506929Y-86022254D01*
G75*
G02*
X205153375Y-86022254I-176777J176777D01*
G01*
X204707898Y-85576777D01*
G75*
G02*
X204707898Y-85223223I176777J176777D01*
G01*
G37*
G36*
G01*
X205697847Y-84233274D02*
X206143324Y-83787797D01*
G75*
G02*
X206496878Y-83787797I176777J-176777D01*
G01*
X206942355Y-84233274D01*
G75*
G02*
X206942355Y-84586828I-176777J-176777D01*
G01*
X206496878Y-85032305D01*
G75*
G02*
X206143324Y-85032305I-176777J176777D01*
G01*
X205697847Y-84586828D01*
G75*
G02*
X205697847Y-84233274I176777J176777D01*
G01*
G37*
G36*
G01*
X206687797Y-83243324D02*
X207133274Y-82797847D01*
G75*
G02*
X207486828Y-82797847I176777J-176777D01*
G01*
X207932305Y-83243324D01*
G75*
G02*
X207932305Y-83596878I-176777J-176777D01*
G01*
X207486828Y-84042355D01*
G75*
G02*
X207133274Y-84042355I-176777J176777D01*
G01*
X206687797Y-83596878D01*
G75*
G02*
X206687797Y-83243324I176777J176777D01*
G01*
G37*
G36*
G01*
X207677746Y-82253375D02*
X208123223Y-81807898D01*
G75*
G02*
X208476777Y-81807898I176777J-176777D01*
G01*
X208922254Y-82253375D01*
G75*
G02*
X208922254Y-82606929I-176777J-176777D01*
G01*
X208476777Y-83052406D01*
G75*
G02*
X208123223Y-83052406I-176777J176777D01*
G01*
X207677746Y-82606929D01*
G75*
G02*
X207677746Y-82253375I176777J176777D01*
G01*
G37*
G36*
G01*
X208432583Y-81201554D02*
X208962913Y-80671224D01*
G75*
G02*
X209051301Y-80671224I44194J-44194D01*
G01*
X209139689Y-80759612D01*
G75*
G02*
X209139689Y-80848000I-44194J-44194D01*
G01*
X208609359Y-81378330D01*
G75*
G02*
X208520971Y-81378330I-44194J44194D01*
G01*
X208432583Y-81289942D01*
G75*
G02*
X208432583Y-81201554I44194J44194D01*
G01*
G37*
G36*
G01*
X208786136Y-81555107D02*
X209316466Y-81024777D01*
G75*
G02*
X209404854Y-81024777I44194J-44194D01*
G01*
X209493242Y-81113165D01*
G75*
G02*
X209493242Y-81201553I-44194J-44194D01*
G01*
X208962912Y-81731883D01*
G75*
G02*
X208874524Y-81731883I-44194J44194D01*
G01*
X208786136Y-81643495D01*
G75*
G02*
X208786136Y-81555107I44194J44194D01*
G01*
G37*
G36*
G01*
X209139690Y-81908661D02*
X209670020Y-81378331D01*
G75*
G02*
X209758408Y-81378331I44194J-44194D01*
G01*
X209846796Y-81466719D01*
G75*
G02*
X209846796Y-81555107I-44194J-44194D01*
G01*
X209316466Y-82085437D01*
G75*
G02*
X209228078Y-82085437I-44194J44194D01*
G01*
X209139690Y-81997049D01*
G75*
G02*
X209139690Y-81908661I44194J44194D01*
G01*
G37*
G36*
G01*
X209493243Y-82262214D02*
X210023573Y-81731884D01*
G75*
G02*
X210111961Y-81731884I44194J-44194D01*
G01*
X210200349Y-81820272D01*
G75*
G02*
X210200349Y-81908660I-44194J-44194D01*
G01*
X209670019Y-82438990D01*
G75*
G02*
X209581631Y-82438990I-44194J44194D01*
G01*
X209493243Y-82350602D01*
G75*
G02*
X209493243Y-82262214I44194J44194D01*
G01*
G37*
G36*
G01*
X209846796Y-82615767D02*
X210377126Y-82085437D01*
G75*
G02*
X210465514Y-82085437I44194J-44194D01*
G01*
X210553902Y-82173825D01*
G75*
G02*
X210553902Y-82262213I-44194J-44194D01*
G01*
X210023572Y-82792543D01*
G75*
G02*
X209935184Y-82792543I-44194J44194D01*
G01*
X209846796Y-82704155D01*
G75*
G02*
X209846796Y-82615767I44194J44194D01*
G01*
G37*
G36*
G01*
X210200350Y-82969321D02*
X210730680Y-82438991D01*
G75*
G02*
X210819068Y-82438991I44194J-44194D01*
G01*
X210907456Y-82527379D01*
G75*
G02*
X210907456Y-82615767I-44194J-44194D01*
G01*
X210377126Y-83146097D01*
G75*
G02*
X210288738Y-83146097I-44194J44194D01*
G01*
X210200350Y-83057709D01*
G75*
G02*
X210200350Y-82969321I44194J44194D01*
G01*
G37*
G36*
G01*
X210553903Y-83322874D02*
X211084233Y-82792544D01*
G75*
G02*
X211172621Y-82792544I44194J-44194D01*
G01*
X211261009Y-82880932D01*
G75*
G02*
X211261009Y-82969320I-44194J-44194D01*
G01*
X210730679Y-83499650D01*
G75*
G02*
X210642291Y-83499650I-44194J44194D01*
G01*
X210553903Y-83411262D01*
G75*
G02*
X210553903Y-83322874I44194J44194D01*
G01*
G37*
G36*
G01*
X210907457Y-83676428D02*
X211437787Y-83146098D01*
G75*
G02*
X211526175Y-83146098I44194J-44194D01*
G01*
X211614563Y-83234486D01*
G75*
G02*
X211614563Y-83322874I-44194J-44194D01*
G01*
X211084233Y-83853204D01*
G75*
G02*
X210995845Y-83853204I-44194J44194D01*
G01*
X210907457Y-83764816D01*
G75*
G02*
X210907457Y-83676428I44194J44194D01*
G01*
G37*
G36*
G01*
X211261010Y-84029981D02*
X211791340Y-83499651D01*
G75*
G02*
X211879728Y-83499651I44194J-44194D01*
G01*
X211968116Y-83588039D01*
G75*
G02*
X211968116Y-83676427I-44194J-44194D01*
G01*
X211437786Y-84206757D01*
G75*
G02*
X211349398Y-84206757I-44194J44194D01*
G01*
X211261010Y-84118369D01*
G75*
G02*
X211261010Y-84029981I44194J44194D01*
G01*
G37*
G36*
G01*
X211614563Y-84383534D02*
X212144893Y-83853204D01*
G75*
G02*
X212233281Y-83853204I44194J-44194D01*
G01*
X212321669Y-83941592D01*
G75*
G02*
X212321669Y-84029980I-44194J-44194D01*
G01*
X211791339Y-84560310D01*
G75*
G02*
X211702951Y-84560310I-44194J44194D01*
G01*
X211614563Y-84471922D01*
G75*
G02*
X211614563Y-84383534I44194J44194D01*
G01*
G37*
G36*
G01*
X211968117Y-84737088D02*
X212498447Y-84206758D01*
G75*
G02*
X212586835Y-84206758I44194J-44194D01*
G01*
X212675223Y-84295146D01*
G75*
G02*
X212675223Y-84383534I-44194J-44194D01*
G01*
X212144893Y-84913864D01*
G75*
G02*
X212056505Y-84913864I-44194J44194D01*
G01*
X211968117Y-84825476D01*
G75*
G02*
X211968117Y-84737088I44194J44194D01*
G01*
G37*
G36*
G01*
X212321670Y-85090641D02*
X212852000Y-84560311D01*
G75*
G02*
X212940388Y-84560311I44194J-44194D01*
G01*
X213028776Y-84648699D01*
G75*
G02*
X213028776Y-84737087I-44194J-44194D01*
G01*
X212498446Y-85267417D01*
G75*
G02*
X212410058Y-85267417I-44194J44194D01*
G01*
X212321670Y-85179029D01*
G75*
G02*
X212321670Y-85090641I44194J44194D01*
G01*
G37*
G36*
G01*
X212321670Y-85620971D02*
X212410058Y-85532583D01*
G75*
G02*
X212498446Y-85532583I44194J-44194D01*
G01*
X213028776Y-86062913D01*
G75*
G02*
X213028776Y-86151301I-44194J-44194D01*
G01*
X212940388Y-86239689D01*
G75*
G02*
X212852000Y-86239689I-44194J44194D01*
G01*
X212321670Y-85709359D01*
G75*
G02*
X212321670Y-85620971I44194J44194D01*
G01*
G37*
G36*
G01*
X211968117Y-85974524D02*
X212056505Y-85886136D01*
G75*
G02*
X212144893Y-85886136I44194J-44194D01*
G01*
X212675223Y-86416466D01*
G75*
G02*
X212675223Y-86504854I-44194J-44194D01*
G01*
X212586835Y-86593242D01*
G75*
G02*
X212498447Y-86593242I-44194J44194D01*
G01*
X211968117Y-86062912D01*
G75*
G02*
X211968117Y-85974524I44194J44194D01*
G01*
G37*
G36*
G01*
X211614563Y-86328078D02*
X211702951Y-86239690D01*
G75*
G02*
X211791339Y-86239690I44194J-44194D01*
G01*
X212321669Y-86770020D01*
G75*
G02*
X212321669Y-86858408I-44194J-44194D01*
G01*
X212233281Y-86946796D01*
G75*
G02*
X212144893Y-86946796I-44194J44194D01*
G01*
X211614563Y-86416466D01*
G75*
G02*
X211614563Y-86328078I44194J44194D01*
G01*
G37*
G36*
G01*
X211261010Y-86681631D02*
X211349398Y-86593243D01*
G75*
G02*
X211437786Y-86593243I44194J-44194D01*
G01*
X211968116Y-87123573D01*
G75*
G02*
X211968116Y-87211961I-44194J-44194D01*
G01*
X211879728Y-87300349D01*
G75*
G02*
X211791340Y-87300349I-44194J44194D01*
G01*
X211261010Y-86770019D01*
G75*
G02*
X211261010Y-86681631I44194J44194D01*
G01*
G37*
G36*
G01*
X210907457Y-87035184D02*
X210995845Y-86946796D01*
G75*
G02*
X211084233Y-86946796I44194J-44194D01*
G01*
X211614563Y-87477126D01*
G75*
G02*
X211614563Y-87565514I-44194J-44194D01*
G01*
X211526175Y-87653902D01*
G75*
G02*
X211437787Y-87653902I-44194J44194D01*
G01*
X210907457Y-87123572D01*
G75*
G02*
X210907457Y-87035184I44194J44194D01*
G01*
G37*
G36*
G01*
X210553903Y-87388738D02*
X210642291Y-87300350D01*
G75*
G02*
X210730679Y-87300350I44194J-44194D01*
G01*
X211261009Y-87830680D01*
G75*
G02*
X211261009Y-87919068I-44194J-44194D01*
G01*
X211172621Y-88007456D01*
G75*
G02*
X211084233Y-88007456I-44194J44194D01*
G01*
X210553903Y-87477126D01*
G75*
G02*
X210553903Y-87388738I44194J44194D01*
G01*
G37*
G36*
G01*
X210200350Y-87742291D02*
X210288738Y-87653903D01*
G75*
G02*
X210377126Y-87653903I44194J-44194D01*
G01*
X210907456Y-88184233D01*
G75*
G02*
X210907456Y-88272621I-44194J-44194D01*
G01*
X210819068Y-88361009D01*
G75*
G02*
X210730680Y-88361009I-44194J44194D01*
G01*
X210200350Y-87830679D01*
G75*
G02*
X210200350Y-87742291I44194J44194D01*
G01*
G37*
G36*
G01*
X209846796Y-88095845D02*
X209935184Y-88007457D01*
G75*
G02*
X210023572Y-88007457I44194J-44194D01*
G01*
X210553902Y-88537787D01*
G75*
G02*
X210553902Y-88626175I-44194J-44194D01*
G01*
X210465514Y-88714563D01*
G75*
G02*
X210377126Y-88714563I-44194J44194D01*
G01*
X209846796Y-88184233D01*
G75*
G02*
X209846796Y-88095845I44194J44194D01*
G01*
G37*
G36*
G01*
X209493243Y-88449398D02*
X209581631Y-88361010D01*
G75*
G02*
X209670019Y-88361010I44194J-44194D01*
G01*
X210200349Y-88891340D01*
G75*
G02*
X210200349Y-88979728I-44194J-44194D01*
G01*
X210111961Y-89068116D01*
G75*
G02*
X210023573Y-89068116I-44194J44194D01*
G01*
X209493243Y-88537786D01*
G75*
G02*
X209493243Y-88449398I44194J44194D01*
G01*
G37*
G36*
G01*
X209139690Y-88802951D02*
X209228078Y-88714563D01*
G75*
G02*
X209316466Y-88714563I44194J-44194D01*
G01*
X209846796Y-89244893D01*
G75*
G02*
X209846796Y-89333281I-44194J-44194D01*
G01*
X209758408Y-89421669D01*
G75*
G02*
X209670020Y-89421669I-44194J44194D01*
G01*
X209139690Y-88891339D01*
G75*
G02*
X209139690Y-88802951I44194J44194D01*
G01*
G37*
G36*
G01*
X208786136Y-89156505D02*
X208874524Y-89068117D01*
G75*
G02*
X208962912Y-89068117I44194J-44194D01*
G01*
X209493242Y-89598447D01*
G75*
G02*
X209493242Y-89686835I-44194J-44194D01*
G01*
X209404854Y-89775223D01*
G75*
G02*
X209316466Y-89775223I-44194J44194D01*
G01*
X208786136Y-89244893D01*
G75*
G02*
X208786136Y-89156505I44194J44194D01*
G01*
G37*
G36*
G01*
X208432583Y-89510058D02*
X208520971Y-89421670D01*
G75*
G02*
X208609359Y-89421670I44194J-44194D01*
G01*
X209139689Y-89952000D01*
G75*
G02*
X209139689Y-90040388I-44194J-44194D01*
G01*
X209051301Y-90128776D01*
G75*
G02*
X208962913Y-90128776I-44194J44194D01*
G01*
X208432583Y-89598446D01*
G75*
G02*
X208432583Y-89510058I44194J44194D01*
G01*
G37*
G36*
G01*
X207460311Y-89952000D02*
X207990641Y-89421670D01*
G75*
G02*
X208079029Y-89421670I44194J-44194D01*
G01*
X208167417Y-89510058D01*
G75*
G02*
X208167417Y-89598446I-44194J-44194D01*
G01*
X207637087Y-90128776D01*
G75*
G02*
X207548699Y-90128776I-44194J44194D01*
G01*
X207460311Y-90040388D01*
G75*
G02*
X207460311Y-89952000I44194J44194D01*
G01*
G37*
G36*
G01*
X207106758Y-89598447D02*
X207637088Y-89068117D01*
G75*
G02*
X207725476Y-89068117I44194J-44194D01*
G01*
X207813864Y-89156505D01*
G75*
G02*
X207813864Y-89244893I-44194J-44194D01*
G01*
X207283534Y-89775223D01*
G75*
G02*
X207195146Y-89775223I-44194J44194D01*
G01*
X207106758Y-89686835D01*
G75*
G02*
X207106758Y-89598447I44194J44194D01*
G01*
G37*
G36*
G01*
X206753204Y-89244893D02*
X207283534Y-88714563D01*
G75*
G02*
X207371922Y-88714563I44194J-44194D01*
G01*
X207460310Y-88802951D01*
G75*
G02*
X207460310Y-88891339I-44194J-44194D01*
G01*
X206929980Y-89421669D01*
G75*
G02*
X206841592Y-89421669I-44194J44194D01*
G01*
X206753204Y-89333281D01*
G75*
G02*
X206753204Y-89244893I44194J44194D01*
G01*
G37*
G36*
G01*
X206399651Y-88891340D02*
X206929981Y-88361010D01*
G75*
G02*
X207018369Y-88361010I44194J-44194D01*
G01*
X207106757Y-88449398D01*
G75*
G02*
X207106757Y-88537786I-44194J-44194D01*
G01*
X206576427Y-89068116D01*
G75*
G02*
X206488039Y-89068116I-44194J44194D01*
G01*
X206399651Y-88979728D01*
G75*
G02*
X206399651Y-88891340I44194J44194D01*
G01*
G37*
G36*
G01*
X206046098Y-88537787D02*
X206576428Y-88007457D01*
G75*
G02*
X206664816Y-88007457I44194J-44194D01*
G01*
X206753204Y-88095845D01*
G75*
G02*
X206753204Y-88184233I-44194J-44194D01*
G01*
X206222874Y-88714563D01*
G75*
G02*
X206134486Y-88714563I-44194J44194D01*
G01*
X206046098Y-88626175D01*
G75*
G02*
X206046098Y-88537787I44194J44194D01*
G01*
G37*
G36*
G01*
X205692544Y-88184233D02*
X206222874Y-87653903D01*
G75*
G02*
X206311262Y-87653903I44194J-44194D01*
G01*
X206399650Y-87742291D01*
G75*
G02*
X206399650Y-87830679I-44194J-44194D01*
G01*
X205869320Y-88361009D01*
G75*
G02*
X205780932Y-88361009I-44194J44194D01*
G01*
X205692544Y-88272621D01*
G75*
G02*
X205692544Y-88184233I44194J44194D01*
G01*
G37*
G36*
G01*
X205338991Y-87830680D02*
X205869321Y-87300350D01*
G75*
G02*
X205957709Y-87300350I44194J-44194D01*
G01*
X206046097Y-87388738D01*
G75*
G02*
X206046097Y-87477126I-44194J-44194D01*
G01*
X205515767Y-88007456D01*
G75*
G02*
X205427379Y-88007456I-44194J44194D01*
G01*
X205338991Y-87919068D01*
G75*
G02*
X205338991Y-87830680I44194J44194D01*
G01*
G37*
G36*
G01*
X204985437Y-87477126D02*
X205515767Y-86946796D01*
G75*
G02*
X205604155Y-86946796I44194J-44194D01*
G01*
X205692543Y-87035184D01*
G75*
G02*
X205692543Y-87123572I-44194J-44194D01*
G01*
X205162213Y-87653902D01*
G75*
G02*
X205073825Y-87653902I-44194J44194D01*
G01*
X204985437Y-87565514D01*
G75*
G02*
X204985437Y-87477126I44194J44194D01*
G01*
G37*
G36*
G01*
X204631884Y-87123573D02*
X205162214Y-86593243D01*
G75*
G02*
X205250602Y-86593243I44194J-44194D01*
G01*
X205338990Y-86681631D01*
G75*
G02*
X205338990Y-86770019I-44194J-44194D01*
G01*
X204808660Y-87300349D01*
G75*
G02*
X204720272Y-87300349I-44194J44194D01*
G01*
X204631884Y-87211961D01*
G75*
G02*
X204631884Y-87123573I44194J44194D01*
G01*
G37*
G36*
G01*
X204278331Y-86770020D02*
X204808661Y-86239690D01*
G75*
G02*
X204897049Y-86239690I44194J-44194D01*
G01*
X204985437Y-86328078D01*
G75*
G02*
X204985437Y-86416466I-44194J-44194D01*
G01*
X204455107Y-86946796D01*
G75*
G02*
X204366719Y-86946796I-44194J44194D01*
G01*
X204278331Y-86858408D01*
G75*
G02*
X204278331Y-86770020I44194J44194D01*
G01*
G37*
G36*
G01*
X203924777Y-86416466D02*
X204455107Y-85886136D01*
G75*
G02*
X204543495Y-85886136I44194J-44194D01*
G01*
X204631883Y-85974524D01*
G75*
G02*
X204631883Y-86062912I-44194J-44194D01*
G01*
X204101553Y-86593242D01*
G75*
G02*
X204013165Y-86593242I-44194J44194D01*
G01*
X203924777Y-86504854D01*
G75*
G02*
X203924777Y-86416466I44194J44194D01*
G01*
G37*
G36*
G01*
X203571224Y-86062913D02*
X204101554Y-85532583D01*
G75*
G02*
X204189942Y-85532583I44194J-44194D01*
G01*
X204278330Y-85620971D01*
G75*
G02*
X204278330Y-85709359I-44194J-44194D01*
G01*
X203748000Y-86239689D01*
G75*
G02*
X203659612Y-86239689I-44194J44194D01*
G01*
X203571224Y-86151301D01*
G75*
G02*
X203571224Y-86062913I44194J44194D01*
G01*
G37*
G36*
G01*
X203571224Y-84648699D02*
X203659612Y-84560311D01*
G75*
G02*
X203748000Y-84560311I44194J-44194D01*
G01*
X204278330Y-85090641D01*
G75*
G02*
X204278330Y-85179029I-44194J-44194D01*
G01*
X204189942Y-85267417D01*
G75*
G02*
X204101554Y-85267417I-44194J44194D01*
G01*
X203571224Y-84737087D01*
G75*
G02*
X203571224Y-84648699I44194J44194D01*
G01*
G37*
G36*
G01*
X203924777Y-84295146D02*
X204013165Y-84206758D01*
G75*
G02*
X204101553Y-84206758I44194J-44194D01*
G01*
X204631883Y-84737088D01*
G75*
G02*
X204631883Y-84825476I-44194J-44194D01*
G01*
X204543495Y-84913864D01*
G75*
G02*
X204455107Y-84913864I-44194J44194D01*
G01*
X203924777Y-84383534D01*
G75*
G02*
X203924777Y-84295146I44194J44194D01*
G01*
G37*
G36*
G01*
X204278331Y-83941592D02*
X204366719Y-83853204D01*
G75*
G02*
X204455107Y-83853204I44194J-44194D01*
G01*
X204985437Y-84383534D01*
G75*
G02*
X204985437Y-84471922I-44194J-44194D01*
G01*
X204897049Y-84560310D01*
G75*
G02*
X204808661Y-84560310I-44194J44194D01*
G01*
X204278331Y-84029980D01*
G75*
G02*
X204278331Y-83941592I44194J44194D01*
G01*
G37*
G36*
G01*
X204631884Y-83588039D02*
X204720272Y-83499651D01*
G75*
G02*
X204808660Y-83499651I44194J-44194D01*
G01*
X205338990Y-84029981D01*
G75*
G02*
X205338990Y-84118369I-44194J-44194D01*
G01*
X205250602Y-84206757D01*
G75*
G02*
X205162214Y-84206757I-44194J44194D01*
G01*
X204631884Y-83676427D01*
G75*
G02*
X204631884Y-83588039I44194J44194D01*
G01*
G37*
G36*
G01*
X204985437Y-83234486D02*
X205073825Y-83146098D01*
G75*
G02*
X205162213Y-83146098I44194J-44194D01*
G01*
X205692543Y-83676428D01*
G75*
G02*
X205692543Y-83764816I-44194J-44194D01*
G01*
X205604155Y-83853204D01*
G75*
G02*
X205515767Y-83853204I-44194J44194D01*
G01*
X204985437Y-83322874D01*
G75*
G02*
X204985437Y-83234486I44194J44194D01*
G01*
G37*
G36*
G01*
X205338991Y-82880932D02*
X205427379Y-82792544D01*
G75*
G02*
X205515767Y-82792544I44194J-44194D01*
G01*
X206046097Y-83322874D01*
G75*
G02*
X206046097Y-83411262I-44194J-44194D01*
G01*
X205957709Y-83499650D01*
G75*
G02*
X205869321Y-83499650I-44194J44194D01*
G01*
X205338991Y-82969320D01*
G75*
G02*
X205338991Y-82880932I44194J44194D01*
G01*
G37*
G36*
G01*
X205692544Y-82527379D02*
X205780932Y-82438991D01*
G75*
G02*
X205869320Y-82438991I44194J-44194D01*
G01*
X206399650Y-82969321D01*
G75*
G02*
X206399650Y-83057709I-44194J-44194D01*
G01*
X206311262Y-83146097D01*
G75*
G02*
X206222874Y-83146097I-44194J44194D01*
G01*
X205692544Y-82615767D01*
G75*
G02*
X205692544Y-82527379I44194J44194D01*
G01*
G37*
G36*
G01*
X206046098Y-82173825D02*
X206134486Y-82085437D01*
G75*
G02*
X206222874Y-82085437I44194J-44194D01*
G01*
X206753204Y-82615767D01*
G75*
G02*
X206753204Y-82704155I-44194J-44194D01*
G01*
X206664816Y-82792543D01*
G75*
G02*
X206576428Y-82792543I-44194J44194D01*
G01*
X206046098Y-82262213D01*
G75*
G02*
X206046098Y-82173825I44194J44194D01*
G01*
G37*
G36*
G01*
X206399651Y-81820272D02*
X206488039Y-81731884D01*
G75*
G02*
X206576427Y-81731884I44194J-44194D01*
G01*
X207106757Y-82262214D01*
G75*
G02*
X207106757Y-82350602I-44194J-44194D01*
G01*
X207018369Y-82438990D01*
G75*
G02*
X206929981Y-82438990I-44194J44194D01*
G01*
X206399651Y-81908660D01*
G75*
G02*
X206399651Y-81820272I44194J44194D01*
G01*
G37*
G36*
G01*
X206753204Y-81466719D02*
X206841592Y-81378331D01*
G75*
G02*
X206929980Y-81378331I44194J-44194D01*
G01*
X207460310Y-81908661D01*
G75*
G02*
X207460310Y-81997049I-44194J-44194D01*
G01*
X207371922Y-82085437D01*
G75*
G02*
X207283534Y-82085437I-44194J44194D01*
G01*
X206753204Y-81555107D01*
G75*
G02*
X206753204Y-81466719I44194J44194D01*
G01*
G37*
G36*
G01*
X207106758Y-81113165D02*
X207195146Y-81024777D01*
G75*
G02*
X207283534Y-81024777I44194J-44194D01*
G01*
X207813864Y-81555107D01*
G75*
G02*
X207813864Y-81643495I-44194J-44194D01*
G01*
X207725476Y-81731883D01*
G75*
G02*
X207637088Y-81731883I-44194J44194D01*
G01*
X207106758Y-81201553D01*
G75*
G02*
X207106758Y-81113165I44194J44194D01*
G01*
G37*
G36*
G01*
X207460311Y-80759612D02*
X207548699Y-80671224D01*
G75*
G02*
X207637087Y-80671224I44194J-44194D01*
G01*
X208167417Y-81201554D01*
G75*
G02*
X208167417Y-81289942I-44194J-44194D01*
G01*
X208079029Y-81378330D01*
G75*
G02*
X207990641Y-81378330I-44194J44194D01*
G01*
X207460311Y-80848000D01*
G75*
G02*
X207460311Y-80759612I44194J44194D01*
G01*
G37*
%TD*%
%TO.C,R59*%
G36*
G01*
X219835000Y-181640000D02*
X218585000Y-181640000D01*
G75*
G02*
X218335000Y-181390000I0J250000D01*
G01*
X218335000Y-180590000D01*
G75*
G02*
X218585000Y-180340000I250000J0D01*
G01*
X219835000Y-180340000D01*
G75*
G02*
X220085000Y-180590000I0J-250000D01*
G01*
X220085000Y-181390000D01*
G75*
G02*
X219835000Y-181640000I-250000J0D01*
G01*
G37*
G36*
G01*
X219835000Y-184740000D02*
X218585000Y-184740000D01*
G75*
G02*
X218335000Y-184490000I0J250000D01*
G01*
X218335000Y-183690000D01*
G75*
G02*
X218585000Y-183440000I250000J0D01*
G01*
X219835000Y-183440000D01*
G75*
G02*
X220085000Y-183690000I0J-250000D01*
G01*
X220085000Y-184490000D01*
G75*
G02*
X219835000Y-184740000I-250000J0D01*
G01*
G37*
%TD*%
%TO.C,U5*%
G36*
G01*
X206830000Y-181270000D02*
X206530000Y-181270000D01*
G75*
G02*
X206380000Y-181120000I0J150000D01*
G01*
X206380000Y-179470000D01*
G75*
G02*
X206530000Y-179320000I150000J0D01*
G01*
X206830000Y-179320000D01*
G75*
G02*
X206980000Y-179470000I0J-150000D01*
G01*
X206980000Y-181120000D01*
G75*
G02*
X206830000Y-181270000I-150000J0D01*
G01*
G37*
G36*
G01*
X208100000Y-181270000D02*
X207800000Y-181270000D01*
G75*
G02*
X207650000Y-181120000I0J150000D01*
G01*
X207650000Y-179470000D01*
G75*
G02*
X207800000Y-179320000I150000J0D01*
G01*
X208100000Y-179320000D01*
G75*
G02*
X208250000Y-179470000I0J-150000D01*
G01*
X208250000Y-181120000D01*
G75*
G02*
X208100000Y-181270000I-150000J0D01*
G01*
G37*
G36*
G01*
X209370000Y-181270000D02*
X209070000Y-181270000D01*
G75*
G02*
X208920000Y-181120000I0J150000D01*
G01*
X208920000Y-179470000D01*
G75*
G02*
X209070000Y-179320000I150000J0D01*
G01*
X209370000Y-179320000D01*
G75*
G02*
X209520000Y-179470000I0J-150000D01*
G01*
X209520000Y-181120000D01*
G75*
G02*
X209370000Y-181270000I-150000J0D01*
G01*
G37*
G36*
G01*
X210640000Y-181270000D02*
X210340000Y-181270000D01*
G75*
G02*
X210190000Y-181120000I0J150000D01*
G01*
X210190000Y-179470000D01*
G75*
G02*
X210340000Y-179320000I150000J0D01*
G01*
X210640000Y-179320000D01*
G75*
G02*
X210790000Y-179470000I0J-150000D01*
G01*
X210790000Y-181120000D01*
G75*
G02*
X210640000Y-181270000I-150000J0D01*
G01*
G37*
G36*
G01*
X211910000Y-181270000D02*
X211610000Y-181270000D01*
G75*
G02*
X211460000Y-181120000I0J150000D01*
G01*
X211460000Y-179470000D01*
G75*
G02*
X211610000Y-179320000I150000J0D01*
G01*
X211910000Y-179320000D01*
G75*
G02*
X212060000Y-179470000I0J-150000D01*
G01*
X212060000Y-181120000D01*
G75*
G02*
X211910000Y-181270000I-150000J0D01*
G01*
G37*
G36*
G01*
X213180000Y-181270000D02*
X212880000Y-181270000D01*
G75*
G02*
X212730000Y-181120000I0J150000D01*
G01*
X212730000Y-179470000D01*
G75*
G02*
X212880000Y-179320000I150000J0D01*
G01*
X213180000Y-179320000D01*
G75*
G02*
X213330000Y-179470000I0J-150000D01*
G01*
X213330000Y-181120000D01*
G75*
G02*
X213180000Y-181270000I-150000J0D01*
G01*
G37*
G36*
G01*
X214450000Y-181270000D02*
X214150000Y-181270000D01*
G75*
G02*
X214000000Y-181120000I0J150000D01*
G01*
X214000000Y-179470000D01*
G75*
G02*
X214150000Y-179320000I150000J0D01*
G01*
X214450000Y-179320000D01*
G75*
G02*
X214600000Y-179470000I0J-150000D01*
G01*
X214600000Y-181120000D01*
G75*
G02*
X214450000Y-181270000I-150000J0D01*
G01*
G37*
G36*
G01*
X214450000Y-186220000D02*
X214150000Y-186220000D01*
G75*
G02*
X214000000Y-186070000I0J150000D01*
G01*
X214000000Y-184420000D01*
G75*
G02*
X214150000Y-184270000I150000J0D01*
G01*
X214450000Y-184270000D01*
G75*
G02*
X214600000Y-184420000I0J-150000D01*
G01*
X214600000Y-186070000D01*
G75*
G02*
X214450000Y-186220000I-150000J0D01*
G01*
G37*
G36*
G01*
X213180000Y-186220000D02*
X212880000Y-186220000D01*
G75*
G02*
X212730000Y-186070000I0J150000D01*
G01*
X212730000Y-184420000D01*
G75*
G02*
X212880000Y-184270000I150000J0D01*
G01*
X213180000Y-184270000D01*
G75*
G02*
X213330000Y-184420000I0J-150000D01*
G01*
X213330000Y-186070000D01*
G75*
G02*
X213180000Y-186220000I-150000J0D01*
G01*
G37*
G36*
G01*
X211910000Y-186220000D02*
X211610000Y-186220000D01*
G75*
G02*
X211460000Y-186070000I0J150000D01*
G01*
X211460000Y-184420000D01*
G75*
G02*
X211610000Y-184270000I150000J0D01*
G01*
X211910000Y-184270000D01*
G75*
G02*
X212060000Y-184420000I0J-150000D01*
G01*
X212060000Y-186070000D01*
G75*
G02*
X211910000Y-186220000I-150000J0D01*
G01*
G37*
G36*
G01*
X210640000Y-186220000D02*
X210340000Y-186220000D01*
G75*
G02*
X210190000Y-186070000I0J150000D01*
G01*
X210190000Y-184420000D01*
G75*
G02*
X210340000Y-184270000I150000J0D01*
G01*
X210640000Y-184270000D01*
G75*
G02*
X210790000Y-184420000I0J-150000D01*
G01*
X210790000Y-186070000D01*
G75*
G02*
X210640000Y-186220000I-150000J0D01*
G01*
G37*
G36*
G01*
X209370000Y-186220000D02*
X209070000Y-186220000D01*
G75*
G02*
X208920000Y-186070000I0J150000D01*
G01*
X208920000Y-184420000D01*
G75*
G02*
X209070000Y-184270000I150000J0D01*
G01*
X209370000Y-184270000D01*
G75*
G02*
X209520000Y-184420000I0J-150000D01*
G01*
X209520000Y-186070000D01*
G75*
G02*
X209370000Y-186220000I-150000J0D01*
G01*
G37*
G36*
G01*
X208100000Y-186220000D02*
X207800000Y-186220000D01*
G75*
G02*
X207650000Y-186070000I0J150000D01*
G01*
X207650000Y-184420000D01*
G75*
G02*
X207800000Y-184270000I150000J0D01*
G01*
X208100000Y-184270000D01*
G75*
G02*
X208250000Y-184420000I0J-150000D01*
G01*
X208250000Y-186070000D01*
G75*
G02*
X208100000Y-186220000I-150000J0D01*
G01*
G37*
G36*
G01*
X206830000Y-186220000D02*
X206530000Y-186220000D01*
G75*
G02*
X206380000Y-186070000I0J150000D01*
G01*
X206380000Y-184420000D01*
G75*
G02*
X206530000Y-184270000I150000J0D01*
G01*
X206830000Y-184270000D01*
G75*
G02*
X206980000Y-184420000I0J-150000D01*
G01*
X206980000Y-186070000D01*
G75*
G02*
X206830000Y-186220000I-150000J0D01*
G01*
G37*
%TD*%
%TO.C,R60*%
G36*
G01*
X216125000Y-183470000D02*
X217375000Y-183470000D01*
G75*
G02*
X217625000Y-183720000I0J-250000D01*
G01*
X217625000Y-184520000D01*
G75*
G02*
X217375000Y-184770000I-250000J0D01*
G01*
X216125000Y-184770000D01*
G75*
G02*
X215875000Y-184520000I0J250000D01*
G01*
X215875000Y-183720000D01*
G75*
G02*
X216125000Y-183470000I250000J0D01*
G01*
G37*
G36*
G01*
X216125000Y-180370000D02*
X217375000Y-180370000D01*
G75*
G02*
X217625000Y-180620000I0J-250000D01*
G01*
X217625000Y-181420000D01*
G75*
G02*
X217375000Y-181670000I-250000J0D01*
G01*
X216125000Y-181670000D01*
G75*
G02*
X215875000Y-181420000I0J250000D01*
G01*
X215875000Y-180620000D01*
G75*
G02*
X216125000Y-180370000I250000J0D01*
G01*
G37*
%TD*%
D13*
%TO.C,Y1*%
X171050000Y-79227500D03*
X171050000Y-67352500D03*
%TD*%
D14*
%TO.C,U15*%
X151425000Y-69525000D03*
X154775000Y-66475000D03*
X151425000Y-66475000D03*
X154775000Y-69525000D03*
D15*
X146800000Y-70280000D03*
X146800000Y-65720000D03*
%TD*%
D16*
%TO.C,U13*%
X141850000Y-79700000D03*
X141850000Y-84300000D03*
X141850000Y-82000000D03*
D17*
X148150000Y-82000000D03*
%TD*%
%TO.C,U12*%
G36*
G01*
X164900000Y-68550000D02*
X165150000Y-68550000D01*
G75*
G02*
X165275000Y-68675000I0J-125000D01*
G01*
X165275000Y-70325000D01*
G75*
G02*
X165150000Y-70450000I-125000J0D01*
G01*
X164900000Y-70450000D01*
G75*
G02*
X164775000Y-70325000I0J125000D01*
G01*
X164775000Y-68675000D01*
G75*
G02*
X164900000Y-68550000I125000J0D01*
G01*
G37*
G36*
G01*
X164250000Y-68550000D02*
X164500000Y-68550000D01*
G75*
G02*
X164625000Y-68675000I0J-125000D01*
G01*
X164625000Y-70325000D01*
G75*
G02*
X164500000Y-70450000I-125000J0D01*
G01*
X164250000Y-70450000D01*
G75*
G02*
X164125000Y-70325000I0J125000D01*
G01*
X164125000Y-68675000D01*
G75*
G02*
X164250000Y-68550000I125000J0D01*
G01*
G37*
G36*
G01*
X163600000Y-68550000D02*
X163850000Y-68550000D01*
G75*
G02*
X163975000Y-68675000I0J-125000D01*
G01*
X163975000Y-70325000D01*
G75*
G02*
X163850000Y-70450000I-125000J0D01*
G01*
X163600000Y-70450000D01*
G75*
G02*
X163475000Y-70325000I0J125000D01*
G01*
X163475000Y-68675000D01*
G75*
G02*
X163600000Y-68550000I125000J0D01*
G01*
G37*
G36*
G01*
X162950000Y-68550000D02*
X163200000Y-68550000D01*
G75*
G02*
X163325000Y-68675000I0J-125000D01*
G01*
X163325000Y-70325000D01*
G75*
G02*
X163200000Y-70450000I-125000J0D01*
G01*
X162950000Y-70450000D01*
G75*
G02*
X162825000Y-70325000I0J125000D01*
G01*
X162825000Y-68675000D01*
G75*
G02*
X162950000Y-68550000I125000J0D01*
G01*
G37*
G36*
G01*
X162300000Y-68550000D02*
X162550000Y-68550000D01*
G75*
G02*
X162675000Y-68675000I0J-125000D01*
G01*
X162675000Y-70325000D01*
G75*
G02*
X162550000Y-70450000I-125000J0D01*
G01*
X162300000Y-70450000D01*
G75*
G02*
X162175000Y-70325000I0J125000D01*
G01*
X162175000Y-68675000D01*
G75*
G02*
X162300000Y-68550000I125000J0D01*
G01*
G37*
G36*
G01*
X161650000Y-68550000D02*
X161900000Y-68550000D01*
G75*
G02*
X162025000Y-68675000I0J-125000D01*
G01*
X162025000Y-70325000D01*
G75*
G02*
X161900000Y-70450000I-125000J0D01*
G01*
X161650000Y-70450000D01*
G75*
G02*
X161525000Y-70325000I0J125000D01*
G01*
X161525000Y-68675000D01*
G75*
G02*
X161650000Y-68550000I125000J0D01*
G01*
G37*
G36*
G01*
X161000000Y-68550000D02*
X161250000Y-68550000D01*
G75*
G02*
X161375000Y-68675000I0J-125000D01*
G01*
X161375000Y-70325000D01*
G75*
G02*
X161250000Y-70450000I-125000J0D01*
G01*
X161000000Y-70450000D01*
G75*
G02*
X160875000Y-70325000I0J125000D01*
G01*
X160875000Y-68675000D01*
G75*
G02*
X161000000Y-68550000I125000J0D01*
G01*
G37*
G36*
G01*
X160350000Y-68550000D02*
X160600000Y-68550000D01*
G75*
G02*
X160725000Y-68675000I0J-125000D01*
G01*
X160725000Y-70325000D01*
G75*
G02*
X160600000Y-70450000I-125000J0D01*
G01*
X160350000Y-70450000D01*
G75*
G02*
X160225000Y-70325000I0J125000D01*
G01*
X160225000Y-68675000D01*
G75*
G02*
X160350000Y-68550000I125000J0D01*
G01*
G37*
G36*
G01*
X159700000Y-68550000D02*
X159950000Y-68550000D01*
G75*
G02*
X160075000Y-68675000I0J-125000D01*
G01*
X160075000Y-70325000D01*
G75*
G02*
X159950000Y-70450000I-125000J0D01*
G01*
X159700000Y-70450000D01*
G75*
G02*
X159575000Y-70325000I0J125000D01*
G01*
X159575000Y-68675000D01*
G75*
G02*
X159700000Y-68550000I125000J0D01*
G01*
G37*
G36*
G01*
X159050000Y-68550000D02*
X159300000Y-68550000D01*
G75*
G02*
X159425000Y-68675000I0J-125000D01*
G01*
X159425000Y-70325000D01*
G75*
G02*
X159300000Y-70450000I-125000J0D01*
G01*
X159050000Y-70450000D01*
G75*
G02*
X158925000Y-70325000I0J125000D01*
G01*
X158925000Y-68675000D01*
G75*
G02*
X159050000Y-68550000I125000J0D01*
G01*
G37*
G36*
G01*
X159050000Y-61550000D02*
X159300000Y-61550000D01*
G75*
G02*
X159425000Y-61675000I0J-125000D01*
G01*
X159425000Y-63325000D01*
G75*
G02*
X159300000Y-63450000I-125000J0D01*
G01*
X159050000Y-63450000D01*
G75*
G02*
X158925000Y-63325000I0J125000D01*
G01*
X158925000Y-61675000D01*
G75*
G02*
X159050000Y-61550000I125000J0D01*
G01*
G37*
G36*
G01*
X159700000Y-61550000D02*
X159950000Y-61550000D01*
G75*
G02*
X160075000Y-61675000I0J-125000D01*
G01*
X160075000Y-63325000D01*
G75*
G02*
X159950000Y-63450000I-125000J0D01*
G01*
X159700000Y-63450000D01*
G75*
G02*
X159575000Y-63325000I0J125000D01*
G01*
X159575000Y-61675000D01*
G75*
G02*
X159700000Y-61550000I125000J0D01*
G01*
G37*
G36*
G01*
X160350000Y-61550000D02*
X160600000Y-61550000D01*
G75*
G02*
X160725000Y-61675000I0J-125000D01*
G01*
X160725000Y-63325000D01*
G75*
G02*
X160600000Y-63450000I-125000J0D01*
G01*
X160350000Y-63450000D01*
G75*
G02*
X160225000Y-63325000I0J125000D01*
G01*
X160225000Y-61675000D01*
G75*
G02*
X160350000Y-61550000I125000J0D01*
G01*
G37*
G36*
G01*
X161000000Y-61550000D02*
X161250000Y-61550000D01*
G75*
G02*
X161375000Y-61675000I0J-125000D01*
G01*
X161375000Y-63325000D01*
G75*
G02*
X161250000Y-63450000I-125000J0D01*
G01*
X161000000Y-63450000D01*
G75*
G02*
X160875000Y-63325000I0J125000D01*
G01*
X160875000Y-61675000D01*
G75*
G02*
X161000000Y-61550000I125000J0D01*
G01*
G37*
G36*
G01*
X161650000Y-61550000D02*
X161900000Y-61550000D01*
G75*
G02*
X162025000Y-61675000I0J-125000D01*
G01*
X162025000Y-63325000D01*
G75*
G02*
X161900000Y-63450000I-125000J0D01*
G01*
X161650000Y-63450000D01*
G75*
G02*
X161525000Y-63325000I0J125000D01*
G01*
X161525000Y-61675000D01*
G75*
G02*
X161650000Y-61550000I125000J0D01*
G01*
G37*
G36*
G01*
X162300000Y-61550000D02*
X162550000Y-61550000D01*
G75*
G02*
X162675000Y-61675000I0J-125000D01*
G01*
X162675000Y-63325000D01*
G75*
G02*
X162550000Y-63450000I-125000J0D01*
G01*
X162300000Y-63450000D01*
G75*
G02*
X162175000Y-63325000I0J125000D01*
G01*
X162175000Y-61675000D01*
G75*
G02*
X162300000Y-61550000I125000J0D01*
G01*
G37*
G36*
G01*
X162950000Y-61550000D02*
X163200000Y-61550000D01*
G75*
G02*
X163325000Y-61675000I0J-125000D01*
G01*
X163325000Y-63325000D01*
G75*
G02*
X163200000Y-63450000I-125000J0D01*
G01*
X162950000Y-63450000D01*
G75*
G02*
X162825000Y-63325000I0J125000D01*
G01*
X162825000Y-61675000D01*
G75*
G02*
X162950000Y-61550000I125000J0D01*
G01*
G37*
G36*
G01*
X163600000Y-61550000D02*
X163850000Y-61550000D01*
G75*
G02*
X163975000Y-61675000I0J-125000D01*
G01*
X163975000Y-63325000D01*
G75*
G02*
X163850000Y-63450000I-125000J0D01*
G01*
X163600000Y-63450000D01*
G75*
G02*
X163475000Y-63325000I0J125000D01*
G01*
X163475000Y-61675000D01*
G75*
G02*
X163600000Y-61550000I125000J0D01*
G01*
G37*
G36*
G01*
X164250000Y-61550000D02*
X164500000Y-61550000D01*
G75*
G02*
X164625000Y-61675000I0J-125000D01*
G01*
X164625000Y-63325000D01*
G75*
G02*
X164500000Y-63450000I-125000J0D01*
G01*
X164250000Y-63450000D01*
G75*
G02*
X164125000Y-63325000I0J125000D01*
G01*
X164125000Y-61675000D01*
G75*
G02*
X164250000Y-61550000I125000J0D01*
G01*
G37*
G36*
G01*
X164900000Y-61550000D02*
X165150000Y-61550000D01*
G75*
G02*
X165275000Y-61675000I0J-125000D01*
G01*
X165275000Y-63325000D01*
G75*
G02*
X165150000Y-63450000I-125000J0D01*
G01*
X164900000Y-63450000D01*
G75*
G02*
X164775000Y-63325000I0J125000D01*
G01*
X164775000Y-61675000D01*
G75*
G02*
X164900000Y-61550000I125000J0D01*
G01*
G37*
%TD*%
%TO.C,U9*%
G36*
G01*
X228400000Y-50340000D02*
X228400000Y-50040000D01*
G75*
G02*
X228550000Y-49890000I150000J0D01*
G01*
X230200000Y-49890000D01*
G75*
G02*
X230350000Y-50040000I0J-150000D01*
G01*
X230350000Y-50340000D01*
G75*
G02*
X230200000Y-50490000I-150000J0D01*
G01*
X228550000Y-50490000D01*
G75*
G02*
X228400000Y-50340000I0J150000D01*
G01*
G37*
G36*
G01*
X228400000Y-51610000D02*
X228400000Y-51310000D01*
G75*
G02*
X228550000Y-51160000I150000J0D01*
G01*
X230200000Y-51160000D01*
G75*
G02*
X230350000Y-51310000I0J-150000D01*
G01*
X230350000Y-51610000D01*
G75*
G02*
X230200000Y-51760000I-150000J0D01*
G01*
X228550000Y-51760000D01*
G75*
G02*
X228400000Y-51610000I0J150000D01*
G01*
G37*
G36*
G01*
X228400000Y-52880000D02*
X228400000Y-52580000D01*
G75*
G02*
X228550000Y-52430000I150000J0D01*
G01*
X230200000Y-52430000D01*
G75*
G02*
X230350000Y-52580000I0J-150000D01*
G01*
X230350000Y-52880000D01*
G75*
G02*
X230200000Y-53030000I-150000J0D01*
G01*
X228550000Y-53030000D01*
G75*
G02*
X228400000Y-52880000I0J150000D01*
G01*
G37*
G36*
G01*
X228400000Y-54150000D02*
X228400000Y-53850000D01*
G75*
G02*
X228550000Y-53700000I150000J0D01*
G01*
X230200000Y-53700000D01*
G75*
G02*
X230350000Y-53850000I0J-150000D01*
G01*
X230350000Y-54150000D01*
G75*
G02*
X230200000Y-54300000I-150000J0D01*
G01*
X228550000Y-54300000D01*
G75*
G02*
X228400000Y-54150000I0J150000D01*
G01*
G37*
G36*
G01*
X228400000Y-55420000D02*
X228400000Y-55120000D01*
G75*
G02*
X228550000Y-54970000I150000J0D01*
G01*
X230200000Y-54970000D01*
G75*
G02*
X230350000Y-55120000I0J-150000D01*
G01*
X230350000Y-55420000D01*
G75*
G02*
X230200000Y-55570000I-150000J0D01*
G01*
X228550000Y-55570000D01*
G75*
G02*
X228400000Y-55420000I0J150000D01*
G01*
G37*
G36*
G01*
X228400000Y-56690000D02*
X228400000Y-56390000D01*
G75*
G02*
X228550000Y-56240000I150000J0D01*
G01*
X230200000Y-56240000D01*
G75*
G02*
X230350000Y-56390000I0J-150000D01*
G01*
X230350000Y-56690000D01*
G75*
G02*
X230200000Y-56840000I-150000J0D01*
G01*
X228550000Y-56840000D01*
G75*
G02*
X228400000Y-56690000I0J150000D01*
G01*
G37*
G36*
G01*
X228400000Y-57960000D02*
X228400000Y-57660000D01*
G75*
G02*
X228550000Y-57510000I150000J0D01*
G01*
X230200000Y-57510000D01*
G75*
G02*
X230350000Y-57660000I0J-150000D01*
G01*
X230350000Y-57960000D01*
G75*
G02*
X230200000Y-58110000I-150000J0D01*
G01*
X228550000Y-58110000D01*
G75*
G02*
X228400000Y-57960000I0J150000D01*
G01*
G37*
G36*
G01*
X223450000Y-57960000D02*
X223450000Y-57660000D01*
G75*
G02*
X223600000Y-57510000I150000J0D01*
G01*
X225250000Y-57510000D01*
G75*
G02*
X225400000Y-57660000I0J-150000D01*
G01*
X225400000Y-57960000D01*
G75*
G02*
X225250000Y-58110000I-150000J0D01*
G01*
X223600000Y-58110000D01*
G75*
G02*
X223450000Y-57960000I0J150000D01*
G01*
G37*
G36*
G01*
X223450000Y-56690000D02*
X223450000Y-56390000D01*
G75*
G02*
X223600000Y-56240000I150000J0D01*
G01*
X225250000Y-56240000D01*
G75*
G02*
X225400000Y-56390000I0J-150000D01*
G01*
X225400000Y-56690000D01*
G75*
G02*
X225250000Y-56840000I-150000J0D01*
G01*
X223600000Y-56840000D01*
G75*
G02*
X223450000Y-56690000I0J150000D01*
G01*
G37*
G36*
G01*
X223450000Y-55420000D02*
X223450000Y-55120000D01*
G75*
G02*
X223600000Y-54970000I150000J0D01*
G01*
X225250000Y-54970000D01*
G75*
G02*
X225400000Y-55120000I0J-150000D01*
G01*
X225400000Y-55420000D01*
G75*
G02*
X225250000Y-55570000I-150000J0D01*
G01*
X223600000Y-55570000D01*
G75*
G02*
X223450000Y-55420000I0J150000D01*
G01*
G37*
G36*
G01*
X223450000Y-54150000D02*
X223450000Y-53850000D01*
G75*
G02*
X223600000Y-53700000I150000J0D01*
G01*
X225250000Y-53700000D01*
G75*
G02*
X225400000Y-53850000I0J-150000D01*
G01*
X225400000Y-54150000D01*
G75*
G02*
X225250000Y-54300000I-150000J0D01*
G01*
X223600000Y-54300000D01*
G75*
G02*
X223450000Y-54150000I0J150000D01*
G01*
G37*
G36*
G01*
X223450000Y-52880000D02*
X223450000Y-52580000D01*
G75*
G02*
X223600000Y-52430000I150000J0D01*
G01*
X225250000Y-52430000D01*
G75*
G02*
X225400000Y-52580000I0J-150000D01*
G01*
X225400000Y-52880000D01*
G75*
G02*
X225250000Y-53030000I-150000J0D01*
G01*
X223600000Y-53030000D01*
G75*
G02*
X223450000Y-52880000I0J150000D01*
G01*
G37*
G36*
G01*
X223450000Y-51610000D02*
X223450000Y-51310000D01*
G75*
G02*
X223600000Y-51160000I150000J0D01*
G01*
X225250000Y-51160000D01*
G75*
G02*
X225400000Y-51310000I0J-150000D01*
G01*
X225400000Y-51610000D01*
G75*
G02*
X225250000Y-51760000I-150000J0D01*
G01*
X223600000Y-51760000D01*
G75*
G02*
X223450000Y-51610000I0J150000D01*
G01*
G37*
G36*
G01*
X223450000Y-50340000D02*
X223450000Y-50040000D01*
G75*
G02*
X223600000Y-49890000I150000J0D01*
G01*
X225250000Y-49890000D01*
G75*
G02*
X225400000Y-50040000I0J-150000D01*
G01*
X225400000Y-50340000D01*
G75*
G02*
X225250000Y-50490000I-150000J0D01*
G01*
X223600000Y-50490000D01*
G75*
G02*
X223450000Y-50340000I0J150000D01*
G01*
G37*
%TD*%
D18*
%TO.C,SW2*%
X162150000Y-100455000D03*
X169750000Y-99185000D03*
X162150000Y-99185000D03*
X169750000Y-100455000D03*
%TD*%
D19*
%TO.C,SW1*%
X184850000Y-90025000D03*
X191350000Y-90025000D03*
%TD*%
%TO.C,R55*%
G36*
G01*
X162250000Y-96705000D02*
X162250000Y-95455000D01*
G75*
G02*
X162500000Y-95205000I250000J0D01*
G01*
X163300000Y-95205000D01*
G75*
G02*
X163550000Y-95455000I0J-250000D01*
G01*
X163550000Y-96705000D01*
G75*
G02*
X163300000Y-96955000I-250000J0D01*
G01*
X162500000Y-96955000D01*
G75*
G02*
X162250000Y-96705000I0J250000D01*
G01*
G37*
G36*
G01*
X159150000Y-96705000D02*
X159150000Y-95455000D01*
G75*
G02*
X159400000Y-95205000I250000J0D01*
G01*
X160200000Y-95205000D01*
G75*
G02*
X160450000Y-95455000I0J-250000D01*
G01*
X160450000Y-96705000D01*
G75*
G02*
X160200000Y-96955000I-250000J0D01*
G01*
X159400000Y-96955000D01*
G75*
G02*
X159150000Y-96705000I0J250000D01*
G01*
G37*
%TD*%
%TO.C,R54*%
G36*
G01*
X173000000Y-97165000D02*
X173000000Y-98415000D01*
G75*
G02*
X172750000Y-98665000I-250000J0D01*
G01*
X171950000Y-98665000D01*
G75*
G02*
X171700000Y-98415000I0J250000D01*
G01*
X171700000Y-97165000D01*
G75*
G02*
X171950000Y-96915000I250000J0D01*
G01*
X172750000Y-96915000D01*
G75*
G02*
X173000000Y-97165000I0J-250000D01*
G01*
G37*
G36*
G01*
X176100000Y-97165000D02*
X176100000Y-98415000D01*
G75*
G02*
X175850000Y-98665000I-250000J0D01*
G01*
X175050000Y-98665000D01*
G75*
G02*
X174800000Y-98415000I0J250000D01*
G01*
X174800000Y-97165000D01*
G75*
G02*
X175050000Y-96915000I250000J0D01*
G01*
X175850000Y-96915000D01*
G75*
G02*
X176100000Y-97165000I0J-250000D01*
G01*
G37*
%TD*%
%TO.C,R53*%
G36*
G01*
X154690000Y-94615000D02*
X154690000Y-95865000D01*
G75*
G02*
X154440000Y-96115000I-250000J0D01*
G01*
X153640000Y-96115000D01*
G75*
G02*
X153390000Y-95865000I0J250000D01*
G01*
X153390000Y-94615000D01*
G75*
G02*
X153640000Y-94365000I250000J0D01*
G01*
X154440000Y-94365000D01*
G75*
G02*
X154690000Y-94615000I0J-250000D01*
G01*
G37*
G36*
G01*
X157790000Y-94615000D02*
X157790000Y-95865000D01*
G75*
G02*
X157540000Y-96115000I-250000J0D01*
G01*
X156740000Y-96115000D01*
G75*
G02*
X156490000Y-95865000I0J250000D01*
G01*
X156490000Y-94615000D01*
G75*
G02*
X156740000Y-94365000I250000J0D01*
G01*
X157540000Y-94365000D01*
G75*
G02*
X157790000Y-94615000I0J-250000D01*
G01*
G37*
%TD*%
%TO.C,R52*%
G36*
G01*
X162240000Y-92965000D02*
X162240000Y-91715000D01*
G75*
G02*
X162490000Y-91465000I250000J0D01*
G01*
X163290000Y-91465000D01*
G75*
G02*
X163540000Y-91715000I0J-250000D01*
G01*
X163540000Y-92965000D01*
G75*
G02*
X163290000Y-93215000I-250000J0D01*
G01*
X162490000Y-93215000D01*
G75*
G02*
X162240000Y-92965000I0J250000D01*
G01*
G37*
G36*
G01*
X159140000Y-92965000D02*
X159140000Y-91715000D01*
G75*
G02*
X159390000Y-91465000I250000J0D01*
G01*
X160190000Y-91465000D01*
G75*
G02*
X160440000Y-91715000I0J-250000D01*
G01*
X160440000Y-92965000D01*
G75*
G02*
X160190000Y-93215000I-250000J0D01*
G01*
X159390000Y-93215000D01*
G75*
G02*
X159140000Y-92965000I0J250000D01*
G01*
G37*
%TD*%
%TO.C,R51*%
G36*
G01*
X155600000Y-55875000D02*
X155600000Y-57125000D01*
G75*
G02*
X155350000Y-57375000I-250000J0D01*
G01*
X154550000Y-57375000D01*
G75*
G02*
X154300000Y-57125000I0J250000D01*
G01*
X154300000Y-55875000D01*
G75*
G02*
X154550000Y-55625000I250000J0D01*
G01*
X155350000Y-55625000D01*
G75*
G02*
X155600000Y-55875000I0J-250000D01*
G01*
G37*
G36*
G01*
X158700000Y-55875000D02*
X158700000Y-57125000D01*
G75*
G02*
X158450000Y-57375000I-250000J0D01*
G01*
X157650000Y-57375000D01*
G75*
G02*
X157400000Y-57125000I0J250000D01*
G01*
X157400000Y-55875000D01*
G75*
G02*
X157650000Y-55625000I250000J0D01*
G01*
X158450000Y-55625000D01*
G75*
G02*
X158700000Y-55875000I0J-250000D01*
G01*
G37*
%TD*%
%TO.C,R50*%
G36*
G01*
X165900000Y-57125000D02*
X165900000Y-55875000D01*
G75*
G02*
X166150000Y-55625000I250000J0D01*
G01*
X166950000Y-55625000D01*
G75*
G02*
X167200000Y-55875000I0J-250000D01*
G01*
X167200000Y-57125000D01*
G75*
G02*
X166950000Y-57375000I-250000J0D01*
G01*
X166150000Y-57375000D01*
G75*
G02*
X165900000Y-57125000I0J250000D01*
G01*
G37*
G36*
G01*
X162800000Y-57125000D02*
X162800000Y-55875000D01*
G75*
G02*
X163050000Y-55625000I250000J0D01*
G01*
X163850000Y-55625000D01*
G75*
G02*
X164100000Y-55875000I0J-250000D01*
G01*
X164100000Y-57125000D01*
G75*
G02*
X163850000Y-57375000I-250000J0D01*
G01*
X163050000Y-57375000D01*
G75*
G02*
X162800000Y-57125000I0J250000D01*
G01*
G37*
%TD*%
%TO.C,R48*%
G36*
G01*
X166430000Y-74005000D02*
X166430000Y-72755000D01*
G75*
G02*
X166680000Y-72505000I250000J0D01*
G01*
X167480000Y-72505000D01*
G75*
G02*
X167730000Y-72755000I0J-250000D01*
G01*
X167730000Y-74005000D01*
G75*
G02*
X167480000Y-74255000I-250000J0D01*
G01*
X166680000Y-74255000D01*
G75*
G02*
X166430000Y-74005000I0J250000D01*
G01*
G37*
G36*
G01*
X163330000Y-74005000D02*
X163330000Y-72755000D01*
G75*
G02*
X163580000Y-72505000I250000J0D01*
G01*
X164380000Y-72505000D01*
G75*
G02*
X164630000Y-72755000I0J-250000D01*
G01*
X164630000Y-74005000D01*
G75*
G02*
X164380000Y-74255000I-250000J0D01*
G01*
X163580000Y-74255000D01*
G75*
G02*
X163330000Y-74005000I0J250000D01*
G01*
G37*
%TD*%
%TO.C,R47*%
G36*
G01*
X161030000Y-74025000D02*
X161030000Y-72775000D01*
G75*
G02*
X161280000Y-72525000I250000J0D01*
G01*
X162080000Y-72525000D01*
G75*
G02*
X162330000Y-72775000I0J-250000D01*
G01*
X162330000Y-74025000D01*
G75*
G02*
X162080000Y-74275000I-250000J0D01*
G01*
X161280000Y-74275000D01*
G75*
G02*
X161030000Y-74025000I0J250000D01*
G01*
G37*
G36*
G01*
X157930000Y-74025000D02*
X157930000Y-72775000D01*
G75*
G02*
X158180000Y-72525000I250000J0D01*
G01*
X158980000Y-72525000D01*
G75*
G02*
X159230000Y-72775000I0J-250000D01*
G01*
X159230000Y-74025000D01*
G75*
G02*
X158980000Y-74275000I-250000J0D01*
G01*
X158180000Y-74275000D01*
G75*
G02*
X157930000Y-74025000I0J250000D01*
G01*
G37*
%TD*%
%TO.C,R46*%
G36*
G01*
X229300000Y-79375000D02*
X229300000Y-80625000D01*
G75*
G02*
X229050000Y-80875000I-250000J0D01*
G01*
X228250000Y-80875000D01*
G75*
G02*
X228000000Y-80625000I0J250000D01*
G01*
X228000000Y-79375000D01*
G75*
G02*
X228250000Y-79125000I250000J0D01*
G01*
X229050000Y-79125000D01*
G75*
G02*
X229300000Y-79375000I0J-250000D01*
G01*
G37*
G36*
G01*
X232400000Y-79375000D02*
X232400000Y-80625000D01*
G75*
G02*
X232150000Y-80875000I-250000J0D01*
G01*
X231350000Y-80875000D01*
G75*
G02*
X231100000Y-80625000I0J250000D01*
G01*
X231100000Y-79375000D01*
G75*
G02*
X231350000Y-79125000I250000J0D01*
G01*
X232150000Y-79125000D01*
G75*
G02*
X232400000Y-79375000I0J-250000D01*
G01*
G37*
%TD*%
%TO.C,R44*%
G36*
G01*
X234525000Y-67000000D02*
X234525000Y-68250000D01*
G75*
G02*
X234275000Y-68500000I-250000J0D01*
G01*
X233475000Y-68500000D01*
G75*
G02*
X233225000Y-68250000I0J250000D01*
G01*
X233225000Y-67000000D01*
G75*
G02*
X233475000Y-66750000I250000J0D01*
G01*
X234275000Y-66750000D01*
G75*
G02*
X234525000Y-67000000I0J-250000D01*
G01*
G37*
G36*
G01*
X237625000Y-67000000D02*
X237625000Y-68250000D01*
G75*
G02*
X237375000Y-68500000I-250000J0D01*
G01*
X236575000Y-68500000D01*
G75*
G02*
X236325000Y-68250000I0J250000D01*
G01*
X236325000Y-67000000D01*
G75*
G02*
X236575000Y-66750000I250000J0D01*
G01*
X237375000Y-66750000D01*
G75*
G02*
X237625000Y-67000000I0J-250000D01*
G01*
G37*
%TD*%
%TO.C,R43*%
G36*
G01*
X234525000Y-63350000D02*
X234525000Y-64600000D01*
G75*
G02*
X234275000Y-64850000I-250000J0D01*
G01*
X233475000Y-64850000D01*
G75*
G02*
X233225000Y-64600000I0J250000D01*
G01*
X233225000Y-63350000D01*
G75*
G02*
X233475000Y-63100000I250000J0D01*
G01*
X234275000Y-63100000D01*
G75*
G02*
X234525000Y-63350000I0J-250000D01*
G01*
G37*
G36*
G01*
X237625000Y-63350000D02*
X237625000Y-64600000D01*
G75*
G02*
X237375000Y-64850000I-250000J0D01*
G01*
X236575000Y-64850000D01*
G75*
G02*
X236325000Y-64600000I0J250000D01*
G01*
X236325000Y-63350000D01*
G75*
G02*
X236575000Y-63100000I250000J0D01*
G01*
X237375000Y-63100000D01*
G75*
G02*
X237625000Y-63350000I0J-250000D01*
G01*
G37*
%TD*%
%TO.C,R41*%
G36*
G01*
X273800000Y-71250000D02*
X272550000Y-71250000D01*
G75*
G02*
X272300000Y-71000000I0J250000D01*
G01*
X272300000Y-70200000D01*
G75*
G02*
X272550000Y-69950000I250000J0D01*
G01*
X273800000Y-69950000D01*
G75*
G02*
X274050000Y-70200000I0J-250000D01*
G01*
X274050000Y-71000000D01*
G75*
G02*
X273800000Y-71250000I-250000J0D01*
G01*
G37*
G36*
G01*
X273800000Y-74350000D02*
X272550000Y-74350000D01*
G75*
G02*
X272300000Y-74100000I0J250000D01*
G01*
X272300000Y-73300000D01*
G75*
G02*
X272550000Y-73050000I250000J0D01*
G01*
X273800000Y-73050000D01*
G75*
G02*
X274050000Y-73300000I0J-250000D01*
G01*
X274050000Y-74100000D01*
G75*
G02*
X273800000Y-74350000I-250000J0D01*
G01*
G37*
%TD*%
%TO.C,R40*%
G36*
G01*
X271275000Y-71275000D02*
X270025000Y-71275000D01*
G75*
G02*
X269775000Y-71025000I0J250000D01*
G01*
X269775000Y-70225000D01*
G75*
G02*
X270025000Y-69975000I250000J0D01*
G01*
X271275000Y-69975000D01*
G75*
G02*
X271525000Y-70225000I0J-250000D01*
G01*
X271525000Y-71025000D01*
G75*
G02*
X271275000Y-71275000I-250000J0D01*
G01*
G37*
G36*
G01*
X271275000Y-74375000D02*
X270025000Y-74375000D01*
G75*
G02*
X269775000Y-74125000I0J250000D01*
G01*
X269775000Y-73325000D01*
G75*
G02*
X270025000Y-73075000I250000J0D01*
G01*
X271275000Y-73075000D01*
G75*
G02*
X271525000Y-73325000I0J-250000D01*
G01*
X271525000Y-74125000D01*
G75*
G02*
X271275000Y-74375000I-250000J0D01*
G01*
G37*
%TD*%
%TO.C,R39*%
G36*
G01*
X268775000Y-71250000D02*
X267525000Y-71250000D01*
G75*
G02*
X267275000Y-71000000I0J250000D01*
G01*
X267275000Y-70200000D01*
G75*
G02*
X267525000Y-69950000I250000J0D01*
G01*
X268775000Y-69950000D01*
G75*
G02*
X269025000Y-70200000I0J-250000D01*
G01*
X269025000Y-71000000D01*
G75*
G02*
X268775000Y-71250000I-250000J0D01*
G01*
G37*
G36*
G01*
X268775000Y-74350000D02*
X267525000Y-74350000D01*
G75*
G02*
X267275000Y-74100000I0J250000D01*
G01*
X267275000Y-73300000D01*
G75*
G02*
X267525000Y-73050000I250000J0D01*
G01*
X268775000Y-73050000D01*
G75*
G02*
X269025000Y-73300000I0J-250000D01*
G01*
X269025000Y-74100000D01*
G75*
G02*
X268775000Y-74350000I-250000J0D01*
G01*
G37*
%TD*%
%TO.C,R38*%
G36*
G01*
X266275000Y-71225000D02*
X265025000Y-71225000D01*
G75*
G02*
X264775000Y-70975000I0J250000D01*
G01*
X264775000Y-70175000D01*
G75*
G02*
X265025000Y-69925000I250000J0D01*
G01*
X266275000Y-69925000D01*
G75*
G02*
X266525000Y-70175000I0J-250000D01*
G01*
X266525000Y-70975000D01*
G75*
G02*
X266275000Y-71225000I-250000J0D01*
G01*
G37*
G36*
G01*
X266275000Y-74325000D02*
X265025000Y-74325000D01*
G75*
G02*
X264775000Y-74075000I0J250000D01*
G01*
X264775000Y-73275000D01*
G75*
G02*
X265025000Y-73025000I250000J0D01*
G01*
X266275000Y-73025000D01*
G75*
G02*
X266525000Y-73275000I0J-250000D01*
G01*
X266525000Y-74075000D01*
G75*
G02*
X266275000Y-74325000I-250000J0D01*
G01*
G37*
%TD*%
%TO.C,R37*%
G36*
G01*
X263875000Y-71225000D02*
X262625000Y-71225000D01*
G75*
G02*
X262375000Y-70975000I0J250000D01*
G01*
X262375000Y-70175000D01*
G75*
G02*
X262625000Y-69925000I250000J0D01*
G01*
X263875000Y-69925000D01*
G75*
G02*
X264125000Y-70175000I0J-250000D01*
G01*
X264125000Y-70975000D01*
G75*
G02*
X263875000Y-71225000I-250000J0D01*
G01*
G37*
G36*
G01*
X263875000Y-74325000D02*
X262625000Y-74325000D01*
G75*
G02*
X262375000Y-74075000I0J250000D01*
G01*
X262375000Y-73275000D01*
G75*
G02*
X262625000Y-73025000I250000J0D01*
G01*
X263875000Y-73025000D01*
G75*
G02*
X264125000Y-73275000I0J-250000D01*
G01*
X264125000Y-74075000D01*
G75*
G02*
X263875000Y-74325000I-250000J0D01*
G01*
G37*
%TD*%
%TO.C,R34*%
G36*
G01*
X271305000Y-125450000D02*
X270055000Y-125450000D01*
G75*
G02*
X269805000Y-125200000I0J250000D01*
G01*
X269805000Y-124400000D01*
G75*
G02*
X270055000Y-124150000I250000J0D01*
G01*
X271305000Y-124150000D01*
G75*
G02*
X271555000Y-124400000I0J-250000D01*
G01*
X271555000Y-125200000D01*
G75*
G02*
X271305000Y-125450000I-250000J0D01*
G01*
G37*
G36*
G01*
X271305000Y-128550000D02*
X270055000Y-128550000D01*
G75*
G02*
X269805000Y-128300000I0J250000D01*
G01*
X269805000Y-127500000D01*
G75*
G02*
X270055000Y-127250000I250000J0D01*
G01*
X271305000Y-127250000D01*
G75*
G02*
X271555000Y-127500000I0J-250000D01*
G01*
X271555000Y-128300000D01*
G75*
G02*
X271305000Y-128550000I-250000J0D01*
G01*
G37*
%TD*%
%TO.C,R33*%
G36*
G01*
X263605000Y-127270000D02*
X264855000Y-127270000D01*
G75*
G02*
X265105000Y-127520000I0J-250000D01*
G01*
X265105000Y-128320000D01*
G75*
G02*
X264855000Y-128570000I-250000J0D01*
G01*
X263605000Y-128570000D01*
G75*
G02*
X263355000Y-128320000I0J250000D01*
G01*
X263355000Y-127520000D01*
G75*
G02*
X263605000Y-127270000I250000J0D01*
G01*
G37*
G36*
G01*
X263605000Y-124170000D02*
X264855000Y-124170000D01*
G75*
G02*
X265105000Y-124420000I0J-250000D01*
G01*
X265105000Y-125220000D01*
G75*
G02*
X264855000Y-125470000I-250000J0D01*
G01*
X263605000Y-125470000D01*
G75*
G02*
X263355000Y-125220000I0J250000D01*
G01*
X263355000Y-124420000D01*
G75*
G02*
X263605000Y-124170000I250000J0D01*
G01*
G37*
%TD*%
%TO.C,R32*%
G36*
G01*
X261000000Y-118775000D02*
X261000000Y-120025000D01*
G75*
G02*
X260750000Y-120275000I-250000J0D01*
G01*
X259950000Y-120275000D01*
G75*
G02*
X259700000Y-120025000I0J250000D01*
G01*
X259700000Y-118775000D01*
G75*
G02*
X259950000Y-118525000I250000J0D01*
G01*
X260750000Y-118525000D01*
G75*
G02*
X261000000Y-118775000I0J-250000D01*
G01*
G37*
G36*
G01*
X264100000Y-118775000D02*
X264100000Y-120025000D01*
G75*
G02*
X263850000Y-120275000I-250000J0D01*
G01*
X263050000Y-120275000D01*
G75*
G02*
X262800000Y-120025000I0J250000D01*
G01*
X262800000Y-118775000D01*
G75*
G02*
X263050000Y-118525000I250000J0D01*
G01*
X263850000Y-118525000D01*
G75*
G02*
X264100000Y-118775000I0J-250000D01*
G01*
G37*
%TD*%
%TO.C,R31*%
G36*
G01*
X187160000Y-85855000D02*
X187160000Y-87105000D01*
G75*
G02*
X186910000Y-87355000I-250000J0D01*
G01*
X186110000Y-87355000D01*
G75*
G02*
X185860000Y-87105000I0J250000D01*
G01*
X185860000Y-85855000D01*
G75*
G02*
X186110000Y-85605000I250000J0D01*
G01*
X186910000Y-85605000D01*
G75*
G02*
X187160000Y-85855000I0J-250000D01*
G01*
G37*
G36*
G01*
X190260000Y-85855000D02*
X190260000Y-87105000D01*
G75*
G02*
X190010000Y-87355000I-250000J0D01*
G01*
X189210000Y-87355000D01*
G75*
G02*
X188960000Y-87105000I0J250000D01*
G01*
X188960000Y-85855000D01*
G75*
G02*
X189210000Y-85605000I250000J0D01*
G01*
X190010000Y-85605000D01*
G75*
G02*
X190260000Y-85855000I0J-250000D01*
G01*
G37*
%TD*%
D20*
%TO.C,Q4*%
X172360000Y-95650000D03*
X171410000Y-93650000D03*
X173310000Y-93650000D03*
%TD*%
%TO.C,Q3*%
X167020000Y-95690000D03*
X166070000Y-93690000D03*
X167970000Y-93690000D03*
%TD*%
%TO.C,Q2*%
X267440000Y-124680000D03*
X268390000Y-126680000D03*
X266490000Y-126680000D03*
%TD*%
%TO.C,LD1*%
G36*
G01*
X261155000Y-122365000D02*
X259905000Y-122365000D01*
G75*
G02*
X259655000Y-122115000I0J250000D01*
G01*
X259655000Y-121190000D01*
G75*
G02*
X259905000Y-120940000I250000J0D01*
G01*
X261155000Y-120940000D01*
G75*
G02*
X261405000Y-121190000I0J-250000D01*
G01*
X261405000Y-122115000D01*
G75*
G02*
X261155000Y-122365000I-250000J0D01*
G01*
G37*
G36*
G01*
X261155000Y-125340000D02*
X259905000Y-125340000D01*
G75*
G02*
X259655000Y-125090000I0J250000D01*
G01*
X259655000Y-124165000D01*
G75*
G02*
X259905000Y-123915000I250000J0D01*
G01*
X261155000Y-123915000D01*
G75*
G02*
X261405000Y-124165000I0J-250000D01*
G01*
X261405000Y-125090000D01*
G75*
G02*
X261155000Y-125340000I-250000J0D01*
G01*
G37*
%TD*%
%TO.C,L1*%
G36*
G01*
X231825000Y-119315000D02*
X231825000Y-118065000D01*
G75*
G02*
X232075000Y-117815000I250000J0D01*
G01*
X233000000Y-117815000D01*
G75*
G02*
X233250000Y-118065000I0J-250000D01*
G01*
X233250000Y-119315000D01*
G75*
G02*
X233000000Y-119565000I-250000J0D01*
G01*
X232075000Y-119565000D01*
G75*
G02*
X231825000Y-119315000I0J250000D01*
G01*
G37*
G36*
G01*
X228850000Y-119315000D02*
X228850000Y-118065000D01*
G75*
G02*
X229100000Y-117815000I250000J0D01*
G01*
X230025000Y-117815000D01*
G75*
G02*
X230275000Y-118065000I0J-250000D01*
G01*
X230275000Y-119315000D01*
G75*
G02*
X230025000Y-119565000I-250000J0D01*
G01*
X229100000Y-119565000D01*
G75*
G02*
X228850000Y-119315000I0J250000D01*
G01*
G37*
%TD*%
D21*
%TO.C,J5*%
X147000000Y-59000000D03*
X147000000Y-52900000D03*
X135600000Y-52900000D03*
X135600000Y-59000000D03*
%TD*%
D22*
%TO.C,J4*%
X159100000Y-49400000D03*
X161900000Y-49400000D03*
D23*
X159250000Y-53600000D03*
X159750000Y-53600000D03*
X160250000Y-53600000D03*
X160750000Y-53600000D03*
X161250000Y-53600000D03*
X161750000Y-53600000D03*
X158750000Y-53600000D03*
X162250000Y-53600000D03*
D24*
X158150000Y-53600000D03*
X162850000Y-53600000D03*
X157400000Y-53600000D03*
X163600000Y-53600000D03*
%TD*%
D25*
%TO.C,J3*%
X247225000Y-64175000D03*
X248325000Y-64175000D03*
X249425000Y-64175000D03*
X250525000Y-64175000D03*
X251625000Y-64175000D03*
X252725000Y-64175000D03*
X253825000Y-64175000D03*
X254925000Y-64175000D03*
X255875000Y-64175000D03*
D26*
X245675000Y-64175000D03*
X256825000Y-59875000D03*
D27*
X256825000Y-53675000D03*
D28*
X256825000Y-49525000D03*
D29*
X243325000Y-49075000D03*
%TD*%
D30*
%TO.C,D4*%
X159350000Y-78250000D03*
X159350000Y-87050000D03*
%TD*%
D31*
%TO.C,D3*%
X175680000Y-88600000D03*
X166880000Y-88600000D03*
%TD*%
%TO.C,C52*%
G36*
G01*
X258799999Y-57100000D02*
X260100001Y-57100000D01*
G75*
G02*
X260350000Y-57349999I0J-249999D01*
G01*
X260350000Y-58175001D01*
G75*
G02*
X260100001Y-58425000I-249999J0D01*
G01*
X258799999Y-58425000D01*
G75*
G02*
X258550000Y-58175001I0J249999D01*
G01*
X258550000Y-57349999D01*
G75*
G02*
X258799999Y-57100000I249999J0D01*
G01*
G37*
G36*
G01*
X258799999Y-53975000D02*
X260100001Y-53975000D01*
G75*
G02*
X260350000Y-54224999I0J-249999D01*
G01*
X260350000Y-55050001D01*
G75*
G02*
X260100001Y-55300000I-249999J0D01*
G01*
X258799999Y-55300000D01*
G75*
G02*
X258550000Y-55050001I0J249999D01*
G01*
X258550000Y-54224999D01*
G75*
G02*
X258799999Y-53975000I249999J0D01*
G01*
G37*
%TD*%
%TO.C,C51*%
G36*
G01*
X141125000Y-92075000D02*
X141125000Y-93925000D01*
G75*
G02*
X140875000Y-94175000I-250000J0D01*
G01*
X139875000Y-94175000D01*
G75*
G02*
X139625000Y-93925000I0J250000D01*
G01*
X139625000Y-92075000D01*
G75*
G02*
X139875000Y-91825000I250000J0D01*
G01*
X140875000Y-91825000D01*
G75*
G02*
X141125000Y-92075000I0J-250000D01*
G01*
G37*
G36*
G01*
X144375000Y-92075000D02*
X144375000Y-93925000D01*
G75*
G02*
X144125000Y-94175000I-250000J0D01*
G01*
X143125000Y-94175000D01*
G75*
G02*
X142875000Y-93925000I0J250000D01*
G01*
X142875000Y-92075000D01*
G75*
G02*
X143125000Y-91825000I250000J0D01*
G01*
X144125000Y-91825000D01*
G75*
G02*
X144375000Y-92075000I0J-250000D01*
G01*
G37*
%TD*%
%TO.C,C50*%
G36*
G01*
X137650001Y-89100000D02*
X136349999Y-89100000D01*
G75*
G02*
X136100000Y-88850001I0J249999D01*
G01*
X136100000Y-88024999D01*
G75*
G02*
X136349999Y-87775000I249999J0D01*
G01*
X137650001Y-87775000D01*
G75*
G02*
X137900000Y-88024999I0J-249999D01*
G01*
X137900000Y-88850001D01*
G75*
G02*
X137650001Y-89100000I-249999J0D01*
G01*
G37*
G36*
G01*
X137650001Y-92225000D02*
X136349999Y-92225000D01*
G75*
G02*
X136100000Y-91975001I0J249999D01*
G01*
X136100000Y-91149999D01*
G75*
G02*
X136349999Y-90900000I249999J0D01*
G01*
X137650001Y-90900000D01*
G75*
G02*
X137900000Y-91149999I0J-249999D01*
G01*
X137900000Y-91975001D01*
G75*
G02*
X137650001Y-92225000I-249999J0D01*
G01*
G37*
%TD*%
%TO.C,C49*%
G36*
G01*
X148900000Y-75650001D02*
X148900000Y-74349999D01*
G75*
G02*
X149149999Y-74100000I249999J0D01*
G01*
X149975001Y-74100000D01*
G75*
G02*
X150225000Y-74349999I0J-249999D01*
G01*
X150225000Y-75650001D01*
G75*
G02*
X149975001Y-75900000I-249999J0D01*
G01*
X149149999Y-75900000D01*
G75*
G02*
X148900000Y-75650001I0J249999D01*
G01*
G37*
G36*
G01*
X145775000Y-75650001D02*
X145775000Y-74349999D01*
G75*
G02*
X146024999Y-74100000I249999J0D01*
G01*
X146850001Y-74100000D01*
G75*
G02*
X147100000Y-74349999I0J-249999D01*
G01*
X147100000Y-75650001D01*
G75*
G02*
X146850001Y-75900000I-249999J0D01*
G01*
X146024999Y-75900000D01*
G75*
G02*
X145775000Y-75650001I0J249999D01*
G01*
G37*
%TD*%
%TO.C,C48*%
G36*
G01*
X140125000Y-69075000D02*
X140125000Y-70925000D01*
G75*
G02*
X139875000Y-71175000I-250000J0D01*
G01*
X138875000Y-71175000D01*
G75*
G02*
X138625000Y-70925000I0J250000D01*
G01*
X138625000Y-69075000D01*
G75*
G02*
X138875000Y-68825000I250000J0D01*
G01*
X139875000Y-68825000D01*
G75*
G02*
X140125000Y-69075000I0J-250000D01*
G01*
G37*
G36*
G01*
X143375000Y-69075000D02*
X143375000Y-70925000D01*
G75*
G02*
X143125000Y-71175000I-250000J0D01*
G01*
X142125000Y-71175000D01*
G75*
G02*
X141875000Y-70925000I0J250000D01*
G01*
X141875000Y-69075000D01*
G75*
G02*
X142125000Y-68825000I250000J0D01*
G01*
X143125000Y-68825000D01*
G75*
G02*
X143375000Y-69075000I0J-250000D01*
G01*
G37*
%TD*%
%TO.C,C47*%
G36*
G01*
X140125000Y-64075000D02*
X140125000Y-65925000D01*
G75*
G02*
X139875000Y-66175000I-250000J0D01*
G01*
X138875000Y-66175000D01*
G75*
G02*
X138625000Y-65925000I0J250000D01*
G01*
X138625000Y-64075000D01*
G75*
G02*
X138875000Y-63825000I250000J0D01*
G01*
X139875000Y-63825000D01*
G75*
G02*
X140125000Y-64075000I0J-250000D01*
G01*
G37*
G36*
G01*
X143375000Y-64075000D02*
X143375000Y-65925000D01*
G75*
G02*
X143125000Y-66175000I-250000J0D01*
G01*
X142125000Y-66175000D01*
G75*
G02*
X141875000Y-65925000I0J250000D01*
G01*
X141875000Y-64075000D01*
G75*
G02*
X142125000Y-63825000I250000J0D01*
G01*
X143125000Y-63825000D01*
G75*
G02*
X143375000Y-64075000I0J-250000D01*
G01*
G37*
%TD*%
%TO.C,C46*%
G36*
G01*
X141100000Y-87349999D02*
X141100000Y-88650001D01*
G75*
G02*
X140850001Y-88900000I-249999J0D01*
G01*
X140024999Y-88900000D01*
G75*
G02*
X139775000Y-88650001I0J249999D01*
G01*
X139775000Y-87349999D01*
G75*
G02*
X140024999Y-87100000I249999J0D01*
G01*
X140850001Y-87100000D01*
G75*
G02*
X141100000Y-87349999I0J-249999D01*
G01*
G37*
G36*
G01*
X144225000Y-87349999D02*
X144225000Y-88650001D01*
G75*
G02*
X143975001Y-88900000I-249999J0D01*
G01*
X143149999Y-88900000D01*
G75*
G02*
X142900000Y-88650001I0J249999D01*
G01*
X142900000Y-87349999D01*
G75*
G02*
X143149999Y-87100000I249999J0D01*
G01*
X143975001Y-87100000D01*
G75*
G02*
X144225000Y-87349999I0J-249999D01*
G01*
G37*
%TD*%
%TO.C,C45*%
G36*
G01*
X136075000Y-84875000D02*
X137925000Y-84875000D01*
G75*
G02*
X138175000Y-85125000I0J-250000D01*
G01*
X138175000Y-86125000D01*
G75*
G02*
X137925000Y-86375000I-250000J0D01*
G01*
X136075000Y-86375000D01*
G75*
G02*
X135825000Y-86125000I0J250000D01*
G01*
X135825000Y-85125000D01*
G75*
G02*
X136075000Y-84875000I250000J0D01*
G01*
G37*
G36*
G01*
X136075000Y-81625000D02*
X137925000Y-81625000D01*
G75*
G02*
X138175000Y-81875000I0J-250000D01*
G01*
X138175000Y-82875000D01*
G75*
G02*
X137925000Y-83125000I-250000J0D01*
G01*
X136075000Y-83125000D01*
G75*
G02*
X135825000Y-82875000I0J250000D01*
G01*
X135825000Y-81875000D01*
G75*
G02*
X136075000Y-81625000I250000J0D01*
G01*
G37*
%TD*%
%TO.C,C44*%
G36*
G01*
X137900000Y-79650001D02*
X137900000Y-78349999D01*
G75*
G02*
X138149999Y-78100000I249999J0D01*
G01*
X138975001Y-78100000D01*
G75*
G02*
X139225000Y-78349999I0J-249999D01*
G01*
X139225000Y-79650001D01*
G75*
G02*
X138975001Y-79900000I-249999J0D01*
G01*
X138149999Y-79900000D01*
G75*
G02*
X137900000Y-79650001I0J249999D01*
G01*
G37*
G36*
G01*
X134775000Y-79650001D02*
X134775000Y-78349999D01*
G75*
G02*
X135024999Y-78100000I249999J0D01*
G01*
X135850001Y-78100000D01*
G75*
G02*
X136100000Y-78349999I0J-249999D01*
G01*
X136100000Y-79650001D01*
G75*
G02*
X135850001Y-79900000I-249999J0D01*
G01*
X135024999Y-79900000D01*
G75*
G02*
X134775000Y-79650001I0J249999D01*
G01*
G37*
%TD*%
%TO.C,C43*%
G36*
G01*
X147100000Y-94349999D02*
X147100000Y-95650001D01*
G75*
G02*
X146850001Y-95900000I-249999J0D01*
G01*
X146024999Y-95900000D01*
G75*
G02*
X145775000Y-95650001I0J249999D01*
G01*
X145775000Y-94349999D01*
G75*
G02*
X146024999Y-94100000I249999J0D01*
G01*
X146850001Y-94100000D01*
G75*
G02*
X147100000Y-94349999I0J-249999D01*
G01*
G37*
G36*
G01*
X150225000Y-94349999D02*
X150225000Y-95650001D01*
G75*
G02*
X149975001Y-95900000I-249999J0D01*
G01*
X149149999Y-95900000D01*
G75*
G02*
X148900000Y-95650001I0J249999D01*
G01*
X148900000Y-94349999D01*
G75*
G02*
X149149999Y-94100000I249999J0D01*
G01*
X149975001Y-94100000D01*
G75*
G02*
X150225000Y-94349999I0J-249999D01*
G01*
G37*
%TD*%
%TO.C,C42*%
G36*
G01*
X166849999Y-53400000D02*
X168150001Y-53400000D01*
G75*
G02*
X168400000Y-53649999I0J-249999D01*
G01*
X168400000Y-54475001D01*
G75*
G02*
X168150001Y-54725000I-249999J0D01*
G01*
X166849999Y-54725000D01*
G75*
G02*
X166600000Y-54475001I0J249999D01*
G01*
X166600000Y-53649999D01*
G75*
G02*
X166849999Y-53400000I249999J0D01*
G01*
G37*
G36*
G01*
X166849999Y-50275000D02*
X168150001Y-50275000D01*
G75*
G02*
X168400000Y-50524999I0J-249999D01*
G01*
X168400000Y-51350001D01*
G75*
G02*
X168150001Y-51600000I-249999J0D01*
G01*
X166849999Y-51600000D01*
G75*
G02*
X166600000Y-51350001I0J249999D01*
G01*
X166600000Y-50524999D01*
G75*
G02*
X166849999Y-50275000I249999J0D01*
G01*
G37*
%TD*%
%TO.C,C41*%
G36*
G01*
X177150001Y-79100000D02*
X175849999Y-79100000D01*
G75*
G02*
X175600000Y-78850001I0J249999D01*
G01*
X175600000Y-78024999D01*
G75*
G02*
X175849999Y-77775000I249999J0D01*
G01*
X177150001Y-77775000D01*
G75*
G02*
X177400000Y-78024999I0J-249999D01*
G01*
X177400000Y-78850001D01*
G75*
G02*
X177150001Y-79100000I-249999J0D01*
G01*
G37*
G36*
G01*
X177150001Y-82225000D02*
X175849999Y-82225000D01*
G75*
G02*
X175600000Y-81975001I0J249999D01*
G01*
X175600000Y-81149999D01*
G75*
G02*
X175849999Y-80900000I249999J0D01*
G01*
X177150001Y-80900000D01*
G75*
G02*
X177400000Y-81149999I0J-249999D01*
G01*
X177400000Y-81975001D01*
G75*
G02*
X177150001Y-82225000I-249999J0D01*
G01*
G37*
%TD*%
%TO.C,C40*%
G36*
G01*
X161962500Y-59650001D02*
X161962500Y-58349999D01*
G75*
G02*
X162212499Y-58100000I249999J0D01*
G01*
X163037501Y-58100000D01*
G75*
G02*
X163287500Y-58349999I0J-249999D01*
G01*
X163287500Y-59650001D01*
G75*
G02*
X163037501Y-59900000I-249999J0D01*
G01*
X162212499Y-59900000D01*
G75*
G02*
X161962500Y-59650001I0J249999D01*
G01*
G37*
G36*
G01*
X158837500Y-59650001D02*
X158837500Y-58349999D01*
G75*
G02*
X159087499Y-58100000I249999J0D01*
G01*
X159912501Y-58100000D01*
G75*
G02*
X160162500Y-58349999I0J-249999D01*
G01*
X160162500Y-59650001D01*
G75*
G02*
X159912501Y-59900000I-249999J0D01*
G01*
X159087499Y-59900000D01*
G75*
G02*
X158837500Y-59650001I0J249999D01*
G01*
G37*
%TD*%
%TO.C,C39*%
G36*
G01*
X177150001Y-66120000D02*
X175849999Y-66120000D01*
G75*
G02*
X175600000Y-65870001I0J249999D01*
G01*
X175600000Y-65044999D01*
G75*
G02*
X175849999Y-64795000I249999J0D01*
G01*
X177150001Y-64795000D01*
G75*
G02*
X177400000Y-65044999I0J-249999D01*
G01*
X177400000Y-65870001D01*
G75*
G02*
X177150001Y-66120000I-249999J0D01*
G01*
G37*
G36*
G01*
X177150001Y-69245000D02*
X175849999Y-69245000D01*
G75*
G02*
X175600000Y-68995001I0J249999D01*
G01*
X175600000Y-68169999D01*
G75*
G02*
X175849999Y-67920000I249999J0D01*
G01*
X177150001Y-67920000D01*
G75*
G02*
X177400000Y-68169999I0J-249999D01*
G01*
X177400000Y-68995001D01*
G75*
G02*
X177150001Y-69245000I-249999J0D01*
G01*
G37*
%TD*%
%TO.C,C38*%
G36*
G01*
X169900000Y-61650001D02*
X169900000Y-60349999D01*
G75*
G02*
X170149999Y-60100000I249999J0D01*
G01*
X170975001Y-60100000D01*
G75*
G02*
X171225000Y-60349999I0J-249999D01*
G01*
X171225000Y-61650001D01*
G75*
G02*
X170975001Y-61900000I-249999J0D01*
G01*
X170149999Y-61900000D01*
G75*
G02*
X169900000Y-61650001I0J249999D01*
G01*
G37*
G36*
G01*
X166775000Y-61650001D02*
X166775000Y-60349999D01*
G75*
G02*
X167024999Y-60100000I249999J0D01*
G01*
X167850001Y-60100000D01*
G75*
G02*
X168100000Y-60349999I0J-249999D01*
G01*
X168100000Y-61650001D01*
G75*
G02*
X167850001Y-61900000I-249999J0D01*
G01*
X167024999Y-61900000D01*
G75*
G02*
X166775000Y-61650001I0J249999D01*
G01*
G37*
%TD*%
%TO.C,C37*%
G36*
G01*
X154100000Y-59849999D02*
X154100000Y-61150001D01*
G75*
G02*
X153850001Y-61400000I-249999J0D01*
G01*
X153024999Y-61400000D01*
G75*
G02*
X152775000Y-61150001I0J249999D01*
G01*
X152775000Y-59849999D01*
G75*
G02*
X153024999Y-59600000I249999J0D01*
G01*
X153850001Y-59600000D01*
G75*
G02*
X154100000Y-59849999I0J-249999D01*
G01*
G37*
G36*
G01*
X157225000Y-59849999D02*
X157225000Y-61150001D01*
G75*
G02*
X156975001Y-61400000I-249999J0D01*
G01*
X156149999Y-61400000D01*
G75*
G02*
X155900000Y-61150001I0J249999D01*
G01*
X155900000Y-59849999D01*
G75*
G02*
X156149999Y-59600000I249999J0D01*
G01*
X156975001Y-59600000D01*
G75*
G02*
X157225000Y-59849999I0J-249999D01*
G01*
G37*
%TD*%
%TO.C,C36*%
G36*
G01*
X235125000Y-83050001D02*
X235125000Y-81749999D01*
G75*
G02*
X235374999Y-81500000I249999J0D01*
G01*
X236200001Y-81500000D01*
G75*
G02*
X236450000Y-81749999I0J-249999D01*
G01*
X236450000Y-83050001D01*
G75*
G02*
X236200001Y-83300000I-249999J0D01*
G01*
X235374999Y-83300000D01*
G75*
G02*
X235125000Y-83050001I0J249999D01*
G01*
G37*
G36*
G01*
X232000000Y-83050001D02*
X232000000Y-81749999D01*
G75*
G02*
X232249999Y-81500000I249999J0D01*
G01*
X233075001Y-81500000D01*
G75*
G02*
X233325000Y-81749999I0J-249999D01*
G01*
X233325000Y-83050001D01*
G75*
G02*
X233075001Y-83300000I-249999J0D01*
G01*
X232249999Y-83300000D01*
G75*
G02*
X232000000Y-83050001I0J249999D01*
G01*
G37*
%TD*%
%TO.C,C34*%
G36*
G01*
X232875000Y-85525001D02*
X232875000Y-84224999D01*
G75*
G02*
X233124999Y-83975000I249999J0D01*
G01*
X233950001Y-83975000D01*
G75*
G02*
X234200000Y-84224999I0J-249999D01*
G01*
X234200000Y-85525001D01*
G75*
G02*
X233950001Y-85775000I-249999J0D01*
G01*
X233124999Y-85775000D01*
G75*
G02*
X232875000Y-85525001I0J249999D01*
G01*
G37*
G36*
G01*
X229750000Y-85525001D02*
X229750000Y-84224999D01*
G75*
G02*
X229999999Y-83975000I249999J0D01*
G01*
X230825001Y-83975000D01*
G75*
G02*
X231075000Y-84224999I0J-249999D01*
G01*
X231075000Y-85525001D01*
G75*
G02*
X230825001Y-85775000I-249999J0D01*
G01*
X229999999Y-85775000D01*
G75*
G02*
X229750000Y-85525001I0J249999D01*
G01*
G37*
%TD*%
%TO.C,C30*%
G36*
G01*
X236300000Y-80650001D02*
X236300000Y-79349999D01*
G75*
G02*
X236549999Y-79100000I249999J0D01*
G01*
X237375001Y-79100000D01*
G75*
G02*
X237625000Y-79349999I0J-249999D01*
G01*
X237625000Y-80650001D01*
G75*
G02*
X237375001Y-80900000I-249999J0D01*
G01*
X236549999Y-80900000D01*
G75*
G02*
X236300000Y-80650001I0J249999D01*
G01*
G37*
G36*
G01*
X233175000Y-80650001D02*
X233175000Y-79349999D01*
G75*
G02*
X233424999Y-79100000I249999J0D01*
G01*
X234250001Y-79100000D01*
G75*
G02*
X234500000Y-79349999I0J-249999D01*
G01*
X234500000Y-80650001D01*
G75*
G02*
X234250001Y-80900000I-249999J0D01*
G01*
X233424999Y-80900000D01*
G75*
G02*
X233175000Y-80650001I0J249999D01*
G01*
G37*
%TD*%
%TO.C,C28*%
G36*
G01*
X260100001Y-60620000D02*
X258799999Y-60620000D01*
G75*
G02*
X258550000Y-60370001I0J249999D01*
G01*
X258550000Y-59544999D01*
G75*
G02*
X258799999Y-59295000I249999J0D01*
G01*
X260100001Y-59295000D01*
G75*
G02*
X260350000Y-59544999I0J-249999D01*
G01*
X260350000Y-60370001D01*
G75*
G02*
X260100001Y-60620000I-249999J0D01*
G01*
G37*
G36*
G01*
X260100001Y-63745000D02*
X258799999Y-63745000D01*
G75*
G02*
X258550000Y-63495001I0J249999D01*
G01*
X258550000Y-62669999D01*
G75*
G02*
X258799999Y-62420000I249999J0D01*
G01*
X260100001Y-62420000D01*
G75*
G02*
X260350000Y-62669999I0J-249999D01*
G01*
X260350000Y-63495001D01*
G75*
G02*
X260100001Y-63745000I-249999J0D01*
G01*
G37*
%TD*%
%TO.C,C25*%
G36*
G01*
X210460000Y-98670001D02*
X210460000Y-97369999D01*
G75*
G02*
X210709999Y-97120000I249999J0D01*
G01*
X211535001Y-97120000D01*
G75*
G02*
X211785000Y-97369999I0J-249999D01*
G01*
X211785000Y-98670001D01*
G75*
G02*
X211535001Y-98920000I-249999J0D01*
G01*
X210709999Y-98920000D01*
G75*
G02*
X210460000Y-98670001I0J249999D01*
G01*
G37*
G36*
G01*
X207335000Y-98670001D02*
X207335000Y-97369999D01*
G75*
G02*
X207584999Y-97120000I249999J0D01*
G01*
X208410001Y-97120000D01*
G75*
G02*
X208660000Y-97369999I0J-249999D01*
G01*
X208660000Y-98670001D01*
G75*
G02*
X208410001Y-98920000I-249999J0D01*
G01*
X207584999Y-98920000D01*
G75*
G02*
X207335000Y-98670001I0J249999D01*
G01*
G37*
%TD*%
%TO.C,U11*%
G36*
G01*
X225225000Y-80225000D02*
X225225000Y-80025000D01*
G75*
G02*
X225325000Y-79925000I100000J0D01*
G01*
X226600000Y-79925000D01*
G75*
G02*
X226700000Y-80025000I0J-100000D01*
G01*
X226700000Y-80225000D01*
G75*
G02*
X226600000Y-80325000I-100000J0D01*
G01*
X225325000Y-80325000D01*
G75*
G02*
X225225000Y-80225000I0J100000D01*
G01*
G37*
G36*
G01*
X225225000Y-80875000D02*
X225225000Y-80675000D01*
G75*
G02*
X225325000Y-80575000I100000J0D01*
G01*
X226600000Y-80575000D01*
G75*
G02*
X226700000Y-80675000I0J-100000D01*
G01*
X226700000Y-80875000D01*
G75*
G02*
X226600000Y-80975000I-100000J0D01*
G01*
X225325000Y-80975000D01*
G75*
G02*
X225225000Y-80875000I0J100000D01*
G01*
G37*
G36*
G01*
X225225000Y-81525000D02*
X225225000Y-81325000D01*
G75*
G02*
X225325000Y-81225000I100000J0D01*
G01*
X226600000Y-81225000D01*
G75*
G02*
X226700000Y-81325000I0J-100000D01*
G01*
X226700000Y-81525000D01*
G75*
G02*
X226600000Y-81625000I-100000J0D01*
G01*
X225325000Y-81625000D01*
G75*
G02*
X225225000Y-81525000I0J100000D01*
G01*
G37*
G36*
G01*
X225225000Y-82175000D02*
X225225000Y-81975000D01*
G75*
G02*
X225325000Y-81875000I100000J0D01*
G01*
X226600000Y-81875000D01*
G75*
G02*
X226700000Y-81975000I0J-100000D01*
G01*
X226700000Y-82175000D01*
G75*
G02*
X226600000Y-82275000I-100000J0D01*
G01*
X225325000Y-82275000D01*
G75*
G02*
X225225000Y-82175000I0J100000D01*
G01*
G37*
G36*
G01*
X225225000Y-82825000D02*
X225225000Y-82625000D01*
G75*
G02*
X225325000Y-82525000I100000J0D01*
G01*
X226600000Y-82525000D01*
G75*
G02*
X226700000Y-82625000I0J-100000D01*
G01*
X226700000Y-82825000D01*
G75*
G02*
X226600000Y-82925000I-100000J0D01*
G01*
X225325000Y-82925000D01*
G75*
G02*
X225225000Y-82825000I0J100000D01*
G01*
G37*
G36*
G01*
X225225000Y-83475000D02*
X225225000Y-83275000D01*
G75*
G02*
X225325000Y-83175000I100000J0D01*
G01*
X226600000Y-83175000D01*
G75*
G02*
X226700000Y-83275000I0J-100000D01*
G01*
X226700000Y-83475000D01*
G75*
G02*
X226600000Y-83575000I-100000J0D01*
G01*
X225325000Y-83575000D01*
G75*
G02*
X225225000Y-83475000I0J100000D01*
G01*
G37*
G36*
G01*
X225225000Y-84125000D02*
X225225000Y-83925000D01*
G75*
G02*
X225325000Y-83825000I100000J0D01*
G01*
X226600000Y-83825000D01*
G75*
G02*
X226700000Y-83925000I0J-100000D01*
G01*
X226700000Y-84125000D01*
G75*
G02*
X226600000Y-84225000I-100000J0D01*
G01*
X225325000Y-84225000D01*
G75*
G02*
X225225000Y-84125000I0J100000D01*
G01*
G37*
G36*
G01*
X225225000Y-84775000D02*
X225225000Y-84575000D01*
G75*
G02*
X225325000Y-84475000I100000J0D01*
G01*
X226600000Y-84475000D01*
G75*
G02*
X226700000Y-84575000I0J-100000D01*
G01*
X226700000Y-84775000D01*
G75*
G02*
X226600000Y-84875000I-100000J0D01*
G01*
X225325000Y-84875000D01*
G75*
G02*
X225225000Y-84775000I0J100000D01*
G01*
G37*
G36*
G01*
X219500000Y-84775000D02*
X219500000Y-84575000D01*
G75*
G02*
X219600000Y-84475000I100000J0D01*
G01*
X220875000Y-84475000D01*
G75*
G02*
X220975000Y-84575000I0J-100000D01*
G01*
X220975000Y-84775000D01*
G75*
G02*
X220875000Y-84875000I-100000J0D01*
G01*
X219600000Y-84875000D01*
G75*
G02*
X219500000Y-84775000I0J100000D01*
G01*
G37*
G36*
G01*
X219500000Y-84125000D02*
X219500000Y-83925000D01*
G75*
G02*
X219600000Y-83825000I100000J0D01*
G01*
X220875000Y-83825000D01*
G75*
G02*
X220975000Y-83925000I0J-100000D01*
G01*
X220975000Y-84125000D01*
G75*
G02*
X220875000Y-84225000I-100000J0D01*
G01*
X219600000Y-84225000D01*
G75*
G02*
X219500000Y-84125000I0J100000D01*
G01*
G37*
G36*
G01*
X219500000Y-83475000D02*
X219500000Y-83275000D01*
G75*
G02*
X219600000Y-83175000I100000J0D01*
G01*
X220875000Y-83175000D01*
G75*
G02*
X220975000Y-83275000I0J-100000D01*
G01*
X220975000Y-83475000D01*
G75*
G02*
X220875000Y-83575000I-100000J0D01*
G01*
X219600000Y-83575000D01*
G75*
G02*
X219500000Y-83475000I0J100000D01*
G01*
G37*
G36*
G01*
X219500000Y-82825000D02*
X219500000Y-82625000D01*
G75*
G02*
X219600000Y-82525000I100000J0D01*
G01*
X220875000Y-82525000D01*
G75*
G02*
X220975000Y-82625000I0J-100000D01*
G01*
X220975000Y-82825000D01*
G75*
G02*
X220875000Y-82925000I-100000J0D01*
G01*
X219600000Y-82925000D01*
G75*
G02*
X219500000Y-82825000I0J100000D01*
G01*
G37*
G36*
G01*
X219500000Y-82175000D02*
X219500000Y-81975000D01*
G75*
G02*
X219600000Y-81875000I100000J0D01*
G01*
X220875000Y-81875000D01*
G75*
G02*
X220975000Y-81975000I0J-100000D01*
G01*
X220975000Y-82175000D01*
G75*
G02*
X220875000Y-82275000I-100000J0D01*
G01*
X219600000Y-82275000D01*
G75*
G02*
X219500000Y-82175000I0J100000D01*
G01*
G37*
G36*
G01*
X219500000Y-81525000D02*
X219500000Y-81325000D01*
G75*
G02*
X219600000Y-81225000I100000J0D01*
G01*
X220875000Y-81225000D01*
G75*
G02*
X220975000Y-81325000I0J-100000D01*
G01*
X220975000Y-81525000D01*
G75*
G02*
X220875000Y-81625000I-100000J0D01*
G01*
X219600000Y-81625000D01*
G75*
G02*
X219500000Y-81525000I0J100000D01*
G01*
G37*
G36*
G01*
X219500000Y-80875000D02*
X219500000Y-80675000D01*
G75*
G02*
X219600000Y-80575000I100000J0D01*
G01*
X220875000Y-80575000D01*
G75*
G02*
X220975000Y-80675000I0J-100000D01*
G01*
X220975000Y-80875000D01*
G75*
G02*
X220875000Y-80975000I-100000J0D01*
G01*
X219600000Y-80975000D01*
G75*
G02*
X219500000Y-80875000I0J100000D01*
G01*
G37*
G36*
G01*
X219500000Y-80225000D02*
X219500000Y-80025000D01*
G75*
G02*
X219600000Y-79925000I100000J0D01*
G01*
X220875000Y-79925000D01*
G75*
G02*
X220975000Y-80025000I0J-100000D01*
G01*
X220975000Y-80225000D01*
G75*
G02*
X220875000Y-80325000I-100000J0D01*
G01*
X219600000Y-80325000D01*
G75*
G02*
X219500000Y-80225000I0J100000D01*
G01*
G37*
%TD*%
%TO.C,C4*%
G36*
G01*
X212667068Y-88786308D02*
X213586308Y-87867068D01*
G75*
G02*
X213939860Y-87867068I176776J-176776D01*
G01*
X214523224Y-88450432D01*
G75*
G02*
X214523224Y-88803984I-176776J-176776D01*
G01*
X213603984Y-89723224D01*
G75*
G02*
X213250432Y-89723224I-176776J176776D01*
G01*
X212667068Y-89139860D01*
G75*
G02*
X212667068Y-88786308I176776J176776D01*
G01*
G37*
G36*
G01*
X214876776Y-90996016D02*
X215796016Y-90076776D01*
G75*
G02*
X216149568Y-90076776I176776J-176776D01*
G01*
X216732932Y-90660140D01*
G75*
G02*
X216732932Y-91013692I-176776J-176776D01*
G01*
X215813692Y-91932932D01*
G75*
G02*
X215460140Y-91932932I-176776J176776D01*
G01*
X214876776Y-91349568D01*
G75*
G02*
X214876776Y-90996016I176776J176776D01*
G01*
G37*
%TD*%
%TO.C,C5*%
G36*
G01*
X201903984Y-94176776D02*
X202823224Y-95096016D01*
G75*
G02*
X202823224Y-95449568I-176776J-176776D01*
G01*
X202239860Y-96032932D01*
G75*
G02*
X201886308Y-96032932I-176776J176776D01*
G01*
X200967068Y-95113692D01*
G75*
G02*
X200967068Y-94760140I176776J176776D01*
G01*
X201550432Y-94176776D01*
G75*
G02*
X201903984Y-94176776I176776J-176776D01*
G01*
G37*
G36*
G01*
X204113692Y-91967068D02*
X205032932Y-92886308D01*
G75*
G02*
X205032932Y-93239860I-176776J-176776D01*
G01*
X204449568Y-93823224D01*
G75*
G02*
X204096016Y-93823224I-176776J176776D01*
G01*
X203176776Y-92903984D01*
G75*
G02*
X203176776Y-92550432I176776J176776D01*
G01*
X203760140Y-91967068D01*
G75*
G02*
X204113692Y-91967068I176776J-176776D01*
G01*
G37*
%TD*%
%TO.C,C8*%
G36*
G01*
X211167068Y-93086308D02*
X212086308Y-92167068D01*
G75*
G02*
X212439860Y-92167068I176776J-176776D01*
G01*
X213023224Y-92750432D01*
G75*
G02*
X213023224Y-93103984I-176776J-176776D01*
G01*
X212103984Y-94023224D01*
G75*
G02*
X211750432Y-94023224I-176776J176776D01*
G01*
X211167068Y-93439860D01*
G75*
G02*
X211167068Y-93086308I176776J176776D01*
G01*
G37*
G36*
G01*
X213376776Y-95296016D02*
X214296016Y-94376776D01*
G75*
G02*
X214649568Y-94376776I176776J-176776D01*
G01*
X215232932Y-94960140D01*
G75*
G02*
X215232932Y-95313692I-176776J-176776D01*
G01*
X214313692Y-96232932D01*
G75*
G02*
X213960140Y-96232932I-176776J176776D01*
G01*
X213376776Y-95649568D01*
G75*
G02*
X213376776Y-95296016I176776J176776D01*
G01*
G37*
%TD*%
%TO.C,C15*%
G36*
G01*
X234189999Y-120960000D02*
X235490001Y-120960000D01*
G75*
G02*
X235740000Y-121209999I0J-249999D01*
G01*
X235740000Y-122035001D01*
G75*
G02*
X235490001Y-122285000I-249999J0D01*
G01*
X234189999Y-122285000D01*
G75*
G02*
X233940000Y-122035001I0J249999D01*
G01*
X233940000Y-121209999D01*
G75*
G02*
X234189999Y-120960000I249999J0D01*
G01*
G37*
G36*
G01*
X234189999Y-117835000D02*
X235490001Y-117835000D01*
G75*
G02*
X235740000Y-118084999I0J-249999D01*
G01*
X235740000Y-118910001D01*
G75*
G02*
X235490001Y-119160000I-249999J0D01*
G01*
X234189999Y-119160000D01*
G75*
G02*
X233940000Y-118910001I0J249999D01*
G01*
X233940000Y-118084999D01*
G75*
G02*
X234189999Y-117835000I249999J0D01*
G01*
G37*
%TD*%
%TO.C,C16*%
G36*
G01*
X236679999Y-120980000D02*
X237980001Y-120980000D01*
G75*
G02*
X238230000Y-121229999I0J-249999D01*
G01*
X238230000Y-122055001D01*
G75*
G02*
X237980001Y-122305000I-249999J0D01*
G01*
X236679999Y-122305000D01*
G75*
G02*
X236430000Y-122055001I0J249999D01*
G01*
X236430000Y-121229999D01*
G75*
G02*
X236679999Y-120980000I249999J0D01*
G01*
G37*
G36*
G01*
X236679999Y-117855000D02*
X237980001Y-117855000D01*
G75*
G02*
X238230000Y-118104999I0J-249999D01*
G01*
X238230000Y-118930001D01*
G75*
G02*
X237980001Y-119180000I-249999J0D01*
G01*
X236679999Y-119180000D01*
G75*
G02*
X236430000Y-118930001I0J249999D01*
G01*
X236430000Y-118104999D01*
G75*
G02*
X236679999Y-117855000I249999J0D01*
G01*
G37*
%TD*%
%TO.C,C17*%
G36*
G01*
X223919999Y-120940000D02*
X225220001Y-120940000D01*
G75*
G02*
X225470000Y-121189999I0J-249999D01*
G01*
X225470000Y-122015001D01*
G75*
G02*
X225220001Y-122265000I-249999J0D01*
G01*
X223919999Y-122265000D01*
G75*
G02*
X223670000Y-122015001I0J249999D01*
G01*
X223670000Y-121189999D01*
G75*
G02*
X223919999Y-120940000I249999J0D01*
G01*
G37*
G36*
G01*
X223919999Y-117815000D02*
X225220001Y-117815000D01*
G75*
G02*
X225470000Y-118064999I0J-249999D01*
G01*
X225470000Y-118890001D01*
G75*
G02*
X225220001Y-119140000I-249999J0D01*
G01*
X223919999Y-119140000D01*
G75*
G02*
X223670000Y-118890001I0J249999D01*
G01*
X223670000Y-118064999D01*
G75*
G02*
X223919999Y-117815000I249999J0D01*
G01*
G37*
%TD*%
%TO.C,C18*%
G36*
G01*
X226569999Y-117815000D02*
X227870001Y-117815000D01*
G75*
G02*
X228120000Y-118064999I0J-249999D01*
G01*
X228120000Y-118890001D01*
G75*
G02*
X227870001Y-119140000I-249999J0D01*
G01*
X226569999Y-119140000D01*
G75*
G02*
X226320000Y-118890001I0J249999D01*
G01*
X226320000Y-118064999D01*
G75*
G02*
X226569999Y-117815000I249999J0D01*
G01*
G37*
G36*
G01*
X226569999Y-120940000D02*
X227870001Y-120940000D01*
G75*
G02*
X228120000Y-121189999I0J-249999D01*
G01*
X228120000Y-122015001D01*
G75*
G02*
X227870001Y-122265000I-249999J0D01*
G01*
X226569999Y-122265000D01*
G75*
G02*
X226320000Y-122015001I0J249999D01*
G01*
X226320000Y-121189999D01*
G75*
G02*
X226569999Y-120940000I249999J0D01*
G01*
G37*
%TD*%
%TO.C,C19*%
G36*
G01*
X240210001Y-113092500D02*
X238909999Y-113092500D01*
G75*
G02*
X238660000Y-112842501I0J249999D01*
G01*
X238660000Y-112017499D01*
G75*
G02*
X238909999Y-111767500I249999J0D01*
G01*
X240210001Y-111767500D01*
G75*
G02*
X240460000Y-112017499I0J-249999D01*
G01*
X240460000Y-112842501D01*
G75*
G02*
X240210001Y-113092500I-249999J0D01*
G01*
G37*
G36*
G01*
X240210001Y-109967500D02*
X238909999Y-109967500D01*
G75*
G02*
X238660000Y-109717501I0J249999D01*
G01*
X238660000Y-108892499D01*
G75*
G02*
X238909999Y-108642500I249999J0D01*
G01*
X240210001Y-108642500D01*
G75*
G02*
X240460000Y-108892499I0J-249999D01*
G01*
X240460000Y-109717501D01*
G75*
G02*
X240210001Y-109967500I-249999J0D01*
G01*
G37*
%TD*%
%TO.C,C20*%
G36*
G01*
X242710001Y-113115000D02*
X241409999Y-113115000D01*
G75*
G02*
X241160000Y-112865001I0J249999D01*
G01*
X241160000Y-112039999D01*
G75*
G02*
X241409999Y-111790000I249999J0D01*
G01*
X242710001Y-111790000D01*
G75*
G02*
X242960000Y-112039999I0J-249999D01*
G01*
X242960000Y-112865001D01*
G75*
G02*
X242710001Y-113115000I-249999J0D01*
G01*
G37*
G36*
G01*
X242710001Y-109990000D02*
X241409999Y-109990000D01*
G75*
G02*
X241160000Y-109740001I0J249999D01*
G01*
X241160000Y-108914999D01*
G75*
G02*
X241409999Y-108665000I249999J0D01*
G01*
X242710001Y-108665000D01*
G75*
G02*
X242960000Y-108914999I0J-249999D01*
G01*
X242960000Y-109740001D01*
G75*
G02*
X242710001Y-109990000I-249999J0D01*
G01*
G37*
%TD*%
%TO.C,C21*%
G36*
G01*
X249970000Y-110600001D02*
X249970000Y-109299999D01*
G75*
G02*
X250219999Y-109050000I249999J0D01*
G01*
X251045001Y-109050000D01*
G75*
G02*
X251295000Y-109299999I0J-249999D01*
G01*
X251295000Y-110600001D01*
G75*
G02*
X251045001Y-110850000I-249999J0D01*
G01*
X250219999Y-110850000D01*
G75*
G02*
X249970000Y-110600001I0J249999D01*
G01*
G37*
G36*
G01*
X246845000Y-110600001D02*
X246845000Y-109299999D01*
G75*
G02*
X247094999Y-109050000I249999J0D01*
G01*
X247920001Y-109050000D01*
G75*
G02*
X248170000Y-109299999I0J-249999D01*
G01*
X248170000Y-110600001D01*
G75*
G02*
X247920001Y-110850000I-249999J0D01*
G01*
X247094999Y-110850000D01*
G75*
G02*
X246845000Y-110600001I0J249999D01*
G01*
G37*
%TD*%
%TO.C,C22*%
G36*
G01*
X246845000Y-113190001D02*
X246845000Y-111889999D01*
G75*
G02*
X247094999Y-111640000I249999J0D01*
G01*
X247920001Y-111640000D01*
G75*
G02*
X248170000Y-111889999I0J-249999D01*
G01*
X248170000Y-113190001D01*
G75*
G02*
X247920001Y-113440000I-249999J0D01*
G01*
X247094999Y-113440000D01*
G75*
G02*
X246845000Y-113190001I0J249999D01*
G01*
G37*
G36*
G01*
X249970000Y-113190001D02*
X249970000Y-111889999D01*
G75*
G02*
X250219999Y-111640000I249999J0D01*
G01*
X251045001Y-111640000D01*
G75*
G02*
X251295000Y-111889999I0J-249999D01*
G01*
X251295000Y-113190001D01*
G75*
G02*
X251045001Y-113440000I-249999J0D01*
G01*
X250219999Y-113440000D01*
G75*
G02*
X249970000Y-113190001I0J249999D01*
G01*
G37*
%TD*%
%TO.C,C23*%
G36*
G01*
X244120000Y-131640001D02*
X244120000Y-130339999D01*
G75*
G02*
X244369999Y-130090000I249999J0D01*
G01*
X245195001Y-130090000D01*
G75*
G02*
X245445000Y-130339999I0J-249999D01*
G01*
X245445000Y-131640001D01*
G75*
G02*
X245195001Y-131890000I-249999J0D01*
G01*
X244369999Y-131890000D01*
G75*
G02*
X244120000Y-131640001I0J249999D01*
G01*
G37*
G36*
G01*
X240995000Y-131640001D02*
X240995000Y-130339999D01*
G75*
G02*
X241244999Y-130090000I249999J0D01*
G01*
X242070001Y-130090000D01*
G75*
G02*
X242320000Y-130339999I0J-249999D01*
G01*
X242320000Y-131640001D01*
G75*
G02*
X242070001Y-131890000I-249999J0D01*
G01*
X241244999Y-131890000D01*
G75*
G02*
X240995000Y-131640001I0J249999D01*
G01*
G37*
%TD*%
%TO.C,C24*%
G36*
G01*
X241005000Y-128040001D02*
X241005000Y-126739999D01*
G75*
G02*
X241254999Y-126490000I249999J0D01*
G01*
X242080001Y-126490000D01*
G75*
G02*
X242330000Y-126739999I0J-249999D01*
G01*
X242330000Y-128040001D01*
G75*
G02*
X242080001Y-128290000I-249999J0D01*
G01*
X241254999Y-128290000D01*
G75*
G02*
X241005000Y-128040001I0J249999D01*
G01*
G37*
G36*
G01*
X244130000Y-128040001D02*
X244130000Y-126739999D01*
G75*
G02*
X244379999Y-126490000I249999J0D01*
G01*
X245205001Y-126490000D01*
G75*
G02*
X245455000Y-126739999I0J-249999D01*
G01*
X245455000Y-128040001D01*
G75*
G02*
X245205001Y-128290000I-249999J0D01*
G01*
X244379999Y-128290000D01*
G75*
G02*
X244130000Y-128040001I0J249999D01*
G01*
G37*
%TD*%
D32*
%TO.C,CART1*%
X244430000Y-207000000D03*
X241890000Y-207000000D03*
X239350000Y-207000000D03*
X236810000Y-207000000D03*
X234270000Y-207000000D03*
X231730000Y-207000000D03*
X229190000Y-207000000D03*
X226650000Y-207000000D03*
X224110000Y-207000000D03*
X221570000Y-207000000D03*
X219030000Y-207000000D03*
X216490000Y-207000000D03*
X213950000Y-207000000D03*
X211410000Y-207000000D03*
X208870000Y-207000000D03*
%TD*%
%TO.C,ECI1*%
X183040000Y-207000000D03*
X180500000Y-207000000D03*
X177960000Y-207000000D03*
X175420000Y-207000000D03*
X172880000Y-207000000D03*
X170340000Y-207000000D03*
X167800000Y-207000000D03*
%TD*%
D33*
%TO.C,J1*%
X242010000Y-77325000D03*
X242010000Y-72275000D03*
X244550000Y-77325000D03*
X244550000Y-72275000D03*
X247090000Y-77325000D03*
X247090000Y-72275000D03*
X249630000Y-77325000D03*
X249630000Y-72275000D03*
X252170000Y-77325000D03*
X252170000Y-72275000D03*
X254710000Y-77325000D03*
X254710000Y-72275000D03*
X257250000Y-77325000D03*
X257250000Y-72275000D03*
X259790000Y-77325000D03*
X259790000Y-72275000D03*
%TD*%
%TO.C,LD2*%
G36*
G01*
X186100000Y-52475000D02*
X186100000Y-53725000D01*
G75*
G02*
X185850000Y-53975000I-250000J0D01*
G01*
X184925000Y-53975000D01*
G75*
G02*
X184675000Y-53725000I0J250000D01*
G01*
X184675000Y-52475000D01*
G75*
G02*
X184925000Y-52225000I250000J0D01*
G01*
X185850000Y-52225000D01*
G75*
G02*
X186100000Y-52475000I0J-250000D01*
G01*
G37*
G36*
G01*
X183125000Y-52475000D02*
X183125000Y-53725000D01*
G75*
G02*
X182875000Y-53975000I-250000J0D01*
G01*
X181950000Y-53975000D01*
G75*
G02*
X181700000Y-53725000I0J250000D01*
G01*
X181700000Y-52475000D01*
G75*
G02*
X181950000Y-52225000I250000J0D01*
G01*
X182875000Y-52225000D01*
G75*
G02*
X183125000Y-52475000I0J-250000D01*
G01*
G37*
%TD*%
%TO.C,LD3*%
G36*
G01*
X136625000Y-75200000D02*
X135375000Y-75200000D01*
G75*
G02*
X135125000Y-74950000I0J250000D01*
G01*
X135125000Y-74025000D01*
G75*
G02*
X135375000Y-73775000I250000J0D01*
G01*
X136625000Y-73775000D01*
G75*
G02*
X136875000Y-74025000I0J-250000D01*
G01*
X136875000Y-74950000D01*
G75*
G02*
X136625000Y-75200000I-250000J0D01*
G01*
G37*
G36*
G01*
X136625000Y-72225000D02*
X135375000Y-72225000D01*
G75*
G02*
X135125000Y-71975000I0J250000D01*
G01*
X135125000Y-71050000D01*
G75*
G02*
X135375000Y-70800000I250000J0D01*
G01*
X136625000Y-70800000D01*
G75*
G02*
X136875000Y-71050000I0J-250000D01*
G01*
X136875000Y-71975000D01*
G75*
G02*
X136625000Y-72225000I-250000J0D01*
G01*
G37*
%TD*%
%TO.C,LD4*%
G36*
G01*
X151375000Y-80775000D02*
X152625000Y-80775000D01*
G75*
G02*
X152875000Y-81025000I0J-250000D01*
G01*
X152875000Y-81950000D01*
G75*
G02*
X152625000Y-82200000I-250000J0D01*
G01*
X151375000Y-82200000D01*
G75*
G02*
X151125000Y-81950000I0J250000D01*
G01*
X151125000Y-81025000D01*
G75*
G02*
X151375000Y-80775000I250000J0D01*
G01*
G37*
G36*
G01*
X151375000Y-77800000D02*
X152625000Y-77800000D01*
G75*
G02*
X152875000Y-78050000I0J-250000D01*
G01*
X152875000Y-78975000D01*
G75*
G02*
X152625000Y-79225000I-250000J0D01*
G01*
X151375000Y-79225000D01*
G75*
G02*
X151125000Y-78975000I0J250000D01*
G01*
X151125000Y-78050000D01*
G75*
G02*
X151375000Y-77800000I250000J0D01*
G01*
G37*
%TD*%
D20*
%TO.C,Q1*%
X178350000Y-52600000D03*
X180250000Y-52600000D03*
X179300000Y-50600000D03*
%TD*%
%TO.C,R1*%
G36*
G01*
X183000000Y-48775000D02*
X183000000Y-50025000D01*
G75*
G02*
X182750000Y-50275000I-250000J0D01*
G01*
X181950000Y-50275000D01*
G75*
G02*
X181700000Y-50025000I0J250000D01*
G01*
X181700000Y-48775000D01*
G75*
G02*
X181950000Y-48525000I250000J0D01*
G01*
X182750000Y-48525000D01*
G75*
G02*
X183000000Y-48775000I0J-250000D01*
G01*
G37*
G36*
G01*
X186100000Y-48775000D02*
X186100000Y-50025000D01*
G75*
G02*
X185850000Y-50275000I-250000J0D01*
G01*
X185050000Y-50275000D01*
G75*
G02*
X184800000Y-50025000I0J250000D01*
G01*
X184800000Y-48775000D01*
G75*
G02*
X185050000Y-48525000I250000J0D01*
G01*
X185850000Y-48525000D01*
G75*
G02*
X186100000Y-48775000I0J-250000D01*
G01*
G37*
%TD*%
%TO.C,R3*%
G36*
G01*
X221225000Y-89325000D02*
X221225000Y-88075000D01*
G75*
G02*
X221475000Y-87825000I250000J0D01*
G01*
X222275000Y-87825000D01*
G75*
G02*
X222525000Y-88075000I0J-250000D01*
G01*
X222525000Y-89325000D01*
G75*
G02*
X222275000Y-89575000I-250000J0D01*
G01*
X221475000Y-89575000D01*
G75*
G02*
X221225000Y-89325000I0J250000D01*
G01*
G37*
G36*
G01*
X224325000Y-89325000D02*
X224325000Y-88075000D01*
G75*
G02*
X224575000Y-87825000I250000J0D01*
G01*
X225375000Y-87825000D01*
G75*
G02*
X225625000Y-88075000I0J-250000D01*
G01*
X225625000Y-89325000D01*
G75*
G02*
X225375000Y-89575000I-250000J0D01*
G01*
X224575000Y-89575000D01*
G75*
G02*
X224325000Y-89325000I0J250000D01*
G01*
G37*
%TD*%
%TO.C,R4*%
G36*
G01*
X224300000Y-95075000D02*
X224300000Y-93825000D01*
G75*
G02*
X224550000Y-93575000I250000J0D01*
G01*
X225350000Y-93575000D01*
G75*
G02*
X225600000Y-93825000I0J-250000D01*
G01*
X225600000Y-95075000D01*
G75*
G02*
X225350000Y-95325000I-250000J0D01*
G01*
X224550000Y-95325000D01*
G75*
G02*
X224300000Y-95075000I0J250000D01*
G01*
G37*
G36*
G01*
X221200000Y-95075000D02*
X221200000Y-93825000D01*
G75*
G02*
X221450000Y-93575000I250000J0D01*
G01*
X222250000Y-93575000D01*
G75*
G02*
X222500000Y-93825000I0J-250000D01*
G01*
X222500000Y-95075000D01*
G75*
G02*
X222250000Y-95325000I-250000J0D01*
G01*
X221450000Y-95325000D01*
G75*
G02*
X221200000Y-95075000I0J250000D01*
G01*
G37*
%TD*%
%TO.C,R5*%
G36*
G01*
X199100000Y-81100000D02*
X199100000Y-79850000D01*
G75*
G02*
X199350000Y-79600000I250000J0D01*
G01*
X200150000Y-79600000D01*
G75*
G02*
X200400000Y-79850000I0J-250000D01*
G01*
X200400000Y-81100000D01*
G75*
G02*
X200150000Y-81350000I-250000J0D01*
G01*
X199350000Y-81350000D01*
G75*
G02*
X199100000Y-81100000I0J250000D01*
G01*
G37*
G36*
G01*
X196000000Y-81100000D02*
X196000000Y-79850000D01*
G75*
G02*
X196250000Y-79600000I250000J0D01*
G01*
X197050000Y-79600000D01*
G75*
G02*
X197300000Y-79850000I0J-250000D01*
G01*
X197300000Y-81100000D01*
G75*
G02*
X197050000Y-81350000I-250000J0D01*
G01*
X196250000Y-81350000D01*
G75*
G02*
X196000000Y-81100000I0J250000D01*
G01*
G37*
%TD*%
%TO.C,R8*%
G36*
G01*
X219000000Y-64475000D02*
X219000000Y-65725000D01*
G75*
G02*
X218750000Y-65975000I-250000J0D01*
G01*
X217950000Y-65975000D01*
G75*
G02*
X217700000Y-65725000I0J250000D01*
G01*
X217700000Y-64475000D01*
G75*
G02*
X217950000Y-64225000I250000J0D01*
G01*
X218750000Y-64225000D01*
G75*
G02*
X219000000Y-64475000I0J-250000D01*
G01*
G37*
G36*
G01*
X222100000Y-64475000D02*
X222100000Y-65725000D01*
G75*
G02*
X221850000Y-65975000I-250000J0D01*
G01*
X221050000Y-65975000D01*
G75*
G02*
X220800000Y-65725000I0J250000D01*
G01*
X220800000Y-64475000D01*
G75*
G02*
X221050000Y-64225000I250000J0D01*
G01*
X221850000Y-64225000D01*
G75*
G02*
X222100000Y-64475000I0J-250000D01*
G01*
G37*
%TD*%
%TO.C,R9*%
G36*
G01*
X207800000Y-64575000D02*
X207800000Y-65825000D01*
G75*
G02*
X207550000Y-66075000I-250000J0D01*
G01*
X206750000Y-66075000D01*
G75*
G02*
X206500000Y-65825000I0J250000D01*
G01*
X206500000Y-64575000D01*
G75*
G02*
X206750000Y-64325000I250000J0D01*
G01*
X207550000Y-64325000D01*
G75*
G02*
X207800000Y-64575000I0J-250000D01*
G01*
G37*
G36*
G01*
X204700000Y-64575000D02*
X204700000Y-65825000D01*
G75*
G02*
X204450000Y-66075000I-250000J0D01*
G01*
X203650000Y-66075000D01*
G75*
G02*
X203400000Y-65825000I0J250000D01*
G01*
X203400000Y-64575000D01*
G75*
G02*
X203650000Y-64325000I250000J0D01*
G01*
X204450000Y-64325000D01*
G75*
G02*
X204700000Y-64575000I0J-250000D01*
G01*
G37*
%TD*%
%TO.C,R10*%
G36*
G01*
X190100000Y-64315000D02*
X190100000Y-65565000D01*
G75*
G02*
X189850000Y-65815000I-250000J0D01*
G01*
X189050000Y-65815000D01*
G75*
G02*
X188800000Y-65565000I0J250000D01*
G01*
X188800000Y-64315000D01*
G75*
G02*
X189050000Y-64065000I250000J0D01*
G01*
X189850000Y-64065000D01*
G75*
G02*
X190100000Y-64315000I0J-250000D01*
G01*
G37*
G36*
G01*
X193200000Y-64315000D02*
X193200000Y-65565000D01*
G75*
G02*
X192950000Y-65815000I-250000J0D01*
G01*
X192150000Y-65815000D01*
G75*
G02*
X191900000Y-65565000I0J250000D01*
G01*
X191900000Y-64315000D01*
G75*
G02*
X192150000Y-64065000I250000J0D01*
G01*
X192950000Y-64065000D01*
G75*
G02*
X193200000Y-64315000I0J-250000D01*
G01*
G37*
%TD*%
%TO.C,R11*%
G36*
G01*
X222100000Y-67975000D02*
X222100000Y-69225000D01*
G75*
G02*
X221850000Y-69475000I-250000J0D01*
G01*
X221050000Y-69475000D01*
G75*
G02*
X220800000Y-69225000I0J250000D01*
G01*
X220800000Y-67975000D01*
G75*
G02*
X221050000Y-67725000I250000J0D01*
G01*
X221850000Y-67725000D01*
G75*
G02*
X222100000Y-67975000I0J-250000D01*
G01*
G37*
G36*
G01*
X219000000Y-67975000D02*
X219000000Y-69225000D01*
G75*
G02*
X218750000Y-69475000I-250000J0D01*
G01*
X217950000Y-69475000D01*
G75*
G02*
X217700000Y-69225000I0J250000D01*
G01*
X217700000Y-67975000D01*
G75*
G02*
X217950000Y-67725000I250000J0D01*
G01*
X218750000Y-67725000D01*
G75*
G02*
X219000000Y-67975000I0J-250000D01*
G01*
G37*
%TD*%
%TO.C,R12*%
G36*
G01*
X227600000Y-67975000D02*
X227600000Y-69225000D01*
G75*
G02*
X227350000Y-69475000I-250000J0D01*
G01*
X226550000Y-69475000D01*
G75*
G02*
X226300000Y-69225000I0J250000D01*
G01*
X226300000Y-67975000D01*
G75*
G02*
X226550000Y-67725000I250000J0D01*
G01*
X227350000Y-67725000D01*
G75*
G02*
X227600000Y-67975000I0J-250000D01*
G01*
G37*
G36*
G01*
X224500000Y-67975000D02*
X224500000Y-69225000D01*
G75*
G02*
X224250000Y-69475000I-250000J0D01*
G01*
X223450000Y-69475000D01*
G75*
G02*
X223200000Y-69225000I0J250000D01*
G01*
X223200000Y-67975000D01*
G75*
G02*
X223450000Y-67725000I250000J0D01*
G01*
X224250000Y-67725000D01*
G75*
G02*
X224500000Y-67975000I0J-250000D01*
G01*
G37*
%TD*%
%TO.C,R13*%
G36*
G01*
X207800000Y-68075000D02*
X207800000Y-69325000D01*
G75*
G02*
X207550000Y-69575000I-250000J0D01*
G01*
X206750000Y-69575000D01*
G75*
G02*
X206500000Y-69325000I0J250000D01*
G01*
X206500000Y-68075000D01*
G75*
G02*
X206750000Y-67825000I250000J0D01*
G01*
X207550000Y-67825000D01*
G75*
G02*
X207800000Y-68075000I0J-250000D01*
G01*
G37*
G36*
G01*
X204700000Y-68075000D02*
X204700000Y-69325000D01*
G75*
G02*
X204450000Y-69575000I-250000J0D01*
G01*
X203650000Y-69575000D01*
G75*
G02*
X203400000Y-69325000I0J250000D01*
G01*
X203400000Y-68075000D01*
G75*
G02*
X203650000Y-67825000I250000J0D01*
G01*
X204450000Y-67825000D01*
G75*
G02*
X204700000Y-68075000I0J-250000D01*
G01*
G37*
%TD*%
%TO.C,R14*%
G36*
G01*
X213300000Y-68075000D02*
X213300000Y-69325000D01*
G75*
G02*
X213050000Y-69575000I-250000J0D01*
G01*
X212250000Y-69575000D01*
G75*
G02*
X212000000Y-69325000I0J250000D01*
G01*
X212000000Y-68075000D01*
G75*
G02*
X212250000Y-67825000I250000J0D01*
G01*
X213050000Y-67825000D01*
G75*
G02*
X213300000Y-68075000I0J-250000D01*
G01*
G37*
G36*
G01*
X210200000Y-68075000D02*
X210200000Y-69325000D01*
G75*
G02*
X209950000Y-69575000I-250000J0D01*
G01*
X209150000Y-69575000D01*
G75*
G02*
X208900000Y-69325000I0J250000D01*
G01*
X208900000Y-68075000D01*
G75*
G02*
X209150000Y-67825000I250000J0D01*
G01*
X209950000Y-67825000D01*
G75*
G02*
X210200000Y-68075000I0J-250000D01*
G01*
G37*
%TD*%
%TO.C,R15*%
G36*
G01*
X190100000Y-68005000D02*
X190100000Y-69255000D01*
G75*
G02*
X189850000Y-69505000I-250000J0D01*
G01*
X189050000Y-69505000D01*
G75*
G02*
X188800000Y-69255000I0J250000D01*
G01*
X188800000Y-68005000D01*
G75*
G02*
X189050000Y-67755000I250000J0D01*
G01*
X189850000Y-67755000D01*
G75*
G02*
X190100000Y-68005000I0J-250000D01*
G01*
G37*
G36*
G01*
X193200000Y-68005000D02*
X193200000Y-69255000D01*
G75*
G02*
X192950000Y-69505000I-250000J0D01*
G01*
X192150000Y-69505000D01*
G75*
G02*
X191900000Y-69255000I0J250000D01*
G01*
X191900000Y-68005000D01*
G75*
G02*
X192150000Y-67755000I250000J0D01*
G01*
X192950000Y-67755000D01*
G75*
G02*
X193200000Y-68005000I0J-250000D01*
G01*
G37*
%TD*%
%TO.C,R16*%
G36*
G01*
X195600000Y-68005000D02*
X195600000Y-69255000D01*
G75*
G02*
X195350000Y-69505000I-250000J0D01*
G01*
X194550000Y-69505000D01*
G75*
G02*
X194300000Y-69255000I0J250000D01*
G01*
X194300000Y-68005000D01*
G75*
G02*
X194550000Y-67755000I250000J0D01*
G01*
X195350000Y-67755000D01*
G75*
G02*
X195600000Y-68005000I0J-250000D01*
G01*
G37*
G36*
G01*
X198700000Y-68005000D02*
X198700000Y-69255000D01*
G75*
G02*
X198450000Y-69505000I-250000J0D01*
G01*
X197650000Y-69505000D01*
G75*
G02*
X197400000Y-69255000I0J250000D01*
G01*
X197400000Y-68005000D01*
G75*
G02*
X197650000Y-67755000I250000J0D01*
G01*
X198450000Y-67755000D01*
G75*
G02*
X198700000Y-68005000I0J-250000D01*
G01*
G37*
%TD*%
%TO.C,R17*%
G36*
G01*
X219000000Y-71475000D02*
X219000000Y-72725000D01*
G75*
G02*
X218750000Y-72975000I-250000J0D01*
G01*
X217950000Y-72975000D01*
G75*
G02*
X217700000Y-72725000I0J250000D01*
G01*
X217700000Y-71475000D01*
G75*
G02*
X217950000Y-71225000I250000J0D01*
G01*
X218750000Y-71225000D01*
G75*
G02*
X219000000Y-71475000I0J-250000D01*
G01*
G37*
G36*
G01*
X222100000Y-71475000D02*
X222100000Y-72725000D01*
G75*
G02*
X221850000Y-72975000I-250000J0D01*
G01*
X221050000Y-72975000D01*
G75*
G02*
X220800000Y-72725000I0J250000D01*
G01*
X220800000Y-71475000D01*
G75*
G02*
X221050000Y-71225000I250000J0D01*
G01*
X221850000Y-71225000D01*
G75*
G02*
X222100000Y-71475000I0J-250000D01*
G01*
G37*
%TD*%
%TO.C,R18*%
G36*
G01*
X224600000Y-71475000D02*
X224600000Y-72725000D01*
G75*
G02*
X224350000Y-72975000I-250000J0D01*
G01*
X223550000Y-72975000D01*
G75*
G02*
X223300000Y-72725000I0J250000D01*
G01*
X223300000Y-71475000D01*
G75*
G02*
X223550000Y-71225000I250000J0D01*
G01*
X224350000Y-71225000D01*
G75*
G02*
X224600000Y-71475000I0J-250000D01*
G01*
G37*
G36*
G01*
X227700000Y-71475000D02*
X227700000Y-72725000D01*
G75*
G02*
X227450000Y-72975000I-250000J0D01*
G01*
X226650000Y-72975000D01*
G75*
G02*
X226400000Y-72725000I0J250000D01*
G01*
X226400000Y-71475000D01*
G75*
G02*
X226650000Y-71225000I250000J0D01*
G01*
X227450000Y-71225000D01*
G75*
G02*
X227700000Y-71475000I0J-250000D01*
G01*
G37*
%TD*%
%TO.C,R19*%
G36*
G01*
X207800000Y-71575000D02*
X207800000Y-72825000D01*
G75*
G02*
X207550000Y-73075000I-250000J0D01*
G01*
X206750000Y-73075000D01*
G75*
G02*
X206500000Y-72825000I0J250000D01*
G01*
X206500000Y-71575000D01*
G75*
G02*
X206750000Y-71325000I250000J0D01*
G01*
X207550000Y-71325000D01*
G75*
G02*
X207800000Y-71575000I0J-250000D01*
G01*
G37*
G36*
G01*
X204700000Y-71575000D02*
X204700000Y-72825000D01*
G75*
G02*
X204450000Y-73075000I-250000J0D01*
G01*
X203650000Y-73075000D01*
G75*
G02*
X203400000Y-72825000I0J250000D01*
G01*
X203400000Y-71575000D01*
G75*
G02*
X203650000Y-71325000I250000J0D01*
G01*
X204450000Y-71325000D01*
G75*
G02*
X204700000Y-71575000I0J-250000D01*
G01*
G37*
%TD*%
%TO.C,R20*%
G36*
G01*
X213300000Y-71575000D02*
X213300000Y-72825000D01*
G75*
G02*
X213050000Y-73075000I-250000J0D01*
G01*
X212250000Y-73075000D01*
G75*
G02*
X212000000Y-72825000I0J250000D01*
G01*
X212000000Y-71575000D01*
G75*
G02*
X212250000Y-71325000I250000J0D01*
G01*
X213050000Y-71325000D01*
G75*
G02*
X213300000Y-71575000I0J-250000D01*
G01*
G37*
G36*
G01*
X210200000Y-71575000D02*
X210200000Y-72825000D01*
G75*
G02*
X209950000Y-73075000I-250000J0D01*
G01*
X209150000Y-73075000D01*
G75*
G02*
X208900000Y-72825000I0J250000D01*
G01*
X208900000Y-71575000D01*
G75*
G02*
X209150000Y-71325000I250000J0D01*
G01*
X209950000Y-71325000D01*
G75*
G02*
X210200000Y-71575000I0J-250000D01*
G01*
G37*
%TD*%
%TO.C,R21*%
G36*
G01*
X193200000Y-71575000D02*
X193200000Y-72825000D01*
G75*
G02*
X192950000Y-73075000I-250000J0D01*
G01*
X192150000Y-73075000D01*
G75*
G02*
X191900000Y-72825000I0J250000D01*
G01*
X191900000Y-71575000D01*
G75*
G02*
X192150000Y-71325000I250000J0D01*
G01*
X192950000Y-71325000D01*
G75*
G02*
X193200000Y-71575000I0J-250000D01*
G01*
G37*
G36*
G01*
X190100000Y-71575000D02*
X190100000Y-72825000D01*
G75*
G02*
X189850000Y-73075000I-250000J0D01*
G01*
X189050000Y-73075000D01*
G75*
G02*
X188800000Y-72825000I0J250000D01*
G01*
X188800000Y-71575000D01*
G75*
G02*
X189050000Y-71325000I250000J0D01*
G01*
X189850000Y-71325000D01*
G75*
G02*
X190100000Y-71575000I0J-250000D01*
G01*
G37*
%TD*%
%TO.C,R22*%
G36*
G01*
X195600000Y-71575000D02*
X195600000Y-72825000D01*
G75*
G02*
X195350000Y-73075000I-250000J0D01*
G01*
X194550000Y-73075000D01*
G75*
G02*
X194300000Y-72825000I0J250000D01*
G01*
X194300000Y-71575000D01*
G75*
G02*
X194550000Y-71325000I250000J0D01*
G01*
X195350000Y-71325000D01*
G75*
G02*
X195600000Y-71575000I0J-250000D01*
G01*
G37*
G36*
G01*
X198700000Y-71575000D02*
X198700000Y-72825000D01*
G75*
G02*
X198450000Y-73075000I-250000J0D01*
G01*
X197650000Y-73075000D01*
G75*
G02*
X197400000Y-72825000I0J250000D01*
G01*
X197400000Y-71575000D01*
G75*
G02*
X197650000Y-71325000I250000J0D01*
G01*
X198450000Y-71325000D01*
G75*
G02*
X198700000Y-71575000I0J-250000D01*
G01*
G37*
%TD*%
%TO.C,R23*%
G36*
G01*
X219000000Y-75175000D02*
X219000000Y-76425000D01*
G75*
G02*
X218750000Y-76675000I-250000J0D01*
G01*
X217950000Y-76675000D01*
G75*
G02*
X217700000Y-76425000I0J250000D01*
G01*
X217700000Y-75175000D01*
G75*
G02*
X217950000Y-74925000I250000J0D01*
G01*
X218750000Y-74925000D01*
G75*
G02*
X219000000Y-75175000I0J-250000D01*
G01*
G37*
G36*
G01*
X222100000Y-75175000D02*
X222100000Y-76425000D01*
G75*
G02*
X221850000Y-76675000I-250000J0D01*
G01*
X221050000Y-76675000D01*
G75*
G02*
X220800000Y-76425000I0J250000D01*
G01*
X220800000Y-75175000D01*
G75*
G02*
X221050000Y-74925000I250000J0D01*
G01*
X221850000Y-74925000D01*
G75*
G02*
X222100000Y-75175000I0J-250000D01*
G01*
G37*
%TD*%
%TO.C,R24*%
G36*
G01*
X224600000Y-75175000D02*
X224600000Y-76425000D01*
G75*
G02*
X224350000Y-76675000I-250000J0D01*
G01*
X223550000Y-76675000D01*
G75*
G02*
X223300000Y-76425000I0J250000D01*
G01*
X223300000Y-75175000D01*
G75*
G02*
X223550000Y-74925000I250000J0D01*
G01*
X224350000Y-74925000D01*
G75*
G02*
X224600000Y-75175000I0J-250000D01*
G01*
G37*
G36*
G01*
X227700000Y-75175000D02*
X227700000Y-76425000D01*
G75*
G02*
X227450000Y-76675000I-250000J0D01*
G01*
X226650000Y-76675000D01*
G75*
G02*
X226400000Y-76425000I0J250000D01*
G01*
X226400000Y-75175000D01*
G75*
G02*
X226650000Y-74925000I250000J0D01*
G01*
X227450000Y-74925000D01*
G75*
G02*
X227700000Y-75175000I0J-250000D01*
G01*
G37*
%TD*%
%TO.C,R25*%
G36*
G01*
X204700000Y-75275000D02*
X204700000Y-76525000D01*
G75*
G02*
X204450000Y-76775000I-250000J0D01*
G01*
X203650000Y-76775000D01*
G75*
G02*
X203400000Y-76525000I0J250000D01*
G01*
X203400000Y-75275000D01*
G75*
G02*
X203650000Y-75025000I250000J0D01*
G01*
X204450000Y-75025000D01*
G75*
G02*
X204700000Y-75275000I0J-250000D01*
G01*
G37*
G36*
G01*
X207800000Y-75275000D02*
X207800000Y-76525000D01*
G75*
G02*
X207550000Y-76775000I-250000J0D01*
G01*
X206750000Y-76775000D01*
G75*
G02*
X206500000Y-76525000I0J250000D01*
G01*
X206500000Y-75275000D01*
G75*
G02*
X206750000Y-75025000I250000J0D01*
G01*
X207550000Y-75025000D01*
G75*
G02*
X207800000Y-75275000I0J-250000D01*
G01*
G37*
%TD*%
%TO.C,R26*%
G36*
G01*
X213300000Y-75275000D02*
X213300000Y-76525000D01*
G75*
G02*
X213050000Y-76775000I-250000J0D01*
G01*
X212250000Y-76775000D01*
G75*
G02*
X212000000Y-76525000I0J250000D01*
G01*
X212000000Y-75275000D01*
G75*
G02*
X212250000Y-75025000I250000J0D01*
G01*
X213050000Y-75025000D01*
G75*
G02*
X213300000Y-75275000I0J-250000D01*
G01*
G37*
G36*
G01*
X210200000Y-75275000D02*
X210200000Y-76525000D01*
G75*
G02*
X209950000Y-76775000I-250000J0D01*
G01*
X209150000Y-76775000D01*
G75*
G02*
X208900000Y-76525000I0J250000D01*
G01*
X208900000Y-75275000D01*
G75*
G02*
X209150000Y-75025000I250000J0D01*
G01*
X209950000Y-75025000D01*
G75*
G02*
X210200000Y-75275000I0J-250000D01*
G01*
G37*
%TD*%
%TO.C,R27*%
G36*
G01*
X190100000Y-75245000D02*
X190100000Y-76495000D01*
G75*
G02*
X189850000Y-76745000I-250000J0D01*
G01*
X189050000Y-76745000D01*
G75*
G02*
X188800000Y-76495000I0J250000D01*
G01*
X188800000Y-75245000D01*
G75*
G02*
X189050000Y-74995000I250000J0D01*
G01*
X189850000Y-74995000D01*
G75*
G02*
X190100000Y-75245000I0J-250000D01*
G01*
G37*
G36*
G01*
X193200000Y-75245000D02*
X193200000Y-76495000D01*
G75*
G02*
X192950000Y-76745000I-250000J0D01*
G01*
X192150000Y-76745000D01*
G75*
G02*
X191900000Y-76495000I0J250000D01*
G01*
X191900000Y-75245000D01*
G75*
G02*
X192150000Y-74995000I250000J0D01*
G01*
X192950000Y-74995000D01*
G75*
G02*
X193200000Y-75245000I0J-250000D01*
G01*
G37*
%TD*%
%TO.C,R28*%
G36*
G01*
X198700000Y-75245000D02*
X198700000Y-76495000D01*
G75*
G02*
X198450000Y-76745000I-250000J0D01*
G01*
X197650000Y-76745000D01*
G75*
G02*
X197400000Y-76495000I0J250000D01*
G01*
X197400000Y-75245000D01*
G75*
G02*
X197650000Y-74995000I250000J0D01*
G01*
X198450000Y-74995000D01*
G75*
G02*
X198700000Y-75245000I0J-250000D01*
G01*
G37*
G36*
G01*
X195600000Y-75245000D02*
X195600000Y-76495000D01*
G75*
G02*
X195350000Y-76745000I-250000J0D01*
G01*
X194550000Y-76745000D01*
G75*
G02*
X194300000Y-76495000I0J250000D01*
G01*
X194300000Y-75245000D01*
G75*
G02*
X194550000Y-74995000I250000J0D01*
G01*
X195350000Y-74995000D01*
G75*
G02*
X195600000Y-75245000I0J-250000D01*
G01*
G37*
%TD*%
%TO.C,R49*%
G36*
G01*
X168050000Y-76375000D02*
X168050000Y-77625000D01*
G75*
G02*
X167800000Y-77875000I-250000J0D01*
G01*
X167000000Y-77875000D01*
G75*
G02*
X166750000Y-77625000I0J250000D01*
G01*
X166750000Y-76375000D01*
G75*
G02*
X167000000Y-76125000I250000J0D01*
G01*
X167800000Y-76125000D01*
G75*
G02*
X168050000Y-76375000I0J-250000D01*
G01*
G37*
G36*
G01*
X164950000Y-76375000D02*
X164950000Y-77625000D01*
G75*
G02*
X164700000Y-77875000I-250000J0D01*
G01*
X163900000Y-77875000D01*
G75*
G02*
X163650000Y-77625000I0J250000D01*
G01*
X163650000Y-76375000D01*
G75*
G02*
X163900000Y-76125000I250000J0D01*
G01*
X164700000Y-76125000D01*
G75*
G02*
X164950000Y-76375000I0J-250000D01*
G01*
G37*
%TD*%
%TO.C,R56*%
G36*
G01*
X136625000Y-69200000D02*
X135375000Y-69200000D01*
G75*
G02*
X135125000Y-68950000I0J250000D01*
G01*
X135125000Y-68150000D01*
G75*
G02*
X135375000Y-67900000I250000J0D01*
G01*
X136625000Y-67900000D01*
G75*
G02*
X136875000Y-68150000I0J-250000D01*
G01*
X136875000Y-68950000D01*
G75*
G02*
X136625000Y-69200000I-250000J0D01*
G01*
G37*
G36*
G01*
X136625000Y-66100000D02*
X135375000Y-66100000D01*
G75*
G02*
X135125000Y-65850000I0J250000D01*
G01*
X135125000Y-65050000D01*
G75*
G02*
X135375000Y-64800000I250000J0D01*
G01*
X136625000Y-64800000D01*
G75*
G02*
X136875000Y-65050000I0J-250000D01*
G01*
X136875000Y-65850000D01*
G75*
G02*
X136625000Y-66100000I-250000J0D01*
G01*
G37*
%TD*%
%TO.C,R57*%
G36*
G01*
X140100000Y-74375000D02*
X140100000Y-75625000D01*
G75*
G02*
X139850000Y-75875000I-250000J0D01*
G01*
X139050000Y-75875000D01*
G75*
G02*
X138800000Y-75625000I0J250000D01*
G01*
X138800000Y-74375000D01*
G75*
G02*
X139050000Y-74125000I250000J0D01*
G01*
X139850000Y-74125000D01*
G75*
G02*
X140100000Y-74375000I0J-250000D01*
G01*
G37*
G36*
G01*
X143200000Y-74375000D02*
X143200000Y-75625000D01*
G75*
G02*
X142950000Y-75875000I-250000J0D01*
G01*
X142150000Y-75875000D01*
G75*
G02*
X141900000Y-75625000I0J250000D01*
G01*
X141900000Y-74375000D01*
G75*
G02*
X142150000Y-74125000I250000J0D01*
G01*
X142950000Y-74125000D01*
G75*
G02*
X143200000Y-74375000I0J-250000D01*
G01*
G37*
%TD*%
%TO.C,R58*%
G36*
G01*
X153237500Y-76400000D02*
X152762500Y-76400000D01*
G75*
G02*
X152525000Y-76162500I0J237500D01*
G01*
X152525000Y-75662500D01*
G75*
G02*
X152762500Y-75425000I237500J0D01*
G01*
X153237500Y-75425000D01*
G75*
G02*
X153475000Y-75662500I0J-237500D01*
G01*
X153475000Y-76162500D01*
G75*
G02*
X153237500Y-76400000I-237500J0D01*
G01*
G37*
G36*
G01*
X153237500Y-74575000D02*
X152762500Y-74575000D01*
G75*
G02*
X152525000Y-74337500I0J237500D01*
G01*
X152525000Y-73837500D01*
G75*
G02*
X152762500Y-73600000I237500J0D01*
G01*
X153237500Y-73600000D01*
G75*
G02*
X153475000Y-73837500I0J-237500D01*
G01*
X153475000Y-74337500D01*
G75*
G02*
X153237500Y-74575000I-237500J0D01*
G01*
G37*
%TD*%
%TO.C,U10*%
G36*
G01*
X231950000Y-58045000D02*
X231950000Y-57745000D01*
G75*
G02*
X232100000Y-57595000I150000J0D01*
G01*
X233750000Y-57595000D01*
G75*
G02*
X233900000Y-57745000I0J-150000D01*
G01*
X233900000Y-58045000D01*
G75*
G02*
X233750000Y-58195000I-150000J0D01*
G01*
X232100000Y-58195000D01*
G75*
G02*
X231950000Y-58045000I0J150000D01*
G01*
G37*
G36*
G01*
X231950000Y-59315000D02*
X231950000Y-59015000D01*
G75*
G02*
X232100000Y-58865000I150000J0D01*
G01*
X233750000Y-58865000D01*
G75*
G02*
X233900000Y-59015000I0J-150000D01*
G01*
X233900000Y-59315000D01*
G75*
G02*
X233750000Y-59465000I-150000J0D01*
G01*
X232100000Y-59465000D01*
G75*
G02*
X231950000Y-59315000I0J150000D01*
G01*
G37*
G36*
G01*
X231950000Y-60585000D02*
X231950000Y-60285000D01*
G75*
G02*
X232100000Y-60135000I150000J0D01*
G01*
X233750000Y-60135000D01*
G75*
G02*
X233900000Y-60285000I0J-150000D01*
G01*
X233900000Y-60585000D01*
G75*
G02*
X233750000Y-60735000I-150000J0D01*
G01*
X232100000Y-60735000D01*
G75*
G02*
X231950000Y-60585000I0J150000D01*
G01*
G37*
G36*
G01*
X231950000Y-61855000D02*
X231950000Y-61555000D01*
G75*
G02*
X232100000Y-61405000I150000J0D01*
G01*
X233750000Y-61405000D01*
G75*
G02*
X233900000Y-61555000I0J-150000D01*
G01*
X233900000Y-61855000D01*
G75*
G02*
X233750000Y-62005000I-150000J0D01*
G01*
X232100000Y-62005000D01*
G75*
G02*
X231950000Y-61855000I0J150000D01*
G01*
G37*
G36*
G01*
X236900000Y-61855000D02*
X236900000Y-61555000D01*
G75*
G02*
X237050000Y-61405000I150000J0D01*
G01*
X238700000Y-61405000D01*
G75*
G02*
X238850000Y-61555000I0J-150000D01*
G01*
X238850000Y-61855000D01*
G75*
G02*
X238700000Y-62005000I-150000J0D01*
G01*
X237050000Y-62005000D01*
G75*
G02*
X236900000Y-61855000I0J150000D01*
G01*
G37*
G36*
G01*
X236900000Y-60585000D02*
X236900000Y-60285000D01*
G75*
G02*
X237050000Y-60135000I150000J0D01*
G01*
X238700000Y-60135000D01*
G75*
G02*
X238850000Y-60285000I0J-150000D01*
G01*
X238850000Y-60585000D01*
G75*
G02*
X238700000Y-60735000I-150000J0D01*
G01*
X237050000Y-60735000D01*
G75*
G02*
X236900000Y-60585000I0J150000D01*
G01*
G37*
G36*
G01*
X236900000Y-59315000D02*
X236900000Y-59015000D01*
G75*
G02*
X237050000Y-58865000I150000J0D01*
G01*
X238700000Y-58865000D01*
G75*
G02*
X238850000Y-59015000I0J-150000D01*
G01*
X238850000Y-59315000D01*
G75*
G02*
X238700000Y-59465000I-150000J0D01*
G01*
X237050000Y-59465000D01*
G75*
G02*
X236900000Y-59315000I0J150000D01*
G01*
G37*
G36*
G01*
X236900000Y-58045000D02*
X236900000Y-57745000D01*
G75*
G02*
X237050000Y-57595000I150000J0D01*
G01*
X238700000Y-57595000D01*
G75*
G02*
X238850000Y-57745000I0J-150000D01*
G01*
X238850000Y-58045000D01*
G75*
G02*
X238700000Y-58195000I-150000J0D01*
G01*
X237050000Y-58195000D01*
G75*
G02*
X236900000Y-58045000I0J150000D01*
G01*
G37*
%TD*%
%TO.C,LD5*%
G36*
G01*
X261305000Y-106780000D02*
X260055000Y-106780000D01*
G75*
G02*
X259805000Y-106530000I0J250000D01*
G01*
X259805000Y-105605000D01*
G75*
G02*
X260055000Y-105355000I250000J0D01*
G01*
X261305000Y-105355000D01*
G75*
G02*
X261555000Y-105605000I0J-250000D01*
G01*
X261555000Y-106530000D01*
G75*
G02*
X261305000Y-106780000I-250000J0D01*
G01*
G37*
G36*
G01*
X261305000Y-103805000D02*
X260055000Y-103805000D01*
G75*
G02*
X259805000Y-103555000I0J250000D01*
G01*
X259805000Y-102630000D01*
G75*
G02*
X260055000Y-102380000I250000J0D01*
G01*
X261305000Y-102380000D01*
G75*
G02*
X261555000Y-102630000I0J-250000D01*
G01*
X261555000Y-103555000D01*
G75*
G02*
X261305000Y-103805000I-250000J0D01*
G01*
G37*
%TD*%
%TO.C,Q5*%
X266460000Y-107990000D03*
X268360000Y-107990000D03*
X267410000Y-105990000D03*
%TD*%
%TO.C,R61*%
G36*
G01*
X261070000Y-100185000D02*
X261070000Y-101435000D01*
G75*
G02*
X260820000Y-101685000I-250000J0D01*
G01*
X260020000Y-101685000D01*
G75*
G02*
X259770000Y-101435000I0J250000D01*
G01*
X259770000Y-100185000D01*
G75*
G02*
X260020000Y-99935000I250000J0D01*
G01*
X260820000Y-99935000D01*
G75*
G02*
X261070000Y-100185000I0J-250000D01*
G01*
G37*
G36*
G01*
X264170000Y-100185000D02*
X264170000Y-101435000D01*
G75*
G02*
X263920000Y-101685000I-250000J0D01*
G01*
X263120000Y-101685000D01*
G75*
G02*
X262870000Y-101435000I0J250000D01*
G01*
X262870000Y-100185000D01*
G75*
G02*
X263120000Y-99935000I250000J0D01*
G01*
X263920000Y-99935000D01*
G75*
G02*
X264170000Y-100185000I0J-250000D01*
G01*
G37*
%TD*%
%TO.C,R62*%
G36*
G01*
X263645000Y-105480000D02*
X264895000Y-105480000D01*
G75*
G02*
X265145000Y-105730000I0J-250000D01*
G01*
X265145000Y-106530000D01*
G75*
G02*
X264895000Y-106780000I-250000J0D01*
G01*
X263645000Y-106780000D01*
G75*
G02*
X263395000Y-106530000I0J250000D01*
G01*
X263395000Y-105730000D01*
G75*
G02*
X263645000Y-105480000I250000J0D01*
G01*
G37*
G36*
G01*
X263645000Y-108580000D02*
X264895000Y-108580000D01*
G75*
G02*
X265145000Y-108830000I0J-250000D01*
G01*
X265145000Y-109630000D01*
G75*
G02*
X264895000Y-109880000I-250000J0D01*
G01*
X263645000Y-109880000D01*
G75*
G02*
X263395000Y-109630000I0J250000D01*
G01*
X263395000Y-108830000D01*
G75*
G02*
X263645000Y-108580000I250000J0D01*
G01*
G37*
%TD*%
%TO.C,R63*%
G36*
G01*
X271125000Y-106850000D02*
X269875000Y-106850000D01*
G75*
G02*
X269625000Y-106600000I0J250000D01*
G01*
X269625000Y-105800000D01*
G75*
G02*
X269875000Y-105550000I250000J0D01*
G01*
X271125000Y-105550000D01*
G75*
G02*
X271375000Y-105800000I0J-250000D01*
G01*
X271375000Y-106600000D01*
G75*
G02*
X271125000Y-106850000I-250000J0D01*
G01*
G37*
G36*
G01*
X271125000Y-109950000D02*
X269875000Y-109950000D01*
G75*
G02*
X269625000Y-109700000I0J250000D01*
G01*
X269625000Y-108900000D01*
G75*
G02*
X269875000Y-108650000I250000J0D01*
G01*
X271125000Y-108650000D01*
G75*
G02*
X271375000Y-108900000I0J-250000D01*
G01*
X271375000Y-109700000D01*
G75*
G02*
X271125000Y-109950000I-250000J0D01*
G01*
G37*
%TD*%
%TO.C,R65*%
G36*
G01*
X169820000Y-50075000D02*
X169820000Y-48825000D01*
G75*
G02*
X170070000Y-48575000I250000J0D01*
G01*
X170870000Y-48575000D01*
G75*
G02*
X171120000Y-48825000I0J-250000D01*
G01*
X171120000Y-50075000D01*
G75*
G02*
X170870000Y-50325000I-250000J0D01*
G01*
X170070000Y-50325000D01*
G75*
G02*
X169820000Y-50075000I0J250000D01*
G01*
G37*
G36*
G01*
X172920000Y-50075000D02*
X172920000Y-48825000D01*
G75*
G02*
X173170000Y-48575000I250000J0D01*
G01*
X173970000Y-48575000D01*
G75*
G02*
X174220000Y-48825000I0J-250000D01*
G01*
X174220000Y-50075000D01*
G75*
G02*
X173970000Y-50325000I-250000J0D01*
G01*
X173170000Y-50325000D01*
G75*
G02*
X172920000Y-50075000I0J250000D01*
G01*
G37*
%TD*%
D34*
%TO.C,U17*%
X174740000Y-59220000D03*
X175690000Y-59220000D03*
X176640000Y-59220000D03*
X176640000Y-57020000D03*
X174740000Y-57020000D03*
%TD*%
D17*
%TO.C,U14*%
X154050000Y-89500000D03*
D16*
X147750000Y-89500000D03*
X147750000Y-91800000D03*
X147750000Y-87200000D03*
%TD*%
%TO.C,C2*%
G36*
G01*
X236425000Y-184324999D02*
X236425000Y-185625001D01*
G75*
G02*
X236175001Y-185875000I-249999J0D01*
G01*
X235349999Y-185875000D01*
G75*
G02*
X235100000Y-185625001I0J249999D01*
G01*
X235100000Y-184324999D01*
G75*
G02*
X235349999Y-184075000I249999J0D01*
G01*
X236175001Y-184075000D01*
G75*
G02*
X236425000Y-184324999I0J-249999D01*
G01*
G37*
G36*
G01*
X233300000Y-184324999D02*
X233300000Y-185625001D01*
G75*
G02*
X233050001Y-185875000I-249999J0D01*
G01*
X232224999Y-185875000D01*
G75*
G02*
X231975000Y-185625001I0J249999D01*
G01*
X231975000Y-184324999D01*
G75*
G02*
X232224999Y-184075000I249999J0D01*
G01*
X233050001Y-184075000D01*
G75*
G02*
X233300000Y-184324999I0J-249999D01*
G01*
G37*
%TD*%
%TO.C,C9*%
G36*
G01*
X176800000Y-176250001D02*
X176800000Y-174949999D01*
G75*
G02*
X177049999Y-174700000I249999J0D01*
G01*
X177875001Y-174700000D01*
G75*
G02*
X178125000Y-174949999I0J-249999D01*
G01*
X178125000Y-176250001D01*
G75*
G02*
X177875001Y-176500000I-249999J0D01*
G01*
X177049999Y-176500000D01*
G75*
G02*
X176800000Y-176250001I0J249999D01*
G01*
G37*
G36*
G01*
X173675000Y-176250001D02*
X173675000Y-174949999D01*
G75*
G02*
X173924999Y-174700000I249999J0D01*
G01*
X174750001Y-174700000D01*
G75*
G02*
X175000000Y-174949999I0J-249999D01*
G01*
X175000000Y-176250001D01*
G75*
G02*
X174750001Y-176500000I-249999J0D01*
G01*
X173924999Y-176500000D01*
G75*
G02*
X173675000Y-176250001I0J249999D01*
G01*
G37*
%TD*%
%TO.C,C10*%
G36*
G01*
X220925000Y-186474999D02*
X220925000Y-187775001D01*
G75*
G02*
X220675001Y-188025000I-249999J0D01*
G01*
X219849999Y-188025000D01*
G75*
G02*
X219600000Y-187775001I0J249999D01*
G01*
X219600000Y-186474999D01*
G75*
G02*
X219849999Y-186225000I249999J0D01*
G01*
X220675001Y-186225000D01*
G75*
G02*
X220925000Y-186474999I0J-249999D01*
G01*
G37*
G36*
G01*
X217800000Y-186474999D02*
X217800000Y-187775001D01*
G75*
G02*
X217550001Y-188025000I-249999J0D01*
G01*
X216724999Y-188025000D01*
G75*
G02*
X216475000Y-187775001I0J249999D01*
G01*
X216475000Y-186474999D01*
G75*
G02*
X216724999Y-186225000I249999J0D01*
G01*
X217550001Y-186225000D01*
G75*
G02*
X217800000Y-186474999I0J-249999D01*
G01*
G37*
%TD*%
%TO.C,C12*%
G36*
G01*
X234975000Y-176025001D02*
X234975000Y-174724999D01*
G75*
G02*
X235224999Y-174475000I249999J0D01*
G01*
X236050001Y-174475000D01*
G75*
G02*
X236300000Y-174724999I0J-249999D01*
G01*
X236300000Y-176025001D01*
G75*
G02*
X236050001Y-176275000I-249999J0D01*
G01*
X235224999Y-176275000D01*
G75*
G02*
X234975000Y-176025001I0J249999D01*
G01*
G37*
G36*
G01*
X231850000Y-176025001D02*
X231850000Y-174724999D01*
G75*
G02*
X232099999Y-174475000I249999J0D01*
G01*
X232925001Y-174475000D01*
G75*
G02*
X233175000Y-174724999I0J-249999D01*
G01*
X233175000Y-176025001D01*
G75*
G02*
X232925001Y-176275000I-249999J0D01*
G01*
X232099999Y-176275000D01*
G75*
G02*
X231850000Y-176025001I0J249999D01*
G01*
G37*
%TD*%
%TO.C,C57*%
G36*
G01*
X227925000Y-174724999D02*
X227925000Y-176025001D01*
G75*
G02*
X227675001Y-176275000I-249999J0D01*
G01*
X226849999Y-176275000D01*
G75*
G02*
X226600000Y-176025001I0J249999D01*
G01*
X226600000Y-174724999D01*
G75*
G02*
X226849999Y-174475000I249999J0D01*
G01*
X227675001Y-174475000D01*
G75*
G02*
X227925000Y-174724999I0J-249999D01*
G01*
G37*
G36*
G01*
X231050000Y-174724999D02*
X231050000Y-176025001D01*
G75*
G02*
X230800001Y-176275000I-249999J0D01*
G01*
X229974999Y-176275000D01*
G75*
G02*
X229725000Y-176025001I0J249999D01*
G01*
X229725000Y-174724999D01*
G75*
G02*
X229974999Y-174475000I249999J0D01*
G01*
X230800001Y-174475000D01*
G75*
G02*
X231050000Y-174724999I0J-249999D01*
G01*
G37*
%TD*%
%TO.C,R2*%
G36*
G01*
X234975000Y-180000000D02*
X234975000Y-178750000D01*
G75*
G02*
X235225000Y-178500000I250000J0D01*
G01*
X236025000Y-178500000D01*
G75*
G02*
X236275000Y-178750000I0J-250000D01*
G01*
X236275000Y-180000000D01*
G75*
G02*
X236025000Y-180250000I-250000J0D01*
G01*
X235225000Y-180250000D01*
G75*
G02*
X234975000Y-180000000I0J250000D01*
G01*
G37*
G36*
G01*
X231875000Y-180000000D02*
X231875000Y-178750000D01*
G75*
G02*
X232125000Y-178500000I250000J0D01*
G01*
X232925000Y-178500000D01*
G75*
G02*
X233175000Y-178750000I0J-250000D01*
G01*
X233175000Y-180000000D01*
G75*
G02*
X232925000Y-180250000I-250000J0D01*
G01*
X232125000Y-180250000D01*
G75*
G02*
X231875000Y-180000000I0J250000D01*
G01*
G37*
%TD*%
%TO.C,R7*%
G36*
G01*
X169125000Y-176475000D02*
X170375000Y-176475000D01*
G75*
G02*
X170625000Y-176725000I0J-250000D01*
G01*
X170625000Y-177525000D01*
G75*
G02*
X170375000Y-177775000I-250000J0D01*
G01*
X169125000Y-177775000D01*
G75*
G02*
X168875000Y-177525000I0J250000D01*
G01*
X168875000Y-176725000D01*
G75*
G02*
X169125000Y-176475000I250000J0D01*
G01*
G37*
G36*
G01*
X169125000Y-173375000D02*
X170375000Y-173375000D01*
G75*
G02*
X170625000Y-173625000I0J-250000D01*
G01*
X170625000Y-174425000D01*
G75*
G02*
X170375000Y-174675000I-250000J0D01*
G01*
X169125000Y-174675000D01*
G75*
G02*
X168875000Y-174425000I0J250000D01*
G01*
X168875000Y-173625000D01*
G75*
G02*
X169125000Y-173375000I250000J0D01*
G01*
G37*
%TD*%
%TO.C,R64*%
G36*
G01*
X216000000Y-176275000D02*
X216000000Y-175025000D01*
G75*
G02*
X216250000Y-174775000I250000J0D01*
G01*
X217050000Y-174775000D01*
G75*
G02*
X217300000Y-175025000I0J-250000D01*
G01*
X217300000Y-176275000D01*
G75*
G02*
X217050000Y-176525000I-250000J0D01*
G01*
X216250000Y-176525000D01*
G75*
G02*
X216000000Y-176275000I0J250000D01*
G01*
G37*
G36*
G01*
X219100000Y-176275000D02*
X219100000Y-175025000D01*
G75*
G02*
X219350000Y-174775000I250000J0D01*
G01*
X220150000Y-174775000D01*
G75*
G02*
X220400000Y-175025000I0J-250000D01*
G01*
X220400000Y-176275000D01*
G75*
G02*
X220150000Y-176525000I-250000J0D01*
G01*
X219350000Y-176525000D01*
G75*
G02*
X219100000Y-176275000I0J250000D01*
G01*
G37*
%TD*%
%TO.C,U1*%
G36*
G01*
X243025000Y-184425000D02*
X243225000Y-184425000D01*
G75*
G02*
X243325000Y-184525000I0J-100000D01*
G01*
X243325000Y-185800000D01*
G75*
G02*
X243225000Y-185900000I-100000J0D01*
G01*
X243025000Y-185900000D01*
G75*
G02*
X242925000Y-185800000I0J100000D01*
G01*
X242925000Y-184525000D01*
G75*
G02*
X243025000Y-184425000I100000J0D01*
G01*
G37*
G36*
G01*
X242375000Y-184425000D02*
X242575000Y-184425000D01*
G75*
G02*
X242675000Y-184525000I0J-100000D01*
G01*
X242675000Y-185800000D01*
G75*
G02*
X242575000Y-185900000I-100000J0D01*
G01*
X242375000Y-185900000D01*
G75*
G02*
X242275000Y-185800000I0J100000D01*
G01*
X242275000Y-184525000D01*
G75*
G02*
X242375000Y-184425000I100000J0D01*
G01*
G37*
G36*
G01*
X241725000Y-184425000D02*
X241925000Y-184425000D01*
G75*
G02*
X242025000Y-184525000I0J-100000D01*
G01*
X242025000Y-185800000D01*
G75*
G02*
X241925000Y-185900000I-100000J0D01*
G01*
X241725000Y-185900000D01*
G75*
G02*
X241625000Y-185800000I0J100000D01*
G01*
X241625000Y-184525000D01*
G75*
G02*
X241725000Y-184425000I100000J0D01*
G01*
G37*
G36*
G01*
X241075000Y-184425000D02*
X241275000Y-184425000D01*
G75*
G02*
X241375000Y-184525000I0J-100000D01*
G01*
X241375000Y-185800000D01*
G75*
G02*
X241275000Y-185900000I-100000J0D01*
G01*
X241075000Y-185900000D01*
G75*
G02*
X240975000Y-185800000I0J100000D01*
G01*
X240975000Y-184525000D01*
G75*
G02*
X241075000Y-184425000I100000J0D01*
G01*
G37*
G36*
G01*
X240425000Y-184425000D02*
X240625000Y-184425000D01*
G75*
G02*
X240725000Y-184525000I0J-100000D01*
G01*
X240725000Y-185800000D01*
G75*
G02*
X240625000Y-185900000I-100000J0D01*
G01*
X240425000Y-185900000D01*
G75*
G02*
X240325000Y-185800000I0J100000D01*
G01*
X240325000Y-184525000D01*
G75*
G02*
X240425000Y-184425000I100000J0D01*
G01*
G37*
G36*
G01*
X239775000Y-184425000D02*
X239975000Y-184425000D01*
G75*
G02*
X240075000Y-184525000I0J-100000D01*
G01*
X240075000Y-185800000D01*
G75*
G02*
X239975000Y-185900000I-100000J0D01*
G01*
X239775000Y-185900000D01*
G75*
G02*
X239675000Y-185800000I0J100000D01*
G01*
X239675000Y-184525000D01*
G75*
G02*
X239775000Y-184425000I100000J0D01*
G01*
G37*
G36*
G01*
X239125000Y-184425000D02*
X239325000Y-184425000D01*
G75*
G02*
X239425000Y-184525000I0J-100000D01*
G01*
X239425000Y-185800000D01*
G75*
G02*
X239325000Y-185900000I-100000J0D01*
G01*
X239125000Y-185900000D01*
G75*
G02*
X239025000Y-185800000I0J100000D01*
G01*
X239025000Y-184525000D01*
G75*
G02*
X239125000Y-184425000I100000J0D01*
G01*
G37*
G36*
G01*
X238475000Y-184425000D02*
X238675000Y-184425000D01*
G75*
G02*
X238775000Y-184525000I0J-100000D01*
G01*
X238775000Y-185800000D01*
G75*
G02*
X238675000Y-185900000I-100000J0D01*
G01*
X238475000Y-185900000D01*
G75*
G02*
X238375000Y-185800000I0J100000D01*
G01*
X238375000Y-184525000D01*
G75*
G02*
X238475000Y-184425000I100000J0D01*
G01*
G37*
G36*
G01*
X237825000Y-184425000D02*
X238025000Y-184425000D01*
G75*
G02*
X238125000Y-184525000I0J-100000D01*
G01*
X238125000Y-185800000D01*
G75*
G02*
X238025000Y-185900000I-100000J0D01*
G01*
X237825000Y-185900000D01*
G75*
G02*
X237725000Y-185800000I0J100000D01*
G01*
X237725000Y-184525000D01*
G75*
G02*
X237825000Y-184425000I100000J0D01*
G01*
G37*
G36*
G01*
X237175000Y-184425000D02*
X237375000Y-184425000D01*
G75*
G02*
X237475000Y-184525000I0J-100000D01*
G01*
X237475000Y-185800000D01*
G75*
G02*
X237375000Y-185900000I-100000J0D01*
G01*
X237175000Y-185900000D01*
G75*
G02*
X237075000Y-185800000I0J100000D01*
G01*
X237075000Y-184525000D01*
G75*
G02*
X237175000Y-184425000I100000J0D01*
G01*
G37*
G36*
G01*
X237175000Y-178700000D02*
X237375000Y-178700000D01*
G75*
G02*
X237475000Y-178800000I0J-100000D01*
G01*
X237475000Y-180075000D01*
G75*
G02*
X237375000Y-180175000I-100000J0D01*
G01*
X237175000Y-180175000D01*
G75*
G02*
X237075000Y-180075000I0J100000D01*
G01*
X237075000Y-178800000D01*
G75*
G02*
X237175000Y-178700000I100000J0D01*
G01*
G37*
G36*
G01*
X237825000Y-178700000D02*
X238025000Y-178700000D01*
G75*
G02*
X238125000Y-178800000I0J-100000D01*
G01*
X238125000Y-180075000D01*
G75*
G02*
X238025000Y-180175000I-100000J0D01*
G01*
X237825000Y-180175000D01*
G75*
G02*
X237725000Y-180075000I0J100000D01*
G01*
X237725000Y-178800000D01*
G75*
G02*
X237825000Y-178700000I100000J0D01*
G01*
G37*
G36*
G01*
X238475000Y-178700000D02*
X238675000Y-178700000D01*
G75*
G02*
X238775000Y-178800000I0J-100000D01*
G01*
X238775000Y-180075000D01*
G75*
G02*
X238675000Y-180175000I-100000J0D01*
G01*
X238475000Y-180175000D01*
G75*
G02*
X238375000Y-180075000I0J100000D01*
G01*
X238375000Y-178800000D01*
G75*
G02*
X238475000Y-178700000I100000J0D01*
G01*
G37*
G36*
G01*
X239125000Y-178700000D02*
X239325000Y-178700000D01*
G75*
G02*
X239425000Y-178800000I0J-100000D01*
G01*
X239425000Y-180075000D01*
G75*
G02*
X239325000Y-180175000I-100000J0D01*
G01*
X239125000Y-180175000D01*
G75*
G02*
X239025000Y-180075000I0J100000D01*
G01*
X239025000Y-178800000D01*
G75*
G02*
X239125000Y-178700000I100000J0D01*
G01*
G37*
G36*
G01*
X239775000Y-178700000D02*
X239975000Y-178700000D01*
G75*
G02*
X240075000Y-178800000I0J-100000D01*
G01*
X240075000Y-180075000D01*
G75*
G02*
X239975000Y-180175000I-100000J0D01*
G01*
X239775000Y-180175000D01*
G75*
G02*
X239675000Y-180075000I0J100000D01*
G01*
X239675000Y-178800000D01*
G75*
G02*
X239775000Y-178700000I100000J0D01*
G01*
G37*
G36*
G01*
X240425000Y-178700000D02*
X240625000Y-178700000D01*
G75*
G02*
X240725000Y-178800000I0J-100000D01*
G01*
X240725000Y-180075000D01*
G75*
G02*
X240625000Y-180175000I-100000J0D01*
G01*
X240425000Y-180175000D01*
G75*
G02*
X240325000Y-180075000I0J100000D01*
G01*
X240325000Y-178800000D01*
G75*
G02*
X240425000Y-178700000I100000J0D01*
G01*
G37*
G36*
G01*
X241075000Y-178700000D02*
X241275000Y-178700000D01*
G75*
G02*
X241375000Y-178800000I0J-100000D01*
G01*
X241375000Y-180075000D01*
G75*
G02*
X241275000Y-180175000I-100000J0D01*
G01*
X241075000Y-180175000D01*
G75*
G02*
X240975000Y-180075000I0J100000D01*
G01*
X240975000Y-178800000D01*
G75*
G02*
X241075000Y-178700000I100000J0D01*
G01*
G37*
G36*
G01*
X241725000Y-178700000D02*
X241925000Y-178700000D01*
G75*
G02*
X242025000Y-178800000I0J-100000D01*
G01*
X242025000Y-180075000D01*
G75*
G02*
X241925000Y-180175000I-100000J0D01*
G01*
X241725000Y-180175000D01*
G75*
G02*
X241625000Y-180075000I0J100000D01*
G01*
X241625000Y-178800000D01*
G75*
G02*
X241725000Y-178700000I100000J0D01*
G01*
G37*
G36*
G01*
X242375000Y-178700000D02*
X242575000Y-178700000D01*
G75*
G02*
X242675000Y-178800000I0J-100000D01*
G01*
X242675000Y-180075000D01*
G75*
G02*
X242575000Y-180175000I-100000J0D01*
G01*
X242375000Y-180175000D01*
G75*
G02*
X242275000Y-180075000I0J100000D01*
G01*
X242275000Y-178800000D01*
G75*
G02*
X242375000Y-178700000I100000J0D01*
G01*
G37*
G36*
G01*
X243025000Y-178700000D02*
X243225000Y-178700000D01*
G75*
G02*
X243325000Y-178800000I0J-100000D01*
G01*
X243325000Y-180075000D01*
G75*
G02*
X243225000Y-180175000I-100000J0D01*
G01*
X243025000Y-180175000D01*
G75*
G02*
X242925000Y-180075000I0J100000D01*
G01*
X242925000Y-178800000D01*
G75*
G02*
X243025000Y-178700000I100000J0D01*
G01*
G37*
%TD*%
%TO.C,U4*%
G36*
G01*
X177225000Y-178400000D02*
X177425000Y-178400000D01*
G75*
G02*
X177525000Y-178500000I0J-100000D01*
G01*
X177525000Y-179775000D01*
G75*
G02*
X177425000Y-179875000I-100000J0D01*
G01*
X177225000Y-179875000D01*
G75*
G02*
X177125000Y-179775000I0J100000D01*
G01*
X177125000Y-178500000D01*
G75*
G02*
X177225000Y-178400000I100000J0D01*
G01*
G37*
G36*
G01*
X176575000Y-178400000D02*
X176775000Y-178400000D01*
G75*
G02*
X176875000Y-178500000I0J-100000D01*
G01*
X176875000Y-179775000D01*
G75*
G02*
X176775000Y-179875000I-100000J0D01*
G01*
X176575000Y-179875000D01*
G75*
G02*
X176475000Y-179775000I0J100000D01*
G01*
X176475000Y-178500000D01*
G75*
G02*
X176575000Y-178400000I100000J0D01*
G01*
G37*
G36*
G01*
X175925000Y-178400000D02*
X176125000Y-178400000D01*
G75*
G02*
X176225000Y-178500000I0J-100000D01*
G01*
X176225000Y-179775000D01*
G75*
G02*
X176125000Y-179875000I-100000J0D01*
G01*
X175925000Y-179875000D01*
G75*
G02*
X175825000Y-179775000I0J100000D01*
G01*
X175825000Y-178500000D01*
G75*
G02*
X175925000Y-178400000I100000J0D01*
G01*
G37*
G36*
G01*
X175275000Y-178400000D02*
X175475000Y-178400000D01*
G75*
G02*
X175575000Y-178500000I0J-100000D01*
G01*
X175575000Y-179775000D01*
G75*
G02*
X175475000Y-179875000I-100000J0D01*
G01*
X175275000Y-179875000D01*
G75*
G02*
X175175000Y-179775000I0J100000D01*
G01*
X175175000Y-178500000D01*
G75*
G02*
X175275000Y-178400000I100000J0D01*
G01*
G37*
G36*
G01*
X174625000Y-178400000D02*
X174825000Y-178400000D01*
G75*
G02*
X174925000Y-178500000I0J-100000D01*
G01*
X174925000Y-179775000D01*
G75*
G02*
X174825000Y-179875000I-100000J0D01*
G01*
X174625000Y-179875000D01*
G75*
G02*
X174525000Y-179775000I0J100000D01*
G01*
X174525000Y-178500000D01*
G75*
G02*
X174625000Y-178400000I100000J0D01*
G01*
G37*
G36*
G01*
X173975000Y-178400000D02*
X174175000Y-178400000D01*
G75*
G02*
X174275000Y-178500000I0J-100000D01*
G01*
X174275000Y-179775000D01*
G75*
G02*
X174175000Y-179875000I-100000J0D01*
G01*
X173975000Y-179875000D01*
G75*
G02*
X173875000Y-179775000I0J100000D01*
G01*
X173875000Y-178500000D01*
G75*
G02*
X173975000Y-178400000I100000J0D01*
G01*
G37*
G36*
G01*
X173325000Y-178400000D02*
X173525000Y-178400000D01*
G75*
G02*
X173625000Y-178500000I0J-100000D01*
G01*
X173625000Y-179775000D01*
G75*
G02*
X173525000Y-179875000I-100000J0D01*
G01*
X173325000Y-179875000D01*
G75*
G02*
X173225000Y-179775000I0J100000D01*
G01*
X173225000Y-178500000D01*
G75*
G02*
X173325000Y-178400000I100000J0D01*
G01*
G37*
G36*
G01*
X172675000Y-178400000D02*
X172875000Y-178400000D01*
G75*
G02*
X172975000Y-178500000I0J-100000D01*
G01*
X172975000Y-179775000D01*
G75*
G02*
X172875000Y-179875000I-100000J0D01*
G01*
X172675000Y-179875000D01*
G75*
G02*
X172575000Y-179775000I0J100000D01*
G01*
X172575000Y-178500000D01*
G75*
G02*
X172675000Y-178400000I100000J0D01*
G01*
G37*
G36*
G01*
X172025000Y-178400000D02*
X172225000Y-178400000D01*
G75*
G02*
X172325000Y-178500000I0J-100000D01*
G01*
X172325000Y-179775000D01*
G75*
G02*
X172225000Y-179875000I-100000J0D01*
G01*
X172025000Y-179875000D01*
G75*
G02*
X171925000Y-179775000I0J100000D01*
G01*
X171925000Y-178500000D01*
G75*
G02*
X172025000Y-178400000I100000J0D01*
G01*
G37*
G36*
G01*
X171375000Y-178400000D02*
X171575000Y-178400000D01*
G75*
G02*
X171675000Y-178500000I0J-100000D01*
G01*
X171675000Y-179775000D01*
G75*
G02*
X171575000Y-179875000I-100000J0D01*
G01*
X171375000Y-179875000D01*
G75*
G02*
X171275000Y-179775000I0J100000D01*
G01*
X171275000Y-178500000D01*
G75*
G02*
X171375000Y-178400000I100000J0D01*
G01*
G37*
G36*
G01*
X171375000Y-184125000D02*
X171575000Y-184125000D01*
G75*
G02*
X171675000Y-184225000I0J-100000D01*
G01*
X171675000Y-185500000D01*
G75*
G02*
X171575000Y-185600000I-100000J0D01*
G01*
X171375000Y-185600000D01*
G75*
G02*
X171275000Y-185500000I0J100000D01*
G01*
X171275000Y-184225000D01*
G75*
G02*
X171375000Y-184125000I100000J0D01*
G01*
G37*
G36*
G01*
X172025000Y-184125000D02*
X172225000Y-184125000D01*
G75*
G02*
X172325000Y-184225000I0J-100000D01*
G01*
X172325000Y-185500000D01*
G75*
G02*
X172225000Y-185600000I-100000J0D01*
G01*
X172025000Y-185600000D01*
G75*
G02*
X171925000Y-185500000I0J100000D01*
G01*
X171925000Y-184225000D01*
G75*
G02*
X172025000Y-184125000I100000J0D01*
G01*
G37*
G36*
G01*
X172675000Y-184125000D02*
X172875000Y-184125000D01*
G75*
G02*
X172975000Y-184225000I0J-100000D01*
G01*
X172975000Y-185500000D01*
G75*
G02*
X172875000Y-185600000I-100000J0D01*
G01*
X172675000Y-185600000D01*
G75*
G02*
X172575000Y-185500000I0J100000D01*
G01*
X172575000Y-184225000D01*
G75*
G02*
X172675000Y-184125000I100000J0D01*
G01*
G37*
G36*
G01*
X173325000Y-184125000D02*
X173525000Y-184125000D01*
G75*
G02*
X173625000Y-184225000I0J-100000D01*
G01*
X173625000Y-185500000D01*
G75*
G02*
X173525000Y-185600000I-100000J0D01*
G01*
X173325000Y-185600000D01*
G75*
G02*
X173225000Y-185500000I0J100000D01*
G01*
X173225000Y-184225000D01*
G75*
G02*
X173325000Y-184125000I100000J0D01*
G01*
G37*
G36*
G01*
X173975000Y-184125000D02*
X174175000Y-184125000D01*
G75*
G02*
X174275000Y-184225000I0J-100000D01*
G01*
X174275000Y-185500000D01*
G75*
G02*
X174175000Y-185600000I-100000J0D01*
G01*
X173975000Y-185600000D01*
G75*
G02*
X173875000Y-185500000I0J100000D01*
G01*
X173875000Y-184225000D01*
G75*
G02*
X173975000Y-184125000I100000J0D01*
G01*
G37*
G36*
G01*
X174625000Y-184125000D02*
X174825000Y-184125000D01*
G75*
G02*
X174925000Y-184225000I0J-100000D01*
G01*
X174925000Y-185500000D01*
G75*
G02*
X174825000Y-185600000I-100000J0D01*
G01*
X174625000Y-185600000D01*
G75*
G02*
X174525000Y-185500000I0J100000D01*
G01*
X174525000Y-184225000D01*
G75*
G02*
X174625000Y-184125000I100000J0D01*
G01*
G37*
G36*
G01*
X175275000Y-184125000D02*
X175475000Y-184125000D01*
G75*
G02*
X175575000Y-184225000I0J-100000D01*
G01*
X175575000Y-185500000D01*
G75*
G02*
X175475000Y-185600000I-100000J0D01*
G01*
X175275000Y-185600000D01*
G75*
G02*
X175175000Y-185500000I0J100000D01*
G01*
X175175000Y-184225000D01*
G75*
G02*
X175275000Y-184125000I100000J0D01*
G01*
G37*
G36*
G01*
X175925000Y-184125000D02*
X176125000Y-184125000D01*
G75*
G02*
X176225000Y-184225000I0J-100000D01*
G01*
X176225000Y-185500000D01*
G75*
G02*
X176125000Y-185600000I-100000J0D01*
G01*
X175925000Y-185600000D01*
G75*
G02*
X175825000Y-185500000I0J100000D01*
G01*
X175825000Y-184225000D01*
G75*
G02*
X175925000Y-184125000I100000J0D01*
G01*
G37*
G36*
G01*
X176575000Y-184125000D02*
X176775000Y-184125000D01*
G75*
G02*
X176875000Y-184225000I0J-100000D01*
G01*
X176875000Y-185500000D01*
G75*
G02*
X176775000Y-185600000I-100000J0D01*
G01*
X176575000Y-185600000D01*
G75*
G02*
X176475000Y-185500000I0J100000D01*
G01*
X176475000Y-184225000D01*
G75*
G02*
X176575000Y-184125000I100000J0D01*
G01*
G37*
G36*
G01*
X177225000Y-184125000D02*
X177425000Y-184125000D01*
G75*
G02*
X177525000Y-184225000I0J-100000D01*
G01*
X177525000Y-185500000D01*
G75*
G02*
X177425000Y-185600000I-100000J0D01*
G01*
X177225000Y-185600000D01*
G75*
G02*
X177125000Y-185500000I0J100000D01*
G01*
X177125000Y-184225000D01*
G75*
G02*
X177225000Y-184125000I100000J0D01*
G01*
G37*
%TD*%
D35*
%TO.C,X1*%
X223275000Y-90925000D03*
X225075000Y-90925000D03*
X225075000Y-92325000D03*
X223275000Y-92325000D03*
%TD*%
M02*
