%TF.GenerationSoftware,KiCad,Pcbnew,5.1.9+dfsg1-1+deb11u1*%
%TF.CreationDate,2025-10-27T09:59:13+01:00*%
%TF.ProjectId,VERA-MODULE-RBL,56455241-2d4d-44f4-9455-4c452d52424c,1.0*%
%TF.SameCoordinates,Original*%
%TF.FileFunction,Profile,NP*%
%FSLAX46Y46*%
G04 Gerber Fmt 4.6, Leading zero omitted, Abs format (unit mm)*
G04 Created by KiCad (PCBNEW 5.1.9+dfsg1-1+deb11u1) date 2025-10-27 09:59:13*
%MOMM*%
%LPD*%
G01*
G04 APERTURE LIST*
%TA.AperFunction,Profile*%
%ADD10C,0.150000*%
%TD*%
%TA.AperFunction,Profile*%
%ADD11C,0.010000*%
%TD*%
G04 APERTURE END LIST*
D10*
X275500000Y-133500000D02*
G75*
G02*
X273500000Y-135500000I-2000000J0D01*
G01*
X256500000Y-137500000D02*
G75*
G02*
X258500000Y-135500000I2000000J0D01*
G01*
X256500000Y-186000000D02*
G75*
G02*
X254500000Y-188000000I-2000000J0D01*
G01*
X246500000Y-190000000D02*
G75*
G02*
X248500000Y-188000000I2000000J0D01*
G01*
X204500000Y-188500000D02*
G75*
G02*
X206500000Y-190500000I0J-2000000D01*
G01*
X185500000Y-190500000D02*
G75*
G02*
X187500000Y-188500000I2000000J0D01*
G01*
X163500000Y-188000000D02*
G75*
G02*
X165500000Y-190000000I0J-2000000D01*
G01*
X158500000Y-188000000D02*
G75*
G02*
X156500000Y-186000000I0J2000000D01*
G01*
X154500000Y-134500000D02*
G75*
G02*
X156500000Y-136500000I0J-2000000D01*
G01*
X134500000Y-134500000D02*
G75*
G02*
X132500000Y-132500000I0J2000000D01*
G01*
X132500000Y-49500000D02*
G75*
G02*
X134500000Y-47500000I2000000J0D01*
G01*
X273500000Y-47500000D02*
G75*
G02*
X275500000Y-49500000I0J-2000000D01*
G01*
X185500000Y-210000000D02*
X185500000Y-209500000D01*
X254500000Y-188000000D02*
X248500000Y-188000000D01*
X206500000Y-210000000D02*
X246500000Y-210000000D01*
X246500000Y-210000000D02*
X246500000Y-190000000D01*
X256500000Y-186000000D02*
X256500000Y-137500000D01*
X206500000Y-210000000D02*
X206500000Y-190500000D01*
X204500000Y-188500000D02*
X187500000Y-188500000D01*
X185500000Y-190500000D02*
X185500000Y-209500000D01*
X185500000Y-210000000D02*
X165500000Y-210000000D01*
X165500000Y-210000000D02*
X165500000Y-190000000D01*
X163500000Y-188000000D02*
X158500000Y-188000000D01*
X156500000Y-186000000D02*
X156500000Y-136500000D01*
X154500000Y-134500000D02*
X154500000Y-134500000D01*
X155500000Y-47500000D02*
X256500000Y-47500000D01*
X154500000Y-134500000D02*
X153500000Y-134500000D01*
X153500000Y-47500000D02*
X155500000Y-47500000D01*
X153500000Y-134500000D02*
X134500000Y-134500000D01*
X132500000Y-132500000D02*
X132500000Y-49500000D01*
X134500000Y-47500000D02*
X153500000Y-47500000D01*
X275500000Y-133500000D02*
X275500000Y-49500000D01*
X258500000Y-135500000D02*
X273500000Y-135500000D01*
X273500000Y-47500000D02*
X256500000Y-47500000D01*
D11*
%TO.C,J4*%
X157375000Y-52185000D02*
X157625000Y-52185000D01*
X157625000Y-52815000D02*
X157375000Y-52815000D01*
X157375000Y-52815000D02*
G75*
G02*
X157060000Y-52500000I0J315000D01*
G01*
X157060000Y-52500000D02*
G75*
G02*
X157375000Y-52185000I315000J0D01*
G01*
X157625000Y-52185000D02*
G75*
G02*
X157940000Y-52500000I0J-315000D01*
G01*
X157940000Y-52500000D02*
G75*
G02*
X157625000Y-52815000I-315000J0D01*
G01*
%TD*%
M02*
