M48
; DRILL file {KiCad 5.1.9+dfsg1-1+deb11u1} date Fri Sep 12 10:17:19 2025
; FORMAT={-:-/ absolute / metric / decimal}
; #@! TF.CreationDate,2025-09-12T10:17:19+02:00
; #@! TF.GenerationSoftware,Kicad,Pcbnew,5.1.9+dfsg1-1+deb11u1
; #@! TF.FileFunction,Plated,1,4,PTH
FMAT,2
METRIC
T1C0.200
T2C0.400
T3C0.650
T4C1.000
T5C1.100
T6C3.250
%
G90
G05
T1
X205.33Y-85.4
X206.32Y-84.41
X206.32Y-86.39
X207.31Y-83.42
X207.31Y-85.4
X207.31Y-87.38
X208.3Y-82.43
X208.3Y-84.41
X208.3Y-86.39
X208.3Y-88.37
X209.29Y-83.42
X209.29Y-85.4
X209.29Y-87.38
X210.28Y-84.41
X210.28Y-86.39
X211.27Y-85.4
X242.73Y-117.57
X242.73Y-118.57
X242.73Y-119.57
X242.73Y-120.57
X242.73Y-121.57
X243.73Y-117.57
X243.73Y-118.57
X243.73Y-119.57
X243.73Y-120.57
X243.73Y-121.57
X244.73Y-117.57
X244.73Y-118.57
X244.73Y-119.57
X244.73Y-120.57
X244.73Y-121.57
X245.73Y-117.57
X245.73Y-118.57
X245.73Y-119.57
X245.73Y-120.57
X245.73Y-121.57
X246.73Y-117.57
X246.73Y-118.57
X246.73Y-119.57
X246.73Y-120.57
X246.73Y-121.57
T2
X134.1Y-68.55
X135.975Y-63.5
X136.125Y-76.4
X137.05Y-93.175
X138.0Y-53.025
X138.725Y-61.975
X139.025Y-82.375
X139.975Y-82.375
X141.825Y-90.175
X141.975Y-72.925
X143.525Y-82.0
X144.3Y-79.775
X144.575Y-70.325
X144.875Y-82.0
X144.875Y-83.4
X144.875Y-84.75
X144.875Y-85.925
X146.05Y-82.0
X147.8Y-94.975
X148.175Y-68.05
X149.525Y-76.975
X149.825Y-87.225
X149.95Y-91.75
X150.425Y-82.0
X150.8Y-66.0
X150.85Y-70.35
X152.1Y-61.0
X153.1Y-65.975
X153.125Y-70.35
X153.3Y-83.1
X154.0Y-97.225
X154.05Y-86.675
X155.0Y-59.075
X155.525Y-65.975
X155.65Y-68.0
X155.65Y-70.3
X156.525Y-56.375
X157.38Y-91.0
X157.59Y-50.85
X158.1Y-58.025
X159.71Y-51.9
X160.35Y-61.0
X160.54Y-50.13
X160.9Y-65.0
X161.275Y-96.15
X161.475Y-64.05
X162.218Y-75.262
X163.42Y-50.95
X163.59Y-71.28
X163.78Y-65.87
X164.192Y-58.411
X164.275Y-140.05
X164.425Y-78.625
X164.79Y-94.2
X164.86Y-83.29
X165.0Y-59.0
X165.375Y-140.05
X165.38Y-73.41
X165.97Y-151.75
X166.35Y-183.49
X166.35Y-200.85
X166.45Y-202.6
X166.5Y-140.124
X167.5Y-140.15
X167.63Y-178.27
X167.649Y-182.255
X167.927Y-70.863
X168.18Y-91.16
X168.3Y-100.475
X168.62Y-48.84
X168.627Y-140.15
X169.0Y-132.96
X169.215Y-61.0
X169.7Y-175.55
X169.975Y-140.125
X170.0Y-55.0
X170.0Y-76.1
X170.15Y-70.65
X170.47Y-184.97
X171.12Y-118.79
X171.37Y-88.89
X171.85Y-139.75
X171.95Y-76.15
X172.1Y-70.7
X172.225Y-92.45
X172.325Y-94.75
X172.65Y-190.8
X173.091Y-183.218
X173.275Y-189.825
X173.975Y-97.85
X174.225Y-173.925
X174.319Y-183.421
X174.978Y-68.1
X175.2Y-52.03
X175.29Y-203.1
X175.336Y-182.446
X175.53Y-100.99
X175.725Y-58.1
X175.8Y-60.35
X176.84Y-181.65
X177.1Y-70.4
X177.4Y-80.0
X177.49Y-94.52
X178.04Y-188.75
X178.25Y-190.1
X178.4Y-193.15
X179.0Y-131.0
X179.0Y-133.0
X179.0Y-135.0
X179.0Y-137.0
X179.04Y-175.62
X179.1Y-187.75
X179.75Y-202.55
X180.3Y-53.8
X181.0Y-131.0
X181.0Y-133.0
X181.0Y-135.0
X181.0Y-137.0
X181.3Y-54.6
X181.4Y-98.21
X181.9Y-188.95
X182.365Y-179.75
X182.49Y-182.38
X182.81Y-113.72
X183.0Y-131.0
X183.0Y-133.0
X183.0Y-135.0
X183.0Y-137.0
X183.16Y-192.12
X183.77Y-115.895
X183.815Y-179.75
X184.67Y-113.72
X185.0Y-131.0
X185.0Y-133.0
X185.0Y-135.0
X185.0Y-137.0
X187.0Y-131.0
X187.0Y-133.0
X187.0Y-135.0
X187.0Y-137.0
X189.55Y-90.0
X190.8Y-182.38
X191.47Y-86.73
X192.001Y-61.577
X193.06Y-118.54
X193.455Y-113.73
X194.13Y-138.53
X194.18Y-82.001
X194.92Y-113.69
X195.52Y-118.495
X196.94Y-56.36
X197.68Y-99.88
X197.93Y-133.33
X198.275Y-80.525
X198.58Y-92.76
X199.0Y-162.5
X200.0Y-81.975
X200.001Y-89.721
X200.355Y-179.75
X200.408Y-90.634
X200.8Y-96.0
X200.9Y-115.6
X201.147Y-91.308
X201.149Y-78.9
X201.15Y-87.44
X201.225Y-68.1
X201.87Y-179.75
X202.125Y-91.1
X202.599Y-78.975
X202.9Y-93.9
X202.908Y-81.551
X202.91Y-182.64
X203.678Y-91.234
X204.3Y-49.25
X204.375Y-78.6
X205.0Y-96.2
X205.25Y-185.8
X205.65Y-98.025
X206.14Y-100.86
X206.25Y-90.65
X206.45Y-96.312
X206.55Y-118.51
X206.67Y-113.71
X206.75Y-183.57
X207.2Y-79.7
X207.21Y-182.09
X207.449Y-96.268
X207.7Y-91.35
X208.51Y-96.24
X208.61Y-99.82
X208.75Y-193.84
X208.9Y-120.48
X209.5Y-98.0
X209.53Y-113.72
X209.815Y-90.325
X209.85Y-122.77
X210.1Y-91.6
X210.748Y-90.683
X211.3Y-76.1
X211.4Y-153.0
X211.692Y-91.014
X211.71Y-132.34
X211.76Y-183.6
X211.9Y-115.7
X212.3Y-186.925
X212.4Y-178.725
X212.51Y-103.9
X212.739Y-87.975
X212.955Y-62.57
X213.05Y-55.61
X213.25Y-120.48
X213.33Y-100.42
X213.663Y-203.263
X213.725Y-171.02
X214.29Y-183.42
X214.45Y-155.25
X214.601Y-188.375
X214.75Y-89.2
X214.775Y-143.44
X214.88Y-175.95
X214.9Y-80.269
X214.96Y-126.62
X215.036Y-81.26
X215.23Y-96.33
X215.5Y-82.3
X215.5Y-171.76
X215.525Y-100.36
X215.525Y-113.06
X215.62Y-173.87
X215.77Y-120.47
X215.88Y-188.135
X215.91Y-117.77
X215.95Y-56.78
X216.16Y-122.32
X216.47Y-69.45
X216.67Y-127.11
X216.67Y-182.55
X216.7Y-143.24
X216.92Y-91.92
X217.1Y-130.37
X217.17Y-102.15
X217.467Y-177.894
X217.525Y-82.162
X217.55Y-80.525
X217.75Y-124.975
X217.85Y-182.65
X217.99Y-175.65
X218.26Y-105.37
X218.3Y-177.34
X218.91Y-98.66
X218.94Y-127.555
X219.085Y-133.24
X219.16Y-139.63
X219.32Y-173.43
X219.544Y-88.539
X219.56Y-116.62
X219.616Y-126.508
X220.085Y-170.69
X220.43Y-88.075
X220.512Y-79.391
X220.535Y-133.24
X220.605Y-167.95
X220.845Y-122.7
X220.95Y-70.45
X220.966Y-78.5
X221.01Y-105.93
X221.535Y-173.64
X221.635Y-183.1
X221.825Y-172.54
X221.9Y-83.4
X221.9Y-84.7
X221.95Y-90.925
X221.97Y-130.38
X221.985Y-155.25
X222.0Y-82.1
X222.13Y-96.135
X222.52Y-106.52
X222.62Y-98.82
X222.7Y-56.5
X222.7Y-182.5
X222.73Y-122.69
X222.73Y-122.69
X222.8Y-64.425
X222.83Y-118.53
X222.895Y-176.44
X223.29Y-103.34
X223.45Y-87.97
X223.63Y-183.15
X223.65Y-106.24
X223.8Y-182.0
X223.97Y-143.26
X224.11Y-155.24
X224.3Y-82.1
X224.39Y-84.7
X224.4Y-80.8
X224.4Y-83.3
X224.65Y-181.11
X224.735Y-169.27
X225.41Y-85.62
X225.43Y-108.572
X225.519Y-86.719
X225.695Y-163.13
X225.715Y-130.29
X225.72Y-183.05
X225.75Y-75.75
X225.9Y-167.51
X225.96Y-193.44
X226.25Y-169.17
X226.45Y-92.7
X226.51Y-150.81
X226.775Y-56.175
X226.8Y-111.5
X226.82Y-87.98
X226.822Y-57.912
X226.855Y-166.865
X226.89Y-133.62
X227.02Y-177.63
X227.18Y-132.33
X227.22Y-120.01
X227.38Y-127.11
X227.49Y-130.34
X227.5Y-149.47
X227.51Y-183.08
X227.7Y-51.5
X227.7Y-55.3
X227.775Y-60.375
X227.9Y-145.71
X228.357Y-132.648
X228.4Y-176.94
X228.56Y-86.46
X228.62Y-75.75
X228.63Y-73.84
X228.66Y-124.22
X228.9Y-84.82
X229.17Y-133.44
X229.325Y-62.275
X229.43Y-147.21
X229.459Y-87.16
X229.5Y-48.7
X229.53Y-145.0
X229.59Y-148.92
X229.921Y-177.2
X229.94Y-178.2
X230.17Y-80.04
X230.317Y-107.767
X230.42Y-88.214
X230.5Y-155.89
X230.66Y-64.55
X230.68Y-62.75
X230.696Y-124.0
X230.913Y-127.54
X230.96Y-179.615
X231.1Y-165.45
X231.2Y-54.0
X231.369Y-107.0
X231.425Y-61.725
X231.46Y-170.15
X231.46Y-173.59
X231.542Y-121.698
X231.545Y-123.148
X231.638Y-126.558
X232.125Y-63.075
X232.6Y-111.3
X232.6Y-180.88
X233.0Y-135.0
X233.08Y-131.01
X233.11Y-75.8
X233.32Y-125.36
X233.45Y-183.11
X233.579Y-129.296
X233.585Y-54.0
X233.76Y-140.8
X233.934Y-107.89
X234.04Y-175.36
X234.3Y-143.7
X234.325Y-82.4
X234.418Y-128.012
X234.475Y-54.975
X234.83Y-120.02
X234.939Y-123.57
X234.97Y-84.85
X235.075Y-127.258
X235.42Y-180.95
X235.43Y-79.88
X235.596Y-109.149
X235.62Y-158.53
X235.66Y-124.309
X235.81Y-183.15
X236.075Y-133.0
X236.08Y-116.72
X236.09Y-125.213
X236.15Y-60.425
X236.152Y-127.914
X236.152Y-131.848
X236.17Y-164.19
X236.18Y-177.52
X236.2Y-57.95
X236.2Y-61.675
X236.8Y-119.85
X236.982Y-141.404
X237.0Y-134.0
X237.0Y-136.0
X237.075Y-125.043
X237.15Y-127.85
X237.55Y-113.5
X237.61Y-132.01
X237.91Y-131.03
X238.073Y-124.969
X238.178Y-127.381
X238.32Y-143.27
X238.475Y-64.05
X238.55Y-155.51
X238.6Y-76.02
X238.6Y-80.1
X238.6Y-177.975
X238.863Y-118.077
X238.87Y-121.98
X238.9Y-120.9
X238.912Y-119.076
X238.93Y-176.525
X239.0Y-134.0
X239.0Y-136.0
X239.096Y-180.95
X239.245Y-161.2
X239.325Y-56.9
X239.4Y-54.05
X239.442Y-127.915
X239.55Y-55.3
X239.63Y-131.01
X239.66Y-132.04
X239.69Y-183.16
X239.85Y-117.916
X239.9Y-110.84
X239.9Y-167.85
X239.99Y-161.92
X240.28Y-127.37
X240.29Y-180.95
X240.44Y-170.34
X240.55Y-202.2
X240.87Y-114.475
X241.0Y-134.0
X241.0Y-136.0
X241.0Y-138.0
X241.0Y-140.0
X241.39Y-66.79
X241.62Y-74.91
X241.9Y-182.86
X242.35Y-114.38
X242.44Y-97.69
X242.69Y-103.14
X242.725Y-57.2
X243.0Y-134.0
X243.0Y-136.0
X243.0Y-138.0
X243.0Y-140.0
X243.126Y-124.818
X243.24Y-131.01
X243.3Y-127.39
X243.45Y-62.45
X243.45Y-104.87
X243.49Y-182.05
X243.92Y-175.15
X244.065Y-147.36
X244.17Y-197.35
X244.283Y-105.894
X244.6Y-70.0
X245.0Y-134.0
X245.0Y-136.0
X245.0Y-138.0
X245.0Y-140.0
X245.0Y-146.68
X245.26Y-106.11
X245.7Y-51.75
X245.94Y-87.35
X245.956Y-125.972
X245.985Y-107.122
X246.17Y-127.02
X246.48Y-146.91
X246.5Y-129.815
X246.57Y-140.58
X246.75Y-170.54
X246.9Y-107.525
X247.1Y-51.025
X247.1Y-74.8
X247.175Y-62.75
X247.735Y-124.84
X248.263Y-127.364
X248.325Y-62.7
X248.355Y-138.069
X248.355Y-132.79
X248.375Y-68.275
X248.445Y-126.099
X248.45Y-107.84
X248.5Y-59.325
X248.58Y-106.48
X248.61Y-179.42
X249.0Y-53.225
X249.0Y-114.0
X249.07Y-112.53
X249.09Y-109.97
X249.45Y-66.025
X249.7Y-59.025
X249.998Y-118.508
X250.03Y-144.82
X250.07Y-104.43
X250.08Y-132.29
X250.085Y-127.277
X250.268Y-149.938
X250.3Y-62.3
X250.325Y-65.5
X250.46Y-177.03
X250.725Y-68.3
X251.036Y-119.636
X251.508Y-67.575
X251.775Y-65.96
X252.075Y-114.56
X252.075Y-115.56
X252.075Y-116.56
X252.3Y-53.475
X252.575Y-57.75
X252.65Y-62.125
X252.757Y-65.769
X252.79Y-113.49
X252.79Y-128.71
X252.8Y-117.48
X252.85Y-127.48
X253.14Y-121.88
X253.15Y-118.9
X253.53Y-72.3
X253.875Y-56.512
X254.38Y-126.51
X254.39Y-119.37
X254.95Y-144.5
X255.18Y-108.19
X255.825Y-170.14
X256.54Y-106.21
X257.0Y-134.0
X257.4Y-79.925
X259.42Y-61.63
X259.425Y-56.35
X259.625Y-49.175
X259.8Y-69.9
X261.93Y-119.45
X262.01Y-100.82
X262.4Y-77.4
X270.53Y-107.8
X272.4Y-129.17
T4
X232.86Y-50.0
X235.4Y-50.0
T5
X200.925Y-58.6
X202.07Y-56.06
X202.07Y-61.14
X203.215Y-58.6
X204.36Y-56.06
X204.36Y-61.14
X205.505Y-58.6
X206.65Y-56.06
X206.65Y-61.14
X207.795Y-58.6
X208.94Y-56.06
X208.94Y-61.14
X210.085Y-58.6
X211.23Y-56.06
X211.23Y-61.14
T6
X193.905Y-58.6
X218.895Y-58.6
T3
G00X156.18Y-50.05
M15
G01X156.18Y-48.75
M16
G05
G00X156.18Y-53.725
M15
G01X156.18Y-52.725
M16
G05
G00X164.82Y-50.05
M15
G01X164.82Y-48.75
M16
G05
G00X164.82Y-53.725
M15
G01X164.82Y-52.725
M16
G05
T0
M30
