%TF.GenerationSoftware,KiCad,Pcbnew,5.1.9+dfsg1-1+deb11u1*%
%TF.CreationDate,2025-09-10T12:14:38+02:00*%
%TF.ProjectId,VERA-MODULE-RBL,56455241-2d4d-44f4-9455-4c452d52424c,1.0*%
%TF.SameCoordinates,Original*%
%TF.FileFunction,Paste,Bot*%
%TF.FilePolarity,Positive*%
%FSLAX46Y46*%
G04 Gerber Fmt 4.6, Leading zero omitted, Abs format (unit mm)*
G04 Created by KiCad (PCBNEW 5.1.9+dfsg1-1+deb11u1) date 2025-09-10 12:14:38*
%MOMM*%
%LPD*%
G01*
G04 APERTURE LIST*
%ADD10R,1.930400X5.588000*%
G04 APERTURE END LIST*
%TO.C,U8*%
G36*
G01*
X252450000Y-55725000D02*
X252250000Y-55725000D01*
G75*
G02*
X252150000Y-55625000I0J100000D01*
G01*
X252150000Y-54350000D01*
G75*
G02*
X252250000Y-54250000I100000J0D01*
G01*
X252450000Y-54250000D01*
G75*
G02*
X252550000Y-54350000I0J-100000D01*
G01*
X252550000Y-55625000D01*
G75*
G02*
X252450000Y-55725000I-100000J0D01*
G01*
G37*
G36*
G01*
X251800000Y-55725000D02*
X251600000Y-55725000D01*
G75*
G02*
X251500000Y-55625000I0J100000D01*
G01*
X251500000Y-54350000D01*
G75*
G02*
X251600000Y-54250000I100000J0D01*
G01*
X251800000Y-54250000D01*
G75*
G02*
X251900000Y-54350000I0J-100000D01*
G01*
X251900000Y-55625000D01*
G75*
G02*
X251800000Y-55725000I-100000J0D01*
G01*
G37*
G36*
G01*
X251150000Y-55725000D02*
X250950000Y-55725000D01*
G75*
G02*
X250850000Y-55625000I0J100000D01*
G01*
X250850000Y-54350000D01*
G75*
G02*
X250950000Y-54250000I100000J0D01*
G01*
X251150000Y-54250000D01*
G75*
G02*
X251250000Y-54350000I0J-100000D01*
G01*
X251250000Y-55625000D01*
G75*
G02*
X251150000Y-55725000I-100000J0D01*
G01*
G37*
G36*
G01*
X250500000Y-55725000D02*
X250300000Y-55725000D01*
G75*
G02*
X250200000Y-55625000I0J100000D01*
G01*
X250200000Y-54350000D01*
G75*
G02*
X250300000Y-54250000I100000J0D01*
G01*
X250500000Y-54250000D01*
G75*
G02*
X250600000Y-54350000I0J-100000D01*
G01*
X250600000Y-55625000D01*
G75*
G02*
X250500000Y-55725000I-100000J0D01*
G01*
G37*
G36*
G01*
X249850000Y-55725000D02*
X249650000Y-55725000D01*
G75*
G02*
X249550000Y-55625000I0J100000D01*
G01*
X249550000Y-54350000D01*
G75*
G02*
X249650000Y-54250000I100000J0D01*
G01*
X249850000Y-54250000D01*
G75*
G02*
X249950000Y-54350000I0J-100000D01*
G01*
X249950000Y-55625000D01*
G75*
G02*
X249850000Y-55725000I-100000J0D01*
G01*
G37*
G36*
G01*
X249200000Y-55725000D02*
X249000000Y-55725000D01*
G75*
G02*
X248900000Y-55625000I0J100000D01*
G01*
X248900000Y-54350000D01*
G75*
G02*
X249000000Y-54250000I100000J0D01*
G01*
X249200000Y-54250000D01*
G75*
G02*
X249300000Y-54350000I0J-100000D01*
G01*
X249300000Y-55625000D01*
G75*
G02*
X249200000Y-55725000I-100000J0D01*
G01*
G37*
G36*
G01*
X248550000Y-55725000D02*
X248350000Y-55725000D01*
G75*
G02*
X248250000Y-55625000I0J100000D01*
G01*
X248250000Y-54350000D01*
G75*
G02*
X248350000Y-54250000I100000J0D01*
G01*
X248550000Y-54250000D01*
G75*
G02*
X248650000Y-54350000I0J-100000D01*
G01*
X248650000Y-55625000D01*
G75*
G02*
X248550000Y-55725000I-100000J0D01*
G01*
G37*
G36*
G01*
X248550000Y-61450000D02*
X248350000Y-61450000D01*
G75*
G02*
X248250000Y-61350000I0J100000D01*
G01*
X248250000Y-60075000D01*
G75*
G02*
X248350000Y-59975000I100000J0D01*
G01*
X248550000Y-59975000D01*
G75*
G02*
X248650000Y-60075000I0J-100000D01*
G01*
X248650000Y-61350000D01*
G75*
G02*
X248550000Y-61450000I-100000J0D01*
G01*
G37*
G36*
G01*
X249200000Y-61450000D02*
X249000000Y-61450000D01*
G75*
G02*
X248900000Y-61350000I0J100000D01*
G01*
X248900000Y-60075000D01*
G75*
G02*
X249000000Y-59975000I100000J0D01*
G01*
X249200000Y-59975000D01*
G75*
G02*
X249300000Y-60075000I0J-100000D01*
G01*
X249300000Y-61350000D01*
G75*
G02*
X249200000Y-61450000I-100000J0D01*
G01*
G37*
G36*
G01*
X249850000Y-61450000D02*
X249650000Y-61450000D01*
G75*
G02*
X249550000Y-61350000I0J100000D01*
G01*
X249550000Y-60075000D01*
G75*
G02*
X249650000Y-59975000I100000J0D01*
G01*
X249850000Y-59975000D01*
G75*
G02*
X249950000Y-60075000I0J-100000D01*
G01*
X249950000Y-61350000D01*
G75*
G02*
X249850000Y-61450000I-100000J0D01*
G01*
G37*
G36*
G01*
X250500000Y-61450000D02*
X250300000Y-61450000D01*
G75*
G02*
X250200000Y-61350000I0J100000D01*
G01*
X250200000Y-60075000D01*
G75*
G02*
X250300000Y-59975000I100000J0D01*
G01*
X250500000Y-59975000D01*
G75*
G02*
X250600000Y-60075000I0J-100000D01*
G01*
X250600000Y-61350000D01*
G75*
G02*
X250500000Y-61450000I-100000J0D01*
G01*
G37*
G36*
G01*
X251150000Y-61450000D02*
X250950000Y-61450000D01*
G75*
G02*
X250850000Y-61350000I0J100000D01*
G01*
X250850000Y-60075000D01*
G75*
G02*
X250950000Y-59975000I100000J0D01*
G01*
X251150000Y-59975000D01*
G75*
G02*
X251250000Y-60075000I0J-100000D01*
G01*
X251250000Y-61350000D01*
G75*
G02*
X251150000Y-61450000I-100000J0D01*
G01*
G37*
G36*
G01*
X251800000Y-61450000D02*
X251600000Y-61450000D01*
G75*
G02*
X251500000Y-61350000I0J100000D01*
G01*
X251500000Y-60075000D01*
G75*
G02*
X251600000Y-59975000I100000J0D01*
G01*
X251800000Y-59975000D01*
G75*
G02*
X251900000Y-60075000I0J-100000D01*
G01*
X251900000Y-61350000D01*
G75*
G02*
X251800000Y-61450000I-100000J0D01*
G01*
G37*
G36*
G01*
X252450000Y-61450000D02*
X252250000Y-61450000D01*
G75*
G02*
X252150000Y-61350000I0J100000D01*
G01*
X252150000Y-60075000D01*
G75*
G02*
X252250000Y-59975000I100000J0D01*
G01*
X252450000Y-59975000D01*
G75*
G02*
X252550000Y-60075000I0J-100000D01*
G01*
X252550000Y-61350000D01*
G75*
G02*
X252450000Y-61450000I-100000J0D01*
G01*
G37*
%TD*%
%TO.C,R45*%
G36*
G01*
X229200000Y-79274999D02*
X229200000Y-80525001D01*
G75*
G02*
X228950001Y-80775000I-249999J0D01*
G01*
X228149999Y-80775000D01*
G75*
G02*
X227900000Y-80525001I0J249999D01*
G01*
X227900000Y-79274999D01*
G75*
G02*
X228149999Y-79025000I249999J0D01*
G01*
X228950001Y-79025000D01*
G75*
G02*
X229200000Y-79274999I0J-249999D01*
G01*
G37*
G36*
G01*
X232300000Y-79274999D02*
X232300000Y-80525001D01*
G75*
G02*
X232050001Y-80775000I-249999J0D01*
G01*
X231249999Y-80775000D01*
G75*
G02*
X231000000Y-80525001I0J249999D01*
G01*
X231000000Y-79274999D01*
G75*
G02*
X231249999Y-79025000I249999J0D01*
G01*
X232050001Y-79025000D01*
G75*
G02*
X232300000Y-79274999I0J-249999D01*
G01*
G37*
%TD*%
%TO.C,R36*%
G36*
G01*
X181125001Y-183600000D02*
X179874999Y-183600000D01*
G75*
G02*
X179625000Y-183350001I0J249999D01*
G01*
X179625000Y-182549999D01*
G75*
G02*
X179874999Y-182300000I249999J0D01*
G01*
X181125001Y-182300000D01*
G75*
G02*
X181375000Y-182549999I0J-249999D01*
G01*
X181375000Y-183350001D01*
G75*
G02*
X181125001Y-183600000I-249999J0D01*
G01*
G37*
G36*
G01*
X181125001Y-186700000D02*
X179874999Y-186700000D01*
G75*
G02*
X179625000Y-186450001I0J249999D01*
G01*
X179625000Y-185649999D01*
G75*
G02*
X179874999Y-185400000I249999J0D01*
G01*
X181125001Y-185400000D01*
G75*
G02*
X181375000Y-185649999I0J-249999D01*
G01*
X181375000Y-186450001D01*
G75*
G02*
X181125001Y-186700000I-249999J0D01*
G01*
G37*
%TD*%
%TO.C,R35*%
G36*
G01*
X177525001Y-183600000D02*
X176274999Y-183600000D01*
G75*
G02*
X176025000Y-183350001I0J249999D01*
G01*
X176025000Y-182549999D01*
G75*
G02*
X176274999Y-182300000I249999J0D01*
G01*
X177525001Y-182300000D01*
G75*
G02*
X177775000Y-182549999I0J-249999D01*
G01*
X177775000Y-183350001D01*
G75*
G02*
X177525001Y-183600000I-249999J0D01*
G01*
G37*
G36*
G01*
X177525001Y-186700000D02*
X176274999Y-186700000D01*
G75*
G02*
X176025000Y-186450001I0J249999D01*
G01*
X176025000Y-185649999D01*
G75*
G02*
X176274999Y-185400000I249999J0D01*
G01*
X177525001Y-185400000D01*
G75*
G02*
X177775000Y-185649999I0J-249999D01*
G01*
X177775000Y-186450001D01*
G75*
G02*
X177525001Y-186700000I-249999J0D01*
G01*
G37*
%TD*%
%TO.C,C35*%
G36*
G01*
X232840000Y-85470003D02*
X232840000Y-84169997D01*
G75*
G02*
X233089997Y-83920000I249997J0D01*
G01*
X233915003Y-83920000D01*
G75*
G02*
X234165000Y-84169997I0J-249997D01*
G01*
X234165000Y-85470003D01*
G75*
G02*
X233915003Y-85720000I-249997J0D01*
G01*
X233089997Y-85720000D01*
G75*
G02*
X232840000Y-85470003I0J249997D01*
G01*
G37*
G36*
G01*
X229715000Y-85470003D02*
X229715000Y-84169997D01*
G75*
G02*
X229964997Y-83920000I249997J0D01*
G01*
X230790003Y-83920000D01*
G75*
G02*
X231040000Y-84169997I0J-249997D01*
G01*
X231040000Y-85470003D01*
G75*
G02*
X230790003Y-85720000I-249997J0D01*
G01*
X229964997Y-85720000D01*
G75*
G02*
X229715000Y-85470003I0J249997D01*
G01*
G37*
%TD*%
%TO.C,C33*%
G36*
G01*
X223800000Y-76425003D02*
X223800000Y-75124997D01*
G75*
G02*
X224049997Y-74875000I249997J0D01*
G01*
X224875003Y-74875000D01*
G75*
G02*
X225125000Y-75124997I0J-249997D01*
G01*
X225125000Y-76425003D01*
G75*
G02*
X224875003Y-76675000I-249997J0D01*
G01*
X224049997Y-76675000D01*
G75*
G02*
X223800000Y-76425003I0J249997D01*
G01*
G37*
G36*
G01*
X220675000Y-76425003D02*
X220675000Y-75124997D01*
G75*
G02*
X220924997Y-74875000I249997J0D01*
G01*
X221750003Y-74875000D01*
G75*
G02*
X222000000Y-75124997I0J-249997D01*
G01*
X222000000Y-76425003D01*
G75*
G02*
X221750003Y-76675000I-249997J0D01*
G01*
X220924997Y-76675000D01*
G75*
G02*
X220675000Y-76425003I0J249997D01*
G01*
G37*
%TD*%
%TO.C,C32*%
G36*
G01*
X218175003Y-79700000D02*
X216874997Y-79700000D01*
G75*
G02*
X216625000Y-79450003I0J249997D01*
G01*
X216625000Y-78624997D01*
G75*
G02*
X216874997Y-78375000I249997J0D01*
G01*
X218175003Y-78375000D01*
G75*
G02*
X218425000Y-78624997I0J-249997D01*
G01*
X218425000Y-79450003D01*
G75*
G02*
X218175003Y-79700000I-249997J0D01*
G01*
G37*
G36*
G01*
X218175003Y-82825000D02*
X216874997Y-82825000D01*
G75*
G02*
X216625000Y-82575003I0J249997D01*
G01*
X216625000Y-81749997D01*
G75*
G02*
X216874997Y-81500000I249997J0D01*
G01*
X218175003Y-81500000D01*
G75*
G02*
X218425000Y-81749997I0J-249997D01*
G01*
X218425000Y-82575003D01*
G75*
G02*
X218175003Y-82825000I-249997J0D01*
G01*
G37*
%TD*%
%TO.C,C31*%
G36*
G01*
X236300000Y-80650003D02*
X236300000Y-79349997D01*
G75*
G02*
X236549997Y-79100000I249997J0D01*
G01*
X237375003Y-79100000D01*
G75*
G02*
X237625000Y-79349997I0J-249997D01*
G01*
X237625000Y-80650003D01*
G75*
G02*
X237375003Y-80900000I-249997J0D01*
G01*
X236549997Y-80900000D01*
G75*
G02*
X236300000Y-80650003I0J249997D01*
G01*
G37*
G36*
G01*
X233175000Y-80650003D02*
X233175000Y-79349997D01*
G75*
G02*
X233424997Y-79100000I249997J0D01*
G01*
X234250003Y-79100000D01*
G75*
G02*
X234500000Y-79349997I0J-249997D01*
G01*
X234500000Y-80650003D01*
G75*
G02*
X234250003Y-80900000I-249997J0D01*
G01*
X233424997Y-80900000D01*
G75*
G02*
X233175000Y-80650003I0J249997D01*
G01*
G37*
%TD*%
%TO.C,C29*%
G36*
G01*
X240300000Y-54700003D02*
X240300000Y-53399997D01*
G75*
G02*
X240549997Y-53150000I249997J0D01*
G01*
X241375003Y-53150000D01*
G75*
G02*
X241625000Y-53399997I0J-249997D01*
G01*
X241625000Y-54700003D01*
G75*
G02*
X241375003Y-54950000I-249997J0D01*
G01*
X240549997Y-54950000D01*
G75*
G02*
X240300000Y-54700003I0J249997D01*
G01*
G37*
G36*
G01*
X237175000Y-54700003D02*
X237175000Y-53399997D01*
G75*
G02*
X237424997Y-53150000I249997J0D01*
G01*
X238250003Y-53150000D01*
G75*
G02*
X238500000Y-53399997I0J-249997D01*
G01*
X238500000Y-54700003D01*
G75*
G02*
X238250003Y-54950000I-249997J0D01*
G01*
X237424997Y-54950000D01*
G75*
G02*
X237175000Y-54700003I0J249997D01*
G01*
G37*
%TD*%
%TO.C,C27*%
G36*
G01*
X249700000Y-50249997D02*
X249700000Y-51550003D01*
G75*
G02*
X249450003Y-51800000I-249997J0D01*
G01*
X248624997Y-51800000D01*
G75*
G02*
X248375000Y-51550003I0J249997D01*
G01*
X248375000Y-50249997D01*
G75*
G02*
X248624997Y-50000000I249997J0D01*
G01*
X249450003Y-50000000D01*
G75*
G02*
X249700000Y-50249997I0J-249997D01*
G01*
G37*
G36*
G01*
X252825000Y-50249997D02*
X252825000Y-51550003D01*
G75*
G02*
X252575003Y-51800000I-249997J0D01*
G01*
X251749997Y-51800000D01*
G75*
G02*
X251500000Y-51550003I0J249997D01*
G01*
X251500000Y-50249997D01*
G75*
G02*
X251749997Y-50000000I249997J0D01*
G01*
X252575003Y-50000000D01*
G75*
G02*
X252825000Y-50249997I0J-249997D01*
G01*
G37*
%TD*%
%TO.C,C26*%
G36*
G01*
X257350000Y-51100003D02*
X257350000Y-49799997D01*
G75*
G02*
X257599997Y-49550000I249997J0D01*
G01*
X258425003Y-49550000D01*
G75*
G02*
X258675000Y-49799997I0J-249997D01*
G01*
X258675000Y-51100003D01*
G75*
G02*
X258425003Y-51350000I-249997J0D01*
G01*
X257599997Y-51350000D01*
G75*
G02*
X257350000Y-51100003I0J249997D01*
G01*
G37*
G36*
G01*
X254225000Y-51100003D02*
X254225000Y-49799997D01*
G75*
G02*
X254474997Y-49550000I249997J0D01*
G01*
X255300003Y-49550000D01*
G75*
G02*
X255550000Y-49799997I0J-249997D01*
G01*
X255550000Y-51100003D01*
G75*
G02*
X255300003Y-51350000I-249997J0D01*
G01*
X254474997Y-51350000D01*
G75*
G02*
X254225000Y-51100003I0J249997D01*
G01*
G37*
%TD*%
%TO.C,C3*%
G36*
G01*
X207500000Y-74849997D02*
X207500000Y-76150003D01*
G75*
G02*
X207250003Y-76400000I-249997J0D01*
G01*
X206424997Y-76400000D01*
G75*
G02*
X206175000Y-76150003I0J249997D01*
G01*
X206175000Y-74849997D01*
G75*
G02*
X206424997Y-74600000I249997J0D01*
G01*
X207250003Y-74600000D01*
G75*
G02*
X207500000Y-74849997I0J-249997D01*
G01*
G37*
G36*
G01*
X210625000Y-74849997D02*
X210625000Y-76150003D01*
G75*
G02*
X210375003Y-76400000I-249997J0D01*
G01*
X209549997Y-76400000D01*
G75*
G02*
X209300000Y-76150003I0J249997D01*
G01*
X209300000Y-74849997D01*
G75*
G02*
X209549997Y-74600000I249997J0D01*
G01*
X210375003Y-74600000D01*
G75*
G02*
X210625000Y-74849997I0J-249997D01*
G01*
G37*
%TD*%
%TO.C,C6*%
G36*
G01*
X209300000Y-78650003D02*
X209300000Y-77349997D01*
G75*
G02*
X209549997Y-77100000I249997J0D01*
G01*
X210375003Y-77100000D01*
G75*
G02*
X210625000Y-77349997I0J-249997D01*
G01*
X210625000Y-78650003D01*
G75*
G02*
X210375003Y-78900000I-249997J0D01*
G01*
X209549997Y-78900000D01*
G75*
G02*
X209300000Y-78650003I0J249997D01*
G01*
G37*
G36*
G01*
X206175000Y-78650003D02*
X206175000Y-77349997D01*
G75*
G02*
X206424997Y-77100000I249997J0D01*
G01*
X207250003Y-77100000D01*
G75*
G02*
X207500000Y-77349997I0J-249997D01*
G01*
X207500000Y-78650003D01*
G75*
G02*
X207250003Y-78900000I-249997J0D01*
G01*
X206424997Y-78900000D01*
G75*
G02*
X206175000Y-78650003I0J249997D01*
G01*
G37*
%TD*%
%TO.C,C7*%
G36*
G01*
X202400000Y-79849997D02*
X202400000Y-81150003D01*
G75*
G02*
X202150003Y-81400000I-249997J0D01*
G01*
X201324997Y-81400000D01*
G75*
G02*
X201075000Y-81150003I0J249997D01*
G01*
X201075000Y-79849997D01*
G75*
G02*
X201324997Y-79600000I249997J0D01*
G01*
X202150003Y-79600000D01*
G75*
G02*
X202400000Y-79849997I0J-249997D01*
G01*
G37*
G36*
G01*
X205525000Y-79849997D02*
X205525000Y-81150003D01*
G75*
G02*
X205275003Y-81400000I-249997J0D01*
G01*
X204449997Y-81400000D01*
G75*
G02*
X204200000Y-81150003I0J249997D01*
G01*
X204200000Y-79849997D01*
G75*
G02*
X204449997Y-79600000I249997J0D01*
G01*
X205275003Y-79600000D01*
G75*
G02*
X205525000Y-79849997I0J-249997D01*
G01*
G37*
%TD*%
%TO.C,C13*%
G36*
G01*
X242915000Y-108439997D02*
X242915000Y-109740003D01*
G75*
G02*
X242665003Y-109990000I-249997J0D01*
G01*
X241839997Y-109990000D01*
G75*
G02*
X241590000Y-109740003I0J249997D01*
G01*
X241590000Y-108439997D01*
G75*
G02*
X241839997Y-108190000I249997J0D01*
G01*
X242665003Y-108190000D01*
G75*
G02*
X242915000Y-108439997I0J-249997D01*
G01*
G37*
G36*
G01*
X239790000Y-108439997D02*
X239790000Y-109740003D01*
G75*
G02*
X239540003Y-109990000I-249997J0D01*
G01*
X238714997Y-109990000D01*
G75*
G02*
X238465000Y-109740003I0J249997D01*
G01*
X238465000Y-108439997D01*
G75*
G02*
X238714997Y-108190000I249997J0D01*
G01*
X239540003Y-108190000D01*
G75*
G02*
X239790000Y-108439997I0J-249997D01*
G01*
G37*
%TD*%
%TO.C,C14*%
G36*
G01*
X242935000Y-111769997D02*
X242935000Y-113070003D01*
G75*
G02*
X242685003Y-113320000I-249997J0D01*
G01*
X241859997Y-113320000D01*
G75*
G02*
X241610000Y-113070003I0J249997D01*
G01*
X241610000Y-111769997D01*
G75*
G02*
X241859997Y-111520000I249997J0D01*
G01*
X242685003Y-111520000D01*
G75*
G02*
X242935000Y-111769997I0J-249997D01*
G01*
G37*
G36*
G01*
X239810000Y-111769997D02*
X239810000Y-113070003D01*
G75*
G02*
X239560003Y-113320000I-249997J0D01*
G01*
X238734997Y-113320000D01*
G75*
G02*
X238485000Y-113070003I0J249997D01*
G01*
X238485000Y-111769997D01*
G75*
G02*
X238734997Y-111520000I249997J0D01*
G01*
X239560003Y-111520000D01*
G75*
G02*
X239810000Y-111769997I0J-249997D01*
G01*
G37*
%TD*%
%TO.C,C53*%
G36*
G01*
X194437500Y-53899997D02*
X194437500Y-55200003D01*
G75*
G02*
X194187503Y-55450000I-249997J0D01*
G01*
X193362497Y-55450000D01*
G75*
G02*
X193112500Y-55200003I0J249997D01*
G01*
X193112500Y-53899997D01*
G75*
G02*
X193362497Y-53650000I249997J0D01*
G01*
X194187503Y-53650000D01*
G75*
G02*
X194437500Y-53899997I0J-249997D01*
G01*
G37*
G36*
G01*
X197562500Y-53899997D02*
X197562500Y-55200003D01*
G75*
G02*
X197312503Y-55450000I-249997J0D01*
G01*
X196487497Y-55450000D01*
G75*
G02*
X196237500Y-55200003I0J249997D01*
G01*
X196237500Y-53899997D01*
G75*
G02*
X196487497Y-53650000I249997J0D01*
G01*
X197312503Y-53650000D01*
G75*
G02*
X197562500Y-53899997I0J-249997D01*
G01*
G37*
%TD*%
%TO.C,C54*%
G36*
G01*
X215285000Y-55530003D02*
X215285000Y-54229997D01*
G75*
G02*
X215534997Y-53980000I249997J0D01*
G01*
X216360003Y-53980000D01*
G75*
G02*
X216610000Y-54229997I0J-249997D01*
G01*
X216610000Y-55530003D01*
G75*
G02*
X216360003Y-55780000I-249997J0D01*
G01*
X215534997Y-55780000D01*
G75*
G02*
X215285000Y-55530003I0J249997D01*
G01*
G37*
G36*
G01*
X218410000Y-55530003D02*
X218410000Y-54229997D01*
G75*
G02*
X218659997Y-53980000I249997J0D01*
G01*
X219485003Y-53980000D01*
G75*
G02*
X219735000Y-54229997I0J-249997D01*
G01*
X219735000Y-55530003D01*
G75*
G02*
X219485003Y-55780000I-249997J0D01*
G01*
X218659997Y-55780000D01*
G75*
G02*
X218410000Y-55530003I0J249997D01*
G01*
G37*
%TD*%
D10*
%TO.C,CART1*%
X244430000Y-207000000D03*
X241890000Y-207000000D03*
X239350000Y-207000000D03*
X236810000Y-207000000D03*
X234270000Y-207000000D03*
X231730000Y-207000000D03*
X229190000Y-207000000D03*
X226650000Y-207000000D03*
X224110000Y-207000000D03*
X221570000Y-207000000D03*
X219030000Y-207000000D03*
X216490000Y-207000000D03*
X213950000Y-207000000D03*
X211410000Y-207000000D03*
X208870000Y-207000000D03*
%TD*%
%TO.C,ECI1*%
X183040000Y-207000000D03*
X180500000Y-207000000D03*
X177960000Y-207000000D03*
X175420000Y-207000000D03*
X172880000Y-207000000D03*
X170340000Y-207000000D03*
X167800000Y-207000000D03*
%TD*%
%TO.C,R29*%
G36*
G01*
X210480000Y-51814999D02*
X210480000Y-53065001D01*
G75*
G02*
X210230001Y-53315000I-249999J0D01*
G01*
X209429999Y-53315000D01*
G75*
G02*
X209180000Y-53065001I0J249999D01*
G01*
X209180000Y-51814999D01*
G75*
G02*
X209429999Y-51565000I249999J0D01*
G01*
X210230001Y-51565000D01*
G75*
G02*
X210480000Y-51814999I0J-249999D01*
G01*
G37*
G36*
G01*
X207380000Y-51814999D02*
X207380000Y-53065001D01*
G75*
G02*
X207130001Y-53315000I-249999J0D01*
G01*
X206329999Y-53315000D01*
G75*
G02*
X206080000Y-53065001I0J249999D01*
G01*
X206080000Y-51814999D01*
G75*
G02*
X206329999Y-51565000I249999J0D01*
G01*
X207130001Y-51565000D01*
G75*
G02*
X207380000Y-51814999I0J-249999D01*
G01*
G37*
%TD*%
%TO.C,R30*%
G36*
G01*
X201920000Y-51794999D02*
X201920000Y-53045001D01*
G75*
G02*
X201670001Y-53295000I-249999J0D01*
G01*
X200869999Y-53295000D01*
G75*
G02*
X200620000Y-53045001I0J249999D01*
G01*
X200620000Y-51794999D01*
G75*
G02*
X200869999Y-51545000I249999J0D01*
G01*
X201670001Y-51545000D01*
G75*
G02*
X201920000Y-51794999I0J-249999D01*
G01*
G37*
G36*
G01*
X205020000Y-51794999D02*
X205020000Y-53045001D01*
G75*
G02*
X204770001Y-53295000I-249999J0D01*
G01*
X203969999Y-53295000D01*
G75*
G02*
X203720000Y-53045001I0J249999D01*
G01*
X203720000Y-51794999D01*
G75*
G02*
X203969999Y-51545000I249999J0D01*
G01*
X204770001Y-51545000D01*
G75*
G02*
X205020000Y-51794999I0J-249999D01*
G01*
G37*
%TD*%
%TO.C,R42*%
G36*
G01*
X247770000Y-54244999D02*
X247770000Y-55495001D01*
G75*
G02*
X247520001Y-55745000I-249999J0D01*
G01*
X246719999Y-55745000D01*
G75*
G02*
X246470000Y-55495001I0J249999D01*
G01*
X246470000Y-54244999D01*
G75*
G02*
X246719999Y-53995000I249999J0D01*
G01*
X247520001Y-53995000D01*
G75*
G02*
X247770000Y-54244999I0J-249999D01*
G01*
G37*
G36*
G01*
X244670000Y-54244999D02*
X244670000Y-55495001D01*
G75*
G02*
X244420001Y-55745000I-249999J0D01*
G01*
X243619999Y-55745000D01*
G75*
G02*
X243370000Y-55495001I0J249999D01*
G01*
X243370000Y-54244999D01*
G75*
G02*
X243619999Y-53995000I249999J0D01*
G01*
X244420001Y-53995000D01*
G75*
G02*
X244670000Y-54244999I0J-249999D01*
G01*
G37*
%TD*%
%TO.C,C59*%
G36*
G01*
X206800000Y-93850003D02*
X206800000Y-92549997D01*
G75*
G02*
X207049997Y-92300000I249997J0D01*
G01*
X207875003Y-92300000D01*
G75*
G02*
X208125000Y-92549997I0J-249997D01*
G01*
X208125000Y-93850003D01*
G75*
G02*
X207875003Y-94100000I-249997J0D01*
G01*
X207049997Y-94100000D01*
G75*
G02*
X206800000Y-93850003I0J249997D01*
G01*
G37*
G36*
G01*
X203675000Y-93850003D02*
X203675000Y-92549997D01*
G75*
G02*
X203924997Y-92300000I249997J0D01*
G01*
X204750003Y-92300000D01*
G75*
G02*
X205000000Y-92549997I0J-249997D01*
G01*
X205000000Y-93850003D01*
G75*
G02*
X204750003Y-94100000I-249997J0D01*
G01*
X203924997Y-94100000D01*
G75*
G02*
X203675000Y-93850003I0J249997D01*
G01*
G37*
%TD*%
%TO.C,C60*%
G36*
G01*
X209475000Y-93850003D02*
X209475000Y-92549997D01*
G75*
G02*
X209724997Y-92300000I249997J0D01*
G01*
X210550003Y-92300000D01*
G75*
G02*
X210800000Y-92549997I0J-249997D01*
G01*
X210800000Y-93850003D01*
G75*
G02*
X210550003Y-94100000I-249997J0D01*
G01*
X209724997Y-94100000D01*
G75*
G02*
X209475000Y-93850003I0J249997D01*
G01*
G37*
G36*
G01*
X212600000Y-93850003D02*
X212600000Y-92549997D01*
G75*
G02*
X212849997Y-92300000I249997J0D01*
G01*
X213675003Y-92300000D01*
G75*
G02*
X213925000Y-92549997I0J-249997D01*
G01*
X213925000Y-93850003D01*
G75*
G02*
X213675003Y-94100000I-249997J0D01*
G01*
X212849997Y-94100000D01*
G75*
G02*
X212600000Y-93850003I0J249997D01*
G01*
G37*
%TD*%
%TO.C,C1*%
G36*
G01*
X239025000Y-185650003D02*
X239025000Y-184349997D01*
G75*
G02*
X239274997Y-184100000I249997J0D01*
G01*
X240100003Y-184100000D01*
G75*
G02*
X240350000Y-184349997I0J-249997D01*
G01*
X240350000Y-185650003D01*
G75*
G02*
X240100003Y-185900000I-249997J0D01*
G01*
X239274997Y-185900000D01*
G75*
G02*
X239025000Y-185650003I0J249997D01*
G01*
G37*
G36*
G01*
X242150000Y-185650003D02*
X242150000Y-184349997D01*
G75*
G02*
X242399997Y-184100000I249997J0D01*
G01*
X243225003Y-184100000D01*
G75*
G02*
X243475000Y-184349997I0J-249997D01*
G01*
X243475000Y-185650003D01*
G75*
G02*
X243225003Y-185900000I-249997J0D01*
G01*
X242399997Y-185900000D01*
G75*
G02*
X242150000Y-185650003I0J249997D01*
G01*
G37*
%TD*%
%TO.C,C11*%
G36*
G01*
X222950000Y-185500003D02*
X222950000Y-184199997D01*
G75*
G02*
X223199997Y-183950000I249997J0D01*
G01*
X224025003Y-183950000D01*
G75*
G02*
X224275000Y-184199997I0J-249997D01*
G01*
X224275000Y-185500003D01*
G75*
G02*
X224025003Y-185750000I-249997J0D01*
G01*
X223199997Y-185750000D01*
G75*
G02*
X222950000Y-185500003I0J249997D01*
G01*
G37*
G36*
G01*
X226075000Y-185500003D02*
X226075000Y-184199997D01*
G75*
G02*
X226324997Y-183950000I249997J0D01*
G01*
X227150003Y-183950000D01*
G75*
G02*
X227400000Y-184199997I0J-249997D01*
G01*
X227400000Y-185500003D01*
G75*
G02*
X227150003Y-185750000I-249997J0D01*
G01*
X226324997Y-185750000D01*
G75*
G02*
X226075000Y-185500003I0J249997D01*
G01*
G37*
%TD*%
%TO.C,C55*%
G36*
G01*
X235000000Y-176000003D02*
X235000000Y-174699997D01*
G75*
G02*
X235249997Y-174450000I249997J0D01*
G01*
X236075003Y-174450000D01*
G75*
G02*
X236325000Y-174699997I0J-249997D01*
G01*
X236325000Y-176000003D01*
G75*
G02*
X236075003Y-176250000I-249997J0D01*
G01*
X235249997Y-176250000D01*
G75*
G02*
X235000000Y-176000003I0J249997D01*
G01*
G37*
G36*
G01*
X231875000Y-176000003D02*
X231875000Y-174699997D01*
G75*
G02*
X232124997Y-174450000I249997J0D01*
G01*
X232950003Y-174450000D01*
G75*
G02*
X233200000Y-174699997I0J-249997D01*
G01*
X233200000Y-176000003D01*
G75*
G02*
X232950003Y-176250000I-249997J0D01*
G01*
X232124997Y-176250000D01*
G75*
G02*
X231875000Y-176000003I0J249997D01*
G01*
G37*
%TD*%
%TO.C,C56*%
G36*
G01*
X170550000Y-181750003D02*
X170550000Y-180449997D01*
G75*
G02*
X170799997Y-180200000I249997J0D01*
G01*
X171625003Y-180200000D01*
G75*
G02*
X171875000Y-180449997I0J-249997D01*
G01*
X171875000Y-181750003D01*
G75*
G02*
X171625003Y-182000000I-249997J0D01*
G01*
X170799997Y-182000000D01*
G75*
G02*
X170550000Y-181750003I0J249997D01*
G01*
G37*
G36*
G01*
X173675000Y-181750003D02*
X173675000Y-180449997D01*
G75*
G02*
X173924997Y-180200000I249997J0D01*
G01*
X174750003Y-180200000D01*
G75*
G02*
X175000000Y-180449997I0J-249997D01*
G01*
X175000000Y-181750003D01*
G75*
G02*
X174750003Y-182000000I-249997J0D01*
G01*
X173924997Y-182000000D01*
G75*
G02*
X173675000Y-181750003I0J249997D01*
G01*
G37*
%TD*%
%TO.C,C58*%
G36*
G01*
X217300000Y-174974997D02*
X217300000Y-176275003D01*
G75*
G02*
X217050003Y-176525000I-249997J0D01*
G01*
X216224997Y-176525000D01*
G75*
G02*
X215975000Y-176275003I0J249997D01*
G01*
X215975000Y-174974997D01*
G75*
G02*
X216224997Y-174725000I249997J0D01*
G01*
X217050003Y-174725000D01*
G75*
G02*
X217300000Y-174974997I0J-249997D01*
G01*
G37*
G36*
G01*
X220425000Y-174974997D02*
X220425000Y-176275003D01*
G75*
G02*
X220175003Y-176525000I-249997J0D01*
G01*
X219349997Y-176525000D01*
G75*
G02*
X219100000Y-176275003I0J249997D01*
G01*
X219100000Y-174974997D01*
G75*
G02*
X219349997Y-174725000I249997J0D01*
G01*
X220175003Y-174725000D01*
G75*
G02*
X220425000Y-174974997I0J-249997D01*
G01*
G37*
%TD*%
%TO.C,R6*%
G36*
G01*
X243500000Y-178749999D02*
X243500000Y-180000001D01*
G75*
G02*
X243250001Y-180250000I-249999J0D01*
G01*
X242449999Y-180250000D01*
G75*
G02*
X242200000Y-180000001I0J249999D01*
G01*
X242200000Y-178749999D01*
G75*
G02*
X242449999Y-178500000I249999J0D01*
G01*
X243250001Y-178500000D01*
G75*
G02*
X243500000Y-178749999I0J-249999D01*
G01*
G37*
G36*
G01*
X240400000Y-178749999D02*
X240400000Y-180000001D01*
G75*
G02*
X240150001Y-180250000I-249999J0D01*
G01*
X239349999Y-180250000D01*
G75*
G02*
X239100000Y-180000001I0J249999D01*
G01*
X239100000Y-178749999D01*
G75*
G02*
X239349999Y-178500000I249999J0D01*
G01*
X240150001Y-178500000D01*
G75*
G02*
X240400000Y-178749999I0J-249999D01*
G01*
G37*
%TD*%
%TO.C,R66*%
G36*
G01*
X227250000Y-178904999D02*
X227250000Y-180155001D01*
G75*
G02*
X227000001Y-180405000I-249999J0D01*
G01*
X226199999Y-180405000D01*
G75*
G02*
X225950000Y-180155001I0J249999D01*
G01*
X225950000Y-178904999D01*
G75*
G02*
X226199999Y-178655000I249999J0D01*
G01*
X227000001Y-178655000D01*
G75*
G02*
X227250000Y-178904999I0J-249999D01*
G01*
G37*
G36*
G01*
X224150000Y-178904999D02*
X224150000Y-180155001D01*
G75*
G02*
X223900001Y-180405000I-249999J0D01*
G01*
X223099999Y-180405000D01*
G75*
G02*
X222850000Y-180155001I0J249999D01*
G01*
X222850000Y-178904999D01*
G75*
G02*
X223099999Y-178655000I249999J0D01*
G01*
X223900001Y-178655000D01*
G75*
G02*
X224150000Y-178904999I0J-249999D01*
G01*
G37*
%TD*%
%TO.C,U3*%
G36*
G01*
X232075000Y-178725000D02*
X232275000Y-178725000D01*
G75*
G02*
X232375000Y-178825000I0J-100000D01*
G01*
X232375000Y-180100000D01*
G75*
G02*
X232275000Y-180200000I-100000J0D01*
G01*
X232075000Y-180200000D01*
G75*
G02*
X231975000Y-180100000I0J100000D01*
G01*
X231975000Y-178825000D01*
G75*
G02*
X232075000Y-178725000I100000J0D01*
G01*
G37*
G36*
G01*
X232725000Y-178725000D02*
X232925000Y-178725000D01*
G75*
G02*
X233025000Y-178825000I0J-100000D01*
G01*
X233025000Y-180100000D01*
G75*
G02*
X232925000Y-180200000I-100000J0D01*
G01*
X232725000Y-180200000D01*
G75*
G02*
X232625000Y-180100000I0J100000D01*
G01*
X232625000Y-178825000D01*
G75*
G02*
X232725000Y-178725000I100000J0D01*
G01*
G37*
G36*
G01*
X233375000Y-178725000D02*
X233575000Y-178725000D01*
G75*
G02*
X233675000Y-178825000I0J-100000D01*
G01*
X233675000Y-180100000D01*
G75*
G02*
X233575000Y-180200000I-100000J0D01*
G01*
X233375000Y-180200000D01*
G75*
G02*
X233275000Y-180100000I0J100000D01*
G01*
X233275000Y-178825000D01*
G75*
G02*
X233375000Y-178725000I100000J0D01*
G01*
G37*
G36*
G01*
X234025000Y-178725000D02*
X234225000Y-178725000D01*
G75*
G02*
X234325000Y-178825000I0J-100000D01*
G01*
X234325000Y-180100000D01*
G75*
G02*
X234225000Y-180200000I-100000J0D01*
G01*
X234025000Y-180200000D01*
G75*
G02*
X233925000Y-180100000I0J100000D01*
G01*
X233925000Y-178825000D01*
G75*
G02*
X234025000Y-178725000I100000J0D01*
G01*
G37*
G36*
G01*
X234675000Y-178725000D02*
X234875000Y-178725000D01*
G75*
G02*
X234975000Y-178825000I0J-100000D01*
G01*
X234975000Y-180100000D01*
G75*
G02*
X234875000Y-180200000I-100000J0D01*
G01*
X234675000Y-180200000D01*
G75*
G02*
X234575000Y-180100000I0J100000D01*
G01*
X234575000Y-178825000D01*
G75*
G02*
X234675000Y-178725000I100000J0D01*
G01*
G37*
G36*
G01*
X235325000Y-178725000D02*
X235525000Y-178725000D01*
G75*
G02*
X235625000Y-178825000I0J-100000D01*
G01*
X235625000Y-180100000D01*
G75*
G02*
X235525000Y-180200000I-100000J0D01*
G01*
X235325000Y-180200000D01*
G75*
G02*
X235225000Y-180100000I0J100000D01*
G01*
X235225000Y-178825000D01*
G75*
G02*
X235325000Y-178725000I100000J0D01*
G01*
G37*
G36*
G01*
X235975000Y-178725000D02*
X236175000Y-178725000D01*
G75*
G02*
X236275000Y-178825000I0J-100000D01*
G01*
X236275000Y-180100000D01*
G75*
G02*
X236175000Y-180200000I-100000J0D01*
G01*
X235975000Y-180200000D01*
G75*
G02*
X235875000Y-180100000I0J100000D01*
G01*
X235875000Y-178825000D01*
G75*
G02*
X235975000Y-178725000I100000J0D01*
G01*
G37*
G36*
G01*
X236625000Y-178725000D02*
X236825000Y-178725000D01*
G75*
G02*
X236925000Y-178825000I0J-100000D01*
G01*
X236925000Y-180100000D01*
G75*
G02*
X236825000Y-180200000I-100000J0D01*
G01*
X236625000Y-180200000D01*
G75*
G02*
X236525000Y-180100000I0J100000D01*
G01*
X236525000Y-178825000D01*
G75*
G02*
X236625000Y-178725000I100000J0D01*
G01*
G37*
G36*
G01*
X237275000Y-178725000D02*
X237475000Y-178725000D01*
G75*
G02*
X237575000Y-178825000I0J-100000D01*
G01*
X237575000Y-180100000D01*
G75*
G02*
X237475000Y-180200000I-100000J0D01*
G01*
X237275000Y-180200000D01*
G75*
G02*
X237175000Y-180100000I0J100000D01*
G01*
X237175000Y-178825000D01*
G75*
G02*
X237275000Y-178725000I100000J0D01*
G01*
G37*
G36*
G01*
X237925000Y-178725000D02*
X238125000Y-178725000D01*
G75*
G02*
X238225000Y-178825000I0J-100000D01*
G01*
X238225000Y-180100000D01*
G75*
G02*
X238125000Y-180200000I-100000J0D01*
G01*
X237925000Y-180200000D01*
G75*
G02*
X237825000Y-180100000I0J100000D01*
G01*
X237825000Y-178825000D01*
G75*
G02*
X237925000Y-178725000I100000J0D01*
G01*
G37*
G36*
G01*
X237925000Y-184450000D02*
X238125000Y-184450000D01*
G75*
G02*
X238225000Y-184550000I0J-100000D01*
G01*
X238225000Y-185825000D01*
G75*
G02*
X238125000Y-185925000I-100000J0D01*
G01*
X237925000Y-185925000D01*
G75*
G02*
X237825000Y-185825000I0J100000D01*
G01*
X237825000Y-184550000D01*
G75*
G02*
X237925000Y-184450000I100000J0D01*
G01*
G37*
G36*
G01*
X237275000Y-184450000D02*
X237475000Y-184450000D01*
G75*
G02*
X237575000Y-184550000I0J-100000D01*
G01*
X237575000Y-185825000D01*
G75*
G02*
X237475000Y-185925000I-100000J0D01*
G01*
X237275000Y-185925000D01*
G75*
G02*
X237175000Y-185825000I0J100000D01*
G01*
X237175000Y-184550000D01*
G75*
G02*
X237275000Y-184450000I100000J0D01*
G01*
G37*
G36*
G01*
X236625000Y-184450000D02*
X236825000Y-184450000D01*
G75*
G02*
X236925000Y-184550000I0J-100000D01*
G01*
X236925000Y-185825000D01*
G75*
G02*
X236825000Y-185925000I-100000J0D01*
G01*
X236625000Y-185925000D01*
G75*
G02*
X236525000Y-185825000I0J100000D01*
G01*
X236525000Y-184550000D01*
G75*
G02*
X236625000Y-184450000I100000J0D01*
G01*
G37*
G36*
G01*
X235975000Y-184450000D02*
X236175000Y-184450000D01*
G75*
G02*
X236275000Y-184550000I0J-100000D01*
G01*
X236275000Y-185825000D01*
G75*
G02*
X236175000Y-185925000I-100000J0D01*
G01*
X235975000Y-185925000D01*
G75*
G02*
X235875000Y-185825000I0J100000D01*
G01*
X235875000Y-184550000D01*
G75*
G02*
X235975000Y-184450000I100000J0D01*
G01*
G37*
G36*
G01*
X235325000Y-184450000D02*
X235525000Y-184450000D01*
G75*
G02*
X235625000Y-184550000I0J-100000D01*
G01*
X235625000Y-185825000D01*
G75*
G02*
X235525000Y-185925000I-100000J0D01*
G01*
X235325000Y-185925000D01*
G75*
G02*
X235225000Y-185825000I0J100000D01*
G01*
X235225000Y-184550000D01*
G75*
G02*
X235325000Y-184450000I100000J0D01*
G01*
G37*
G36*
G01*
X234675000Y-184450000D02*
X234875000Y-184450000D01*
G75*
G02*
X234975000Y-184550000I0J-100000D01*
G01*
X234975000Y-185825000D01*
G75*
G02*
X234875000Y-185925000I-100000J0D01*
G01*
X234675000Y-185925000D01*
G75*
G02*
X234575000Y-185825000I0J100000D01*
G01*
X234575000Y-184550000D01*
G75*
G02*
X234675000Y-184450000I100000J0D01*
G01*
G37*
G36*
G01*
X234025000Y-184450000D02*
X234225000Y-184450000D01*
G75*
G02*
X234325000Y-184550000I0J-100000D01*
G01*
X234325000Y-185825000D01*
G75*
G02*
X234225000Y-185925000I-100000J0D01*
G01*
X234025000Y-185925000D01*
G75*
G02*
X233925000Y-185825000I0J100000D01*
G01*
X233925000Y-184550000D01*
G75*
G02*
X234025000Y-184450000I100000J0D01*
G01*
G37*
G36*
G01*
X233375000Y-184450000D02*
X233575000Y-184450000D01*
G75*
G02*
X233675000Y-184550000I0J-100000D01*
G01*
X233675000Y-185825000D01*
G75*
G02*
X233575000Y-185925000I-100000J0D01*
G01*
X233375000Y-185925000D01*
G75*
G02*
X233275000Y-185825000I0J100000D01*
G01*
X233275000Y-184550000D01*
G75*
G02*
X233375000Y-184450000I100000J0D01*
G01*
G37*
G36*
G01*
X232725000Y-184450000D02*
X232925000Y-184450000D01*
G75*
G02*
X233025000Y-184550000I0J-100000D01*
G01*
X233025000Y-185825000D01*
G75*
G02*
X232925000Y-185925000I-100000J0D01*
G01*
X232725000Y-185925000D01*
G75*
G02*
X232625000Y-185825000I0J100000D01*
G01*
X232625000Y-184550000D01*
G75*
G02*
X232725000Y-184450000I100000J0D01*
G01*
G37*
G36*
G01*
X232075000Y-184450000D02*
X232275000Y-184450000D01*
G75*
G02*
X232375000Y-184550000I0J-100000D01*
G01*
X232375000Y-185825000D01*
G75*
G02*
X232275000Y-185925000I-100000J0D01*
G01*
X232075000Y-185925000D01*
G75*
G02*
X231975000Y-185825000I0J100000D01*
G01*
X231975000Y-184550000D01*
G75*
G02*
X232075000Y-184450000I100000J0D01*
G01*
G37*
%TD*%
%TO.C,U16*%
G36*
G01*
X215925000Y-178675000D02*
X216125000Y-178675000D01*
G75*
G02*
X216225000Y-178775000I0J-100000D01*
G01*
X216225000Y-180050000D01*
G75*
G02*
X216125000Y-180150000I-100000J0D01*
G01*
X215925000Y-180150000D01*
G75*
G02*
X215825000Y-180050000I0J100000D01*
G01*
X215825000Y-178775000D01*
G75*
G02*
X215925000Y-178675000I100000J0D01*
G01*
G37*
G36*
G01*
X216575000Y-178675000D02*
X216775000Y-178675000D01*
G75*
G02*
X216875000Y-178775000I0J-100000D01*
G01*
X216875000Y-180050000D01*
G75*
G02*
X216775000Y-180150000I-100000J0D01*
G01*
X216575000Y-180150000D01*
G75*
G02*
X216475000Y-180050000I0J100000D01*
G01*
X216475000Y-178775000D01*
G75*
G02*
X216575000Y-178675000I100000J0D01*
G01*
G37*
G36*
G01*
X217225000Y-178675000D02*
X217425000Y-178675000D01*
G75*
G02*
X217525000Y-178775000I0J-100000D01*
G01*
X217525000Y-180050000D01*
G75*
G02*
X217425000Y-180150000I-100000J0D01*
G01*
X217225000Y-180150000D01*
G75*
G02*
X217125000Y-180050000I0J100000D01*
G01*
X217125000Y-178775000D01*
G75*
G02*
X217225000Y-178675000I100000J0D01*
G01*
G37*
G36*
G01*
X217875000Y-178675000D02*
X218075000Y-178675000D01*
G75*
G02*
X218175000Y-178775000I0J-100000D01*
G01*
X218175000Y-180050000D01*
G75*
G02*
X218075000Y-180150000I-100000J0D01*
G01*
X217875000Y-180150000D01*
G75*
G02*
X217775000Y-180050000I0J100000D01*
G01*
X217775000Y-178775000D01*
G75*
G02*
X217875000Y-178675000I100000J0D01*
G01*
G37*
G36*
G01*
X218525000Y-178675000D02*
X218725000Y-178675000D01*
G75*
G02*
X218825000Y-178775000I0J-100000D01*
G01*
X218825000Y-180050000D01*
G75*
G02*
X218725000Y-180150000I-100000J0D01*
G01*
X218525000Y-180150000D01*
G75*
G02*
X218425000Y-180050000I0J100000D01*
G01*
X218425000Y-178775000D01*
G75*
G02*
X218525000Y-178675000I100000J0D01*
G01*
G37*
G36*
G01*
X219175000Y-178675000D02*
X219375000Y-178675000D01*
G75*
G02*
X219475000Y-178775000I0J-100000D01*
G01*
X219475000Y-180050000D01*
G75*
G02*
X219375000Y-180150000I-100000J0D01*
G01*
X219175000Y-180150000D01*
G75*
G02*
X219075000Y-180050000I0J100000D01*
G01*
X219075000Y-178775000D01*
G75*
G02*
X219175000Y-178675000I100000J0D01*
G01*
G37*
G36*
G01*
X219825000Y-178675000D02*
X220025000Y-178675000D01*
G75*
G02*
X220125000Y-178775000I0J-100000D01*
G01*
X220125000Y-180050000D01*
G75*
G02*
X220025000Y-180150000I-100000J0D01*
G01*
X219825000Y-180150000D01*
G75*
G02*
X219725000Y-180050000I0J100000D01*
G01*
X219725000Y-178775000D01*
G75*
G02*
X219825000Y-178675000I100000J0D01*
G01*
G37*
G36*
G01*
X220475000Y-178675000D02*
X220675000Y-178675000D01*
G75*
G02*
X220775000Y-178775000I0J-100000D01*
G01*
X220775000Y-180050000D01*
G75*
G02*
X220675000Y-180150000I-100000J0D01*
G01*
X220475000Y-180150000D01*
G75*
G02*
X220375000Y-180050000I0J100000D01*
G01*
X220375000Y-178775000D01*
G75*
G02*
X220475000Y-178675000I100000J0D01*
G01*
G37*
G36*
G01*
X221125000Y-178675000D02*
X221325000Y-178675000D01*
G75*
G02*
X221425000Y-178775000I0J-100000D01*
G01*
X221425000Y-180050000D01*
G75*
G02*
X221325000Y-180150000I-100000J0D01*
G01*
X221125000Y-180150000D01*
G75*
G02*
X221025000Y-180050000I0J100000D01*
G01*
X221025000Y-178775000D01*
G75*
G02*
X221125000Y-178675000I100000J0D01*
G01*
G37*
G36*
G01*
X221775000Y-178675000D02*
X221975000Y-178675000D01*
G75*
G02*
X222075000Y-178775000I0J-100000D01*
G01*
X222075000Y-180050000D01*
G75*
G02*
X221975000Y-180150000I-100000J0D01*
G01*
X221775000Y-180150000D01*
G75*
G02*
X221675000Y-180050000I0J100000D01*
G01*
X221675000Y-178775000D01*
G75*
G02*
X221775000Y-178675000I100000J0D01*
G01*
G37*
G36*
G01*
X221775000Y-184400000D02*
X221975000Y-184400000D01*
G75*
G02*
X222075000Y-184500000I0J-100000D01*
G01*
X222075000Y-185775000D01*
G75*
G02*
X221975000Y-185875000I-100000J0D01*
G01*
X221775000Y-185875000D01*
G75*
G02*
X221675000Y-185775000I0J100000D01*
G01*
X221675000Y-184500000D01*
G75*
G02*
X221775000Y-184400000I100000J0D01*
G01*
G37*
G36*
G01*
X221125000Y-184400000D02*
X221325000Y-184400000D01*
G75*
G02*
X221425000Y-184500000I0J-100000D01*
G01*
X221425000Y-185775000D01*
G75*
G02*
X221325000Y-185875000I-100000J0D01*
G01*
X221125000Y-185875000D01*
G75*
G02*
X221025000Y-185775000I0J100000D01*
G01*
X221025000Y-184500000D01*
G75*
G02*
X221125000Y-184400000I100000J0D01*
G01*
G37*
G36*
G01*
X220475000Y-184400000D02*
X220675000Y-184400000D01*
G75*
G02*
X220775000Y-184500000I0J-100000D01*
G01*
X220775000Y-185775000D01*
G75*
G02*
X220675000Y-185875000I-100000J0D01*
G01*
X220475000Y-185875000D01*
G75*
G02*
X220375000Y-185775000I0J100000D01*
G01*
X220375000Y-184500000D01*
G75*
G02*
X220475000Y-184400000I100000J0D01*
G01*
G37*
G36*
G01*
X219825000Y-184400000D02*
X220025000Y-184400000D01*
G75*
G02*
X220125000Y-184500000I0J-100000D01*
G01*
X220125000Y-185775000D01*
G75*
G02*
X220025000Y-185875000I-100000J0D01*
G01*
X219825000Y-185875000D01*
G75*
G02*
X219725000Y-185775000I0J100000D01*
G01*
X219725000Y-184500000D01*
G75*
G02*
X219825000Y-184400000I100000J0D01*
G01*
G37*
G36*
G01*
X219175000Y-184400000D02*
X219375000Y-184400000D01*
G75*
G02*
X219475000Y-184500000I0J-100000D01*
G01*
X219475000Y-185775000D01*
G75*
G02*
X219375000Y-185875000I-100000J0D01*
G01*
X219175000Y-185875000D01*
G75*
G02*
X219075000Y-185775000I0J100000D01*
G01*
X219075000Y-184500000D01*
G75*
G02*
X219175000Y-184400000I100000J0D01*
G01*
G37*
G36*
G01*
X218525000Y-184400000D02*
X218725000Y-184400000D01*
G75*
G02*
X218825000Y-184500000I0J-100000D01*
G01*
X218825000Y-185775000D01*
G75*
G02*
X218725000Y-185875000I-100000J0D01*
G01*
X218525000Y-185875000D01*
G75*
G02*
X218425000Y-185775000I0J100000D01*
G01*
X218425000Y-184500000D01*
G75*
G02*
X218525000Y-184400000I100000J0D01*
G01*
G37*
G36*
G01*
X217875000Y-184400000D02*
X218075000Y-184400000D01*
G75*
G02*
X218175000Y-184500000I0J-100000D01*
G01*
X218175000Y-185775000D01*
G75*
G02*
X218075000Y-185875000I-100000J0D01*
G01*
X217875000Y-185875000D01*
G75*
G02*
X217775000Y-185775000I0J100000D01*
G01*
X217775000Y-184500000D01*
G75*
G02*
X217875000Y-184400000I100000J0D01*
G01*
G37*
G36*
G01*
X217225000Y-184400000D02*
X217425000Y-184400000D01*
G75*
G02*
X217525000Y-184500000I0J-100000D01*
G01*
X217525000Y-185775000D01*
G75*
G02*
X217425000Y-185875000I-100000J0D01*
G01*
X217225000Y-185875000D01*
G75*
G02*
X217125000Y-185775000I0J100000D01*
G01*
X217125000Y-184500000D01*
G75*
G02*
X217225000Y-184400000I100000J0D01*
G01*
G37*
G36*
G01*
X216575000Y-184400000D02*
X216775000Y-184400000D01*
G75*
G02*
X216875000Y-184500000I0J-100000D01*
G01*
X216875000Y-185775000D01*
G75*
G02*
X216775000Y-185875000I-100000J0D01*
G01*
X216575000Y-185875000D01*
G75*
G02*
X216475000Y-185775000I0J100000D01*
G01*
X216475000Y-184500000D01*
G75*
G02*
X216575000Y-184400000I100000J0D01*
G01*
G37*
G36*
G01*
X215925000Y-184400000D02*
X216125000Y-184400000D01*
G75*
G02*
X216225000Y-184500000I0J-100000D01*
G01*
X216225000Y-185775000D01*
G75*
G02*
X216125000Y-185875000I-100000J0D01*
G01*
X215925000Y-185875000D01*
G75*
G02*
X215825000Y-185775000I0J100000D01*
G01*
X215825000Y-184500000D01*
G75*
G02*
X215925000Y-184400000I100000J0D01*
G01*
G37*
%TD*%
M02*
