%TF.GenerationSoftware,KiCad,Pcbnew,5.1.9+dfsg1-1+deb11u1*%
%TF.CreationDate,2025-09-30T09:17:09+02:00*%
%TF.ProjectId,VERA-MODULE-RBL,56455241-2d4d-44f4-9455-4c452d52424c,1.0*%
%TF.SameCoordinates,Original*%
%TF.FileFunction,Soldermask,Bot*%
%TF.FilePolarity,Negative*%
%FSLAX46Y46*%
G04 Gerber Fmt 4.6, Leading zero omitted, Abs format (unit mm)*
G04 Created by KiCad (PCBNEW 5.1.9+dfsg1-1+deb11u1) date 2025-09-30 09:17:09*
%MOMM*%
%LPD*%
G01*
G04 APERTURE LIST*
%ADD10C,0.750000*%
%ADD11C,0.780000*%
%ADD12O,1.362000X2.520000*%
%ADD13O,1.404000X2.604000*%
%ADD14O,1.850000X1.850000*%
%ADD15C,1.000000*%
%ADD16C,1.850000*%
%ADD17C,1.950000*%
%ADD18C,1.750000*%
%ADD19C,1.854000*%
%ADD20C,4.470000*%
G04 APERTURE END LIST*
%TO.C,U8*%
G36*
G01*
X252487500Y-61525000D02*
X252212500Y-61525000D01*
G75*
G02*
X252075000Y-61387500I0J137500D01*
G01*
X252075000Y-60037500D01*
G75*
G02*
X252212500Y-59900000I137500J0D01*
G01*
X252487500Y-59900000D01*
G75*
G02*
X252625000Y-60037500I0J-137500D01*
G01*
X252625000Y-61387500D01*
G75*
G02*
X252487500Y-61525000I-137500J0D01*
G01*
G37*
G36*
G01*
X251837500Y-61525000D02*
X251562500Y-61525000D01*
G75*
G02*
X251425000Y-61387500I0J137500D01*
G01*
X251425000Y-60037500D01*
G75*
G02*
X251562500Y-59900000I137500J0D01*
G01*
X251837500Y-59900000D01*
G75*
G02*
X251975000Y-60037500I0J-137500D01*
G01*
X251975000Y-61387500D01*
G75*
G02*
X251837500Y-61525000I-137500J0D01*
G01*
G37*
G36*
G01*
X251187500Y-61525000D02*
X250912500Y-61525000D01*
G75*
G02*
X250775000Y-61387500I0J137500D01*
G01*
X250775000Y-60037500D01*
G75*
G02*
X250912500Y-59900000I137500J0D01*
G01*
X251187500Y-59900000D01*
G75*
G02*
X251325000Y-60037500I0J-137500D01*
G01*
X251325000Y-61387500D01*
G75*
G02*
X251187500Y-61525000I-137500J0D01*
G01*
G37*
G36*
G01*
X250537500Y-61525000D02*
X250262500Y-61525000D01*
G75*
G02*
X250125000Y-61387500I0J137500D01*
G01*
X250125000Y-60037500D01*
G75*
G02*
X250262500Y-59900000I137500J0D01*
G01*
X250537500Y-59900000D01*
G75*
G02*
X250675000Y-60037500I0J-137500D01*
G01*
X250675000Y-61387500D01*
G75*
G02*
X250537500Y-61525000I-137500J0D01*
G01*
G37*
G36*
G01*
X249887500Y-61525000D02*
X249612500Y-61525000D01*
G75*
G02*
X249475000Y-61387500I0J137500D01*
G01*
X249475000Y-60037500D01*
G75*
G02*
X249612500Y-59900000I137500J0D01*
G01*
X249887500Y-59900000D01*
G75*
G02*
X250025000Y-60037500I0J-137500D01*
G01*
X250025000Y-61387500D01*
G75*
G02*
X249887500Y-61525000I-137500J0D01*
G01*
G37*
G36*
G01*
X249237500Y-61525000D02*
X248962500Y-61525000D01*
G75*
G02*
X248825000Y-61387500I0J137500D01*
G01*
X248825000Y-60037500D01*
G75*
G02*
X248962500Y-59900000I137500J0D01*
G01*
X249237500Y-59900000D01*
G75*
G02*
X249375000Y-60037500I0J-137500D01*
G01*
X249375000Y-61387500D01*
G75*
G02*
X249237500Y-61525000I-137500J0D01*
G01*
G37*
G36*
G01*
X248587500Y-61525000D02*
X248312500Y-61525000D01*
G75*
G02*
X248175000Y-61387500I0J137500D01*
G01*
X248175000Y-60037500D01*
G75*
G02*
X248312500Y-59900000I137500J0D01*
G01*
X248587500Y-59900000D01*
G75*
G02*
X248725000Y-60037500I0J-137500D01*
G01*
X248725000Y-61387500D01*
G75*
G02*
X248587500Y-61525000I-137500J0D01*
G01*
G37*
G36*
G01*
X248587500Y-55800000D02*
X248312500Y-55800000D01*
G75*
G02*
X248175000Y-55662500I0J137500D01*
G01*
X248175000Y-54312500D01*
G75*
G02*
X248312500Y-54175000I137500J0D01*
G01*
X248587500Y-54175000D01*
G75*
G02*
X248725000Y-54312500I0J-137500D01*
G01*
X248725000Y-55662500D01*
G75*
G02*
X248587500Y-55800000I-137500J0D01*
G01*
G37*
G36*
G01*
X249237500Y-55800000D02*
X248962500Y-55800000D01*
G75*
G02*
X248825000Y-55662500I0J137500D01*
G01*
X248825000Y-54312500D01*
G75*
G02*
X248962500Y-54175000I137500J0D01*
G01*
X249237500Y-54175000D01*
G75*
G02*
X249375000Y-54312500I0J-137500D01*
G01*
X249375000Y-55662500D01*
G75*
G02*
X249237500Y-55800000I-137500J0D01*
G01*
G37*
G36*
G01*
X249887500Y-55800000D02*
X249612500Y-55800000D01*
G75*
G02*
X249475000Y-55662500I0J137500D01*
G01*
X249475000Y-54312500D01*
G75*
G02*
X249612500Y-54175000I137500J0D01*
G01*
X249887500Y-54175000D01*
G75*
G02*
X250025000Y-54312500I0J-137500D01*
G01*
X250025000Y-55662500D01*
G75*
G02*
X249887500Y-55800000I-137500J0D01*
G01*
G37*
G36*
G01*
X250537500Y-55800000D02*
X250262500Y-55800000D01*
G75*
G02*
X250125000Y-55662500I0J137500D01*
G01*
X250125000Y-54312500D01*
G75*
G02*
X250262500Y-54175000I137500J0D01*
G01*
X250537500Y-54175000D01*
G75*
G02*
X250675000Y-54312500I0J-137500D01*
G01*
X250675000Y-55662500D01*
G75*
G02*
X250537500Y-55800000I-137500J0D01*
G01*
G37*
G36*
G01*
X251187500Y-55800000D02*
X250912500Y-55800000D01*
G75*
G02*
X250775000Y-55662500I0J137500D01*
G01*
X250775000Y-54312500D01*
G75*
G02*
X250912500Y-54175000I137500J0D01*
G01*
X251187500Y-54175000D01*
G75*
G02*
X251325000Y-54312500I0J-137500D01*
G01*
X251325000Y-55662500D01*
G75*
G02*
X251187500Y-55800000I-137500J0D01*
G01*
G37*
G36*
G01*
X251837500Y-55800000D02*
X251562500Y-55800000D01*
G75*
G02*
X251425000Y-55662500I0J137500D01*
G01*
X251425000Y-54312500D01*
G75*
G02*
X251562500Y-54175000I137500J0D01*
G01*
X251837500Y-54175000D01*
G75*
G02*
X251975000Y-54312500I0J-137500D01*
G01*
X251975000Y-55662500D01*
G75*
G02*
X251837500Y-55800000I-137500J0D01*
G01*
G37*
G36*
G01*
X252487500Y-55800000D02*
X252212500Y-55800000D01*
G75*
G02*
X252075000Y-55662500I0J137500D01*
G01*
X252075000Y-54312500D01*
G75*
G02*
X252212500Y-54175000I137500J0D01*
G01*
X252487500Y-54175000D01*
G75*
G02*
X252625000Y-54312500I0J-137500D01*
G01*
X252625000Y-55662500D01*
G75*
G02*
X252487500Y-55800000I-137500J0D01*
G01*
G37*
%TD*%
%TO.C,R45*%
G36*
G01*
X232375000Y-79228845D02*
X232375000Y-80571155D01*
G75*
G02*
X232096155Y-80850000I-278845J0D01*
G01*
X231203845Y-80850000D01*
G75*
G02*
X230925000Y-80571155I0J278845D01*
G01*
X230925000Y-79228845D01*
G75*
G02*
X231203845Y-78950000I278845J0D01*
G01*
X232096155Y-78950000D01*
G75*
G02*
X232375000Y-79228845I0J-278845D01*
G01*
G37*
G36*
G01*
X229275000Y-79228845D02*
X229275000Y-80571155D01*
G75*
G02*
X228996155Y-80850000I-278845J0D01*
G01*
X228103845Y-80850000D01*
G75*
G02*
X227825000Y-80571155I0J278845D01*
G01*
X227825000Y-79228845D01*
G75*
G02*
X228103845Y-78950000I278845J0D01*
G01*
X228996155Y-78950000D01*
G75*
G02*
X229275000Y-79228845I0J-278845D01*
G01*
G37*
%TD*%
D10*
%TO.C,J4*%
X157500000Y-52500000D03*
D11*
X157500000Y-52500000D03*
X163500000Y-52500000D03*
D12*
X164820000Y-53225000D03*
X156180000Y-53225000D03*
D13*
X164820000Y-49400000D03*
X156180000Y-49400000D03*
%TD*%
%TO.C,C35*%
G36*
G01*
X229640000Y-85516702D02*
X229640000Y-84123298D01*
G75*
G02*
X229918298Y-83845000I278298J0D01*
G01*
X230836702Y-83845000D01*
G75*
G02*
X231115000Y-84123298I0J-278298D01*
G01*
X231115000Y-85516702D01*
G75*
G02*
X230836702Y-85795000I-278298J0D01*
G01*
X229918298Y-85795000D01*
G75*
G02*
X229640000Y-85516702I0J278298D01*
G01*
G37*
G36*
G01*
X232765000Y-85516702D02*
X232765000Y-84123298D01*
G75*
G02*
X233043298Y-83845000I278298J0D01*
G01*
X233961702Y-83845000D01*
G75*
G02*
X234240000Y-84123298I0J-278298D01*
G01*
X234240000Y-85516702D01*
G75*
G02*
X233961702Y-85795000I-278298J0D01*
G01*
X233043298Y-85795000D01*
G75*
G02*
X232765000Y-85516702I0J278298D01*
G01*
G37*
%TD*%
%TO.C,C33*%
G36*
G01*
X220600000Y-76471702D02*
X220600000Y-75078298D01*
G75*
G02*
X220878298Y-74800000I278298J0D01*
G01*
X221796702Y-74800000D01*
G75*
G02*
X222075000Y-75078298I0J-278298D01*
G01*
X222075000Y-76471702D01*
G75*
G02*
X221796702Y-76750000I-278298J0D01*
G01*
X220878298Y-76750000D01*
G75*
G02*
X220600000Y-76471702I0J278298D01*
G01*
G37*
G36*
G01*
X223725000Y-76471702D02*
X223725000Y-75078298D01*
G75*
G02*
X224003298Y-74800000I278298J0D01*
G01*
X224921702Y-74800000D01*
G75*
G02*
X225200000Y-75078298I0J-278298D01*
G01*
X225200000Y-76471702D01*
G75*
G02*
X224921702Y-76750000I-278298J0D01*
G01*
X224003298Y-76750000D01*
G75*
G02*
X223725000Y-76471702I0J278298D01*
G01*
G37*
%TD*%
%TO.C,C32*%
G36*
G01*
X218221702Y-82900000D02*
X216828298Y-82900000D01*
G75*
G02*
X216550000Y-82621702I0J278298D01*
G01*
X216550000Y-81703298D01*
G75*
G02*
X216828298Y-81425000I278298J0D01*
G01*
X218221702Y-81425000D01*
G75*
G02*
X218500000Y-81703298I0J-278298D01*
G01*
X218500000Y-82621702D01*
G75*
G02*
X218221702Y-82900000I-278298J0D01*
G01*
G37*
G36*
G01*
X218221702Y-79775000D02*
X216828298Y-79775000D01*
G75*
G02*
X216550000Y-79496702I0J278298D01*
G01*
X216550000Y-78578298D01*
G75*
G02*
X216828298Y-78300000I278298J0D01*
G01*
X218221702Y-78300000D01*
G75*
G02*
X218500000Y-78578298I0J-278298D01*
G01*
X218500000Y-79496702D01*
G75*
G02*
X218221702Y-79775000I-278298J0D01*
G01*
G37*
%TD*%
%TO.C,C31*%
G36*
G01*
X233100000Y-80696702D02*
X233100000Y-79303298D01*
G75*
G02*
X233378298Y-79025000I278298J0D01*
G01*
X234296702Y-79025000D01*
G75*
G02*
X234575000Y-79303298I0J-278298D01*
G01*
X234575000Y-80696702D01*
G75*
G02*
X234296702Y-80975000I-278298J0D01*
G01*
X233378298Y-80975000D01*
G75*
G02*
X233100000Y-80696702I0J278298D01*
G01*
G37*
G36*
G01*
X236225000Y-80696702D02*
X236225000Y-79303298D01*
G75*
G02*
X236503298Y-79025000I278298J0D01*
G01*
X237421702Y-79025000D01*
G75*
G02*
X237700000Y-79303298I0J-278298D01*
G01*
X237700000Y-80696702D01*
G75*
G02*
X237421702Y-80975000I-278298J0D01*
G01*
X236503298Y-80975000D01*
G75*
G02*
X236225000Y-80696702I0J278298D01*
G01*
G37*
%TD*%
%TO.C,C29*%
G36*
G01*
X237100000Y-54746702D02*
X237100000Y-53353298D01*
G75*
G02*
X237378298Y-53075000I278298J0D01*
G01*
X238296702Y-53075000D01*
G75*
G02*
X238575000Y-53353298I0J-278298D01*
G01*
X238575000Y-54746702D01*
G75*
G02*
X238296702Y-55025000I-278298J0D01*
G01*
X237378298Y-55025000D01*
G75*
G02*
X237100000Y-54746702I0J278298D01*
G01*
G37*
G36*
G01*
X240225000Y-54746702D02*
X240225000Y-53353298D01*
G75*
G02*
X240503298Y-53075000I278298J0D01*
G01*
X241421702Y-53075000D01*
G75*
G02*
X241700000Y-53353298I0J-278298D01*
G01*
X241700000Y-54746702D01*
G75*
G02*
X241421702Y-55025000I-278298J0D01*
G01*
X240503298Y-55025000D01*
G75*
G02*
X240225000Y-54746702I0J278298D01*
G01*
G37*
%TD*%
%TO.C,C27*%
G36*
G01*
X252900000Y-50203298D02*
X252900000Y-51596702D01*
G75*
G02*
X252621702Y-51875000I-278298J0D01*
G01*
X251703298Y-51875000D01*
G75*
G02*
X251425000Y-51596702I0J278298D01*
G01*
X251425000Y-50203298D01*
G75*
G02*
X251703298Y-49925000I278298J0D01*
G01*
X252621702Y-49925000D01*
G75*
G02*
X252900000Y-50203298I0J-278298D01*
G01*
G37*
G36*
G01*
X249775000Y-50203298D02*
X249775000Y-51596702D01*
G75*
G02*
X249496702Y-51875000I-278298J0D01*
G01*
X248578298Y-51875000D01*
G75*
G02*
X248300000Y-51596702I0J278298D01*
G01*
X248300000Y-50203298D01*
G75*
G02*
X248578298Y-49925000I278298J0D01*
G01*
X249496702Y-49925000D01*
G75*
G02*
X249775000Y-50203298I0J-278298D01*
G01*
G37*
%TD*%
%TO.C,C26*%
G36*
G01*
X254150000Y-51146702D02*
X254150000Y-49753298D01*
G75*
G02*
X254428298Y-49475000I278298J0D01*
G01*
X255346702Y-49475000D01*
G75*
G02*
X255625000Y-49753298I0J-278298D01*
G01*
X255625000Y-51146702D01*
G75*
G02*
X255346702Y-51425000I-278298J0D01*
G01*
X254428298Y-51425000D01*
G75*
G02*
X254150000Y-51146702I0J278298D01*
G01*
G37*
G36*
G01*
X257275000Y-51146702D02*
X257275000Y-49753298D01*
G75*
G02*
X257553298Y-49475000I278298J0D01*
G01*
X258471702Y-49475000D01*
G75*
G02*
X258750000Y-49753298I0J-278298D01*
G01*
X258750000Y-51146702D01*
G75*
G02*
X258471702Y-51425000I-278298J0D01*
G01*
X257553298Y-51425000D01*
G75*
G02*
X257275000Y-51146702I0J278298D01*
G01*
G37*
%TD*%
%TO.C,C3*%
G36*
G01*
X210700000Y-74803298D02*
X210700000Y-76196702D01*
G75*
G02*
X210421702Y-76475000I-278298J0D01*
G01*
X209503298Y-76475000D01*
G75*
G02*
X209225000Y-76196702I0J278298D01*
G01*
X209225000Y-74803298D01*
G75*
G02*
X209503298Y-74525000I278298J0D01*
G01*
X210421702Y-74525000D01*
G75*
G02*
X210700000Y-74803298I0J-278298D01*
G01*
G37*
G36*
G01*
X207575000Y-74803298D02*
X207575000Y-76196702D01*
G75*
G02*
X207296702Y-76475000I-278298J0D01*
G01*
X206378298Y-76475000D01*
G75*
G02*
X206100000Y-76196702I0J278298D01*
G01*
X206100000Y-74803298D01*
G75*
G02*
X206378298Y-74525000I278298J0D01*
G01*
X207296702Y-74525000D01*
G75*
G02*
X207575000Y-74803298I0J-278298D01*
G01*
G37*
%TD*%
%TO.C,C6*%
G36*
G01*
X206100000Y-78696702D02*
X206100000Y-77303298D01*
G75*
G02*
X206378298Y-77025000I278298J0D01*
G01*
X207296702Y-77025000D01*
G75*
G02*
X207575000Y-77303298I0J-278298D01*
G01*
X207575000Y-78696702D01*
G75*
G02*
X207296702Y-78975000I-278298J0D01*
G01*
X206378298Y-78975000D01*
G75*
G02*
X206100000Y-78696702I0J278298D01*
G01*
G37*
G36*
G01*
X209225000Y-78696702D02*
X209225000Y-77303298D01*
G75*
G02*
X209503298Y-77025000I278298J0D01*
G01*
X210421702Y-77025000D01*
G75*
G02*
X210700000Y-77303298I0J-278298D01*
G01*
X210700000Y-78696702D01*
G75*
G02*
X210421702Y-78975000I-278298J0D01*
G01*
X209503298Y-78975000D01*
G75*
G02*
X209225000Y-78696702I0J278298D01*
G01*
G37*
%TD*%
%TO.C,C7*%
G36*
G01*
X205600000Y-79803298D02*
X205600000Y-81196702D01*
G75*
G02*
X205321702Y-81475000I-278298J0D01*
G01*
X204403298Y-81475000D01*
G75*
G02*
X204125000Y-81196702I0J278298D01*
G01*
X204125000Y-79803298D01*
G75*
G02*
X204403298Y-79525000I278298J0D01*
G01*
X205321702Y-79525000D01*
G75*
G02*
X205600000Y-79803298I0J-278298D01*
G01*
G37*
G36*
G01*
X202475000Y-79803298D02*
X202475000Y-81196702D01*
G75*
G02*
X202196702Y-81475000I-278298J0D01*
G01*
X201278298Y-81475000D01*
G75*
G02*
X201000000Y-81196702I0J278298D01*
G01*
X201000000Y-79803298D01*
G75*
G02*
X201278298Y-79525000I278298J0D01*
G01*
X202196702Y-79525000D01*
G75*
G02*
X202475000Y-79803298I0J-278298D01*
G01*
G37*
%TD*%
%TO.C,C13*%
G36*
G01*
X239865000Y-108393298D02*
X239865000Y-109786702D01*
G75*
G02*
X239586702Y-110065000I-278298J0D01*
G01*
X238668298Y-110065000D01*
G75*
G02*
X238390000Y-109786702I0J278298D01*
G01*
X238390000Y-108393298D01*
G75*
G02*
X238668298Y-108115000I278298J0D01*
G01*
X239586702Y-108115000D01*
G75*
G02*
X239865000Y-108393298I0J-278298D01*
G01*
G37*
G36*
G01*
X242990000Y-108393298D02*
X242990000Y-109786702D01*
G75*
G02*
X242711702Y-110065000I-278298J0D01*
G01*
X241793298Y-110065000D01*
G75*
G02*
X241515000Y-109786702I0J278298D01*
G01*
X241515000Y-108393298D01*
G75*
G02*
X241793298Y-108115000I278298J0D01*
G01*
X242711702Y-108115000D01*
G75*
G02*
X242990000Y-108393298I0J-278298D01*
G01*
G37*
%TD*%
%TO.C,C14*%
G36*
G01*
X239885000Y-111723298D02*
X239885000Y-113116702D01*
G75*
G02*
X239606702Y-113395000I-278298J0D01*
G01*
X238688298Y-113395000D01*
G75*
G02*
X238410000Y-113116702I0J278298D01*
G01*
X238410000Y-111723298D01*
G75*
G02*
X238688298Y-111445000I278298J0D01*
G01*
X239606702Y-111445000D01*
G75*
G02*
X239885000Y-111723298I0J-278298D01*
G01*
G37*
G36*
G01*
X243010000Y-111723298D02*
X243010000Y-113116702D01*
G75*
G02*
X242731702Y-113395000I-278298J0D01*
G01*
X241813298Y-113395000D01*
G75*
G02*
X241535000Y-113116702I0J278298D01*
G01*
X241535000Y-111723298D01*
G75*
G02*
X241813298Y-111445000I278298J0D01*
G01*
X242731702Y-111445000D01*
G75*
G02*
X243010000Y-111723298I0J-278298D01*
G01*
G37*
%TD*%
%TO.C,CART1*%
G36*
G01*
X207904800Y-204131000D02*
X209835200Y-204131000D01*
G75*
G02*
X209910200Y-204206000I0J-75000D01*
G01*
X209910200Y-209794000D01*
G75*
G02*
X209835200Y-209869000I-75000J0D01*
G01*
X207904800Y-209869000D01*
G75*
G02*
X207829800Y-209794000I0J75000D01*
G01*
X207829800Y-204206000D01*
G75*
G02*
X207904800Y-204131000I75000J0D01*
G01*
G37*
G36*
G01*
X210444800Y-204131000D02*
X212375200Y-204131000D01*
G75*
G02*
X212450200Y-204206000I0J-75000D01*
G01*
X212450200Y-209794000D01*
G75*
G02*
X212375200Y-209869000I-75000J0D01*
G01*
X210444800Y-209869000D01*
G75*
G02*
X210369800Y-209794000I0J75000D01*
G01*
X210369800Y-204206000D01*
G75*
G02*
X210444800Y-204131000I75000J0D01*
G01*
G37*
G36*
G01*
X212984800Y-204131000D02*
X214915200Y-204131000D01*
G75*
G02*
X214990200Y-204206000I0J-75000D01*
G01*
X214990200Y-209794000D01*
G75*
G02*
X214915200Y-209869000I-75000J0D01*
G01*
X212984800Y-209869000D01*
G75*
G02*
X212909800Y-209794000I0J75000D01*
G01*
X212909800Y-204206000D01*
G75*
G02*
X212984800Y-204131000I75000J0D01*
G01*
G37*
G36*
G01*
X215524800Y-204131000D02*
X217455200Y-204131000D01*
G75*
G02*
X217530200Y-204206000I0J-75000D01*
G01*
X217530200Y-209794000D01*
G75*
G02*
X217455200Y-209869000I-75000J0D01*
G01*
X215524800Y-209869000D01*
G75*
G02*
X215449800Y-209794000I0J75000D01*
G01*
X215449800Y-204206000D01*
G75*
G02*
X215524800Y-204131000I75000J0D01*
G01*
G37*
G36*
G01*
X218064800Y-204131000D02*
X219995200Y-204131000D01*
G75*
G02*
X220070200Y-204206000I0J-75000D01*
G01*
X220070200Y-209794000D01*
G75*
G02*
X219995200Y-209869000I-75000J0D01*
G01*
X218064800Y-209869000D01*
G75*
G02*
X217989800Y-209794000I0J75000D01*
G01*
X217989800Y-204206000D01*
G75*
G02*
X218064800Y-204131000I75000J0D01*
G01*
G37*
G36*
G01*
X220604800Y-204131000D02*
X222535200Y-204131000D01*
G75*
G02*
X222610200Y-204206000I0J-75000D01*
G01*
X222610200Y-209794000D01*
G75*
G02*
X222535200Y-209869000I-75000J0D01*
G01*
X220604800Y-209869000D01*
G75*
G02*
X220529800Y-209794000I0J75000D01*
G01*
X220529800Y-204206000D01*
G75*
G02*
X220604800Y-204131000I75000J0D01*
G01*
G37*
G36*
G01*
X223144800Y-204131000D02*
X225075200Y-204131000D01*
G75*
G02*
X225150200Y-204206000I0J-75000D01*
G01*
X225150200Y-209794000D01*
G75*
G02*
X225075200Y-209869000I-75000J0D01*
G01*
X223144800Y-209869000D01*
G75*
G02*
X223069800Y-209794000I0J75000D01*
G01*
X223069800Y-204206000D01*
G75*
G02*
X223144800Y-204131000I75000J0D01*
G01*
G37*
G36*
G01*
X225684800Y-204131000D02*
X227615200Y-204131000D01*
G75*
G02*
X227690200Y-204206000I0J-75000D01*
G01*
X227690200Y-209794000D01*
G75*
G02*
X227615200Y-209869000I-75000J0D01*
G01*
X225684800Y-209869000D01*
G75*
G02*
X225609800Y-209794000I0J75000D01*
G01*
X225609800Y-204206000D01*
G75*
G02*
X225684800Y-204131000I75000J0D01*
G01*
G37*
G36*
G01*
X228224800Y-204131000D02*
X230155200Y-204131000D01*
G75*
G02*
X230230200Y-204206000I0J-75000D01*
G01*
X230230200Y-209794000D01*
G75*
G02*
X230155200Y-209869000I-75000J0D01*
G01*
X228224800Y-209869000D01*
G75*
G02*
X228149800Y-209794000I0J75000D01*
G01*
X228149800Y-204206000D01*
G75*
G02*
X228224800Y-204131000I75000J0D01*
G01*
G37*
G36*
G01*
X230764800Y-204131000D02*
X232695200Y-204131000D01*
G75*
G02*
X232770200Y-204206000I0J-75000D01*
G01*
X232770200Y-209794000D01*
G75*
G02*
X232695200Y-209869000I-75000J0D01*
G01*
X230764800Y-209869000D01*
G75*
G02*
X230689800Y-209794000I0J75000D01*
G01*
X230689800Y-204206000D01*
G75*
G02*
X230764800Y-204131000I75000J0D01*
G01*
G37*
G36*
G01*
X233304800Y-204131000D02*
X235235200Y-204131000D01*
G75*
G02*
X235310200Y-204206000I0J-75000D01*
G01*
X235310200Y-209794000D01*
G75*
G02*
X235235200Y-209869000I-75000J0D01*
G01*
X233304800Y-209869000D01*
G75*
G02*
X233229800Y-209794000I0J75000D01*
G01*
X233229800Y-204206000D01*
G75*
G02*
X233304800Y-204131000I75000J0D01*
G01*
G37*
G36*
G01*
X235844800Y-204131000D02*
X237775200Y-204131000D01*
G75*
G02*
X237850200Y-204206000I0J-75000D01*
G01*
X237850200Y-209794000D01*
G75*
G02*
X237775200Y-209869000I-75000J0D01*
G01*
X235844800Y-209869000D01*
G75*
G02*
X235769800Y-209794000I0J75000D01*
G01*
X235769800Y-204206000D01*
G75*
G02*
X235844800Y-204131000I75000J0D01*
G01*
G37*
G36*
G01*
X238384800Y-204131000D02*
X240315200Y-204131000D01*
G75*
G02*
X240390200Y-204206000I0J-75000D01*
G01*
X240390200Y-209794000D01*
G75*
G02*
X240315200Y-209869000I-75000J0D01*
G01*
X238384800Y-209869000D01*
G75*
G02*
X238309800Y-209794000I0J75000D01*
G01*
X238309800Y-204206000D01*
G75*
G02*
X238384800Y-204131000I75000J0D01*
G01*
G37*
G36*
G01*
X240924800Y-204131000D02*
X242855200Y-204131000D01*
G75*
G02*
X242930200Y-204206000I0J-75000D01*
G01*
X242930200Y-209794000D01*
G75*
G02*
X242855200Y-209869000I-75000J0D01*
G01*
X240924800Y-209869000D01*
G75*
G02*
X240849800Y-209794000I0J75000D01*
G01*
X240849800Y-204206000D01*
G75*
G02*
X240924800Y-204131000I75000J0D01*
G01*
G37*
G36*
G01*
X243464800Y-204131000D02*
X245395200Y-204131000D01*
G75*
G02*
X245470200Y-204206000I0J-75000D01*
G01*
X245470200Y-209794000D01*
G75*
G02*
X245395200Y-209869000I-75000J0D01*
G01*
X243464800Y-209869000D01*
G75*
G02*
X243389800Y-209794000I0J75000D01*
G01*
X243389800Y-204206000D01*
G75*
G02*
X243464800Y-204131000I75000J0D01*
G01*
G37*
%TD*%
%TO.C,ECI1*%
G36*
G01*
X166834800Y-204131000D02*
X168765200Y-204131000D01*
G75*
G02*
X168840200Y-204206000I0J-75000D01*
G01*
X168840200Y-209794000D01*
G75*
G02*
X168765200Y-209869000I-75000J0D01*
G01*
X166834800Y-209869000D01*
G75*
G02*
X166759800Y-209794000I0J75000D01*
G01*
X166759800Y-204206000D01*
G75*
G02*
X166834800Y-204131000I75000J0D01*
G01*
G37*
G36*
G01*
X169374800Y-204131000D02*
X171305200Y-204131000D01*
G75*
G02*
X171380200Y-204206000I0J-75000D01*
G01*
X171380200Y-209794000D01*
G75*
G02*
X171305200Y-209869000I-75000J0D01*
G01*
X169374800Y-209869000D01*
G75*
G02*
X169299800Y-209794000I0J75000D01*
G01*
X169299800Y-204206000D01*
G75*
G02*
X169374800Y-204131000I75000J0D01*
G01*
G37*
G36*
G01*
X171914800Y-204131000D02*
X173845200Y-204131000D01*
G75*
G02*
X173920200Y-204206000I0J-75000D01*
G01*
X173920200Y-209794000D01*
G75*
G02*
X173845200Y-209869000I-75000J0D01*
G01*
X171914800Y-209869000D01*
G75*
G02*
X171839800Y-209794000I0J75000D01*
G01*
X171839800Y-204206000D01*
G75*
G02*
X171914800Y-204131000I75000J0D01*
G01*
G37*
G36*
G01*
X174454800Y-204131000D02*
X176385200Y-204131000D01*
G75*
G02*
X176460200Y-204206000I0J-75000D01*
G01*
X176460200Y-209794000D01*
G75*
G02*
X176385200Y-209869000I-75000J0D01*
G01*
X174454800Y-209869000D01*
G75*
G02*
X174379800Y-209794000I0J75000D01*
G01*
X174379800Y-204206000D01*
G75*
G02*
X174454800Y-204131000I75000J0D01*
G01*
G37*
G36*
G01*
X176994800Y-204131000D02*
X178925200Y-204131000D01*
G75*
G02*
X179000200Y-204206000I0J-75000D01*
G01*
X179000200Y-209794000D01*
G75*
G02*
X178925200Y-209869000I-75000J0D01*
G01*
X176994800Y-209869000D01*
G75*
G02*
X176919800Y-209794000I0J75000D01*
G01*
X176919800Y-204206000D01*
G75*
G02*
X176994800Y-204131000I75000J0D01*
G01*
G37*
G36*
G01*
X179534800Y-204131000D02*
X181465200Y-204131000D01*
G75*
G02*
X181540200Y-204206000I0J-75000D01*
G01*
X181540200Y-209794000D01*
G75*
G02*
X181465200Y-209869000I-75000J0D01*
G01*
X179534800Y-209869000D01*
G75*
G02*
X179459800Y-209794000I0J75000D01*
G01*
X179459800Y-204206000D01*
G75*
G02*
X179534800Y-204131000I75000J0D01*
G01*
G37*
G36*
G01*
X182074800Y-204131000D02*
X184005200Y-204131000D01*
G75*
G02*
X184080200Y-204206000I0J-75000D01*
G01*
X184080200Y-209794000D01*
G75*
G02*
X184005200Y-209869000I-75000J0D01*
G01*
X182074800Y-209869000D01*
G75*
G02*
X181999800Y-209794000I0J75000D01*
G01*
X181999800Y-204206000D01*
G75*
G02*
X182074800Y-204131000I75000J0D01*
G01*
G37*
%TD*%
D14*
%TO.C,JP2*%
X232860000Y-50000000D03*
G36*
G01*
X234550000Y-49075000D02*
X236250000Y-49075000D01*
G75*
G02*
X236325000Y-49150000I0J-75000D01*
G01*
X236325000Y-50850000D01*
G75*
G02*
X236250000Y-50925000I-75000J0D01*
G01*
X234550000Y-50925000D01*
G75*
G02*
X234475000Y-50850000I0J75000D01*
G01*
X234475000Y-49150000D01*
G75*
G02*
X234550000Y-49075000I75000J0D01*
G01*
G37*
%TD*%
%TO.C,R42*%
G36*
G01*
X244745000Y-54198845D02*
X244745000Y-55541155D01*
G75*
G02*
X244466155Y-55820000I-278845J0D01*
G01*
X243573845Y-55820000D01*
G75*
G02*
X243295000Y-55541155I0J278845D01*
G01*
X243295000Y-54198845D01*
G75*
G02*
X243573845Y-53920000I278845J0D01*
G01*
X244466155Y-53920000D01*
G75*
G02*
X244745000Y-54198845I0J-278845D01*
G01*
G37*
G36*
G01*
X247845000Y-54198845D02*
X247845000Y-55541155D01*
G75*
G02*
X247566155Y-55820000I-278845J0D01*
G01*
X246673845Y-55820000D01*
G75*
G02*
X246395000Y-55541155I0J278845D01*
G01*
X246395000Y-54198845D01*
G75*
G02*
X246673845Y-53920000I278845J0D01*
G01*
X247566155Y-53920000D01*
G75*
G02*
X247845000Y-54198845I0J-278845D01*
G01*
G37*
%TD*%
%TO.C,C59*%
G36*
G01*
X203600000Y-93896702D02*
X203600000Y-92503298D01*
G75*
G02*
X203878298Y-92225000I278298J0D01*
G01*
X204796702Y-92225000D01*
G75*
G02*
X205075000Y-92503298I0J-278298D01*
G01*
X205075000Y-93896702D01*
G75*
G02*
X204796702Y-94175000I-278298J0D01*
G01*
X203878298Y-94175000D01*
G75*
G02*
X203600000Y-93896702I0J278298D01*
G01*
G37*
G36*
G01*
X206725000Y-93896702D02*
X206725000Y-92503298D01*
G75*
G02*
X207003298Y-92225000I278298J0D01*
G01*
X207921702Y-92225000D01*
G75*
G02*
X208200000Y-92503298I0J-278298D01*
G01*
X208200000Y-93896702D01*
G75*
G02*
X207921702Y-94175000I-278298J0D01*
G01*
X207003298Y-94175000D01*
G75*
G02*
X206725000Y-93896702I0J278298D01*
G01*
G37*
%TD*%
%TO.C,C60*%
G36*
G01*
X212525000Y-93896702D02*
X212525000Y-92503298D01*
G75*
G02*
X212803298Y-92225000I278298J0D01*
G01*
X213721702Y-92225000D01*
G75*
G02*
X214000000Y-92503298I0J-278298D01*
G01*
X214000000Y-93896702D01*
G75*
G02*
X213721702Y-94175000I-278298J0D01*
G01*
X212803298Y-94175000D01*
G75*
G02*
X212525000Y-93896702I0J278298D01*
G01*
G37*
G36*
G01*
X209400000Y-93896702D02*
X209400000Y-92503298D01*
G75*
G02*
X209678298Y-92225000I278298J0D01*
G01*
X210596702Y-92225000D01*
G75*
G02*
X210875000Y-92503298I0J-278298D01*
G01*
X210875000Y-93896702D01*
G75*
G02*
X210596702Y-94175000I-278298J0D01*
G01*
X209678298Y-94175000D01*
G75*
G02*
X209400000Y-93896702I0J278298D01*
G01*
G37*
%TD*%
%TO.C,C1*%
G36*
G01*
X242075000Y-185696702D02*
X242075000Y-184303298D01*
G75*
G02*
X242353298Y-184025000I278298J0D01*
G01*
X243271702Y-184025000D01*
G75*
G02*
X243550000Y-184303298I0J-278298D01*
G01*
X243550000Y-185696702D01*
G75*
G02*
X243271702Y-185975000I-278298J0D01*
G01*
X242353298Y-185975000D01*
G75*
G02*
X242075000Y-185696702I0J278298D01*
G01*
G37*
G36*
G01*
X238950000Y-185696702D02*
X238950000Y-184303298D01*
G75*
G02*
X239228298Y-184025000I278298J0D01*
G01*
X240146702Y-184025000D01*
G75*
G02*
X240425000Y-184303298I0J-278298D01*
G01*
X240425000Y-185696702D01*
G75*
G02*
X240146702Y-185975000I-278298J0D01*
G01*
X239228298Y-185975000D01*
G75*
G02*
X238950000Y-185696702I0J278298D01*
G01*
G37*
%TD*%
%TO.C,C11*%
G36*
G01*
X226000000Y-185546702D02*
X226000000Y-184153298D01*
G75*
G02*
X226278298Y-183875000I278298J0D01*
G01*
X227196702Y-183875000D01*
G75*
G02*
X227475000Y-184153298I0J-278298D01*
G01*
X227475000Y-185546702D01*
G75*
G02*
X227196702Y-185825000I-278298J0D01*
G01*
X226278298Y-185825000D01*
G75*
G02*
X226000000Y-185546702I0J278298D01*
G01*
G37*
G36*
G01*
X222875000Y-185546702D02*
X222875000Y-184153298D01*
G75*
G02*
X223153298Y-183875000I278298J0D01*
G01*
X224071702Y-183875000D01*
G75*
G02*
X224350000Y-184153298I0J-278298D01*
G01*
X224350000Y-185546702D01*
G75*
G02*
X224071702Y-185825000I-278298J0D01*
G01*
X223153298Y-185825000D01*
G75*
G02*
X222875000Y-185546702I0J278298D01*
G01*
G37*
%TD*%
%TO.C,C55*%
G36*
G01*
X231800000Y-176046702D02*
X231800000Y-174653298D01*
G75*
G02*
X232078298Y-174375000I278298J0D01*
G01*
X232996702Y-174375000D01*
G75*
G02*
X233275000Y-174653298I0J-278298D01*
G01*
X233275000Y-176046702D01*
G75*
G02*
X232996702Y-176325000I-278298J0D01*
G01*
X232078298Y-176325000D01*
G75*
G02*
X231800000Y-176046702I0J278298D01*
G01*
G37*
G36*
G01*
X234925000Y-176046702D02*
X234925000Y-174653298D01*
G75*
G02*
X235203298Y-174375000I278298J0D01*
G01*
X236121702Y-174375000D01*
G75*
G02*
X236400000Y-174653298I0J-278298D01*
G01*
X236400000Y-176046702D01*
G75*
G02*
X236121702Y-176325000I-278298J0D01*
G01*
X235203298Y-176325000D01*
G75*
G02*
X234925000Y-176046702I0J278298D01*
G01*
G37*
%TD*%
%TO.C,C56*%
G36*
G01*
X173600000Y-181796702D02*
X173600000Y-180403298D01*
G75*
G02*
X173878298Y-180125000I278298J0D01*
G01*
X174796702Y-180125000D01*
G75*
G02*
X175075000Y-180403298I0J-278298D01*
G01*
X175075000Y-181796702D01*
G75*
G02*
X174796702Y-182075000I-278298J0D01*
G01*
X173878298Y-182075000D01*
G75*
G02*
X173600000Y-181796702I0J278298D01*
G01*
G37*
G36*
G01*
X170475000Y-181796702D02*
X170475000Y-180403298D01*
G75*
G02*
X170753298Y-180125000I278298J0D01*
G01*
X171671702Y-180125000D01*
G75*
G02*
X171950000Y-180403298I0J-278298D01*
G01*
X171950000Y-181796702D01*
G75*
G02*
X171671702Y-182075000I-278298J0D01*
G01*
X170753298Y-182075000D01*
G75*
G02*
X170475000Y-181796702I0J278298D01*
G01*
G37*
%TD*%
%TO.C,C58*%
G36*
G01*
X220500000Y-174928298D02*
X220500000Y-176321702D01*
G75*
G02*
X220221702Y-176600000I-278298J0D01*
G01*
X219303298Y-176600000D01*
G75*
G02*
X219025000Y-176321702I0J278298D01*
G01*
X219025000Y-174928298D01*
G75*
G02*
X219303298Y-174650000I278298J0D01*
G01*
X220221702Y-174650000D01*
G75*
G02*
X220500000Y-174928298I0J-278298D01*
G01*
G37*
G36*
G01*
X217375000Y-174928298D02*
X217375000Y-176321702D01*
G75*
G02*
X217096702Y-176600000I-278298J0D01*
G01*
X216178298Y-176600000D01*
G75*
G02*
X215900000Y-176321702I0J278298D01*
G01*
X215900000Y-174928298D01*
G75*
G02*
X216178298Y-174650000I278298J0D01*
G01*
X217096702Y-174650000D01*
G75*
G02*
X217375000Y-174928298I0J-278298D01*
G01*
G37*
%TD*%
%TO.C,R6*%
G36*
G01*
X240475000Y-178703845D02*
X240475000Y-180046155D01*
G75*
G02*
X240196155Y-180325000I-278845J0D01*
G01*
X239303845Y-180325000D01*
G75*
G02*
X239025000Y-180046155I0J278845D01*
G01*
X239025000Y-178703845D01*
G75*
G02*
X239303845Y-178425000I278845J0D01*
G01*
X240196155Y-178425000D01*
G75*
G02*
X240475000Y-178703845I0J-278845D01*
G01*
G37*
G36*
G01*
X243575000Y-178703845D02*
X243575000Y-180046155D01*
G75*
G02*
X243296155Y-180325000I-278845J0D01*
G01*
X242403845Y-180325000D01*
G75*
G02*
X242125000Y-180046155I0J278845D01*
G01*
X242125000Y-178703845D01*
G75*
G02*
X242403845Y-178425000I278845J0D01*
G01*
X243296155Y-178425000D01*
G75*
G02*
X243575000Y-178703845I0J-278845D01*
G01*
G37*
%TD*%
%TO.C,R66*%
G36*
G01*
X224225000Y-178858845D02*
X224225000Y-180201155D01*
G75*
G02*
X223946155Y-180480000I-278845J0D01*
G01*
X223053845Y-180480000D01*
G75*
G02*
X222775000Y-180201155I0J278845D01*
G01*
X222775000Y-178858845D01*
G75*
G02*
X223053845Y-178580000I278845J0D01*
G01*
X223946155Y-178580000D01*
G75*
G02*
X224225000Y-178858845I0J-278845D01*
G01*
G37*
G36*
G01*
X227325000Y-178858845D02*
X227325000Y-180201155D01*
G75*
G02*
X227046155Y-180480000I-278845J0D01*
G01*
X226153845Y-180480000D01*
G75*
G02*
X225875000Y-180201155I0J278845D01*
G01*
X225875000Y-178858845D01*
G75*
G02*
X226153845Y-178580000I278845J0D01*
G01*
X227046155Y-178580000D01*
G75*
G02*
X227325000Y-178858845I0J-278845D01*
G01*
G37*
%TD*%
%TO.C,U3*%
G36*
G01*
X232037500Y-184375000D02*
X232312500Y-184375000D01*
G75*
G02*
X232450000Y-184512500I0J-137500D01*
G01*
X232450000Y-185862500D01*
G75*
G02*
X232312500Y-186000000I-137500J0D01*
G01*
X232037500Y-186000000D01*
G75*
G02*
X231900000Y-185862500I0J137500D01*
G01*
X231900000Y-184512500D01*
G75*
G02*
X232037500Y-184375000I137500J0D01*
G01*
G37*
G36*
G01*
X232687500Y-184375000D02*
X232962500Y-184375000D01*
G75*
G02*
X233100000Y-184512500I0J-137500D01*
G01*
X233100000Y-185862500D01*
G75*
G02*
X232962500Y-186000000I-137500J0D01*
G01*
X232687500Y-186000000D01*
G75*
G02*
X232550000Y-185862500I0J137500D01*
G01*
X232550000Y-184512500D01*
G75*
G02*
X232687500Y-184375000I137500J0D01*
G01*
G37*
G36*
G01*
X233337500Y-184375000D02*
X233612500Y-184375000D01*
G75*
G02*
X233750000Y-184512500I0J-137500D01*
G01*
X233750000Y-185862500D01*
G75*
G02*
X233612500Y-186000000I-137500J0D01*
G01*
X233337500Y-186000000D01*
G75*
G02*
X233200000Y-185862500I0J137500D01*
G01*
X233200000Y-184512500D01*
G75*
G02*
X233337500Y-184375000I137500J0D01*
G01*
G37*
G36*
G01*
X233987500Y-184375000D02*
X234262500Y-184375000D01*
G75*
G02*
X234400000Y-184512500I0J-137500D01*
G01*
X234400000Y-185862500D01*
G75*
G02*
X234262500Y-186000000I-137500J0D01*
G01*
X233987500Y-186000000D01*
G75*
G02*
X233850000Y-185862500I0J137500D01*
G01*
X233850000Y-184512500D01*
G75*
G02*
X233987500Y-184375000I137500J0D01*
G01*
G37*
G36*
G01*
X234637500Y-184375000D02*
X234912500Y-184375000D01*
G75*
G02*
X235050000Y-184512500I0J-137500D01*
G01*
X235050000Y-185862500D01*
G75*
G02*
X234912500Y-186000000I-137500J0D01*
G01*
X234637500Y-186000000D01*
G75*
G02*
X234500000Y-185862500I0J137500D01*
G01*
X234500000Y-184512500D01*
G75*
G02*
X234637500Y-184375000I137500J0D01*
G01*
G37*
G36*
G01*
X235287500Y-184375000D02*
X235562500Y-184375000D01*
G75*
G02*
X235700000Y-184512500I0J-137500D01*
G01*
X235700000Y-185862500D01*
G75*
G02*
X235562500Y-186000000I-137500J0D01*
G01*
X235287500Y-186000000D01*
G75*
G02*
X235150000Y-185862500I0J137500D01*
G01*
X235150000Y-184512500D01*
G75*
G02*
X235287500Y-184375000I137500J0D01*
G01*
G37*
G36*
G01*
X235937500Y-184375000D02*
X236212500Y-184375000D01*
G75*
G02*
X236350000Y-184512500I0J-137500D01*
G01*
X236350000Y-185862500D01*
G75*
G02*
X236212500Y-186000000I-137500J0D01*
G01*
X235937500Y-186000000D01*
G75*
G02*
X235800000Y-185862500I0J137500D01*
G01*
X235800000Y-184512500D01*
G75*
G02*
X235937500Y-184375000I137500J0D01*
G01*
G37*
G36*
G01*
X236587500Y-184375000D02*
X236862500Y-184375000D01*
G75*
G02*
X237000000Y-184512500I0J-137500D01*
G01*
X237000000Y-185862500D01*
G75*
G02*
X236862500Y-186000000I-137500J0D01*
G01*
X236587500Y-186000000D01*
G75*
G02*
X236450000Y-185862500I0J137500D01*
G01*
X236450000Y-184512500D01*
G75*
G02*
X236587500Y-184375000I137500J0D01*
G01*
G37*
G36*
G01*
X237237500Y-184375000D02*
X237512500Y-184375000D01*
G75*
G02*
X237650000Y-184512500I0J-137500D01*
G01*
X237650000Y-185862500D01*
G75*
G02*
X237512500Y-186000000I-137500J0D01*
G01*
X237237500Y-186000000D01*
G75*
G02*
X237100000Y-185862500I0J137500D01*
G01*
X237100000Y-184512500D01*
G75*
G02*
X237237500Y-184375000I137500J0D01*
G01*
G37*
G36*
G01*
X237887500Y-184375000D02*
X238162500Y-184375000D01*
G75*
G02*
X238300000Y-184512500I0J-137500D01*
G01*
X238300000Y-185862500D01*
G75*
G02*
X238162500Y-186000000I-137500J0D01*
G01*
X237887500Y-186000000D01*
G75*
G02*
X237750000Y-185862500I0J137500D01*
G01*
X237750000Y-184512500D01*
G75*
G02*
X237887500Y-184375000I137500J0D01*
G01*
G37*
G36*
G01*
X237887500Y-178650000D02*
X238162500Y-178650000D01*
G75*
G02*
X238300000Y-178787500I0J-137500D01*
G01*
X238300000Y-180137500D01*
G75*
G02*
X238162500Y-180275000I-137500J0D01*
G01*
X237887500Y-180275000D01*
G75*
G02*
X237750000Y-180137500I0J137500D01*
G01*
X237750000Y-178787500D01*
G75*
G02*
X237887500Y-178650000I137500J0D01*
G01*
G37*
G36*
G01*
X237237500Y-178650000D02*
X237512500Y-178650000D01*
G75*
G02*
X237650000Y-178787500I0J-137500D01*
G01*
X237650000Y-180137500D01*
G75*
G02*
X237512500Y-180275000I-137500J0D01*
G01*
X237237500Y-180275000D01*
G75*
G02*
X237100000Y-180137500I0J137500D01*
G01*
X237100000Y-178787500D01*
G75*
G02*
X237237500Y-178650000I137500J0D01*
G01*
G37*
G36*
G01*
X236587500Y-178650000D02*
X236862500Y-178650000D01*
G75*
G02*
X237000000Y-178787500I0J-137500D01*
G01*
X237000000Y-180137500D01*
G75*
G02*
X236862500Y-180275000I-137500J0D01*
G01*
X236587500Y-180275000D01*
G75*
G02*
X236450000Y-180137500I0J137500D01*
G01*
X236450000Y-178787500D01*
G75*
G02*
X236587500Y-178650000I137500J0D01*
G01*
G37*
G36*
G01*
X235937500Y-178650000D02*
X236212500Y-178650000D01*
G75*
G02*
X236350000Y-178787500I0J-137500D01*
G01*
X236350000Y-180137500D01*
G75*
G02*
X236212500Y-180275000I-137500J0D01*
G01*
X235937500Y-180275000D01*
G75*
G02*
X235800000Y-180137500I0J137500D01*
G01*
X235800000Y-178787500D01*
G75*
G02*
X235937500Y-178650000I137500J0D01*
G01*
G37*
G36*
G01*
X235287500Y-178650000D02*
X235562500Y-178650000D01*
G75*
G02*
X235700000Y-178787500I0J-137500D01*
G01*
X235700000Y-180137500D01*
G75*
G02*
X235562500Y-180275000I-137500J0D01*
G01*
X235287500Y-180275000D01*
G75*
G02*
X235150000Y-180137500I0J137500D01*
G01*
X235150000Y-178787500D01*
G75*
G02*
X235287500Y-178650000I137500J0D01*
G01*
G37*
G36*
G01*
X234637500Y-178650000D02*
X234912500Y-178650000D01*
G75*
G02*
X235050000Y-178787500I0J-137500D01*
G01*
X235050000Y-180137500D01*
G75*
G02*
X234912500Y-180275000I-137500J0D01*
G01*
X234637500Y-180275000D01*
G75*
G02*
X234500000Y-180137500I0J137500D01*
G01*
X234500000Y-178787500D01*
G75*
G02*
X234637500Y-178650000I137500J0D01*
G01*
G37*
G36*
G01*
X233987500Y-178650000D02*
X234262500Y-178650000D01*
G75*
G02*
X234400000Y-178787500I0J-137500D01*
G01*
X234400000Y-180137500D01*
G75*
G02*
X234262500Y-180275000I-137500J0D01*
G01*
X233987500Y-180275000D01*
G75*
G02*
X233850000Y-180137500I0J137500D01*
G01*
X233850000Y-178787500D01*
G75*
G02*
X233987500Y-178650000I137500J0D01*
G01*
G37*
G36*
G01*
X233337500Y-178650000D02*
X233612500Y-178650000D01*
G75*
G02*
X233750000Y-178787500I0J-137500D01*
G01*
X233750000Y-180137500D01*
G75*
G02*
X233612500Y-180275000I-137500J0D01*
G01*
X233337500Y-180275000D01*
G75*
G02*
X233200000Y-180137500I0J137500D01*
G01*
X233200000Y-178787500D01*
G75*
G02*
X233337500Y-178650000I137500J0D01*
G01*
G37*
G36*
G01*
X232687500Y-178650000D02*
X232962500Y-178650000D01*
G75*
G02*
X233100000Y-178787500I0J-137500D01*
G01*
X233100000Y-180137500D01*
G75*
G02*
X232962500Y-180275000I-137500J0D01*
G01*
X232687500Y-180275000D01*
G75*
G02*
X232550000Y-180137500I0J137500D01*
G01*
X232550000Y-178787500D01*
G75*
G02*
X232687500Y-178650000I137500J0D01*
G01*
G37*
G36*
G01*
X232037500Y-178650000D02*
X232312500Y-178650000D01*
G75*
G02*
X232450000Y-178787500I0J-137500D01*
G01*
X232450000Y-180137500D01*
G75*
G02*
X232312500Y-180275000I-137500J0D01*
G01*
X232037500Y-180275000D01*
G75*
G02*
X231900000Y-180137500I0J137500D01*
G01*
X231900000Y-178787500D01*
G75*
G02*
X232037500Y-178650000I137500J0D01*
G01*
G37*
%TD*%
%TO.C,U16*%
G36*
G01*
X215887500Y-184325000D02*
X216162500Y-184325000D01*
G75*
G02*
X216300000Y-184462500I0J-137500D01*
G01*
X216300000Y-185812500D01*
G75*
G02*
X216162500Y-185950000I-137500J0D01*
G01*
X215887500Y-185950000D01*
G75*
G02*
X215750000Y-185812500I0J137500D01*
G01*
X215750000Y-184462500D01*
G75*
G02*
X215887500Y-184325000I137500J0D01*
G01*
G37*
G36*
G01*
X216537500Y-184325000D02*
X216812500Y-184325000D01*
G75*
G02*
X216950000Y-184462500I0J-137500D01*
G01*
X216950000Y-185812500D01*
G75*
G02*
X216812500Y-185950000I-137500J0D01*
G01*
X216537500Y-185950000D01*
G75*
G02*
X216400000Y-185812500I0J137500D01*
G01*
X216400000Y-184462500D01*
G75*
G02*
X216537500Y-184325000I137500J0D01*
G01*
G37*
G36*
G01*
X217187500Y-184325000D02*
X217462500Y-184325000D01*
G75*
G02*
X217600000Y-184462500I0J-137500D01*
G01*
X217600000Y-185812500D01*
G75*
G02*
X217462500Y-185950000I-137500J0D01*
G01*
X217187500Y-185950000D01*
G75*
G02*
X217050000Y-185812500I0J137500D01*
G01*
X217050000Y-184462500D01*
G75*
G02*
X217187500Y-184325000I137500J0D01*
G01*
G37*
G36*
G01*
X217837500Y-184325000D02*
X218112500Y-184325000D01*
G75*
G02*
X218250000Y-184462500I0J-137500D01*
G01*
X218250000Y-185812500D01*
G75*
G02*
X218112500Y-185950000I-137500J0D01*
G01*
X217837500Y-185950000D01*
G75*
G02*
X217700000Y-185812500I0J137500D01*
G01*
X217700000Y-184462500D01*
G75*
G02*
X217837500Y-184325000I137500J0D01*
G01*
G37*
G36*
G01*
X218487500Y-184325000D02*
X218762500Y-184325000D01*
G75*
G02*
X218900000Y-184462500I0J-137500D01*
G01*
X218900000Y-185812500D01*
G75*
G02*
X218762500Y-185950000I-137500J0D01*
G01*
X218487500Y-185950000D01*
G75*
G02*
X218350000Y-185812500I0J137500D01*
G01*
X218350000Y-184462500D01*
G75*
G02*
X218487500Y-184325000I137500J0D01*
G01*
G37*
G36*
G01*
X219137500Y-184325000D02*
X219412500Y-184325000D01*
G75*
G02*
X219550000Y-184462500I0J-137500D01*
G01*
X219550000Y-185812500D01*
G75*
G02*
X219412500Y-185950000I-137500J0D01*
G01*
X219137500Y-185950000D01*
G75*
G02*
X219000000Y-185812500I0J137500D01*
G01*
X219000000Y-184462500D01*
G75*
G02*
X219137500Y-184325000I137500J0D01*
G01*
G37*
G36*
G01*
X219787500Y-184325000D02*
X220062500Y-184325000D01*
G75*
G02*
X220200000Y-184462500I0J-137500D01*
G01*
X220200000Y-185812500D01*
G75*
G02*
X220062500Y-185950000I-137500J0D01*
G01*
X219787500Y-185950000D01*
G75*
G02*
X219650000Y-185812500I0J137500D01*
G01*
X219650000Y-184462500D01*
G75*
G02*
X219787500Y-184325000I137500J0D01*
G01*
G37*
G36*
G01*
X220437500Y-184325000D02*
X220712500Y-184325000D01*
G75*
G02*
X220850000Y-184462500I0J-137500D01*
G01*
X220850000Y-185812500D01*
G75*
G02*
X220712500Y-185950000I-137500J0D01*
G01*
X220437500Y-185950000D01*
G75*
G02*
X220300000Y-185812500I0J137500D01*
G01*
X220300000Y-184462500D01*
G75*
G02*
X220437500Y-184325000I137500J0D01*
G01*
G37*
G36*
G01*
X221087500Y-184325000D02*
X221362500Y-184325000D01*
G75*
G02*
X221500000Y-184462500I0J-137500D01*
G01*
X221500000Y-185812500D01*
G75*
G02*
X221362500Y-185950000I-137500J0D01*
G01*
X221087500Y-185950000D01*
G75*
G02*
X220950000Y-185812500I0J137500D01*
G01*
X220950000Y-184462500D01*
G75*
G02*
X221087500Y-184325000I137500J0D01*
G01*
G37*
G36*
G01*
X221737500Y-184325000D02*
X222012500Y-184325000D01*
G75*
G02*
X222150000Y-184462500I0J-137500D01*
G01*
X222150000Y-185812500D01*
G75*
G02*
X222012500Y-185950000I-137500J0D01*
G01*
X221737500Y-185950000D01*
G75*
G02*
X221600000Y-185812500I0J137500D01*
G01*
X221600000Y-184462500D01*
G75*
G02*
X221737500Y-184325000I137500J0D01*
G01*
G37*
G36*
G01*
X221737500Y-178600000D02*
X222012500Y-178600000D01*
G75*
G02*
X222150000Y-178737500I0J-137500D01*
G01*
X222150000Y-180087500D01*
G75*
G02*
X222012500Y-180225000I-137500J0D01*
G01*
X221737500Y-180225000D01*
G75*
G02*
X221600000Y-180087500I0J137500D01*
G01*
X221600000Y-178737500D01*
G75*
G02*
X221737500Y-178600000I137500J0D01*
G01*
G37*
G36*
G01*
X221087500Y-178600000D02*
X221362500Y-178600000D01*
G75*
G02*
X221500000Y-178737500I0J-137500D01*
G01*
X221500000Y-180087500D01*
G75*
G02*
X221362500Y-180225000I-137500J0D01*
G01*
X221087500Y-180225000D01*
G75*
G02*
X220950000Y-180087500I0J137500D01*
G01*
X220950000Y-178737500D01*
G75*
G02*
X221087500Y-178600000I137500J0D01*
G01*
G37*
G36*
G01*
X220437500Y-178600000D02*
X220712500Y-178600000D01*
G75*
G02*
X220850000Y-178737500I0J-137500D01*
G01*
X220850000Y-180087500D01*
G75*
G02*
X220712500Y-180225000I-137500J0D01*
G01*
X220437500Y-180225000D01*
G75*
G02*
X220300000Y-180087500I0J137500D01*
G01*
X220300000Y-178737500D01*
G75*
G02*
X220437500Y-178600000I137500J0D01*
G01*
G37*
G36*
G01*
X219787500Y-178600000D02*
X220062500Y-178600000D01*
G75*
G02*
X220200000Y-178737500I0J-137500D01*
G01*
X220200000Y-180087500D01*
G75*
G02*
X220062500Y-180225000I-137500J0D01*
G01*
X219787500Y-180225000D01*
G75*
G02*
X219650000Y-180087500I0J137500D01*
G01*
X219650000Y-178737500D01*
G75*
G02*
X219787500Y-178600000I137500J0D01*
G01*
G37*
G36*
G01*
X219137500Y-178600000D02*
X219412500Y-178600000D01*
G75*
G02*
X219550000Y-178737500I0J-137500D01*
G01*
X219550000Y-180087500D01*
G75*
G02*
X219412500Y-180225000I-137500J0D01*
G01*
X219137500Y-180225000D01*
G75*
G02*
X219000000Y-180087500I0J137500D01*
G01*
X219000000Y-178737500D01*
G75*
G02*
X219137500Y-178600000I137500J0D01*
G01*
G37*
G36*
G01*
X218487500Y-178600000D02*
X218762500Y-178600000D01*
G75*
G02*
X218900000Y-178737500I0J-137500D01*
G01*
X218900000Y-180087500D01*
G75*
G02*
X218762500Y-180225000I-137500J0D01*
G01*
X218487500Y-180225000D01*
G75*
G02*
X218350000Y-180087500I0J137500D01*
G01*
X218350000Y-178737500D01*
G75*
G02*
X218487500Y-178600000I137500J0D01*
G01*
G37*
G36*
G01*
X217837500Y-178600000D02*
X218112500Y-178600000D01*
G75*
G02*
X218250000Y-178737500I0J-137500D01*
G01*
X218250000Y-180087500D01*
G75*
G02*
X218112500Y-180225000I-137500J0D01*
G01*
X217837500Y-180225000D01*
G75*
G02*
X217700000Y-180087500I0J137500D01*
G01*
X217700000Y-178737500D01*
G75*
G02*
X217837500Y-178600000I137500J0D01*
G01*
G37*
G36*
G01*
X217187500Y-178600000D02*
X217462500Y-178600000D01*
G75*
G02*
X217600000Y-178737500I0J-137500D01*
G01*
X217600000Y-180087500D01*
G75*
G02*
X217462500Y-180225000I-137500J0D01*
G01*
X217187500Y-180225000D01*
G75*
G02*
X217050000Y-180087500I0J137500D01*
G01*
X217050000Y-178737500D01*
G75*
G02*
X217187500Y-178600000I137500J0D01*
G01*
G37*
G36*
G01*
X216537500Y-178600000D02*
X216812500Y-178600000D01*
G75*
G02*
X216950000Y-178737500I0J-137500D01*
G01*
X216950000Y-180087500D01*
G75*
G02*
X216812500Y-180225000I-137500J0D01*
G01*
X216537500Y-180225000D01*
G75*
G02*
X216400000Y-180087500I0J137500D01*
G01*
X216400000Y-178737500D01*
G75*
G02*
X216537500Y-178600000I137500J0D01*
G01*
G37*
G36*
G01*
X215887500Y-178600000D02*
X216162500Y-178600000D01*
G75*
G02*
X216300000Y-178737500I0J-137500D01*
G01*
X216300000Y-180087500D01*
G75*
G02*
X216162500Y-180225000I-137500J0D01*
G01*
X215887500Y-180225000D01*
G75*
G02*
X215750000Y-180087500I0J137500D01*
G01*
X215750000Y-178737500D01*
G75*
G02*
X215887500Y-178600000I137500J0D01*
G01*
G37*
%TD*%
D15*
%TO.C,FID1*%
X272000000Y-50000000D03*
%TD*%
%TO.C,FID2*%
X144000000Y-130000000D03*
%TD*%
D16*
%TO.C,J5*%
X141300000Y-52900000D03*
D17*
X141300000Y-57400000D03*
%TD*%
%TO.C,R65*%
G36*
G01*
X218488845Y-121145000D02*
X219831155Y-121145000D01*
G75*
G02*
X220110000Y-121423845I0J-278845D01*
G01*
X220110000Y-122316155D01*
G75*
G02*
X219831155Y-122595000I-278845J0D01*
G01*
X218488845Y-122595000D01*
G75*
G02*
X218210000Y-122316155I0J278845D01*
G01*
X218210000Y-121423845D01*
G75*
G02*
X218488845Y-121145000I278845J0D01*
G01*
G37*
G36*
G01*
X218488845Y-118045000D02*
X219831155Y-118045000D01*
G75*
G02*
X220110000Y-118323845I0J-278845D01*
G01*
X220110000Y-119216155D01*
G75*
G02*
X219831155Y-119495000I-278845J0D01*
G01*
X218488845Y-119495000D01*
G75*
G02*
X218210000Y-119216155I0J278845D01*
G01*
X218210000Y-118323845D01*
G75*
G02*
X218488845Y-118045000I278845J0D01*
G01*
G37*
%TD*%
D18*
%TO.C,J7*%
X267500000Y-51160000D03*
X267500000Y-58160000D03*
%TD*%
%TO.C,R35*%
G36*
G01*
X177581154Y-183685000D02*
X176238846Y-183685000D01*
G75*
G02*
X175960000Y-183406154I0J278846D01*
G01*
X175960000Y-182513846D01*
G75*
G02*
X176238846Y-182235000I278846J0D01*
G01*
X177581154Y-182235000D01*
G75*
G02*
X177860000Y-182513846I0J-278846D01*
G01*
X177860000Y-183406154D01*
G75*
G02*
X177581154Y-183685000I-278846J0D01*
G01*
G37*
G36*
G01*
X177581154Y-186785000D02*
X176238846Y-186785000D01*
G75*
G02*
X175960000Y-186506154I0J278846D01*
G01*
X175960000Y-185613846D01*
G75*
G02*
X176238846Y-185335000I278846J0D01*
G01*
X177581154Y-185335000D01*
G75*
G02*
X177860000Y-185613846I0J-278846D01*
G01*
X177860000Y-186506154D01*
G75*
G02*
X177581154Y-186785000I-278846J0D01*
G01*
G37*
%TD*%
%TO.C,R36*%
G36*
G01*
X181201154Y-183695000D02*
X179858846Y-183695000D01*
G75*
G02*
X179580000Y-183416154I0J278846D01*
G01*
X179580000Y-182523846D01*
G75*
G02*
X179858846Y-182245000I278846J0D01*
G01*
X181201154Y-182245000D01*
G75*
G02*
X181480000Y-182523846I0J-278846D01*
G01*
X181480000Y-183416154D01*
G75*
G02*
X181201154Y-183695000I-278846J0D01*
G01*
G37*
G36*
G01*
X181201154Y-186795000D02*
X179858846Y-186795000D01*
G75*
G02*
X179580000Y-186516154I0J278846D01*
G01*
X179580000Y-185623846D01*
G75*
G02*
X179858846Y-185345000I278846J0D01*
G01*
X181201154Y-185345000D01*
G75*
G02*
X181480000Y-185623846I0J-278846D01*
G01*
X181480000Y-186516154D01*
G75*
G02*
X181201154Y-186795000I-278846J0D01*
G01*
G37*
%TD*%
%TO.C,R67*%
G36*
G01*
X260835000Y-65341154D02*
X260835000Y-63998846D01*
G75*
G02*
X261113846Y-63720000I278846J0D01*
G01*
X262006154Y-63720000D01*
G75*
G02*
X262285000Y-63998846I0J-278846D01*
G01*
X262285000Y-65341154D01*
G75*
G02*
X262006154Y-65620000I-278846J0D01*
G01*
X261113846Y-65620000D01*
G75*
G02*
X260835000Y-65341154I0J278846D01*
G01*
G37*
G36*
G01*
X263935000Y-65341154D02*
X263935000Y-63998846D01*
G75*
G02*
X264213846Y-63720000I278846J0D01*
G01*
X265106154Y-63720000D01*
G75*
G02*
X265385000Y-63998846I0J-278846D01*
G01*
X265385000Y-65341154D01*
G75*
G02*
X265106154Y-65620000I-278846J0D01*
G01*
X264213846Y-65620000D01*
G75*
G02*
X263935000Y-65341154I0J278846D01*
G01*
G37*
%TD*%
%TO.C,R68*%
G36*
G01*
X270518846Y-54075000D02*
X271861154Y-54075000D01*
G75*
G02*
X272140000Y-54353846I0J-278846D01*
G01*
X272140000Y-55246154D01*
G75*
G02*
X271861154Y-55525000I-278846J0D01*
G01*
X270518846Y-55525000D01*
G75*
G02*
X270240000Y-55246154I0J278846D01*
G01*
X270240000Y-54353846D01*
G75*
G02*
X270518846Y-54075000I278846J0D01*
G01*
G37*
G36*
G01*
X270518846Y-57175000D02*
X271861154Y-57175000D01*
G75*
G02*
X272140000Y-57453846I0J-278846D01*
G01*
X272140000Y-58346154D01*
G75*
G02*
X271861154Y-58625000I-278846J0D01*
G01*
X270518846Y-58625000D01*
G75*
G02*
X270240000Y-58346154I0J278846D01*
G01*
X270240000Y-57453846D01*
G75*
G02*
X270518846Y-57175000I278846J0D01*
G01*
G37*
%TD*%
%TO.C,C53*%
G36*
G01*
X194475000Y-53833300D02*
X194475000Y-55226700D01*
G75*
G02*
X194196700Y-55505000I-278300J0D01*
G01*
X193278300Y-55505000D01*
G75*
G02*
X193000000Y-55226700I0J278300D01*
G01*
X193000000Y-53833300D01*
G75*
G02*
X193278300Y-53555000I278300J0D01*
G01*
X194196700Y-53555000D01*
G75*
G02*
X194475000Y-53833300I0J-278300D01*
G01*
G37*
G36*
G01*
X197600000Y-53833300D02*
X197600000Y-55226700D01*
G75*
G02*
X197321700Y-55505000I-278300J0D01*
G01*
X196403300Y-55505000D01*
G75*
G02*
X196125000Y-55226700I0J278300D01*
G01*
X196125000Y-53833300D01*
G75*
G02*
X196403300Y-53555000I278300J0D01*
G01*
X197321700Y-53555000D01*
G75*
G02*
X197600000Y-53833300I0J-278300D01*
G01*
G37*
%TD*%
%TO.C,C54*%
G36*
G01*
X215200000Y-55296700D02*
X215200000Y-53903300D01*
G75*
G02*
X215478300Y-53625000I278300J0D01*
G01*
X216396700Y-53625000D01*
G75*
G02*
X216675000Y-53903300I0J-278300D01*
G01*
X216675000Y-55296700D01*
G75*
G02*
X216396700Y-55575000I-278300J0D01*
G01*
X215478300Y-55575000D01*
G75*
G02*
X215200000Y-55296700I0J278300D01*
G01*
G37*
G36*
G01*
X218325000Y-55296700D02*
X218325000Y-53903300D01*
G75*
G02*
X218603300Y-53625000I278300J0D01*
G01*
X219521700Y-53625000D01*
G75*
G02*
X219800000Y-53903300I0J-278300D01*
G01*
X219800000Y-55296700D01*
G75*
G02*
X219521700Y-55575000I-278300J0D01*
G01*
X218603300Y-55575000D01*
G75*
G02*
X218325000Y-55296700I0J278300D01*
G01*
G37*
%TD*%
%TO.C,J2*%
G36*
G01*
X203027000Y-60305000D02*
X203027000Y-61955000D01*
G75*
G02*
X202925000Y-62057000I-102000J0D01*
G01*
X201275000Y-62057000D01*
G75*
G02*
X201173000Y-61955000I0J102000D01*
G01*
X201173000Y-60305000D01*
G75*
G02*
X201275000Y-60203000I102000J0D01*
G01*
X202925000Y-60203000D01*
G75*
G02*
X203027000Y-60305000I0J-102000D01*
G01*
G37*
D19*
X204390000Y-61130000D03*
X206680000Y-61130000D03*
X208970000Y-61130000D03*
X211260000Y-61130000D03*
X200955000Y-58590000D03*
X203245000Y-58590000D03*
X205535000Y-58590000D03*
X207825000Y-58590000D03*
X210115000Y-58590000D03*
X202100000Y-56050000D03*
X204390000Y-56050000D03*
X206680000Y-56050000D03*
X208970000Y-56050000D03*
X211260000Y-56050000D03*
D20*
X218925000Y-58590000D03*
X193935000Y-58590000D03*
%TD*%
%TO.C,R29*%
G36*
G01*
X205075000Y-51888846D02*
X205075000Y-53231154D01*
G75*
G02*
X204796154Y-53510000I-278846J0D01*
G01*
X203903846Y-53510000D01*
G75*
G02*
X203625000Y-53231154I0J278846D01*
G01*
X203625000Y-51888846D01*
G75*
G02*
X203903846Y-51610000I278846J0D01*
G01*
X204796154Y-51610000D01*
G75*
G02*
X205075000Y-51888846I0J-278846D01*
G01*
G37*
G36*
G01*
X201975000Y-51888846D02*
X201975000Y-53231154D01*
G75*
G02*
X201696154Y-53510000I-278846J0D01*
G01*
X200803846Y-53510000D01*
G75*
G02*
X200525000Y-53231154I0J278846D01*
G01*
X200525000Y-51888846D01*
G75*
G02*
X200803846Y-51610000I278846J0D01*
G01*
X201696154Y-51610000D01*
G75*
G02*
X201975000Y-51888846I0J-278846D01*
G01*
G37*
%TD*%
%TO.C,R30*%
G36*
G01*
X207475000Y-51888846D02*
X207475000Y-53231154D01*
G75*
G02*
X207196154Y-53510000I-278846J0D01*
G01*
X206303846Y-53510000D01*
G75*
G02*
X206025000Y-53231154I0J278846D01*
G01*
X206025000Y-51888846D01*
G75*
G02*
X206303846Y-51610000I278846J0D01*
G01*
X207196154Y-51610000D01*
G75*
G02*
X207475000Y-51888846I0J-278846D01*
G01*
G37*
G36*
G01*
X210575000Y-51888846D02*
X210575000Y-53231154D01*
G75*
G02*
X210296154Y-53510000I-278846J0D01*
G01*
X209403846Y-53510000D01*
G75*
G02*
X209125000Y-53231154I0J278846D01*
G01*
X209125000Y-51888846D01*
G75*
G02*
X209403846Y-51610000I278846J0D01*
G01*
X210296154Y-51610000D01*
G75*
G02*
X210575000Y-51888846I0J-278846D01*
G01*
G37*
%TD*%
M02*
